ISO-10303-21;
HEADER;
/* Generated by software containing ST-Developer
 * from STEP Tools, Inc. (www.steptools.com) 
 */

FILE_DESCRIPTION(
/* description */ (''),
/* implementation_level */ '2;1');

FILE_NAME(
/* name */ 'Cover.stp',
/* time_stamp */ '2025-11-05T19:46:34-08:00',
/* author */ ('alexi'),
/* organization */ (''),
/* preprocessor_version */ 'ST-DEVELOPER v19.2',
/* originating_system */ 'Autodesk Inventor 2024',
/* authorisation */ '');

FILE_SCHEMA (('AUTOMOTIVE_DESIGN { 1 0 10303 214 3 1 1 }'));
ENDSEC;

DATA;
#10=MECHANICAL_DESIGN_GEOMETRIC_PRESENTATION_REPRESENTATION('',(#13),#1075);
#11=SHAPE_REPRESENTATION_RELATIONSHIP('SRR','None',#1082,#12);
#12=ADVANCED_BREP_SHAPE_REPRESENTATION('',(#14),#1074);
#13=STYLED_ITEM('',(#1092),#14);
#14=MANIFOLD_SOLID_BREP('\X2\C194B9ACB4DC\X0\1',#622);
#15=FACE_BOUND('',#89,.T.);
#16=FACE_BOUND('',#90,.T.);
#17=FACE_BOUND('',#91,.T.);
#18=FACE_BOUND('',#96,.T.);
#19=FACE_BOUND('',#97,.T.);
#20=FACE_BOUND('',#98,.T.);
#21=FACE_BOUND('',#105,.T.);
#22=FACE_BOUND('',#106,.T.);
#23=FACE_BOUND('',#107,.T.);
#24=FACE_BOUND('',#113,.T.);
#25=FACE_BOUND('',#114,.T.);
#26=FACE_BOUND('',#115,.T.);
#27=FACE_BOUND('',#121,.T.);
#28=FACE_BOUND('',#122,.T.);
#29=FACE_BOUND('',#123,.T.);
#30=FACE_BOUND('',#129,.T.);
#31=FACE_BOUND('',#130,.T.);
#32=FACE_BOUND('',#131,.T.);
#33=PLANE('',#648);
#34=PLANE('',#650);
#35=PLANE('',#660);
#36=PLANE('',#666);
#37=PLANE('',#667);
#38=PLANE('',#668);
#39=PLANE('',#669);
#40=PLANE('',#673);
#41=PLANE('',#686);
#42=PLANE('',#687);
#43=PLANE('',#691);
#44=PLANE('',#693);
#45=PLANE('',#695);
#46=PLANE('',#696);
#47=PLANE('',#704);
#48=PLANE('',#708);
#49=PLANE('',#711);
#50=PLANE('',#712);
#51=FACE_OUTER_BOUND('',#86,.T.);
#52=FACE_OUTER_BOUND('',#87,.T.);
#53=FACE_OUTER_BOUND('',#88,.T.);
#54=FACE_OUTER_BOUND('',#92,.T.);
#55=FACE_OUTER_BOUND('',#93,.T.);
#56=FACE_OUTER_BOUND('',#94,.T.);
#57=FACE_OUTER_BOUND('',#95,.T.);
#58=FACE_OUTER_BOUND('',#99,.T.);
#59=FACE_OUTER_BOUND('',#100,.T.);
#60=FACE_OUTER_BOUND('',#101,.T.);
#61=FACE_OUTER_BOUND('',#102,.T.);
#62=FACE_OUTER_BOUND('',#103,.T.);
#63=FACE_OUTER_BOUND('',#104,.T.);
#64=FACE_OUTER_BOUND('',#108,.T.);
#65=FACE_OUTER_BOUND('',#109,.T.);
#66=FACE_OUTER_BOUND('',#110,.T.);
#67=FACE_OUTER_BOUND('',#111,.T.);
#68=FACE_OUTER_BOUND('',#112,.T.);
#69=FACE_OUTER_BOUND('',#116,.T.);
#70=FACE_OUTER_BOUND('',#117,.T.);
#71=FACE_OUTER_BOUND('',#118,.T.);
#72=FACE_OUTER_BOUND('',#119,.T.);
#73=FACE_OUTER_BOUND('',#120,.T.);
#74=FACE_OUTER_BOUND('',#124,.T.);
#75=FACE_OUTER_BOUND('',#125,.T.);
#76=FACE_OUTER_BOUND('',#126,.T.);
#77=FACE_OUTER_BOUND('',#127,.T.);
#78=FACE_OUTER_BOUND('',#128,.T.);
#79=FACE_OUTER_BOUND('',#132,.T.);
#80=FACE_OUTER_BOUND('',#133,.T.);
#81=FACE_OUTER_BOUND('',#134,.T.);
#82=FACE_OUTER_BOUND('',#135,.T.);
#83=FACE_OUTER_BOUND('',#136,.T.);
#84=FACE_OUTER_BOUND('',#137,.T.);
#85=FACE_OUTER_BOUND('',#138,.T.);
#86=EDGE_LOOP('',(#404,#405,#406,#407));
#87=EDGE_LOOP('',(#408,#409,#410,#411));
#88=EDGE_LOOP('',(#412,#413,#414,#415));
#89=EDGE_LOOP('',(#416));
#90=EDGE_LOOP('',(#417));
#91=EDGE_LOOP('',(#418));
#92=EDGE_LOOP('',(#419,#420,#421,#422));
#93=EDGE_LOOP('',(#423,#424,#425,#426));
#94=EDGE_LOOP('',(#427,#428,#429,#430));
#95=EDGE_LOOP('',(#431,#432,#433,#434,#435,#436));
#96=EDGE_LOOP('',(#437));
#97=EDGE_LOOP('',(#438));
#98=EDGE_LOOP('',(#439));
#99=EDGE_LOOP('',(#440,#441,#442,#443));
#100=EDGE_LOOP('',(#444,#445,#446,#447));
#101=EDGE_LOOP('',(#448,#449,#450,#451));
#102=EDGE_LOOP('',(#452,#453,#454,#455));
#103=EDGE_LOOP('',(#456,#457,#458,#459));
#104=EDGE_LOOP('',(#460,#461,#462,#463,#464,#465));
#105=EDGE_LOOP('',(#466));
#106=EDGE_LOOP('',(#467));
#107=EDGE_LOOP('',(#468));
#108=EDGE_LOOP('',(#469,#470,#471,#472));
#109=EDGE_LOOP('',(#473,#474,#475,#476));
#110=EDGE_LOOP('',(#477,#478,#479,#480));
#111=EDGE_LOOP('',(#481,#482,#483,#484));
#112=EDGE_LOOP('',(#485,#486,#487,#488,#489,#490));
#113=EDGE_LOOP('',(#491));
#114=EDGE_LOOP('',(#492));
#115=EDGE_LOOP('',(#493));
#116=EDGE_LOOP('',(#494,#495,#496,#497));
#117=EDGE_LOOP('',(#498,#499,#500,#501));
#118=EDGE_LOOP('',(#502,#503,#504,#505));
#119=EDGE_LOOP('',(#506,#507,#508,#509));
#120=EDGE_LOOP('',(#510,#511,#512,#513));
#121=EDGE_LOOP('',(#514));
#122=EDGE_LOOP('',(#515));
#123=EDGE_LOOP('',(#516));
#124=EDGE_LOOP('',(#517,#518,#519,#520));
#125=EDGE_LOOP('',(#521,#522,#523,#524));
#126=EDGE_LOOP('',(#525,#526,#527,#528));
#127=EDGE_LOOP('',(#529,#530,#531,#532));
#128=EDGE_LOOP('',(#533,#534,#535,#536,#537,#538));
#129=EDGE_LOOP('',(#539));
#130=EDGE_LOOP('',(#540));
#131=EDGE_LOOP('',(#541));
#132=EDGE_LOOP('',(#542,#543,#544,#545));
#133=EDGE_LOOP('',(#546,#547,#548,#549));
#134=EDGE_LOOP('',(#550,#551,#552,#553));
#135=EDGE_LOOP('',(#554,#555,#556,#557));
#136=EDGE_LOOP('',(#558,#559,#560,#561));
#137=EDGE_LOOP('',(#562,#563,#564,#565));
#138=EDGE_LOOP('',(#566,#567,#568,#569));
#139=LINE('',#909,#188);
#140=LINE('',#912,#189);
#141=LINE('',#915,#190);
#142=LINE('',#918,#191);
#143=LINE('',#921,#192);
#144=LINE('',#923,#193);
#145=LINE('',#924,#194);
#146=LINE('',#933,#195);
#147=LINE('',#937,#196);
#148=LINE('',#941,#197);
#149=LINE('',#945,#198);
#150=LINE('',#949,#199);
#151=LINE('',#952,#200);
#152=LINE('',#961,#201);
#153=LINE('',#963,#202);
#154=LINE('',#964,#203);
#155=LINE('',#967,#204);
#156=LINE('',#968,#205);
#157=LINE('',#971,#206);
#158=LINE('',#973,#207);
#159=LINE('',#974,#208);
#160=LINE('',#977,#209);
#161=LINE('',#979,#210);
#162=LINE('',#980,#211);
#163=LINE('',#985,#212);
#164=LINE('',#990,#213);
#165=LINE('',#992,#214);
#166=LINE('',#996,#215);
#167=LINE('',#999,#216);
#168=LINE('',#1008,#217);
#169=LINE('',#1013,#218);
#170=LINE('',#1017,#219);
#171=LINE('',#1020,#220);
#172=LINE('',#1022,#221);
#173=LINE('',#1023,#222);
#174=LINE('',#1026,#223);
#175=LINE('',#1030,#224);
#176=LINE('',#1034,#225);
#177=LINE('',#1035,#226);
#178=LINE('',#1038,#227);
#179=LINE('',#1039,#228);
#180=LINE('',#1042,#229);
#181=LINE('',#1047,#230);
#182=LINE('',#1051,#231);
#183=LINE('',#1056,#232);
#184=LINE('',#1057,#233);
#185=LINE('',#1063,#234);
#186=LINE('',#1066,#235);
#187=LINE('',#1068,#236);
#188=VECTOR('',#720,10.);
#189=VECTOR('',#723,25.4);
#190=VECTOR('',#726,10.);
#191=VECTOR('',#729,10.);
#192=VECTOR('',#732,25.4);
#193=VECTOR('',#733,25.4);
#194=VECTOR('',#734,25.4);
#195=VECTOR('',#743,2.4765);
#196=VECTOR('',#748,2.4765);
#197=VECTOR('',#753,2.4765);
#198=VECTOR('',#758,25.4);
#199=VECTOR('',#761,25.4);
#200=VECTOR('',#764,25.4);
#201=VECTOR('',#773,25.4);
#202=VECTOR('',#774,25.4);
#203=VECTOR('',#775,25.4);
#204=VECTOR('',#778,10.);
#205=VECTOR('',#779,25.4);
#206=VECTOR('',#782,25.4);
#207=VECTOR('',#783,25.4);
#208=VECTOR('',#784,25.4);
#209=VECTOR('',#787,10.);
#210=VECTOR('',#788,25.4);
#211=VECTOR('',#789,10.);
#212=VECTOR('',#794,25.4);
#213=VECTOR('',#799,25.4);
#214=VECTOR('',#800,25.4);
#215=VECTOR('',#803,25.4);
#216=VECTOR('',#806,25.4);
#217=VECTOR('',#817,25.4);
#218=VECTOR('',#824,2.4765);
#219=VECTOR('',#829,2.4765);
#220=VECTOR('',#832,25.4);
#221=VECTOR('',#833,25.4);
#222=VECTOR('',#834,25.4);
#223=VECTOR('',#837,25.4);
#224=VECTOR('',#842,25.4);
#225=VECTOR('',#847,25.4);
#226=VECTOR('',#848,10.);
#227=VECTOR('',#853,10.);
#228=VECTOR('',#854,25.4);
#229=VECTOR('',#859,25.4);
#230=VECTOR('',#866,2.4765);
#231=VECTOR('',#871,25.4);
#232=VECTOR('',#880,25.4);
#233=VECTOR('',#881,25.4);
#234=VECTOR('',#888,2.4765);
#235=VECTOR('',#893,2.4765);
#236=VECTOR('',#896,2.4765);
#237=CIRCLE('',#646,1.9050014476937);
#238=CIRCLE('',#647,1.90500144769366);
#239=CIRCLE('',#649,3.12419999999998);
#240=CIRCLE('',#651,2.4765);
#241=CIRCLE('',#652,2.4765);
#242=CIRCLE('',#653,2.4765);
#243=CIRCLE('',#655,2.4765);
#244=CIRCLE('',#657,2.4765);
#245=CIRCLE('',#659,2.4765);
#246=CIRCLE('',#661,1.2699999993523);
#247=CIRCLE('',#662,1.2699999993523);
#248=CIRCLE('',#663,2.4765);
#249=CIRCLE('',#664,2.4765);
#250=CIRCLE('',#665,2.4765);
#251=CIRCLE('',#671,1.90500144769285);
#252=CIRCLE('',#672,1.90500144769285);
#253=CIRCLE('',#674,1.2699999993523);
#254=CIRCLE('',#675,1.2699999993523);
#255=CIRCLE('',#676,2.4765);
#256=CIRCLE('',#677,2.4765);
#257=CIRCLE('',#678,2.4765);
#258=CIRCLE('',#680,3.12419999999996);
#259=CIRCLE('',#681,3.12420000000003);
#260=CIRCLE('',#683,2.4765);
#261=CIRCLE('',#685,2.4765);
#262=CIRCLE('',#688,1.2699999993523);
#263=CIRCLE('',#689,1.2699999993523);
#264=CIRCLE('',#690,2.4765);
#265=CIRCLE('',#697,3.1242);
#266=CIRCLE('',#699,2.4765);
#267=CIRCLE('',#701,1.2699999993523);
#268=CIRCLE('',#703,1.2699999993523);
#269=CIRCLE('',#705,2.4765);
#270=CIRCLE('',#706,2.4765);
#271=VERTEX_POINT('',#905);
#272=VERTEX_POINT('',#906);
#273=VERTEX_POINT('',#908);
#274=VERTEX_POINT('',#910);
#275=VERTEX_POINT('',#914);
#276=VERTEX_POINT('',#916);
#277=VERTEX_POINT('',#920);
#278=VERTEX_POINT('',#922);
#279=VERTEX_POINT('',#925);
#280=VERTEX_POINT('',#927);
#281=VERTEX_POINT('',#929);
#282=VERTEX_POINT('',#932);
#283=VERTEX_POINT('',#936);
#284=VERTEX_POINT('',#940);
#285=VERTEX_POINT('',#944);
#286=VERTEX_POINT('',#946);
#287=VERTEX_POINT('',#948);
#288=VERTEX_POINT('',#950);
#289=VERTEX_POINT('',#953);
#290=VERTEX_POINT('',#955);
#291=VERTEX_POINT('',#957);
#292=VERTEX_POINT('',#960);
#293=VERTEX_POINT('',#962);
#294=VERTEX_POINT('',#966);
#295=VERTEX_POINT('',#970);
#296=VERTEX_POINT('',#972);
#297=VERTEX_POINT('',#976);
#298=VERTEX_POINT('',#978);
#299=VERTEX_POINT('',#982);
#300=VERTEX_POINT('',#984);
#301=VERTEX_POINT('',#988);
#302=VERTEX_POINT('',#989);
#303=VERTEX_POINT('',#991);
#304=VERTEX_POINT('',#993);
#305=VERTEX_POINT('',#995);
#306=VERTEX_POINT('',#997);
#307=VERTEX_POINT('',#1000);
#308=VERTEX_POINT('',#1002);
#309=VERTEX_POINT('',#1004);
#310=VERTEX_POINT('',#1011);
#311=VERTEX_POINT('',#1015);
#312=VERTEX_POINT('',#1019);
#313=VERTEX_POINT('',#1021);
#314=VERTEX_POINT('',#1025);
#315=VERTEX_POINT('',#1028);
#316=VERTEX_POINT('',#1031);
#317=VERTEX_POINT('',#1046);
#318=VERTEX_POINT('',#1050);
#319=VERTEX_POINT('',#1058);
#320=VERTEX_POINT('',#1060);
#321=EDGE_CURVE('',#271,#272,#237,.T.);
#322=EDGE_CURVE('',#273,#271,#139,.T.);
#323=EDGE_CURVE('',#273,#274,#238,.T.);
#324=EDGE_CURVE('',#272,#274,#140,.T.);
#325=EDGE_CURVE('',#275,#272,#141,.T.);
#326=EDGE_CURVE('',#275,#276,#239,.T.);
#327=EDGE_CURVE('',#271,#276,#142,.T.);
#328=EDGE_CURVE('',#277,#272,#143,.T.);
#329=EDGE_CURVE('',#274,#278,#144,.T.);
#330=EDGE_CURVE('',#278,#277,#145,.T.);
#331=EDGE_CURVE('',#279,#279,#240,.T.);
#332=EDGE_CURVE('',#280,#280,#241,.T.);
#333=EDGE_CURVE('',#281,#281,#242,.T.);
#334=EDGE_CURVE('',#280,#282,#146,.T.);
#335=EDGE_CURVE('',#282,#282,#243,.T.);
#336=EDGE_CURVE('',#279,#283,#147,.T.);
#337=EDGE_CURVE('',#283,#283,#244,.T.);
#338=EDGE_CURVE('',#281,#284,#148,.T.);
#339=EDGE_CURVE('',#284,#284,#245,.T.);
#340=EDGE_CURVE('',#271,#285,#149,.T.);
#341=EDGE_CURVE('',#285,#286,#246,.T.);
#342=EDGE_CURVE('',#286,#287,#150,.T.);
#343=EDGE_CURVE('',#287,#288,#247,.T.);
#344=EDGE_CURVE('',#288,#273,#151,.T.);
#345=EDGE_CURVE('',#289,#289,#248,.T.);
#346=EDGE_CURVE('',#290,#290,#249,.T.);
#347=EDGE_CURVE('',#291,#291,#250,.T.);
#348=EDGE_CURVE('',#292,#288,#152,.T.);
#349=EDGE_CURVE('',#292,#293,#153,.T.);
#350=EDGE_CURVE('',#293,#273,#154,.T.);
#351=EDGE_CURVE('',#277,#294,#155,.T.);
#352=EDGE_CURVE('',#294,#275,#156,.T.);
#353=EDGE_CURVE('',#295,#286,#157,.T.);
#354=EDGE_CURVE('',#295,#296,#158,.T.);
#355=EDGE_CURVE('',#296,#287,#159,.T.);
#356=EDGE_CURVE('',#274,#297,#160,.T.);
#357=EDGE_CURVE('',#297,#298,#161,.T.);
#358=EDGE_CURVE('',#298,#278,#162,.T.);
#359=EDGE_CURVE('',#299,#278,#251,.T.);
#360=EDGE_CURVE('',#300,#299,#163,.T.);
#361=EDGE_CURVE('',#300,#277,#252,.T.);
#362=EDGE_CURVE('',#301,#302,#164,.T.);
#363=EDGE_CURVE('',#303,#301,#165,.T.);
#364=EDGE_CURVE('',#304,#303,#253,.T.);
#365=EDGE_CURVE('',#305,#304,#166,.T.);
#366=EDGE_CURVE('',#306,#305,#254,.T.);
#367=EDGE_CURVE('',#302,#306,#167,.T.);
#368=EDGE_CURVE('',#307,#307,#255,.T.);
#369=EDGE_CURVE('',#308,#308,#256,.T.);
#370=EDGE_CURVE('',#309,#309,#257,.T.);
#371=EDGE_CURVE('',#298,#302,#258,.T.);
#372=EDGE_CURVE('',#298,#294,#168,.T.);
#373=EDGE_CURVE('',#294,#301,#259,.T.);
#374=EDGE_CURVE('',#310,#310,#260,.T.);
#375=EDGE_CURVE('',#310,#308,#169,.T.);
#376=EDGE_CURVE('',#311,#311,#261,.T.);
#377=EDGE_CURVE('',#311,#309,#170,.T.);
#378=EDGE_CURVE('',#305,#312,#171,.T.);
#379=EDGE_CURVE('',#304,#313,#172,.T.);
#380=EDGE_CURVE('',#312,#313,#173,.T.);
#381=EDGE_CURVE('',#299,#314,#174,.T.);
#382=EDGE_CURVE('',#314,#312,#262,.T.);
#383=EDGE_CURVE('',#313,#315,#263,.T.);
#384=EDGE_CURVE('',#315,#300,#175,.T.);
#385=EDGE_CURVE('',#316,#316,#264,.T.);
#386=EDGE_CURVE('',#303,#315,#176,.T.);
#387=EDGE_CURVE('',#301,#300,#177,.T.);
#388=EDGE_CURVE('',#299,#302,#178,.T.);
#389=EDGE_CURVE('',#306,#314,#179,.T.);
#390=EDGE_CURVE('',#275,#297,#180,.T.);
#391=EDGE_CURVE('',#297,#293,#265,.T.);
#392=EDGE_CURVE('',#289,#317,#181,.T.);
#393=EDGE_CURVE('',#317,#317,#266,.T.);
#394=EDGE_CURVE('',#318,#285,#182,.T.);
#395=EDGE_CURVE('',#318,#295,#267,.T.);
#396=EDGE_CURVE('',#296,#292,#268,.T.);
#397=EDGE_CURVE('',#293,#276,#183,.T.);
#398=EDGE_CURVE('',#276,#318,#184,.T.);
#399=EDGE_CURVE('',#319,#319,#269,.T.);
#400=EDGE_CURVE('',#320,#320,#270,.T.);
#401=EDGE_CURVE('',#290,#319,#185,.T.);
#402=EDGE_CURVE('',#316,#307,#186,.T.);
#403=EDGE_CURVE('',#291,#320,#187,.T.);
#404=ORIENTED_EDGE('',*,*,#321,.F.);
#405=ORIENTED_EDGE('',*,*,#322,.F.);
#406=ORIENTED_EDGE('',*,*,#323,.T.);
#407=ORIENTED_EDGE('',*,*,#324,.F.);
#408=ORIENTED_EDGE('',*,*,#321,.T.);
#409=ORIENTED_EDGE('',*,*,#325,.F.);
#410=ORIENTED_EDGE('',*,*,#326,.T.);
#411=ORIENTED_EDGE('',*,*,#327,.F.);
#412=ORIENTED_EDGE('',*,*,#328,.T.);
#413=ORIENTED_EDGE('',*,*,#324,.T.);
#414=ORIENTED_EDGE('',*,*,#329,.T.);
#415=ORIENTED_EDGE('',*,*,#330,.T.);
#416=ORIENTED_EDGE('',*,*,#331,.F.);
#417=ORIENTED_EDGE('',*,*,#332,.F.);
#418=ORIENTED_EDGE('',*,*,#333,.F.);
#419=ORIENTED_EDGE('',*,*,#332,.T.);
#420=ORIENTED_EDGE('',*,*,#334,.T.);
#421=ORIENTED_EDGE('',*,*,#335,.F.);
#422=ORIENTED_EDGE('',*,*,#334,.F.);
#423=ORIENTED_EDGE('',*,*,#331,.T.);
#424=ORIENTED_EDGE('',*,*,#336,.T.);
#425=ORIENTED_EDGE('',*,*,#337,.F.);
#426=ORIENTED_EDGE('',*,*,#336,.F.);
#427=ORIENTED_EDGE('',*,*,#333,.T.);
#428=ORIENTED_EDGE('',*,*,#338,.T.);
#429=ORIENTED_EDGE('',*,*,#339,.F.);
#430=ORIENTED_EDGE('',*,*,#338,.F.);
#431=ORIENTED_EDGE('',*,*,#322,.T.);
#432=ORIENTED_EDGE('',*,*,#340,.T.);
#433=ORIENTED_EDGE('',*,*,#341,.T.);
#434=ORIENTED_EDGE('',*,*,#342,.T.);
#435=ORIENTED_EDGE('',*,*,#343,.T.);
#436=ORIENTED_EDGE('',*,*,#344,.T.);
#437=ORIENTED_EDGE('',*,*,#345,.F.);
#438=ORIENTED_EDGE('',*,*,#346,.F.);
#439=ORIENTED_EDGE('',*,*,#347,.F.);
#440=ORIENTED_EDGE('',*,*,#348,.F.);
#441=ORIENTED_EDGE('',*,*,#349,.T.);
#442=ORIENTED_EDGE('',*,*,#350,.T.);
#443=ORIENTED_EDGE('',*,*,#344,.F.);
#444=ORIENTED_EDGE('',*,*,#351,.T.);
#445=ORIENTED_EDGE('',*,*,#352,.T.);
#446=ORIENTED_EDGE('',*,*,#325,.T.);
#447=ORIENTED_EDGE('',*,*,#328,.F.);
#448=ORIENTED_EDGE('',*,*,#353,.F.);
#449=ORIENTED_EDGE('',*,*,#354,.T.);
#450=ORIENTED_EDGE('',*,*,#355,.T.);
#451=ORIENTED_EDGE('',*,*,#342,.F.);
#452=ORIENTED_EDGE('',*,*,#356,.T.);
#453=ORIENTED_EDGE('',*,*,#357,.T.);
#454=ORIENTED_EDGE('',*,*,#358,.T.);
#455=ORIENTED_EDGE('',*,*,#329,.F.);
#456=ORIENTED_EDGE('',*,*,#359,.F.);
#457=ORIENTED_EDGE('',*,*,#360,.F.);
#458=ORIENTED_EDGE('',*,*,#361,.T.);
#459=ORIENTED_EDGE('',*,*,#330,.F.);
#460=ORIENTED_EDGE('',*,*,#362,.F.);
#461=ORIENTED_EDGE('',*,*,#363,.F.);
#462=ORIENTED_EDGE('',*,*,#364,.F.);
#463=ORIENTED_EDGE('',*,*,#365,.F.);
#464=ORIENTED_EDGE('',*,*,#366,.F.);
#465=ORIENTED_EDGE('',*,*,#367,.F.);
#466=ORIENTED_EDGE('',*,*,#368,.T.);
#467=ORIENTED_EDGE('',*,*,#369,.T.);
#468=ORIENTED_EDGE('',*,*,#370,.T.);
#469=ORIENTED_EDGE('',*,*,#371,.F.);
#470=ORIENTED_EDGE('',*,*,#372,.T.);
#471=ORIENTED_EDGE('',*,*,#373,.T.);
#472=ORIENTED_EDGE('',*,*,#362,.T.);
#473=ORIENTED_EDGE('',*,*,#374,.T.);
#474=ORIENTED_EDGE('',*,*,#375,.T.);
#475=ORIENTED_EDGE('',*,*,#369,.F.);
#476=ORIENTED_EDGE('',*,*,#375,.F.);
#477=ORIENTED_EDGE('',*,*,#376,.T.);
#478=ORIENTED_EDGE('',*,*,#377,.T.);
#479=ORIENTED_EDGE('',*,*,#370,.F.);
#480=ORIENTED_EDGE('',*,*,#377,.F.);
#481=ORIENTED_EDGE('',*,*,#378,.F.);
#482=ORIENTED_EDGE('',*,*,#365,.T.);
#483=ORIENTED_EDGE('',*,*,#379,.T.);
#484=ORIENTED_EDGE('',*,*,#380,.F.);
#485=ORIENTED_EDGE('',*,*,#360,.T.);
#486=ORIENTED_EDGE('',*,*,#381,.T.);
#487=ORIENTED_EDGE('',*,*,#382,.T.);
#488=ORIENTED_EDGE('',*,*,#380,.T.);
#489=ORIENTED_EDGE('',*,*,#383,.T.);
#490=ORIENTED_EDGE('',*,*,#384,.T.);
#491=ORIENTED_EDGE('',*,*,#385,.F.);
#492=ORIENTED_EDGE('',*,*,#374,.F.);
#493=ORIENTED_EDGE('',*,*,#376,.F.);
#494=ORIENTED_EDGE('',*,*,#386,.F.);
#495=ORIENTED_EDGE('',*,*,#363,.T.);
#496=ORIENTED_EDGE('',*,*,#387,.T.);
#497=ORIENTED_EDGE('',*,*,#384,.F.);
#498=ORIENTED_EDGE('',*,*,#379,.F.);
#499=ORIENTED_EDGE('',*,*,#364,.T.);
#500=ORIENTED_EDGE('',*,*,#386,.T.);
#501=ORIENTED_EDGE('',*,*,#383,.F.);
#502=ORIENTED_EDGE('',*,*,#388,.T.);
#503=ORIENTED_EDGE('',*,*,#367,.T.);
#504=ORIENTED_EDGE('',*,*,#389,.T.);
#505=ORIENTED_EDGE('',*,*,#381,.F.);
#506=ORIENTED_EDGE('',*,*,#389,.F.);
#507=ORIENTED_EDGE('',*,*,#366,.T.);
#508=ORIENTED_EDGE('',*,*,#378,.T.);
#509=ORIENTED_EDGE('',*,*,#382,.F.);
#510=ORIENTED_EDGE('',*,*,#352,.F.);
#511=ORIENTED_EDGE('',*,*,#372,.F.);
#512=ORIENTED_EDGE('',*,*,#357,.F.);
#513=ORIENTED_EDGE('',*,*,#390,.F.);
#514=ORIENTED_EDGE('',*,*,#337,.T.);
#515=ORIENTED_EDGE('',*,*,#335,.T.);
#516=ORIENTED_EDGE('',*,*,#339,.T.);
#517=ORIENTED_EDGE('',*,*,#323,.F.);
#518=ORIENTED_EDGE('',*,*,#350,.F.);
#519=ORIENTED_EDGE('',*,*,#391,.F.);
#520=ORIENTED_EDGE('',*,*,#356,.F.);
#521=ORIENTED_EDGE('',*,*,#345,.T.);
#522=ORIENTED_EDGE('',*,*,#392,.T.);
#523=ORIENTED_EDGE('',*,*,#393,.F.);
#524=ORIENTED_EDGE('',*,*,#392,.F.);
#525=ORIENTED_EDGE('',*,*,#394,.F.);
#526=ORIENTED_EDGE('',*,*,#395,.T.);
#527=ORIENTED_EDGE('',*,*,#353,.T.);
#528=ORIENTED_EDGE('',*,*,#341,.F.);
#529=ORIENTED_EDGE('',*,*,#355,.F.);
#530=ORIENTED_EDGE('',*,*,#396,.T.);
#531=ORIENTED_EDGE('',*,*,#348,.T.);
#532=ORIENTED_EDGE('',*,*,#343,.F.);
#533=ORIENTED_EDGE('',*,*,#397,.F.);
#534=ORIENTED_EDGE('',*,*,#349,.F.);
#535=ORIENTED_EDGE('',*,*,#396,.F.);
#536=ORIENTED_EDGE('',*,*,#354,.F.);
#537=ORIENTED_EDGE('',*,*,#395,.F.);
#538=ORIENTED_EDGE('',*,*,#398,.F.);
#539=ORIENTED_EDGE('',*,*,#393,.T.);
#540=ORIENTED_EDGE('',*,*,#399,.T.);
#541=ORIENTED_EDGE('',*,*,#400,.T.);
#542=ORIENTED_EDGE('',*,*,#346,.T.);
#543=ORIENTED_EDGE('',*,*,#401,.T.);
#544=ORIENTED_EDGE('',*,*,#399,.F.);
#545=ORIENTED_EDGE('',*,*,#401,.F.);
#546=ORIENTED_EDGE('',*,*,#327,.T.);
#547=ORIENTED_EDGE('',*,*,#398,.T.);
#548=ORIENTED_EDGE('',*,*,#394,.T.);
#549=ORIENTED_EDGE('',*,*,#340,.F.);
#550=ORIENTED_EDGE('',*,*,#385,.T.);
#551=ORIENTED_EDGE('',*,*,#402,.T.);
#552=ORIENTED_EDGE('',*,*,#368,.F.);
#553=ORIENTED_EDGE('',*,*,#402,.F.);
#554=ORIENTED_EDGE('',*,*,#347,.T.);
#555=ORIENTED_EDGE('',*,*,#403,.T.);
#556=ORIENTED_EDGE('',*,*,#400,.F.);
#557=ORIENTED_EDGE('',*,*,#403,.F.);
#558=ORIENTED_EDGE('',*,*,#359,.T.);
#559=ORIENTED_EDGE('',*,*,#358,.F.);
#560=ORIENTED_EDGE('',*,*,#371,.T.);
#561=ORIENTED_EDGE('',*,*,#388,.F.);
#562=ORIENTED_EDGE('',*,*,#361,.F.);
#563=ORIENTED_EDGE('',*,*,#387,.F.);
#564=ORIENTED_EDGE('',*,*,#373,.F.);
#565=ORIENTED_EDGE('',*,*,#351,.F.);
#566=ORIENTED_EDGE('',*,*,#326,.F.);
#567=ORIENTED_EDGE('',*,*,#390,.T.);
#568=ORIENTED_EDGE('',*,*,#391,.T.);
#569=ORIENTED_EDGE('',*,*,#397,.T.);
#570=CYLINDRICAL_SURFACE('',#645,1.905);
#571=CYLINDRICAL_SURFACE('',#654,2.4765);
#572=CYLINDRICAL_SURFACE('',#656,2.4765);
#573=CYLINDRICAL_SURFACE('',#658,2.4765);
#574=CYLINDRICAL_SURFACE('',#670,1.905);
#575=CYLINDRICAL_SURFACE('',#679,3.1242);
#576=CYLINDRICAL_SURFACE('',#682,2.4765);
#577=CYLINDRICAL_SURFACE('',#684,2.4765);
#578=CYLINDRICAL_SURFACE('',#692,1.2699999993523);
#579=CYLINDRICAL_SURFACE('',#694,1.2699999993523);
#580=CYLINDRICAL_SURFACE('',#698,2.4765);
#581=CYLINDRICAL_SURFACE('',#700,1.2699999993523);
#582=CYLINDRICAL_SURFACE('',#702,1.2699999993523);
#583=CYLINDRICAL_SURFACE('',#707,2.4765);
#584=CYLINDRICAL_SURFACE('',#709,2.4765);
#585=CYLINDRICAL_SURFACE('',#710,2.4765);
#586=CYLINDRICAL_SURFACE('',#713,3.1242);
#587=ADVANCED_FACE('',(#51),#570,.F.);
#588=ADVANCED_FACE('',(#52),#33,.T.);
#589=ADVANCED_FACE('',(#53,#15,#16,#17),#34,.T.);
#590=ADVANCED_FACE('',(#54),#571,.F.);
#591=ADVANCED_FACE('',(#55),#572,.F.);
#592=ADVANCED_FACE('',(#56),#573,.F.);
#593=ADVANCED_FACE('',(#57,#18,#19,#20),#35,.T.);
#594=ADVANCED_FACE('',(#58),#36,.F.);
#595=ADVANCED_FACE('',(#59),#37,.F.);
#596=ADVANCED_FACE('',(#60),#38,.F.);
#597=ADVANCED_FACE('',(#61),#39,.F.);
#598=ADVANCED_FACE('',(#62),#574,.F.);
#599=ADVANCED_FACE('',(#63,#21,#22,#23),#40,.F.);
#600=ADVANCED_FACE('',(#64),#575,.T.);
#601=ADVANCED_FACE('',(#65),#576,.F.);
#602=ADVANCED_FACE('',(#66),#577,.F.);
#603=ADVANCED_FACE('',(#67),#41,.F.);
#604=ADVANCED_FACE('',(#68,#24,#25,#26),#42,.T.);
#605=ADVANCED_FACE('',(#69),#43,.F.);
#606=ADVANCED_FACE('',(#70),#578,.T.);
#607=ADVANCED_FACE('',(#71),#44,.F.);
#608=ADVANCED_FACE('',(#72),#579,.T.);
#609=ADVANCED_FACE('',(#73,#27,#28,#29),#45,.F.);
#610=ADVANCED_FACE('',(#74),#46,.F.);
#611=ADVANCED_FACE('',(#75),#580,.F.);
#612=ADVANCED_FACE('',(#76),#581,.T.);
#613=ADVANCED_FACE('',(#77),#582,.T.);
#614=ADVANCED_FACE('',(#78,#30,#31,#32),#47,.F.);
#615=ADVANCED_FACE('',(#79),#583,.F.);
#616=ADVANCED_FACE('',(#80),#48,.F.);
#617=ADVANCED_FACE('',(#81),#584,.F.);
#618=ADVANCED_FACE('',(#82),#585,.F.);
#619=ADVANCED_FACE('',(#83),#49,.T.);
#620=ADVANCED_FACE('',(#84),#50,.F.);
#621=ADVANCED_FACE('',(#85),#586,.T.);
#622=CLOSED_SHELL('',(#587,#588,#589,#590,#591,#592,#593,#594,#595,#596,
#597,#598,#599,#600,#601,#602,#603,#604,#605,#606,#607,#608,#609,#610,#611,
#612,#613,#614,#615,#616,#617,#618,#619,#620,#621));
#623=DERIVED_UNIT_ELEMENT(#626,1.);
#624=DERIVED_UNIT_ELEMENT(#1077,-3.);
#625=DIMENSIONAL_EXPONENTS(0.,1.,0.,0.,0.,0.,0.);
#626=(
CONVERSION_BASED_UNIT('gram',#628)
MASS_UNIT()
NAMED_UNIT(#625)
);
#627=(
MASS_UNIT()
NAMED_UNIT(*)
SI_UNIT(.KILO.,.GRAM.)
);
#628=MASS_MEASURE_WITH_UNIT(MASS_MEASURE(0.001),#627);
#629=DERIVED_UNIT((#623,#624));
#630=MEASURE_REPRESENTATION_ITEM('density measure',
POSITIVE_RATIO_MEASURE(1.),#629);
#631=PROPERTY_DEFINITION_REPRESENTATION(#636,#633);
#632=PROPERTY_DEFINITION_REPRESENTATION(#637,#634);
#633=REPRESENTATION('material name',(#635),#1074);
#634=REPRESENTATION('density',(#630),#1074);
#635=DESCRIPTIVE_REPRESENTATION_ITEM('\X2\C77CBC18\X0\','\X2\C77CBC18\X0\');
#636=PROPERTY_DEFINITION('material property','material name',#1084);
#637=PROPERTY_DEFINITION('material property','density of part',#1084);
#638=DATE_TIME_ROLE('creation_date');
#639=APPLIED_DATE_AND_TIME_ASSIGNMENT(#640,#638,(#1084));
#640=DATE_AND_TIME(#641,#642);
#641=CALENDAR_DATE(2025,5,11);
#642=LOCAL_TIME(0,0,0.,#643);
#643=COORDINATED_UNIVERSAL_TIME_OFFSET(0,0,.BEHIND.);
#644=AXIS2_PLACEMENT_3D('',#903,#714,#715);
#645=AXIS2_PLACEMENT_3D('',#904,#716,#717);
#646=AXIS2_PLACEMENT_3D('',#907,#718,#719);
#647=AXIS2_PLACEMENT_3D('',#911,#721,#722);
#648=AXIS2_PLACEMENT_3D('',#913,#724,#725);
#649=AXIS2_PLACEMENT_3D('',#917,#727,#728);
#650=AXIS2_PLACEMENT_3D('',#919,#730,#731);
#651=AXIS2_PLACEMENT_3D('',#926,#735,#736);
#652=AXIS2_PLACEMENT_3D('',#928,#737,#738);
#653=AXIS2_PLACEMENT_3D('',#930,#739,#740);
#654=AXIS2_PLACEMENT_3D('',#931,#741,#742);
#655=AXIS2_PLACEMENT_3D('',#934,#744,#745);
#656=AXIS2_PLACEMENT_3D('',#935,#746,#747);
#657=AXIS2_PLACEMENT_3D('',#938,#749,#750);
#658=AXIS2_PLACEMENT_3D('',#939,#751,#752);
#659=AXIS2_PLACEMENT_3D('',#942,#754,#755);
#660=AXIS2_PLACEMENT_3D('',#943,#756,#757);
#661=AXIS2_PLACEMENT_3D('',#947,#759,#760);
#662=AXIS2_PLACEMENT_3D('',#951,#762,#763);
#663=AXIS2_PLACEMENT_3D('',#954,#765,#766);
#664=AXIS2_PLACEMENT_3D('',#956,#767,#768);
#665=AXIS2_PLACEMENT_3D('',#958,#769,#770);
#666=AXIS2_PLACEMENT_3D('',#959,#771,#772);
#667=AXIS2_PLACEMENT_3D('',#965,#776,#777);
#668=AXIS2_PLACEMENT_3D('',#969,#780,#781);
#669=AXIS2_PLACEMENT_3D('',#975,#785,#786);
#670=AXIS2_PLACEMENT_3D('',#981,#790,#791);
#671=AXIS2_PLACEMENT_3D('',#983,#792,#793);
#672=AXIS2_PLACEMENT_3D('',#986,#795,#796);
#673=AXIS2_PLACEMENT_3D('',#987,#797,#798);
#674=AXIS2_PLACEMENT_3D('',#994,#801,#802);
#675=AXIS2_PLACEMENT_3D('',#998,#804,#805);
#676=AXIS2_PLACEMENT_3D('',#1001,#807,#808);
#677=AXIS2_PLACEMENT_3D('',#1003,#809,#810);
#678=AXIS2_PLACEMENT_3D('',#1005,#811,#812);
#679=AXIS2_PLACEMENT_3D('',#1006,#813,#814);
#680=AXIS2_PLACEMENT_3D('',#1007,#815,#816);
#681=AXIS2_PLACEMENT_3D('',#1009,#818,#819);
#682=AXIS2_PLACEMENT_3D('',#1010,#820,#821);
#683=AXIS2_PLACEMENT_3D('',#1012,#822,#823);
#684=AXIS2_PLACEMENT_3D('',#1014,#825,#826);
#685=AXIS2_PLACEMENT_3D('',#1016,#827,#828);
#686=AXIS2_PLACEMENT_3D('',#1018,#830,#831);
#687=AXIS2_PLACEMENT_3D('',#1024,#835,#836);
#688=AXIS2_PLACEMENT_3D('',#1027,#838,#839);
#689=AXIS2_PLACEMENT_3D('',#1029,#840,#841);
#690=AXIS2_PLACEMENT_3D('',#1032,#843,#844);
#691=AXIS2_PLACEMENT_3D('',#1033,#845,#846);
#692=AXIS2_PLACEMENT_3D('',#1036,#849,#850);
#693=AXIS2_PLACEMENT_3D('',#1037,#851,#852);
#694=AXIS2_PLACEMENT_3D('',#1040,#855,#856);
#695=AXIS2_PLACEMENT_3D('',#1041,#857,#858);
#696=AXIS2_PLACEMENT_3D('',#1043,#860,#861);
#697=AXIS2_PLACEMENT_3D('',#1044,#862,#863);
#698=AXIS2_PLACEMENT_3D('',#1045,#864,#865);
#699=AXIS2_PLACEMENT_3D('',#1048,#867,#868);
#700=AXIS2_PLACEMENT_3D('',#1049,#869,#870);
#701=AXIS2_PLACEMENT_3D('',#1052,#872,#873);
#702=AXIS2_PLACEMENT_3D('',#1053,#874,#875);
#703=AXIS2_PLACEMENT_3D('',#1054,#876,#877);
#704=AXIS2_PLACEMENT_3D('',#1055,#878,#879);
#705=AXIS2_PLACEMENT_3D('',#1059,#882,#883);
#706=AXIS2_PLACEMENT_3D('',#1061,#884,#885);
#707=AXIS2_PLACEMENT_3D('',#1062,#886,#887);
#708=AXIS2_PLACEMENT_3D('',#1064,#889,#890);
#709=AXIS2_PLACEMENT_3D('',#1065,#891,#892);
#710=AXIS2_PLACEMENT_3D('',#1067,#894,#895);
#711=AXIS2_PLACEMENT_3D('',#1069,#897,#898);
#712=AXIS2_PLACEMENT_3D('',#1070,#899,#900);
#713=AXIS2_PLACEMENT_3D('',#1071,#901,#902);
#714=DIRECTION('axis',(0.,0.,1.));
#715=DIRECTION('refdir',(1.,0.,0.));
#716=DIRECTION('center_axis',(-6.123233995737E-17,-1.,3.673940397442E-16));
#717=DIRECTION('ref_axis',(-1.224646799147E-16,-3.673940397442E-16,-1.));
#718=DIRECTION('center_axis',(6.68320851892646E-15,1.,-6.68320851892617E-15));
#719=DIRECTION('ref_axis',(-7.5994338486621E-7,6.66570403897769E-15,0.999999999999711));
#720=DIRECTION('',(-6.25692343980676E-17,-1.,0.));
#721=DIRECTION('center_axis',(0.,1.,0.));
#722=DIRECTION('ref_axis',(-7.59943380786668E-7,0.,0.999999999999711));
#723=DIRECTION('',(2.449293598295E-16,1.,-3.673940397442E-16));
#724=DIRECTION('center_axis',(1.15591945144588E-13,-1.,1.09454745156126E-13));
#725=DIRECTION('ref_axis',(0.,-1.09454745156126E-13,-1.));
#726=DIRECTION('',(0.,0.,-1.));
#727=DIRECTION('center_axis',(0.,-1.,0.));
#728=DIRECTION('ref_axis',(-1.,0.,-5.11721770520529E-14));
#729=DIRECTION('',(-1.,0.,0.));
#730=DIRECTION('center_axis',(-1.224646799147E-16,-3.673940397442E-16,-1.));
#731=DIRECTION('ref_axis',(-1.,2.449293598295E-16,1.224646799147E-16));
#732=DIRECTION('',(-1.,2.449293598295E-16,1.224646799147E-16));
#733=DIRECTION('',(1.,-2.449293598295E-16,-1.224646799147E-16));
#734=DIRECTION('',(-2.449293598295E-16,-1.,3.673940397442E-16));
#735=DIRECTION('center_axis',(-1.224646799147E-16,-3.673940397442E-16,-1.));
#736=DIRECTION('ref_axis',(-1.,2.449293598295E-16,1.224646799147E-16));
#737=DIRECTION('center_axis',(-1.224646799147E-16,-3.673940397442E-16,-1.));
#738=DIRECTION('ref_axis',(-1.,2.449293598295E-16,1.224646799147E-16));
#739=DIRECTION('center_axis',(-1.224646799147E-16,-3.673940397442E-16,-1.));
#740=DIRECTION('ref_axis',(-1.,2.449293598295E-16,1.224646799147E-16));
#741=DIRECTION('center_axis',(1.224646799147E-16,3.673940397442E-16,1.));
#742=DIRECTION('ref_axis',(-1.,2.449293598295E-16,1.224646799147E-16));
#743=DIRECTION('',(1.224646799147E-16,3.673940397442E-16,1.));
#744=DIRECTION('center_axis',(-1.224646799147E-16,-3.673940397442E-16,-1.));
#745=DIRECTION('ref_axis',(-1.,2.449293598295E-16,1.224646799147E-16));
#746=DIRECTION('center_axis',(1.224646799147E-16,3.673940397442E-16,1.));
#747=DIRECTION('ref_axis',(-1.,2.449293598295E-16,1.224646799147E-16));
#748=DIRECTION('',(1.224646799147E-16,3.673940397442E-16,1.));
#749=DIRECTION('center_axis',(-1.224646799147E-16,-3.673940397442E-16,-1.));
#750=DIRECTION('ref_axis',(-1.,2.449293598295E-16,1.224646799147E-16));
#751=DIRECTION('center_axis',(1.224646799147E-16,3.673940397442E-16,1.));
#752=DIRECTION('ref_axis',(-1.,2.449293598295E-16,1.224646799147E-16));
#753=DIRECTION('',(1.224646799147E-16,3.673940397442E-16,1.));
#754=DIRECTION('center_axis',(-1.224646799147E-16,-3.673940397442E-16,-1.));
#755=DIRECTION('ref_axis',(-1.,2.449293598295E-16,1.224646799147E-16));
#756=DIRECTION('center_axis',(1.,-6.123233995737E-17,-1.836970198721E-16));
#757=DIRECTION('ref_axis',(-6.12323399573699E-17,-1.,3.673940397442E-16));
#758=DIRECTION('',(-1.836970198721E-16,-3.673940397442E-16,-1.));
#759=DIRECTION('center_axis',(1.,-6.123233995737E-17,-1.836970198721E-16));
#760=DIRECTION('ref_axis',(-6.12323399573699E-17,-1.,3.673940397442E-16));
#761=DIRECTION('',(6.123233995737E-17,1.,-3.673940397442E-16));
#762=DIRECTION('center_axis',(1.,-6.123233995737E-17,-1.836970198721E-16));
#763=DIRECTION('ref_axis',(-6.12323399573699E-17,-1.,3.673940397442E-16));
#764=DIRECTION('',(1.836970198721E-16,3.673940397442E-16,1.));
#765=DIRECTION('center_axis',(1.,-6.123233995737E-17,-1.836970198721E-16));
#766=DIRECTION('ref_axis',(-6.12323399573699E-17,-1.,3.673940397442E-16));
#767=DIRECTION('center_axis',(1.,-6.123233995737E-17,-1.836970198721E-16));
#768=DIRECTION('ref_axis',(-6.12323399573699E-17,-1.,3.673940397442E-16));
#769=DIRECTION('center_axis',(1.,-6.123233995737E-17,-1.836970198721E-16));
#770=DIRECTION('ref_axis',(-6.12323399573699E-17,-1.,3.673940397442E-16));
#771=DIRECTION('center_axis',(-6.123233995737E-17,-1.,3.673940397442E-16));
#772=DIRECTION('ref_axis',(1.836970198721E-16,3.673940397442E-16,1.));
#773=DIRECTION('',(1.,-6.123233995737E-17,-1.836970198721E-16));
#774=DIRECTION('',(1.836970198721E-16,3.673940397442E-16,1.));
#775=DIRECTION('',(1.,-6.123233995737E-17,-1.836970198721E-16));
#776=DIRECTION('center_axis',(2.449293598295E-16,1.,-3.673940397442E-16));
#777=DIRECTION('ref_axis',(-1.,2.449293598295E-16,1.224646799147E-16));
#778=DIRECTION('',(0.,0.,1.));
#779=DIRECTION('',(-1.,2.449293598295E-16,1.224646799147E-16));
#780=DIRECTION('center_axis',(1.836970198721E-16,3.673940397442E-16,1.));
#781=DIRECTION('ref_axis',(6.123233995737E-17,1.,-3.673940397442E-16));
#782=DIRECTION('',(1.,-6.123233995737E-17,-1.836970198721E-16));
#783=DIRECTION('',(6.123233995737E-17,1.,-3.673940397442E-16));
#784=DIRECTION('',(1.,-6.123233995737E-17,-1.836970198721E-16));
#785=DIRECTION('center_axis',(-2.449293598295E-16,-1.,3.673940397442E-16));
#786=DIRECTION('ref_axis',(1.,-2.449293598295E-16,-1.224646799147E-16));
#787=DIRECTION('',(0.,0.,1.));
#788=DIRECTION('',(1.,-2.449293598295E-16,-1.224646799147E-16));
#789=DIRECTION('',(0.,0.,-1.));
#790=DIRECTION('center_axis',(1.836970198721E-16,1.,-3.673940397442E-16));
#791=DIRECTION('ref_axis',(-1.224646799147E-16,-3.673940397442E-16,-1.));
#792=DIRECTION('center_axis',(0.,-1.,0.));
#793=DIRECTION('ref_axis',(7.59942931015882E-7,0.,0.999999999999711));
#794=DIRECTION('',(1.836970198721E-16,1.,-3.673940397442E-16));
#795=DIRECTION('center_axis',(-8.79369541963423E-17,-1.,-8.79369541963398E-17));
#796=DIRECTION('ref_axis',(7.59942931015882E-7,-7.28492244697341E-17,0.999999999999711));
#797=DIRECTION('center_axis',(-1.,1.836970198721E-16,6.123233995737E-17));
#798=DIRECTION('ref_axis',(1.836970198721E-16,1.,-3.673940397442E-16));
#799=DIRECTION('',(1.836970198721E-16,1.,-3.673940397442E-16));
#800=DIRECTION('',(6.123233995737E-17,3.673940397442E-16,1.));
#801=DIRECTION('center_axis',(-1.,1.836970198721E-16,6.123233995737E-17));
#802=DIRECTION('ref_axis',(1.836970198721E-16,1.,-3.673940397442E-16));
#803=DIRECTION('',(-1.836970198721E-16,-1.,3.673940397442E-16));
#804=DIRECTION('center_axis',(-1.,1.836970198721E-16,6.123233995737E-17));
#805=DIRECTION('ref_axis',(1.836970198721E-16,1.,-3.673940397442E-16));
#806=DIRECTION('',(-6.123233995737E-17,-3.673940397442E-16,-1.));
#807=DIRECTION('center_axis',(-1.,1.836970198721E-16,6.123233995737E-17));
#808=DIRECTION('ref_axis',(1.836970198721E-16,1.,-3.673940397442E-16));
#809=DIRECTION('center_axis',(-1.,1.836970198721E-16,6.123233995737E-17));
#810=DIRECTION('ref_axis',(1.836970198721E-16,1.,-3.673940397442E-16));
#811=DIRECTION('center_axis',(-1.,1.836970198721E-16,6.123233995737E-17));
#812=DIRECTION('ref_axis',(1.836970198721E-16,1.,-3.673940397442E-16));
#813=DIRECTION('center_axis',(1.836970198721E-16,1.,-3.673940397442E-16));
#814=DIRECTION('ref_axis',(-1.224646799147E-16,-3.673940397442E-16,-1.));
#815=DIRECTION('center_axis',(1.60818637340471E-14,1.,3.8825053534958E-14));
#816=DIRECTION('ref_axis',(1.,-2.27431898009125E-14,3.98005821515969E-14));
#817=DIRECTION('',(-2.449293598295E-16,-1.,3.673940397442E-16));
#818=DIRECTION('center_axis',(1.97196774031152E-16,1.,-3.58056883217721E-16));
#819=DIRECTION('ref_axis',(1.,-1.99891316609578E-16,2.2743189800912E-14));
#820=DIRECTION('center_axis',(1.,-1.836970198721E-16,-6.123233995737E-17));
#821=DIRECTION('ref_axis',(1.836970198721E-16,1.,-3.673940397442E-16));
#822=DIRECTION('center_axis',(-1.,1.836970198721E-16,6.123233995737E-17));
#823=DIRECTION('ref_axis',(1.836970198721E-16,1.,-3.673940397442E-16));
#824=DIRECTION('',(1.,-1.836970198721E-16,-6.123233995737E-17));
#825=DIRECTION('center_axis',(1.,-1.836970198721E-16,-6.123233995737E-17));
#826=DIRECTION('ref_axis',(1.836970198721E-16,1.,-3.673940397442E-16));
#827=DIRECTION('center_axis',(-1.,1.836970198721E-16,6.123233995737E-17));
#828=DIRECTION('ref_axis',(1.836970198721E-16,1.,-3.673940397442E-16));
#829=DIRECTION('',(1.,-1.836970198721E-16,-6.123233995737E-17));
#830=DIRECTION('center_axis',(6.123233995737E-17,3.673940397442E-16,1.));
#831=DIRECTION('ref_axis',(-1.836970198721E-16,-1.,3.673940397442E-16));
#832=DIRECTION('',(-1.,1.836970198721E-16,6.123233995737E-17));
#833=DIRECTION('',(-1.,1.836970198721E-16,6.123233995737E-17));
#834=DIRECTION('',(-1.836970198721E-16,-1.,3.673940397442E-16));
#835=DIRECTION('center_axis',(-1.,1.836970198721E-16,6.123233995737E-17));
#836=DIRECTION('ref_axis',(1.836970198721E-16,1.,-3.673940397442E-16));
#837=DIRECTION('',(-6.123233995737E-17,-3.673940397442E-16,-1.));
#838=DIRECTION('center_axis',(-1.,1.836970198721E-16,6.123233995737E-17));
#839=DIRECTION('ref_axis',(1.836970198721E-16,1.,-3.673940397442E-16));
#840=DIRECTION('center_axis',(-1.,1.836970198721E-16,6.123233995737E-17));
#841=DIRECTION('ref_axis',(1.836970198721E-16,1.,-3.673940397442E-16));
#842=DIRECTION('',(6.123233995737E-17,3.673940397442E-16,1.));
#843=DIRECTION('center_axis',(-1.,1.836970198721E-16,6.123233995737E-17));
#844=DIRECTION('ref_axis',(1.836970198721E-16,1.,-3.673940397442E-16));
#845=DIRECTION('center_axis',(1.836970198721E-16,1.,-3.673940397442E-16));
#846=DIRECTION('ref_axis',(6.123233995737E-17,3.673940397442E-16,1.));
#847=DIRECTION('',(-1.,1.836970198721E-16,6.123233995737E-17));
#848=DIRECTION('',(-1.,0.,0.));
#849=DIRECTION('center_axis',(1.,-1.836970198721E-16,-6.123233995737E-17));
#850=DIRECTION('ref_axis',(1.836970198721E-16,1.,-3.673940397442E-16));
#851=DIRECTION('center_axis',(-1.836970198721E-16,-1.,3.673940397442E-16));
#852=DIRECTION('ref_axis',(-6.123233995737E-17,-3.673940397442E-16,-1.));
#853=DIRECTION('',(1.,0.,0.));
#854=DIRECTION('',(-1.,1.836970198721E-16,6.123233995737E-17));
#855=DIRECTION('center_axis',(1.,-1.836970198721E-16,-6.123233995737E-17));
#856=DIRECTION('ref_axis',(1.836970198721E-16,1.,-3.673940397442E-16));
#857=DIRECTION('center_axis',(-1.224646799147E-16,-3.673940397442E-16,-1.));
#858=DIRECTION('ref_axis',(-1.,2.449293598295E-16,1.224646799147E-16));
#859=DIRECTION('',(2.449293598295E-16,1.,-3.673940397442E-16));
#860=DIRECTION('center_axis',(0.,-1.,0.));
#861=DIRECTION('ref_axis',(0.,0.,-1.));
#862=DIRECTION('center_axis',(0.,-1.,0.));
#863=DIRECTION('ref_axis',(-1.,0.,0.));
#864=DIRECTION('center_axis',(-1.,6.123233995737E-17,1.836970198721E-16));
#865=DIRECTION('ref_axis',(-6.12323399573699E-17,-1.,3.673940397442E-16));
#866=DIRECTION('',(-1.,6.123233995737E-17,1.836970198721E-16));
#867=DIRECTION('center_axis',(1.,-6.123233995737E-17,-1.836970198721E-16));
#868=DIRECTION('ref_axis',(-6.12323399573699E-17,-1.,3.673940397442E-16));
#869=DIRECTION('center_axis',(-1.,6.123233995737E-17,1.836970198721E-16));
#870=DIRECTION('ref_axis',(-6.12323399573699E-17,-1.,3.673940397442E-16));
#871=DIRECTION('',(1.,-6.123233995737E-17,-1.836970198721E-16));
#872=DIRECTION('center_axis',(1.,-6.123233995737E-17,-1.836970198721E-16));
#873=DIRECTION('ref_axis',(-6.12323399573699E-17,-1.,3.673940397442E-16));
#874=DIRECTION('center_axis',(-1.,6.123233995737E-17,1.836970198721E-16));
#875=DIRECTION('ref_axis',(-6.12323399573699E-17,-1.,3.673940397442E-16));
#876=DIRECTION('center_axis',(1.,-6.123233995737E-17,-1.836970198721E-16));
#877=DIRECTION('ref_axis',(-6.12323399573699E-17,-1.,3.673940397442E-16));
#878=DIRECTION('center_axis',(1.,-6.123233995737E-17,-1.836970198721E-16));
#879=DIRECTION('ref_axis',(-6.12323399573699E-17,-1.,3.673940397442E-16));
#880=DIRECTION('',(-6.123233995737E-17,-1.,3.673940397442E-16));
#881=DIRECTION('',(-1.836970198721E-16,-3.673940397442E-16,-1.));
#882=DIRECTION('center_axis',(1.,-6.123233995737E-17,-1.836970198721E-16));
#883=DIRECTION('ref_axis',(-6.12323399573699E-17,-1.,3.673940397442E-16));
#884=DIRECTION('center_axis',(1.,-6.123233995737E-17,-1.836970198721E-16));
#885=DIRECTION('ref_axis',(-6.12323399573699E-17,-1.,3.673940397442E-16));
#886=DIRECTION('center_axis',(-1.,6.123233995737E-17,1.836970198721E-16));
#887=DIRECTION('ref_axis',(-6.12323399573699E-17,-1.,3.673940397442E-16));
#888=DIRECTION('',(-1.,6.123233995737E-17,1.836970198721E-16));
#889=DIRECTION('center_axis',(6.123233995737E-17,1.,-3.673940397442E-16));
#890=DIRECTION('ref_axis',(-1.836970198721E-16,-3.673940397442E-16,-1.));
#891=DIRECTION('center_axis',(1.,-1.836970198721E-16,-6.123233995737E-17));
#892=DIRECTION('ref_axis',(1.836970198721E-16,1.,-3.673940397442E-16));
#893=DIRECTION('',(1.,-1.836970198721E-16,-6.123233995737E-17));
#894=DIRECTION('center_axis',(-1.,6.123233995737E-17,1.836970198721E-16));
#895=DIRECTION('ref_axis',(-6.12323399573699E-17,-1.,3.673940397442E-16));
#896=DIRECTION('',(-1.,6.123233995737E-17,1.836970198721E-16));
#897=DIRECTION('center_axis',(0.,1.,0.));
#898=DIRECTION('ref_axis',(0.,0.,1.));
#899=DIRECTION('center_axis',(0.,1.,0.));
#900=DIRECTION('ref_axis',(0.,0.,1.));
#901=DIRECTION('center_axis',(-6.123233995737E-17,-1.,3.673940397442E-16));
#902=DIRECTION('ref_axis',(-1.224646799147E-16,-3.673940397442E-16,-1.));
#903=CARTESIAN_POINT('',(0.,0.,0.));
#904=CARTESIAN_POINT('Origin',(1.651,406.4,123.1138));
#905=CARTESIAN_POINT('',(-0.253999999999898,0.508,123.1138));
#906=CARTESIAN_POINT('',(1.651,0.508,125.0188));
#907=CARTESIAN_POINT('Origin',(1.65100144769325,0.507999999999987,123.113798552307));
#908=CARTESIAN_POINT('',(-0.253999999999873,406.4,123.1138));
#909=CARTESIAN_POINT('',(-0.253999999999873,406.4,123.1138));
#910=CARTESIAN_POINT('',(1.651,406.4,125.0188));
#911=CARTESIAN_POINT('Origin',(1.65100144769324,406.4,123.113798552307));
#912=CARTESIAN_POINT('',(1.651,0.508,125.0188));
#913=CARTESIAN_POINT('Origin',(0.303962005856655,0.508000000000005,124.460837994139));
#914=CARTESIAN_POINT('',(1.651,0.508,126.238));
#915=CARTESIAN_POINT('',(1.651,0.508,126.238));
#916=CARTESIAN_POINT('',(-1.4732,0.508,123.1138));
#917=CARTESIAN_POINT('Origin',(1.65099999999995,0.507999999999953,123.1138));
#918=CARTESIAN_POINT('',(-0.253999999999898,0.508,123.1138));
#919=CARTESIAN_POINT('Origin',(213.995,203.454,125.0188));
#920=CARTESIAN_POINT('',(426.339,0.508,125.0188));
#921=CARTESIAN_POINT('',(426.339,0.508,125.0188));
#922=CARTESIAN_POINT('',(426.339,406.4,125.0188));
#923=CARTESIAN_POINT('',(1.651,406.4,125.0188));
#924=CARTESIAN_POINT('',(426.339,406.4,125.0188));
#925=CARTESIAN_POINT('',(394.3223,396.9639,125.0188));
#926=CARTESIAN_POINT('Origin',(391.8458,396.9639,125.0188));
#927=CARTESIAN_POINT('',(216.4715,396.9639,125.0188));
#928=CARTESIAN_POINT('Origin',(213.995,396.9639,125.0188));
#929=CARTESIAN_POINT('',(38.6207,396.9639,125.0188));
#930=CARTESIAN_POINT('Origin',(36.1442,396.9639,125.0188));
#931=CARTESIAN_POINT('Origin',(213.995,396.9639,126.238));
#932=CARTESIAN_POINT('',(216.4715,396.9639,126.238));
#933=CARTESIAN_POINT('',(216.4715,396.9639,126.238));
#934=CARTESIAN_POINT('Origin',(213.995,396.9639,126.238));
#935=CARTESIAN_POINT('Origin',(391.8458,396.9639,126.238));
#936=CARTESIAN_POINT('',(394.3223,396.9639,126.238));
#937=CARTESIAN_POINT('',(394.3223,396.9639,126.238));
#938=CARTESIAN_POINT('Origin',(391.8458,396.9639,126.238));
#939=CARTESIAN_POINT('Origin',(36.1442,396.9639,126.238));
#940=CARTESIAN_POINT('',(38.6207,396.9639,126.238));
#941=CARTESIAN_POINT('',(38.6207,396.9639,126.238));
#942=CARTESIAN_POINT('Origin',(36.1442,396.9639,126.238));
#943=CARTESIAN_POINT('Origin',(-0.253999999999898,203.454000000152,116.531777833438));
#944=CARTESIAN_POINT('',(-0.253999999999898,0.508,111.2012));
#945=CARTESIAN_POINT('',(-0.253999999999898,0.508,123.1138));
#946=CARTESIAN_POINT('',(-0.253999999999898,1.778,109.9312));
#947=CARTESIAN_POINT('Origin',(-0.253999999999898,1.7779999993523,111.201199999365));
#948=CARTESIAN_POINT('',(-0.253999999999873,405.13,109.9312));
#949=CARTESIAN_POINT('',(-0.253999999999898,1.778,109.9312));
#950=CARTESIAN_POINT('',(-0.253999999999873,406.4,111.2012));
#951=CARTESIAN_POINT('Origin',(-0.253999999999873,405.13000000066,111.20119999934));
#952=CARTESIAN_POINT('',(-0.253999999999873,406.4,111.2012));
#953=CARTESIAN_POINT('',(-0.253999999999873,396.1765,116.7003));
#954=CARTESIAN_POINT('Origin',(-0.253999999999873,393.7,116.7003));
#955=CARTESIAN_POINT('',(-0.253999999999898,205.6765,116.7003));
#956=CARTESIAN_POINT('Origin',(-0.253999999999898,203.2,116.7003));
#957=CARTESIAN_POINT('',(-0.253999999999898,15.1765,116.7003));
#958=CARTESIAN_POINT('Origin',(-0.253999999999898,12.7,116.7003));
#959=CARTESIAN_POINT('Origin',(-1.4732,406.4,111.2012));
#960=CARTESIAN_POINT('',(-1.4732,406.4,111.2012));
#961=CARTESIAN_POINT('',(-1.4732,406.4,111.2012));
#962=CARTESIAN_POINT('',(-1.4732,406.4,123.1138));
#963=CARTESIAN_POINT('',(-1.4732,406.4,111.2012));
#964=CARTESIAN_POINT('',(-1.4732,406.4,123.1138));
#965=CARTESIAN_POINT('Origin',(426.339,0.508,126.238));
#966=CARTESIAN_POINT('',(426.339,0.508,126.238));
#967=CARTESIAN_POINT('',(426.339,0.508,125.0188));
#968=CARTESIAN_POINT('',(426.339,0.508,126.238));
#969=CARTESIAN_POINT('Origin',(-1.4732,1.778,109.9312));
#970=CARTESIAN_POINT('',(-1.4732,1.778,109.9312));
#971=CARTESIAN_POINT('',(-1.4732,1.778,109.9312));
#972=CARTESIAN_POINT('',(-1.4732,405.13,109.9312));
#973=CARTESIAN_POINT('',(-1.4732,1.778,109.9312));
#974=CARTESIAN_POINT('',(-1.4732,405.13,109.9312));
#975=CARTESIAN_POINT('Origin',(1.651,406.4,126.238));
#976=CARTESIAN_POINT('',(1.651,406.4,126.238));
#977=CARTESIAN_POINT('',(1.651,406.4,125.0188));
#978=CARTESIAN_POINT('',(426.339,406.4,126.238));
#979=CARTESIAN_POINT('',(1.651,406.4,126.238));
#980=CARTESIAN_POINT('',(426.339,406.4,126.238));
#981=CARTESIAN_POINT('Origin',(426.339,0.508,123.1138));
#982=CARTESIAN_POINT('',(428.244,406.4,123.1138));
#983=CARTESIAN_POINT('Origin',(426.338998552308,406.4,123.113798552308));
#984=CARTESIAN_POINT('',(428.244,0.508,123.1138));
#985=CARTESIAN_POINT('',(428.244,0.508,123.1138));
#986=CARTESIAN_POINT('Origin',(426.338998552308,0.508,123.113798552308));
#987=CARTESIAN_POINT('Origin',(429.4632,203.453999999848,116.531777833438));
#988=CARTESIAN_POINT('',(429.4632,0.508,123.1138));
#989=CARTESIAN_POINT('',(429.4632,406.4,123.1138));
#990=CARTESIAN_POINT('',(429.4632,0.508,123.1138));
#991=CARTESIAN_POINT('',(429.4632,0.508,111.2012));
#992=CARTESIAN_POINT('',(429.4632,0.508,111.2012));
#993=CARTESIAN_POINT('',(429.4632,1.778,109.9312));
#994=CARTESIAN_POINT('Origin',(429.4632,1.7779999993523,111.201199999365));
#995=CARTESIAN_POINT('',(429.4632,405.13,109.9312));
#996=CARTESIAN_POINT('',(429.4632,405.13,109.9312));
#997=CARTESIAN_POINT('',(429.4632,406.4,111.2012));
#998=CARTESIAN_POINT('Origin',(429.4632,405.13000000066,111.20119999934));
#999=CARTESIAN_POINT('',(429.4632,406.4,123.1138));
#1000=CARTESIAN_POINT('',(429.4632,10.2235,116.7003));
#1001=CARTESIAN_POINT('Origin',(429.4632,12.7,116.7003));
#1002=CARTESIAN_POINT('',(429.4632,200.7235,116.7003));
#1003=CARTESIAN_POINT('Origin',(429.4632,203.2,116.7003));
#1004=CARTESIAN_POINT('',(429.4632,391.2235,116.7003));
#1005=CARTESIAN_POINT('Origin',(429.4632,393.7,116.7003));
#1006=CARTESIAN_POINT('Origin',(426.339,0.508,123.1138));
#1007=CARTESIAN_POINT('Origin',(426.339,406.4,123.1138));
#1008=CARTESIAN_POINT('',(426.339,406.4,126.238));
#1009=CARTESIAN_POINT('Origin',(426.339,0.508,123.1138));
#1010=CARTESIAN_POINT('Origin',(429.4632,203.2,116.7003));
#1011=CARTESIAN_POINT('',(428.244,200.7235,116.7003));
#1012=CARTESIAN_POINT('Origin',(428.244,203.2,116.7003));
#1013=CARTESIAN_POINT('',(429.4632,200.7235,116.7003));
#1014=CARTESIAN_POINT('Origin',(429.4632,393.7,116.7003));
#1015=CARTESIAN_POINT('',(428.244,391.2235,116.7003));
#1016=CARTESIAN_POINT('Origin',(428.244,393.7,116.7003));
#1017=CARTESIAN_POINT('',(429.4632,391.2235,116.7003));
#1018=CARTESIAN_POINT('Origin',(429.4632,405.13,109.9312));
#1019=CARTESIAN_POINT('',(428.244,405.13,109.9312));
#1020=CARTESIAN_POINT('',(429.4632,405.13,109.9312));
#1021=CARTESIAN_POINT('',(428.244,1.778,109.9312));
#1022=CARTESIAN_POINT('',(429.4632,1.778,109.9312));
#1023=CARTESIAN_POINT('',(428.244,405.13,109.9312));
#1024=CARTESIAN_POINT('Origin',(428.244,203.453999999848,116.531777833438));
#1025=CARTESIAN_POINT('',(428.244,406.4,111.2012));
#1026=CARTESIAN_POINT('',(428.244,406.4,123.1138));
#1027=CARTESIAN_POINT('Origin',(428.244,405.13000000066,111.20119999934));
#1028=CARTESIAN_POINT('',(428.244,0.508,111.2012));
#1029=CARTESIAN_POINT('Origin',(428.244,1.7779999993523,111.201199999365));
#1030=CARTESIAN_POINT('',(428.244,0.508,111.2012));
#1031=CARTESIAN_POINT('',(428.244,10.2235,116.7003));
#1032=CARTESIAN_POINT('Origin',(428.244,12.7,116.7003));
#1033=CARTESIAN_POINT('Origin',(429.4632,0.508,111.2012));
#1034=CARTESIAN_POINT('',(429.4632,0.508,111.2012));
#1035=CARTESIAN_POINT('',(429.4632,0.508,123.1138));
#1036=CARTESIAN_POINT('Origin',(429.4632,1.7779999993523,111.201199999365));
#1037=CARTESIAN_POINT('Origin',(429.4632,406.4,123.1138));
#1038=CARTESIAN_POINT('',(428.244,406.4,123.1138));
#1039=CARTESIAN_POINT('',(429.4632,406.4,111.2012));
#1040=CARTESIAN_POINT('Origin',(429.4632,405.13000000066,111.20119999934));
#1041=CARTESIAN_POINT('Origin',(213.995,203.454,126.238));
#1042=CARTESIAN_POINT('',(1.651,0.508,126.238));
#1043=CARTESIAN_POINT('Origin',(0.303962005856661,406.4,124.460837994139));
#1044=CARTESIAN_POINT('Origin',(1.651,406.4,123.1138));
#1045=CARTESIAN_POINT('Origin',(-1.4732,393.7,116.7003));
#1046=CARTESIAN_POINT('',(-1.4732,396.1765,116.7003));
#1047=CARTESIAN_POINT('',(-1.4732,396.1765,116.7003));
#1048=CARTESIAN_POINT('Origin',(-1.4732,393.7,116.7003));
#1049=CARTESIAN_POINT('Origin',(-1.4732,1.7779999993523,111.201199999365));
#1050=CARTESIAN_POINT('',(-1.4732,0.508,111.2012));
#1051=CARTESIAN_POINT('',(-1.4732,0.508,111.2012));
#1052=CARTESIAN_POINT('Origin',(-1.4732,1.7779999993523,111.201199999365));
#1053=CARTESIAN_POINT('Origin',(-1.4732,405.13000000066,111.20119999934));
#1054=CARTESIAN_POINT('Origin',(-1.4732,405.13000000066,111.20119999934));
#1055=CARTESIAN_POINT('Origin',(-1.4732,203.454000000152,116.531777833438));
#1056=CARTESIAN_POINT('',(-1.4732,406.4,123.1138));
#1057=CARTESIAN_POINT('',(-1.4732,0.508,123.1138));
#1058=CARTESIAN_POINT('',(-1.4732,205.6765,116.7003));
#1059=CARTESIAN_POINT('Origin',(-1.4732,203.2,116.7003));
#1060=CARTESIAN_POINT('',(-1.4732,15.1765,116.7003));
#1061=CARTESIAN_POINT('Origin',(-1.4732,12.7,116.7003));
#1062=CARTESIAN_POINT('Origin',(-1.4732,203.2,116.7003));
#1063=CARTESIAN_POINT('',(-1.4732,205.6765,116.7003));
#1064=CARTESIAN_POINT('Origin',(-1.4732,0.508,123.1138));
#1065=CARTESIAN_POINT('Origin',(429.4632,12.7,116.7003));
#1066=CARTESIAN_POINT('',(429.4632,10.2235,116.7003));
#1067=CARTESIAN_POINT('Origin',(-1.4732,12.7,116.7003));
#1068=CARTESIAN_POINT('',(-1.4732,15.1765,116.7003));
#1069=CARTESIAN_POINT('Origin',(427.686037994144,406.4,124.460837994139));
#1070=CARTESIAN_POINT('Origin',(427.686037994144,0.508,124.460837994139));
#1071=CARTESIAN_POINT('Origin',(1.651,406.4,123.1138));
#1072=UNCERTAINTY_MEASURE_WITH_UNIT(LENGTH_MEASURE(0.01),#1076,
'DISTANCE_ACCURACY_VALUE',
'Maximum model space distance between geometric entities at asserted c
onnectivities');
#1073=UNCERTAINTY_MEASURE_WITH_UNIT(LENGTH_MEASURE(0.01),#1076,
'DISTANCE_ACCURACY_VALUE',
'Maximum model space distance between geometric entities at asserted c
onnectivities');
#1074=(
GEOMETRIC_REPRESENTATION_CONTEXT(3)
GLOBAL_UNCERTAINTY_ASSIGNED_CONTEXT((#1072))
GLOBAL_UNIT_ASSIGNED_CONTEXT((#1076,#1078,#1079))
REPRESENTATION_CONTEXT('','3D')
);
#1075=(
GEOMETRIC_REPRESENTATION_CONTEXT(3)
GLOBAL_UNCERTAINTY_ASSIGNED_CONTEXT((#1073))
GLOBAL_UNIT_ASSIGNED_CONTEXT((#1076,#1078,#1079))
REPRESENTATION_CONTEXT('','3D')
);
#1076=(
LENGTH_UNIT()
NAMED_UNIT(*)
SI_UNIT(.MILLI.,.METRE.)
);
#1077=(
LENGTH_UNIT()
NAMED_UNIT(*)
SI_UNIT(.CENTI.,.METRE.)
);
#1078=(
NAMED_UNIT(*)
PLANE_ANGLE_UNIT()
SI_UNIT($,.RADIAN.)
);
#1079=(
NAMED_UNIT(*)
SI_UNIT($,.STERADIAN.)
SOLID_ANGLE_UNIT()
);
#1080=SHAPE_DEFINITION_REPRESENTATION(#1081,#1082);
#1081=PRODUCT_DEFINITION_SHAPE('',$,#1084);
#1082=SHAPE_REPRESENTATION('',(#644),#1074);
#1083=PRODUCT_DEFINITION_CONTEXT('part definition',#1088,'design');
#1084=PRODUCT_DEFINITION('Cover','Cover',#1085,#1083);
#1085=PRODUCT_DEFINITION_FORMATION('',$,#1090);
#1086=PRODUCT_RELATED_PRODUCT_CATEGORY('Cover','Cover',(#1090));
#1087=APPLICATION_PROTOCOL_DEFINITION('international standard',
'automotive_design',2009,#1088);
#1088=APPLICATION_CONTEXT(
'Core Data for Automotive Mechanical Design Process');
#1089=PRODUCT_CONTEXT('part definition',#1088,'mechanical');
#1090=PRODUCT('Cover','Cover',$,(#1089));
#1091=PRESENTATION_STYLE_ASSIGNMENT((#1093));
#1092=PRESENTATION_STYLE_ASSIGNMENT((#1094));
#1093=SURFACE_STYLE_USAGE(.BOTH.,#1099);
#1094=SURFACE_STYLE_USAGE(.BOTH.,#1100);
#1095=SURFACE_STYLE_RENDERING_WITH_PROPERTIES($,#1107,(#1097));
#1096=SURFACE_STYLE_RENDERING_WITH_PROPERTIES($,#1108,(#1098));
#1097=SURFACE_STYLE_TRANSPARENT(0.);
#1098=SURFACE_STYLE_TRANSPARENT(0.);
#1099=SURFACE_SIDE_STYLE('',(#1101,#1095));
#1100=SURFACE_SIDE_STYLE('',(#1102,#1096));
#1101=SURFACE_STYLE_FILL_AREA(#1103);
#1102=SURFACE_STYLE_FILL_AREA(#1104);
#1103=FILL_AREA_STYLE('',(#1105));
#1104=FILL_AREA_STYLE('',(#1106));
#1105=FILL_AREA_STYLE_COLOUR('',#1107);
#1106=FILL_AREA_STYLE_COLOUR('',#1108);
#1107=COLOUR_RGB('',0.749019607843137,0.749019607843137,0.749019607843137);
#1108=COLOUR_RGB('',0.6,0.6,0.6);
ENDSEC;
END-ISO-10303-21;
