ISO-10303-21;
HEADER;
/* Generated by software containing ST-Developer
 * from STEP Tools, Inc. (www.steptools.com) 
 */

FILE_DESCRIPTION(
/* description */ (''),
/* implementation_level */ '2;1');

FILE_NAME(
/* name */ 'Front.stp',
/* time_stamp */ '2025-11-05T19:48:00-08:00',
/* author */ ('alexi'),
/* organization */ (''),
/* preprocessor_version */ 'ST-DEVELOPER v19.2',
/* originating_system */ 'Autodesk Inventor 2024',
/* authorisation */ '');

FILE_SCHEMA (('AUTOMOTIVE_DESIGN { 1 0 10303 214 3 1 1 }'));
ENDSEC;

DATA;
#10=MECHANICAL_DESIGN_GEOMETRIC_PRESENTATION_REPRESENTATION('',(#13),#1087);
#11=SHAPE_REPRESENTATION_RELATIONSHIP('SRR','None',#1094,#12);
#12=ADVANCED_BREP_SHAPE_REPRESENTATION('',(#14),#1086);
#13=STYLED_ITEM('',(#1104),#14);
#14=MANIFOLD_SOLID_BREP('\X2\C194B9ACB4DC\X0\1',#634);
#15=FACE_BOUND('',#145,.T.);
#16=FACE_BOUND('',#146,.T.);
#17=FACE_BOUND('',#147,.T.);
#18=FACE_BOUND('',#148,.T.);
#19=FACE_BOUND('',#149,.T.);
#20=FACE_BOUND('',#150,.T.);
#21=FACE_BOUND('',#151,.T.);
#22=FACE_BOUND('',#152,.T.);
#23=FACE_BOUND('',#153,.T.);
#24=FACE_BOUND('',#155,.T.);
#25=FACE_BOUND('',#156,.T.);
#26=FACE_BOUND('',#157,.T.);
#27=FACE_BOUND('',#158,.T.);
#28=FACE_BOUND('',#159,.T.);
#29=FACE_BOUND('',#160,.T.);
#30=FACE_BOUND('',#161,.T.);
#31=FACE_BOUND('',#162,.T.);
#32=FACE_BOUND('',#163,.T.);
#33=CIRCLE('',#659,1.01599999707798);
#34=CIRCLE('',#660,1.01599999707798);
#35=CIRCLE('',#663,1.01599999707798);
#36=CIRCLE('',#664,1.01599999707798);
#37=CIRCLE('',#667,1.01599999707798);
#38=CIRCLE('',#668,1.01599999707798);
#39=CIRCLE('',#671,1.01599999707798);
#40=CIRCLE('',#672,1.01599999707798);
#41=CIRCLE('',#674,2.3876);
#42=CIRCLE('',#675,2.3876);
#43=CIRCLE('',#677,2.3876);
#44=CIRCLE('',#678,2.3876);
#45=CIRCLE('',#680,2.3876);
#46=CIRCLE('',#681,2.3876);
#47=CIRCLE('',#683,2.3876);
#48=CIRCLE('',#684,2.3876);
#49=CIRCLE('',#686,3.556);
#50=CIRCLE('',#687,3.556);
#51=CIRCLE('',#690,3.556);
#52=CIRCLE('',#691,3.556);
#53=CIRCLE('',#694,3.556);
#54=CIRCLE('',#695,3.556);
#55=CIRCLE('',#698,3.556);
#56=CIRCLE('',#699,3.556);
#57=CIRCLE('',#702,3.556);
#58=CIRCLE('',#703,3.556);
#59=CIRCLE('',#706,3.556);
#60=CIRCLE('',#707,3.556);
#61=CIRCLE('',#710,3.556);
#62=CIRCLE('',#711,3.556);
#63=CIRCLE('',#714,3.556);
#64=CIRCLE('',#715,3.556);
#65=CIRCLE('',#718,2.0701);
#66=CIRCLE('',#719,2.0701);
#67=CYLINDRICAL_SURFACE('',#658,1.01599999707798);
#68=CYLINDRICAL_SURFACE('',#662,1.01599999707798);
#69=CYLINDRICAL_SURFACE('',#666,1.01599999707798);
#70=CYLINDRICAL_SURFACE('',#670,1.01599999707798);
#71=CYLINDRICAL_SURFACE('',#673,2.3876);
#72=CYLINDRICAL_SURFACE('',#676,2.3876);
#73=CYLINDRICAL_SURFACE('',#679,2.3876);
#74=CYLINDRICAL_SURFACE('',#682,2.3876);
#75=CYLINDRICAL_SURFACE('',#685,3.556);
#76=CYLINDRICAL_SURFACE('',#689,3.556);
#77=CYLINDRICAL_SURFACE('',#693,3.556);
#78=CYLINDRICAL_SURFACE('',#697,3.556);
#79=CYLINDRICAL_SURFACE('',#701,3.556);
#80=CYLINDRICAL_SURFACE('',#705,3.556);
#81=CYLINDRICAL_SURFACE('',#709,3.556);
#82=CYLINDRICAL_SURFACE('',#713,3.556);
#83=CYLINDRICAL_SURFACE('',#717,2.0701);
#84=FACE_OUTER_BOUND('',#115,.T.);
#85=FACE_OUTER_BOUND('',#116,.T.);
#86=FACE_OUTER_BOUND('',#117,.T.);
#87=FACE_OUTER_BOUND('',#118,.T.);
#88=FACE_OUTER_BOUND('',#119,.T.);
#89=FACE_OUTER_BOUND('',#120,.T.);
#90=FACE_OUTER_BOUND('',#121,.T.);
#91=FACE_OUTER_BOUND('',#122,.T.);
#92=FACE_OUTER_BOUND('',#123,.T.);
#93=FACE_OUTER_BOUND('',#124,.T.);
#94=FACE_OUTER_BOUND('',#125,.T.);
#95=FACE_OUTER_BOUND('',#126,.T.);
#96=FACE_OUTER_BOUND('',#127,.T.);
#97=FACE_OUTER_BOUND('',#128,.T.);
#98=FACE_OUTER_BOUND('',#129,.T.);
#99=FACE_OUTER_BOUND('',#130,.T.);
#100=FACE_OUTER_BOUND('',#131,.T.);
#101=FACE_OUTER_BOUND('',#132,.T.);
#102=FACE_OUTER_BOUND('',#133,.T.);
#103=FACE_OUTER_BOUND('',#134,.T.);
#104=FACE_OUTER_BOUND('',#135,.T.);
#105=FACE_OUTER_BOUND('',#136,.T.);
#106=FACE_OUTER_BOUND('',#137,.T.);
#107=FACE_OUTER_BOUND('',#138,.T.);
#108=FACE_OUTER_BOUND('',#139,.T.);
#109=FACE_OUTER_BOUND('',#140,.T.);
#110=FACE_OUTER_BOUND('',#141,.T.);
#111=FACE_OUTER_BOUND('',#142,.T.);
#112=FACE_OUTER_BOUND('',#143,.T.);
#113=FACE_OUTER_BOUND('',#144,.T.);
#114=FACE_OUTER_BOUND('',#154,.T.);
#115=EDGE_LOOP('',(#415,#416,#417,#418));
#116=EDGE_LOOP('',(#419,#420,#421,#422));
#117=EDGE_LOOP('',(#423,#424,#425,#426));
#118=EDGE_LOOP('',(#427,#428,#429,#430));
#119=EDGE_LOOP('',(#431,#432,#433,#434));
#120=EDGE_LOOP('',(#435,#436,#437,#438));
#121=EDGE_LOOP('',(#439,#440,#441,#442));
#122=EDGE_LOOP('',(#443,#444,#445,#446));
#123=EDGE_LOOP('',(#447,#448,#449,#450));
#124=EDGE_LOOP('',(#451,#452,#453,#454));
#125=EDGE_LOOP('',(#455,#456,#457,#458));
#126=EDGE_LOOP('',(#459,#460,#461,#462));
#127=EDGE_LOOP('',(#463,#464,#465,#466));
#128=EDGE_LOOP('',(#467,#468,#469,#470));
#129=EDGE_LOOP('',(#471,#472,#473,#474));
#130=EDGE_LOOP('',(#475,#476,#477,#478));
#131=EDGE_LOOP('',(#479,#480,#481,#482));
#132=EDGE_LOOP('',(#483,#484,#485,#486));
#133=EDGE_LOOP('',(#487,#488,#489,#490));
#134=EDGE_LOOP('',(#491,#492,#493,#494));
#135=EDGE_LOOP('',(#495,#496,#497,#498));
#136=EDGE_LOOP('',(#499,#500,#501,#502));
#137=EDGE_LOOP('',(#503,#504,#505,#506));
#138=EDGE_LOOP('',(#507,#508,#509,#510));
#139=EDGE_LOOP('',(#511,#512,#513,#514));
#140=EDGE_LOOP('',(#515,#516,#517,#518));
#141=EDGE_LOOP('',(#519,#520,#521,#522));
#142=EDGE_LOOP('',(#523,#524,#525,#526));
#143=EDGE_LOOP('',(#527,#528,#529,#530));
#144=EDGE_LOOP('',(#531,#532,#533,#534,#535,#536,#537,#538));
#145=EDGE_LOOP('',(#539));
#146=EDGE_LOOP('',(#540));
#147=EDGE_LOOP('',(#541));
#148=EDGE_LOOP('',(#542));
#149=EDGE_LOOP('',(#543,#544,#545,#546));
#150=EDGE_LOOP('',(#547,#548,#549,#550));
#151=EDGE_LOOP('',(#551,#552,#553,#554));
#152=EDGE_LOOP('',(#555,#556,#557,#558));
#153=EDGE_LOOP('',(#559));
#154=EDGE_LOOP('',(#560,#561,#562,#563,#564,#565,#566,#567));
#155=EDGE_LOOP('',(#568));
#156=EDGE_LOOP('',(#569));
#157=EDGE_LOOP('',(#570));
#158=EDGE_LOOP('',(#571));
#159=EDGE_LOOP('',(#572,#573,#574,#575));
#160=EDGE_LOOP('',(#576,#577,#578,#579));
#161=EDGE_LOOP('',(#580,#581,#582,#583));
#162=EDGE_LOOP('',(#584,#585,#586,#587));
#163=EDGE_LOOP('',(#588));
#164=LINE('',#911,#217);
#165=LINE('',#913,#218);
#166=LINE('',#915,#219);
#167=LINE('',#916,#220);
#168=LINE('',#921,#221);
#169=LINE('',#925,#222);
#170=LINE('',#927,#223);
#171=LINE('',#928,#224);
#172=LINE('',#933,#225);
#173=LINE('',#937,#226);
#174=LINE('',#939,#227);
#175=LINE('',#940,#228);
#176=LINE('',#945,#229);
#177=LINE('',#949,#230);
#178=LINE('',#951,#231);
#179=LINE('',#952,#232);
#180=LINE('',#960,#233);
#181=LINE('',#966,#234);
#182=LINE('',#972,#235);
#183=LINE('',#978,#236);
#184=LINE('',#983,#237);
#185=LINE('',#987,#238);
#186=LINE('',#991,#239);
#187=LINE('',#993,#240);
#188=LINE('',#994,#241);
#189=LINE('',#999,#242);
#190=LINE('',#1002,#243);
#191=LINE('',#1003,#244);
#192=LINE('',#1007,#245);
#193=LINE('',#1011,#246);
#194=LINE('',#1015,#247);
#195=LINE('',#1017,#248);
#196=LINE('',#1018,#249);
#197=LINE('',#1023,#250);
#198=LINE('',#1026,#251);
#199=LINE('',#1027,#252);
#200=LINE('',#1031,#253);
#201=LINE('',#1035,#254);
#202=LINE('',#1039,#255);
#203=LINE('',#1041,#256);
#204=LINE('',#1042,#257);
#205=LINE('',#1047,#258);
#206=LINE('',#1050,#259);
#207=LINE('',#1051,#260);
#208=LINE('',#1055,#261);
#209=LINE('',#1059,#262);
#210=LINE('',#1063,#263);
#211=LINE('',#1065,#264);
#212=LINE('',#1066,#265);
#213=LINE('',#1071,#266);
#214=LINE('',#1074,#267);
#215=LINE('',#1075,#268);
#216=LINE('',#1080,#269);
#217=VECTOR('',#726,25.4);
#218=VECTOR('',#727,25.4);
#219=VECTOR('',#728,25.4);
#220=VECTOR('',#729,25.4);
#221=VECTOR('',#734,25.4);
#222=VECTOR('',#739,25.4);
#223=VECTOR('',#740,25.4);
#224=VECTOR('',#741,25.4);
#225=VECTOR('',#746,25.4);
#226=VECTOR('',#751,25.4);
#227=VECTOR('',#752,25.4);
#228=VECTOR('',#753,25.4);
#229=VECTOR('',#758,25.4);
#230=VECTOR('',#763,25.4);
#231=VECTOR('',#764,25.4);
#232=VECTOR('',#765,25.4);
#233=VECTOR('',#776,2.3876);
#234=VECTOR('',#783,2.3876);
#235=VECTOR('',#790,2.3876);
#236=VECTOR('',#797,2.3876);
#237=VECTOR('',#802,25.4);
#238=VECTOR('',#805,25.4);
#239=VECTOR('',#810,25.4);
#240=VECTOR('',#811,25.4);
#241=VECTOR('',#812,25.4);
#242=VECTOR('',#817,25.4);
#243=VECTOR('',#822,25.4);
#244=VECTOR('',#823,25.4);
#245=VECTOR('',#826,25.4);
#246=VECTOR('',#829,25.4);
#247=VECTOR('',#834,25.4);
#248=VECTOR('',#835,25.4);
#249=VECTOR('',#836,25.4);
#250=VECTOR('',#841,25.4);
#251=VECTOR('',#846,25.4);
#252=VECTOR('',#847,25.4);
#253=VECTOR('',#850,25.4);
#254=VECTOR('',#853,25.4);
#255=VECTOR('',#858,25.4);
#256=VECTOR('',#859,25.4);
#257=VECTOR('',#860,25.4);
#258=VECTOR('',#865,25.4);
#259=VECTOR('',#870,25.4);
#260=VECTOR('',#871,25.4);
#261=VECTOR('',#874,25.4);
#262=VECTOR('',#877,25.4);
#263=VECTOR('',#882,25.4);
#264=VECTOR('',#883,25.4);
#265=VECTOR('',#884,25.4);
#266=VECTOR('',#889,25.4);
#267=VECTOR('',#894,25.4);
#268=VECTOR('',#895,25.4);
#269=VECTOR('',#900,2.0701);
#270=VERTEX_POINT('',#909);
#271=VERTEX_POINT('',#910);
#272=VERTEX_POINT('',#912);
#273=VERTEX_POINT('',#914);
#274=VERTEX_POINT('',#918);
#275=VERTEX_POINT('',#920);
#276=VERTEX_POINT('',#924);
#277=VERTEX_POINT('',#926);
#278=VERTEX_POINT('',#930);
#279=VERTEX_POINT('',#932);
#280=VERTEX_POINT('',#936);
#281=VERTEX_POINT('',#938);
#282=VERTEX_POINT('',#942);
#283=VERTEX_POINT('',#944);
#284=VERTEX_POINT('',#948);
#285=VERTEX_POINT('',#950);
#286=VERTEX_POINT('',#957);
#287=VERTEX_POINT('',#959);
#288=VERTEX_POINT('',#963);
#289=VERTEX_POINT('',#965);
#290=VERTEX_POINT('',#969);
#291=VERTEX_POINT('',#971);
#292=VERTEX_POINT('',#975);
#293=VERTEX_POINT('',#977);
#294=VERTEX_POINT('',#981);
#295=VERTEX_POINT('',#982);
#296=VERTEX_POINT('',#984);
#297=VERTEX_POINT('',#986);
#298=VERTEX_POINT('',#990);
#299=VERTEX_POINT('',#992);
#300=VERTEX_POINT('',#996);
#301=VERTEX_POINT('',#998);
#302=VERTEX_POINT('',#1005);
#303=VERTEX_POINT('',#1006);
#304=VERTEX_POINT('',#1008);
#305=VERTEX_POINT('',#1010);
#306=VERTEX_POINT('',#1014);
#307=VERTEX_POINT('',#1016);
#308=VERTEX_POINT('',#1020);
#309=VERTEX_POINT('',#1022);
#310=VERTEX_POINT('',#1029);
#311=VERTEX_POINT('',#1030);
#312=VERTEX_POINT('',#1032);
#313=VERTEX_POINT('',#1034);
#314=VERTEX_POINT('',#1038);
#315=VERTEX_POINT('',#1040);
#316=VERTEX_POINT('',#1044);
#317=VERTEX_POINT('',#1046);
#318=VERTEX_POINT('',#1053);
#319=VERTEX_POINT('',#1054);
#320=VERTEX_POINT('',#1056);
#321=VERTEX_POINT('',#1058);
#322=VERTEX_POINT('',#1062);
#323=VERTEX_POINT('',#1064);
#324=VERTEX_POINT('',#1068);
#325=VERTEX_POINT('',#1070);
#326=VERTEX_POINT('',#1077);
#327=VERTEX_POINT('',#1079);
#328=EDGE_CURVE('',#270,#271,#164,.T.);
#329=EDGE_CURVE('',#270,#272,#165,.T.);
#330=EDGE_CURVE('',#272,#273,#166,.T.);
#331=EDGE_CURVE('',#271,#273,#167,.T.);
#332=EDGE_CURVE('',#272,#274,#33,.T.);
#333=EDGE_CURVE('',#274,#275,#168,.T.);
#334=EDGE_CURVE('',#273,#275,#34,.T.);
#335=EDGE_CURVE('',#274,#276,#169,.T.);
#336=EDGE_CURVE('',#276,#277,#170,.T.);
#337=EDGE_CURVE('',#275,#277,#171,.T.);
#338=EDGE_CURVE('',#276,#278,#35,.T.);
#339=EDGE_CURVE('',#278,#279,#172,.T.);
#340=EDGE_CURVE('',#277,#279,#36,.T.);
#341=EDGE_CURVE('',#278,#280,#173,.T.);
#342=EDGE_CURVE('',#280,#281,#174,.T.);
#343=EDGE_CURVE('',#279,#281,#175,.T.);
#344=EDGE_CURVE('',#280,#282,#37,.T.);
#345=EDGE_CURVE('',#282,#283,#176,.T.);
#346=EDGE_CURVE('',#281,#283,#38,.T.);
#347=EDGE_CURVE('',#282,#284,#177,.T.);
#348=EDGE_CURVE('',#284,#285,#178,.T.);
#349=EDGE_CURVE('',#283,#285,#179,.T.);
#350=EDGE_CURVE('',#284,#270,#39,.T.);
#351=EDGE_CURVE('',#285,#271,#40,.T.);
#352=EDGE_CURVE('',#286,#286,#41,.T.);
#353=EDGE_CURVE('',#286,#287,#180,.T.);
#354=EDGE_CURVE('',#287,#287,#42,.T.);
#355=EDGE_CURVE('',#288,#288,#43,.T.);
#356=EDGE_CURVE('',#288,#289,#181,.T.);
#357=EDGE_CURVE('',#289,#289,#44,.T.);
#358=EDGE_CURVE('',#290,#290,#45,.T.);
#359=EDGE_CURVE('',#290,#291,#182,.T.);
#360=EDGE_CURVE('',#291,#291,#46,.T.);
#361=EDGE_CURVE('',#292,#292,#47,.T.);
#362=EDGE_CURVE('',#292,#293,#183,.T.);
#363=EDGE_CURVE('',#293,#293,#48,.T.);
#364=EDGE_CURVE('',#294,#295,#184,.T.);
#365=EDGE_CURVE('',#295,#296,#49,.T.);
#366=EDGE_CURVE('',#297,#296,#185,.T.);
#367=EDGE_CURVE('',#294,#297,#50,.T.);
#368=EDGE_CURVE('',#296,#298,#186,.T.);
#369=EDGE_CURVE('',#299,#298,#187,.T.);
#370=EDGE_CURVE('',#297,#299,#188,.T.);
#371=EDGE_CURVE('',#298,#300,#51,.T.);
#372=EDGE_CURVE('',#301,#300,#189,.T.);
#373=EDGE_CURVE('',#299,#301,#52,.T.);
#374=EDGE_CURVE('',#300,#295,#190,.T.);
#375=EDGE_CURVE('',#301,#294,#191,.T.);
#376=EDGE_CURVE('',#302,#303,#192,.T.);
#377=EDGE_CURVE('',#303,#304,#53,.T.);
#378=EDGE_CURVE('',#305,#304,#193,.T.);
#379=EDGE_CURVE('',#302,#305,#54,.T.);
#380=EDGE_CURVE('',#304,#306,#194,.T.);
#381=EDGE_CURVE('',#307,#306,#195,.T.);
#382=EDGE_CURVE('',#305,#307,#196,.T.);
#383=EDGE_CURVE('',#306,#308,#55,.T.);
#384=EDGE_CURVE('',#309,#308,#197,.T.);
#385=EDGE_CURVE('',#307,#309,#56,.T.);
#386=EDGE_CURVE('',#308,#303,#198,.T.);
#387=EDGE_CURVE('',#309,#302,#199,.T.);
#388=EDGE_CURVE('',#310,#311,#200,.T.);
#389=EDGE_CURVE('',#311,#312,#57,.T.);
#390=EDGE_CURVE('',#313,#312,#201,.T.);
#391=EDGE_CURVE('',#310,#313,#58,.T.);
#392=EDGE_CURVE('',#312,#314,#202,.T.);
#393=EDGE_CURVE('',#315,#314,#203,.T.);
#394=EDGE_CURVE('',#313,#315,#204,.T.);
#395=EDGE_CURVE('',#314,#316,#59,.T.);
#396=EDGE_CURVE('',#317,#316,#205,.T.);
#397=EDGE_CURVE('',#315,#317,#60,.T.);
#398=EDGE_CURVE('',#316,#311,#206,.T.);
#399=EDGE_CURVE('',#317,#310,#207,.T.);
#400=EDGE_CURVE('',#318,#319,#208,.T.);
#401=EDGE_CURVE('',#319,#320,#61,.T.);
#402=EDGE_CURVE('',#321,#320,#209,.T.);
#403=EDGE_CURVE('',#318,#321,#62,.T.);
#404=EDGE_CURVE('',#320,#322,#210,.T.);
#405=EDGE_CURVE('',#323,#322,#211,.T.);
#406=EDGE_CURVE('',#321,#323,#212,.T.);
#407=EDGE_CURVE('',#322,#324,#63,.T.);
#408=EDGE_CURVE('',#325,#324,#213,.T.);
#409=EDGE_CURVE('',#323,#325,#64,.T.);
#410=EDGE_CURVE('',#324,#319,#214,.T.);
#411=EDGE_CURVE('',#325,#318,#215,.T.);
#412=EDGE_CURVE('',#326,#326,#65,.T.);
#413=EDGE_CURVE('',#326,#327,#216,.T.);
#414=EDGE_CURVE('',#327,#327,#66,.T.);
#415=ORIENTED_EDGE('',*,*,#328,.F.);
#416=ORIENTED_EDGE('',*,*,#329,.T.);
#417=ORIENTED_EDGE('',*,*,#330,.T.);
#418=ORIENTED_EDGE('',*,*,#331,.F.);
#419=ORIENTED_EDGE('',*,*,#330,.F.);
#420=ORIENTED_EDGE('',*,*,#332,.T.);
#421=ORIENTED_EDGE('',*,*,#333,.T.);
#422=ORIENTED_EDGE('',*,*,#334,.F.);
#423=ORIENTED_EDGE('',*,*,#333,.F.);
#424=ORIENTED_EDGE('',*,*,#335,.T.);
#425=ORIENTED_EDGE('',*,*,#336,.T.);
#426=ORIENTED_EDGE('',*,*,#337,.F.);
#427=ORIENTED_EDGE('',*,*,#336,.F.);
#428=ORIENTED_EDGE('',*,*,#338,.T.);
#429=ORIENTED_EDGE('',*,*,#339,.T.);
#430=ORIENTED_EDGE('',*,*,#340,.F.);
#431=ORIENTED_EDGE('',*,*,#339,.F.);
#432=ORIENTED_EDGE('',*,*,#341,.T.);
#433=ORIENTED_EDGE('',*,*,#342,.T.);
#434=ORIENTED_EDGE('',*,*,#343,.F.);
#435=ORIENTED_EDGE('',*,*,#342,.F.);
#436=ORIENTED_EDGE('',*,*,#344,.T.);
#437=ORIENTED_EDGE('',*,*,#345,.T.);
#438=ORIENTED_EDGE('',*,*,#346,.F.);
#439=ORIENTED_EDGE('',*,*,#345,.F.);
#440=ORIENTED_EDGE('',*,*,#347,.T.);
#441=ORIENTED_EDGE('',*,*,#348,.T.);
#442=ORIENTED_EDGE('',*,*,#349,.F.);
#443=ORIENTED_EDGE('',*,*,#348,.F.);
#444=ORIENTED_EDGE('',*,*,#350,.T.);
#445=ORIENTED_EDGE('',*,*,#328,.T.);
#446=ORIENTED_EDGE('',*,*,#351,.F.);
#447=ORIENTED_EDGE('',*,*,#352,.T.);
#448=ORIENTED_EDGE('',*,*,#353,.T.);
#449=ORIENTED_EDGE('',*,*,#354,.F.);
#450=ORIENTED_EDGE('',*,*,#353,.F.);
#451=ORIENTED_EDGE('',*,*,#355,.T.);
#452=ORIENTED_EDGE('',*,*,#356,.T.);
#453=ORIENTED_EDGE('',*,*,#357,.F.);
#454=ORIENTED_EDGE('',*,*,#356,.F.);
#455=ORIENTED_EDGE('',*,*,#358,.T.);
#456=ORIENTED_EDGE('',*,*,#359,.T.);
#457=ORIENTED_EDGE('',*,*,#360,.F.);
#458=ORIENTED_EDGE('',*,*,#359,.F.);
#459=ORIENTED_EDGE('',*,*,#361,.T.);
#460=ORIENTED_EDGE('',*,*,#362,.T.);
#461=ORIENTED_EDGE('',*,*,#363,.F.);
#462=ORIENTED_EDGE('',*,*,#362,.F.);
#463=ORIENTED_EDGE('',*,*,#364,.T.);
#464=ORIENTED_EDGE('',*,*,#365,.T.);
#465=ORIENTED_EDGE('',*,*,#366,.F.);
#466=ORIENTED_EDGE('',*,*,#367,.F.);
#467=ORIENTED_EDGE('',*,*,#366,.T.);
#468=ORIENTED_EDGE('',*,*,#368,.T.);
#469=ORIENTED_EDGE('',*,*,#369,.F.);
#470=ORIENTED_EDGE('',*,*,#370,.F.);
#471=ORIENTED_EDGE('',*,*,#369,.T.);
#472=ORIENTED_EDGE('',*,*,#371,.T.);
#473=ORIENTED_EDGE('',*,*,#372,.F.);
#474=ORIENTED_EDGE('',*,*,#373,.F.);
#475=ORIENTED_EDGE('',*,*,#372,.T.);
#476=ORIENTED_EDGE('',*,*,#374,.T.);
#477=ORIENTED_EDGE('',*,*,#364,.F.);
#478=ORIENTED_EDGE('',*,*,#375,.F.);
#479=ORIENTED_EDGE('',*,*,#376,.T.);
#480=ORIENTED_EDGE('',*,*,#377,.T.);
#481=ORIENTED_EDGE('',*,*,#378,.F.);
#482=ORIENTED_EDGE('',*,*,#379,.F.);
#483=ORIENTED_EDGE('',*,*,#378,.T.);
#484=ORIENTED_EDGE('',*,*,#380,.T.);
#485=ORIENTED_EDGE('',*,*,#381,.F.);
#486=ORIENTED_EDGE('',*,*,#382,.F.);
#487=ORIENTED_EDGE('',*,*,#381,.T.);
#488=ORIENTED_EDGE('',*,*,#383,.T.);
#489=ORIENTED_EDGE('',*,*,#384,.F.);
#490=ORIENTED_EDGE('',*,*,#385,.F.);
#491=ORIENTED_EDGE('',*,*,#384,.T.);
#492=ORIENTED_EDGE('',*,*,#386,.T.);
#493=ORIENTED_EDGE('',*,*,#376,.F.);
#494=ORIENTED_EDGE('',*,*,#387,.F.);
#495=ORIENTED_EDGE('',*,*,#388,.T.);
#496=ORIENTED_EDGE('',*,*,#389,.T.);
#497=ORIENTED_EDGE('',*,*,#390,.F.);
#498=ORIENTED_EDGE('',*,*,#391,.F.);
#499=ORIENTED_EDGE('',*,*,#390,.T.);
#500=ORIENTED_EDGE('',*,*,#392,.T.);
#501=ORIENTED_EDGE('',*,*,#393,.F.);
#502=ORIENTED_EDGE('',*,*,#394,.F.);
#503=ORIENTED_EDGE('',*,*,#393,.T.);
#504=ORIENTED_EDGE('',*,*,#395,.T.);
#505=ORIENTED_EDGE('',*,*,#396,.F.);
#506=ORIENTED_EDGE('',*,*,#397,.F.);
#507=ORIENTED_EDGE('',*,*,#396,.T.);
#508=ORIENTED_EDGE('',*,*,#398,.T.);
#509=ORIENTED_EDGE('',*,*,#388,.F.);
#510=ORIENTED_EDGE('',*,*,#399,.F.);
#511=ORIENTED_EDGE('',*,*,#400,.T.);
#512=ORIENTED_EDGE('',*,*,#401,.T.);
#513=ORIENTED_EDGE('',*,*,#402,.F.);
#514=ORIENTED_EDGE('',*,*,#403,.F.);
#515=ORIENTED_EDGE('',*,*,#402,.T.);
#516=ORIENTED_EDGE('',*,*,#404,.T.);
#517=ORIENTED_EDGE('',*,*,#405,.F.);
#518=ORIENTED_EDGE('',*,*,#406,.F.);
#519=ORIENTED_EDGE('',*,*,#405,.T.);
#520=ORIENTED_EDGE('',*,*,#407,.T.);
#521=ORIENTED_EDGE('',*,*,#408,.F.);
#522=ORIENTED_EDGE('',*,*,#409,.F.);
#523=ORIENTED_EDGE('',*,*,#408,.T.);
#524=ORIENTED_EDGE('',*,*,#410,.T.);
#525=ORIENTED_EDGE('',*,*,#400,.F.);
#526=ORIENTED_EDGE('',*,*,#411,.F.);
#527=ORIENTED_EDGE('',*,*,#412,.T.);
#528=ORIENTED_EDGE('',*,*,#413,.T.);
#529=ORIENTED_EDGE('',*,*,#414,.F.);
#530=ORIENTED_EDGE('',*,*,#413,.F.);
#531=ORIENTED_EDGE('',*,*,#329,.F.);
#532=ORIENTED_EDGE('',*,*,#350,.F.);
#533=ORIENTED_EDGE('',*,*,#347,.F.);
#534=ORIENTED_EDGE('',*,*,#344,.F.);
#535=ORIENTED_EDGE('',*,*,#341,.F.);
#536=ORIENTED_EDGE('',*,*,#338,.F.);
#537=ORIENTED_EDGE('',*,*,#335,.F.);
#538=ORIENTED_EDGE('',*,*,#332,.F.);
#539=ORIENTED_EDGE('',*,*,#354,.T.);
#540=ORIENTED_EDGE('',*,*,#357,.T.);
#541=ORIENTED_EDGE('',*,*,#360,.T.);
#542=ORIENTED_EDGE('',*,*,#363,.T.);
#543=ORIENTED_EDGE('',*,*,#367,.T.);
#544=ORIENTED_EDGE('',*,*,#370,.T.);
#545=ORIENTED_EDGE('',*,*,#373,.T.);
#546=ORIENTED_EDGE('',*,*,#375,.T.);
#547=ORIENTED_EDGE('',*,*,#379,.T.);
#548=ORIENTED_EDGE('',*,*,#382,.T.);
#549=ORIENTED_EDGE('',*,*,#385,.T.);
#550=ORIENTED_EDGE('',*,*,#387,.T.);
#551=ORIENTED_EDGE('',*,*,#391,.T.);
#552=ORIENTED_EDGE('',*,*,#394,.T.);
#553=ORIENTED_EDGE('',*,*,#397,.T.);
#554=ORIENTED_EDGE('',*,*,#399,.T.);
#555=ORIENTED_EDGE('',*,*,#403,.T.);
#556=ORIENTED_EDGE('',*,*,#406,.T.);
#557=ORIENTED_EDGE('',*,*,#409,.T.);
#558=ORIENTED_EDGE('',*,*,#411,.T.);
#559=ORIENTED_EDGE('',*,*,#414,.T.);
#560=ORIENTED_EDGE('',*,*,#331,.T.);
#561=ORIENTED_EDGE('',*,*,#334,.T.);
#562=ORIENTED_EDGE('',*,*,#337,.T.);
#563=ORIENTED_EDGE('',*,*,#340,.T.);
#564=ORIENTED_EDGE('',*,*,#343,.T.);
#565=ORIENTED_EDGE('',*,*,#346,.T.);
#566=ORIENTED_EDGE('',*,*,#349,.T.);
#567=ORIENTED_EDGE('',*,*,#351,.T.);
#568=ORIENTED_EDGE('',*,*,#352,.F.);
#569=ORIENTED_EDGE('',*,*,#355,.F.);
#570=ORIENTED_EDGE('',*,*,#358,.F.);
#571=ORIENTED_EDGE('',*,*,#361,.F.);
#572=ORIENTED_EDGE('',*,*,#365,.F.);
#573=ORIENTED_EDGE('',*,*,#374,.F.);
#574=ORIENTED_EDGE('',*,*,#371,.F.);
#575=ORIENTED_EDGE('',*,*,#368,.F.);
#576=ORIENTED_EDGE('',*,*,#377,.F.);
#577=ORIENTED_EDGE('',*,*,#386,.F.);
#578=ORIENTED_EDGE('',*,*,#383,.F.);
#579=ORIENTED_EDGE('',*,*,#380,.F.);
#580=ORIENTED_EDGE('',*,*,#389,.F.);
#581=ORIENTED_EDGE('',*,*,#398,.F.);
#582=ORIENTED_EDGE('',*,*,#395,.F.);
#583=ORIENTED_EDGE('',*,*,#392,.F.);
#584=ORIENTED_EDGE('',*,*,#401,.F.);
#585=ORIENTED_EDGE('',*,*,#410,.F.);
#586=ORIENTED_EDGE('',*,*,#407,.F.);
#587=ORIENTED_EDGE('',*,*,#404,.F.);
#588=ORIENTED_EDGE('',*,*,#412,.F.);
#589=PLANE('',#657);
#590=PLANE('',#661);
#591=PLANE('',#665);
#592=PLANE('',#669);
#593=PLANE('',#688);
#594=PLANE('',#692);
#595=PLANE('',#696);
#596=PLANE('',#700);
#597=PLANE('',#704);
#598=PLANE('',#708);
#599=PLANE('',#712);
#600=PLANE('',#716);
#601=PLANE('',#720);
#602=PLANE('',#721);
#603=ADVANCED_FACE('',(#84),#589,.F.);
#604=ADVANCED_FACE('',(#85),#67,.T.);
#605=ADVANCED_FACE('',(#86),#590,.F.);
#606=ADVANCED_FACE('',(#87),#68,.T.);
#607=ADVANCED_FACE('',(#88),#591,.F.);
#608=ADVANCED_FACE('',(#89),#69,.T.);
#609=ADVANCED_FACE('',(#90),#592,.F.);
#610=ADVANCED_FACE('',(#91),#70,.T.);
#611=ADVANCED_FACE('',(#92),#71,.F.);
#612=ADVANCED_FACE('',(#93),#72,.F.);
#613=ADVANCED_FACE('',(#94),#73,.F.);
#614=ADVANCED_FACE('',(#95),#74,.F.);
#615=ADVANCED_FACE('',(#96),#75,.F.);
#616=ADVANCED_FACE('',(#97),#593,.T.);
#617=ADVANCED_FACE('',(#98),#76,.F.);
#618=ADVANCED_FACE('',(#99),#594,.T.);
#619=ADVANCED_FACE('',(#100),#77,.F.);
#620=ADVANCED_FACE('',(#101),#595,.T.);
#621=ADVANCED_FACE('',(#102),#78,.F.);
#622=ADVANCED_FACE('',(#103),#596,.T.);
#623=ADVANCED_FACE('',(#104),#79,.F.);
#624=ADVANCED_FACE('',(#105),#597,.T.);
#625=ADVANCED_FACE('',(#106),#80,.F.);
#626=ADVANCED_FACE('',(#107),#598,.T.);
#627=ADVANCED_FACE('',(#108),#81,.F.);
#628=ADVANCED_FACE('',(#109),#599,.T.);
#629=ADVANCED_FACE('',(#110),#82,.F.);
#630=ADVANCED_FACE('',(#111),#600,.T.);
#631=ADVANCED_FACE('',(#112),#83,.F.);
#632=ADVANCED_FACE('',(#113,#15,#16,#17,#18,#19,#20,#21,#22,#23),#601,.F.);
#633=ADVANCED_FACE('',(#114,#24,#25,#26,#27,#28,#29,#30,#31,#32),#602,.T.);
#634=CLOSED_SHELL('',(#603,#604,#605,#606,#607,#608,#609,#610,#611,#612,
#613,#614,#615,#616,#617,#618,#619,#620,#621,#622,#623,#624,#625,#626,#627,
#628,#629,#630,#631,#632,#633));
#635=DERIVED_UNIT_ELEMENT(#638,1.);
#636=DERIVED_UNIT_ELEMENT(#1089,-3.);
#637=DIMENSIONAL_EXPONENTS(0.,1.,0.,0.,0.,0.,0.);
#638=(
CONVERSION_BASED_UNIT('gram',#640)
MASS_UNIT()
NAMED_UNIT(#637)
);
#639=(
MASS_UNIT()
NAMED_UNIT(*)
SI_UNIT(.KILO.,.GRAM.)
);
#640=MASS_MEASURE_WITH_UNIT(MASS_MEASURE(0.001),#639);
#641=DERIVED_UNIT((#635,#636));
#642=MEASURE_REPRESENTATION_ITEM('density measure',
POSITIVE_RATIO_MEASURE(1.),#641);
#643=PROPERTY_DEFINITION_REPRESENTATION(#648,#645);
#644=PROPERTY_DEFINITION_REPRESENTATION(#649,#646);
#645=REPRESENTATION('material name',(#647),#1086);
#646=REPRESENTATION('density',(#642),#1086);
#647=DESCRIPTIVE_REPRESENTATION_ITEM('\X2\C77CBC18\X0\','\X2\C77CBC18\X0\');
#648=PROPERTY_DEFINITION('material property','material name',#1096);
#649=PROPERTY_DEFINITION('material property','density of part',#1096);
#650=DATE_TIME_ROLE('creation_date');
#651=APPLIED_DATE_AND_TIME_ASSIGNMENT(#652,#650,(#1096));
#652=DATE_AND_TIME(#653,#654);
#653=CALENDAR_DATE(2025,5,11);
#654=LOCAL_TIME(0,0,0.,#655);
#655=COORDINATED_UNIVERSAL_TIME_OFFSET(0,0,.BEHIND.);
#656=AXIS2_PLACEMENT_3D('',#907,#722,#723);
#657=AXIS2_PLACEMENT_3D('',#908,#724,#725);
#658=AXIS2_PLACEMENT_3D('',#917,#730,#731);
#659=AXIS2_PLACEMENT_3D('',#919,#732,#733);
#660=AXIS2_PLACEMENT_3D('',#922,#735,#736);
#661=AXIS2_PLACEMENT_3D('',#923,#737,#738);
#662=AXIS2_PLACEMENT_3D('',#929,#742,#743);
#663=AXIS2_PLACEMENT_3D('',#931,#744,#745);
#664=AXIS2_PLACEMENT_3D('',#934,#747,#748);
#665=AXIS2_PLACEMENT_3D('',#935,#749,#750);
#666=AXIS2_PLACEMENT_3D('',#941,#754,#755);
#667=AXIS2_PLACEMENT_3D('',#943,#756,#757);
#668=AXIS2_PLACEMENT_3D('',#946,#759,#760);
#669=AXIS2_PLACEMENT_3D('',#947,#761,#762);
#670=AXIS2_PLACEMENT_3D('',#953,#766,#767);
#671=AXIS2_PLACEMENT_3D('',#954,#768,#769);
#672=AXIS2_PLACEMENT_3D('',#955,#770,#771);
#673=AXIS2_PLACEMENT_3D('',#956,#772,#773);
#674=AXIS2_PLACEMENT_3D('',#958,#774,#775);
#675=AXIS2_PLACEMENT_3D('',#961,#777,#778);
#676=AXIS2_PLACEMENT_3D('',#962,#779,#780);
#677=AXIS2_PLACEMENT_3D('',#964,#781,#782);
#678=AXIS2_PLACEMENT_3D('',#967,#784,#785);
#679=AXIS2_PLACEMENT_3D('',#968,#786,#787);
#680=AXIS2_PLACEMENT_3D('',#970,#788,#789);
#681=AXIS2_PLACEMENT_3D('',#973,#791,#792);
#682=AXIS2_PLACEMENT_3D('',#974,#793,#794);
#683=AXIS2_PLACEMENT_3D('',#976,#795,#796);
#684=AXIS2_PLACEMENT_3D('',#979,#798,#799);
#685=AXIS2_PLACEMENT_3D('',#980,#800,#801);
#686=AXIS2_PLACEMENT_3D('',#985,#803,#804);
#687=AXIS2_PLACEMENT_3D('',#988,#806,#807);
#688=AXIS2_PLACEMENT_3D('',#989,#808,#809);
#689=AXIS2_PLACEMENT_3D('',#995,#813,#814);
#690=AXIS2_PLACEMENT_3D('',#997,#815,#816);
#691=AXIS2_PLACEMENT_3D('',#1000,#818,#819);
#692=AXIS2_PLACEMENT_3D('',#1001,#820,#821);
#693=AXIS2_PLACEMENT_3D('',#1004,#824,#825);
#694=AXIS2_PLACEMENT_3D('',#1009,#827,#828);
#695=AXIS2_PLACEMENT_3D('',#1012,#830,#831);
#696=AXIS2_PLACEMENT_3D('',#1013,#832,#833);
#697=AXIS2_PLACEMENT_3D('',#1019,#837,#838);
#698=AXIS2_PLACEMENT_3D('',#1021,#839,#840);
#699=AXIS2_PLACEMENT_3D('',#1024,#842,#843);
#700=AXIS2_PLACEMENT_3D('',#1025,#844,#845);
#701=AXIS2_PLACEMENT_3D('',#1028,#848,#849);
#702=AXIS2_PLACEMENT_3D('',#1033,#851,#852);
#703=AXIS2_PLACEMENT_3D('',#1036,#854,#855);
#704=AXIS2_PLACEMENT_3D('',#1037,#856,#857);
#705=AXIS2_PLACEMENT_3D('',#1043,#861,#862);
#706=AXIS2_PLACEMENT_3D('',#1045,#863,#864);
#707=AXIS2_PLACEMENT_3D('',#1048,#866,#867);
#708=AXIS2_PLACEMENT_3D('',#1049,#868,#869);
#709=AXIS2_PLACEMENT_3D('',#1052,#872,#873);
#710=AXIS2_PLACEMENT_3D('',#1057,#875,#876);
#711=AXIS2_PLACEMENT_3D('',#1060,#878,#879);
#712=AXIS2_PLACEMENT_3D('',#1061,#880,#881);
#713=AXIS2_PLACEMENT_3D('',#1067,#885,#886);
#714=AXIS2_PLACEMENT_3D('',#1069,#887,#888);
#715=AXIS2_PLACEMENT_3D('',#1072,#890,#891);
#716=AXIS2_PLACEMENT_3D('',#1073,#892,#893);
#717=AXIS2_PLACEMENT_3D('',#1076,#896,#897);
#718=AXIS2_PLACEMENT_3D('',#1078,#898,#899);
#719=AXIS2_PLACEMENT_3D('',#1081,#901,#902);
#720=AXIS2_PLACEMENT_3D('',#1082,#903,#904);
#721=AXIS2_PLACEMENT_3D('',#1083,#905,#906);
#722=DIRECTION('axis',(0.,0.,1.));
#723=DIRECTION('refdir',(1.,0.,0.));
#724=DIRECTION('center_axis',(0.,1.,0.));
#725=DIRECTION('ref_axis',(1.,0.,0.));
#726=DIRECTION('',(0.,0.,1.));
#727=DIRECTION('',(1.,0.,0.));
#728=DIRECTION('',(0.,0.,1.));
#729=DIRECTION('',(1.,0.,0.));
#730=DIRECTION('center_axis',(0.,0.,-1.));
#731=DIRECTION('ref_axis',(1.,0.,0.));
#732=DIRECTION('center_axis',(0.,0.,1.));
#733=DIRECTION('ref_axis',(1.,0.,0.));
#734=DIRECTION('',(0.,0.,1.));
#735=DIRECTION('center_axis',(0.,0.,1.));
#736=DIRECTION('ref_axis',(1.,0.,0.));
#737=DIRECTION('center_axis',(-1.,0.,0.));
#738=DIRECTION('ref_axis',(0.,1.,0.));
#739=DIRECTION('',(0.,1.,0.));
#740=DIRECTION('',(0.,0.,1.));
#741=DIRECTION('',(0.,1.,0.));
#742=DIRECTION('center_axis',(0.,0.,-1.));
#743=DIRECTION('ref_axis',(1.,0.,0.));
#744=DIRECTION('center_axis',(0.,0.,1.));
#745=DIRECTION('ref_axis',(1.,0.,0.));
#746=DIRECTION('',(0.,0.,1.));
#747=DIRECTION('center_axis',(0.,0.,1.));
#748=DIRECTION('ref_axis',(1.,0.,0.));
#749=DIRECTION('center_axis',(0.,-1.,0.));
#750=DIRECTION('ref_axis',(-1.,0.,0.));
#751=DIRECTION('',(-1.,0.,0.));
#752=DIRECTION('',(0.,0.,1.));
#753=DIRECTION('',(-1.,0.,0.));
#754=DIRECTION('center_axis',(0.,0.,-1.));
#755=DIRECTION('ref_axis',(1.,0.,0.));
#756=DIRECTION('center_axis',(0.,0.,1.));
#757=DIRECTION('ref_axis',(1.,0.,0.));
#758=DIRECTION('',(0.,0.,1.));
#759=DIRECTION('center_axis',(0.,0.,1.));
#760=DIRECTION('ref_axis',(1.,0.,0.));
#761=DIRECTION('center_axis',(1.,0.,0.));
#762=DIRECTION('ref_axis',(0.,-1.,0.));
#763=DIRECTION('',(0.,-1.,0.));
#764=DIRECTION('',(0.,0.,1.));
#765=DIRECTION('',(0.,-1.,0.));
#766=DIRECTION('center_axis',(0.,0.,-1.));
#767=DIRECTION('ref_axis',(1.,0.,0.));
#768=DIRECTION('center_axis',(0.,0.,1.));
#769=DIRECTION('ref_axis',(1.,0.,0.));
#770=DIRECTION('center_axis',(0.,0.,1.));
#771=DIRECTION('ref_axis',(1.,0.,0.));
#772=DIRECTION('center_axis',(0.,0.,-1.));
#773=DIRECTION('ref_axis',(1.,0.,0.));
#774=DIRECTION('center_axis',(0.,0.,1.));
#775=DIRECTION('ref_axis',(1.,0.,0.));
#776=DIRECTION('',(0.,0.,-1.));
#777=DIRECTION('center_axis',(0.,0.,1.));
#778=DIRECTION('ref_axis',(1.,0.,0.));
#779=DIRECTION('center_axis',(0.,0.,-1.));
#780=DIRECTION('ref_axis',(1.,0.,0.));
#781=DIRECTION('center_axis',(0.,0.,1.));
#782=DIRECTION('ref_axis',(1.,0.,0.));
#783=DIRECTION('',(0.,0.,-1.));
#784=DIRECTION('center_axis',(0.,0.,1.));
#785=DIRECTION('ref_axis',(1.,0.,0.));
#786=DIRECTION('center_axis',(0.,0.,-1.));
#787=DIRECTION('ref_axis',(1.,0.,0.));
#788=DIRECTION('center_axis',(0.,0.,1.));
#789=DIRECTION('ref_axis',(1.,0.,0.));
#790=DIRECTION('',(0.,0.,-1.));
#791=DIRECTION('center_axis',(0.,0.,1.));
#792=DIRECTION('ref_axis',(1.,0.,0.));
#793=DIRECTION('center_axis',(0.,0.,-1.));
#794=DIRECTION('ref_axis',(1.,0.,0.));
#795=DIRECTION('center_axis',(0.,0.,1.));
#796=DIRECTION('ref_axis',(1.,0.,0.));
#797=DIRECTION('',(0.,0.,-1.));
#798=DIRECTION('center_axis',(0.,0.,1.));
#799=DIRECTION('ref_axis',(1.,0.,0.));
#800=DIRECTION('center_axis',(0.,0.,-1.));
#801=DIRECTION('ref_axis',(1.,0.,0.));
#802=DIRECTION('',(0.,0.,1.));
#803=DIRECTION('center_axis',(0.,0.,1.));
#804=DIRECTION('ref_axis',(1.,0.,0.));
#805=DIRECTION('',(0.,0.,1.));
#806=DIRECTION('center_axis',(0.,0.,1.));
#807=DIRECTION('ref_axis',(1.,0.,0.));
#808=DIRECTION('center_axis',(0.,-1.,0.));
#809=DIRECTION('ref_axis',(-1.,0.,0.));
#810=DIRECTION('',(-1.,0.,0.));
#811=DIRECTION('',(0.,0.,1.));
#812=DIRECTION('',(-1.,0.,0.));
#813=DIRECTION('center_axis',(0.,0.,-1.));
#814=DIRECTION('ref_axis',(-1.,1.22464679914735E-16,0.));
#815=DIRECTION('center_axis',(0.,0.,1.));
#816=DIRECTION('ref_axis',(1.,0.,0.));
#817=DIRECTION('',(0.,0.,1.));
#818=DIRECTION('center_axis',(0.,0.,1.));
#819=DIRECTION('ref_axis',(1.,0.,0.));
#820=DIRECTION('center_axis',(0.,1.,0.));
#821=DIRECTION('ref_axis',(1.,0.,0.));
#822=DIRECTION('',(1.,0.,0.));
#823=DIRECTION('',(1.,0.,0.));
#824=DIRECTION('center_axis',(0.,0.,-1.));
#825=DIRECTION('ref_axis',(1.,0.,0.));
#826=DIRECTION('',(0.,0.,1.));
#827=DIRECTION('center_axis',(0.,0.,1.));
#828=DIRECTION('ref_axis',(1.,0.,0.));
#829=DIRECTION('',(0.,0.,1.));
#830=DIRECTION('center_axis',(0.,0.,1.));
#831=DIRECTION('ref_axis',(1.,0.,0.));
#832=DIRECTION('center_axis',(0.,-1.,0.));
#833=DIRECTION('ref_axis',(-1.,0.,0.));
#834=DIRECTION('',(-1.,0.,0.));
#835=DIRECTION('',(0.,0.,1.));
#836=DIRECTION('',(-1.,0.,0.));
#837=DIRECTION('center_axis',(0.,0.,-1.));
#838=DIRECTION('ref_axis',(-1.,1.22464679914735E-16,0.));
#839=DIRECTION('center_axis',(0.,0.,1.));
#840=DIRECTION('ref_axis',(1.,0.,0.));
#841=DIRECTION('',(0.,0.,1.));
#842=DIRECTION('center_axis',(0.,0.,1.));
#843=DIRECTION('ref_axis',(1.,0.,0.));
#844=DIRECTION('center_axis',(0.,1.,0.));
#845=DIRECTION('ref_axis',(1.,0.,0.));
#846=DIRECTION('',(1.,0.,0.));
#847=DIRECTION('',(1.,0.,0.));
#848=DIRECTION('center_axis',(0.,0.,-1.));
#849=DIRECTION('ref_axis',(1.,0.,0.));
#850=DIRECTION('',(0.,0.,1.));
#851=DIRECTION('center_axis',(0.,0.,1.));
#852=DIRECTION('ref_axis',(1.,0.,0.));
#853=DIRECTION('',(0.,0.,1.));
#854=DIRECTION('center_axis',(0.,0.,1.));
#855=DIRECTION('ref_axis',(1.,0.,0.));
#856=DIRECTION('center_axis',(0.,-1.,0.));
#857=DIRECTION('ref_axis',(-1.,0.,0.));
#858=DIRECTION('',(-1.,0.,0.));
#859=DIRECTION('',(0.,0.,1.));
#860=DIRECTION('',(-1.,0.,0.));
#861=DIRECTION('center_axis',(0.,0.,-1.));
#862=DIRECTION('ref_axis',(-1.,1.22464679914735E-16,0.));
#863=DIRECTION('center_axis',(0.,0.,1.));
#864=DIRECTION('ref_axis',(1.,0.,0.));
#865=DIRECTION('',(0.,0.,1.));
#866=DIRECTION('center_axis',(0.,0.,1.));
#867=DIRECTION('ref_axis',(1.,0.,0.));
#868=DIRECTION('center_axis',(0.,1.,0.));
#869=DIRECTION('ref_axis',(1.,0.,0.));
#870=DIRECTION('',(1.,0.,0.));
#871=DIRECTION('',(1.,0.,0.));
#872=DIRECTION('center_axis',(0.,0.,-1.));
#873=DIRECTION('ref_axis',(1.,0.,0.));
#874=DIRECTION('',(0.,0.,1.));
#875=DIRECTION('center_axis',(0.,0.,1.));
#876=DIRECTION('ref_axis',(1.,0.,0.));
#877=DIRECTION('',(0.,0.,1.));
#878=DIRECTION('center_axis',(0.,0.,1.));
#879=DIRECTION('ref_axis',(1.,0.,0.));
#880=DIRECTION('center_axis',(0.,-1.,0.));
#881=DIRECTION('ref_axis',(-1.,0.,0.));
#882=DIRECTION('',(-1.,0.,0.));
#883=DIRECTION('',(0.,0.,1.));
#884=DIRECTION('',(-1.,0.,0.));
#885=DIRECTION('center_axis',(0.,0.,-1.));
#886=DIRECTION('ref_axis',(-1.,1.22464679914735E-16,0.));
#887=DIRECTION('center_axis',(0.,0.,1.));
#888=DIRECTION('ref_axis',(1.,0.,0.));
#889=DIRECTION('',(0.,0.,1.));
#890=DIRECTION('center_axis',(0.,0.,1.));
#891=DIRECTION('ref_axis',(1.,0.,0.));
#892=DIRECTION('center_axis',(0.,1.,0.));
#893=DIRECTION('ref_axis',(1.,0.,0.));
#894=DIRECTION('',(1.,0.,0.));
#895=DIRECTION('',(1.,0.,0.));
#896=DIRECTION('center_axis',(0.,0.,-1.));
#897=DIRECTION('ref_axis',(1.,0.,0.));
#898=DIRECTION('center_axis',(0.,0.,1.));
#899=DIRECTION('ref_axis',(1.,0.,0.));
#900=DIRECTION('',(0.,0.,-1.));
#901=DIRECTION('center_axis',(0.,0.,1.));
#902=DIRECTION('ref_axis',(1.,0.,0.));
#903=DIRECTION('center_axis',(0.,0.,1.));
#904=DIRECTION('ref_axis',(1.,0.,0.));
#905=DIRECTION('center_axis',(0.,0.,1.));
#906=DIRECTION('ref_axis',(1.,0.,0.));
#907=CARTESIAN_POINT('',(0.,0.,0.));
#908=CARTESIAN_POINT('Origin',(0.,0.,0.));
#909=CARTESIAN_POINT('',(0.,-4.40619762898158E-16,0.));
#910=CARTESIAN_POINT('',(0.,-4.40619762898158E-16,1.905));
#911=CARTESIAN_POINT('',(0.,-4.40619762898158E-16,0.));
#912=CARTESIAN_POINT('',(480.568,0.,0.));
#913=CARTESIAN_POINT('',(0.,0.,0.));
#914=CARTESIAN_POINT('',(480.568,0.,1.905));
#915=CARTESIAN_POINT('',(480.568,0.,0.));
#916=CARTESIAN_POINT('',(0.,0.,1.905));
#917=CARTESIAN_POINT('Origin',(480.568000002921,1.01599999707798,0.));
#918=CARTESIAN_POINT('',(481.584,1.016,0.));
#919=CARTESIAN_POINT('Origin',(480.568000002921,1.01599999707798,0.));
#920=CARTESIAN_POINT('',(481.584,1.016,1.905));
#921=CARTESIAN_POINT('',(481.584,1.016,0.));
#922=CARTESIAN_POINT('Origin',(480.568000002921,1.01599999707798,1.905));
#923=CARTESIAN_POINT('Origin',(481.584,1.016,0.));
#924=CARTESIAN_POINT('',(481.584,131.572,0.));
#925=CARTESIAN_POINT('',(481.584,1.016,0.));
#926=CARTESIAN_POINT('',(481.584,131.572,1.905));
#927=CARTESIAN_POINT('',(481.584,131.572,0.));
#928=CARTESIAN_POINT('',(481.584,1.016,1.905));
#929=CARTESIAN_POINT('Origin',(480.568000002921,131.572000002921,0.));
#930=CARTESIAN_POINT('',(480.568,132.588,0.));
#931=CARTESIAN_POINT('Origin',(480.568000002921,131.572000002921,0.));
#932=CARTESIAN_POINT('',(480.568,132.588,1.905));
#933=CARTESIAN_POINT('',(480.568,132.588,0.));
#934=CARTESIAN_POINT('Origin',(480.568000002921,131.572000002921,1.905));
#935=CARTESIAN_POINT('Origin',(480.568,132.588,0.));
#936=CARTESIAN_POINT('',(0.,132.588,0.));
#937=CARTESIAN_POINT('',(480.568,132.588,0.));
#938=CARTESIAN_POINT('',(0.,132.588,1.905));
#939=CARTESIAN_POINT('',(0.,132.588,0.));
#940=CARTESIAN_POINT('',(480.568,132.588,1.905));
#941=CARTESIAN_POINT('Origin',(-2.92202670948328E-9,131.572000002921,0.));
#942=CARTESIAN_POINT('',(-1.016,131.572,0.));
#943=CARTESIAN_POINT('Origin',(-2.92202670948328E-9,131.572000002921,0.));
#944=CARTESIAN_POINT('',(-1.016,131.572,1.905));
#945=CARTESIAN_POINT('',(-1.016,131.572,0.));
#946=CARTESIAN_POINT('Origin',(-2.92202670948328E-9,131.572000002921,1.905));
#947=CARTESIAN_POINT('Origin',(-1.016,131.572,0.));
#948=CARTESIAN_POINT('',(-1.016,1.016,0.));
#949=CARTESIAN_POINT('',(-1.016,131.572,0.));
#950=CARTESIAN_POINT('',(-1.016,1.016,1.905));
#951=CARTESIAN_POINT('',(-1.016,1.016,0.));
#952=CARTESIAN_POINT('',(-1.016,131.572,1.905));
#953=CARTESIAN_POINT('Origin',(-2.92202670948328E-9,1.01599999707798,0.));
#954=CARTESIAN_POINT('Origin',(-2.92202670948328E-9,1.01599999707798,0.));
#955=CARTESIAN_POINT('Origin',(-2.92202670948328E-9,1.01599999707798,1.905));
#956=CARTESIAN_POINT('Origin',(35.7251,109.9947,0.));
#957=CARTESIAN_POINT('',(33.3375,109.9947,1.905));
#958=CARTESIAN_POINT('Origin',(35.7251,109.9947,1.905));
#959=CARTESIAN_POINT('',(33.3375,109.9947,0.));
#960=CARTESIAN_POINT('',(33.3375,109.9947,0.));
#961=CARTESIAN_POINT('Origin',(35.7251,109.9947,0.));
#962=CARTESIAN_POINT('Origin',(35.7251,21.0947,0.));
#963=CARTESIAN_POINT('',(33.3375,21.0947,1.905));
#964=CARTESIAN_POINT('Origin',(35.7251,21.0947,1.905));
#965=CARTESIAN_POINT('',(33.3375,21.0947,0.));
#966=CARTESIAN_POINT('',(33.3375,21.0947,0.));
#967=CARTESIAN_POINT('Origin',(35.7251,21.0947,0.));
#968=CARTESIAN_POINT('Origin',(444.8429,109.9947,0.));
#969=CARTESIAN_POINT('',(442.4553,109.9947,1.905));
#970=CARTESIAN_POINT('Origin',(444.8429,109.9947,1.905));
#971=CARTESIAN_POINT('',(442.4553,109.9947,0.));
#972=CARTESIAN_POINT('',(442.4553,109.9947,0.));
#973=CARTESIAN_POINT('Origin',(444.8429,109.9947,0.));
#974=CARTESIAN_POINT('Origin',(444.8429,21.0947,0.));
#975=CARTESIAN_POINT('',(442.4553,21.0947,1.905));
#976=CARTESIAN_POINT('Origin',(444.8429,21.0947,1.905));
#977=CARTESIAN_POINT('',(442.4553,21.0947,0.));
#978=CARTESIAN_POINT('',(442.4553,21.0947,0.));
#979=CARTESIAN_POINT('Origin',(444.8429,21.0947,0.));
#980=CARTESIAN_POINT('Origin',(474.9546,94.8944,0.));
#981=CARTESIAN_POINT('',(474.9546,91.3384,0.));
#982=CARTESIAN_POINT('',(474.9546,91.3384,1.905));
#983=CARTESIAN_POINT('',(474.9546,91.3384,0.));
#984=CARTESIAN_POINT('',(474.9546,98.4504,1.905));
#985=CARTESIAN_POINT('Origin',(474.9546,94.8944,1.905));
#986=CARTESIAN_POINT('',(474.9546,98.4504,0.));
#987=CARTESIAN_POINT('',(474.9546,98.4504,0.));
#988=CARTESIAN_POINT('Origin',(474.9546,94.8944,0.));
#989=CARTESIAN_POINT('Origin',(474.9546,98.4504,0.));
#990=CARTESIAN_POINT('',(471.8812,98.4504,1.905));
#991=CARTESIAN_POINT('',(474.9546,98.4504,1.905));
#992=CARTESIAN_POINT('',(471.8812,98.4504,0.));
#993=CARTESIAN_POINT('',(471.8812,98.4504,0.));
#994=CARTESIAN_POINT('',(474.9546,98.4504,0.));
#995=CARTESIAN_POINT('Origin',(471.8812,94.8944,0.));
#996=CARTESIAN_POINT('',(471.8812,91.3384,1.905));
#997=CARTESIAN_POINT('Origin',(471.8812,94.8944,1.905));
#998=CARTESIAN_POINT('',(471.8812,91.3384,0.));
#999=CARTESIAN_POINT('',(471.8812,91.3384,0.));
#1000=CARTESIAN_POINT('Origin',(471.8812,94.8944,0.));
#1001=CARTESIAN_POINT('Origin',(471.8812,91.3384,0.));
#1002=CARTESIAN_POINT('',(471.8812,91.3384,1.905));
#1003=CARTESIAN_POINT('',(471.8812,91.3384,0.));
#1004=CARTESIAN_POINT('Origin',(474.9546,37.6936,0.));
#1005=CARTESIAN_POINT('',(474.9546,34.1376,0.));
#1006=CARTESIAN_POINT('',(474.9546,34.1376,1.905));
#1007=CARTESIAN_POINT('',(474.9546,34.1376,0.));
#1008=CARTESIAN_POINT('',(474.9546,41.2496,1.905));
#1009=CARTESIAN_POINT('Origin',(474.9546,37.6936,1.905));
#1010=CARTESIAN_POINT('',(474.9546,41.2496,0.));
#1011=CARTESIAN_POINT('',(474.9546,41.2496,0.));
#1012=CARTESIAN_POINT('Origin',(474.9546,37.6936,0.));
#1013=CARTESIAN_POINT('Origin',(474.9546,41.2496,0.));
#1014=CARTESIAN_POINT('',(471.8812,41.2496,1.905));
#1015=CARTESIAN_POINT('',(474.9546,41.2496,1.905));
#1016=CARTESIAN_POINT('',(471.8812,41.2496,0.));
#1017=CARTESIAN_POINT('',(471.8812,41.2496,0.));
#1018=CARTESIAN_POINT('',(474.9546,41.2496,0.));
#1019=CARTESIAN_POINT('Origin',(471.8812,37.6936,0.));
#1020=CARTESIAN_POINT('',(471.8812,34.1376,1.905));
#1021=CARTESIAN_POINT('Origin',(471.8812,37.6936,1.905));
#1022=CARTESIAN_POINT('',(471.8812,34.1376,0.));
#1023=CARTESIAN_POINT('',(471.8812,34.1376,0.));
#1024=CARTESIAN_POINT('Origin',(471.8812,37.6936,0.));
#1025=CARTESIAN_POINT('Origin',(471.8812,34.1376,0.));
#1026=CARTESIAN_POINT('',(471.8812,34.1376,1.905));
#1027=CARTESIAN_POINT('',(471.8812,34.1376,0.));
#1028=CARTESIAN_POINT('Origin',(8.6868,94.8944,0.));
#1029=CARTESIAN_POINT('',(8.6868,91.3384,0.));
#1030=CARTESIAN_POINT('',(8.6868,91.3384,1.905));
#1031=CARTESIAN_POINT('',(8.6868,91.3384,0.));
#1032=CARTESIAN_POINT('',(8.6868,98.4504,1.905));
#1033=CARTESIAN_POINT('Origin',(8.6868,94.8944,1.905));
#1034=CARTESIAN_POINT('',(8.6868,98.4504,0.));
#1035=CARTESIAN_POINT('',(8.6868,98.4504,0.));
#1036=CARTESIAN_POINT('Origin',(8.6868,94.8944,0.));
#1037=CARTESIAN_POINT('Origin',(8.6868,98.4504,0.));
#1038=CARTESIAN_POINT('',(5.6134,98.4504,1.905));
#1039=CARTESIAN_POINT('',(8.6868,98.4504,1.905));
#1040=CARTESIAN_POINT('',(5.6134,98.4504,0.));
#1041=CARTESIAN_POINT('',(5.6134,98.4504,0.));
#1042=CARTESIAN_POINT('',(8.6868,98.4504,0.));
#1043=CARTESIAN_POINT('Origin',(5.6134,94.8944,0.));
#1044=CARTESIAN_POINT('',(5.6134,91.3384,1.905));
#1045=CARTESIAN_POINT('Origin',(5.6134,94.8944,1.905));
#1046=CARTESIAN_POINT('',(5.6134,91.3384,0.));
#1047=CARTESIAN_POINT('',(5.6134,91.3384,0.));
#1048=CARTESIAN_POINT('Origin',(5.6134,94.8944,0.));
#1049=CARTESIAN_POINT('Origin',(5.6134,91.3384,0.));
#1050=CARTESIAN_POINT('',(5.6134,91.3384,1.905));
#1051=CARTESIAN_POINT('',(5.6134,91.3384,0.));
#1052=CARTESIAN_POINT('Origin',(8.6868,37.6936,0.));
#1053=CARTESIAN_POINT('',(8.6868,34.1376,0.));
#1054=CARTESIAN_POINT('',(8.6868,34.1376,1.905));
#1055=CARTESIAN_POINT('',(8.6868,34.1376,0.));
#1056=CARTESIAN_POINT('',(8.6868,41.2496,1.905));
#1057=CARTESIAN_POINT('Origin',(8.6868,37.6936,1.905));
#1058=CARTESIAN_POINT('',(8.6868,41.2496,0.));
#1059=CARTESIAN_POINT('',(8.6868,41.2496,0.));
#1060=CARTESIAN_POINT('Origin',(8.6868,37.6936,0.));
#1061=CARTESIAN_POINT('Origin',(8.6868,41.2496,0.));
#1062=CARTESIAN_POINT('',(5.6134,41.2496,1.905));
#1063=CARTESIAN_POINT('',(8.6868,41.2496,1.905));
#1064=CARTESIAN_POINT('',(5.6134,41.2496,0.));
#1065=CARTESIAN_POINT('',(5.6134,41.2496,0.));
#1066=CARTESIAN_POINT('',(8.6868,41.2496,0.));
#1067=CARTESIAN_POINT('Origin',(5.6134,37.6936,0.));
#1068=CARTESIAN_POINT('',(5.6134,34.1376,1.905));
#1069=CARTESIAN_POINT('Origin',(5.6134,37.6936,1.905));
#1070=CARTESIAN_POINT('',(5.6134,34.1376,0.));
#1071=CARTESIAN_POINT('',(5.6134,34.1376,0.));
#1072=CARTESIAN_POINT('Origin',(5.6134,37.6936,0.));
#1073=CARTESIAN_POINT('Origin',(5.6134,34.1376,0.));
#1074=CARTESIAN_POINT('',(5.6134,34.1376,1.905));
#1075=CARTESIAN_POINT('',(5.6134,34.1376,0.));
#1076=CARTESIAN_POINT('Origin',(240.284,11.43,0.));
#1077=CARTESIAN_POINT('',(238.2139,11.43,1.905));
#1078=CARTESIAN_POINT('Origin',(240.284,11.43,1.905));
#1079=CARTESIAN_POINT('',(238.2139,11.43,0.));
#1080=CARTESIAN_POINT('',(238.2139,11.43,0.));
#1081=CARTESIAN_POINT('Origin',(240.284,11.43,0.));
#1082=CARTESIAN_POINT('Origin',(240.283999998882,66.294,0.));
#1083=CARTESIAN_POINT('Origin',(240.283999998882,66.294,1.905));
#1084=UNCERTAINTY_MEASURE_WITH_UNIT(LENGTH_MEASURE(0.01),#1088,
'DISTANCE_ACCURACY_VALUE',
'Maximum model space distance between geometric entities at asserted c
onnectivities');
#1085=UNCERTAINTY_MEASURE_WITH_UNIT(LENGTH_MEASURE(0.01),#1088,
'DISTANCE_ACCURACY_VALUE',
'Maximum model space distance between geometric entities at asserted c
onnectivities');
#1086=(
GEOMETRIC_REPRESENTATION_CONTEXT(3)
GLOBAL_UNCERTAINTY_ASSIGNED_CONTEXT((#1084))
GLOBAL_UNIT_ASSIGNED_CONTEXT((#1088,#1090,#1091))
REPRESENTATION_CONTEXT('','3D')
);
#1087=(
GEOMETRIC_REPRESENTATION_CONTEXT(3)
GLOBAL_UNCERTAINTY_ASSIGNED_CONTEXT((#1085))
GLOBAL_UNIT_ASSIGNED_CONTEXT((#1088,#1090,#1091))
REPRESENTATION_CONTEXT('','3D')
);
#1088=(
LENGTH_UNIT()
NAMED_UNIT(*)
SI_UNIT(.MILLI.,.METRE.)
);
#1089=(
LENGTH_UNIT()
NAMED_UNIT(*)
SI_UNIT(.CENTI.,.METRE.)
);
#1090=(
NAMED_UNIT(*)
PLANE_ANGLE_UNIT()
SI_UNIT($,.RADIAN.)
);
#1091=(
NAMED_UNIT(*)
SI_UNIT($,.STERADIAN.)
SOLID_ANGLE_UNIT()
);
#1092=SHAPE_DEFINITION_REPRESENTATION(#1093,#1094);
#1093=PRODUCT_DEFINITION_SHAPE('',$,#1096);
#1094=SHAPE_REPRESENTATION('',(#656),#1086);
#1095=PRODUCT_DEFINITION_CONTEXT('part definition',#1100,'design');
#1096=PRODUCT_DEFINITION('Front','Front',#1097,#1095);
#1097=PRODUCT_DEFINITION_FORMATION('',$,#1102);
#1098=PRODUCT_RELATED_PRODUCT_CATEGORY('Front','Front',(#1102));
#1099=APPLICATION_PROTOCOL_DEFINITION('international standard',
'automotive_design',2009,#1100);
#1100=APPLICATION_CONTEXT(
'Core Data for Automotive Mechanical Design Process');
#1101=PRODUCT_CONTEXT('part definition',#1100,'mechanical');
#1102=PRODUCT('Front','Front',$,(#1101));
#1103=PRESENTATION_STYLE_ASSIGNMENT((#1105));
#1104=PRESENTATION_STYLE_ASSIGNMENT((#1106));
#1105=SURFACE_STYLE_USAGE(.BOTH.,#1111);
#1106=SURFACE_STYLE_USAGE(.BOTH.,#1112);
#1107=SURFACE_STYLE_RENDERING_WITH_PROPERTIES($,#1119,(#1109));
#1108=SURFACE_STYLE_RENDERING_WITH_PROPERTIES($,#1120,(#1110));
#1109=SURFACE_STYLE_TRANSPARENT(0.);
#1110=SURFACE_STYLE_TRANSPARENT(0.);
#1111=SURFACE_SIDE_STYLE('',(#1113,#1107));
#1112=SURFACE_SIDE_STYLE('',(#1114,#1108));
#1113=SURFACE_STYLE_FILL_AREA(#1115);
#1114=SURFACE_STYLE_FILL_AREA(#1116);
#1115=FILL_AREA_STYLE('',(#1117));
#1116=FILL_AREA_STYLE('',(#1118));
#1117=FILL_AREA_STYLE_COLOUR('',#1119);
#1118=FILL_AREA_STYLE_COLOUR('',#1120);
#1119=COLOUR_RGB('',0.749019607843137,0.749019607843137,0.749019607843137);
#1120=COLOUR_RGB('',0.6,0.6,0.6);
ENDSEC;
END-ISO-10303-21;
