ISO-10303-21;
HEADER;
/* Generated by software containing ST-Developer
 * from STEP Tools, Inc. (www.steptools.com) 
 */

FILE_DESCRIPTION(
/* description */ (''),
/* implementation_level */ '2;1');

FILE_NAME(
/* name */ 'Handle.stp',
/* time_stamp */ '2025-11-05T19:57:46-08:00',
/* author */ ('alexi'),
/* organization */ (''),
/* preprocessor_version */ 'ST-DEVELOPER v19.2',
/* originating_system */ 'Autodesk Inventor 2024',
/* authorisation */ '');

FILE_SCHEMA (('AUTOMOTIVE_DESIGN { 1 0 10303 214 3 1 1 }'));
ENDSEC;

DATA;
#10=MECHANICAL_DESIGN_GEOMETRIC_PRESENTATION_REPRESENTATION('',(#13),#237);
#11=SHAPE_REPRESENTATION_RELATIONSHIP('SRR','None',#244,#12);
#12=ADVANCED_BREP_SHAPE_REPRESENTATION('',(#14),#236);
#13=STYLED_ITEM('',(#254),#14);
#14=MANIFOLD_SOLID_BREP('\X2\C194B9ACB4DC\X0\1',#116);
#15=TOROIDAL_SURFACE('',#144,6.35,4.7625);
#16=TOROIDAL_SURFACE('',#151,6.35,4.7625);
#17=LINE('',#209,#20);
#18=LINE('',#221,#21);
#19=LINE('',#232,#22);
#20=VECTOR('',#168,4.7625);
#21=VECTOR('',#183,4.7625);
#22=VECTOR('',#198,4.7625);
#23=CYLINDRICAL_SURFACE('',#141,4.7625);
#24=CYLINDRICAL_SURFACE('',#148,4.7625);
#25=CYLINDRICAL_SURFACE('',#155,4.7625);
#26=FACE_OUTER_BOUND('',#33,.T.);
#27=FACE_OUTER_BOUND('',#34,.T.);
#28=FACE_OUTER_BOUND('',#35,.T.);
#29=FACE_OUTER_BOUND('',#36,.T.);
#30=FACE_OUTER_BOUND('',#37,.T.);
#31=FACE_OUTER_BOUND('',#38,.T.);
#32=FACE_OUTER_BOUND('',#39,.T.);
#33=EDGE_LOOP('',(#77));
#34=EDGE_LOOP('',(#78,#79,#80,#81,#82));
#35=EDGE_LOOP('',(#83,#84,#85,#86,#87,#88));
#36=EDGE_LOOP('',(#89,#90,#91,#92,#93,#94));
#37=EDGE_LOOP('',(#95,#96,#97,#98,#99,#100));
#38=EDGE_LOOP('',(#101,#102,#103,#104,#105));
#39=EDGE_LOOP('',(#106));
#40=CIRCLE('',#140,4.7625);
#41=CIRCLE('',#142,4.7625);
#42=CIRCLE('',#143,4.7625);
#43=CIRCLE('',#145,4.7625);
#44=CIRCLE('',#146,4.7625);
#45=CIRCLE('',#147,1.5875);
#46=CIRCLE('',#149,4.7625);
#47=CIRCLE('',#150,4.7625);
#48=CIRCLE('',#152,4.7625);
#49=CIRCLE('',#153,4.7625);
#50=CIRCLE('',#154,1.5875);
#51=CIRCLE('',#156,4.7625);
#52=VERTEX_POINT('',#203);
#53=VERTEX_POINT('',#206);
#54=VERTEX_POINT('',#207);
#55=VERTEX_POINT('',#212);
#56=VERTEX_POINT('',#213);
#57=VERTEX_POINT('',#218);
#58=VERTEX_POINT('',#219);
#59=VERTEX_POINT('',#224);
#60=VERTEX_POINT('',#225);
#61=VERTEX_POINT('',#230);
#62=EDGE_CURVE('',#52,#52,#40,.T.);
#63=EDGE_CURVE('',#53,#54,#41,.T.);
#64=EDGE_CURVE('',#53,#52,#17,.T.);
#65=EDGE_CURVE('',#54,#53,#42,.T.);
#66=EDGE_CURVE('',#55,#56,#43,.T.);
#67=EDGE_CURVE('',#56,#55,#44,.T.);
#68=EDGE_CURVE('',#55,#54,#45,.T.);
#69=EDGE_CURVE('',#57,#58,#46,.T.);
#70=EDGE_CURVE('',#57,#56,#18,.T.);
#71=EDGE_CURVE('',#58,#57,#47,.T.);
#72=EDGE_CURVE('',#59,#60,#48,.T.);
#73=EDGE_CURVE('',#60,#59,#49,.T.);
#74=EDGE_CURVE('',#59,#58,#50,.T.);
#75=EDGE_CURVE('',#61,#61,#51,.T.);
#76=EDGE_CURVE('',#61,#60,#19,.T.);
#77=ORIENTED_EDGE('',*,*,#62,.F.);
#78=ORIENTED_EDGE('',*,*,#63,.F.);
#79=ORIENTED_EDGE('',*,*,#64,.T.);
#80=ORIENTED_EDGE('',*,*,#62,.T.);
#81=ORIENTED_EDGE('',*,*,#64,.F.);
#82=ORIENTED_EDGE('',*,*,#65,.F.);
#83=ORIENTED_EDGE('',*,*,#66,.T.);
#84=ORIENTED_EDGE('',*,*,#67,.T.);
#85=ORIENTED_EDGE('',*,*,#68,.T.);
#86=ORIENTED_EDGE('',*,*,#65,.T.);
#87=ORIENTED_EDGE('',*,*,#63,.T.);
#88=ORIENTED_EDGE('',*,*,#68,.F.);
#89=ORIENTED_EDGE('',*,*,#69,.F.);
#90=ORIENTED_EDGE('',*,*,#70,.T.);
#91=ORIENTED_EDGE('',*,*,#66,.F.);
#92=ORIENTED_EDGE('',*,*,#67,.F.);
#93=ORIENTED_EDGE('',*,*,#70,.F.);
#94=ORIENTED_EDGE('',*,*,#71,.F.);
#95=ORIENTED_EDGE('',*,*,#72,.T.);
#96=ORIENTED_EDGE('',*,*,#73,.T.);
#97=ORIENTED_EDGE('',*,*,#74,.T.);
#98=ORIENTED_EDGE('',*,*,#71,.T.);
#99=ORIENTED_EDGE('',*,*,#69,.T.);
#100=ORIENTED_EDGE('',*,*,#74,.F.);
#101=ORIENTED_EDGE('',*,*,#75,.F.);
#102=ORIENTED_EDGE('',*,*,#76,.T.);
#103=ORIENTED_EDGE('',*,*,#72,.F.);
#104=ORIENTED_EDGE('',*,*,#73,.F.);
#105=ORIENTED_EDGE('',*,*,#76,.F.);
#106=ORIENTED_EDGE('',*,*,#75,.T.);
#107=PLANE('',#139);
#108=PLANE('',#157);
#109=ADVANCED_FACE('',(#26),#107,.F.);
#110=ADVANCED_FACE('',(#27),#23,.T.);
#111=ADVANCED_FACE('',(#28),#15,.T.);
#112=ADVANCED_FACE('',(#29),#24,.T.);
#113=ADVANCED_FACE('',(#30),#16,.T.);
#114=ADVANCED_FACE('',(#31),#25,.T.);
#115=ADVANCED_FACE('',(#32),#108,.T.);
#116=CLOSED_SHELL('',(#109,#110,#111,#112,#113,#114,#115));
#117=DERIVED_UNIT_ELEMENT(#120,1.);
#118=DERIVED_UNIT_ELEMENT(#239,-3.);
#119=DIMENSIONAL_EXPONENTS(0.,1.,0.,0.,0.,0.,0.);
#120=(
CONVERSION_BASED_UNIT('gram',#122)
MASS_UNIT()
NAMED_UNIT(#119)
);
#121=(
MASS_UNIT()
NAMED_UNIT(*)
SI_UNIT(.KILO.,.GRAM.)
);
#122=MASS_MEASURE_WITH_UNIT(MASS_MEASURE(0.001),#121);
#123=DERIVED_UNIT((#117,#118));
#124=MEASURE_REPRESENTATION_ITEM('density measure',
POSITIVE_RATIO_MEASURE(1.),#123);
#125=PROPERTY_DEFINITION_REPRESENTATION(#130,#127);
#126=PROPERTY_DEFINITION_REPRESENTATION(#131,#128);
#127=REPRESENTATION('material name',(#129),#236);
#128=REPRESENTATION('density',(#124),#236);
#129=DESCRIPTIVE_REPRESENTATION_ITEM('\X2\C77CBC18\X0\','\X2\C77CBC18\X0\');
#130=PROPERTY_DEFINITION('material property','material name',#246);
#131=PROPERTY_DEFINITION('material property','density of part',#246);
#132=DATE_TIME_ROLE('creation_date');
#133=APPLIED_DATE_AND_TIME_ASSIGNMENT(#134,#132,(#246));
#134=DATE_AND_TIME(#135,#136);
#135=CALENDAR_DATE(2025,5,11);
#136=LOCAL_TIME(0,0,0.,#137);
#137=COORDINATED_UNIVERSAL_TIME_OFFSET(0,0,.BEHIND.);
#138=AXIS2_PLACEMENT_3D('',#201,#158,#159);
#139=AXIS2_PLACEMENT_3D('',#202,#160,#161);
#140=AXIS2_PLACEMENT_3D('',#204,#162,#163);
#141=AXIS2_PLACEMENT_3D('',#205,#164,#165);
#142=AXIS2_PLACEMENT_3D('',#208,#166,#167);
#143=AXIS2_PLACEMENT_3D('',#210,#169,#170);
#144=AXIS2_PLACEMENT_3D('',#211,#171,#172);
#145=AXIS2_PLACEMENT_3D('',#214,#173,#174);
#146=AXIS2_PLACEMENT_3D('',#215,#175,#176);
#147=AXIS2_PLACEMENT_3D('',#216,#177,#178);
#148=AXIS2_PLACEMENT_3D('',#217,#179,#180);
#149=AXIS2_PLACEMENT_3D('',#220,#181,#182);
#150=AXIS2_PLACEMENT_3D('',#222,#184,#185);
#151=AXIS2_PLACEMENT_3D('',#223,#186,#187);
#152=AXIS2_PLACEMENT_3D('',#226,#188,#189);
#153=AXIS2_PLACEMENT_3D('',#227,#190,#191);
#154=AXIS2_PLACEMENT_3D('',#228,#192,#193);
#155=AXIS2_PLACEMENT_3D('',#229,#194,#195);
#156=AXIS2_PLACEMENT_3D('',#231,#196,#197);
#157=AXIS2_PLACEMENT_3D('',#233,#199,#200);
#158=DIRECTION('axis',(0.,0.,1.));
#159=DIRECTION('refdir',(1.,0.,0.));
#160=DIRECTION('center_axis',(2.711709361697E-31,-1.,1.347730459699E-15));
#161=DIRECTION('ref_axis',(-1.836970198721E-16,-1.347730459699E-15,-1.));
#162=DIRECTION('center_axis',(-6.123233995737E-17,-1.,-3.061616997868E-16));
#163=DIRECTION('ref_axis',(-1.,6.123233995737E-17,1.224646799147E-16));
#164=DIRECTION('center_axis',(-6.123233995737E-17,-1.,-3.061616997868E-16));
#165=DIRECTION('ref_axis',(-1.,6.123233995737E-17,1.224646799147E-16));
#166=DIRECTION('center_axis',(-6.123233995737E-17,-1.,-3.061616997868E-16));
#167=DIRECTION('ref_axis',(-1.,6.123233995737E-17,1.224646799147E-16));
#168=DIRECTION('',(6.123233995737E-17,1.,3.061616997868E-16));
#169=DIRECTION('center_axis',(-6.123233995737E-17,-1.,-3.061616997868E-16));
#170=DIRECTION('ref_axis',(-1.,6.123233995737E-17,1.224646799147E-16));
#171=DIRECTION('center_axis',(1.,-6.123233995737E-17,-1.836970198721E-16));
#172=DIRECTION('ref_axis',(0.,-3.19704268058538E-16,1.));
#173=DIRECTION('center_axis',(1.836970198721E-16,-2.02128619923E-15,1.));
#174=DIRECTION('ref_axis',(-6.123233995737E-17,-1.,-2.02128619923E-15));
#175=DIRECTION('center_axis',(1.836970198721E-16,-2.02128619923E-15,1.));
#176=DIRECTION('ref_axis',(-6.123233995737E-17,-1.,-2.02128619923E-15));
#177=DIRECTION('center_axis',(-1.,6.123233995737E-17,1.836970198721E-16));
#178=DIRECTION('ref_axis',(1.836970198721E-16,-1.12481983699642E-32,1.));
#179=DIRECTION('center_axis',(-1.836970198721E-16,3.061616997868E-16,-1.));
#180=DIRECTION('ref_axis',(-1.,1.224646799147E-16,1.836970198721E-16));
#181=DIRECTION('center_axis',(-1.836970198721E-16,3.061616997868E-16,-1.));
#182=DIRECTION('ref_axis',(-1.,1.224646799147E-16,1.836970198721E-16));
#183=DIRECTION('',(1.836970198721E-16,-3.061616997868E-16,1.));
#184=DIRECTION('center_axis',(-1.836970198721E-16,3.061616997868E-16,-1.));
#185=DIRECTION('ref_axis',(-1.,1.224646799147E-16,1.836970198721E-16));
#186=DIRECTION('center_axis',(1.,-6.123233995737E-17,-1.836970198721E-16));
#187=DIRECTION('ref_axis',(0.,-3.19704268058538E-16,1.));
#188=DIRECTION('center_axis',(-6.123233995737E-17,-1.,-1.836970198721E-16));
#189=DIRECTION('ref_axis',(-1.836970198721E-16,1.836970198721E-16,-1.));
#190=DIRECTION('center_axis',(-6.123233995737E-17,-1.,-1.836970198721E-16));
#191=DIRECTION('ref_axis',(-1.836970198721E-16,1.836970198721E-16,-1.));
#192=DIRECTION('center_axis',(-1.,6.123233995737E-17,1.836970198721E-16));
#193=DIRECTION('ref_axis',(1.836970198721E-16,-1.12481983699642E-32,1.));
#194=DIRECTION('center_axis',(6.123233995737E-17,1.,3.061616997868E-16));
#195=DIRECTION('ref_axis',(-1.,6.12323399573699E-17,2.449293598295E-16));
#196=DIRECTION('center_axis',(6.123233995737E-17,1.,3.061616997868E-16));
#197=DIRECTION('ref_axis',(-1.,6.12323399573699E-17,2.449293598295E-16));
#198=DIRECTION('',(-6.123233995737E-17,-1.,-3.061616997868E-16));
#199=DIRECTION('center_axis',(1.224646799147E-16,1.,3.061616997868E-16));
#200=DIRECTION('ref_axis',(1.836970198721E-16,-3.061616997868E-16,1.));
#201=CARTESIAN_POINT('',(0.,0.,0.));
#202=CARTESIAN_POINT('Origin',(418.5539,-1.905,106.8197));
#203=CARTESIAN_POINT('',(423.3164,-1.905,106.8197));
#204=CARTESIAN_POINT('Origin',(418.5539,-1.905,106.8197));
#205=CARTESIAN_POINT('Origin',(418.5539,-1.905,106.8197));
#206=CARTESIAN_POINT('',(423.3164,-23.495,106.8197));
#207=CARTESIAN_POINT('',(418.5539,-23.495,102.0572));
#208=CARTESIAN_POINT('Origin',(418.5539,-23.495,106.8197));
#209=CARTESIAN_POINT('',(423.3164,-1.905,106.8197));
#210=CARTESIAN_POINT('Origin',(418.5539,-23.495,106.8197));
#211=CARTESIAN_POINT('Origin',(418.5539,-23.495,100.4697));
#212=CARTESIAN_POINT('',(418.5539,-25.0825,100.4697));
#213=CARTESIAN_POINT('',(423.3164,-29.845,100.4697));
#214=CARTESIAN_POINT('Origin',(418.5539,-29.845,100.4697));
#215=CARTESIAN_POINT('Origin',(418.5539,-29.845,100.4697));
#216=CARTESIAN_POINT('Origin',(418.5539,-23.495,100.4697));
#217=CARTESIAN_POINT('Origin',(418.5539,-29.845,100.4697));
#218=CARTESIAN_POINT('',(423.3164,-29.845,24.2697));
#219=CARTESIAN_POINT('',(418.5539,-25.0825,24.2697));
#220=CARTESIAN_POINT('Origin',(418.5539,-29.845,24.2697));
#221=CARTESIAN_POINT('',(423.3164,-29.845,100.4697));
#222=CARTESIAN_POINT('Origin',(418.5539,-29.845,24.2697));
#223=CARTESIAN_POINT('Origin',(418.5539,-23.495,24.2697));
#224=CARTESIAN_POINT('',(418.5539,-23.495,22.6822));
#225=CARTESIAN_POINT('',(423.3164,-23.495,17.9197));
#226=CARTESIAN_POINT('Origin',(418.5539,-23.495,17.9197));
#227=CARTESIAN_POINT('Origin',(418.5539,-23.495,17.9197));
#228=CARTESIAN_POINT('Origin',(418.5539,-23.495,24.2697));
#229=CARTESIAN_POINT('Origin',(418.5539,-23.495,17.9197));
#230=CARTESIAN_POINT('',(423.3164,-1.905,17.9197));
#231=CARTESIAN_POINT('Origin',(418.5539,-1.905,17.9197));
#232=CARTESIAN_POINT('',(423.3164,-23.495,17.9197));
#233=CARTESIAN_POINT('Origin',(418.5539,-1.905,17.9197));
#234=UNCERTAINTY_MEASURE_WITH_UNIT(LENGTH_MEASURE(0.01),#238,
'DISTANCE_ACCURACY_VALUE',
'Maximum model space distance between geometric entities at asserted c
onnectivities');
#235=UNCERTAINTY_MEASURE_WITH_UNIT(LENGTH_MEASURE(0.01),#238,
'DISTANCE_ACCURACY_VALUE',
'Maximum model space distance between geometric entities at asserted c
onnectivities');
#236=(
GEOMETRIC_REPRESENTATION_CONTEXT(3)
GLOBAL_UNCERTAINTY_ASSIGNED_CONTEXT((#234))
GLOBAL_UNIT_ASSIGNED_CONTEXT((#238,#240,#241))
REPRESENTATION_CONTEXT('','3D')
);
#237=(
GEOMETRIC_REPRESENTATION_CONTEXT(3)
GLOBAL_UNCERTAINTY_ASSIGNED_CONTEXT((#235))
GLOBAL_UNIT_ASSIGNED_CONTEXT((#238,#240,#241))
REPRESENTATION_CONTEXT('','3D')
);
#238=(
LENGTH_UNIT()
NAMED_UNIT(*)
SI_UNIT(.MILLI.,.METRE.)
);
#239=(
LENGTH_UNIT()
NAMED_UNIT(*)
SI_UNIT(.CENTI.,.METRE.)
);
#240=(
NAMED_UNIT(*)
PLANE_ANGLE_UNIT()
SI_UNIT($,.RADIAN.)
);
#241=(
NAMED_UNIT(*)
SI_UNIT($,.STERADIAN.)
SOLID_ANGLE_UNIT()
);
#242=SHAPE_DEFINITION_REPRESENTATION(#243,#244);
#243=PRODUCT_DEFINITION_SHAPE('',$,#246);
#244=SHAPE_REPRESENTATION('',(#138),#236);
#245=PRODUCT_DEFINITION_CONTEXT('part definition',#250,'design');
#246=PRODUCT_DEFINITION('Medium_Rackmount_Handle_Sweep',
'Medium_Rackmount_Handle_Sweep',#247,#245);
#247=PRODUCT_DEFINITION_FORMATION('',$,#252);
#248=PRODUCT_RELATED_PRODUCT_CATEGORY('Medium_Rackmount_Handle_Sweep',
'Medium_Rackmount_Handle_Sweep',(#252));
#249=APPLICATION_PROTOCOL_DEFINITION('international standard',
'automotive_design',2009,#250);
#250=APPLICATION_CONTEXT(
'Core Data for Automotive Mechanical Design Process');
#251=PRODUCT_CONTEXT('part definition',#250,'mechanical');
#252=PRODUCT('Medium_Rackmount_Handle_Sweep',
'Medium_Rackmount_Handle_Sweep',$,(#251));
#253=PRESENTATION_STYLE_ASSIGNMENT((#255));
#254=PRESENTATION_STYLE_ASSIGNMENT((#256));
#255=SURFACE_STYLE_USAGE(.BOTH.,#261);
#256=SURFACE_STYLE_USAGE(.BOTH.,#262);
#257=SURFACE_STYLE_RENDERING_WITH_PROPERTIES($,#269,(#259));
#258=SURFACE_STYLE_RENDERING_WITH_PROPERTIES($,#270,(#260));
#259=SURFACE_STYLE_TRANSPARENT(0.);
#260=SURFACE_STYLE_TRANSPARENT(0.);
#261=SURFACE_SIDE_STYLE('',(#263,#257));
#262=SURFACE_SIDE_STYLE('',(#264,#258));
#263=SURFACE_STYLE_FILL_AREA(#265);
#264=SURFACE_STYLE_FILL_AREA(#266);
#265=FILL_AREA_STYLE('',(#267));
#266=FILL_AREA_STYLE('',(#268));
#267=FILL_AREA_STYLE_COLOUR('',#269);
#268=FILL_AREA_STYLE_COLOUR('',#270);
#269=COLOUR_RGB('',0.749019607843137,0.749019607843137,0.749019607843137);
#270=COLOUR_RGB('',0.6,0.6,0.6);
ENDSEC;
END-ISO-10303-21;
