ISO-10303-21;
HEADER;
/* Generated by software containing ST-Developer
 * from STEP Tools, Inc. (www.steptools.com) 
 */

FILE_DESCRIPTION(
/* description */ (''),
/* implementation_level */ '2;1');

FILE_NAME(
/* name */ 'Rear.stp',
/* time_stamp */ '2025-11-05T19:47:13-08:00',
/* author */ ('alexi'),
/* organization */ (''),
/* preprocessor_version */ 'ST-DEVELOPER v19.2',
/* originating_system */ 'Autodesk Inventor 2024',
/* authorisation */ '');

FILE_SCHEMA (('AUTOMOTIVE_DESIGN { 1 0 10303 214 3 1 1 }'));
ENDSEC;

DATA;
#10=MECHANICAL_DESIGN_GEOMETRIC_PRESENTATION_REPRESENTATION('',(#13),#1362);
#11=SHAPE_REPRESENTATION_RELATIONSHIP('SRR','None',#1369,#12);
#12=ADVANCED_BREP_SHAPE_REPRESENTATION('',(#14),#1361);
#13=STYLED_ITEM('',(#1379),#14);
#14=MANIFOLD_SOLID_BREP('\X2\C194B9ACB4DC\X0\1',#797);
#15=FACE_BOUND('',#100,.T.);
#16=FACE_BOUND('',#101,.T.);
#17=FACE_BOUND('',#102,.T.);
#18=FACE_BOUND('',#114,.T.);
#19=FACE_BOUND('',#115,.T.);
#20=FACE_BOUND('',#116,.T.);
#21=FACE_BOUND('',#129,.T.);
#22=FACE_BOUND('',#130,.T.);
#23=FACE_BOUND('',#131,.T.);
#24=FACE_BOUND('',#135,.T.);
#25=FACE_BOUND('',#136,.T.);
#26=FACE_BOUND('',#137,.T.);
#27=CYLINDRICAL_SURFACE('',#830,1.27);
#28=CYLINDRICAL_SURFACE('',#833,3.1242);
#29=CYLINDRICAL_SURFACE('',#838,1.905);
#30=CYLINDRICAL_SURFACE('',#840,2.7051);
#31=CYLINDRICAL_SURFACE('',#849,2.7051);
#32=CYLINDRICAL_SURFACE('',#853,2.7051);
#33=CYLINDRICAL_SURFACE('',#856,1.27);
#34=CYLINDRICAL_SURFACE('',#858,1.90499999902845);
#35=CYLINDRICAL_SURFACE('',#861,1.90500000023038);
#36=CYLINDRICAL_SURFACE('',#869,2.4765);
#37=CYLINDRICAL_SURFACE('',#871,2.4765);
#38=CYLINDRICAL_SURFACE('',#877,1.905);
#39=CYLINDRICAL_SURFACE('',#881,1.90499999902845);
#40=CYLINDRICAL_SURFACE('',#884,2.4765);
#41=CYLINDRICAL_SURFACE('',#889,1.90499999902845);
#42=CYLINDRICAL_SURFACE('',#894,3.1242);
#43=CYLINDRICAL_SURFACE('',#898,1.90499999902845);
#44=CYLINDRICAL_SURFACE('',#899,1.90499999902845);
#45=FACE_OUTER_BOUND('',#89,.T.);
#46=FACE_OUTER_BOUND('',#90,.T.);
#47=FACE_OUTER_BOUND('',#91,.T.);
#48=FACE_OUTER_BOUND('',#92,.T.);
#49=FACE_OUTER_BOUND('',#93,.T.);
#50=FACE_OUTER_BOUND('',#94,.T.);
#51=FACE_OUTER_BOUND('',#95,.T.);
#52=FACE_OUTER_BOUND('',#96,.T.);
#53=FACE_OUTER_BOUND('',#97,.T.);
#54=FACE_OUTER_BOUND('',#98,.T.);
#55=FACE_OUTER_BOUND('',#99,.T.);
#56=FACE_OUTER_BOUND('',#103,.T.);
#57=FACE_OUTER_BOUND('',#104,.T.);
#58=FACE_OUTER_BOUND('',#105,.T.);
#59=FACE_OUTER_BOUND('',#106,.T.);
#60=FACE_OUTER_BOUND('',#107,.T.);
#61=FACE_OUTER_BOUND('',#108,.T.);
#62=FACE_OUTER_BOUND('',#109,.T.);
#63=FACE_OUTER_BOUND('',#110,.T.);
#64=FACE_OUTER_BOUND('',#111,.T.);
#65=FACE_OUTER_BOUND('',#112,.T.);
#66=FACE_OUTER_BOUND('',#113,.T.);
#67=FACE_OUTER_BOUND('',#117,.T.);
#68=FACE_OUTER_BOUND('',#118,.T.);
#69=FACE_OUTER_BOUND('',#119,.T.);
#70=FACE_OUTER_BOUND('',#120,.T.);
#71=FACE_OUTER_BOUND('',#121,.T.);
#72=FACE_OUTER_BOUND('',#122,.T.);
#73=FACE_OUTER_BOUND('',#123,.T.);
#74=FACE_OUTER_BOUND('',#124,.T.);
#75=FACE_OUTER_BOUND('',#125,.T.);
#76=FACE_OUTER_BOUND('',#126,.T.);
#77=FACE_OUTER_BOUND('',#127,.T.);
#78=FACE_OUTER_BOUND('',#128,.T.);
#79=FACE_OUTER_BOUND('',#132,.T.);
#80=FACE_OUTER_BOUND('',#133,.T.);
#81=FACE_OUTER_BOUND('',#134,.T.);
#82=FACE_OUTER_BOUND('',#138,.T.);
#83=FACE_OUTER_BOUND('',#139,.T.);
#84=FACE_OUTER_BOUND('',#140,.T.);
#85=FACE_OUTER_BOUND('',#141,.T.);
#86=FACE_OUTER_BOUND('',#142,.T.);
#87=FACE_OUTER_BOUND('',#143,.T.);
#88=FACE_OUTER_BOUND('',#144,.T.);
#89=EDGE_LOOP('',(#507,#508,#509,#510));
#90=EDGE_LOOP('',(#511,#512,#513,#514));
#91=EDGE_LOOP('',(#515,#516,#517,#518));
#92=EDGE_LOOP('',(#519,#520,#521,#522,#523,#524,#525,#526,#527,#528,#529,
#530,#531,#532,#533,#534));
#93=EDGE_LOOP('',(#535,#536,#537,#538));
#94=EDGE_LOOP('',(#539,#540,#541,#542));
#95=EDGE_LOOP('',(#543,#544,#545,#546));
#96=EDGE_LOOP('',(#547,#548,#549,#550));
#97=EDGE_LOOP('',(#551,#552,#553,#554));
#98=EDGE_LOOP('',(#555,#556,#557,#558));
#99=EDGE_LOOP('',(#559,#560,#561,#562,#563,#564));
#100=EDGE_LOOP('',(#565));
#101=EDGE_LOOP('',(#566));
#102=EDGE_LOOP('',(#567));
#103=EDGE_LOOP('',(#568,#569,#570,#571));
#104=EDGE_LOOP('',(#572,#573,#574,#575));
#105=EDGE_LOOP('',(#576,#577,#578,#579));
#106=EDGE_LOOP('',(#580,#581,#582,#583));
#107=EDGE_LOOP('',(#584,#585,#586,#587));
#108=EDGE_LOOP('',(#588,#589,#590,#591));
#109=EDGE_LOOP('',(#592,#593,#594,#595));
#110=EDGE_LOOP('',(#596,#597,#598,#599));
#111=EDGE_LOOP('',(#600,#601,#602,#603));
#112=EDGE_LOOP('',(#604,#605,#606,#607));
#113=EDGE_LOOP('',(#608,#609,#610,#611,#612,#613));
#114=EDGE_LOOP('',(#614));
#115=EDGE_LOOP('',(#615));
#116=EDGE_LOOP('',(#616));
#117=EDGE_LOOP('',(#617,#618,#619,#620));
#118=EDGE_LOOP('',(#621,#622,#623,#624));
#119=EDGE_LOOP('',(#625,#626,#627,#628));
#120=EDGE_LOOP('',(#629,#630,#631,#632));
#121=EDGE_LOOP('',(#633,#634,#635,#636));
#122=EDGE_LOOP('',(#637,#638,#639,#640));
#123=EDGE_LOOP('',(#641,#642,#643,#644));
#124=EDGE_LOOP('',(#645,#646,#647,#648));
#125=EDGE_LOOP('',(#649,#650,#651,#652));
#126=EDGE_LOOP('',(#653,#654,#655,#656));
#127=EDGE_LOOP('',(#657,#658,#659,#660));
#128=EDGE_LOOP('',(#661,#662,#663,#664,#665,#666));
#129=EDGE_LOOP('',(#667));
#130=EDGE_LOOP('',(#668));
#131=EDGE_LOOP('',(#669));
#132=EDGE_LOOP('',(#670,#671,#672,#673));
#133=EDGE_LOOP('',(#674,#675,#676,#677));
#134=EDGE_LOOP('',(#678,#679,#680,#681,#682,#683));
#135=EDGE_LOOP('',(#684));
#136=EDGE_LOOP('',(#685));
#137=EDGE_LOOP('',(#686));
#138=EDGE_LOOP('',(#687,#688,#689,#690));
#139=EDGE_LOOP('',(#691,#692,#693,#694));
#140=EDGE_LOOP('',(#695,#696,#697,#698));
#141=EDGE_LOOP('',(#699,#700,#701,#702));
#142=EDGE_LOOP('',(#703,#704,#705,#706,#707,#708,#709,#710,#711,#712,#713,
#714,#715,#716,#717,#718));
#143=EDGE_LOOP('',(#719,#720,#721,#722));
#144=EDGE_LOOP('',(#723,#724,#725,#726));
#145=LINE('',#1142,#219);
#146=LINE('',#1145,#220);
#147=LINE('',#1149,#221);
#148=LINE('',#1150,#222);
#149=LINE('',#1151,#223);
#150=LINE('',#1155,#224);
#151=LINE('',#1157,#225);
#152=LINE('',#1159,#226);
#153=LINE('',#1160,#227);
#154=LINE('',#1164,#228);
#155=LINE('',#1168,#229);
#156=LINE('',#1170,#230);
#157=LINE('',#1172,#231);
#158=LINE('',#1176,#232);
#159=LINE('',#1179,#233);
#160=LINE('',#1181,#234);
#161=LINE('',#1182,#235);
#162=LINE('',#1184,#236);
#163=LINE('',#1186,#237);
#164=LINE('',#1190,#238);
#165=LINE('',#1192,#239);
#166=LINE('',#1196,#240);
#167=LINE('',#1197,#241);
#168=LINE('',#1203,#242);
#169=LINE('',#1208,#243);
#170=LINE('',#1209,#244);
#171=LINE('',#1212,#245);
#172=LINE('',#1215,#246);
#173=LINE('',#1220,#247);
#174=LINE('',#1224,#248);
#175=LINE('',#1228,#249);
#176=LINE('',#1231,#250);
#177=LINE('',#1237,#251);
#178=LINE('',#1238,#252);
#179=LINE('',#1241,#253);
#180=LINE('',#1245,#254);
#181=LINE('',#1246,#255);
#182=LINE('',#1249,#256);
#183=LINE('',#1251,#257);
#184=LINE('',#1252,#258);
#185=LINE('',#1255,#259);
#186=LINE('',#1259,#260);
#187=LINE('',#1260,#261);
#188=LINE('',#1263,#262);
#189=LINE('',#1267,#263);
#190=LINE('',#1270,#264);
#191=LINE('',#1273,#265);
#192=LINE('',#1275,#266);
#193=LINE('',#1276,#267);
#194=LINE('',#1280,#268);
#195=LINE('',#1284,#269);
#196=LINE('',#1288,#270);
#197=LINE('',#1291,#271);
#198=LINE('',#1292,#272);
#199=LINE('',#1301,#273);
#200=LINE('',#1305,#274);
#201=LINE('',#1308,#275);
#202=LINE('',#1311,#276);
#203=LINE('',#1312,#277);
#204=LINE('',#1315,#278);
#205=LINE('',#1316,#279);
#206=LINE('',#1319,#280);
#207=LINE('',#1320,#281);
#208=LINE('',#1324,#282);
#209=LINE('',#1327,#283);
#210=LINE('',#1329,#284);
#211=LINE('',#1333,#285);
#212=LINE('',#1336,#286);
#213=LINE('',#1339,#287);
#214=LINE('',#1340,#288);
#215=LINE('',#1343,#289);
#216=LINE('',#1348,#290);
#217=LINE('',#1353,#291);
#218=LINE('',#1354,#292);
#219=VECTOR('',#906,10.);
#220=VECTOR('',#909,10.);
#221=VECTOR('',#912,25.4);
#222=VECTOR('',#913,25.4);
#223=VECTOR('',#914,25.4);
#224=VECTOR('',#917,25.4);
#225=VECTOR('',#918,25.4);
#226=VECTOR('',#919,25.4);
#227=VECTOR('',#920,25.4);
#228=VECTOR('',#923,25.4);
#229=VECTOR('',#926,25.4);
#230=VECTOR('',#927,10.);
#231=VECTOR('',#928,25.4);
#232=VECTOR('',#931,25.4);
#233=VECTOR('',#934,25.4);
#234=VECTOR('',#935,25.4);
#235=VECTOR('',#936,25.4);
#236=VECTOR('',#937,25.4);
#237=VECTOR('',#938,25.4);
#238=VECTOR('',#943,25.4);
#239=VECTOR('',#944,25.4);
#240=VECTOR('',#949,25.4);
#241=VECTOR('',#950,25.4);
#242=VECTOR('',#957,25.4);
#243=VECTOR('',#962,10.);
#244=VECTOR('',#963,10.);
#245=VECTOR('',#966,25.4);
#246=VECTOR('',#969,25.4);
#247=VECTOR('',#974,2.7051);
#248=VECTOR('',#979,25.4);
#249=VECTOR('',#982,25.4);
#250=VECTOR('',#985,25.4);
#251=VECTOR('',#992,10.);
#252=VECTOR('',#993,10.);
#253=VECTOR('',#996,2.7051);
#254=VECTOR('',#1001,25.4);
#255=VECTOR('',#1002,25.4);
#256=VECTOR('',#1005,25.4);
#257=VECTOR('',#1006,25.4);
#258=VECTOR('',#1007,25.4);
#259=VECTOR('',#1010,2.7051);
#260=VECTOR('',#1015,25.4);
#261=VECTOR('',#1016,25.4);
#262=VECTOR('',#1019,25.4);
#263=VECTOR('',#1024,25.4);
#264=VECTOR('',#1027,25.4);
#265=VECTOR('',#1030,25.4);
#266=VECTOR('',#1031,25.4);
#267=VECTOR('',#1032,25.4);
#268=VECTOR('',#1035,25.4);
#269=VECTOR('',#1038,25.4);
#270=VECTOR('',#1043,25.4);
#271=VECTOR('',#1046,25.4);
#272=VECTOR('',#1047,25.4);
#273=VECTOR('',#1056,2.4765);
#274=VECTOR('',#1061,2.4765);
#275=VECTOR('',#1066,25.4);
#276=VECTOR('',#1069,25.4);
#277=VECTOR('',#1070,25.4);
#278=VECTOR('',#1073,25.4);
#279=VECTOR('',#1074,25.4);
#280=VECTOR('',#1077,25.4);
#281=VECTOR('',#1078,25.4);
#282=VECTOR('',#1083,10.);
#283=VECTOR('',#1086,10.);
#284=VECTOR('',#1089,10.);
#285=VECTOR('',#1096,25.4);
#286=VECTOR('',#1099,2.4765);
#287=VECTOR('',#1104,25.4);
#288=VECTOR('',#1105,25.4);
#289=VECTOR('',#1110,25.4);
#290=VECTOR('',#1119,25.4);
#291=VECTOR('',#1126,25.4);
#292=VECTOR('',#1127,25.4);
#293=CIRCLE('',#821,1.90500144769286);
#294=CIRCLE('',#822,3.12420000000001);
#295=CIRCLE('',#826,1.90499999902845);
#296=CIRCLE('',#827,1.90499999902845);
#297=CIRCLE('',#828,1.27);
#298=CIRCLE('',#829,1.27);
#299=CIRCLE('',#831,1.27);
#300=CIRCLE('',#834,3.1242000000001);
#301=CIRCLE('',#835,3.12420000000003);
#302=CIRCLE('',#837,1.90500144769286);
#303=CIRCLE('',#839,1.90500144769286);
#304=CIRCLE('',#841,2.7051);
#305=CIRCLE('',#842,2.7051);
#306=CIRCLE('',#844,1.90499999902845);
#307=CIRCLE('',#845,1.90499999902845);
#308=CIRCLE('',#846,2.7051);
#309=CIRCLE('',#847,2.7051);
#310=CIRCLE('',#850,2.7051);
#311=CIRCLE('',#854,2.7051);
#312=CIRCLE('',#857,1.27);
#313=CIRCLE('',#859,1.90499999902845);
#314=CIRCLE('',#862,1.90500000023038);
#315=CIRCLE('',#863,1.90500000023038);
#316=CIRCLE('',#865,1.90499999902845);
#317=CIRCLE('',#866,2.4765);
#318=CIRCLE('',#867,2.4765);
#319=CIRCLE('',#868,2.4765);
#320=CIRCLE('',#870,2.4765);
#321=CIRCLE('',#872,2.4765);
#322=CIRCLE('',#878,1.90500144769286);
#323=CIRCLE('',#880,3.12420000000005);
#324=CIRCLE('',#882,1.90499999902845);
#325=CIRCLE('',#885,2.4765);
#326=CIRCLE('',#887,1.90499999902845);
#327=CIRCLE('',#890,1.90499999902845);
#328=CIRCLE('',#897,1.90499999902845);
#329=VERTEX_POINT('',#1138);
#330=VERTEX_POINT('',#1139);
#331=VERTEX_POINT('',#1141);
#332=VERTEX_POINT('',#1143);
#333=VERTEX_POINT('',#1147);
#334=VERTEX_POINT('',#1148);
#335=VERTEX_POINT('',#1153);
#336=VERTEX_POINT('',#1154);
#337=VERTEX_POINT('',#1156);
#338=VERTEX_POINT('',#1158);
#339=VERTEX_POINT('',#1162);
#340=VERTEX_POINT('',#1163);
#341=VERTEX_POINT('',#1165);
#342=VERTEX_POINT('',#1167);
#343=VERTEX_POINT('',#1169);
#344=VERTEX_POINT('',#1171);
#345=VERTEX_POINT('',#1173);
#346=VERTEX_POINT('',#1175);
#347=VERTEX_POINT('',#1177);
#348=VERTEX_POINT('',#1180);
#349=VERTEX_POINT('',#1183);
#350=VERTEX_POINT('',#1185);
#351=VERTEX_POINT('',#1189);
#352=VERTEX_POINT('',#1191);
#353=VERTEX_POINT('',#1195);
#354=VERTEX_POINT('',#1199);
#355=VERTEX_POINT('',#1201);
#356=VERTEX_POINT('',#1205);
#357=VERTEX_POINT('',#1206);
#358=VERTEX_POINT('',#1211);
#359=VERTEX_POINT('',#1213);
#360=VERTEX_POINT('',#1217);
#361=VERTEX_POINT('',#1219);
#362=VERTEX_POINT('',#1223);
#363=VERTEX_POINT('',#1225);
#364=VERTEX_POINT('',#1227);
#365=VERTEX_POINT('',#1229);
#366=VERTEX_POINT('',#1232);
#367=VERTEX_POINT('',#1234);
#368=VERTEX_POINT('',#1240);
#369=VERTEX_POINT('',#1244);
#370=VERTEX_POINT('',#1248);
#371=VERTEX_POINT('',#1250);
#372=VERTEX_POINT('',#1254);
#373=VERTEX_POINT('',#1258);
#374=VERTEX_POINT('',#1262);
#375=VERTEX_POINT('',#1266);
#376=VERTEX_POINT('',#1268);
#377=VERTEX_POINT('',#1272);
#378=VERTEX_POINT('',#1274);
#379=VERTEX_POINT('',#1278);
#380=VERTEX_POINT('',#1279);
#381=VERTEX_POINT('',#1281);
#382=VERTEX_POINT('',#1283);
#383=VERTEX_POINT('',#1287);
#384=VERTEX_POINT('',#1289);
#385=VERTEX_POINT('',#1293);
#386=VERTEX_POINT('',#1295);
#387=VERTEX_POINT('',#1297);
#388=VERTEX_POINT('',#1300);
#389=VERTEX_POINT('',#1304);
#390=VERTEX_POINT('',#1310);
#391=VERTEX_POINT('',#1314);
#392=VERTEX_POINT('',#1318);
#393=VERTEX_POINT('',#1322);
#394=VERTEX_POINT('',#1326);
#395=VERTEX_POINT('',#1335);
#396=VERTEX_POINT('',#1352);
#397=EDGE_CURVE('',#329,#330,#293,.T.);
#398=EDGE_CURVE('',#331,#330,#145,.T.);
#399=EDGE_CURVE('',#331,#332,#294,.T.);
#400=EDGE_CURVE('',#329,#332,#146,.T.);
#401=EDGE_CURVE('',#333,#334,#147,.T.);
#402=EDGE_CURVE('',#333,#331,#148,.T.);
#403=EDGE_CURVE('',#334,#330,#149,.T.);
#404=EDGE_CURVE('',#335,#336,#150,.T.);
#405=EDGE_CURVE('',#335,#337,#151,.T.);
#406=EDGE_CURVE('',#337,#338,#152,.T.);
#407=EDGE_CURVE('',#336,#338,#153,.T.);
#408=EDGE_CURVE('',#339,#340,#154,.T.);
#409=EDGE_CURVE('',#341,#339,#295,.T.);
#410=EDGE_CURVE('',#342,#341,#155,.T.);
#411=EDGE_CURVE('',#343,#342,#156,.T.);
#412=EDGE_CURVE('',#344,#343,#157,.T.);
#413=EDGE_CURVE('',#345,#344,#296,.T.);
#414=EDGE_CURVE('',#346,#345,#158,.T.);
#415=EDGE_CURVE('',#347,#346,#297,.T.);
#416=EDGE_CURVE('',#337,#347,#159,.T.);
#417=EDGE_CURVE('',#348,#335,#160,.T.);
#418=EDGE_CURVE('',#331,#348,#161,.T.);
#419=EDGE_CURVE('',#349,#333,#162,.T.);
#420=EDGE_CURVE('',#350,#349,#163,.T.);
#421=EDGE_CURVE('',#340,#350,#298,.T.);
#422=EDGE_CURVE('',#347,#351,#164,.T.);
#423=EDGE_CURVE('',#346,#352,#165,.T.);
#424=EDGE_CURVE('',#351,#352,#299,.T.);
#425=EDGE_CURVE('',#345,#353,#166,.T.);
#426=EDGE_CURVE('',#352,#353,#167,.T.);
#427=EDGE_CURVE('',#343,#354,#300,.T.);
#428=EDGE_CURVE('',#342,#355,#301,.T.);
#429=EDGE_CURVE('',#355,#354,#168,.T.);
#430=EDGE_CURVE('',#356,#357,#302,.T.);
#431=EDGE_CURVE('',#343,#357,#169,.T.);
#432=EDGE_CURVE('',#356,#354,#170,.T.);
#433=EDGE_CURVE('',#358,#356,#171,.T.);
#434=EDGE_CURVE('',#358,#359,#303,.T.);
#435=EDGE_CURVE('',#357,#359,#172,.T.);
#436=EDGE_CURVE('',#360,#360,#304,.T.);
#437=EDGE_CURVE('',#360,#361,#173,.T.);
#438=EDGE_CURVE('',#361,#361,#305,.T.);
#439=EDGE_CURVE('',#356,#362,#174,.T.);
#440=EDGE_CURVE('',#362,#363,#306,.T.);
#441=EDGE_CURVE('',#363,#364,#175,.T.);
#442=EDGE_CURVE('',#364,#365,#307,.T.);
#443=EDGE_CURVE('',#365,#358,#176,.T.);
#444=EDGE_CURVE('',#366,#366,#308,.T.);
#445=EDGE_CURVE('',#367,#367,#309,.T.);
#446=EDGE_CURVE('',#355,#358,#177,.T.);
#447=EDGE_CURVE('',#359,#342,#178,.T.);
#448=EDGE_CURVE('',#367,#368,#179,.T.);
#449=EDGE_CURVE('',#368,#368,#310,.T.);
#450=EDGE_CURVE('',#341,#369,#180,.T.);
#451=EDGE_CURVE('',#359,#369,#181,.T.);
#452=EDGE_CURVE('',#339,#370,#182,.T.);
#453=EDGE_CURVE('',#340,#371,#183,.T.);
#454=EDGE_CURVE('',#370,#371,#184,.T.);
#455=EDGE_CURVE('',#366,#372,#185,.T.);
#456=EDGE_CURVE('',#372,#372,#311,.T.);
#457=EDGE_CURVE('',#373,#365,#186,.T.);
#458=EDGE_CURVE('',#373,#355,#187,.T.);
#459=EDGE_CURVE('',#350,#374,#188,.T.);
#460=EDGE_CURVE('',#371,#374,#312,.T.);
#461=EDGE_CURVE('',#375,#362,#189,.T.);
#462=EDGE_CURVE('',#375,#376,#313,.T.);
#463=EDGE_CURVE('',#376,#363,#190,.T.);
#464=EDGE_CURVE('',#332,#377,#191,.T.);
#465=EDGE_CURVE('',#377,#378,#192,.T.);
#466=EDGE_CURVE('',#329,#378,#193,.T.);
#467=EDGE_CURVE('',#379,#380,#194,.T.);
#468=EDGE_CURVE('',#379,#381,#314,.T.);
#469=EDGE_CURVE('',#381,#382,#195,.T.);
#470=EDGE_CURVE('',#380,#382,#315,.T.);
#471=EDGE_CURVE('',#383,#329,#196,.T.);
#472=EDGE_CURVE('',#378,#384,#316,.T.);
#473=EDGE_CURVE('',#384,#380,#197,.T.);
#474=EDGE_CURVE('',#382,#383,#198,.T.);
#475=EDGE_CURVE('',#385,#385,#317,.T.);
#476=EDGE_CURVE('',#386,#386,#318,.T.);
#477=EDGE_CURVE('',#387,#387,#319,.T.);
#478=EDGE_CURVE('',#386,#388,#199,.T.);
#479=EDGE_CURVE('',#388,#388,#320,.T.);
#480=EDGE_CURVE('',#385,#389,#200,.T.);
#481=EDGE_CURVE('',#389,#389,#321,.T.);
#482=EDGE_CURVE('',#354,#375,#201,.T.);
#483=EDGE_CURVE('',#390,#384,#202,.T.);
#484=EDGE_CURVE('',#390,#379,#203,.T.);
#485=EDGE_CURVE('',#349,#391,#204,.T.);
#486=EDGE_CURVE('',#374,#391,#205,.T.);
#487=EDGE_CURVE('',#376,#392,#206,.T.);
#488=EDGE_CURVE('',#392,#364,#207,.T.);
#489=EDGE_CURVE('',#383,#393,#322,.T.);
#490=EDGE_CURVE('',#330,#393,#208,.T.);
#491=EDGE_CURVE('',#394,#383,#209,.T.);
#492=EDGE_CURVE('',#348,#394,#323,.T.);
#493=EDGE_CURVE('',#393,#348,#210,.T.);
#494=EDGE_CURVE('',#392,#373,#324,.T.);
#495=EDGE_CURVE('',#391,#334,#211,.T.);
#496=EDGE_CURVE('',#387,#395,#212,.T.);
#497=EDGE_CURVE('',#395,#395,#325,.T.);
#498=EDGE_CURVE('',#394,#332,#213,.T.);
#499=EDGE_CURVE('',#381,#394,#214,.T.);
#500=EDGE_CURVE('',#377,#390,#326,.T.);
#501=EDGE_CURVE('',#338,#351,#215,.T.);
#502=EDGE_CURVE('',#369,#370,#327,.T.);
#503=EDGE_CURVE('',#393,#336,#216,.T.);
#504=EDGE_CURVE('',#344,#396,#217,.T.);
#505=EDGE_CURVE('',#396,#357,#218,.T.);
#506=EDGE_CURVE('',#353,#396,#328,.T.);
#507=ORIENTED_EDGE('',*,*,#397,.T.);
#508=ORIENTED_EDGE('',*,*,#398,.F.);
#509=ORIENTED_EDGE('',*,*,#399,.T.);
#510=ORIENTED_EDGE('',*,*,#400,.F.);
#511=ORIENTED_EDGE('',*,*,#401,.F.);
#512=ORIENTED_EDGE('',*,*,#402,.T.);
#513=ORIENTED_EDGE('',*,*,#398,.T.);
#514=ORIENTED_EDGE('',*,*,#403,.F.);
#515=ORIENTED_EDGE('',*,*,#404,.F.);
#516=ORIENTED_EDGE('',*,*,#405,.T.);
#517=ORIENTED_EDGE('',*,*,#406,.T.);
#518=ORIENTED_EDGE('',*,*,#407,.F.);
#519=ORIENTED_EDGE('',*,*,#408,.F.);
#520=ORIENTED_EDGE('',*,*,#409,.F.);
#521=ORIENTED_EDGE('',*,*,#410,.F.);
#522=ORIENTED_EDGE('',*,*,#411,.F.);
#523=ORIENTED_EDGE('',*,*,#412,.F.);
#524=ORIENTED_EDGE('',*,*,#413,.F.);
#525=ORIENTED_EDGE('',*,*,#414,.F.);
#526=ORIENTED_EDGE('',*,*,#415,.F.);
#527=ORIENTED_EDGE('',*,*,#416,.F.);
#528=ORIENTED_EDGE('',*,*,#405,.F.);
#529=ORIENTED_EDGE('',*,*,#417,.F.);
#530=ORIENTED_EDGE('',*,*,#418,.F.);
#531=ORIENTED_EDGE('',*,*,#402,.F.);
#532=ORIENTED_EDGE('',*,*,#419,.F.);
#533=ORIENTED_EDGE('',*,*,#420,.F.);
#534=ORIENTED_EDGE('',*,*,#421,.F.);
#535=ORIENTED_EDGE('',*,*,#422,.F.);
#536=ORIENTED_EDGE('',*,*,#415,.T.);
#537=ORIENTED_EDGE('',*,*,#423,.T.);
#538=ORIENTED_EDGE('',*,*,#424,.F.);
#539=ORIENTED_EDGE('',*,*,#423,.F.);
#540=ORIENTED_EDGE('',*,*,#414,.T.);
#541=ORIENTED_EDGE('',*,*,#425,.T.);
#542=ORIENTED_EDGE('',*,*,#426,.F.);
#543=ORIENTED_EDGE('',*,*,#427,.F.);
#544=ORIENTED_EDGE('',*,*,#411,.T.);
#545=ORIENTED_EDGE('',*,*,#428,.T.);
#546=ORIENTED_EDGE('',*,*,#429,.T.);
#547=ORIENTED_EDGE('',*,*,#430,.T.);
#548=ORIENTED_EDGE('',*,*,#431,.F.);
#549=ORIENTED_EDGE('',*,*,#427,.T.);
#550=ORIENTED_EDGE('',*,*,#432,.F.);
#551=ORIENTED_EDGE('',*,*,#430,.F.);
#552=ORIENTED_EDGE('',*,*,#433,.F.);
#553=ORIENTED_EDGE('',*,*,#434,.T.);
#554=ORIENTED_EDGE('',*,*,#435,.F.);
#555=ORIENTED_EDGE('',*,*,#436,.T.);
#556=ORIENTED_EDGE('',*,*,#437,.T.);
#557=ORIENTED_EDGE('',*,*,#438,.F.);
#558=ORIENTED_EDGE('',*,*,#437,.F.);
#559=ORIENTED_EDGE('',*,*,#433,.T.);
#560=ORIENTED_EDGE('',*,*,#439,.T.);
#561=ORIENTED_EDGE('',*,*,#440,.T.);
#562=ORIENTED_EDGE('',*,*,#441,.T.);
#563=ORIENTED_EDGE('',*,*,#442,.T.);
#564=ORIENTED_EDGE('',*,*,#443,.T.);
#565=ORIENTED_EDGE('',*,*,#444,.F.);
#566=ORIENTED_EDGE('',*,*,#436,.F.);
#567=ORIENTED_EDGE('',*,*,#445,.F.);
#568=ORIENTED_EDGE('',*,*,#434,.F.);
#569=ORIENTED_EDGE('',*,*,#446,.F.);
#570=ORIENTED_EDGE('',*,*,#428,.F.);
#571=ORIENTED_EDGE('',*,*,#447,.F.);
#572=ORIENTED_EDGE('',*,*,#445,.T.);
#573=ORIENTED_EDGE('',*,*,#448,.T.);
#574=ORIENTED_EDGE('',*,*,#449,.F.);
#575=ORIENTED_EDGE('',*,*,#448,.F.);
#576=ORIENTED_EDGE('',*,*,#447,.T.);
#577=ORIENTED_EDGE('',*,*,#410,.T.);
#578=ORIENTED_EDGE('',*,*,#450,.T.);
#579=ORIENTED_EDGE('',*,*,#451,.F.);
#580=ORIENTED_EDGE('',*,*,#452,.F.);
#581=ORIENTED_EDGE('',*,*,#408,.T.);
#582=ORIENTED_EDGE('',*,*,#453,.T.);
#583=ORIENTED_EDGE('',*,*,#454,.F.);
#584=ORIENTED_EDGE('',*,*,#444,.T.);
#585=ORIENTED_EDGE('',*,*,#455,.T.);
#586=ORIENTED_EDGE('',*,*,#456,.F.);
#587=ORIENTED_EDGE('',*,*,#455,.F.);
#588=ORIENTED_EDGE('',*,*,#457,.F.);
#589=ORIENTED_EDGE('',*,*,#458,.T.);
#590=ORIENTED_EDGE('',*,*,#446,.T.);
#591=ORIENTED_EDGE('',*,*,#443,.F.);
#592=ORIENTED_EDGE('',*,*,#453,.F.);
#593=ORIENTED_EDGE('',*,*,#421,.T.);
#594=ORIENTED_EDGE('',*,*,#459,.T.);
#595=ORIENTED_EDGE('',*,*,#460,.F.);
#596=ORIENTED_EDGE('',*,*,#461,.F.);
#597=ORIENTED_EDGE('',*,*,#462,.T.);
#598=ORIENTED_EDGE('',*,*,#463,.T.);
#599=ORIENTED_EDGE('',*,*,#440,.F.);
#600=ORIENTED_EDGE('',*,*,#400,.T.);
#601=ORIENTED_EDGE('',*,*,#464,.T.);
#602=ORIENTED_EDGE('',*,*,#465,.T.);
#603=ORIENTED_EDGE('',*,*,#466,.F.);
#604=ORIENTED_EDGE('',*,*,#467,.F.);
#605=ORIENTED_EDGE('',*,*,#468,.T.);
#606=ORIENTED_EDGE('',*,*,#469,.T.);
#607=ORIENTED_EDGE('',*,*,#470,.F.);
#608=ORIENTED_EDGE('',*,*,#471,.T.);
#609=ORIENTED_EDGE('',*,*,#466,.T.);
#610=ORIENTED_EDGE('',*,*,#472,.T.);
#611=ORIENTED_EDGE('',*,*,#473,.T.);
#612=ORIENTED_EDGE('',*,*,#470,.T.);
#613=ORIENTED_EDGE('',*,*,#474,.T.);
#614=ORIENTED_EDGE('',*,*,#475,.F.);
#615=ORIENTED_EDGE('',*,*,#476,.F.);
#616=ORIENTED_EDGE('',*,*,#477,.F.);
#617=ORIENTED_EDGE('',*,*,#476,.T.);
#618=ORIENTED_EDGE('',*,*,#478,.T.);
#619=ORIENTED_EDGE('',*,*,#479,.F.);
#620=ORIENTED_EDGE('',*,*,#478,.F.);
#621=ORIENTED_EDGE('',*,*,#475,.T.);
#622=ORIENTED_EDGE('',*,*,#480,.T.);
#623=ORIENTED_EDGE('',*,*,#481,.F.);
#624=ORIENTED_EDGE('',*,*,#480,.F.);
#625=ORIENTED_EDGE('',*,*,#432,.T.);
#626=ORIENTED_EDGE('',*,*,#482,.T.);
#627=ORIENTED_EDGE('',*,*,#461,.T.);
#628=ORIENTED_EDGE('',*,*,#439,.F.);
#629=ORIENTED_EDGE('',*,*,#483,.F.);
#630=ORIENTED_EDGE('',*,*,#484,.T.);
#631=ORIENTED_EDGE('',*,*,#467,.T.);
#632=ORIENTED_EDGE('',*,*,#473,.F.);
#633=ORIENTED_EDGE('',*,*,#459,.F.);
#634=ORIENTED_EDGE('',*,*,#420,.T.);
#635=ORIENTED_EDGE('',*,*,#485,.T.);
#636=ORIENTED_EDGE('',*,*,#486,.F.);
#637=ORIENTED_EDGE('',*,*,#463,.F.);
#638=ORIENTED_EDGE('',*,*,#487,.T.);
#639=ORIENTED_EDGE('',*,*,#488,.T.);
#640=ORIENTED_EDGE('',*,*,#441,.F.);
#641=ORIENTED_EDGE('',*,*,#397,.F.);
#642=ORIENTED_EDGE('',*,*,#471,.F.);
#643=ORIENTED_EDGE('',*,*,#489,.T.);
#644=ORIENTED_EDGE('',*,*,#490,.F.);
#645=ORIENTED_EDGE('',*,*,#489,.F.);
#646=ORIENTED_EDGE('',*,*,#491,.F.);
#647=ORIENTED_EDGE('',*,*,#492,.F.);
#648=ORIENTED_EDGE('',*,*,#493,.F.);
#649=ORIENTED_EDGE('',*,*,#488,.F.);
#650=ORIENTED_EDGE('',*,*,#494,.T.);
#651=ORIENTED_EDGE('',*,*,#457,.T.);
#652=ORIENTED_EDGE('',*,*,#442,.F.);
#653=ORIENTED_EDGE('',*,*,#485,.F.);
#654=ORIENTED_EDGE('',*,*,#419,.T.);
#655=ORIENTED_EDGE('',*,*,#401,.T.);
#656=ORIENTED_EDGE('',*,*,#495,.F.);
#657=ORIENTED_EDGE('',*,*,#477,.T.);
#658=ORIENTED_EDGE('',*,*,#496,.T.);
#659=ORIENTED_EDGE('',*,*,#497,.F.);
#660=ORIENTED_EDGE('',*,*,#496,.F.);
#661=ORIENTED_EDGE('',*,*,#498,.F.);
#662=ORIENTED_EDGE('',*,*,#499,.F.);
#663=ORIENTED_EDGE('',*,*,#468,.F.);
#664=ORIENTED_EDGE('',*,*,#484,.F.);
#665=ORIENTED_EDGE('',*,*,#500,.F.);
#666=ORIENTED_EDGE('',*,*,#464,.F.);
#667=ORIENTED_EDGE('',*,*,#481,.T.);
#668=ORIENTED_EDGE('',*,*,#479,.T.);
#669=ORIENTED_EDGE('',*,*,#497,.T.);
#670=ORIENTED_EDGE('',*,*,#406,.F.);
#671=ORIENTED_EDGE('',*,*,#416,.T.);
#672=ORIENTED_EDGE('',*,*,#422,.T.);
#673=ORIENTED_EDGE('',*,*,#501,.F.);
#674=ORIENTED_EDGE('',*,*,#450,.F.);
#675=ORIENTED_EDGE('',*,*,#409,.T.);
#676=ORIENTED_EDGE('',*,*,#452,.T.);
#677=ORIENTED_EDGE('',*,*,#502,.F.);
#678=ORIENTED_EDGE('',*,*,#429,.F.);
#679=ORIENTED_EDGE('',*,*,#458,.F.);
#680=ORIENTED_EDGE('',*,*,#494,.F.);
#681=ORIENTED_EDGE('',*,*,#487,.F.);
#682=ORIENTED_EDGE('',*,*,#462,.F.);
#683=ORIENTED_EDGE('',*,*,#482,.F.);
#684=ORIENTED_EDGE('',*,*,#456,.T.);
#685=ORIENTED_EDGE('',*,*,#438,.T.);
#686=ORIENTED_EDGE('',*,*,#449,.T.);
#687=ORIENTED_EDGE('',*,*,#493,.T.);
#688=ORIENTED_EDGE('',*,*,#417,.T.);
#689=ORIENTED_EDGE('',*,*,#404,.T.);
#690=ORIENTED_EDGE('',*,*,#503,.F.);
#691=ORIENTED_EDGE('',*,*,#469,.F.);
#692=ORIENTED_EDGE('',*,*,#499,.T.);
#693=ORIENTED_EDGE('',*,*,#491,.T.);
#694=ORIENTED_EDGE('',*,*,#474,.F.);
#695=ORIENTED_EDGE('',*,*,#399,.F.);
#696=ORIENTED_EDGE('',*,*,#418,.T.);
#697=ORIENTED_EDGE('',*,*,#492,.T.);
#698=ORIENTED_EDGE('',*,*,#498,.T.);
#699=ORIENTED_EDGE('',*,*,#504,.F.);
#700=ORIENTED_EDGE('',*,*,#412,.T.);
#701=ORIENTED_EDGE('',*,*,#431,.T.);
#702=ORIENTED_EDGE('',*,*,#505,.F.);
#703=ORIENTED_EDGE('',*,*,#454,.T.);
#704=ORIENTED_EDGE('',*,*,#460,.T.);
#705=ORIENTED_EDGE('',*,*,#486,.T.);
#706=ORIENTED_EDGE('',*,*,#495,.T.);
#707=ORIENTED_EDGE('',*,*,#403,.T.);
#708=ORIENTED_EDGE('',*,*,#490,.T.);
#709=ORIENTED_EDGE('',*,*,#503,.T.);
#710=ORIENTED_EDGE('',*,*,#407,.T.);
#711=ORIENTED_EDGE('',*,*,#501,.T.);
#712=ORIENTED_EDGE('',*,*,#424,.T.);
#713=ORIENTED_EDGE('',*,*,#426,.T.);
#714=ORIENTED_EDGE('',*,*,#506,.T.);
#715=ORIENTED_EDGE('',*,*,#505,.T.);
#716=ORIENTED_EDGE('',*,*,#435,.T.);
#717=ORIENTED_EDGE('',*,*,#451,.T.);
#718=ORIENTED_EDGE('',*,*,#502,.T.);
#719=ORIENTED_EDGE('',*,*,#425,.F.);
#720=ORIENTED_EDGE('',*,*,#413,.T.);
#721=ORIENTED_EDGE('',*,*,#504,.T.);
#722=ORIENTED_EDGE('',*,*,#506,.F.);
#723=ORIENTED_EDGE('',*,*,#465,.F.);
#724=ORIENTED_EDGE('',*,*,#500,.T.);
#725=ORIENTED_EDGE('',*,*,#483,.T.);
#726=ORIENTED_EDGE('',*,*,#472,.F.);
#727=PLANE('',#820);
#728=PLANE('',#823);
#729=PLANE('',#824);
#730=PLANE('',#825);
#731=PLANE('',#832);
#732=PLANE('',#836);
#733=PLANE('',#843);
#734=PLANE('',#848);
#735=PLANE('',#851);
#736=PLANE('',#852);
#737=PLANE('',#855);
#738=PLANE('',#860);
#739=PLANE('',#864);
#740=PLANE('',#873);
#741=PLANE('',#874);
#742=PLANE('',#875);
#743=PLANE('',#876);
#744=PLANE('',#879);
#745=PLANE('',#883);
#746=PLANE('',#886);
#747=PLANE('',#888);
#748=PLANE('',#891);
#749=PLANE('',#892);
#750=PLANE('',#893);
#751=PLANE('',#895);
#752=PLANE('',#896);
#753=ADVANCED_FACE('',(#45),#727,.T.);
#754=ADVANCED_FACE('',(#46),#728,.F.);
#755=ADVANCED_FACE('',(#47),#729,.F.);
#756=ADVANCED_FACE('',(#48),#730,.F.);
#757=ADVANCED_FACE('',(#49),#27,.T.);
#758=ADVANCED_FACE('',(#50),#731,.F.);
#759=ADVANCED_FACE('',(#51),#28,.T.);
#760=ADVANCED_FACE('',(#52),#732,.T.);
#761=ADVANCED_FACE('',(#53),#29,.F.);
#762=ADVANCED_FACE('',(#54),#30,.F.);
#763=ADVANCED_FACE('',(#55,#15,#16,#17),#733,.T.);
#764=ADVANCED_FACE('',(#56),#734,.F.);
#765=ADVANCED_FACE('',(#57),#31,.F.);
#766=ADVANCED_FACE('',(#58),#735,.F.);
#767=ADVANCED_FACE('',(#59),#736,.F.);
#768=ADVANCED_FACE('',(#60),#32,.F.);
#769=ADVANCED_FACE('',(#61),#737,.F.);
#770=ADVANCED_FACE('',(#62),#33,.T.);
#771=ADVANCED_FACE('',(#63),#34,.T.);
#772=ADVANCED_FACE('',(#64),#738,.F.);
#773=ADVANCED_FACE('',(#65),#35,.T.);
#774=ADVANCED_FACE('',(#66,#18,#19,#20),#739,.T.);
#775=ADVANCED_FACE('',(#67),#36,.F.);
#776=ADVANCED_FACE('',(#68),#37,.F.);
#777=ADVANCED_FACE('',(#69),#740,.F.);
#778=ADVANCED_FACE('',(#70),#741,.F.);
#779=ADVANCED_FACE('',(#71),#742,.F.);
#780=ADVANCED_FACE('',(#72),#743,.F.);
#781=ADVANCED_FACE('',(#73),#38,.F.);
#782=ADVANCED_FACE('',(#74),#744,.F.);
#783=ADVANCED_FACE('',(#75),#39,.T.);
#784=ADVANCED_FACE('',(#76),#745,.F.);
#785=ADVANCED_FACE('',(#77),#40,.F.);
#786=ADVANCED_FACE('',(#78,#21,#22,#23),#746,.F.);
#787=ADVANCED_FACE('',(#79),#747,.F.);
#788=ADVANCED_FACE('',(#80),#41,.T.);
#789=ADVANCED_FACE('',(#81,#24,#25,#26),#748,.F.);
#790=ADVANCED_FACE('',(#82),#749,.F.);
#791=ADVANCED_FACE('',(#83),#750,.F.);
#792=ADVANCED_FACE('',(#84),#42,.T.);
#793=ADVANCED_FACE('',(#85),#751,.F.);
#794=ADVANCED_FACE('',(#86),#752,.T.);
#795=ADVANCED_FACE('',(#87),#43,.T.);
#796=ADVANCED_FACE('',(#88),#44,.T.);
#797=CLOSED_SHELL('',(#753,#754,#755,#756,#757,#758,#759,#760,#761,#762,
#763,#764,#765,#766,#767,#768,#769,#770,#771,#772,#773,#774,#775,#776,#777,
#778,#779,#780,#781,#782,#783,#784,#785,#786,#787,#788,#789,#790,#791,#792,
#793,#794,#795,#796));
#798=DERIVED_UNIT_ELEMENT(#801,1.);
#799=DERIVED_UNIT_ELEMENT(#1364,-3.);
#800=DIMENSIONAL_EXPONENTS(0.,1.,0.,0.,0.,0.,0.);
#801=(
CONVERSION_BASED_UNIT('gram',#803)
MASS_UNIT()
NAMED_UNIT(#800)
);
#802=(
MASS_UNIT()
NAMED_UNIT(*)
SI_UNIT(.KILO.,.GRAM.)
);
#803=MASS_MEASURE_WITH_UNIT(MASS_MEASURE(0.001),#802);
#804=DERIVED_UNIT((#798,#799));
#805=MEASURE_REPRESENTATION_ITEM('density measure',
POSITIVE_RATIO_MEASURE(1.),#804);
#806=PROPERTY_DEFINITION_REPRESENTATION(#811,#808);
#807=PROPERTY_DEFINITION_REPRESENTATION(#812,#809);
#808=REPRESENTATION('material name',(#810),#1361);
#809=REPRESENTATION('density',(#805),#1361);
#810=DESCRIPTIVE_REPRESENTATION_ITEM('\X2\C77CBC18\X0\','\X2\C77CBC18\X0\');
#811=PROPERTY_DEFINITION('material property','material name',#1371);
#812=PROPERTY_DEFINITION('material property','density of part',#1371);
#813=DATE_TIME_ROLE('creation_date');
#814=APPLIED_DATE_AND_TIME_ASSIGNMENT(#815,#813,(#1371));
#815=DATE_AND_TIME(#816,#817);
#816=CALENDAR_DATE(2025,5,11);
#817=LOCAL_TIME(0,0,0.,#818);
#818=COORDINATED_UNIVERSAL_TIME_OFFSET(0,0,.BEHIND.);
#819=AXIS2_PLACEMENT_3D('',#1136,#900,#901);
#820=AXIS2_PLACEMENT_3D('',#1137,#902,#903);
#821=AXIS2_PLACEMENT_3D('',#1140,#904,#905);
#822=AXIS2_PLACEMENT_3D('',#1144,#907,#908);
#823=AXIS2_PLACEMENT_3D('',#1146,#910,#911);
#824=AXIS2_PLACEMENT_3D('',#1152,#915,#916);
#825=AXIS2_PLACEMENT_3D('',#1161,#921,#922);
#826=AXIS2_PLACEMENT_3D('',#1166,#924,#925);
#827=AXIS2_PLACEMENT_3D('',#1174,#929,#930);
#828=AXIS2_PLACEMENT_3D('',#1178,#932,#933);
#829=AXIS2_PLACEMENT_3D('',#1187,#939,#940);
#830=AXIS2_PLACEMENT_3D('',#1188,#941,#942);
#831=AXIS2_PLACEMENT_3D('',#1193,#945,#946);
#832=AXIS2_PLACEMENT_3D('',#1194,#947,#948);
#833=AXIS2_PLACEMENT_3D('',#1198,#951,#952);
#834=AXIS2_PLACEMENT_3D('',#1200,#953,#954);
#835=AXIS2_PLACEMENT_3D('',#1202,#955,#956);
#836=AXIS2_PLACEMENT_3D('',#1204,#958,#959);
#837=AXIS2_PLACEMENT_3D('',#1207,#960,#961);
#838=AXIS2_PLACEMENT_3D('',#1210,#964,#965);
#839=AXIS2_PLACEMENT_3D('',#1214,#967,#968);
#840=AXIS2_PLACEMENT_3D('',#1216,#970,#971);
#841=AXIS2_PLACEMENT_3D('',#1218,#972,#973);
#842=AXIS2_PLACEMENT_3D('',#1221,#975,#976);
#843=AXIS2_PLACEMENT_3D('',#1222,#977,#978);
#844=AXIS2_PLACEMENT_3D('',#1226,#980,#981);
#845=AXIS2_PLACEMENT_3D('',#1230,#983,#984);
#846=AXIS2_PLACEMENT_3D('',#1233,#986,#987);
#847=AXIS2_PLACEMENT_3D('',#1235,#988,#989);
#848=AXIS2_PLACEMENT_3D('',#1236,#990,#991);
#849=AXIS2_PLACEMENT_3D('',#1239,#994,#995);
#850=AXIS2_PLACEMENT_3D('',#1242,#997,#998);
#851=AXIS2_PLACEMENT_3D('',#1243,#999,#1000);
#852=AXIS2_PLACEMENT_3D('',#1247,#1003,#1004);
#853=AXIS2_PLACEMENT_3D('',#1253,#1008,#1009);
#854=AXIS2_PLACEMENT_3D('',#1256,#1011,#1012);
#855=AXIS2_PLACEMENT_3D('',#1257,#1013,#1014);
#856=AXIS2_PLACEMENT_3D('',#1261,#1017,#1018);
#857=AXIS2_PLACEMENT_3D('',#1264,#1020,#1021);
#858=AXIS2_PLACEMENT_3D('',#1265,#1022,#1023);
#859=AXIS2_PLACEMENT_3D('',#1269,#1025,#1026);
#860=AXIS2_PLACEMENT_3D('',#1271,#1028,#1029);
#861=AXIS2_PLACEMENT_3D('',#1277,#1033,#1034);
#862=AXIS2_PLACEMENT_3D('',#1282,#1036,#1037);
#863=AXIS2_PLACEMENT_3D('',#1285,#1039,#1040);
#864=AXIS2_PLACEMENT_3D('',#1286,#1041,#1042);
#865=AXIS2_PLACEMENT_3D('',#1290,#1044,#1045);
#866=AXIS2_PLACEMENT_3D('',#1294,#1048,#1049);
#867=AXIS2_PLACEMENT_3D('',#1296,#1050,#1051);
#868=AXIS2_PLACEMENT_3D('',#1298,#1052,#1053);
#869=AXIS2_PLACEMENT_3D('',#1299,#1054,#1055);
#870=AXIS2_PLACEMENT_3D('',#1302,#1057,#1058);
#871=AXIS2_PLACEMENT_3D('',#1303,#1059,#1060);
#872=AXIS2_PLACEMENT_3D('',#1306,#1062,#1063);
#873=AXIS2_PLACEMENT_3D('',#1307,#1064,#1065);
#874=AXIS2_PLACEMENT_3D('',#1309,#1067,#1068);
#875=AXIS2_PLACEMENT_3D('',#1313,#1071,#1072);
#876=AXIS2_PLACEMENT_3D('',#1317,#1075,#1076);
#877=AXIS2_PLACEMENT_3D('',#1321,#1079,#1080);
#878=AXIS2_PLACEMENT_3D('',#1323,#1081,#1082);
#879=AXIS2_PLACEMENT_3D('',#1325,#1084,#1085);
#880=AXIS2_PLACEMENT_3D('',#1328,#1087,#1088);
#881=AXIS2_PLACEMENT_3D('',#1330,#1090,#1091);
#882=AXIS2_PLACEMENT_3D('',#1331,#1092,#1093);
#883=AXIS2_PLACEMENT_3D('',#1332,#1094,#1095);
#884=AXIS2_PLACEMENT_3D('',#1334,#1097,#1098);
#885=AXIS2_PLACEMENT_3D('',#1337,#1100,#1101);
#886=AXIS2_PLACEMENT_3D('',#1338,#1102,#1103);
#887=AXIS2_PLACEMENT_3D('',#1341,#1106,#1107);
#888=AXIS2_PLACEMENT_3D('',#1342,#1108,#1109);
#889=AXIS2_PLACEMENT_3D('',#1344,#1111,#1112);
#890=AXIS2_PLACEMENT_3D('',#1345,#1113,#1114);
#891=AXIS2_PLACEMENT_3D('',#1346,#1115,#1116);
#892=AXIS2_PLACEMENT_3D('',#1347,#1117,#1118);
#893=AXIS2_PLACEMENT_3D('',#1349,#1120,#1121);
#894=AXIS2_PLACEMENT_3D('',#1350,#1122,#1123);
#895=AXIS2_PLACEMENT_3D('',#1351,#1124,#1125);
#896=AXIS2_PLACEMENT_3D('',#1355,#1128,#1129);
#897=AXIS2_PLACEMENT_3D('',#1356,#1130,#1131);
#898=AXIS2_PLACEMENT_3D('',#1357,#1132,#1133);
#899=AXIS2_PLACEMENT_3D('',#1358,#1134,#1135);
#900=DIRECTION('axis',(0.,0.,1.));
#901=DIRECTION('refdir',(1.,0.,0.));
#902=DIRECTION('center_axis',(-1.,0.,0.));
#903=DIRECTION('ref_axis',(0.,0.,1.));
#904=DIRECTION('center_axis',(1.,0.,0.));
#905=DIRECTION('ref_axis',(0.,0.999999999999711,-7.5994288730634E-7));
#906=DIRECTION('',(0.,-1.,0.));
#907=DIRECTION('center_axis',(-1.,0.,0.));
#908=DIRECTION('ref_axis',(0.,-2.27431898009122E-14,-1.));
#909=DIRECTION('',(0.,0.,-1.));
#910=DIRECTION('center_axis',(1.,-1.224646799147E-16,1.224646799147E-16));
#911=DIRECTION('ref_axis',(1.224646799147E-16,-6.123233995737E-17,-1.));
#912=DIRECTION('',(-1.224646799147E-16,-1.,6.123233995737E-17));
#913=DIRECTION('',(1.224646799147E-16,-6.123233995737E-17,-1.));
#914=DIRECTION('',(1.224646799147E-16,-6.123233995737E-17,-1.));
#915=DIRECTION('center_axis',(-1.224646799147E-16,6.123233995737E-17,1.));
#916=DIRECTION('ref_axis',(1.,-1.224646799147E-16,1.224646799147E-16));
#917=DIRECTION('',(-1.224646799147E-16,-1.,6.123233995737E-17));
#918=DIRECTION('',(1.,-1.224646799147E-16,1.224646799147E-16));
#919=DIRECTION('',(-1.224646799147E-16,-1.,6.123233995737E-17));
#920=DIRECTION('',(1.,-1.224646799147E-16,1.224646799147E-16));
#921=DIRECTION('center_axis',(-1.224646799147E-16,-1.,6.123233995737E-17));
#922=DIRECTION('ref_axis',(1.,-1.224646799147E-16,1.224646799147E-16));
#923=DIRECTION('',(1.,-1.224646799147E-16,1.224646799147E-16));
#924=DIRECTION('center_axis',(-1.224646799147E-16,-1.,6.123233995737E-17));
#925=DIRECTION('ref_axis',(1.,-1.224646799147E-16,1.224646799147E-16));
#926=DIRECTION('',(1.224646799147E-16,-6.123233995737E-17,-1.));
#927=DIRECTION('',(-1.,0.,0.));
#928=DIRECTION('',(-1.224646799147E-16,6.123233995737E-17,1.));
#929=DIRECTION('center_axis',(-1.224646799147E-16,-1.,6.123233995737E-17));
#930=DIRECTION('ref_axis',(1.,-1.224646799147E-16,1.224646799147E-16));
#931=DIRECTION('',(1.,-1.224646799147E-16,1.224646799147E-16));
#932=DIRECTION('center_axis',(-1.224646799147E-16,-1.,6.123233995737E-17));
#933=DIRECTION('ref_axis',(1.,-1.224646799147E-16,1.224646799147E-16));
#934=DIRECTION('',(1.224646799147E-16,-6.123233995737E-17,-1.));
#935=DIRECTION('',(-1.224646799147E-16,6.123233995737E-17,1.));
#936=DIRECTION('',(1.,-1.224646799147E-16,1.224646799147E-16));
#937=DIRECTION('',(1.,-1.224646799147E-16,1.224646799147E-16));
#938=DIRECTION('',(-1.224646799147E-16,6.123233995737E-17,1.));
#939=DIRECTION('center_axis',(-1.224646799147E-16,-1.,6.123233995737E-17));
#940=DIRECTION('ref_axis',(1.,-1.224646799147E-16,1.224646799147E-16));
#941=DIRECTION('center_axis',(1.224646799147E-16,1.,-6.123233995737E-17));
#942=DIRECTION('ref_axis',(1.,-1.224646799147E-16,1.224646799147E-16));
#943=DIRECTION('',(-1.224646799147E-16,-1.,6.123233995737E-17));
#944=DIRECTION('',(-1.224646799147E-16,-1.,6.123233995737E-17));
#945=DIRECTION('center_axis',(-1.224646799147E-16,-1.,6.123233995737E-17));
#946=DIRECTION('ref_axis',(1.,-1.224646799147E-16,1.224646799147E-16));
#947=DIRECTION('center_axis',(-1.224646799147E-16,6.123233995737E-17,1.));
#948=DIRECTION('ref_axis',(1.,-1.224646799147E-16,1.224646799147E-16));
#949=DIRECTION('',(-1.224646799147E-16,-1.,6.123233995737E-17));
#950=DIRECTION('',(1.,-1.224646799147E-16,1.224646799147E-16));
#951=DIRECTION('center_axis',(1.,-1.224646799147E-16,1.224646799147E-16));
#952=DIRECTION('ref_axis',(-1.224646799147E-16,-1.,6.123233995737E-17));
#953=DIRECTION('center_axis',(1.,7.76501070699166E-14,3.21637274680978E-14));
#954=DIRECTION('ref_axis',(-2.27431898009115E-14,4.5486379601823E-14,1.));
#955=DIRECTION('center_axis',(1.,-8.88405851598319E-17,8.88405851598124E-17));
#956=DIRECTION('ref_axis',(-8.88405851598126E-17,0.,1.));
#957=DIRECTION('',(1.,-1.224646799147E-16,1.224646799147E-16));
#958=DIRECTION('center_axis',(1.,-1.88891648250534E-13,1.88891648249858E-13));
#959=DIRECTION('ref_axis',(1.88891648249858E-13,0.,-1.));
#960=DIRECTION('center_axis',(-1.,0.,0.));
#961=DIRECTION('ref_axis',(0.,0.999999999999711,7.59942884392371E-7));
#962=DIRECTION('',(0.,-1.,0.));
#963=DIRECTION('',(0.,0.,1.));
#964=DIRECTION('center_axis',(1.,-1.224646799147E-16,1.224646799147E-16));
#965=DIRECTION('ref_axis',(-1.224646799147E-16,-1.,6.123233995737E-17));
#966=DIRECTION('',(1.,-1.224646799147E-16,1.224646799147E-16));
#967=DIRECTION('center_axis',(-1.,0.,0.));
#968=DIRECTION('ref_axis',(0.,0.999999999999711,7.59942884392371E-7));
#969=DIRECTION('',(-1.,1.224646799147E-16,-1.224646799147E-16));
#970=DIRECTION('center_axis',(-1.224646799147E-16,1.224646799147E-16,1.));
#971=DIRECTION('ref_axis',(1.,-1.224646799147E-16,1.224646799147E-16));
#972=DIRECTION('center_axis',(1.224646799147E-16,-1.224646799147E-16,-1.));
#973=DIRECTION('ref_axis',(1.,-1.224646799147E-16,1.224646799147E-16));
#974=DIRECTION('',(-1.224646799147E-16,1.224646799147E-16,1.));
#975=DIRECTION('center_axis',(1.224646799147E-16,-1.224646799147E-16,-1.));
#976=DIRECTION('ref_axis',(1.,-1.224646799147E-16,1.224646799147E-16));
#977=DIRECTION('center_axis',(1.224646799147E-16,-1.224646799147E-16,-1.));
#978=DIRECTION('ref_axis',(1.,-1.224646799147E-16,1.224646799147E-16));
#979=DIRECTION('',(-1.224646799147E-16,-1.,1.224646799147E-16));
#980=DIRECTION('center_axis',(1.224646799147E-16,-1.224646799147E-16,-1.));
#981=DIRECTION('ref_axis',(1.,-1.224646799147E-16,1.224646799147E-16));
#982=DIRECTION('',(-1.,1.224646799147E-16,-1.224646799147E-16));
#983=DIRECTION('center_axis',(1.224646799147E-16,-1.224646799147E-16,-1.));
#984=DIRECTION('ref_axis',(1.,-1.224646799147E-16,1.224646799147E-16));
#985=DIRECTION('',(1.224646799147E-16,1.,-1.224646799147E-16));
#986=DIRECTION('center_axis',(1.224646799147E-16,-1.224646799147E-16,-1.));
#987=DIRECTION('ref_axis',(1.,-1.224646799147E-16,1.224646799147E-16));
#988=DIRECTION('center_axis',(1.224646799147E-16,-1.224646799147E-16,-1.));
#989=DIRECTION('ref_axis',(1.,-1.224646799147E-16,1.224646799147E-16));
#990=DIRECTION('center_axis',(1.,0.,0.));
#991=DIRECTION('ref_axis',(0.,0.,-1.));
#992=DIRECTION('',(0.,0.,-1.));
#993=DIRECTION('',(0.,1.,0.));
#994=DIRECTION('center_axis',(-1.224646799147E-16,1.224646799147E-16,1.));
#995=DIRECTION('ref_axis',(1.,-1.224646799147E-16,1.224646799147E-16));
#996=DIRECTION('',(-1.224646799147E-16,1.224646799147E-16,1.));
#997=DIRECTION('center_axis',(1.224646799147E-16,-1.224646799147E-16,-1.));
#998=DIRECTION('ref_axis',(1.,-1.224646799147E-16,1.224646799147E-16));
#999=DIRECTION('center_axis',(1.,-1.224646799147E-16,1.224646799147E-16));
#1000=DIRECTION('ref_axis',(1.224646799147E-16,-6.123233995737E-17,-1.));
#1001=DIRECTION('',(-1.224646799147E-16,-1.,6.123233995737E-17));
#1002=DIRECTION('',(1.224646799147E-16,-6.123233995737E-17,-1.));
#1003=DIRECTION('center_axis',(-1.224646799147E-16,6.123233995737E-17,1.));
#1004=DIRECTION('ref_axis',(1.,-1.224646799147E-16,1.224646799147E-16));
#1005=DIRECTION('',(-1.224646799147E-16,-1.,6.123233995737E-17));
#1006=DIRECTION('',(-1.224646799147E-16,-1.,6.123233995737E-17));
#1007=DIRECTION('',(1.,-1.224646799147E-16,1.224646799147E-16));
#1008=DIRECTION('center_axis',(-1.224646799147E-16,1.224646799147E-16,1.));
#1009=DIRECTION('ref_axis',(1.,-1.224646799147E-16,1.224646799147E-16));
#1010=DIRECTION('',(-1.224646799147E-16,1.224646799147E-16,1.));
#1011=DIRECTION('center_axis',(1.224646799147E-16,-1.224646799147E-16,-1.));
#1012=DIRECTION('ref_axis',(1.,-1.224646799147E-16,1.224646799147E-16));
#1013=DIRECTION('center_axis',(1.,-1.224646799147E-16,1.224646799147E-16));
#1014=DIRECTION('ref_axis',(1.224646799147E-16,1.,-1.224646799147E-16));
#1015=DIRECTION('',(1.224646799147E-16,-1.224646799147E-16,-1.));
#1016=DIRECTION('',(1.224646799147E-16,1.,-1.224646799147E-16));
#1017=DIRECTION('center_axis',(1.224646799147E-16,1.,-6.123233995737E-17));
#1018=DIRECTION('ref_axis',(1.,-1.224646799147E-16,1.224646799147E-16));
#1019=DIRECTION('',(-1.224646799147E-16,-1.,6.123233995737E-17));
#1020=DIRECTION('center_axis',(-1.224646799147E-16,-1.,6.123233995737E-17));
#1021=DIRECTION('ref_axis',(1.,-1.224646799147E-16,1.224646799147E-16));
#1022=DIRECTION('center_axis',(-1.224646799147E-16,1.224646799147E-16,1.));
#1023=DIRECTION('ref_axis',(1.,-1.224646799147E-16,1.224646799147E-16));
#1024=DIRECTION('',(1.224646799147E-16,-1.224646799147E-16,-1.));
#1025=DIRECTION('center_axis',(1.224646799147E-16,-1.224646799147E-16,-1.));
#1026=DIRECTION('ref_axis',(1.,-1.224646799147E-16,1.224646799147E-16));
#1027=DIRECTION('',(1.224646799147E-16,-1.224646799147E-16,-1.));
#1028=DIRECTION('center_axis',(1.,-1.224646799147E-16,0.));
#1029=DIRECTION('ref_axis',(-1.224646799147E-16,-1.,0.));
#1030=DIRECTION('',(-1.224646799147E-16,-1.,0.));
#1031=DIRECTION('',(0.,0.,1.));
#1032=DIRECTION('',(-1.224646799147E-16,-1.,0.));
#1033=DIRECTION('center_axis',(0.,0.,-1.));
#1034=DIRECTION('ref_axis',(-1.,1.224646799147E-16,0.));
#1035=DIRECTION('',(0.,0.,1.));
#1036=DIRECTION('center_axis',(0.,0.,1.));
#1037=DIRECTION('ref_axis',(-1.,1.224646799147E-16,0.));
#1038=DIRECTION('',(0.,0.,1.));
#1039=DIRECTION('center_axis',(0.,0.,1.));
#1040=DIRECTION('ref_axis',(-1.,1.224646799147E-16,0.));
#1041=DIRECTION('center_axis',(0.,0.,1.));
#1042=DIRECTION('ref_axis',(-1.,1.224646799147E-16,0.));
#1043=DIRECTION('',(-1.,1.224646799147E-16,0.));
#1044=DIRECTION('center_axis',(0.,0.,1.));
#1045=DIRECTION('ref_axis',(-1.,1.224646799147E-16,0.));
#1046=DIRECTION('',(1.,-1.224646799147E-16,0.));
#1047=DIRECTION('',(1.224646799147E-16,1.,0.));
#1048=DIRECTION('center_axis',(0.,0.,1.));
#1049=DIRECTION('ref_axis',(-1.,1.224646799147E-16,0.));
#1050=DIRECTION('center_axis',(0.,0.,1.));
#1051=DIRECTION('ref_axis',(-1.,1.224646799147E-16,0.));
#1052=DIRECTION('center_axis',(0.,0.,1.));
#1053=DIRECTION('ref_axis',(-1.,1.224646799147E-16,0.));
#1054=DIRECTION('center_axis',(0.,0.,-1.));
#1055=DIRECTION('ref_axis',(-1.,1.224646799147E-16,0.));
#1056=DIRECTION('',(0.,0.,-1.));
#1057=DIRECTION('center_axis',(0.,0.,1.));
#1058=DIRECTION('ref_axis',(-1.,1.224646799147E-16,0.));
#1059=DIRECTION('center_axis',(0.,0.,-1.));
#1060=DIRECTION('ref_axis',(-1.,1.224646799147E-16,0.));
#1061=DIRECTION('',(0.,0.,-1.));
#1062=DIRECTION('center_axis',(0.,0.,1.));
#1063=DIRECTION('ref_axis',(-1.,1.224646799147E-16,0.));
#1064=DIRECTION('center_axis',(-1.,1.224646799147E-16,-1.224646799147E-16));
#1065=DIRECTION('ref_axis',(-1.224646799147E-16,-1.,1.224646799147E-16));
#1066=DIRECTION('',(-1.224646799147E-16,-1.,1.224646799147E-16));
#1067=DIRECTION('center_axis',(1.224646799147E-16,1.,0.));
#1068=DIRECTION('ref_axis',(1.,-1.224646799147E-16,0.));
#1069=DIRECTION('',(0.,0.,1.));
#1070=DIRECTION('',(1.,-1.224646799147E-16,0.));
#1071=DIRECTION('center_axis',(-1.,1.224646799147E-16,-1.224646799147E-16));
#1072=DIRECTION('ref_axis',(-1.224646799147E-16,6.123233995737E-17,1.));
#1073=DIRECTION('',(-1.224646799147E-16,-1.,6.123233995737E-17));
#1074=DIRECTION('',(-1.224646799147E-16,6.123233995737E-17,1.));
#1075=DIRECTION('center_axis',(1.224646799147E-16,1.,-1.224646799147E-16));
#1076=DIRECTION('ref_axis',(-1.,1.224646799147E-16,-1.224646799147E-16));
#1077=DIRECTION('',(-1.,1.224646799147E-16,-1.224646799147E-16));
#1078=DIRECTION('',(1.224646799147E-16,-1.224646799147E-16,-1.));
#1079=DIRECTION('center_axis',(-1.,1.224646799147E-16,0.));
#1080=DIRECTION('ref_axis',(-1.224646799147E-16,-1.,6.123233995737E-17));
#1081=DIRECTION('center_axis',(1.,9.00474410970548E-14,-9.00474410970515E-14));
#1082=DIRECTION('ref_axis',(-7.4597605857007E-14,0.999999999999711,-7.5994288730634E-7));
#1083=DIRECTION('',(1.,0.,0.));
#1084=DIRECTION('center_axis',(-1.,1.88891648251721E-13,1.88891648248664E-13));
#1085=DIRECTION('ref_axis',(1.88891648248664E-13,0.,1.));
#1086=DIRECTION('',(0.,0.,1.));
#1087=DIRECTION('center_axis',(-1.,0.,0.));
#1088=DIRECTION('ref_axis',(0.,0.,-1.));
#1089=DIRECTION('',(0.,1.,0.));
#1090=DIRECTION('center_axis',(-1.224646799147E-16,1.224646799147E-16,1.));
#1091=DIRECTION('ref_axis',(1.,-1.224646799147E-16,1.224646799147E-16));
#1092=DIRECTION('center_axis',(1.224646799147E-16,-1.224646799147E-16,-1.));
#1093=DIRECTION('ref_axis',(1.,-1.224646799147E-16,1.224646799147E-16));
#1094=DIRECTION('center_axis',(-1.224646799147E-16,6.123233995737E-17,1.));
#1095=DIRECTION('ref_axis',(1.,-1.224646799147E-16,1.224646799147E-16));
#1096=DIRECTION('',(1.,-1.224646799147E-16,1.224646799147E-16));
#1097=DIRECTION('center_axis',(0.,0.,-1.));
#1098=DIRECTION('ref_axis',(-1.,1.224646799147E-16,0.));
#1099=DIRECTION('',(0.,0.,-1.));
#1100=DIRECTION('center_axis',(0.,0.,1.));
#1101=DIRECTION('ref_axis',(-1.,1.224646799147E-16,0.));
#1102=DIRECTION('center_axis',(0.,0.,1.));
#1103=DIRECTION('ref_axis',(-1.,1.224646799147E-16,0.));
#1104=DIRECTION('',(-1.,1.224646799147E-16,0.));
#1105=DIRECTION('',(1.224646799147E-16,1.,0.));
#1106=DIRECTION('center_axis',(0.,0.,1.));
#1107=DIRECTION('ref_axis',(-1.,1.224646799147E-16,0.));
#1108=DIRECTION('center_axis',(1.,-1.224646799147E-16,1.224646799147E-16));
#1109=DIRECTION('ref_axis',(1.224646799147E-16,-6.123233995737E-17,-1.));
#1110=DIRECTION('',(1.224646799147E-16,-6.123233995737E-17,-1.));
#1111=DIRECTION('center_axis',(1.224646799147E-16,1.,-6.123233995737E-17));
#1112=DIRECTION('ref_axis',(1.,-1.224646799147E-16,1.224646799147E-16));
#1113=DIRECTION('center_axis',(-1.224646799147E-16,-1.,6.123233995737E-17));
#1114=DIRECTION('ref_axis',(1.,-1.224646799147E-16,1.224646799147E-16));
#1115=DIRECTION('center_axis',(1.224646799147E-16,-1.224646799147E-16,-1.));
#1116=DIRECTION('ref_axis',(1.,-1.224646799147E-16,1.224646799147E-16));
#1117=DIRECTION('center_axis',(-1.,1.224646799147E-16,-1.224646799147E-16));
#1118=DIRECTION('ref_axis',(-1.224646799147E-16,6.123233995737E-17,1.));
#1119=DIRECTION('',(-1.224646799147E-16,6.123233995737E-17,1.));
#1120=DIRECTION('center_axis',(-1.,1.224646799147E-16,0.));
#1121=DIRECTION('ref_axis',(1.224646799147E-16,1.,0.));
#1122=DIRECTION('center_axis',(-1.,1.224646799147E-16,0.));
#1123=DIRECTION('ref_axis',(-1.224646799147E-16,-1.,6.123233995737E-17));
#1124=DIRECTION('center_axis',(-1.,1.224646799147E-16,-1.224646799147E-16));
#1125=DIRECTION('ref_axis',(-1.224646799147E-16,6.123233995737E-17,1.));
#1126=DIRECTION('',(-1.224646799147E-16,-1.,6.123233995737E-17));
#1127=DIRECTION('',(-1.224646799147E-16,6.123233995737E-17,1.));
#1128=DIRECTION('center_axis',(-1.224646799147E-16,-1.,6.123233995737E-17));
#1129=DIRECTION('ref_axis',(1.,-1.224646799147E-16,1.224646799147E-16));
#1130=DIRECTION('center_axis',(-1.224646799147E-16,-1.,6.123233995737E-17));
#1131=DIRECTION('ref_axis',(1.,-1.224646799147E-16,1.224646799147E-16));
#1132=DIRECTION('center_axis',(1.224646799147E-16,1.,-6.123233995737E-17));
#1133=DIRECTION('ref_axis',(1.,-1.224646799147E-16,1.224646799147E-16));
#1134=DIRECTION('center_axis',(0.,0.,-1.));
#1135=DIRECTION('ref_axis',(-1.,1.224646799147E-16,0.));
#1136=CARTESIAN_POINT('',(0.,0.,0.));
#1137=CARTESIAN_POINT('Origin',(7.5946,404.622837994139,3.25036200585613));
#1138=CARTESIAN_POINT('',(7.5946,403.2758,2.6924));
#1139=CARTESIAN_POINT('',(7.5946,405.1808,4.5974));
#1140=CARTESIAN_POINT('Origin',(7.5946,403.275798552308,4.5974014476923));
#1141=CARTESIAN_POINT('',(7.5946,406.4,4.5974));
#1142=CARTESIAN_POINT('',(7.5946,406.4,4.5974));
#1143=CARTESIAN_POINT('',(7.5946,403.2758,1.4732));
#1144=CARTESIAN_POINT('Origin',(7.59459999999997,403.2758,4.59740000000001));
#1145=CARTESIAN_POINT('',(7.5946,403.2758,2.6924));
#1146=CARTESIAN_POINT('Origin',(7.5946,406.4,4.9022));
#1147=CARTESIAN_POINT('',(7.5946,406.4,4.9022));
#1148=CARTESIAN_POINT('',(7.5946,405.1808,4.9022));
#1149=CARTESIAN_POINT('',(7.5946,406.4,4.9022));
#1150=CARTESIAN_POINT('',(7.5946,406.4,4.9022));
#1151=CARTESIAN_POINT('',(7.5946,405.1808,4.9022));
#1152=CARTESIAN_POINT('Origin',(420.3954,406.4,4.9022));
#1153=CARTESIAN_POINT('',(420.3954,406.4,4.9022));
#1154=CARTESIAN_POINT('',(420.3954,405.1808,4.9022));
#1155=CARTESIAN_POINT('',(420.3954,406.4,4.9022));
#1156=CARTESIAN_POINT('',(420.7002,406.4,4.9022));
#1157=CARTESIAN_POINT('',(420.3954,406.4,4.9022));
#1158=CARTESIAN_POINT('',(420.7002,405.1808,4.9022));
#1159=CARTESIAN_POINT('',(420.7002,406.4,4.9022));
#1160=CARTESIAN_POINT('',(420.3954,405.1808,4.9022));
#1161=CARTESIAN_POINT('Origin',(213.994999999822,406.4,62.4959673374064));
#1162=CARTESIAN_POINT('',(3.3782,406.4,1.4732));
#1163=CARTESIAN_POINT('',(6.0198,406.4,1.4732));
#1164=CARTESIAN_POINT('',(3.3782,406.4,1.4732));
#1165=CARTESIAN_POINT('',(1.4732,406.4,3.3782));
#1166=CARTESIAN_POINT('Origin',(3.3781999990348,406.4,3.3781999990348));
#1167=CARTESIAN_POINT('',(1.4732,406.4,121.6406));
#1168=CARTESIAN_POINT('',(1.4732,406.4,121.6406));
#1169=CARTESIAN_POINT('',(426.5168,406.4,121.6406));
#1170=CARTESIAN_POINT('',(426.5168,406.4,121.6406));
#1171=CARTESIAN_POINT('',(426.5168,406.4,3.3782));
#1172=CARTESIAN_POINT('',(426.5168,406.4,3.3782));
#1173=CARTESIAN_POINT('',(424.6118,406.4,1.4732));
#1174=CARTESIAN_POINT('Origin',(424.611800000965,406.4,3.3781999990348));
#1175=CARTESIAN_POINT('',(421.9702,406.4,1.4732));
#1176=CARTESIAN_POINT('',(421.9702,406.4,1.4732));
#1177=CARTESIAN_POINT('',(420.7002,406.4,2.7432));
#1178=CARTESIAN_POINT('Origin',(421.9702,406.4,2.7432));
#1179=CARTESIAN_POINT('',(420.7002,406.4,4.9022));
#1180=CARTESIAN_POINT('',(420.3954,406.4,4.5974));
#1181=CARTESIAN_POINT('',(420.3954,406.4,4.5974));
#1182=CARTESIAN_POINT('',(7.5946,406.4,4.5974));
#1183=CARTESIAN_POINT('',(7.2898,406.4,4.9022));
#1184=CARTESIAN_POINT('',(7.2898,406.4,4.9022));
#1185=CARTESIAN_POINT('',(7.2898,406.4,2.7432));
#1186=CARTESIAN_POINT('',(7.2898,406.4,2.7432));
#1187=CARTESIAN_POINT('Origin',(6.0198,406.4,2.7432));
#1188=CARTESIAN_POINT('Origin',(421.9702,406.4,2.7432));
#1189=CARTESIAN_POINT('',(420.7002,405.1808,2.7432));
#1190=CARTESIAN_POINT('',(420.7002,406.4,2.7432));
#1191=CARTESIAN_POINT('',(421.9702,405.1808,1.4732));
#1192=CARTESIAN_POINT('',(421.9702,406.4,1.4732));
#1193=CARTESIAN_POINT('Origin',(421.9702,405.1808,2.7432));
#1194=CARTESIAN_POINT('Origin',(421.9702,406.4,1.4732));
#1195=CARTESIAN_POINT('',(424.6118,405.1808,1.4732));
#1196=CARTESIAN_POINT('',(424.6118,406.4,1.4732));
#1197=CARTESIAN_POINT('',(421.9702,405.1808,1.4732));
#1198=CARTESIAN_POINT('Origin',(1.4732,403.2758,121.6406));
#1199=CARTESIAN_POINT('',(426.5168,403.2758,124.7648));
#1200=CARTESIAN_POINT('Origin',(426.5168,403.2758,121.6406));
#1201=CARTESIAN_POINT('',(1.4732,403.2758,124.7648));
#1202=CARTESIAN_POINT('Origin',(1.4732,403.2758,121.6406));
#1203=CARTESIAN_POINT('',(1.4732,403.2758,124.7648));
#1204=CARTESIAN_POINT('Origin',(426.5168,404.622837994139,122.987637994144));
#1205=CARTESIAN_POINT('',(426.5168,403.2758,123.5456));
#1206=CARTESIAN_POINT('',(426.5168,405.1808,121.6406));
#1207=CARTESIAN_POINT('Origin',(426.5168,403.275798552308,121.640598552308));
#1208=CARTESIAN_POINT('',(426.5168,406.4,121.6406));
#1209=CARTESIAN_POINT('',(426.5168,403.2758,123.5456));
#1210=CARTESIAN_POINT('Origin',(1.4732,403.2758,121.6406));
#1211=CARTESIAN_POINT('',(1.4732,403.2758,123.5456));
#1212=CARTESIAN_POINT('',(1.4732,403.2758,123.5456));
#1213=CARTESIAN_POINT('',(1.4732,405.1808,121.6406));
#1214=CARTESIAN_POINT('Origin',(1.4732,403.275798552308,121.640598552308));
#1215=CARTESIAN_POINT('',(426.5168,405.1808,121.6406));
#1216=CARTESIAN_POINT('Origin',(213.995,396.9639,124.7648));
#1217=CARTESIAN_POINT('',(211.2899,396.9639,123.5456));
#1218=CARTESIAN_POINT('Origin',(213.995,396.9639,123.5456));
#1219=CARTESIAN_POINT('',(211.2899,396.9639,124.7648));
#1220=CARTESIAN_POINT('',(211.2899,396.9639,124.7648));
#1221=CARTESIAN_POINT('Origin',(213.995,396.9639,124.7648));
#1222=CARTESIAN_POINT('Origin',(213.994999999771,396.698056991352,123.5456));
#1223=CARTESIAN_POINT('',(426.5168,391.9982,123.5456));
#1224=CARTESIAN_POINT('',(426.5168,403.2758,123.5456));
#1225=CARTESIAN_POINT('',(424.6118,390.0932,123.5456));
#1226=CARTESIAN_POINT('Origin',(424.611800000965,391.998199999035,123.5456));
#1227=CARTESIAN_POINT('',(3.3782,390.0932,123.5456));
#1228=CARTESIAN_POINT('',(424.6118,390.0932,123.5456));
#1229=CARTESIAN_POINT('',(1.4732,391.9982,123.5456));
#1230=CARTESIAN_POINT('Origin',(3.3781999990348,391.998199999035,123.5456));
#1231=CARTESIAN_POINT('',(1.4732,391.9982,123.5456));
#1232=CARTESIAN_POINT('',(389.1407,396.9639,123.5456));
#1233=CARTESIAN_POINT('Origin',(391.8458,396.9639,123.5456));
#1234=CARTESIAN_POINT('',(33.4391,396.9639,123.5456));
#1235=CARTESIAN_POINT('Origin',(36.1442,396.9639,123.5456));
#1236=CARTESIAN_POINT('Origin',(1.4732,404.622837994139,122.987637994144));
#1237=CARTESIAN_POINT('',(1.4732,403.2758,124.7648));
#1238=CARTESIAN_POINT('',(1.4732,405.1808,121.6406));
#1239=CARTESIAN_POINT('Origin',(36.1442,396.9639,124.7648));
#1240=CARTESIAN_POINT('',(33.4391,396.9639,124.7648));
#1241=CARTESIAN_POINT('',(33.4391,396.9639,124.7648));
#1242=CARTESIAN_POINT('Origin',(36.1442,396.9639,124.7648));
#1243=CARTESIAN_POINT('Origin',(1.4732,406.4,121.6406));
#1244=CARTESIAN_POINT('',(1.4732,405.1808,3.3782));
#1245=CARTESIAN_POINT('',(1.4732,406.4,3.3782));
#1246=CARTESIAN_POINT('',(1.4732,405.1808,121.6406));
#1247=CARTESIAN_POINT('Origin',(3.3782,406.4,1.4732));
#1248=CARTESIAN_POINT('',(3.3782,405.1808,1.4732));
#1249=CARTESIAN_POINT('',(3.3782,406.4,1.4732));
#1250=CARTESIAN_POINT('',(6.0198,405.1808,1.4732));
#1251=CARTESIAN_POINT('',(6.0198,406.4,1.4732));
#1252=CARTESIAN_POINT('',(3.3782,405.1808,1.4732));
#1253=CARTESIAN_POINT('Origin',(391.8458,396.9639,124.7648));
#1254=CARTESIAN_POINT('',(389.1407,396.9639,124.7648));
#1255=CARTESIAN_POINT('',(389.1407,396.9639,124.7648));
#1256=CARTESIAN_POINT('Origin',(391.8458,396.9639,124.7648));
#1257=CARTESIAN_POINT('Origin',(1.4732,391.9982,124.7648));
#1258=CARTESIAN_POINT('',(1.4732,391.9982,124.7648));
#1259=CARTESIAN_POINT('',(1.4732,391.9982,124.7648));
#1260=CARTESIAN_POINT('',(1.4732,391.9982,124.7648));
#1261=CARTESIAN_POINT('Origin',(6.0198,406.4,2.7432));
#1262=CARTESIAN_POINT('',(7.2898,405.1808,2.7432));
#1263=CARTESIAN_POINT('',(7.2898,406.4,2.7432));
#1264=CARTESIAN_POINT('Origin',(6.0198,405.1808,2.7432));
#1265=CARTESIAN_POINT('Origin',(424.611800000965,391.998199999035,124.7648));
#1266=CARTESIAN_POINT('',(426.5168,391.9982,124.7648));
#1267=CARTESIAN_POINT('',(426.5168,391.9982,124.7648));
#1268=CARTESIAN_POINT('',(424.6118,390.0932,124.7648));
#1269=CARTESIAN_POINT('Origin',(424.611800000965,391.998199999035,124.7648));
#1270=CARTESIAN_POINT('',(424.6118,390.0932,124.7648));
#1271=CARTESIAN_POINT('Origin',(7.5946,403.2758,1.4732));
#1272=CARTESIAN_POINT('',(7.5946,391.9982,1.4732));
#1273=CARTESIAN_POINT('',(7.5946,403.2758,1.4732));
#1274=CARTESIAN_POINT('',(7.5946,391.9982,2.6924));
#1275=CARTESIAN_POINT('',(7.5946,391.9982,1.4732));
#1276=CARTESIAN_POINT('',(7.5946,403.2758,2.6924));
#1277=CARTESIAN_POINT('Origin',(418.490399999771,391.998200000229,1.4732));
#1278=CARTESIAN_POINT('',(418.4904,390.0932,1.4732));
#1279=CARTESIAN_POINT('',(418.4904,390.0932,2.6924));
#1280=CARTESIAN_POINT('',(418.4904,390.0932,1.4732));
#1281=CARTESIAN_POINT('',(420.3954,391.9982,1.4732));
#1282=CARTESIAN_POINT('Origin',(418.490399999771,391.998200000229,1.4732));
#1283=CARTESIAN_POINT('',(420.3954,391.9982,2.6924));
#1284=CARTESIAN_POINT('',(420.3954,391.9982,1.4732));
#1285=CARTESIAN_POINT('Origin',(418.490399999771,391.998200000229,2.6924));
#1286=CARTESIAN_POINT('Origin',(213.995000000127,396.698447401036,2.6924));
#1287=CARTESIAN_POINT('',(420.3954,403.2758,2.6924));
#1288=CARTESIAN_POINT('',(420.3954,403.2758,2.6924));
#1289=CARTESIAN_POINT('',(9.4996,390.0932,2.6924));
#1290=CARTESIAN_POINT('Origin',(9.4995999990348,391.998199999035,2.6924));
#1291=CARTESIAN_POINT('',(9.4996,390.0932,2.6924));
#1292=CARTESIAN_POINT('',(420.3954,391.9982,2.6924));
#1293=CARTESIAN_POINT('',(394.3223,397.5989,2.6924));
#1294=CARTESIAN_POINT('Origin',(391.8458,397.5989,2.6924));
#1295=CARTESIAN_POINT('',(38.6207,397.5989,2.6924));
#1296=CARTESIAN_POINT('Origin',(36.1442,397.5989,2.6924));
#1297=CARTESIAN_POINT('',(216.4715,397.5989,2.6924));
#1298=CARTESIAN_POINT('Origin',(213.995,397.5989,2.6924));
#1299=CARTESIAN_POINT('Origin',(36.1442,397.5989,1.4732));
#1300=CARTESIAN_POINT('',(38.6207,397.5989,1.4732));
#1301=CARTESIAN_POINT('',(38.6207,397.5989,1.4732));
#1302=CARTESIAN_POINT('Origin',(36.1442,397.5989,1.4732));
#1303=CARTESIAN_POINT('Origin',(391.8458,397.5989,1.4732));
#1304=CARTESIAN_POINT('',(394.3223,397.5989,1.4732));
#1305=CARTESIAN_POINT('',(394.3223,397.5989,1.4732));
#1306=CARTESIAN_POINT('Origin',(391.8458,397.5989,1.4732));
#1307=CARTESIAN_POINT('Origin',(426.5168,403.2758,124.7648));
#1308=CARTESIAN_POINT('',(426.5168,403.2758,124.7648));
#1309=CARTESIAN_POINT('Origin',(9.4996,390.0932,1.4732));
#1310=CARTESIAN_POINT('',(9.4996,390.0932,1.4732));
#1311=CARTESIAN_POINT('',(9.4996,390.0932,1.4732));
#1312=CARTESIAN_POINT('',(9.4996,390.0932,1.4732));
#1313=CARTESIAN_POINT('Origin',(7.2898,406.4,2.7432));
#1314=CARTESIAN_POINT('',(7.2898,405.1808,4.9022));
#1315=CARTESIAN_POINT('',(7.2898,406.4,4.9022));
#1316=CARTESIAN_POINT('',(7.2898,405.1808,2.7432));
#1317=CARTESIAN_POINT('Origin',(424.6118,390.0932,124.7648));
#1318=CARTESIAN_POINT('',(3.3782,390.0932,124.7648));
#1319=CARTESIAN_POINT('',(424.6118,390.0932,124.7648));
#1320=CARTESIAN_POINT('',(3.3782,390.0932,124.7648));
#1321=CARTESIAN_POINT('Origin',(420.3954,403.2758,4.5974));
#1322=CARTESIAN_POINT('',(420.3954,405.1808,4.5974));
#1323=CARTESIAN_POINT('Origin',(420.3954,403.275798552308,4.5974014476923));
#1324=CARTESIAN_POINT('',(7.5946,405.1808,4.5974));
#1325=CARTESIAN_POINT('Origin',(420.3954,404.622837994139,3.25036200585613));
#1326=CARTESIAN_POINT('',(420.3954,403.2758,1.4732));
#1327=CARTESIAN_POINT('',(420.3954,403.2758,1.4732));
#1328=CARTESIAN_POINT('Origin',(420.3954,403.2758,4.59740000000005));
#1329=CARTESIAN_POINT('',(420.3954,405.1808,4.5974));
#1330=CARTESIAN_POINT('Origin',(3.3781999990348,391.998199999035,124.7648));
#1331=CARTESIAN_POINT('Origin',(3.3781999990348,391.998199999035,124.7648));
#1332=CARTESIAN_POINT('Origin',(7.2898,406.4,4.9022));
#1333=CARTESIAN_POINT('',(7.2898,405.1808,4.9022));
#1334=CARTESIAN_POINT('Origin',(213.995,397.5989,1.4732));
#1335=CARTESIAN_POINT('',(216.4715,397.5989,1.4732));
#1336=CARTESIAN_POINT('',(216.4715,397.5989,1.4732));
#1337=CARTESIAN_POINT('Origin',(213.995,397.5989,1.4732));
#1338=CARTESIAN_POINT('Origin',(213.995000000127,396.698447401036,1.4732));
#1339=CARTESIAN_POINT('',(420.3954,403.2758,1.4732));
#1340=CARTESIAN_POINT('',(420.3954,391.9982,1.4732));
#1341=CARTESIAN_POINT('Origin',(9.4995999990348,391.998199999035,1.4732));
#1342=CARTESIAN_POINT('Origin',(420.7002,406.4,4.9022));
#1343=CARTESIAN_POINT('',(420.7002,405.1808,4.9022));
#1344=CARTESIAN_POINT('Origin',(3.3781999990348,406.4,3.3781999990348));
#1345=CARTESIAN_POINT('Origin',(3.3781999990348,405.1808,3.3781999990348));
#1346=CARTESIAN_POINT('Origin',(213.994999999771,396.698056991352,124.7648));
#1347=CARTESIAN_POINT('Origin',(420.3954,406.4,4.5974));
#1348=CARTESIAN_POINT('',(420.3954,405.1808,4.5974));
#1349=CARTESIAN_POINT('Origin',(420.3954,391.9982,1.4732));
#1350=CARTESIAN_POINT('Origin',(420.3954,403.2758,4.5974));
#1351=CARTESIAN_POINT('Origin',(426.5168,406.4,3.3782));
#1352=CARTESIAN_POINT('',(426.5168,405.1808,3.3782));
#1353=CARTESIAN_POINT('',(426.5168,406.4,3.3782));
#1354=CARTESIAN_POINT('',(426.5168,405.1808,3.3782));
#1355=CARTESIAN_POINT('Origin',(213.994999999822,405.1808,62.4959673374064));
#1356=CARTESIAN_POINT('Origin',(424.611800000965,405.1808,3.3781999990348));
#1357=CARTESIAN_POINT('Origin',(424.611800000965,406.4,3.3781999990348));
#1358=CARTESIAN_POINT('Origin',(9.4995999990348,391.998199999035,1.4732));
#1359=UNCERTAINTY_MEASURE_WITH_UNIT(LENGTH_MEASURE(0.01),#1363,
'DISTANCE_ACCURACY_VALUE',
'Maximum model space distance between geometric entities at asserted c
onnectivities');
#1360=UNCERTAINTY_MEASURE_WITH_UNIT(LENGTH_MEASURE(0.01),#1363,
'DISTANCE_ACCURACY_VALUE',
'Maximum model space distance between geometric entities at asserted c
onnectivities');
#1361=(
GEOMETRIC_REPRESENTATION_CONTEXT(3)
GLOBAL_UNCERTAINTY_ASSIGNED_CONTEXT((#1359))
GLOBAL_UNIT_ASSIGNED_CONTEXT((#1363,#1365,#1366))
REPRESENTATION_CONTEXT('','3D')
);
#1362=(
GEOMETRIC_REPRESENTATION_CONTEXT(3)
GLOBAL_UNCERTAINTY_ASSIGNED_CONTEXT((#1360))
GLOBAL_UNIT_ASSIGNED_CONTEXT((#1363,#1365,#1366))
REPRESENTATION_CONTEXT('','3D')
);
#1363=(
LENGTH_UNIT()
NAMED_UNIT(*)
SI_UNIT(.MILLI.,.METRE.)
);
#1364=(
LENGTH_UNIT()
NAMED_UNIT(*)
SI_UNIT(.CENTI.,.METRE.)
);
#1365=(
NAMED_UNIT(*)
PLANE_ANGLE_UNIT()
SI_UNIT($,.RADIAN.)
);
#1366=(
NAMED_UNIT(*)
SI_UNIT($,.STERADIAN.)
SOLID_ANGLE_UNIT()
);
#1367=SHAPE_DEFINITION_REPRESENTATION(#1368,#1369);
#1368=PRODUCT_DEFINITION_SHAPE('',$,#1371);
#1369=SHAPE_REPRESENTATION('',(#819),#1361);
#1370=PRODUCT_DEFINITION_CONTEXT('part definition',#1375,'design');
#1371=PRODUCT_DEFINITION('Rear','Rear',#1372,#1370);
#1372=PRODUCT_DEFINITION_FORMATION('',$,#1377);
#1373=PRODUCT_RELATED_PRODUCT_CATEGORY('Rear','Rear',(#1377));
#1374=APPLICATION_PROTOCOL_DEFINITION('international standard',
'automotive_design',2009,#1375);
#1375=APPLICATION_CONTEXT(
'Core Data for Automotive Mechanical Design Process');
#1376=PRODUCT_CONTEXT('part definition',#1375,'mechanical');
#1377=PRODUCT('Rear','Rear',$,(#1376));
#1378=PRESENTATION_STYLE_ASSIGNMENT((#1380));
#1379=PRESENTATION_STYLE_ASSIGNMENT((#1381));
#1380=SURFACE_STYLE_USAGE(.BOTH.,#1386);
#1381=SURFACE_STYLE_USAGE(.BOTH.,#1387);
#1382=SURFACE_STYLE_RENDERING_WITH_PROPERTIES($,#1394,(#1384));
#1383=SURFACE_STYLE_RENDERING_WITH_PROPERTIES($,#1395,(#1385));
#1384=SURFACE_STYLE_TRANSPARENT(0.);
#1385=SURFACE_STYLE_TRANSPARENT(0.);
#1386=SURFACE_SIDE_STYLE('',(#1388,#1382));
#1387=SURFACE_SIDE_STYLE('',(#1389,#1383));
#1388=SURFACE_STYLE_FILL_AREA(#1390);
#1389=SURFACE_STYLE_FILL_AREA(#1391);
#1390=FILL_AREA_STYLE('',(#1392));
#1391=FILL_AREA_STYLE('',(#1393));
#1392=FILL_AREA_STYLE_COLOUR('',#1394);
#1393=FILL_AREA_STYLE_COLOUR('',#1395);
#1394=COLOUR_RGB('',0.749019607843137,0.749019607843137,0.749019607843137);
#1395=COLOUR_RGB('',0.6,0.6,0.6);
ENDSEC;
END-ISO-10303-21;
