G04*
G04 #@! TF.GenerationSoftware,Altium Limited,Altium Designer,25.8.1 (18)*
G04*
G04 Layer_Physical_Order=4*
G04 Layer_Color=16711680*
%FSLAX44Y44*%
%MOMM*%
G71*
G04*
G04 #@! TF.SameCoordinates,C19CE461-91EB-44EE-881C-4A3BDBF79EA7*
G04*
G04*
G04 #@! TF.FilePolarity,Positive*
G04*
G01*
G75*
%ADD22C,1.2000*%
%ADD23C,2.3000*%
%ADD24C,1.6000*%
%ADD25C,3.5000*%
%ADD26C,1.5000*%
%ADD27C,2.0000*%
%ADD28C,0.3000*%
%ADD29C,0.7000*%
G36*
X600000Y0D02*
X0D01*
Y300000D01*
X600000D01*
Y0D01*
D02*
G37*
%LPC*%
G36*
X481094Y273500D02*
X478906D01*
X476884Y272663D01*
X475337Y271115D01*
X474500Y269094D01*
Y266906D01*
X475337Y264884D01*
X476884Y263337D01*
X478906Y262500D01*
X481094D01*
X483116Y263337D01*
X484663Y264884D01*
X485500Y266906D01*
Y269094D01*
X484663Y271115D01*
X483116Y272663D01*
X481094Y273500D01*
D02*
G37*
G36*
X439094Y245500D02*
X436906D01*
X434884Y244663D01*
X433337Y243116D01*
X432500Y241094D01*
Y238906D01*
X433337Y236884D01*
X434884Y235337D01*
X436906Y234500D01*
X439094D01*
X441115Y235337D01*
X442663Y236884D01*
X443500Y238906D01*
Y241094D01*
X442663Y243116D01*
X441115Y244663D01*
X439094Y245500D01*
D02*
G37*
G36*
X465094Y193500D02*
X462906D01*
X460885Y192663D01*
X459337Y191115D01*
X458500Y189094D01*
Y186906D01*
X459337Y184884D01*
X460885Y183337D01*
X462906Y182500D01*
X465094D01*
X467116Y183337D01*
X468663Y184884D01*
X469500Y186906D01*
Y189094D01*
X468663Y191115D01*
X467116Y192663D01*
X465094Y193500D01*
D02*
G37*
G36*
X439094D02*
X436906D01*
X434884Y192663D01*
X433337Y191115D01*
X432500Y189094D01*
Y186906D01*
X433337Y184884D01*
X434884Y183337D01*
X436906Y182500D01*
X439094D01*
X441115Y183337D01*
X442663Y184884D01*
X443500Y186906D01*
Y189094D01*
X442663Y191115D01*
X441115Y192663D01*
X439094Y193500D01*
D02*
G37*
G36*
X337094D02*
X334906D01*
X332884Y192663D01*
X331337Y191115D01*
X330500Y189094D01*
Y186906D01*
X331337Y184884D01*
X332884Y183337D01*
X334906Y182500D01*
X337094D01*
X339115Y183337D01*
X340663Y184884D01*
X341500Y186906D01*
Y189094D01*
X340663Y191115D01*
X339115Y192663D01*
X337094Y193500D01*
D02*
G37*
G36*
X446670Y153001D02*
Y145770D01*
X453901D01*
X453358Y147796D01*
X452234Y149744D01*
X450644Y151334D01*
X448696Y152458D01*
X446670Y153001D01*
D02*
G37*
G36*
X444130D02*
X442104Y152458D01*
X440156Y151334D01*
X438566Y149744D01*
X437442Y147796D01*
X436899Y145770D01*
X444130D01*
Y153001D01*
D02*
G37*
G36*
X219251Y162500D02*
X216749D01*
X214333Y161853D01*
X212167Y160602D01*
X210398Y158833D01*
X209147Y156667D01*
X208500Y154251D01*
Y151749D01*
X209147Y149333D01*
X210398Y147167D01*
X212167Y145398D01*
X214333Y144147D01*
X216749Y143500D01*
X219251D01*
X221667Y144147D01*
X223833Y145398D01*
X225602Y147167D01*
X226853Y149333D01*
X227500Y151749D01*
Y154251D01*
X226853Y156667D01*
X225602Y158833D01*
X223833Y160602D01*
X221667Y161853D01*
X219251Y162500D01*
D02*
G37*
G36*
X183251D02*
X180749D01*
X178333Y161853D01*
X176167Y160602D01*
X174398Y158833D01*
X173148Y156667D01*
X172500Y154251D01*
Y151749D01*
X173148Y149333D01*
X174398Y147167D01*
X176167Y145398D01*
X178333Y144147D01*
X180749Y143500D01*
X183251D01*
X185667Y144147D01*
X187833Y145398D01*
X189602Y147167D01*
X190853Y149333D01*
X191500Y151749D01*
Y154251D01*
X190853Y156667D01*
X189602Y158833D01*
X187833Y160602D01*
X185667Y161853D01*
X183251Y162500D01*
D02*
G37*
G36*
X421053Y152500D02*
X418947D01*
X416912Y151955D01*
X415088Y150902D01*
X413598Y149412D01*
X412545Y147588D01*
X412000Y145553D01*
Y143447D01*
X412545Y141412D01*
X413598Y139588D01*
X415088Y138098D01*
X416912Y137045D01*
X418947Y136500D01*
X421053D01*
X423088Y137045D01*
X424912Y138098D01*
X426402Y139588D01*
X427455Y141412D01*
X428000Y143447D01*
Y145553D01*
X427455Y147588D01*
X426402Y149412D01*
X424912Y150902D01*
X423088Y151955D01*
X421053Y152500D01*
D02*
G37*
G36*
X453901Y143230D02*
X446670D01*
Y135999D01*
X448696Y136542D01*
X450644Y137666D01*
X452234Y139256D01*
X453358Y141204D01*
X453901Y143230D01*
D02*
G37*
G36*
X444130D02*
X436899D01*
X437442Y141204D01*
X438566Y139256D01*
X440156Y137666D01*
X442104Y136542D01*
X444130Y135999D01*
Y143230D01*
D02*
G37*
G36*
X201251Y144500D02*
X198749D01*
X196333Y143853D01*
X194167Y142602D01*
X192398Y140833D01*
X191147Y138667D01*
X190500Y136251D01*
Y133749D01*
X191147Y131333D01*
X192398Y129167D01*
X194167Y127398D01*
X196333Y126147D01*
X198749Y125500D01*
X201251D01*
X203667Y126147D01*
X205833Y127398D01*
X207602Y129167D01*
X208853Y131333D01*
X209500Y133749D01*
Y136251D01*
X208853Y138667D01*
X207602Y140833D01*
X205833Y142602D01*
X203667Y143853D01*
X201251Y144500D01*
D02*
G37*
G36*
X421053Y127100D02*
X418947D01*
X416912Y126555D01*
X415088Y125502D01*
X413598Y124012D01*
X412545Y122188D01*
X412000Y120153D01*
Y118047D01*
X412545Y116012D01*
X413598Y114188D01*
X415088Y112698D01*
X416912Y111645D01*
X418947Y111100D01*
X421053D01*
X423088Y111645D01*
X424912Y112698D01*
X426402Y114188D01*
X427455Y116012D01*
X428000Y118047D01*
Y120153D01*
X427455Y122188D01*
X426402Y124012D01*
X424912Y125502D01*
X423088Y126555D01*
X421053Y127100D01*
D02*
G37*
G36*
X219251Y126500D02*
X216749D01*
X214333Y125853D01*
X212167Y124602D01*
X210398Y122833D01*
X209147Y120667D01*
X208500Y118251D01*
Y115749D01*
X209147Y113333D01*
X210398Y111167D01*
X212167Y109398D01*
X214333Y108147D01*
X216749Y107500D01*
X219251D01*
X221667Y108147D01*
X223833Y109398D01*
X225602Y111167D01*
X226853Y113333D01*
X227500Y115749D01*
Y118251D01*
X226853Y120667D01*
X225602Y122833D01*
X223833Y124602D01*
X221667Y125853D01*
X219251Y126500D01*
D02*
G37*
G36*
X183251D02*
X180749D01*
X178333Y125853D01*
X176167Y124602D01*
X174398Y122833D01*
X173148Y120667D01*
X172500Y118251D01*
Y115749D01*
X173148Y113333D01*
X174398Y111167D01*
X176167Y109398D01*
X178333Y108147D01*
X180749Y107500D01*
X183251D01*
X185667Y108147D01*
X187833Y109398D01*
X189602Y111167D01*
X190853Y113333D01*
X191500Y115749D01*
Y118251D01*
X190853Y120667D01*
X189602Y122833D01*
X187833Y124602D01*
X185667Y125853D01*
X183251Y126500D01*
D02*
G37*
G36*
X472648Y69640D02*
X472070D01*
Y56870D01*
X484840D01*
Y57448D01*
X483883Y61019D01*
X482035Y64221D01*
X479421Y66835D01*
X476219Y68683D01*
X472648Y69640D01*
D02*
G37*
G36*
X469530D02*
X468952D01*
X465381Y68683D01*
X462179Y66835D01*
X459565Y64221D01*
X457717Y61019D01*
X456760Y57448D01*
Y56870D01*
X469530D01*
Y69640D01*
D02*
G37*
G36*
X371048D02*
X370470D01*
Y56870D01*
X383240D01*
Y57448D01*
X382283Y61019D01*
X380435Y64221D01*
X377821Y66835D01*
X374619Y68683D01*
X371048Y69640D01*
D02*
G37*
G36*
X367930D02*
X367352D01*
X363781Y68683D01*
X360579Y66835D01*
X357965Y64221D01*
X356117Y61019D01*
X355160Y57448D01*
Y56870D01*
X367930D01*
Y69640D01*
D02*
G37*
G36*
X484840Y54330D02*
X472070D01*
Y41560D01*
X472648D01*
X476219Y42517D01*
X479421Y44365D01*
X482035Y46979D01*
X483883Y50181D01*
X484840Y53752D01*
Y54330D01*
D02*
G37*
G36*
X469530D02*
X456760D01*
Y53752D01*
X457717Y50181D01*
X459565Y46979D01*
X462179Y44365D01*
X465381Y42517D01*
X468952Y41560D01*
X469530D01*
Y54330D01*
D02*
G37*
G36*
X383240D02*
X370470D01*
Y41560D01*
X371048D01*
X374619Y42517D01*
X377821Y44365D01*
X380435Y46979D01*
X382283Y50181D01*
X383240Y53752D01*
Y54330D01*
D02*
G37*
G36*
X367930D02*
X355160D01*
Y53752D01*
X356117Y50181D01*
X357965Y46979D01*
X360579Y44365D01*
X363781Y42517D01*
X367352Y41560D01*
X367930D01*
Y54330D01*
D02*
G37*
G36*
X201388Y45540D02*
X201270D01*
Y36270D01*
X210540D01*
Y36388D01*
X209822Y39068D01*
X208434Y41472D01*
X206472Y43434D01*
X204068Y44822D01*
X201388Y45540D01*
D02*
G37*
G36*
X198730D02*
X198612D01*
X195932Y44822D01*
X193528Y43434D01*
X191566Y41472D01*
X190178Y39068D01*
X189460Y36388D01*
Y36270D01*
X198730D01*
Y45540D01*
D02*
G37*
G36*
X276580Y57000D02*
X273420D01*
X270368Y56182D01*
X267632Y54602D01*
X265398Y52368D01*
X263818Y49632D01*
X263000Y46580D01*
Y43420D01*
X263818Y40368D01*
X265398Y37632D01*
X267632Y35398D01*
X270368Y33818D01*
X273420Y33000D01*
X276580D01*
X279632Y33818D01*
X282368Y35398D01*
X284602Y37632D01*
X286182Y40368D01*
X287000Y43420D01*
Y46580D01*
X286182Y49632D01*
X284602Y52368D01*
X282368Y54602D01*
X279632Y56182D01*
X276580Y57000D01*
D02*
G37*
G36*
X126580D02*
X123420D01*
X120368Y56182D01*
X117632Y54602D01*
X115398Y52368D01*
X113818Y49632D01*
X113000Y46580D01*
Y43420D01*
X113818Y40368D01*
X115398Y37632D01*
X117632Y35398D01*
X120368Y33818D01*
X123420Y33000D01*
X126580D01*
X129632Y33818D01*
X132368Y35398D01*
X134602Y37632D01*
X136182Y40368D01*
X137000Y43420D01*
Y46580D01*
X136182Y49632D01*
X134602Y52368D01*
X132368Y54602D01*
X129632Y56182D01*
X126580Y57000D01*
D02*
G37*
G36*
X210540Y33730D02*
X201270D01*
Y24460D01*
X201388D01*
X204068Y25178D01*
X206472Y26566D01*
X208434Y28528D01*
X209822Y30932D01*
X210540Y33612D01*
Y33730D01*
D02*
G37*
G36*
X198730D02*
X189460D01*
Y33612D01*
X190178Y30932D01*
X191566Y28528D01*
X193528Y26566D01*
X195932Y25178D01*
X198612Y24460D01*
X198730D01*
Y33730D01*
D02*
G37*
%LPD*%
D22*
X420000Y119100D02*
D03*
X445400Y144500D02*
D03*
X420000D02*
D03*
D23*
X470800Y55600D02*
D03*
X369200D02*
D03*
D24*
X200000Y35000D02*
D03*
D25*
X30000Y30000D02*
D03*
X570000D02*
D03*
Y270000D02*
D03*
X30000D02*
D03*
D26*
X200000Y135000D02*
D03*
X182000Y117000D02*
D03*
X218000D02*
D03*
Y153000D02*
D03*
X182000D02*
D03*
D27*
X275000Y45000D02*
D03*
X125000D02*
D03*
D28*
X421000Y185000D02*
D03*
X475000Y175000D02*
D03*
X462000Y160000D02*
D03*
X450000Y185000D02*
D03*
Y180000D02*
D03*
X432500Y135000D02*
D03*
Y140000D02*
D03*
Y145000D02*
D03*
Y150000D02*
D03*
X435000Y155000D02*
D03*
X440000Y160000D02*
D03*
X495000Y130000D02*
D03*
X490000D02*
D03*
X485000D02*
D03*
X480000D02*
D03*
X475000D02*
D03*
X470000D02*
D03*
X465000D02*
D03*
X460000D02*
D03*
X455000D02*
D03*
X450000D02*
D03*
X445000D02*
D03*
X440000D02*
D03*
X435000D02*
D03*
X430000D02*
D03*
X425000D02*
D03*
X415000D02*
D03*
X420000D02*
D03*
X405000Y140000D02*
D03*
X410000Y135000D02*
D03*
Y130000D02*
D03*
X405000Y125000D02*
D03*
Y120000D02*
D03*
Y115000D02*
D03*
X410000Y110000D02*
D03*
X415000Y105000D02*
D03*
X420000D02*
D03*
X425000D02*
D03*
X430000Y110000D02*
D03*
X435000D02*
D03*
X440000D02*
D03*
X445000D02*
D03*
X450000D02*
D03*
X455000D02*
D03*
X460000D02*
D03*
X465000D02*
D03*
X470000D02*
D03*
X475000D02*
D03*
X480000D02*
D03*
X485000D02*
D03*
X490000D02*
D03*
X495000D02*
D03*
X500000D02*
D03*
X505000D02*
D03*
X510000D02*
D03*
X395000Y80000D02*
D03*
X415000D02*
D03*
X490000Y100000D02*
D03*
X485000D02*
D03*
X435000Y80000D02*
D03*
X475000D02*
D03*
X455000D02*
D03*
X495000Y100000D02*
D03*
X355000Y80000D02*
D03*
D03*
X590000Y280000D02*
D03*
Y240000D02*
D03*
X580000Y220000D02*
D03*
X590000Y200000D02*
D03*
X580000Y180000D02*
D03*
X590000Y160000D02*
D03*
X580000Y140000D02*
D03*
X590000Y120000D02*
D03*
X580000Y100000D02*
D03*
X590000Y80000D02*
D03*
X580000Y60000D02*
D03*
X590000Y40000D02*
D03*
X570000Y240000D02*
D03*
X560000Y220000D02*
D03*
X570000Y200000D02*
D03*
X560000Y180000D02*
D03*
X570000Y160000D02*
D03*
X560000Y140000D02*
D03*
X570000Y120000D02*
D03*
X560000Y100000D02*
D03*
X570000Y80000D02*
D03*
X560000Y60000D02*
D03*
X550000Y280000D02*
D03*
Y240000D02*
D03*
Y200000D02*
D03*
Y160000D02*
D03*
Y120000D02*
D03*
X540000Y100000D02*
D03*
X550000Y80000D02*
D03*
X540000Y60000D02*
D03*
X550000Y40000D02*
D03*
X540000Y20000D02*
D03*
X530000Y280000D02*
D03*
X520000Y260000D02*
D03*
X530000Y240000D02*
D03*
X520000Y220000D02*
D03*
X530000Y200000D02*
D03*
X520000Y180000D02*
D03*
X530000Y160000D02*
D03*
X520000Y140000D02*
D03*
X530000Y80000D02*
D03*
X520000Y60000D02*
D03*
X530000Y40000D02*
D03*
X520000Y20000D02*
D03*
X510000Y280000D02*
D03*
Y240000D02*
D03*
X500000Y220000D02*
D03*
Y180000D02*
D03*
Y140000D02*
D03*
Y100000D02*
D03*
X510000Y80000D02*
D03*
X500000Y60000D02*
D03*
X510000Y40000D02*
D03*
X500000Y20000D02*
D03*
X490000Y280000D02*
D03*
X480000Y260000D02*
D03*
Y220000D02*
D03*
X490000Y200000D02*
D03*
Y160000D02*
D03*
X480000Y140000D02*
D03*
Y100000D02*
D03*
Y20000D02*
D03*
X470000Y160000D02*
D03*
X460000Y140000D02*
D03*
Y100000D02*
D03*
Y20000D02*
D03*
X450000Y280000D02*
D03*
Y200000D02*
D03*
X440000Y100000D02*
D03*
Y60000D02*
D03*
Y20000D02*
D03*
X420000Y100000D02*
D03*
Y60000D02*
D03*
X430000Y40000D02*
D03*
X420000Y20000D02*
D03*
X400000Y260000D02*
D03*
X410000Y240000D02*
D03*
X400000Y220000D02*
D03*
Y140000D02*
D03*
Y100000D02*
D03*
Y60000D02*
D03*
X410000Y40000D02*
D03*
X400000Y20000D02*
D03*
X390000Y240000D02*
D03*
X380000Y180000D02*
D03*
X390000Y120000D02*
D03*
X380000Y100000D02*
D03*
Y20000D02*
D03*
X370000Y240000D02*
D03*
X360000Y180000D02*
D03*
X370000Y160000D02*
D03*
Y120000D02*
D03*
X360000Y100000D02*
D03*
Y20000D02*
D03*
X350000Y280000D02*
D03*
Y240000D02*
D03*
Y200000D02*
D03*
Y160000D02*
D03*
Y120000D02*
D03*
X340000Y100000D02*
D03*
Y60000D02*
D03*
Y20000D02*
D03*
X320000Y260000D02*
D03*
X330000Y240000D02*
D03*
X320000Y220000D02*
D03*
X330000Y160000D02*
D03*
Y120000D02*
D03*
X320000Y100000D02*
D03*
X330000Y80000D02*
D03*
X320000Y60000D02*
D03*
X330000Y40000D02*
D03*
X320000Y20000D02*
D03*
X310000Y280000D02*
D03*
X300000Y260000D02*
D03*
X310000Y240000D02*
D03*
X300000Y220000D02*
D03*
X310000Y200000D02*
D03*
Y160000D02*
D03*
Y120000D02*
D03*
X300000Y100000D02*
D03*
X310000Y80000D02*
D03*
X300000Y60000D02*
D03*
X310000Y40000D02*
D03*
X300000Y20000D02*
D03*
X290000Y280000D02*
D03*
X280000Y260000D02*
D03*
X290000Y240000D02*
D03*
X280000Y220000D02*
D03*
X290000Y200000D02*
D03*
Y160000D02*
D03*
Y120000D02*
D03*
X280000Y100000D02*
D03*
X290000Y80000D02*
D03*
X280000Y60000D02*
D03*
X290000Y40000D02*
D03*
X280000Y20000D02*
D03*
X270000Y280000D02*
D03*
X260000Y260000D02*
D03*
X270000Y240000D02*
D03*
X260000Y220000D02*
D03*
X270000Y200000D02*
D03*
Y160000D02*
D03*
Y120000D02*
D03*
X260000Y100000D02*
D03*
X270000Y80000D02*
D03*
X260000Y60000D02*
D03*
Y20000D02*
D03*
X250000Y280000D02*
D03*
X240000Y260000D02*
D03*
X250000Y240000D02*
D03*
X240000Y220000D02*
D03*
X250000Y200000D02*
D03*
Y160000D02*
D03*
Y120000D02*
D03*
X240000Y100000D02*
D03*
X250000Y80000D02*
D03*
X240000Y60000D02*
D03*
X250000Y40000D02*
D03*
X240000Y20000D02*
D03*
X230000Y280000D02*
D03*
X220000Y260000D02*
D03*
X230000Y240000D02*
D03*
X220000Y220000D02*
D03*
X230000Y200000D02*
D03*
Y160000D02*
D03*
X220000Y100000D02*
D03*
X230000Y80000D02*
D03*
X220000Y60000D02*
D03*
X230000Y40000D02*
D03*
X220000Y20000D02*
D03*
X210000Y280000D02*
D03*
X200000Y260000D02*
D03*
X210000Y240000D02*
D03*
X200000Y220000D02*
D03*
X210000Y200000D02*
D03*
X200000Y100000D02*
D03*
X210000Y80000D02*
D03*
X200000Y60000D02*
D03*
X190000Y280000D02*
D03*
X180000Y260000D02*
D03*
X190000Y240000D02*
D03*
X180000Y220000D02*
D03*
X190000Y200000D02*
D03*
Y80000D02*
D03*
X180000Y60000D02*
D03*
Y20000D02*
D03*
X170000Y280000D02*
D03*
X160000Y260000D02*
D03*
X170000Y240000D02*
D03*
X160000Y220000D02*
D03*
X170000Y200000D02*
D03*
X160000Y180000D02*
D03*
Y140000D02*
D03*
Y100000D02*
D03*
X170000Y80000D02*
D03*
X160000Y60000D02*
D03*
X170000Y40000D02*
D03*
X160000Y20000D02*
D03*
X150000Y280000D02*
D03*
X140000Y260000D02*
D03*
X150000Y240000D02*
D03*
X140000Y220000D02*
D03*
X150000Y200000D02*
D03*
X140000Y180000D02*
D03*
X150000Y160000D02*
D03*
X140000Y140000D02*
D03*
X150000Y120000D02*
D03*
X140000Y100000D02*
D03*
X150000Y80000D02*
D03*
X140000Y60000D02*
D03*
X150000Y40000D02*
D03*
X140000Y20000D02*
D03*
X130000Y280000D02*
D03*
X120000Y260000D02*
D03*
X130000Y240000D02*
D03*
X120000Y220000D02*
D03*
X130000Y200000D02*
D03*
X120000Y180000D02*
D03*
X130000Y160000D02*
D03*
X120000Y140000D02*
D03*
X130000Y120000D02*
D03*
X120000Y100000D02*
D03*
X130000Y80000D02*
D03*
X120000Y60000D02*
D03*
Y20000D02*
D03*
X110000Y280000D02*
D03*
X100000Y260000D02*
D03*
X110000Y240000D02*
D03*
X100000Y220000D02*
D03*
X110000Y200000D02*
D03*
X100000Y180000D02*
D03*
X110000Y160000D02*
D03*
X100000Y140000D02*
D03*
X110000Y120000D02*
D03*
X100000Y100000D02*
D03*
X110000Y80000D02*
D03*
X100000Y60000D02*
D03*
X110000Y40000D02*
D03*
X100000Y20000D02*
D03*
X90000Y280000D02*
D03*
X80000Y260000D02*
D03*
X90000Y240000D02*
D03*
X80000Y220000D02*
D03*
X90000Y200000D02*
D03*
X80000Y180000D02*
D03*
X90000Y160000D02*
D03*
X80000Y140000D02*
D03*
X90000Y120000D02*
D03*
X80000Y100000D02*
D03*
X90000Y80000D02*
D03*
X80000Y60000D02*
D03*
X90000Y40000D02*
D03*
X80000Y20000D02*
D03*
X70000Y280000D02*
D03*
X60000Y260000D02*
D03*
X70000Y240000D02*
D03*
X60000Y220000D02*
D03*
X70000Y200000D02*
D03*
X60000Y180000D02*
D03*
X70000Y160000D02*
D03*
X60000Y140000D02*
D03*
X70000Y120000D02*
D03*
X60000Y100000D02*
D03*
X70000Y80000D02*
D03*
X60000Y60000D02*
D03*
X70000Y40000D02*
D03*
X60000Y20000D02*
D03*
X50000Y280000D02*
D03*
Y240000D02*
D03*
X40000Y220000D02*
D03*
X50000Y200000D02*
D03*
X40000Y180000D02*
D03*
X50000Y160000D02*
D03*
X40000Y140000D02*
D03*
X50000Y120000D02*
D03*
X40000Y100000D02*
D03*
X50000Y80000D02*
D03*
X40000Y60000D02*
D03*
X50000Y40000D02*
D03*
X30000Y240000D02*
D03*
X20000Y220000D02*
D03*
X30000Y200000D02*
D03*
X20000Y180000D02*
D03*
X30000Y160000D02*
D03*
X20000Y140000D02*
D03*
X30000Y120000D02*
D03*
X20000Y100000D02*
D03*
X30000Y80000D02*
D03*
X20000Y60000D02*
D03*
X450000Y100000D02*
D03*
X410000D02*
D03*
X370000D02*
D03*
X365000D02*
D03*
X445000D02*
D03*
X405000D02*
D03*
X435000D02*
D03*
X475000D02*
D03*
X355000D02*
D03*
X395000D02*
D03*
X470000D02*
D03*
X430000D02*
D03*
X390000D02*
D03*
X350000D02*
D03*
X465000D02*
D03*
X425000D02*
D03*
X385000D02*
D03*
X415000D02*
D03*
X455000D02*
D03*
X375000D02*
D03*
X345000D02*
D03*
X192500Y145000D02*
D03*
X187500Y140000D02*
D03*
X192500Y125000D02*
D03*
X187500Y130000D02*
D03*
X185000Y135000D02*
D03*
X180000D02*
D03*
X229000Y127000D02*
D03*
X223000Y129000D02*
D03*
X218000D02*
D03*
X212500Y127500D02*
D03*
X207500Y125000D02*
D03*
X229000Y143000D02*
D03*
X223000Y141000D02*
D03*
X218000D02*
D03*
X212500Y142500D02*
D03*
X207500Y145000D02*
D03*
X230000Y115000D02*
D03*
X227500Y110000D02*
D03*
X222500Y105000D02*
D03*
X217500D02*
D03*
X212500D02*
D03*
X207500Y110000D02*
D03*
D03*
X425000Y240000D02*
D03*
Y245000D02*
D03*
Y250000D02*
D03*
X495000Y249000D02*
D03*
X490000Y250000D02*
D03*
X480000D02*
D03*
X485000D02*
D03*
X475000Y247000D02*
D03*
X470000D02*
D03*
X465000D02*
D03*
X460000D02*
D03*
X455000D02*
D03*
X450000Y250000D02*
D03*
X465000Y232500D02*
D03*
X460000D02*
D03*
X455000D02*
D03*
X450000Y230000D02*
D03*
X425000Y235000D02*
D03*
Y230000D02*
D03*
Y225000D02*
D03*
X350000D02*
D03*
Y230000D02*
D03*
Y235000D02*
D03*
X345000D02*
D03*
X340000D02*
D03*
X335000D02*
D03*
X330000D02*
D03*
X325000D02*
D03*
Y230000D02*
D03*
Y225000D02*
D03*
X480000Y230000D02*
D03*
X475000D02*
D03*
X470000Y232500D02*
D03*
X475000Y195000D02*
D03*
Y190000D02*
D03*
Y185000D02*
D03*
Y180000D02*
D03*
X472000Y170000D02*
D03*
X467000Y165000D02*
D03*
X455000Y160000D02*
D03*
X416000Y185000D02*
D03*
X405000Y180000D02*
D03*
X411000Y185000D02*
D03*
X400000Y175000D02*
D03*
X395000Y170000D02*
D03*
X390000Y165000D02*
D03*
X385000Y160000D02*
D03*
X380000Y155000D02*
D03*
X375000Y150000D02*
D03*
X395000Y140000D02*
D03*
X390000Y135000D02*
D03*
X385000Y130000D02*
D03*
X380000Y125000D02*
D03*
X370000Y145000D02*
D03*
X365000D02*
D03*
X360000D02*
D03*
X355000D02*
D03*
X350000D02*
D03*
X345000D02*
D03*
X340000D02*
D03*
X335000D02*
D03*
X330000D02*
D03*
X325000D02*
D03*
X320000D02*
D03*
X315000D02*
D03*
X310000D02*
D03*
X305000D02*
D03*
X300000D02*
D03*
X295000D02*
D03*
X290000D02*
D03*
X285000D02*
D03*
X280000D02*
D03*
X275000D02*
D03*
X270000D02*
D03*
X265000D02*
D03*
X260000D02*
D03*
X255000D02*
D03*
X250000D02*
D03*
X245000D02*
D03*
X240000D02*
D03*
X235000D02*
D03*
D03*
X232500Y150000D02*
D03*
X230000Y155000D02*
D03*
X375000Y125000D02*
D03*
X370000D02*
D03*
X365000D02*
D03*
X360000D02*
D03*
X355000D02*
D03*
X350000D02*
D03*
X345000D02*
D03*
D03*
D03*
X340000D02*
D03*
X335000D02*
D03*
X330000D02*
D03*
X325000D02*
D03*
X320000D02*
D03*
X315000D02*
D03*
X310000D02*
D03*
X305000D02*
D03*
X300000D02*
D03*
X295000D02*
D03*
X290000D02*
D03*
X285000D02*
D03*
X280000D02*
D03*
X275000D02*
D03*
X270000D02*
D03*
X265000D02*
D03*
X260000D02*
D03*
X255000D02*
D03*
X250000D02*
D03*
X245000D02*
D03*
X240000D02*
D03*
X235000D02*
D03*
D03*
X232500Y120000D02*
D03*
X205000Y115000D02*
D03*
X167500Y157500D02*
D03*
Y150000D02*
D03*
X170000Y142500D02*
D03*
X175000Y137500D02*
D03*
Y132500D02*
D03*
X170000Y127500D02*
D03*
X205000Y157500D02*
D03*
X525000Y120000D02*
D03*
X450000Y160000D02*
D03*
X445000D02*
D03*
X453000Y65000D02*
D03*
X350000Y220000D02*
D03*
Y215000D02*
D03*
Y210000D02*
D03*
Y205000D02*
D03*
Y195000D02*
D03*
Y190000D02*
D03*
Y185000D02*
D03*
Y175000D02*
D03*
Y180000D02*
D03*
X345000Y170000D02*
D03*
X340000Y165000D02*
D03*
X335000Y160000D02*
D03*
X325000D02*
D03*
X320000D02*
D03*
X315000D02*
D03*
X305000D02*
D03*
X300000D02*
D03*
X295000D02*
D03*
X285000D02*
D03*
X280000D02*
D03*
X275000D02*
D03*
X265000D02*
D03*
X260000D02*
D03*
X255000D02*
D03*
X245000D02*
D03*
X240000D02*
D03*
X235000D02*
D03*
X226000Y164000D02*
D03*
X220000Y166000D02*
D03*
X215000D02*
D03*
X210000D02*
D03*
X205000Y165000D02*
D03*
X200000D02*
D03*
X195000Y160000D02*
D03*
Y155000D02*
D03*
Y115000D02*
D03*
X185000Y180000D02*
D03*
X190000Y185000D02*
D03*
X195000D02*
D03*
X200000D02*
D03*
X205000D02*
D03*
X210000D02*
D03*
X215000D02*
D03*
X220000D02*
D03*
X230000D02*
D03*
X225000D02*
D03*
X235000D02*
D03*
X240000D02*
D03*
X245000D02*
D03*
X250000D02*
D03*
X255000D02*
D03*
X260000D02*
D03*
X265000D02*
D03*
X270000D02*
D03*
X280000D02*
D03*
X275000D02*
D03*
X285000D02*
D03*
X290000D02*
D03*
X295000D02*
D03*
X300000D02*
D03*
X310000D02*
D03*
X305000D02*
D03*
X315000D02*
D03*
X320000D02*
D03*
X325000Y190000D02*
D03*
Y195000D02*
D03*
Y200000D02*
D03*
Y205000D02*
D03*
Y210000D02*
D03*
Y215000D02*
D03*
Y220000D02*
D03*
X180000Y175000D02*
D03*
X175000Y170000D02*
D03*
X170000Y165000D02*
D03*
X205000Y150000D02*
D03*
X200000D02*
D03*
X195000D02*
D03*
X205000Y120000D02*
D03*
X200000D02*
D03*
X445000Y290000D02*
D03*
X440000D02*
D03*
X435000D02*
D03*
X430000D02*
D03*
X425000D02*
D03*
Y285000D02*
D03*
Y280000D02*
D03*
Y275000D02*
D03*
Y270000D02*
D03*
Y260000D02*
D03*
Y265000D02*
D03*
Y255000D02*
D03*
X190000Y25000D02*
D03*
X185000Y35000D02*
D03*
X190000Y45000D02*
D03*
X200000Y50000D02*
D03*
X210000Y45000D02*
D03*
X215000Y35000D02*
D03*
X210000Y25000D02*
D03*
X200000Y20000D02*
D03*
X460000Y38000D02*
D03*
X453000Y45000D02*
D03*
X387500Y65000D02*
D03*
X450000Y55000D02*
D03*
X460000Y72000D02*
D03*
X469500Y75000D02*
D03*
X480000Y72000D02*
D03*
X487000Y65000D02*
D03*
X490000Y55000D02*
D03*
X487000Y45000D02*
D03*
X479500Y37500D02*
D03*
X469500Y35000D02*
D03*
X360000Y37500D02*
D03*
X352500Y45000D02*
D03*
X350000Y55000D02*
D03*
X352500Y65000D02*
D03*
X360000Y72500D02*
D03*
X370000Y75000D02*
D03*
X380000Y72500D02*
D03*
X390000Y55000D02*
D03*
X387500Y45000D02*
D03*
X380000Y37500D02*
D03*
X370000Y35000D02*
D03*
X425000Y220000D02*
D03*
Y215000D02*
D03*
Y210000D02*
D03*
Y200000D02*
D03*
Y205000D02*
D03*
Y195000D02*
D03*
Y190000D02*
D03*
X500000Y245000D02*
D03*
X505000Y240000D02*
D03*
X510000Y235000D02*
D03*
X515000Y230000D02*
D03*
X520000Y225000D02*
D03*
Y215000D02*
D03*
Y210000D02*
D03*
Y205000D02*
D03*
Y200000D02*
D03*
Y195000D02*
D03*
Y190000D02*
D03*
Y185000D02*
D03*
X450000Y225000D02*
D03*
Y220000D02*
D03*
Y210000D02*
D03*
Y215000D02*
D03*
Y205000D02*
D03*
Y195000D02*
D03*
Y190000D02*
D03*
X475000Y200000D02*
D03*
Y205000D02*
D03*
Y210000D02*
D03*
Y215000D02*
D03*
Y220000D02*
D03*
Y225000D02*
D03*
X485000Y230000D02*
D03*
X490000Y225000D02*
D03*
X495000Y220000D02*
D03*
X500000Y215000D02*
D03*
Y210000D02*
D03*
Y205000D02*
D03*
Y200000D02*
D03*
Y195000D02*
D03*
Y190000D02*
D03*
Y185000D02*
D03*
X520000Y175000D02*
D03*
Y170000D02*
D03*
Y165000D02*
D03*
Y160000D02*
D03*
Y155000D02*
D03*
Y150000D02*
D03*
Y145000D02*
D03*
X500000Y175000D02*
D03*
Y170000D02*
D03*
Y165000D02*
D03*
Y160000D02*
D03*
Y150000D02*
D03*
Y155000D02*
D03*
Y145000D02*
D03*
X520000Y135000D02*
D03*
Y130000D02*
D03*
Y125000D02*
D03*
Y120000D02*
D03*
X500000Y135000D02*
D03*
X505000Y100000D02*
D03*
X510000Y105000D02*
D03*
X515000Y110000D02*
D03*
X520000Y115000D02*
D03*
X530000Y125000D02*
D03*
Y130000D02*
D03*
Y135000D02*
D03*
Y140000D02*
D03*
Y145000D02*
D03*
Y150000D02*
D03*
Y155000D02*
D03*
Y165000D02*
D03*
Y170000D02*
D03*
Y175000D02*
D03*
Y180000D02*
D03*
Y185000D02*
D03*
Y190000D02*
D03*
Y195000D02*
D03*
Y205000D02*
D03*
Y210000D02*
D03*
Y215000D02*
D03*
Y220000D02*
D03*
Y225000D02*
D03*
Y230000D02*
D03*
Y235000D02*
D03*
Y245000D02*
D03*
X525000Y250000D02*
D03*
X520000Y255000D02*
D03*
X515000Y260000D02*
D03*
X510000D02*
D03*
X505000D02*
D03*
X500000D02*
D03*
X495000D02*
D03*
X490000D02*
D03*
X485000D02*
D03*
X480000Y255000D02*
D03*
X450000D02*
D03*
Y260000D02*
D03*
Y265000D02*
D03*
Y270000D02*
D03*
Y275000D02*
D03*
Y285000D02*
D03*
Y290000D02*
D03*
X455000D02*
D03*
X460000D02*
D03*
X465000D02*
D03*
X470000D02*
D03*
X475000D02*
D03*
Y285000D02*
D03*
Y280000D02*
D03*
X480000D02*
D03*
X485000D02*
D03*
X490000Y275000D02*
D03*
X495000D02*
D03*
X500000D02*
D03*
X505000D02*
D03*
X510000D02*
D03*
X515000D02*
D03*
X520000D02*
D03*
X525000D02*
D03*
X530000D02*
D03*
X535000Y270000D02*
D03*
X540000Y265000D02*
D03*
X545000Y260000D02*
D03*
X550000Y255000D02*
D03*
Y250000D02*
D03*
Y245000D02*
D03*
Y235000D02*
D03*
D03*
Y230000D02*
D03*
Y225000D02*
D03*
Y215000D02*
D03*
Y220000D02*
D03*
Y210000D02*
D03*
Y205000D02*
D03*
Y195000D02*
D03*
Y190000D02*
D03*
Y185000D02*
D03*
Y180000D02*
D03*
Y175000D02*
D03*
Y170000D02*
D03*
Y165000D02*
D03*
Y155000D02*
D03*
Y150000D02*
D03*
Y140000D02*
D03*
Y145000D02*
D03*
Y135000D02*
D03*
Y130000D02*
D03*
Y125000D02*
D03*
Y115000D02*
D03*
X545000Y110000D02*
D03*
X540000Y105000D02*
D03*
X535000Y100000D02*
D03*
X530000Y95000D02*
D03*
X525000Y90000D02*
D03*
X520000Y85000D02*
D03*
X515000Y80000D02*
D03*
X505000D02*
D03*
X500000D02*
D03*
X495000D02*
D03*
X490000D02*
D03*
X485000D02*
D03*
X480000D02*
D03*
X470000D02*
D03*
X465000D02*
D03*
X460000D02*
D03*
X450000D02*
D03*
X445000D02*
D03*
X440000D02*
D03*
X430000D02*
D03*
X425000D02*
D03*
X420000D02*
D03*
X410000D02*
D03*
X405000D02*
D03*
X400000D02*
D03*
X390000D02*
D03*
X385000D02*
D03*
X380000D02*
D03*
X370000D02*
D03*
X365000D02*
D03*
X350000D02*
D03*
X345000D02*
D03*
X340000D02*
D03*
X335000Y100000D02*
D03*
X330000D02*
D03*
X325000D02*
D03*
D03*
X360000Y80000D02*
D03*
X335000D02*
D03*
X375000D02*
D03*
X325000D02*
D03*
X320000D02*
D03*
X315000D02*
D03*
X310000Y100000D02*
D03*
X315000D02*
D03*
X305000D02*
D03*
Y80000D02*
D03*
X300000D02*
D03*
X295000D02*
D03*
Y100000D02*
D03*
X290000D02*
D03*
X285000D02*
D03*
Y80000D02*
D03*
X280000D02*
D03*
X275000D02*
D03*
Y100000D02*
D03*
X270000D02*
D03*
X265000D02*
D03*
Y80000D02*
D03*
X260000D02*
D03*
X255000D02*
D03*
Y100000D02*
D03*
X250000D02*
D03*
X245000D02*
D03*
Y80000D02*
D03*
X240000D02*
D03*
X235000D02*
D03*
Y100000D02*
D03*
X230000D02*
D03*
X225000D02*
D03*
X167500Y105000D02*
D03*
X195000Y120000D02*
D03*
Y110000D02*
D03*
X167500Y120000D02*
D03*
Y112500D02*
D03*
X195000Y105000D02*
D03*
X215000Y100000D02*
D03*
X210000D02*
D03*
X205000D02*
D03*
X225000Y80000D02*
D03*
X220000D02*
D03*
X215000D02*
D03*
X205000D02*
D03*
X200000D02*
D03*
X195000D02*
D03*
X185000Y85000D02*
D03*
X180000Y90000D02*
D03*
X175000Y95000D02*
D03*
X170000Y100000D02*
D03*
X45000Y270000D02*
D03*
X30000Y255000D02*
D03*
Y285000D02*
D03*
X20000Y280000D02*
D03*
X40000Y260000D02*
D03*
X15000Y270000D02*
D03*
X20000Y260000D02*
D03*
X40000Y280000D02*
D03*
X30000Y15000D02*
D03*
X15000Y30000D02*
D03*
X40000Y20000D02*
D03*
X30000Y45000D02*
D03*
X20000Y40000D02*
D03*
Y20000D02*
D03*
X45000Y30000D02*
D03*
X40000Y40000D02*
D03*
X570000Y45000D02*
D03*
X555000Y30000D02*
D03*
X580000Y20000D02*
D03*
Y40000D02*
D03*
X560000D02*
D03*
Y20000D02*
D03*
X585000Y30000D02*
D03*
X570000Y15000D02*
D03*
Y285000D02*
D03*
X555000Y270000D02*
D03*
X580000Y260000D02*
D03*
Y280000D02*
D03*
X585000Y270000D02*
D03*
X560000Y260000D02*
D03*
X570000Y255000D02*
D03*
X560000Y280000D02*
D03*
D29*
X438000Y240000D02*
D03*
X480000Y268000D02*
D03*
X438000Y188000D02*
D03*
X464000D02*
D03*
X336000D02*
D03*
M02*
