G04*
G04 #@! TF.GenerationSoftware,Altium Limited,Altium Designer,25.8.1 (18)*
G04*
G04 Layer_Color=65535*
%FSLAX44Y44*%
%MOMM*%
G71*
G04*
G04 #@! TF.SameCoordinates,C19CE461-91EB-44EE-881C-4A3BDBF79EA7*
G04*
G04*
G04 #@! TF.FilePolarity,Positive*
G04*
G01*
G75*
%ADD10C,0.8000*%
%ADD11C,0.2540*%
%ADD12C,0.3000*%
D10*
X494000Y190000D02*
G03*
X494000Y190000I-4000J0D01*
G01*
D11*
X340000Y0D02*
X500000D01*
X110000D02*
X290000D01*
X222697Y275236D02*
X220158Y277775D01*
X215079D01*
X212540Y275236D01*
Y265079D01*
X215079Y262540D01*
X220158D01*
X222697Y265079D01*
X230314Y262540D02*
X235393D01*
X237932Y265079D01*
Y270158D01*
X235393Y272697D01*
X230314D01*
X227775Y270158D01*
Y265079D01*
X230314Y262540D01*
X243010D02*
Y272697D01*
X245549D01*
X248088Y270158D01*
Y262540D01*
Y270158D01*
X250628Y272697D01*
X253167Y270158D01*
Y262540D01*
X258245D02*
Y272697D01*
X260784D01*
X263324Y270158D01*
Y262540D01*
Y270158D01*
X265863Y272697D01*
X268402Y270158D01*
Y262540D01*
X276019D02*
X281098D01*
X283637Y265079D01*
Y270158D01*
X281098Y272697D01*
X276019D01*
X273480Y270158D01*
Y265079D01*
X276019Y262540D01*
X288715D02*
Y272697D01*
X296333D01*
X298872Y270158D01*
Y262540D01*
X522540Y162540D02*
Y172697D01*
X527618Y177775D01*
X532697Y172697D01*
Y162540D01*
Y170158D01*
X522540D01*
X537775Y162540D02*
Y172697D01*
X545393D01*
X547932Y170158D01*
Y162540D01*
X555549D02*
X560628D01*
X563167Y165079D01*
Y170158D01*
X560628Y172697D01*
X555549D01*
X553010Y170158D01*
Y165079D01*
X555549Y162540D01*
X578402Y177775D02*
Y162540D01*
X570784D01*
X568245Y165079D01*
Y170158D01*
X570784Y172697D01*
X578402D01*
X591098Y162540D02*
X586020D01*
X583480Y165079D01*
Y170158D01*
X586020Y172697D01*
X591098D01*
X593637Y170158D01*
Y167618D01*
X583480D01*
X492540Y227775D02*
Y212540D01*
X500158D01*
X502697Y215079D01*
Y217618D01*
X500158Y220158D01*
X492540D01*
X500158D01*
X502697Y222697D01*
Y225236D01*
X500158Y227775D01*
X492540D01*
X510314Y212540D02*
X515393D01*
X517932Y215079D01*
Y220158D01*
X515393Y222697D01*
X510314D01*
X507775Y220158D01*
Y215079D01*
X510314Y212540D01*
X525549Y225236D02*
Y222697D01*
X523010D01*
X528088D01*
X525549D01*
Y215079D01*
X528088Y212540D01*
X502697Y255236D02*
X500158Y257775D01*
X495079D01*
X492540Y255236D01*
Y245079D01*
X495079Y242540D01*
X500158D01*
X502697Y245079D01*
X510314Y252697D02*
X515393D01*
X517932Y250158D01*
Y242540D01*
X510314D01*
X507775Y245079D01*
X510314Y247618D01*
X517932D01*
X525549Y255236D02*
Y252697D01*
X523010D01*
X528088D01*
X525549D01*
Y245079D01*
X528088Y242540D01*
X535706Y257775D02*
Y242540D01*
Y250158D01*
X538245Y252697D01*
X543324D01*
X545863Y250158D01*
Y242540D01*
X553480D02*
X558559D01*
X561098Y245079D01*
Y250158D01*
X558559Y252697D01*
X553480D01*
X550941Y250158D01*
Y245079D01*
X553480Y242540D01*
X576333Y257775D02*
Y242540D01*
X568715D01*
X566176Y245079D01*
Y250158D01*
X568715Y252697D01*
X576333D01*
X589029Y242540D02*
X583950D01*
X581411Y245079D01*
Y250158D01*
X583950Y252697D01*
X589029D01*
X591568Y250158D01*
Y247618D01*
X581411D01*
X522540Y152853D02*
X532697D01*
X527618D01*
Y137618D01*
X540314D02*
X545393D01*
X547932Y140157D01*
Y145236D01*
X545393Y147775D01*
X540314D01*
X537775Y145236D01*
Y140157D01*
X540314Y137618D01*
X553010Y132540D02*
Y147775D01*
X560628D01*
X563167Y145236D01*
Y140157D01*
X560628Y137618D01*
X553010D01*
X7540Y227618D02*
Y242853D01*
X12618Y237775D01*
X17697Y242853D01*
Y227618D01*
X22775D02*
X27853D01*
X25314D01*
Y242853D01*
X22775Y240314D01*
X45628Y227618D02*
X35471D01*
X45628Y237775D01*
Y240314D01*
X43088Y242853D01*
X38010D01*
X35471Y240314D01*
X71019Y227618D02*
X65941Y232697D01*
Y237775D01*
X71019Y242853D01*
X78637Y227618D02*
X83715D01*
X81176D01*
Y242853D01*
X78637Y240314D01*
X93872Y225079D02*
X96411Y227618D01*
Y230158D01*
X93872D01*
Y227618D01*
X96411D01*
X93872Y225079D01*
X91333Y222540D01*
X114185Y227618D02*
Y242853D01*
X106568Y235236D01*
X116725D01*
X124342Y225079D02*
X126881Y227618D01*
Y230158D01*
X124342D01*
Y227618D01*
X126881D01*
X124342Y225079D01*
X121803Y222540D01*
X147195Y242853D02*
X137038D01*
Y235236D01*
X142116Y237775D01*
X144656D01*
X147195Y235236D01*
Y230158D01*
X144656Y227618D01*
X139577D01*
X137038Y230158D01*
X152273Y227618D02*
X157352Y232697D01*
Y237775D01*
X152273Y242853D01*
X164969Y235236D02*
X175126D01*
X195439Y242853D02*
Y227618D01*
X203057D01*
X205596Y230158D01*
Y232697D01*
X203057Y235236D01*
X195439D01*
X203057D01*
X205596Y237775D01*
Y240314D01*
X203057Y242853D01*
X195439D01*
X210674Y227618D02*
Y242853D01*
X220831Y227618D01*
Y242853D01*
X236066Y240314D02*
X233527Y242853D01*
X228449D01*
X225909Y240314D01*
Y230158D01*
X228449Y227618D01*
X233527D01*
X236066Y230158D01*
X507461Y287617D02*
X502383D01*
X504922D01*
Y274922D01*
X502383Y272383D01*
X499843D01*
X497304Y274922D01*
X512539Y285078D02*
X515078Y287617D01*
X520157D01*
X522696Y285078D01*
Y282539D01*
X520157Y280000D01*
X517617D01*
X520157D01*
X522696Y277461D01*
Y274922D01*
X520157Y272383D01*
X515078D01*
X512539Y274922D01*
D12*
X438000Y258000D02*
Y260000D01*
Y198000D02*
Y200000D01*
Y162000D02*
Y198000D01*
X280000Y220000D02*
Y250000D01*
Y220000D02*
X290000Y210000D01*
X320000D01*
X480000Y270000D02*
X490000Y260000D01*
X480000Y240000D02*
X490000Y230000D01*
X438000Y240000D02*
X480000D01*
X438000D02*
Y258000D01*
X470000Y170000D02*
X520000D01*
X464000Y176000D02*
X470000Y170000D01*
X464000Y176000D02*
Y200000D01*
X460000Y140000D02*
X520000D01*
X438000Y162000D02*
X460000Y140000D01*
X480000Y190000D02*
Y290000D01*
X320000D02*
X480000D01*
X320000Y190000D02*
Y290000D01*
Y190000D02*
X480000D01*
M02*
