M48
;Layer_Color=9474304
;FILE_FORMAT=4:4
METRIC,LZ
;TYPE=PLATED
T01F00S00C0.3000
T02F00S00C0.8900
T03F00S00C1.1000
T04F00S00C1.2000
T05F00S00C1.8000
T06F00S00C2.0100
T07F00S00C2.5000
%
T01
X0002Y0002
X0003Y00015
X0004Y0002
X00045Y0003
X0004Y0004
X0005Y0004
X0007
X0009
X0008Y0006
X0006
X0004
X0002
X0002Y0004
X0003Y00045
X00015Y0003
X0006Y0002
X0008
X0009Y0008
X0007
X0005
X0003
X0011
X0013
X0015
X0017
X0018Y0009
X00175Y00095
X00185Y00085
X0019Y0008
X00195Y0008
X002
X00205
X0021Y0008
X00215Y0008
X0022
X00225
X0023Y0008
X00235Y0008
X0024
X00245
X0025Y0008
X00255Y0008
X0026
X00265
X0027Y0008
X00275Y0008
X0028
X00285
X0029Y0008
X00295Y0008
X003
X00305
X0031Y0008
X00315Y0008
X0032
X00325
X0033Y0008
X00335Y0008
X0034
X00345
X0035
X00355
X0036
X00365
X0037
Y00075
X00375Y0008
X0038
X00385
X0039
X00395
X004
X00405
X0041
X00415
X0042
X00425
X0043
X00435
X0044
X00445
X0045
X00455
X0046
X00465
X0047
X00475
X0048
X00485
X0049
X0048Y00072
X004695Y00075
X0046Y00072
X00453Y00065
X0045Y00055
X00453Y00045
X0046Y00038
X004695Y00035
X004795Y000375
X00487Y00045
X0049Y00055
X00487Y00065
X0048Y0002
X0046
X0044
X0042
X004
X0038
X0038Y000375
X0037Y00035
X0036Y000375
X003525Y00045
X0035Y00055
X003525Y00065
X0036Y000725
X0038
X003875Y00065
X0039Y00055
X003875Y00045
X0041Y0004
X0043
X0044Y0006
X0042
X004
X0034
X0032
X003
X0028
X0026
X0024
X0022
X002
X002Y0005
X0019Y00045
X00185Y00035
X0019Y00025
X0018Y0002
X002Y0002
X0021Y00025
X00215Y00035
X0021Y00045
X0023Y0004
X0025
X0026Y0002
X0028
X003
X0032
X0034
X0036
X0033Y0004
X0031
X0029
X0024Y0002
X0022
X0016
X0014
X0012
X001
X0011Y0004
X0012Y0006
X0014
X0016
X0018
X0017Y0004
X0015
X001Y0006
X005
X0052
X0054
X0056
X0058
X0058Y0004
X0059Y0004
X00585Y0003
X0058Y0002
X0057Y00015
X0056Y0002
X00555Y0003
X0055Y0004
X0056Y0004
X0057Y00045
X0057Y0008
X0059
X0055
X0053
X0053Y00095
X00525Y0009
X0052Y00085
X00515Y0008
X0051Y0008
X00505Y0008
X005
X00495
X0051Y0004
X0053
X0054Y0002
X0052
X005
Y001
X00505Y001
X0051Y00105
Y0011
X00505
X005
X00495
Y001
Y0013
X005Y00135
X005Y0014
X005Y00145
Y0015
Y00155
Y0016
Y00165
Y0017
Y00175
X005Y0018
X005Y00185
Y0019
Y00195
Y002
Y00205
Y0021
Y00215
X005Y0022
X00495Y0022
X0052Y0022
X0052Y00225
X00515Y0023
X0051Y00235
X0051Y0024
X00505Y0024
X005Y00245
X00495Y00249
Y0026
X005
X00505
X0051
X00515
X0052Y0026
X0052Y00255
X00525Y0025
X0053Y00245
X0053Y0024
X0053Y00235
Y0023
Y00225
Y0022
Y00215
Y0021
Y00205
X0053Y002
X0053Y00195
Y0019
Y00185
Y0018
Y00175
Y0017
Y00165
X0053Y0016
X0053Y00155
Y0015
Y00145
Y0014
Y00135
Y0013
Y00125
X0052
Y0013
Y00135
X0052Y0014
X0052Y00145
Y0015
Y00155
Y0016
Y00165
Y0017
Y00175
X0052Y0018
X0052Y00185
Y0019
Y00195
Y002
Y00205
Y0021
Y00215
X0055
Y0022
Y00225
Y0023
Y00235
X0055Y0024
X0055Y00245
Y0025
Y00255
X00545Y0026
X0054Y00265
X00535Y0027
X0053Y00275
X00525
X0052
X00515
X0051
X00505
X005
X00495
X0051Y0028
X0053
X0055
X0056Y0028
X0057Y00285
X0058Y0028
X0059Y0028
X00585Y0027
X0058Y0026
X0057Y00255
X0056Y0026
X00555Y0027
X0057Y0024
X0059
X0058Y0022
X0056
X0055Y0021
Y00205
X0055Y002
X0055Y00195
Y0019
Y00185
Y0018
Y00175
Y0017
Y00165
X0055Y0016
X0055Y00155
Y0015
Y00145
Y0014
Y00135
Y0013
Y00125
X0055Y0012
X0055Y00115
X00545Y0011
X0054Y00105
X0054Y001
X00535Y001
X0056Y001
X0058
X0059Y0012
X0057
X0058Y0014
X0056
X0057Y0016
X0059
X0058Y0018
X0056
X0057Y002
X0059
X00525Y0012
X0052
Y00115
X00515Y0011
X0049
X00485
X0048
X00475
X0047
X00465
X0046
X00455
X0045
X00445
X0044
X00435
X0043
Y001
X00435
X0044Y001
X00445Y001
X0045
X00455
X0046Y001
X00465Y001
X0047
X00475
X0048Y001
X00485Y001
X0049
Y0013
X00485
X0048
X00475
X0047
X00465
X0046
X00455
X0045
X00445
X0044
X00435
X0043
X00425
X0042
X00415
X0041
Y00135
X00405Y0014
X004Y0014
X00395Y0014
X0039Y00135
X00385Y0013
X0038Y00125
X00375
X0037
X00365
X0036
X00355
X0035
X00345
X0034
X00335
X0033
X00325
X0032
X00315
X0031
X00305
X003
X00295
X0029
X00285
X0028
X00275
X0027
X00265
X0026
X00255
X0025
X00245
X0024
X00235
X002325Y0012
X0023Y00115
X002275Y0011
X002225Y00105
X002175
X002125
X00215Y001
X0021
X00205
X002Y001
X00195Y00105
Y0011
Y00115
Y0012
X002
X00205
Y00115
X002075Y0011
Y00125
X002125Y001275
X00218Y00129
X00223
X00229Y00127
Y00143
X00223Y00141
X00218
X002125Y001425
X002075Y00145
X00205Y0015
X002
X00195
Y00155
Y0016
X002Y00165
X00205
X0021Y00166
X00215
X0022
X00226Y00164
X0023Y0016
X00235Y0016
X0024
X00245
X0025Y0016
X00255Y0016
X0026
X00265
X0027Y0016
X00275Y0016
X0028
X00285
X0029Y0016
X00295Y0016
X003
X00305
X0031Y0016
X00315Y0016
X0032
X00325
X0033Y0016
X00335Y0016
X0034Y00165
X00345Y0017
X0035Y00175
Y0018
Y00185
Y0019
Y00195
X0035Y002
X0035Y00205
Y0021
Y00215
Y0022
Y00225
Y0023
Y00235
X00345
X0034
X00335
X0033
X00325
Y0023
Y00225
Y0022
X0032Y0022
X00325Y00215
Y0021
Y00205
Y002
Y00195
Y0019
X0032Y00185
X00315
X0031
X00305
X003
X00295
X0029
X00285
X0028
X00275
X0027
X00265
X0026
X00255
X0025
X00245
X0024
X00235
X0023
X00225
X0022
X00215
X0021
X00205
X002
X00195
X0019
X00185Y0018
X0018Y00175
X00175Y0017
X0017Y00165
X001675Y001575
Y0015
X0017Y001425
X00175Y001375
Y001325
X0018Y00135
X00185
X001875Y0014
X001925Y00145
Y00125
X001875Y0013
X0017Y001275
X001675Y0012
Y001125
Y00105
X0017Y001
X0016Y001
X0014
X0012
X001
X0011Y0012
X0013
X0015
X0016Y0014
X0014
X0012
X001
X0011Y0016
X0013
X0015
X0016Y0018
X0014
X0012
X001
X0011Y002
X0013
X0015
X0017
X0019
X0021
X0023
X0025
X0027
X0029
X0031
X003Y0022
X0028
X0026
X0024
X0022
X002
X0018
X0016
X0014
X0012
X001
X0011Y0024
X0013
X0015
X0017
X0019
X0021
X0023
X0025
X0027
X0029
X0031
X0033
X0035
X0037
X0039
X0041
X00425Y0024
Y00245
Y0025
Y00255
Y0026
Y00265
Y0027
Y00275
Y0028
Y00285
Y0029
X0043
X00435
X0044
X00445
X0045
Y00285
X0045Y0028
X0045Y00275
Y0027
Y00265
Y0026
Y00255
Y0025
X00455Y00247
X0046
X00465
X0047
X00475
X0048Y0025
X00485
X0049
Y0026
X00485
X0048Y0026
X0048Y00255
Y00268
Y0028
X00485
X0049Y0028
X0049Y00275
X00475Y0028
Y00285
Y0029
X0047
X00465
X0046
X00455
Y002325
X0046
X00465
X0047
X00475Y0023
Y00225
Y0022
Y00215
Y0021
Y00205
Y002
Y00195
Y0019
Y00185
Y0018
Y00175
X00472Y0017
X00467Y00165
X0047Y0016
X00462Y0016
X00455
X0045
X00445
X0044
X00435Y00155
X004325Y0015
Y00145
Y0014
Y00135
X0046Y0014
X0048
X0049Y0016
Y002
X0049Y00225
X00485Y0023
X0048
X0048Y0022
X0045Y0022
Y00215
Y0021
Y00205
X0045Y002
X0045Y00195
Y0019
Y00185
Y0018
X00438Y00188
X00425Y0019
Y00195
Y002
Y00205
Y0021
Y00215
Y0022
Y00225
Y0023
Y00235
X00438Y0024
X0045Y0023
Y00225
X00464Y00188
X00421Y00185
X00416
X00411
X00405Y0018
X004Y00175
X00395Y0017
X0039Y00165
X00385Y0016
X0038Y00155
X00375Y0015
X0037Y00145
X00365
X0036
X00355
X0035
X00345
X0034
X00335
X0033
X00325
X0032
X00315
X0031
X00305
X003
X00295
X0029
X00285
X0028
X00275
X0027
X00265
X0026
X00255
X0025
X00245
X0024
X00235
X002325Y0015
X0023Y00155
X00205Y001575
X0022Y001
X00225Y001
X0023
X00235
X0024Y001
X00245Y001
X0025
X00255
X0026Y001
X00265Y001
X0027
X00275
X0028Y001
X00285Y001
X0029
X00295
X003Y001
X00305Y001
X0031
X00315
X0032Y001
X00325Y001
X0033
X00335
X0034Y001
X00345Y001
X0035
X00355
X0036Y001
X00365Y001
X0037
X00375
X0038Y001
X00385Y001
X0039
X00395
X004Y001
X00405Y001
X0041
X00415
X00415Y00105
X0042
X00425
Y001
X0042Y001
X0041Y0011
X00405Y00115
Y0012
Y00125
X0039Y0012
X0037
X0035
X0033
X0031
X0029
X0027
X0025
X0035Y0016
X0037
X0038Y0018
X0036
X00336Y00188
X0032Y0026
X003
X0028
X0026
X0024
X0022
X002
X0018
X0016
X0014
X0012
X001
X0011Y0028
X0013
X0015
X0017
X0019
X0021
X0023
X0025
X0027
X0029
X0031
X0035
X004Y0026
Y0022
X0008
X0006
X0004
X0002
X0003Y0024
X0003Y00255
X0002Y0026
X00015Y0027
X0002Y0028
X0003Y00285
X0004Y0028
X0005Y0028
X00045Y0027
X0004Y0026
X0006Y0026
X0008
X0009Y0028
X0007
Y0024
X0009
Y002
X0007
X0005
X0003
X0004Y0018
X0006
X0008
X0009Y0016
X0007
X0005
X0003
X0004Y0014
X0006
X0008
X0009Y0012
X0007
X0005
X0003
X0004Y001
X0006
X0008
X0002
Y0014
Y0018
X0005Y0024
T02
X0042Y001191
Y001445
X004454
T03
X00182Y00117
X002Y00135
X00218Y00117
Y00153
X00182
T04
X002Y00035
T05
X00125Y00045
X00275
T06
X003692Y000556
X004708
T07
X0003Y0003
X0057
Y0027
X0003
M30
