G04*
G04 #@! TF.GenerationSoftware,Altium Limited,Altium Designer,25.8.1 (18)*
G04*
G04 Layer_Physical_Order=4*
G04 Layer_Color=16711680*
%FSLAX44Y44*%
%MOMM*%
G71*
G04*
G04 #@! TF.SameCoordinates,FC58CDD3-E7A9-4F1C-8029-0497A79DBB12*
G04*
G04*
G04 #@! TF.FilePolarity,Positive*
G04*
G01*
G75*
%ADD27C,0.3493*%
%ADD28C,3.5000*%
%ADD29C,1.6000*%
%ADD30C,1.2000*%
%ADD31C,1.5000*%
%ADD32C,2.0000*%
%ADD33C,2.3000*%
%ADD34C,0.3000*%
%ADD35C,0.8000*%
G36*
X1300000Y0D02*
X0D01*
Y700000D01*
X1300000D01*
Y0D01*
D02*
G37*
%LPC*%
G36*
X542861Y588540D02*
X541139D01*
X539476Y588094D01*
X537984Y587233D01*
X537561Y586810D01*
X537389Y586705D01*
X537268Y586593D01*
X537235Y586569D01*
X537187Y586539D01*
X537115Y586505D01*
X537016Y586467D01*
X536884Y586428D01*
X536716Y586393D01*
X536562Y586371D01*
X262000D01*
X260327Y586038D01*
X258910Y585090D01*
X124910Y451091D01*
X123962Y449673D01*
X123630Y448000D01*
Y165414D01*
X123584Y165146D01*
X123479Y164775D01*
X123320Y164366D01*
X123100Y163919D01*
X122813Y163436D01*
X122476Y162950D01*
X121493Y161777D01*
X120896Y161164D01*
X120767Y160966D01*
X119966Y160165D01*
X118644Y157875D01*
X117960Y155322D01*
Y152678D01*
X118644Y150125D01*
X119966Y147836D01*
X121835Y145966D01*
X124125Y144644D01*
X126678Y143960D01*
X129322D01*
X131875Y144644D01*
X134165Y145966D01*
X136034Y147836D01*
X137356Y150125D01*
X138040Y152678D01*
Y155322D01*
X137356Y157875D01*
X136034Y160165D01*
X135233Y160966D01*
X135104Y161164D01*
X134483Y161801D01*
X133977Y162374D01*
X133546Y162920D01*
X133188Y163436D01*
X132900Y163919D01*
X132680Y164366D01*
X132521Y164775D01*
X132416Y165146D01*
X132371Y165414D01*
Y446190D01*
X263810Y577630D01*
X536562D01*
X536717Y577607D01*
X536884Y577572D01*
X537016Y577533D01*
X537115Y577495D01*
X537187Y577461D01*
X537235Y577431D01*
X537268Y577407D01*
X537389Y577295D01*
X537561Y577190D01*
X537984Y576767D01*
X539476Y575906D01*
X541139Y575460D01*
X542861D01*
X544524Y575906D01*
X546016Y576767D01*
X547233Y577984D01*
X548094Y579476D01*
X548540Y581139D01*
Y582861D01*
X548094Y584524D01*
X547233Y586016D01*
X546016Y587233D01*
X544524Y588094D01*
X542861Y588540D01*
D02*
G37*
G36*
X552000Y614370D02*
X252000D01*
X250327Y614038D01*
X248910Y613090D01*
X101910Y466090D01*
X100962Y464673D01*
X100630Y463000D01*
Y141000D01*
X100962Y139328D01*
X101910Y137910D01*
X116839Y122981D01*
X116996Y122759D01*
X117184Y122423D01*
X117361Y122021D01*
X117521Y121549D01*
X117660Y121004D01*
X117765Y120423D01*
X117900Y118898D01*
X117911Y118043D01*
X117960Y117811D01*
Y116678D01*
X118644Y114125D01*
X119966Y111836D01*
X121835Y109966D01*
X124125Y108645D01*
X126678Y107960D01*
X129322D01*
X131875Y108645D01*
X134165Y109966D01*
X136034Y111836D01*
X137356Y114125D01*
X138040Y116678D01*
Y119322D01*
X137356Y121876D01*
X136034Y124165D01*
X134165Y126034D01*
X131875Y127356D01*
X129322Y128040D01*
X128190D01*
X127957Y128090D01*
X127068Y128101D01*
X126305Y128148D01*
X125614Y128229D01*
X124996Y128341D01*
X124451Y128479D01*
X123980Y128639D01*
X123578Y128816D01*
X123241Y129005D01*
X123020Y129162D01*
X109370Y142811D01*
Y461190D01*
X253810Y605630D01*
X550190D01*
X562630Y593190D01*
Y573810D01*
X549190Y560370D01*
X547438D01*
X547284Y560393D01*
X547117Y560428D01*
X546984Y560467D01*
X546885Y560505D01*
X546814Y560539D01*
X546765Y560569D01*
X546732Y560593D01*
X546611Y560705D01*
X546439Y560810D01*
X546016Y561233D01*
X544524Y562094D01*
X542861Y562540D01*
X541139D01*
X539476Y562094D01*
X537984Y561233D01*
X536767Y560016D01*
X535906Y558524D01*
X535460Y556861D01*
Y555139D01*
X535906Y553476D01*
X536767Y551984D01*
X537984Y550767D01*
X539476Y549906D01*
X541139Y549460D01*
X542861D01*
X544524Y549906D01*
X546016Y550767D01*
X546439Y551190D01*
X546611Y551295D01*
X546732Y551407D01*
X546765Y551431D01*
X546814Y551461D01*
X546885Y551495D01*
X546984Y551533D01*
X547117Y551572D01*
X547284Y551608D01*
X547438Y551629D01*
X551000D01*
X552673Y551962D01*
X554090Y552910D01*
X570090Y568910D01*
X571038Y570327D01*
X571371Y572000D01*
Y595000D01*
X571038Y596673D01*
X570090Y598090D01*
X555090Y613090D01*
X553672Y614038D01*
X552000Y614370D01*
D02*
G37*
G36*
X643861Y588540D02*
X642139D01*
X640476Y588094D01*
X638984Y587233D01*
X637767Y586016D01*
X636906Y584524D01*
X636460Y582861D01*
Y581139D01*
X636906Y579476D01*
X637767Y577984D01*
X638190Y577561D01*
X638295Y577389D01*
X638407Y577268D01*
X638431Y577235D01*
X638461Y577187D01*
X638495Y577115D01*
X638533Y577016D01*
X638572Y576884D01*
X638607Y576716D01*
X638629Y576562D01*
Y560945D01*
X636738Y560211D01*
X636090Y560159D01*
X635016Y561233D01*
X633524Y562094D01*
X631861Y562540D01*
X630139D01*
X628476Y562094D01*
X626984Y561233D01*
X625767Y560016D01*
X624906Y558524D01*
X624460Y556861D01*
Y555139D01*
X624906Y553476D01*
X625767Y551984D01*
X626190Y551561D01*
X626295Y551389D01*
X626407Y551268D01*
X626431Y551235D01*
X626461Y551187D01*
X626495Y551115D01*
X626533Y551016D01*
X626572Y550883D01*
X626608Y550717D01*
X626629Y550562D01*
Y536945D01*
X624738Y536211D01*
X624090Y536159D01*
X623016Y537233D01*
X621524Y538094D01*
X619861Y538540D01*
X618139D01*
X616476Y538094D01*
X614984Y537233D01*
X613767Y536016D01*
X612906Y534524D01*
X612460Y532861D01*
Y531139D01*
X612906Y529476D01*
X613767Y527984D01*
X614190Y527561D01*
X614295Y527389D01*
X614407Y527268D01*
X614431Y527235D01*
X614461Y527187D01*
X614495Y527115D01*
X614533Y527016D01*
X614572Y526884D01*
X614608Y526716D01*
X614630Y526562D01*
Y512945D01*
X612738Y512211D01*
X612090Y512159D01*
X611016Y513233D01*
X609524Y514094D01*
X607861Y514540D01*
X606139D01*
X604476Y514094D01*
X602984Y513233D01*
X601767Y512016D01*
X600906Y510524D01*
X600460Y508861D01*
Y507139D01*
X600906Y505476D01*
X601767Y503984D01*
X602190Y503561D01*
X602295Y503389D01*
X602407Y503268D01*
X602431Y503235D01*
X602461Y503186D01*
X602495Y503115D01*
X602533Y503016D01*
X602572Y502883D01*
X602607Y502716D01*
X602630Y502562D01*
Y485945D01*
X600738Y485211D01*
X600089Y485159D01*
X599016Y486233D01*
X597524Y487094D01*
X595861Y487540D01*
X594139D01*
X592476Y487094D01*
X590984Y486233D01*
X589767Y485016D01*
X588906Y483524D01*
X588460Y481861D01*
Y480139D01*
X588906Y478476D01*
X589767Y476984D01*
X590190Y476561D01*
X590295Y476389D01*
X590407Y476268D01*
X590431Y476235D01*
X590461Y476187D01*
X590495Y476115D01*
X590533Y476016D01*
X590572Y475883D01*
X590607Y475717D01*
X590630Y475562D01*
Y460945D01*
X588738Y460211D01*
X588089Y460159D01*
X587016Y461233D01*
X585524Y462094D01*
X583861Y462540D01*
X582139D01*
X580476Y462094D01*
X578984Y461233D01*
X577767Y460016D01*
X576906Y458524D01*
X576460Y456861D01*
Y455139D01*
X576906Y453476D01*
X577767Y451984D01*
X578190Y451561D01*
X578295Y451389D01*
X578407Y451268D01*
X578431Y451235D01*
X578461Y451186D01*
X578495Y451115D01*
X578533Y451016D01*
X578572Y450883D01*
X578607Y450717D01*
X578629Y450562D01*
Y285000D01*
X578962Y283328D01*
X579910Y281910D01*
X608910Y252910D01*
X610327Y251962D01*
X612000Y251630D01*
X643562D01*
X643717Y251607D01*
X643884Y251572D01*
X644016Y251533D01*
X644115Y251495D01*
X644186Y251461D01*
X644235Y251431D01*
X644268Y251407D01*
X644389Y251295D01*
X644561Y251190D01*
X644984Y250767D01*
X646476Y249906D01*
X648139Y249460D01*
X649861D01*
X651524Y249906D01*
X653016Y250767D01*
X654233Y251984D01*
X655094Y253476D01*
X655540Y255139D01*
Y256861D01*
X655094Y258524D01*
X654233Y260016D01*
X653016Y261233D01*
X651524Y262094D01*
X649861Y262540D01*
X648139D01*
X646476Y262094D01*
X644984Y261233D01*
X644561Y260810D01*
X644389Y260705D01*
X644268Y260593D01*
X644235Y260569D01*
X644186Y260539D01*
X644115Y260505D01*
X644016Y260467D01*
X643883Y260428D01*
X643717Y260392D01*
X643562Y260371D01*
X613810D01*
X587370Y286810D01*
Y449573D01*
X587690Y450091D01*
X588089Y450393D01*
X590601Y449143D01*
X590630Y449095D01*
Y308000D01*
X590962Y306327D01*
X591910Y304910D01*
X616910Y279910D01*
X618327Y278962D01*
X620000Y278629D01*
X643156D01*
X643271Y278609D01*
X643368Y278584D01*
X643379Y278567D01*
X643501Y278445D01*
X643767Y277984D01*
X644984Y276767D01*
X646476Y275906D01*
X648139Y275460D01*
X649861D01*
X651524Y275906D01*
X653016Y276767D01*
X654233Y277984D01*
X655094Y279476D01*
X655540Y281139D01*
Y282861D01*
X655094Y284524D01*
X654233Y286016D01*
X653016Y287233D01*
X651524Y288094D01*
X649861Y288540D01*
X648139D01*
X646476Y288094D01*
X645902Y287763D01*
X645688Y287696D01*
X645540Y287614D01*
X645459Y287578D01*
X645347Y287536D01*
X645237Y287503D01*
X644789Y287409D01*
X644609Y287385D01*
X644401Y287370D01*
X621810D01*
X599370Y309810D01*
Y474573D01*
X599690Y475091D01*
X600089Y475393D01*
X602601Y474143D01*
X602630Y474095D01*
Y327000D01*
X602962Y325327D01*
X603910Y323910D01*
X623910Y303910D01*
X625327Y302962D01*
X627000Y302630D01*
X643562D01*
X643717Y302607D01*
X643884Y302572D01*
X644016Y302533D01*
X644115Y302495D01*
X644186Y302461D01*
X644235Y302431D01*
X644268Y302407D01*
X644389Y302295D01*
X644561Y302190D01*
X644984Y301767D01*
X646476Y300906D01*
X648139Y300460D01*
X649861D01*
X651524Y300906D01*
X653016Y301767D01*
X654233Y302984D01*
X655094Y304476D01*
X655540Y306139D01*
Y307861D01*
X655094Y309524D01*
X654233Y311016D01*
X653016Y312233D01*
X651524Y313094D01*
X649861Y313540D01*
X648139D01*
X646476Y313094D01*
X644984Y312233D01*
X644561Y311810D01*
X644389Y311705D01*
X644268Y311593D01*
X644235Y311569D01*
X644186Y311539D01*
X644115Y311505D01*
X644016Y311467D01*
X643883Y311428D01*
X643717Y311392D01*
X643562Y311371D01*
X628810D01*
X611371Y328810D01*
Y501573D01*
X611690Y502091D01*
X612090Y502393D01*
X614601Y501143D01*
X614630Y501095D01*
Y343000D01*
X614962Y341328D01*
X615910Y339910D01*
X626910Y328910D01*
X628327Y327962D01*
X630000Y327630D01*
X643562D01*
X643717Y327607D01*
X643884Y327572D01*
X644016Y327533D01*
X644115Y327495D01*
X644186Y327461D01*
X644235Y327431D01*
X644268Y327407D01*
X644389Y327295D01*
X644561Y327190D01*
X644984Y326767D01*
X646476Y325906D01*
X648139Y325460D01*
X649861D01*
X651524Y325906D01*
X653016Y326767D01*
X654233Y327984D01*
X655094Y329476D01*
X655540Y331139D01*
Y332861D01*
X655094Y334524D01*
X654233Y336016D01*
X653016Y337233D01*
X651524Y338094D01*
X649861Y338540D01*
X648139D01*
X646476Y338094D01*
X644984Y337233D01*
X644561Y336810D01*
X644389Y336705D01*
X644268Y336593D01*
X644235Y336569D01*
X644186Y336539D01*
X644115Y336505D01*
X644016Y336467D01*
X643883Y336428D01*
X643717Y336393D01*
X643562Y336371D01*
X631810D01*
X623371Y344810D01*
Y525573D01*
X623690Y526091D01*
X624090Y526393D01*
X626601Y525143D01*
X626629Y525095D01*
Y364000D01*
X626962Y362327D01*
X627910Y360910D01*
X633910Y354910D01*
X635327Y353962D01*
X637000Y353629D01*
X643562D01*
X643717Y353607D01*
X643884Y353572D01*
X644016Y353533D01*
X644115Y353495D01*
X644186Y353461D01*
X644235Y353431D01*
X644268Y353407D01*
X644389Y353295D01*
X644561Y353190D01*
X644984Y352767D01*
X646476Y351906D01*
X648139Y351460D01*
X649861D01*
X651524Y351906D01*
X653016Y352767D01*
X654233Y353984D01*
X655094Y355476D01*
X655540Y357139D01*
Y358861D01*
X655094Y360524D01*
X654233Y362016D01*
X653016Y363233D01*
X651524Y364094D01*
X649861Y364540D01*
X648139D01*
X646476Y364094D01*
X644984Y363233D01*
X644561Y362810D01*
X644389Y362705D01*
X644268Y362593D01*
X644235Y362569D01*
X644186Y362539D01*
X644115Y362505D01*
X644016Y362467D01*
X643883Y362428D01*
X643717Y362393D01*
X643562Y362370D01*
X638810D01*
X635370Y365810D01*
Y549573D01*
X635690Y550091D01*
X636090Y550393D01*
X638601Y549143D01*
X638629Y549095D01*
Y389000D01*
X638962Y387327D01*
X639910Y385910D01*
X642065Y383755D01*
X642158Y383630D01*
X642251Y383487D01*
X642317Y383366D01*
X642361Y383269D01*
X642387Y383194D01*
X642400Y383139D01*
X642406Y383098D01*
X642413Y382934D01*
X642460Y382738D01*
Y382139D01*
X642906Y380476D01*
X643767Y378984D01*
X644984Y377767D01*
X646476Y376906D01*
X648139Y376460D01*
X649861D01*
X651524Y376906D01*
X653016Y377767D01*
X654233Y378984D01*
X655094Y380476D01*
X655540Y382139D01*
Y383861D01*
X655094Y385524D01*
X654233Y387016D01*
X653016Y388233D01*
X651524Y389094D01*
X649861Y389540D01*
X649262D01*
X649066Y389587D01*
X648901Y389594D01*
X648861Y389600D01*
X648806Y389613D01*
X648731Y389639D01*
X648634Y389683D01*
X648513Y389749D01*
X648370Y389842D01*
X648245Y389935D01*
X647371Y390810D01*
Y576562D01*
X647393Y576717D01*
X647428Y576884D01*
X647467Y577016D01*
X647505Y577115D01*
X647539Y577187D01*
X647569Y577235D01*
X647593Y577268D01*
X647705Y577389D01*
X647810Y577561D01*
X648233Y577984D01*
X649094Y579476D01*
X649540Y581139D01*
Y582861D01*
X649094Y584524D01*
X648233Y586016D01*
X647016Y587233D01*
X645524Y588094D01*
X643861Y588540D01*
D02*
G37*
G36*
X542861Y538540D02*
X541139D01*
X539476Y538094D01*
X537984Y537233D01*
X537561Y536810D01*
X537389Y536705D01*
X537268Y536593D01*
X537235Y536569D01*
X537187Y536539D01*
X537115Y536505D01*
X537016Y536467D01*
X536884Y536428D01*
X536716Y536393D01*
X536562Y536371D01*
X261000D01*
X259328Y536038D01*
X257910Y535090D01*
X142910Y420090D01*
X141962Y418672D01*
X141630Y417000D01*
Y147414D01*
X141584Y147146D01*
X141479Y146775D01*
X141320Y146366D01*
X141100Y145919D01*
X140813Y145436D01*
X140476Y144950D01*
X139493Y143777D01*
X138896Y143165D01*
X138767Y142966D01*
X137966Y142165D01*
X136644Y139875D01*
X135960Y137322D01*
Y134678D01*
X136644Y132125D01*
X137966Y129836D01*
X139835Y127966D01*
X142125Y126644D01*
X144678Y125960D01*
X147322D01*
X149875Y126644D01*
X152165Y127966D01*
X152965Y128767D01*
X153164Y128896D01*
X153801Y129517D01*
X154374Y130024D01*
X154920Y130455D01*
X155436Y130813D01*
X155919Y131100D01*
X156366Y131320D01*
X156775Y131479D01*
X157146Y131584D01*
X157414Y131630D01*
X318000D01*
X319673Y131962D01*
X321091Y132910D01*
X407911Y219730D01*
X407972Y219773D01*
X409139Y219460D01*
X410861D01*
X412524Y219906D01*
X414016Y220767D01*
X415233Y221984D01*
X416094Y223476D01*
X416540Y225139D01*
Y226861D01*
X416094Y228524D01*
X415233Y230016D01*
X414016Y231233D01*
X412524Y232094D01*
X410861Y232540D01*
X409139D01*
X407476Y232094D01*
X405984Y231233D01*
X404767Y230016D01*
X403906Y228524D01*
X403871Y228395D01*
X403850Y228363D01*
X403796Y228233D01*
X403776Y228192D01*
X403592Y227890D01*
X403532Y227807D01*
X402975Y227156D01*
X316190Y140371D01*
X157414D01*
X157146Y140416D01*
X156775Y140521D01*
X156366Y140680D01*
X155919Y140900D01*
X155436Y141188D01*
X154950Y141525D01*
X153777Y142507D01*
X153164Y143104D01*
X153128Y143128D01*
X153104Y143165D01*
X152483Y143801D01*
X151977Y144374D01*
X151545Y144920D01*
X151188Y145436D01*
X150900Y145919D01*
X150680Y146366D01*
X150521Y146775D01*
X150416Y147146D01*
X150371Y147414D01*
Y415190D01*
X262810Y527630D01*
X536562D01*
X536717Y527607D01*
X536884Y527572D01*
X537016Y527533D01*
X537115Y527495D01*
X537187Y527461D01*
X537235Y527431D01*
X537268Y527407D01*
X537389Y527295D01*
X537561Y527190D01*
X537984Y526767D01*
X539476Y525906D01*
X541139Y525460D01*
X542861D01*
X544524Y525906D01*
X546016Y526767D01*
X547233Y527984D01*
X548094Y529476D01*
X548540Y531139D01*
Y532861D01*
X548094Y534524D01*
X547233Y536016D01*
X546016Y537233D01*
X544524Y538094D01*
X542861Y538540D01*
D02*
G37*
G36*
X543861Y514540D02*
X542139D01*
X540476Y514094D01*
X538984Y513233D01*
X537767Y512016D01*
X537447Y511461D01*
X535490Y509420D01*
X534521Y508451D01*
X533765Y507946D01*
X519938Y494118D01*
X518990Y492701D01*
X518657Y491028D01*
Y250838D01*
X432981Y165161D01*
X432759Y165005D01*
X432422Y164816D01*
X432021Y164639D01*
X431549Y164479D01*
X431004Y164340D01*
X430423Y164235D01*
X428898Y164100D01*
X428043Y164089D01*
X427811Y164040D01*
X426679D01*
X424125Y163356D01*
X421836Y162034D01*
X419966Y160165D01*
X418644Y157875D01*
X417960Y155322D01*
Y152678D01*
X418644Y150125D01*
X419966Y147836D01*
X421836Y145966D01*
X424125Y144644D01*
X426679Y143960D01*
X429322D01*
X431876Y144644D01*
X434165Y145966D01*
X436034Y147836D01*
X437356Y150125D01*
X438040Y152678D01*
Y153811D01*
X438089Y154043D01*
X438101Y154932D01*
X438148Y155695D01*
X438229Y156386D01*
X438341Y157004D01*
X438479Y157549D01*
X438639Y158021D01*
X438816Y158422D01*
X439005Y158759D01*
X439161Y158981D01*
X526118Y245938D01*
X527066Y247355D01*
X527398Y249028D01*
Y489218D01*
X539441Y501260D01*
X539819Y501513D01*
X539898Y501551D01*
X539930Y501587D01*
X540197Y501765D01*
X540388Y501956D01*
X540476Y501906D01*
X542139Y501460D01*
X543861D01*
X545524Y501906D01*
X547016Y502767D01*
X548233Y503984D01*
X549094Y505476D01*
X549540Y507139D01*
Y508861D01*
X549094Y510524D01*
X548233Y512016D01*
X547016Y513233D01*
X545524Y514094D01*
X543861Y514540D01*
D02*
G37*
G36*
X465322Y164040D02*
X462678D01*
X460125Y163356D01*
X457836Y162034D01*
X455966Y160165D01*
X454644Y157875D01*
X453960Y155322D01*
Y152678D01*
X454644Y150125D01*
X455966Y147836D01*
X457836Y145966D01*
X460125Y144644D01*
X462678Y143960D01*
X465322D01*
X467876Y144644D01*
X470165Y145966D01*
X472034Y147836D01*
X473356Y150125D01*
X474040Y152678D01*
Y155322D01*
X473356Y157875D01*
X472034Y160165D01*
X470165Y162034D01*
X467876Y163356D01*
X465322Y164040D01*
D02*
G37*
G36*
X165322D02*
X162678D01*
X160125Y163356D01*
X157835Y162034D01*
X155966Y160165D01*
X154644Y157875D01*
X153960Y155322D01*
Y152678D01*
X154644Y150125D01*
X155966Y147836D01*
X157835Y145966D01*
X160125Y144644D01*
X162678Y143960D01*
X165322D01*
X167875Y144644D01*
X170165Y145966D01*
X172034Y147836D01*
X173356Y150125D01*
X174040Y152678D01*
Y155322D01*
X173356Y157875D01*
X172034Y160165D01*
X170165Y162034D01*
X167875Y163356D01*
X165322Y164040D01*
D02*
G37*
G36*
X542861Y462540D02*
X541139D01*
X539476Y462094D01*
X537984Y461233D01*
X536767Y460016D01*
X535906Y458524D01*
X535460Y456861D01*
Y455139D01*
X535906Y453476D01*
X536767Y451984D01*
X537190Y451561D01*
X537295Y451389D01*
X537407Y451268D01*
X537431Y451235D01*
X537461Y451186D01*
X537495Y451115D01*
X537533Y451016D01*
X537572Y450883D01*
X537607Y450717D01*
X537630Y450562D01*
Y184810D01*
X493190Y140371D01*
X457414D01*
X457146Y140416D01*
X456775Y140521D01*
X456366Y140680D01*
X455919Y140900D01*
X455436Y141188D01*
X454950Y141525D01*
X453777Y142507D01*
X453164Y143104D01*
X452966Y143233D01*
X452165Y144034D01*
X449875Y145356D01*
X447322Y146040D01*
X444678D01*
X442125Y145356D01*
X439836Y144034D01*
X437966Y142165D01*
X436644Y139875D01*
X435960Y137322D01*
Y134678D01*
X436644Y132125D01*
X437966Y129836D01*
X439836Y127966D01*
X442125Y126644D01*
X444678Y125960D01*
X447322D01*
X449875Y126644D01*
X452165Y127966D01*
X452966Y128767D01*
X453164Y128896D01*
X453801Y129517D01*
X454374Y130024D01*
X454920Y130455D01*
X455436Y130813D01*
X455919Y131100D01*
X456366Y131320D01*
X456775Y131479D01*
X457146Y131584D01*
X457414Y131630D01*
X495000D01*
X496673Y131962D01*
X498091Y132910D01*
X545090Y179910D01*
X546038Y181327D01*
X546371Y183000D01*
Y450562D01*
X546393Y450717D01*
X546428Y450883D01*
X546467Y451016D01*
X546505Y451115D01*
X546539Y451186D01*
X546569Y451235D01*
X546593Y451268D01*
X546705Y451389D01*
X546810Y451561D01*
X547233Y451984D01*
X548094Y453476D01*
X548540Y455139D01*
Y456861D01*
X548094Y458524D01*
X547233Y460016D01*
X546016Y461233D01*
X544524Y462094D01*
X542861Y462540D01*
D02*
G37*
G36*
X990861Y488540D02*
X989139D01*
X987476Y488094D01*
X985984Y487233D01*
X984767Y486016D01*
X983906Y484524D01*
X983460Y482861D01*
Y481139D01*
X983906Y479476D01*
X984767Y477984D01*
X985984Y476767D01*
X987476Y475906D01*
X989139Y475460D01*
X990861D01*
X992524Y475906D01*
X994016Y476767D01*
X994439Y477190D01*
X994611Y477295D01*
X994732Y477407D01*
X994765Y477431D01*
X994814Y477461D01*
X994885Y477495D01*
X994984Y477533D01*
X995117Y477572D01*
X995284Y477607D01*
X995438Y477630D01*
X1148190D01*
X1216230Y409590D01*
Y154925D01*
X1216208Y154770D01*
X1216140Y154483D01*
X1216041Y154188D01*
X1215908Y153882D01*
X1215735Y153561D01*
X1215520Y153224D01*
X1215259Y152874D01*
X1214948Y152510D01*
X1214536Y152083D01*
X1214411Y151889D01*
X1213766Y151244D01*
X1212642Y149297D01*
X1212060Y147125D01*
Y144876D01*
X1212642Y142704D01*
X1213766Y140757D01*
X1215356Y139166D01*
X1217304Y138042D01*
X1219476Y137460D01*
X1221724D01*
X1223896Y138042D01*
X1225844Y139166D01*
X1227434Y140757D01*
X1228558Y142704D01*
X1229140Y144876D01*
Y147125D01*
X1228558Y149297D01*
X1227434Y151244D01*
X1226789Y151889D01*
X1226664Y152083D01*
X1226252Y152510D01*
X1225941Y152874D01*
X1225680Y153224D01*
X1225465Y153561D01*
X1225292Y153882D01*
X1225159Y154188D01*
X1225060Y154483D01*
X1224992Y154770D01*
X1224970Y154925D01*
Y411400D01*
X1224638Y413073D01*
X1223690Y414490D01*
X1153090Y485090D01*
X1151673Y486038D01*
X1150000Y486371D01*
X995438D01*
X995284Y486393D01*
X995117Y486428D01*
X994984Y486467D01*
X994885Y486505D01*
X994814Y486539D01*
X994765Y486569D01*
X994732Y486593D01*
X994611Y486705D01*
X994439Y486810D01*
X994016Y487233D01*
X992524Y488094D01*
X990861Y488540D01*
D02*
G37*
G36*
X1196324Y154540D02*
X1194076D01*
X1191904Y153958D01*
X1189956Y152834D01*
X1188366Y151244D01*
X1187242Y149297D01*
X1186660Y147125D01*
Y144876D01*
X1187242Y142704D01*
X1188366Y140757D01*
X1189956Y139166D01*
X1191904Y138042D01*
X1194076Y137460D01*
X1196324D01*
X1198496Y138042D01*
X1200444Y139166D01*
X1202034Y140757D01*
X1203158Y142704D01*
X1203740Y144876D01*
Y147125D01*
X1203158Y149297D01*
X1202034Y151244D01*
X1200444Y152834D01*
X1198496Y153958D01*
X1196324Y154540D01*
D02*
G37*
G36*
X989861Y462540D02*
X988139D01*
X986476Y462094D01*
X984984Y461233D01*
X983767Y460016D01*
X982906Y458524D01*
X982460Y456861D01*
Y455139D01*
X982906Y453476D01*
X983767Y451984D01*
X984984Y450767D01*
X986476Y449906D01*
X988139Y449460D01*
X989861D01*
X991524Y449906D01*
X993016Y450767D01*
X993439Y451190D01*
X993611Y451295D01*
X993732Y451407D01*
X993765Y451431D01*
X993813Y451461D01*
X993885Y451495D01*
X993984Y451533D01*
X994117Y451572D01*
X994284Y451608D01*
X994438Y451629D01*
X1114190D01*
X1165430Y400390D01*
Y154925D01*
X1165408Y154770D01*
X1165340Y154483D01*
X1165241Y154188D01*
X1165108Y153882D01*
X1164935Y153561D01*
X1164720Y153224D01*
X1164459Y152874D01*
X1164148Y152510D01*
X1163736Y152083D01*
X1163611Y151889D01*
X1162966Y151244D01*
X1161842Y149297D01*
X1161260Y147125D01*
Y144876D01*
X1161842Y142704D01*
X1162966Y140757D01*
X1164556Y139166D01*
X1166504Y138042D01*
X1168676Y137460D01*
X1170924D01*
X1173096Y138042D01*
X1175044Y139166D01*
X1176634Y140757D01*
X1177758Y142704D01*
X1178340Y144876D01*
Y147125D01*
X1177758Y149297D01*
X1176634Y151244D01*
X1175989Y151889D01*
X1175864Y152083D01*
X1175452Y152510D01*
X1175142Y152874D01*
X1174880Y153224D01*
X1174665Y153561D01*
X1174492Y153882D01*
X1174359Y154188D01*
X1174260Y154483D01*
X1174192Y154770D01*
X1174171Y154925D01*
Y402200D01*
X1173838Y403872D01*
X1172890Y405290D01*
X1119090Y459090D01*
X1117673Y460038D01*
X1116000Y460370D01*
X994438D01*
X994284Y460393D01*
X994117Y460428D01*
X993984Y460467D01*
X993885Y460505D01*
X993813Y460539D01*
X993765Y460569D01*
X993732Y460593D01*
X993611Y460705D01*
X993439Y460810D01*
X993016Y461233D01*
X991524Y462094D01*
X989861Y462540D01*
D02*
G37*
G36*
X921861Y538540D02*
X920139D01*
X918476Y538094D01*
X916984Y537233D01*
X915767Y536016D01*
X914906Y534524D01*
X914460Y532861D01*
Y531139D01*
X914906Y529476D01*
X915767Y527984D01*
X916984Y526767D01*
X918476Y525906D01*
X920139Y525460D01*
X921861D01*
X923524Y525906D01*
X925016Y526767D01*
X925439Y527190D01*
X925611Y527295D01*
X925732Y527407D01*
X925765Y527431D01*
X925814Y527461D01*
X925885Y527495D01*
X925984Y527533D01*
X926117Y527572D01*
X926283Y527607D01*
X926438Y527630D01*
X948190D01*
X967830Y507990D01*
Y154925D01*
X967808Y154770D01*
X967740Y154483D01*
X967641Y154188D01*
X967508Y153882D01*
X967336Y153561D01*
X967120Y153224D01*
X966859Y152874D01*
X966548Y152510D01*
X966136Y152083D01*
X966012Y151889D01*
X965367Y151244D01*
X964242Y149297D01*
X963660Y147125D01*
Y144876D01*
X964242Y142704D01*
X965367Y140757D01*
X966957Y139166D01*
X968904Y138042D01*
X971076Y137460D01*
X973325D01*
X975497Y138042D01*
X977444Y139166D01*
X979034Y140757D01*
X980158Y142704D01*
X980740Y144876D01*
Y147125D01*
X980158Y149297D01*
X979034Y151244D01*
X978389Y151889D01*
X978264Y152083D01*
X977852Y152510D01*
X977542Y152874D01*
X977280Y153224D01*
X977065Y153561D01*
X976893Y153882D01*
X976759Y154188D01*
X976661Y154483D01*
X976593Y154770D01*
X976571Y154925D01*
Y509800D01*
X976238Y511472D01*
X975291Y512890D01*
X953090Y535090D01*
X951673Y536038D01*
X950000Y536371D01*
X926438D01*
X926283Y536393D01*
X926116Y536428D01*
X925984Y536467D01*
X925885Y536505D01*
X925814Y536539D01*
X925765Y536569D01*
X925732Y536593D01*
X925611Y536705D01*
X925439Y536810D01*
X925016Y537233D01*
X923524Y538094D01*
X921861Y538540D01*
D02*
G37*
G36*
X947924Y154540D02*
X945676D01*
X943504Y153958D01*
X941557Y152834D01*
X939967Y151244D01*
X938842Y149297D01*
X938260Y147125D01*
Y144876D01*
X938842Y142704D01*
X939967Y140757D01*
X941557Y139166D01*
X943504Y138042D01*
X945676Y137460D01*
X947924D01*
X950097Y138042D01*
X952044Y139166D01*
X953634Y140757D01*
X954758Y142704D01*
X955340Y144876D01*
Y147125D01*
X954758Y149297D01*
X953634Y151244D01*
X952044Y152834D01*
X950097Y153958D01*
X947924Y154540D01*
D02*
G37*
G36*
X921861Y515540D02*
X920139D01*
X918476Y515094D01*
X916984Y514233D01*
X915767Y513016D01*
X914906Y511524D01*
X914460Y509861D01*
Y508139D01*
X914906Y506476D01*
X915767Y504984D01*
X916401Y504350D01*
X916527Y504164D01*
X916639Y504053D01*
X916654Y504035D01*
X916675Y504003D01*
X916703Y503949D01*
X916737Y503867D01*
X916773Y503751D01*
X916807Y503599D01*
X916830Y503450D01*
Y154855D01*
X916808Y154699D01*
X916740Y154403D01*
X916640Y154096D01*
X916506Y153774D01*
X916332Y153436D01*
X916116Y153082D01*
X915854Y152713D01*
X915544Y152328D01*
X915139Y151880D01*
X915045Y151722D01*
X914566Y151244D01*
X913442Y149297D01*
X912860Y147125D01*
Y144876D01*
X913442Y142704D01*
X914566Y140757D01*
X916157Y139166D01*
X918104Y138042D01*
X920276Y137460D01*
X922524D01*
X924697Y138042D01*
X926644Y139166D01*
X928234Y140757D01*
X929358Y142704D01*
X929940Y144876D01*
Y147125D01*
X929358Y149297D01*
X928234Y151244D01*
X927398Y152080D01*
X927261Y152279D01*
X926843Y152685D01*
X926533Y153029D01*
X926272Y153360D01*
X926059Y153678D01*
X925889Y153982D01*
X925758Y154274D01*
X925660Y154556D01*
X925593Y154833D01*
X925571Y154988D01*
Y503693D01*
X925592Y503850D01*
X925628Y504032D01*
X925668Y504180D01*
X925710Y504297D01*
X925749Y504385D01*
X925785Y504449D01*
X925816Y504495D01*
X925926Y504625D01*
X925988Y504739D01*
X926233Y504984D01*
X927094Y506476D01*
X927540Y508139D01*
Y509861D01*
X927094Y511524D01*
X926233Y513016D01*
X925016Y514233D01*
X923524Y515094D01*
X921861Y515540D01*
D02*
G37*
G36*
X797861Y589540D02*
X796139D01*
X794476Y589094D01*
X792984Y588233D01*
X791767Y587016D01*
X790906Y585524D01*
X790460Y583861D01*
Y582139D01*
X790906Y580476D01*
X791767Y578984D01*
X792190Y578561D01*
X792295Y578389D01*
X792407Y578268D01*
X792431Y578235D01*
X792461Y578186D01*
X792495Y578115D01*
X792533Y578016D01*
X792572Y577883D01*
X792607Y577716D01*
X792629Y577562D01*
Y242810D01*
X719110Y169291D01*
X718162Y167873D01*
X717830Y166200D01*
Y154925D01*
X717808Y154770D01*
X717740Y154483D01*
X717641Y154188D01*
X717508Y153882D01*
X717336Y153561D01*
X717120Y153224D01*
X716859Y152874D01*
X716548Y152510D01*
X716136Y152083D01*
X716012Y151889D01*
X715367Y151244D01*
X714242Y149297D01*
X713660Y147125D01*
Y144876D01*
X714242Y142704D01*
X715367Y140757D01*
X716957Y139166D01*
X718904Y138042D01*
X721076Y137460D01*
X723325D01*
X725497Y138042D01*
X727444Y139166D01*
X729034Y140757D01*
X730158Y142704D01*
X730740Y144876D01*
Y147125D01*
X730158Y149297D01*
X729034Y151244D01*
X728389Y151889D01*
X728264Y152083D01*
X727852Y152510D01*
X727542Y152874D01*
X727280Y153224D01*
X727065Y153561D01*
X726893Y153882D01*
X726759Y154188D01*
X726661Y154483D01*
X726593Y154770D01*
X726571Y154925D01*
Y164390D01*
X800090Y237910D01*
X801038Y239328D01*
X801370Y241000D01*
Y577562D01*
X801393Y577716D01*
X801428Y577883D01*
X801467Y578016D01*
X801505Y578115D01*
X801539Y578186D01*
X801569Y578235D01*
X801593Y578268D01*
X801705Y578389D01*
X801810Y578561D01*
X802233Y578984D01*
X803094Y580476D01*
X803540Y582139D01*
Y583861D01*
X803094Y585524D01*
X802233Y587016D01*
X801016Y588233D01*
X799524Y589094D01*
X797861Y589540D01*
D02*
G37*
G36*
X697924Y154540D02*
X695676D01*
X693504Y153958D01*
X691557Y152834D01*
X689967Y151244D01*
X688842Y149297D01*
X688260Y147125D01*
Y144876D01*
X688842Y142704D01*
X689967Y140757D01*
X691557Y139166D01*
X693504Y138042D01*
X695676Y137460D01*
X697924D01*
X700097Y138042D01*
X702044Y139166D01*
X703634Y140757D01*
X704758Y142704D01*
X705340Y144876D01*
Y147125D01*
X704758Y149297D01*
X703634Y151244D01*
X702044Y152834D01*
X700097Y153958D01*
X697924Y154540D01*
D02*
G37*
G36*
X782861Y564540D02*
X781139D01*
X779476Y564094D01*
X777984Y563233D01*
X776767Y562016D01*
X775906Y560524D01*
X775460Y558861D01*
Y557139D01*
X775906Y555476D01*
X776767Y553984D01*
X777190Y553561D01*
X777295Y553389D01*
X777407Y553268D01*
X777431Y553235D01*
X777461Y553186D01*
X777495Y553115D01*
X777533Y553016D01*
X777572Y552883D01*
X777607Y552716D01*
X777629Y552562D01*
Y272810D01*
X668310Y163491D01*
X667362Y162073D01*
X667030Y160400D01*
Y154925D01*
X667008Y154770D01*
X666940Y154483D01*
X666841Y154188D01*
X666708Y153882D01*
X666536Y153561D01*
X666320Y153224D01*
X666059Y152874D01*
X665748Y152510D01*
X665336Y152083D01*
X665211Y151889D01*
X664566Y151244D01*
X663442Y149297D01*
X662860Y147125D01*
Y144876D01*
X663442Y142704D01*
X664566Y140757D01*
X666157Y139166D01*
X668104Y138042D01*
X670276Y137460D01*
X672524D01*
X674697Y138042D01*
X676644Y139166D01*
X678234Y140757D01*
X679358Y142704D01*
X679940Y144876D01*
Y147125D01*
X679358Y149297D01*
X678234Y151244D01*
X677589Y151889D01*
X677465Y152083D01*
X677052Y152510D01*
X676742Y152874D01*
X676480Y153224D01*
X676265Y153561D01*
X676093Y153882D01*
X675959Y154188D01*
X675861Y154483D01*
X675793Y154770D01*
X675771Y154925D01*
Y158590D01*
X785090Y267910D01*
X786038Y269328D01*
X786370Y271000D01*
Y552562D01*
X786393Y552716D01*
X786428Y552883D01*
X786467Y553016D01*
X786505Y553115D01*
X786539Y553186D01*
X786569Y553235D01*
X786593Y553268D01*
X786705Y553389D01*
X786810Y553561D01*
X787233Y553984D01*
X788094Y555476D01*
X788540Y557139D01*
Y558861D01*
X788094Y560524D01*
X787233Y562016D01*
X786016Y563233D01*
X784524Y564094D01*
X782861Y564540D01*
D02*
G37*
G36*
X1196324Y129140D02*
X1194076D01*
X1191904Y128558D01*
X1189956Y127434D01*
X1188366Y125844D01*
X1187242Y123897D01*
X1186660Y121725D01*
Y119476D01*
X1187242Y117304D01*
X1188366Y115357D01*
X1189956Y113766D01*
X1191904Y112642D01*
X1194076Y112060D01*
X1196324D01*
X1198496Y112642D01*
X1200444Y113766D01*
X1202034Y115357D01*
X1203158Y117304D01*
X1203740Y119476D01*
Y121725D01*
X1203158Y123897D01*
X1202034Y125844D01*
X1200444Y127434D01*
X1198496Y128558D01*
X1196324Y129140D01*
D02*
G37*
G36*
X947924D02*
X945676D01*
X943504Y128558D01*
X941557Y127434D01*
X939967Y125844D01*
X938842Y123897D01*
X938260Y121725D01*
Y119476D01*
X938842Y117304D01*
X939967Y115357D01*
X941557Y113766D01*
X943504Y112642D01*
X945676Y112060D01*
X947924D01*
X950097Y112642D01*
X952044Y113766D01*
X953634Y115357D01*
X954758Y117304D01*
X955340Y119476D01*
Y121725D01*
X954758Y123897D01*
X953634Y125844D01*
X952044Y127434D01*
X950097Y128558D01*
X947924Y129140D01*
D02*
G37*
G36*
X697924D02*
X695676D01*
X693504Y128558D01*
X691557Y127434D01*
X689967Y125844D01*
X688842Y123897D01*
X688260Y121725D01*
Y119476D01*
X688842Y117304D01*
X689967Y115357D01*
X691557Y113766D01*
X693504Y112642D01*
X695676Y112060D01*
X697924D01*
X700097Y112642D01*
X702044Y113766D01*
X703634Y115357D01*
X704758Y117304D01*
X705340Y119476D01*
Y121725D01*
X704758Y123897D01*
X703634Y125844D01*
X702044Y127434D01*
X700097Y128558D01*
X697924Y129140D01*
D02*
G37*
G36*
X465322Y128040D02*
X462678D01*
X460125Y127356D01*
X457836Y126034D01*
X455966Y124165D01*
X454644Y121876D01*
X453960Y119322D01*
Y116678D01*
X454644Y114125D01*
X455966Y111836D01*
X457836Y109966D01*
X460125Y108645D01*
X462678Y107960D01*
X465322D01*
X467876Y108645D01*
X470165Y109966D01*
X472034Y111836D01*
X473356Y114125D01*
X474040Y116678D01*
Y119322D01*
X473356Y121876D01*
X472034Y124165D01*
X470165Y126034D01*
X467876Y127356D01*
X465322Y128040D01*
D02*
G37*
G36*
X165322D02*
X162678D01*
X160125Y127356D01*
X157835Y126034D01*
X155966Y124165D01*
X154644Y121876D01*
X153960Y119322D01*
Y116678D01*
X154644Y114125D01*
X155966Y111836D01*
X157835Y109966D01*
X160125Y108645D01*
X162678Y107960D01*
X165322D01*
X167875Y108645D01*
X170165Y109966D01*
X172034Y111836D01*
X173356Y114125D01*
X174040Y116678D01*
Y119322D01*
X173356Y121876D01*
X172034Y124165D01*
X170165Y126034D01*
X167875Y127356D01*
X165322Y128040D01*
D02*
G37*
G36*
X542861Y487540D02*
X541139D01*
X539476Y487094D01*
X537984Y486233D01*
X536767Y485016D01*
X535906Y483524D01*
X535460Y481861D01*
Y480139D01*
X535906Y478476D01*
X536767Y476984D01*
X537984Y475767D01*
X539476Y474906D01*
X541139Y474460D01*
X541738D01*
X541934Y474413D01*
X542099Y474406D01*
X542139Y474400D01*
X542194Y474387D01*
X542269Y474361D01*
X542366Y474317D01*
X542487Y474251D01*
X542630Y474158D01*
X542755Y474065D01*
X554630Y462190D01*
Y173810D01*
X483190Y102371D01*
X449811D01*
X439161Y113020D01*
X439005Y113242D01*
X438816Y113578D01*
X438639Y113980D01*
X438479Y114451D01*
X438341Y114996D01*
X438235Y115578D01*
X438100Y117103D01*
X438089Y117958D01*
X438040Y118190D01*
Y119322D01*
X437356Y121876D01*
X436034Y124165D01*
X434165Y126034D01*
X431876Y127356D01*
X429322Y128040D01*
X428190D01*
X427958Y128090D01*
X427068Y128101D01*
X426305Y128148D01*
X425614Y128229D01*
X424996Y128341D01*
X424452Y128479D01*
X423980Y128639D01*
X423578Y128816D01*
X423242Y129005D01*
X423020Y129162D01*
X412370Y139811D01*
Y178190D01*
X464090Y229910D01*
X465038Y231327D01*
X465370Y233000D01*
Y243562D01*
X465392Y243717D01*
X465428Y243883D01*
X465467Y244016D01*
X465505Y244115D01*
X465539Y244186D01*
X465569Y244235D01*
X465593Y244268D01*
X465705Y244389D01*
X465810Y244561D01*
X466233Y244984D01*
X467094Y246476D01*
X467540Y248139D01*
Y249861D01*
X467094Y251524D01*
X466233Y253016D01*
X465016Y254233D01*
X463524Y255094D01*
X461861Y255540D01*
X460139D01*
X458476Y255094D01*
X456984Y254233D01*
X455767Y253016D01*
X454906Y251524D01*
X454460Y249861D01*
Y248139D01*
X454906Y246476D01*
X455767Y244984D01*
X456190Y244561D01*
X456295Y244389D01*
X456407Y244268D01*
X456431Y244235D01*
X456461Y244187D01*
X456495Y244115D01*
X456533Y244016D01*
X456572Y243883D01*
X456608Y243717D01*
X456629Y243562D01*
Y234810D01*
X404910Y183090D01*
X403962Y181672D01*
X403629Y180000D01*
Y138000D01*
X403962Y136328D01*
X404910Y134910D01*
X416839Y122981D01*
X416996Y122759D01*
X417185Y122423D01*
X417361Y122021D01*
X417522Y121549D01*
X417660Y121004D01*
X417765Y120423D01*
X417900Y118898D01*
X417911Y118043D01*
X417960Y117811D01*
Y116678D01*
X418644Y114125D01*
X419966Y111836D01*
X421836Y109966D01*
X424125Y108645D01*
X426679Y107960D01*
X427811D01*
X428043Y107911D01*
X428932Y107900D01*
X429696Y107853D01*
X430386Y107772D01*
X431004Y107660D01*
X431549Y107522D01*
X432021Y107361D01*
X432422Y107185D01*
X432759Y106996D01*
X432981Y106839D01*
X444910Y94910D01*
X446328Y93962D01*
X448000Y93630D01*
X485000D01*
X486673Y93962D01*
X488090Y94910D01*
X562090Y168910D01*
X563038Y170327D01*
X563371Y172000D01*
Y464000D01*
X563038Y465672D01*
X562090Y467090D01*
X548935Y480245D01*
X548842Y480370D01*
X548749Y480513D01*
X548683Y480634D01*
X548639Y480731D01*
X548613Y480806D01*
X548600Y480861D01*
X548594Y480901D01*
X548587Y481066D01*
X548540Y481262D01*
Y481861D01*
X548094Y483524D01*
X547233Y485016D01*
X546016Y486233D01*
X544524Y487094D01*
X542861Y487540D01*
D02*
G37*
G36*
X1247849Y71140D02*
X1244152D01*
X1240581Y70183D01*
X1237379Y68335D01*
X1234765Y65721D01*
X1232917Y62519D01*
X1231960Y58949D01*
Y55252D01*
X1232917Y51681D01*
X1234765Y48479D01*
X1237379Y45865D01*
X1240581Y44017D01*
X1244152Y43060D01*
X1247849D01*
X1251419Y44017D01*
X1254621Y45865D01*
X1257235Y48479D01*
X1259083Y51681D01*
X1260040Y55252D01*
Y58949D01*
X1259083Y62519D01*
X1257235Y65721D01*
X1254621Y68335D01*
X1251419Y70183D01*
X1247849Y71140D01*
D02*
G37*
G36*
X1146248D02*
X1142552D01*
X1138981Y70183D01*
X1135779Y68335D01*
X1133165Y65721D01*
X1131317Y62519D01*
X1130360Y58949D01*
Y55252D01*
X1131317Y51681D01*
X1133165Y48479D01*
X1135779Y45865D01*
X1138981Y44017D01*
X1142552Y43060D01*
X1146248D01*
X1149819Y44017D01*
X1153021Y45865D01*
X1155635Y48479D01*
X1157483Y51681D01*
X1158440Y55252D01*
Y58949D01*
X1157483Y62519D01*
X1155635Y65721D01*
X1153021Y68335D01*
X1149819Y70183D01*
X1146248Y71140D01*
D02*
G37*
G36*
X999449D02*
X995752D01*
X992181Y70183D01*
X988979Y68335D01*
X986365Y65721D01*
X984517Y62519D01*
X983560Y58949D01*
Y55252D01*
X984517Y51681D01*
X986365Y48479D01*
X988979Y45865D01*
X992181Y44017D01*
X995752Y43060D01*
X999449D01*
X1003019Y44017D01*
X1006221Y45865D01*
X1008835Y48479D01*
X1010683Y51681D01*
X1011640Y55252D01*
Y58949D01*
X1010683Y62519D01*
X1008835Y65721D01*
X1006221Y68335D01*
X1003019Y70183D01*
X999449Y71140D01*
D02*
G37*
G36*
X897849D02*
X894152D01*
X890581Y70183D01*
X887380Y68335D01*
X884765Y65721D01*
X882917Y62519D01*
X881960Y58949D01*
Y55252D01*
X882917Y51681D01*
X884765Y48479D01*
X887380Y45865D01*
X890581Y44017D01*
X894152Y43060D01*
X897849D01*
X901420Y44017D01*
X904621Y45865D01*
X907235Y48479D01*
X909083Y51681D01*
X910040Y55252D01*
Y58949D01*
X909083Y62519D01*
X907235Y65721D01*
X904621Y68335D01*
X901420Y70183D01*
X897849Y71140D01*
D02*
G37*
G36*
X749449D02*
X745752D01*
X742181Y70183D01*
X738979Y68335D01*
X736365Y65721D01*
X734517Y62519D01*
X733560Y58949D01*
Y55252D01*
X734517Y51681D01*
X736365Y48479D01*
X738979Y45865D01*
X742181Y44017D01*
X745752Y43060D01*
X749449D01*
X753019Y44017D01*
X756221Y45865D01*
X758835Y48479D01*
X760683Y51681D01*
X761640Y55252D01*
Y58949D01*
X760683Y62519D01*
X758835Y65721D01*
X756221Y68335D01*
X753019Y70183D01*
X749449Y71140D01*
D02*
G37*
G36*
X647849D02*
X644152D01*
X640581Y70183D01*
X637379Y68335D01*
X634765Y65721D01*
X632917Y62519D01*
X631960Y58949D01*
Y55252D01*
X632917Y51681D01*
X634765Y48479D01*
X637379Y45865D01*
X640581Y44017D01*
X644152Y43060D01*
X647849D01*
X651420Y44017D01*
X654621Y45865D01*
X657235Y48479D01*
X659083Y51681D01*
X660040Y55252D01*
Y58949D01*
X659083Y62519D01*
X657235Y65721D01*
X654621Y68335D01*
X651420Y70183D01*
X647849Y71140D01*
D02*
G37*
G36*
X447388Y46540D02*
X447270D01*
Y37270D01*
X456540D01*
Y37388D01*
X455822Y40068D01*
X454434Y42472D01*
X452472Y44434D01*
X450069Y45822D01*
X447388Y46540D01*
D02*
G37*
G36*
X444730D02*
X444613D01*
X441932Y45822D01*
X439529Y44434D01*
X437566Y42472D01*
X436179Y40068D01*
X435460Y37388D01*
Y37270D01*
X444730D01*
Y46540D01*
D02*
G37*
G36*
X147388D02*
X147270D01*
Y37270D01*
X156540D01*
Y37388D01*
X155822Y40068D01*
X154434Y42472D01*
X152472Y44434D01*
X150068Y45822D01*
X147388Y46540D01*
D02*
G37*
G36*
X144730D02*
X144613D01*
X141932Y45822D01*
X139528Y44434D01*
X137566Y42472D01*
X136178Y40068D01*
X135460Y37388D01*
Y37270D01*
X144730D01*
Y46540D01*
D02*
G37*
G36*
X522651Y58540D02*
X519349D01*
X516160Y57685D01*
X513300Y56034D01*
X510965Y53700D01*
X509314Y50840D01*
X508460Y47651D01*
Y44349D01*
X509314Y41160D01*
X510965Y38300D01*
X513300Y35965D01*
X516160Y34314D01*
X519349Y33460D01*
X522651D01*
X525840Y34314D01*
X528700Y35965D01*
X531034Y38300D01*
X532685Y41160D01*
X533540Y44349D01*
Y47651D01*
X532685Y50840D01*
X531034Y53700D01*
X528700Y56034D01*
X525840Y57685D01*
X522651Y58540D01*
D02*
G37*
G36*
X372651D02*
X369349D01*
X366160Y57685D01*
X363300Y56034D01*
X360966Y53700D01*
X359315Y50840D01*
X358460Y47651D01*
Y44349D01*
X359315Y41160D01*
X360966Y38300D01*
X363300Y35965D01*
X366160Y34314D01*
X369349Y33460D01*
X372651D01*
X375840Y34314D01*
X378700Y35965D01*
X381035Y38300D01*
X382686Y41160D01*
X383540Y44349D01*
Y47651D01*
X382686Y50840D01*
X381035Y53700D01*
X378700Y56034D01*
X375840Y57685D01*
X372651Y58540D01*
D02*
G37*
G36*
X222651D02*
X219349D01*
X216160Y57685D01*
X213300Y56034D01*
X210966Y53700D01*
X209315Y50840D01*
X208460Y47651D01*
Y44349D01*
X209315Y41160D01*
X210966Y38300D01*
X213300Y35965D01*
X216160Y34314D01*
X219349Y33460D01*
X222651D01*
X225840Y34314D01*
X228700Y35965D01*
X231035Y38300D01*
X232686Y41160D01*
X233540Y44349D01*
Y47651D01*
X232686Y50840D01*
X231035Y53700D01*
X228700Y56034D01*
X225840Y57685D01*
X222651Y58540D01*
D02*
G37*
G36*
X72651D02*
X69349D01*
X66160Y57685D01*
X63300Y56034D01*
X60965Y53700D01*
X59315Y50840D01*
X58460Y47651D01*
Y44349D01*
X59315Y41160D01*
X60965Y38300D01*
X63300Y35965D01*
X66160Y34314D01*
X69349Y33460D01*
X72651D01*
X75840Y34314D01*
X78700Y35965D01*
X81034Y38300D01*
X82685Y41160D01*
X83540Y44349D01*
Y47651D01*
X82685Y50840D01*
X81034Y53700D01*
X78700Y56034D01*
X75840Y57685D01*
X72651Y58540D01*
D02*
G37*
G36*
X456540Y34730D02*
X447270D01*
Y25460D01*
X447388D01*
X450069Y26178D01*
X452472Y27566D01*
X454434Y29528D01*
X455822Y31932D01*
X456540Y34612D01*
Y34730D01*
D02*
G37*
G36*
X444730D02*
X435460D01*
Y34612D01*
X436179Y31932D01*
X437566Y29528D01*
X439529Y27566D01*
X441932Y26178D01*
X444613Y25460D01*
X444730D01*
Y34730D01*
D02*
G37*
G36*
X156540D02*
X147270D01*
Y25460D01*
X147388D01*
X150068Y26178D01*
X152472Y27566D01*
X154434Y29528D01*
X155822Y31932D01*
X156540Y34612D01*
Y34730D01*
D02*
G37*
G36*
X144730D02*
X135460D01*
Y34612D01*
X136178Y31932D01*
X137566Y29528D01*
X139528Y27566D01*
X141932Y26178D01*
X144613Y25460D01*
X144730D01*
Y34730D01*
D02*
G37*
%LPD*%
G36*
X539143Y579200D02*
X538926Y579400D01*
X538687Y579579D01*
X538427Y579737D01*
X538145Y579874D01*
X537842Y579990D01*
X537517Y580085D01*
X537170Y580159D01*
X536802Y580211D01*
X536413Y580243D01*
X536001Y580253D01*
Y583746D01*
X536413Y583757D01*
X536802Y583789D01*
X537170Y583841D01*
X537517Y583915D01*
X537842Y584010D01*
X538145Y584126D01*
X538427Y584263D01*
X538687Y584421D01*
X538926Y584600D01*
X539143Y584800D01*
Y579200D01*
D02*
G37*
G36*
X129782Y165189D02*
X129887Y164575D01*
X130062Y163953D01*
X130307Y163322D01*
X130623Y162683D01*
X131008Y162035D01*
X131463Y161378D01*
X131989Y160713D01*
X132584Y160039D01*
X133250Y159356D01*
X122750D01*
X123416Y160039D01*
X124537Y161378D01*
X124992Y162035D01*
X125378Y162683D01*
X125693Y163322D01*
X125938Y163953D01*
X126114Y164575D01*
X126219Y165189D01*
X126254Y165794D01*
X129747D01*
X129782Y165189D01*
D02*
G37*
G36*
X545074Y558600D02*
X545313Y558421D01*
X545573Y558263D01*
X545855Y558126D01*
X546158Y558010D01*
X546483Y557915D01*
X546830Y557841D01*
X547198Y557789D01*
X547588Y557757D01*
X547999Y557747D01*
Y554254D01*
X547588Y554243D01*
X547198Y554211D01*
X546830Y554159D01*
X546483Y554085D01*
X546158Y553990D01*
X545855Y553874D01*
X545573Y553737D01*
X545313Y553579D01*
X545074Y553400D01*
X544857Y553200D01*
Y558800D01*
X545074Y558600D01*
D02*
G37*
G36*
X121348Y127172D02*
X121856Y126812D01*
X122420Y126496D01*
X123040Y126223D01*
X123715Y125994D01*
X124446Y125808D01*
X125232Y125666D01*
X126074Y125567D01*
X126972Y125512D01*
X127925Y125500D01*
X120500Y118075D01*
X120489Y119029D01*
X120334Y120768D01*
X120192Y121555D01*
X120006Y122285D01*
X119777Y122961D01*
X119504Y123580D01*
X119188Y124144D01*
X118829Y124652D01*
X118426Y125105D01*
X120896Y127575D01*
X121348Y127172D01*
D02*
G37*
G36*
X645600Y578926D02*
X645421Y578687D01*
X645263Y578427D01*
X645126Y578145D01*
X645010Y577842D01*
X644915Y577517D01*
X644841Y577170D01*
X644789Y576802D01*
X644757Y576413D01*
X644746Y576001D01*
X641254D01*
X641243Y576413D01*
X641211Y576802D01*
X641159Y577170D01*
X641085Y577517D01*
X640990Y577842D01*
X640874Y578145D01*
X640737Y578427D01*
X640579Y578687D01*
X640400Y578926D01*
X640200Y579143D01*
X645800D01*
X645600Y578926D01*
D02*
G37*
G36*
X633600Y552926D02*
X633421Y552687D01*
X633263Y552427D01*
X633126Y552145D01*
X633010Y551842D01*
X632915Y551517D01*
X632841Y551170D01*
X632789Y550802D01*
X632757Y550412D01*
X632747Y550001D01*
X629254D01*
X629243Y550412D01*
X629211Y550802D01*
X629159Y551170D01*
X629085Y551517D01*
X628990Y551842D01*
X628874Y552145D01*
X628737Y552427D01*
X628579Y552687D01*
X628400Y552926D01*
X628200Y553143D01*
X633800D01*
X633600Y552926D01*
D02*
G37*
G36*
X621600Y528926D02*
X621421Y528687D01*
X621263Y528427D01*
X621126Y528145D01*
X621010Y527842D01*
X620915Y527517D01*
X620841Y527170D01*
X620789Y526802D01*
X620757Y526413D01*
X620746Y526001D01*
X617253D01*
X617243Y526413D01*
X617211Y526802D01*
X617159Y527170D01*
X617085Y527517D01*
X616990Y527842D01*
X616874Y528145D01*
X616737Y528427D01*
X616579Y528687D01*
X616400Y528926D01*
X616200Y529143D01*
X621800D01*
X621600Y528926D01*
D02*
G37*
G36*
X609600Y504926D02*
X609421Y504687D01*
X609263Y504427D01*
X609126Y504145D01*
X609010Y503842D01*
X608915Y503517D01*
X608841Y503170D01*
X608789Y502802D01*
X608757Y502412D01*
X608746Y502001D01*
X605253D01*
X605243Y502412D01*
X605211Y502802D01*
X605159Y503170D01*
X605085Y503517D01*
X604990Y503842D01*
X604874Y504145D01*
X604737Y504427D01*
X604579Y504687D01*
X604400Y504926D01*
X604200Y505143D01*
X609800D01*
X609600Y504926D01*
D02*
G37*
G36*
X597600Y477926D02*
X597421Y477687D01*
X597263Y477427D01*
X597126Y477145D01*
X597010Y476842D01*
X596915Y476517D01*
X596841Y476170D01*
X596789Y475802D01*
X596757Y475412D01*
X596746Y475001D01*
X593254D01*
X593243Y475412D01*
X593211Y475802D01*
X593159Y476170D01*
X593085Y476517D01*
X592990Y476842D01*
X592874Y477145D01*
X592737Y477427D01*
X592579Y477687D01*
X592400Y477926D01*
X592200Y478143D01*
X597800D01*
X597600Y477926D01*
D02*
G37*
G36*
X585600Y452926D02*
X585421Y452687D01*
X585263Y452427D01*
X585126Y452145D01*
X585010Y451842D01*
X584915Y451517D01*
X584841Y451170D01*
X584789Y450802D01*
X584757Y450412D01*
X584747Y450001D01*
X581254D01*
X581243Y450412D01*
X581211Y450802D01*
X581159Y451170D01*
X581085Y451517D01*
X580990Y451842D01*
X580874Y452145D01*
X580737Y452427D01*
X580579Y452687D01*
X580400Y452926D01*
X580200Y453143D01*
X585800D01*
X585600Y452926D01*
D02*
G37*
G36*
X646292Y388193D02*
X646589Y387940D01*
X646887Y387717D01*
X647184Y387524D01*
X647481Y387362D01*
X647777Y387229D01*
X648074Y387127D01*
X648369Y387054D01*
X648665Y387012D01*
X648960Y387000D01*
X645000Y383040D01*
X644988Y383335D01*
X644946Y383631D01*
X644874Y383927D01*
X644771Y384223D01*
X644638Y384519D01*
X644476Y384816D01*
X644283Y385113D01*
X644060Y385411D01*
X643807Y385709D01*
X643523Y386007D01*
X645993Y388477D01*
X646292Y388193D01*
D02*
G37*
G36*
X646143Y355200D02*
X645926Y355400D01*
X645687Y355579D01*
X645427Y355737D01*
X645145Y355874D01*
X644842Y355990D01*
X644517Y356085D01*
X644170Y356159D01*
X643802Y356211D01*
X643412Y356243D01*
X643001Y356254D01*
Y359747D01*
X643412Y359757D01*
X643802Y359789D01*
X644170Y359841D01*
X644517Y359915D01*
X644842Y360010D01*
X645145Y360126D01*
X645427Y360263D01*
X645687Y360421D01*
X645926Y360600D01*
X646143Y360800D01*
Y355200D01*
D02*
G37*
G36*
Y329200D02*
X645926Y329400D01*
X645687Y329579D01*
X645427Y329737D01*
X645145Y329874D01*
X644842Y329990D01*
X644517Y330085D01*
X644170Y330159D01*
X643802Y330211D01*
X643412Y330243D01*
X643001Y330253D01*
Y333746D01*
X643412Y333757D01*
X643802Y333789D01*
X644170Y333841D01*
X644517Y333915D01*
X644842Y334010D01*
X645145Y334126D01*
X645427Y334263D01*
X645687Y334421D01*
X645926Y334600D01*
X646143Y334800D01*
Y329200D01*
D02*
G37*
G36*
Y304200D02*
X645926Y304400D01*
X645687Y304579D01*
X645427Y304737D01*
X645145Y304874D01*
X644842Y304990D01*
X644517Y305085D01*
X644170Y305159D01*
X643802Y305211D01*
X643412Y305243D01*
X643001Y305254D01*
Y308746D01*
X643412Y308757D01*
X643802Y308789D01*
X644170Y308841D01*
X644517Y308915D01*
X644842Y309010D01*
X645145Y309126D01*
X645427Y309263D01*
X645687Y309421D01*
X645926Y309600D01*
X646143Y309800D01*
Y304200D01*
D02*
G37*
G36*
X645534Y280003D02*
X645376Y280241D01*
X645189Y280453D01*
X644974Y280641D01*
X644730Y280803D01*
X644458Y280941D01*
X644157Y281053D01*
X643828Y281141D01*
X643471Y281203D01*
X643085Y281241D01*
X642670Y281254D01*
X643692Y284746D01*
X644105Y284753D01*
X644873Y284808D01*
X645227Y284855D01*
X645875Y284991D01*
X646170Y285079D01*
X646444Y285181D01*
X646699Y285296D01*
X646934Y285425D01*
X645534Y280003D01*
D02*
G37*
G36*
X646143Y253200D02*
X645926Y253400D01*
X645687Y253579D01*
X645427Y253737D01*
X645145Y253874D01*
X644842Y253990D01*
X644517Y254085D01*
X644170Y254159D01*
X643802Y254211D01*
X643412Y254243D01*
X643001Y254254D01*
Y257747D01*
X643412Y257757D01*
X643802Y257789D01*
X644170Y257841D01*
X644517Y257915D01*
X644842Y258010D01*
X645145Y258126D01*
X645427Y258263D01*
X645687Y258421D01*
X645926Y258600D01*
X646143Y258800D01*
Y253200D01*
D02*
G37*
G36*
X539143Y529200D02*
X538926Y529400D01*
X538687Y529579D01*
X538427Y529737D01*
X538145Y529874D01*
X537842Y529990D01*
X537517Y530085D01*
X537170Y530159D01*
X536802Y530211D01*
X536413Y530243D01*
X536001Y530253D01*
Y533746D01*
X536413Y533757D01*
X536802Y533789D01*
X537170Y533841D01*
X537517Y533915D01*
X537842Y534010D01*
X538145Y534126D01*
X538427Y534263D01*
X538687Y534421D01*
X538926Y534600D01*
X539143Y534800D01*
Y529200D01*
D02*
G37*
G36*
X408549Y222273D02*
X408286Y222353D01*
X408019Y222394D01*
X407748Y222393D01*
X407472Y222352D01*
X407191Y222270D01*
X406906Y222147D01*
X406616Y221984D01*
X406322Y221780D01*
X406023Y221535D01*
X405719Y221249D01*
X404334Y224804D01*
X404628Y225105D01*
X405575Y226211D01*
X405755Y226463D01*
X406045Y226939D01*
X406156Y227163D01*
X406244Y227377D01*
X408549Y222273D01*
D02*
G37*
G36*
X147782Y147189D02*
X147887Y146575D01*
X148062Y145953D01*
X148307Y145322D01*
X148623Y144683D01*
X149008Y144035D01*
X149463Y143378D01*
X149989Y142713D01*
X150584Y142039D01*
X151250Y141356D01*
X140750D01*
X141416Y142039D01*
X142537Y143378D01*
X142992Y144035D01*
X143378Y144683D01*
X143693Y145322D01*
X143938Y145953D01*
X144114Y146575D01*
X144219Y147189D01*
X144254Y147794D01*
X147747D01*
X147782Y147189D01*
D02*
G37*
G36*
X152039Y140585D02*
X153378Y139463D01*
X154035Y139008D01*
X154683Y138623D01*
X155322Y138307D01*
X155953Y138062D01*
X156575Y137887D01*
X157189Y137782D01*
X157794Y137747D01*
Y134254D01*
X157189Y134219D01*
X156575Y134114D01*
X155953Y133938D01*
X155322Y133693D01*
X154683Y133378D01*
X154035Y132992D01*
X153378Y132537D01*
X152713Y132011D01*
X152039Y131416D01*
X151356Y130750D01*
Y141250D01*
X152039Y140585D01*
D02*
G37*
G36*
X541021Y504524D02*
X540790Y504631D01*
X540552Y504694D01*
X540304Y504713D01*
X540049Y504689D01*
X539785Y504620D01*
X539513Y504508D01*
X539233Y504352D01*
X538944Y504152D01*
X538647Y503908D01*
X538341Y503621D01*
X536221Y506441D01*
X539413Y509770D01*
X541021Y504524D01*
D02*
G37*
G36*
X437575Y161105D02*
X437172Y160652D01*
X436812Y160144D01*
X436496Y159580D01*
X436223Y158961D01*
X435994Y158285D01*
X435808Y157555D01*
X435666Y156768D01*
X435567Y155926D01*
X435512Y155028D01*
X435500Y154075D01*
X428075Y161500D01*
X429029Y161512D01*
X430768Y161666D01*
X431555Y161808D01*
X432285Y161994D01*
X432961Y162223D01*
X433580Y162496D01*
X434144Y162812D01*
X434652Y163172D01*
X435105Y163575D01*
X437575Y161105D01*
D02*
G37*
G36*
X544600Y452926D02*
X544421Y452687D01*
X544263Y452427D01*
X544126Y452145D01*
X544010Y451842D01*
X543915Y451517D01*
X543841Y451170D01*
X543789Y450802D01*
X543757Y450412D01*
X543746Y450001D01*
X540253D01*
X540243Y450412D01*
X540211Y450802D01*
X540159Y451170D01*
X540085Y451517D01*
X539990Y451842D01*
X539874Y452145D01*
X539737Y452427D01*
X539579Y452687D01*
X539400Y452926D01*
X539200Y453143D01*
X544800D01*
X544600Y452926D01*
D02*
G37*
G36*
X452039Y140585D02*
X453378Y139463D01*
X454035Y139008D01*
X454683Y138623D01*
X455322Y138307D01*
X455953Y138062D01*
X456575Y137887D01*
X457189Y137782D01*
X457794Y137747D01*
Y134254D01*
X457189Y134219D01*
X456575Y134114D01*
X455953Y133938D01*
X455322Y133693D01*
X454683Y133378D01*
X454035Y132992D01*
X453378Y132537D01*
X452713Y132011D01*
X452039Y131416D01*
X451356Y130750D01*
Y141250D01*
X452039Y140585D01*
D02*
G37*
G36*
X993074Y484600D02*
X993313Y484421D01*
X993573Y484263D01*
X993855Y484126D01*
X994158Y484010D01*
X994483Y483915D01*
X994830Y483841D01*
X995198Y483789D01*
X995587Y483757D01*
X995999Y483746D01*
Y480253D01*
X995587Y480243D01*
X995198Y480211D01*
X994830Y480159D01*
X994483Y480085D01*
X994158Y479990D01*
X993855Y479874D01*
X993573Y479737D01*
X993313Y479579D01*
X993074Y479400D01*
X992857Y479200D01*
Y484800D01*
X993074Y484600D01*
D02*
G37*
G36*
X1222371Y154813D02*
X1222445Y154290D01*
X1222567Y153772D01*
X1222739Y153259D01*
X1222960Y152751D01*
X1223230Y152248D01*
X1223549Y151750D01*
X1223917Y151257D01*
X1224334Y150768D01*
X1224800Y150285D01*
X1216400D01*
X1216866Y150768D01*
X1217283Y151257D01*
X1217651Y151750D01*
X1217970Y152248D01*
X1218240Y152751D01*
X1218461Y153259D01*
X1218633Y153772D01*
X1218755Y154290D01*
X1218829Y154813D01*
X1218854Y155340D01*
X1222347D01*
X1222371Y154813D01*
D02*
G37*
G36*
X992074Y458600D02*
X992313Y458421D01*
X992573Y458263D01*
X992855Y458126D01*
X993158Y458010D01*
X993483Y457915D01*
X993830Y457841D01*
X994198Y457789D01*
X994587Y457757D01*
X994999Y457747D01*
Y454254D01*
X994587Y454243D01*
X994198Y454211D01*
X993830Y454159D01*
X993483Y454085D01*
X993158Y453990D01*
X992855Y453874D01*
X992573Y453737D01*
X992313Y453579D01*
X992074Y453400D01*
X991857Y453200D01*
Y458800D01*
X992074Y458600D01*
D02*
G37*
G36*
X1171571Y154813D02*
X1171645Y154290D01*
X1171767Y153772D01*
X1171939Y153259D01*
X1172160Y152751D01*
X1172430Y152248D01*
X1172749Y151750D01*
X1173117Y151257D01*
X1173534Y150768D01*
X1174000Y150285D01*
X1165600D01*
X1166066Y150768D01*
X1166483Y151257D01*
X1166851Y151750D01*
X1167170Y152248D01*
X1167440Y152751D01*
X1167661Y153259D01*
X1167833Y153772D01*
X1167955Y154290D01*
X1168029Y154813D01*
X1168054Y155340D01*
X1171547D01*
X1171571Y154813D01*
D02*
G37*
G36*
X924074Y534600D02*
X924313Y534421D01*
X924573Y534263D01*
X924855Y534126D01*
X925158Y534010D01*
X925483Y533915D01*
X925830Y533841D01*
X926198Y533789D01*
X926588Y533757D01*
X926999Y533746D01*
Y530253D01*
X926588Y530243D01*
X926198Y530211D01*
X925830Y530159D01*
X925483Y530085D01*
X925158Y529990D01*
X924855Y529874D01*
X924573Y529737D01*
X924313Y529579D01*
X924074Y529400D01*
X923857Y529200D01*
Y534800D01*
X924074Y534600D01*
D02*
G37*
G36*
X973971Y154813D02*
X974045Y154290D01*
X974167Y153772D01*
X974339Y153259D01*
X974560Y152751D01*
X974830Y152248D01*
X975149Y151750D01*
X975517Y151257D01*
X975934Y150768D01*
X976400Y150285D01*
X968000D01*
X968466Y150768D01*
X968884Y151257D01*
X969251Y151750D01*
X969570Y152248D01*
X969840Y152751D01*
X970061Y153259D01*
X970233Y153772D01*
X970356Y154290D01*
X970429Y154813D01*
X970454Y155340D01*
X973947D01*
X973971Y154813D01*
D02*
G37*
G36*
X923751Y506062D02*
X923582Y505816D01*
X923433Y505549D01*
X923304Y505262D01*
X923195Y504954D01*
X923105Y504625D01*
X923036Y504276D01*
X922986Y503907D01*
X922956Y503517D01*
X922947Y503106D01*
X919454Y502911D01*
X919443Y503322D01*
X919409Y503711D01*
X919354Y504078D01*
X919277Y504421D01*
X919177Y504742D01*
X919055Y505040D01*
X918911Y505316D01*
X918745Y505569D01*
X918557Y505799D01*
X918346Y506007D01*
X923939Y506287D01*
X923751Y506062D01*
D02*
G37*
G36*
X922972Y154866D02*
X923047Y154342D01*
X923172Y153826D01*
X923348Y153318D01*
X923574Y152816D01*
X923850Y152323D01*
X924176Y151836D01*
X924552Y151358D01*
X924978Y150886D01*
X925455Y150423D01*
X917060Y150143D01*
X917514Y150646D01*
X917922Y151151D01*
X918281Y151658D01*
X918592Y152168D01*
X918855Y152680D01*
X919071Y153195D01*
X919238Y153711D01*
X919358Y154230D01*
X919430Y154752D01*
X919454Y155276D01*
X922947Y155398D01*
X922972Y154866D01*
D02*
G37*
G36*
X799600Y579926D02*
X799421Y579687D01*
X799263Y579427D01*
X799126Y579145D01*
X799010Y578842D01*
X798915Y578517D01*
X798841Y578170D01*
X798789Y577802D01*
X798757Y577412D01*
X798746Y577001D01*
X795254D01*
X795243Y577412D01*
X795211Y577802D01*
X795159Y578170D01*
X795085Y578517D01*
X794990Y578842D01*
X794874Y579145D01*
X794737Y579427D01*
X794579Y579687D01*
X794400Y579926D01*
X794200Y580143D01*
X799800D01*
X799600Y579926D01*
D02*
G37*
G36*
X723971Y154813D02*
X724045Y154290D01*
X724167Y153772D01*
X724339Y153259D01*
X724560Y152751D01*
X724830Y152248D01*
X725149Y151750D01*
X725517Y151257D01*
X725934Y150768D01*
X726400Y150285D01*
X718000D01*
X718466Y150768D01*
X718884Y151257D01*
X719251Y151750D01*
X719570Y152248D01*
X719840Y152751D01*
X720061Y153259D01*
X720233Y153772D01*
X720356Y154290D01*
X720429Y154813D01*
X720454Y155340D01*
X723947D01*
X723971Y154813D01*
D02*
G37*
G36*
X784600Y554926D02*
X784421Y554687D01*
X784263Y554427D01*
X784126Y554145D01*
X784010Y553842D01*
X783915Y553517D01*
X783841Y553170D01*
X783789Y552802D01*
X783757Y552412D01*
X783746Y552001D01*
X780254D01*
X780243Y552412D01*
X780211Y552802D01*
X780159Y553170D01*
X780085Y553517D01*
X779990Y553842D01*
X779874Y554145D01*
X779737Y554427D01*
X779579Y554687D01*
X779400Y554926D01*
X779200Y555143D01*
X784800D01*
X784600Y554926D01*
D02*
G37*
G36*
X673171Y154813D02*
X673245Y154290D01*
X673367Y153772D01*
X673539Y153259D01*
X673760Y152751D01*
X674030Y152248D01*
X674349Y151750D01*
X674717Y151257D01*
X675134Y150768D01*
X675600Y150285D01*
X667200D01*
X667666Y150768D01*
X668083Y151257D01*
X668452Y151750D01*
X668771Y152248D01*
X669040Y152751D01*
X669261Y153259D01*
X669433Y153772D01*
X669556Y154290D01*
X669629Y154813D01*
X669654Y155340D01*
X673147D01*
X673171Y154813D01*
D02*
G37*
G36*
X546012Y480665D02*
X546054Y480369D01*
X546127Y480074D01*
X546229Y479777D01*
X546362Y479481D01*
X546524Y479184D01*
X546717Y478887D01*
X546940Y478589D01*
X547193Y478292D01*
X547477Y477993D01*
X545007Y475523D01*
X544709Y475807D01*
X544411Y476060D01*
X544113Y476283D01*
X543816Y476476D01*
X543519Y476638D01*
X543223Y476771D01*
X542926Y476874D01*
X542631Y476946D01*
X542335Y476988D01*
X542040Y477000D01*
X546000Y480960D01*
X546012Y480665D01*
D02*
G37*
G36*
X463600Y245926D02*
X463421Y245687D01*
X463263Y245427D01*
X463126Y245145D01*
X463010Y244842D01*
X462915Y244517D01*
X462841Y244170D01*
X462789Y243802D01*
X462757Y243412D01*
X462747Y243001D01*
X459254D01*
X459243Y243412D01*
X459211Y243802D01*
X459159Y244170D01*
X459085Y244517D01*
X458990Y244842D01*
X458874Y245145D01*
X458737Y245427D01*
X458579Y245687D01*
X458400Y245926D01*
X458200Y246143D01*
X463800D01*
X463600Y245926D01*
D02*
G37*
G36*
X421348Y127172D02*
X421857Y126812D01*
X422420Y126496D01*
X423040Y126223D01*
X423715Y125994D01*
X424446Y125808D01*
X425232Y125666D01*
X426074Y125567D01*
X426972Y125512D01*
X427925Y125500D01*
X420501Y118075D01*
X420489Y119029D01*
X420335Y120768D01*
X420192Y121555D01*
X420006Y122285D01*
X419777Y122961D01*
X419505Y123580D01*
X419188Y124144D01*
X418829Y124652D01*
X418426Y125105D01*
X420896Y127575D01*
X421348Y127172D01*
D02*
G37*
G36*
X435512Y116972D02*
X435666Y115232D01*
X435808Y114446D01*
X435994Y113715D01*
X436223Y113040D01*
X436496Y112421D01*
X436812Y111857D01*
X437172Y111348D01*
X437575Y110896D01*
X435105Y108426D01*
X434652Y108829D01*
X434144Y109188D01*
X433580Y109505D01*
X432961Y109777D01*
X432285Y110007D01*
X431555Y110192D01*
X430768Y110335D01*
X429926Y110433D01*
X429029Y110489D01*
X428075Y110501D01*
X435500Y117925D01*
X435512Y116972D01*
D02*
G37*
D27*
X643000Y389000D02*
Y582000D01*
Y389000D02*
X649000Y383000D01*
X631000Y364000D02*
Y556000D01*
Y364000D02*
X637000Y358000D01*
X619000Y343000D02*
Y532000D01*
Y343000D02*
X630000Y332000D01*
X595000Y308000D02*
Y481000D01*
Y308000D02*
X620000Y283000D01*
X637000Y358000D02*
X649000D01*
X630000Y332000D02*
X649000D01*
X607000Y327000D02*
X627000Y307000D01*
X649000D01*
X612000Y256000D02*
X649000D01*
X583000Y285000D02*
X612000Y256000D01*
X583000Y285000D02*
Y456000D01*
X648000Y283000D02*
X649000Y282000D01*
X620000Y283000D02*
X648000D01*
X607000Y327000D02*
Y508000D01*
X671400Y160400D02*
X782000Y271000D01*
X671400Y146000D02*
Y160400D01*
X782000Y271000D02*
Y558000D01*
X722200Y146000D02*
Y166200D01*
X797000Y241000D02*
Y583000D01*
X722200Y166200D02*
X797000Y241000D01*
X921000Y532000D02*
X950000D01*
X972200Y509800D01*
X921200Y146200D02*
Y508800D01*
Y146200D02*
X921400Y146000D01*
X921000Y509000D02*
X921200Y508800D01*
X972200Y146000D02*
Y509800D01*
X989000Y456000D02*
X1116000D01*
X990000Y482000D02*
X1150000D01*
X1220600Y411400D01*
X1116000Y456000D02*
X1169800Y402200D01*
X567000Y572000D02*
Y595000D01*
X542000Y556000D02*
X551000D01*
X567000Y572000D01*
X252000Y610000D02*
X552000D01*
X567000Y595000D01*
X262000Y582000D02*
X542000D01*
X128000Y448000D02*
X262000Y582000D01*
X261000Y532000D02*
X542000D01*
X146000Y417000D02*
X261000Y532000D01*
X540251Y508000D02*
X543000D01*
X523028Y491028D02*
X536856Y504856D01*
X523028Y249028D02*
Y491028D01*
X537107Y504856D02*
X540251Y508000D01*
X536856Y504856D02*
X537107D01*
X428000Y154000D02*
X523028Y249028D01*
X542000Y481000D02*
X559000Y464000D01*
Y172000D02*
Y464000D01*
X485000Y98000D02*
X559000Y172000D01*
X542000Y183000D02*
Y456000D01*
X495000Y136000D02*
X542000Y183000D01*
X448000Y98000D02*
X485000D01*
X428000Y118000D02*
X448000Y98000D01*
X446000Y136000D02*
X495000D01*
X1220600Y146000D02*
Y411400D01*
X1169800Y146000D02*
Y402200D01*
X105000Y463000D02*
X252000Y610000D01*
X146000Y136000D02*
Y417000D01*
X128000Y154000D02*
Y448000D01*
X105000Y141000D02*
X128000Y118000D01*
X105000Y141000D02*
Y463000D01*
X461000Y233000D02*
Y249000D01*
X408000Y180000D02*
X461000Y233000D01*
X408000Y138000D02*
Y180000D01*
Y138000D02*
X428000Y118000D01*
X408000Y226000D02*
X410000D01*
X318000Y136000D02*
X408000Y226000D01*
X146000Y136000D02*
X318000D01*
D28*
X40000Y660000D02*
D03*
X1260000D02*
D03*
D29*
X446000Y36000D02*
D03*
X146000D02*
D03*
D30*
X722200Y146000D02*
D03*
X946800D02*
D03*
X1169800D02*
D03*
X1220600D02*
D03*
X696800Y120600D02*
D03*
Y146000D02*
D03*
X921400D02*
D03*
X1195200Y120600D02*
D03*
X972200Y146000D02*
D03*
X1195200D02*
D03*
X671400D02*
D03*
X946800Y120600D02*
D03*
D31*
X146000Y136000D02*
D03*
X428000Y118000D02*
D03*
X128000D02*
D03*
X428000Y154000D02*
D03*
X446000Y136000D02*
D03*
X128000Y154000D02*
D03*
X464000D02*
D03*
Y118000D02*
D03*
X164000Y154000D02*
D03*
Y118000D02*
D03*
D32*
X371000Y46000D02*
D03*
X521000D02*
D03*
X71000D02*
D03*
X221000D02*
D03*
D33*
X1144400Y57100D02*
D03*
X1246000D02*
D03*
X896000D02*
D03*
X997600D02*
D03*
X646000D02*
D03*
X747600D02*
D03*
D34*
X1290999Y676000D02*
D03*
Y646000D02*
D03*
Y616000D02*
D03*
Y586000D02*
D03*
Y556000D02*
D03*
Y526000D02*
D03*
Y496000D02*
D03*
Y466000D02*
D03*
Y436000D02*
D03*
Y406000D02*
D03*
Y376000D02*
D03*
Y346000D02*
D03*
Y316000D02*
D03*
Y286000D02*
D03*
Y256000D02*
D03*
Y226000D02*
D03*
Y196000D02*
D03*
Y166000D02*
D03*
Y136000D02*
D03*
Y106000D02*
D03*
Y76000D02*
D03*
Y46000D02*
D03*
Y16000D02*
D03*
X1283499Y691000D02*
D03*
X1276000Y676000D02*
D03*
X1283499Y661000D02*
D03*
X1276000Y646000D02*
D03*
X1283499Y631000D02*
D03*
X1276000Y616000D02*
D03*
X1283499Y601000D02*
D03*
X1276000Y586000D02*
D03*
X1283499Y571000D02*
D03*
X1276000Y556000D02*
D03*
X1283499Y541000D02*
D03*
X1276000Y526000D02*
D03*
X1283499Y511000D02*
D03*
X1276000Y496000D02*
D03*
X1283499Y481000D02*
D03*
X1276000Y466000D02*
D03*
X1283499Y451000D02*
D03*
X1276000Y436000D02*
D03*
X1283499Y421000D02*
D03*
X1276000Y406000D02*
D03*
X1283499Y391000D02*
D03*
X1276000Y376000D02*
D03*
X1283499Y361000D02*
D03*
X1276000Y346000D02*
D03*
X1283499Y331000D02*
D03*
X1276000Y316000D02*
D03*
X1283499Y301000D02*
D03*
X1276000Y286000D02*
D03*
X1283499Y271000D02*
D03*
X1276000Y256000D02*
D03*
X1283499Y241000D02*
D03*
X1276000Y226000D02*
D03*
X1283499Y211000D02*
D03*
X1276000Y196000D02*
D03*
X1283499Y181000D02*
D03*
X1276000Y166000D02*
D03*
X1283499Y151000D02*
D03*
X1276000Y136000D02*
D03*
X1283499Y121000D02*
D03*
X1276000Y106000D02*
D03*
X1283499Y91000D02*
D03*
X1276000Y76000D02*
D03*
X1283499Y61000D02*
D03*
X1276000Y46000D02*
D03*
X1283499Y31000D02*
D03*
X1276000Y16000D02*
D03*
X1268500Y691000D02*
D03*
Y631000D02*
D03*
X1261000Y616000D02*
D03*
X1268500Y601000D02*
D03*
X1261000Y586000D02*
D03*
X1268500Y571000D02*
D03*
X1261000Y556000D02*
D03*
X1268500Y541000D02*
D03*
X1261000Y526000D02*
D03*
X1268500Y511000D02*
D03*
X1261000Y496000D02*
D03*
X1268500Y481000D02*
D03*
X1261000Y466000D02*
D03*
X1268500Y451000D02*
D03*
X1261000Y436000D02*
D03*
X1268500Y421000D02*
D03*
X1261000Y406000D02*
D03*
X1268500Y391000D02*
D03*
X1261000Y376000D02*
D03*
X1268500Y361000D02*
D03*
X1261000Y346000D02*
D03*
X1268500Y331000D02*
D03*
X1261000Y316000D02*
D03*
X1268500Y301000D02*
D03*
X1261000Y286000D02*
D03*
X1268500Y271000D02*
D03*
X1261000Y256000D02*
D03*
X1268500Y241000D02*
D03*
X1261000Y226000D02*
D03*
X1268500Y211000D02*
D03*
X1261000Y196000D02*
D03*
X1268500Y181000D02*
D03*
Y151000D02*
D03*
Y121000D02*
D03*
X1261000Y106000D02*
D03*
X1268500Y91000D02*
D03*
X1261000Y76000D02*
D03*
X1268500Y61000D02*
D03*
Y31000D02*
D03*
X1261000Y16000D02*
D03*
X1253500Y691000D02*
D03*
X1246000Y676000D02*
D03*
X1253500Y631000D02*
D03*
X1246000Y616000D02*
D03*
X1253500Y601000D02*
D03*
X1246000Y586000D02*
D03*
X1253500Y571000D02*
D03*
X1246000Y556000D02*
D03*
X1253500Y541000D02*
D03*
X1246000Y526000D02*
D03*
X1253500Y511000D02*
D03*
X1246000Y496000D02*
D03*
X1253500Y481000D02*
D03*
X1246000Y466000D02*
D03*
X1253500Y451000D02*
D03*
X1246000Y436000D02*
D03*
X1253500Y421000D02*
D03*
X1246000Y406000D02*
D03*
X1253500Y391000D02*
D03*
X1246000Y376000D02*
D03*
X1253500Y361000D02*
D03*
X1246000Y346000D02*
D03*
X1253500Y331000D02*
D03*
X1246000Y316000D02*
D03*
X1253500Y301000D02*
D03*
X1246000Y286000D02*
D03*
X1253500Y271000D02*
D03*
X1246000Y256000D02*
D03*
X1253500Y241000D02*
D03*
X1246000Y226000D02*
D03*
X1253500Y211000D02*
D03*
X1246000Y196000D02*
D03*
X1253500Y181000D02*
D03*
X1246000Y106000D02*
D03*
X1253500Y91000D02*
D03*
Y31000D02*
D03*
X1246000Y16000D02*
D03*
X1238500Y691000D02*
D03*
X1231000Y676000D02*
D03*
X1238500Y661000D02*
D03*
X1231000Y646000D02*
D03*
X1238500Y631000D02*
D03*
X1231000Y616000D02*
D03*
X1238500Y601000D02*
D03*
X1231000Y586000D02*
D03*
X1238500Y571000D02*
D03*
X1231000Y556000D02*
D03*
X1238500Y541000D02*
D03*
X1231000Y526000D02*
D03*
X1238500Y511000D02*
D03*
X1231000Y496000D02*
D03*
X1238500Y481000D02*
D03*
X1231000Y466000D02*
D03*
X1238500Y451000D02*
D03*
X1231000Y436000D02*
D03*
X1238500Y421000D02*
D03*
Y391000D02*
D03*
Y361000D02*
D03*
Y331000D02*
D03*
Y301000D02*
D03*
Y271000D02*
D03*
Y241000D02*
D03*
Y211000D02*
D03*
Y151000D02*
D03*
X1231000Y136000D02*
D03*
X1238500Y91000D02*
D03*
X1231000Y76000D02*
D03*
X1238500Y31000D02*
D03*
X1231000Y16000D02*
D03*
X1223500Y691000D02*
D03*
X1216000Y676000D02*
D03*
X1223500Y661000D02*
D03*
X1216000Y646000D02*
D03*
X1223500Y631000D02*
D03*
X1216000Y616000D02*
D03*
X1223500Y601000D02*
D03*
X1216000Y586000D02*
D03*
X1223500Y571000D02*
D03*
X1216000Y556000D02*
D03*
X1223500Y541000D02*
D03*
X1216000Y526000D02*
D03*
X1223500Y511000D02*
D03*
X1216000Y496000D02*
D03*
X1223500Y481000D02*
D03*
X1216000Y466000D02*
D03*
X1223500Y451000D02*
D03*
X1216000Y436000D02*
D03*
X1223500Y121000D02*
D03*
X1216000Y76000D02*
D03*
X1223500Y61000D02*
D03*
X1216000Y46000D02*
D03*
X1223500Y31000D02*
D03*
X1216000Y16000D02*
D03*
X1208500Y691000D02*
D03*
X1201000Y676000D02*
D03*
X1208500Y661000D02*
D03*
X1201000Y646000D02*
D03*
X1208500Y631000D02*
D03*
X1201000Y616000D02*
D03*
X1208500Y601000D02*
D03*
X1201000Y586000D02*
D03*
X1208500Y571000D02*
D03*
X1201000Y556000D02*
D03*
X1208500Y541000D02*
D03*
X1201000Y526000D02*
D03*
X1208500Y511000D02*
D03*
X1201000Y496000D02*
D03*
X1208500Y481000D02*
D03*
X1201000Y466000D02*
D03*
X1208500Y451000D02*
D03*
X1201000Y406000D02*
D03*
X1208500Y391000D02*
D03*
X1201000Y376000D02*
D03*
X1208500Y361000D02*
D03*
X1201000Y346000D02*
D03*
X1208500Y331000D02*
D03*
X1201000Y316000D02*
D03*
X1208500Y301000D02*
D03*
X1201000Y286000D02*
D03*
X1208500Y271000D02*
D03*
X1201000Y256000D02*
D03*
X1208500Y241000D02*
D03*
X1201000Y226000D02*
D03*
X1208500Y211000D02*
D03*
X1201000Y196000D02*
D03*
Y106000D02*
D03*
Y76000D02*
D03*
X1208500Y61000D02*
D03*
X1201000Y46000D02*
D03*
X1208500Y31000D02*
D03*
X1201000Y16000D02*
D03*
X1193500Y691000D02*
D03*
X1186000Y676000D02*
D03*
X1193500Y661000D02*
D03*
X1186000Y646000D02*
D03*
X1193500Y631000D02*
D03*
X1186000Y616000D02*
D03*
X1193500Y601000D02*
D03*
X1186000Y586000D02*
D03*
X1193500Y571000D02*
D03*
X1186000Y556000D02*
D03*
X1193500Y541000D02*
D03*
X1186000Y526000D02*
D03*
X1193500Y511000D02*
D03*
X1186000Y496000D02*
D03*
X1193500Y481000D02*
D03*
X1186000Y466000D02*
D03*
X1193500Y421000D02*
D03*
X1186000Y406000D02*
D03*
X1193500Y391000D02*
D03*
X1186000Y376000D02*
D03*
X1193500Y361000D02*
D03*
X1186000Y346000D02*
D03*
X1193500Y331000D02*
D03*
X1186000Y316000D02*
D03*
X1193500Y301000D02*
D03*
X1186000Y286000D02*
D03*
X1193500Y271000D02*
D03*
X1186000Y256000D02*
D03*
X1193500Y241000D02*
D03*
X1186000Y226000D02*
D03*
X1193500Y211000D02*
D03*
X1186000Y196000D02*
D03*
X1193500Y181000D02*
D03*
X1186000Y166000D02*
D03*
Y76000D02*
D03*
X1193500Y61000D02*
D03*
X1186000Y46000D02*
D03*
X1193500Y31000D02*
D03*
X1186000Y16000D02*
D03*
X1178500Y691000D02*
D03*
X1171000Y676000D02*
D03*
X1178500Y661000D02*
D03*
X1171000Y646000D02*
D03*
X1178500Y631000D02*
D03*
X1171000Y616000D02*
D03*
X1178500Y601000D02*
D03*
X1171000Y586000D02*
D03*
X1178500Y571000D02*
D03*
X1171000Y556000D02*
D03*
X1178500Y541000D02*
D03*
X1171000Y526000D02*
D03*
X1178500Y511000D02*
D03*
X1171000Y496000D02*
D03*
X1178500Y481000D02*
D03*
X1171000Y436000D02*
D03*
X1178500Y421000D02*
D03*
Y121000D02*
D03*
X1171000Y76000D02*
D03*
X1178500Y61000D02*
D03*
X1171000Y46000D02*
D03*
X1178500Y31000D02*
D03*
X1171000Y16000D02*
D03*
X1163500Y691000D02*
D03*
X1156000Y676000D02*
D03*
X1163500Y661000D02*
D03*
X1156000Y646000D02*
D03*
X1163500Y631000D02*
D03*
X1156000Y616000D02*
D03*
X1163500Y601000D02*
D03*
X1156000Y586000D02*
D03*
X1163500Y571000D02*
D03*
X1156000Y556000D02*
D03*
X1163500Y541000D02*
D03*
X1156000Y526000D02*
D03*
X1163500Y511000D02*
D03*
X1156000Y496000D02*
D03*
X1163500Y451000D02*
D03*
X1156000Y436000D02*
D03*
Y376000D02*
D03*
Y346000D02*
D03*
Y316000D02*
D03*
Y286000D02*
D03*
Y256000D02*
D03*
Y226000D02*
D03*
Y196000D02*
D03*
Y166000D02*
D03*
Y136000D02*
D03*
X1163500Y121000D02*
D03*
X1156000Y76000D02*
D03*
X1163500Y31000D02*
D03*
X1156000Y16000D02*
D03*
X1148500Y691000D02*
D03*
X1141000Y676000D02*
D03*
X1148500Y661000D02*
D03*
X1141000Y646000D02*
D03*
X1148500Y631000D02*
D03*
X1141000Y616000D02*
D03*
X1148500Y601000D02*
D03*
X1141000Y586000D02*
D03*
X1148500Y571000D02*
D03*
X1141000Y556000D02*
D03*
X1148500Y541000D02*
D03*
X1141000Y526000D02*
D03*
X1148500Y511000D02*
D03*
X1141000Y496000D02*
D03*
Y466000D02*
D03*
X1148500Y451000D02*
D03*
X1141000Y406000D02*
D03*
X1148500Y391000D02*
D03*
X1141000Y376000D02*
D03*
X1148500Y361000D02*
D03*
X1141000Y346000D02*
D03*
X1148500Y331000D02*
D03*
X1141000Y316000D02*
D03*
X1148500Y301000D02*
D03*
X1141000Y286000D02*
D03*
X1148500Y271000D02*
D03*
X1141000Y256000D02*
D03*
X1148500Y241000D02*
D03*
X1141000Y226000D02*
D03*
X1148500Y211000D02*
D03*
X1141000Y196000D02*
D03*
X1148500Y181000D02*
D03*
X1141000Y166000D02*
D03*
X1148500Y151000D02*
D03*
X1141000Y136000D02*
D03*
X1148500Y121000D02*
D03*
Y31000D02*
D03*
X1141000Y16000D02*
D03*
X1133500Y691000D02*
D03*
X1126000Y676000D02*
D03*
X1133500Y661000D02*
D03*
X1126000Y646000D02*
D03*
X1133500Y631000D02*
D03*
X1126000Y616000D02*
D03*
X1133500Y601000D02*
D03*
X1126000Y586000D02*
D03*
X1133500Y571000D02*
D03*
X1126000Y556000D02*
D03*
X1133500Y541000D02*
D03*
X1126000Y526000D02*
D03*
X1133500Y511000D02*
D03*
X1126000Y496000D02*
D03*
Y466000D02*
D03*
X1133500Y421000D02*
D03*
X1126000Y406000D02*
D03*
X1133500Y391000D02*
D03*
X1126000Y376000D02*
D03*
X1133500Y361000D02*
D03*
X1126000Y346000D02*
D03*
X1133500Y331000D02*
D03*
X1126000Y316000D02*
D03*
X1133500Y301000D02*
D03*
X1126000Y286000D02*
D03*
X1133500Y271000D02*
D03*
X1126000Y256000D02*
D03*
X1133500Y241000D02*
D03*
X1126000Y226000D02*
D03*
X1133500Y211000D02*
D03*
X1126000Y196000D02*
D03*
X1133500Y181000D02*
D03*
X1126000Y166000D02*
D03*
X1133500Y151000D02*
D03*
X1126000Y136000D02*
D03*
X1133500Y121000D02*
D03*
X1126000Y76000D02*
D03*
Y46000D02*
D03*
X1133500Y31000D02*
D03*
X1126000Y16000D02*
D03*
X1118500Y691000D02*
D03*
X1111000Y676000D02*
D03*
X1118500Y661000D02*
D03*
X1111000Y646000D02*
D03*
X1118500Y631000D02*
D03*
X1111000Y616000D02*
D03*
X1118500Y601000D02*
D03*
X1111000Y586000D02*
D03*
X1118500Y571000D02*
D03*
X1111000Y556000D02*
D03*
X1118500Y541000D02*
D03*
X1111000Y526000D02*
D03*
X1118500Y511000D02*
D03*
X1111000Y496000D02*
D03*
Y436000D02*
D03*
X1118500Y421000D02*
D03*
X1111000Y406000D02*
D03*
X1118500Y391000D02*
D03*
X1111000Y376000D02*
D03*
X1118500Y361000D02*
D03*
X1111000Y346000D02*
D03*
X1118500Y331000D02*
D03*
X1111000Y316000D02*
D03*
X1118500Y301000D02*
D03*
X1111000Y286000D02*
D03*
X1118500Y271000D02*
D03*
X1111000Y256000D02*
D03*
X1118500Y241000D02*
D03*
X1111000Y226000D02*
D03*
X1118500Y211000D02*
D03*
X1111000Y196000D02*
D03*
X1118500Y181000D02*
D03*
X1111000Y166000D02*
D03*
X1118500Y151000D02*
D03*
X1111000Y136000D02*
D03*
X1118500Y121000D02*
D03*
X1111000Y76000D02*
D03*
X1118500Y61000D02*
D03*
X1111000Y46000D02*
D03*
X1118500Y31000D02*
D03*
X1111000Y16000D02*
D03*
X1103500Y691000D02*
D03*
X1096000Y676000D02*
D03*
X1103500Y661000D02*
D03*
X1096000Y646000D02*
D03*
X1103500Y631000D02*
D03*
X1096000Y616000D02*
D03*
X1103500Y601000D02*
D03*
X1096000Y586000D02*
D03*
X1103500Y571000D02*
D03*
X1096000Y556000D02*
D03*
X1103500Y541000D02*
D03*
X1096000Y526000D02*
D03*
X1103500Y511000D02*
D03*
X1096000Y496000D02*
D03*
Y436000D02*
D03*
X1103500Y421000D02*
D03*
X1096000Y406000D02*
D03*
X1103500Y391000D02*
D03*
X1096000Y376000D02*
D03*
X1103500Y361000D02*
D03*
X1096000Y346000D02*
D03*
X1103500Y331000D02*
D03*
X1096000Y316000D02*
D03*
X1103500Y301000D02*
D03*
X1096000Y286000D02*
D03*
X1103500Y271000D02*
D03*
X1096000Y256000D02*
D03*
X1103500Y241000D02*
D03*
X1096000Y226000D02*
D03*
X1103500Y211000D02*
D03*
X1096000Y196000D02*
D03*
X1103500Y181000D02*
D03*
X1096000Y166000D02*
D03*
X1103500Y151000D02*
D03*
X1096000Y136000D02*
D03*
X1103500Y121000D02*
D03*
X1096000Y76000D02*
D03*
X1103500Y61000D02*
D03*
X1096000Y46000D02*
D03*
X1103500Y31000D02*
D03*
X1096000Y16000D02*
D03*
X1088500Y691000D02*
D03*
X1081000Y676000D02*
D03*
X1088500Y661000D02*
D03*
X1081000Y646000D02*
D03*
X1088500Y631000D02*
D03*
X1081000Y616000D02*
D03*
X1088500Y601000D02*
D03*
X1081000Y586000D02*
D03*
X1088500Y571000D02*
D03*
X1081000Y556000D02*
D03*
X1088500Y541000D02*
D03*
X1081000Y526000D02*
D03*
X1088500Y511000D02*
D03*
X1081000Y496000D02*
D03*
Y436000D02*
D03*
X1088500Y421000D02*
D03*
X1081000Y406000D02*
D03*
X1088500Y391000D02*
D03*
X1081000Y376000D02*
D03*
X1088500Y361000D02*
D03*
X1081000Y346000D02*
D03*
X1088500Y331000D02*
D03*
X1081000Y316000D02*
D03*
X1088500Y301000D02*
D03*
X1081000Y286000D02*
D03*
X1088500Y271000D02*
D03*
X1081000Y256000D02*
D03*
X1088500Y241000D02*
D03*
X1081000Y226000D02*
D03*
X1088500Y211000D02*
D03*
X1081000Y196000D02*
D03*
X1088500Y181000D02*
D03*
X1081000Y166000D02*
D03*
X1088500Y151000D02*
D03*
X1081000Y136000D02*
D03*
X1088500Y121000D02*
D03*
X1081000Y76000D02*
D03*
X1088500Y61000D02*
D03*
X1081000Y46000D02*
D03*
X1088500Y31000D02*
D03*
X1081000Y16000D02*
D03*
X1073500Y691000D02*
D03*
X1066000Y676000D02*
D03*
X1073500Y661000D02*
D03*
X1066000Y646000D02*
D03*
X1073500Y631000D02*
D03*
X1066000Y616000D02*
D03*
X1073500Y601000D02*
D03*
X1066000Y586000D02*
D03*
X1073500Y571000D02*
D03*
X1066000Y556000D02*
D03*
X1073500Y541000D02*
D03*
X1066000Y526000D02*
D03*
X1073500Y511000D02*
D03*
X1066000Y496000D02*
D03*
Y436000D02*
D03*
X1073500Y421000D02*
D03*
X1066000Y406000D02*
D03*
X1073500Y391000D02*
D03*
X1066000Y376000D02*
D03*
X1073500Y361000D02*
D03*
X1066000Y346000D02*
D03*
X1073500Y331000D02*
D03*
X1066000Y316000D02*
D03*
X1073500Y301000D02*
D03*
X1066000Y286000D02*
D03*
X1073500Y271000D02*
D03*
X1066000Y256000D02*
D03*
X1073500Y241000D02*
D03*
X1066000Y226000D02*
D03*
X1073500Y211000D02*
D03*
X1066000Y196000D02*
D03*
X1073500Y181000D02*
D03*
X1066000Y166000D02*
D03*
X1073500Y151000D02*
D03*
X1066000Y136000D02*
D03*
X1073500Y121000D02*
D03*
X1066000Y76000D02*
D03*
X1073500Y61000D02*
D03*
X1066000Y46000D02*
D03*
X1073500Y31000D02*
D03*
X1066000Y16000D02*
D03*
X1058500Y691000D02*
D03*
X1051000Y676000D02*
D03*
X1058500Y661000D02*
D03*
X1051000Y646000D02*
D03*
X1058500Y631000D02*
D03*
X1051000Y616000D02*
D03*
X1058500Y601000D02*
D03*
X1051000Y586000D02*
D03*
X1058500Y571000D02*
D03*
X1051000Y556000D02*
D03*
X1058500Y541000D02*
D03*
X1051000Y526000D02*
D03*
X1058500Y511000D02*
D03*
X1051000Y496000D02*
D03*
Y436000D02*
D03*
X1058500Y421000D02*
D03*
X1051000Y406000D02*
D03*
X1058500Y391000D02*
D03*
X1051000Y376000D02*
D03*
X1058500Y361000D02*
D03*
X1051000Y346000D02*
D03*
X1058500Y331000D02*
D03*
X1051000Y316000D02*
D03*
X1058500Y301000D02*
D03*
X1051000Y286000D02*
D03*
X1058500Y271000D02*
D03*
X1051000Y256000D02*
D03*
X1058500Y241000D02*
D03*
X1051000Y226000D02*
D03*
X1058500Y211000D02*
D03*
X1051000Y196000D02*
D03*
X1058500Y181000D02*
D03*
X1051000Y166000D02*
D03*
X1058500Y151000D02*
D03*
X1051000Y136000D02*
D03*
X1058500Y121000D02*
D03*
X1051000Y76000D02*
D03*
X1058500Y61000D02*
D03*
X1051000Y46000D02*
D03*
X1058500Y31000D02*
D03*
X1051000Y16000D02*
D03*
X1043500Y691000D02*
D03*
X1036000Y676000D02*
D03*
X1043500Y661000D02*
D03*
X1036000Y646000D02*
D03*
X1043500Y631000D02*
D03*
X1036000Y616000D02*
D03*
X1043500Y601000D02*
D03*
X1036000Y586000D02*
D03*
X1043500Y571000D02*
D03*
X1036000Y556000D02*
D03*
X1043500Y541000D02*
D03*
X1036000Y526000D02*
D03*
X1043500Y511000D02*
D03*
X1036000Y496000D02*
D03*
Y436000D02*
D03*
X1043500Y421000D02*
D03*
X1036000Y406000D02*
D03*
X1043500Y391000D02*
D03*
X1036000Y376000D02*
D03*
X1043500Y361000D02*
D03*
X1036000Y346000D02*
D03*
X1043500Y331000D02*
D03*
X1036000Y316000D02*
D03*
X1043500Y301000D02*
D03*
X1036000Y286000D02*
D03*
X1043500Y271000D02*
D03*
X1036000Y256000D02*
D03*
X1043500Y241000D02*
D03*
X1036000Y226000D02*
D03*
X1043500Y211000D02*
D03*
X1036000Y196000D02*
D03*
X1043500Y181000D02*
D03*
X1036000Y166000D02*
D03*
X1043500Y151000D02*
D03*
X1036000Y136000D02*
D03*
X1043500Y121000D02*
D03*
X1036000Y76000D02*
D03*
X1043500Y61000D02*
D03*
X1036000Y46000D02*
D03*
X1043500Y31000D02*
D03*
X1036000Y16000D02*
D03*
X1028500Y691000D02*
D03*
X1021000Y676000D02*
D03*
X1028500Y661000D02*
D03*
X1021000Y646000D02*
D03*
X1028500Y631000D02*
D03*
X1021000Y616000D02*
D03*
X1028500Y601000D02*
D03*
X1021000Y586000D02*
D03*
X1028500Y571000D02*
D03*
X1021000Y556000D02*
D03*
X1028500Y541000D02*
D03*
X1021000Y526000D02*
D03*
X1028500Y511000D02*
D03*
X1021000Y496000D02*
D03*
Y436000D02*
D03*
X1028500Y421000D02*
D03*
X1021000Y406000D02*
D03*
X1028500Y391000D02*
D03*
X1021000Y376000D02*
D03*
X1028500Y361000D02*
D03*
X1021000Y346000D02*
D03*
X1028500Y331000D02*
D03*
X1021000Y316000D02*
D03*
X1028500Y301000D02*
D03*
X1021000Y286000D02*
D03*
X1028500Y271000D02*
D03*
X1021000Y256000D02*
D03*
X1028500Y241000D02*
D03*
X1021000Y226000D02*
D03*
X1028500Y211000D02*
D03*
X1021000Y196000D02*
D03*
X1028500Y181000D02*
D03*
X1021000Y166000D02*
D03*
X1028500Y151000D02*
D03*
X1021000Y136000D02*
D03*
X1028500Y121000D02*
D03*
X1021000Y76000D02*
D03*
X1028500Y61000D02*
D03*
X1021000Y46000D02*
D03*
X1028500Y31000D02*
D03*
X1021000Y16000D02*
D03*
X1013500Y691000D02*
D03*
X1006000Y676000D02*
D03*
X1013500Y661000D02*
D03*
X1006000Y646000D02*
D03*
X1013500Y631000D02*
D03*
X1006000Y616000D02*
D03*
X1013500Y601000D02*
D03*
X1006000Y586000D02*
D03*
X1013500Y571000D02*
D03*
X1006000Y556000D02*
D03*
X1013500Y541000D02*
D03*
X1006000Y526000D02*
D03*
X1013500Y511000D02*
D03*
X1006000Y496000D02*
D03*
Y436000D02*
D03*
X1013500Y421000D02*
D03*
X1006000Y406000D02*
D03*
X1013500Y391000D02*
D03*
X1006000Y376000D02*
D03*
X1013500Y361000D02*
D03*
X1006000Y346000D02*
D03*
X1013500Y331000D02*
D03*
X1006000Y316000D02*
D03*
X1013500Y301000D02*
D03*
X1006000Y286000D02*
D03*
X1013500Y271000D02*
D03*
X1006000Y256000D02*
D03*
X1013500Y241000D02*
D03*
X1006000Y226000D02*
D03*
X1013500Y211000D02*
D03*
X1006000Y196000D02*
D03*
X1013500Y181000D02*
D03*
X1006000Y166000D02*
D03*
X1013500Y151000D02*
D03*
X1006000Y136000D02*
D03*
X1013500Y121000D02*
D03*
Y31000D02*
D03*
X1006000Y16000D02*
D03*
X998500Y691000D02*
D03*
X991000Y676000D02*
D03*
X998500Y661000D02*
D03*
X991000Y646000D02*
D03*
X998500Y631000D02*
D03*
X991000Y616000D02*
D03*
X998500Y601000D02*
D03*
X991000Y586000D02*
D03*
X998500Y571000D02*
D03*
X991000Y556000D02*
D03*
X998500Y541000D02*
D03*
X991000Y526000D02*
D03*
X998500Y511000D02*
D03*
X991000Y496000D02*
D03*
Y436000D02*
D03*
X998500Y421000D02*
D03*
X991000Y406000D02*
D03*
X998500Y391000D02*
D03*
X991000Y376000D02*
D03*
X998500Y361000D02*
D03*
X991000Y346000D02*
D03*
X998500Y331000D02*
D03*
X991000Y316000D02*
D03*
X998500Y301000D02*
D03*
X991000Y286000D02*
D03*
X998500Y271000D02*
D03*
X991000Y256000D02*
D03*
X998500Y241000D02*
D03*
X991000Y226000D02*
D03*
X998500Y211000D02*
D03*
X991000Y196000D02*
D03*
X998500Y181000D02*
D03*
X991000Y166000D02*
D03*
X998500Y151000D02*
D03*
X991000Y136000D02*
D03*
X998500Y121000D02*
D03*
Y31000D02*
D03*
X991000Y16000D02*
D03*
X983500Y691000D02*
D03*
X976000Y676000D02*
D03*
X983500Y661000D02*
D03*
X976000Y646000D02*
D03*
X983500Y631000D02*
D03*
X976000Y616000D02*
D03*
X983500Y601000D02*
D03*
X976000Y586000D02*
D03*
X983500Y571000D02*
D03*
X976000Y556000D02*
D03*
X983500Y541000D02*
D03*
X976000Y526000D02*
D03*
X983500Y511000D02*
D03*
Y421000D02*
D03*
Y391000D02*
D03*
Y361000D02*
D03*
Y331000D02*
D03*
Y301000D02*
D03*
Y271000D02*
D03*
Y241000D02*
D03*
Y211000D02*
D03*
Y181000D02*
D03*
Y121000D02*
D03*
X976000Y76000D02*
D03*
Y46000D02*
D03*
X983500Y31000D02*
D03*
X976000Y16000D02*
D03*
X968500Y691000D02*
D03*
X961000Y676000D02*
D03*
X968500Y661000D02*
D03*
X961000Y646000D02*
D03*
X968500Y631000D02*
D03*
X961000Y616000D02*
D03*
X968500Y601000D02*
D03*
X961000Y586000D02*
D03*
X968500Y571000D02*
D03*
X961000Y556000D02*
D03*
X968500Y541000D02*
D03*
X961000Y496000D02*
D03*
Y436000D02*
D03*
Y406000D02*
D03*
Y376000D02*
D03*
Y346000D02*
D03*
Y316000D02*
D03*
Y286000D02*
D03*
Y256000D02*
D03*
Y226000D02*
D03*
Y196000D02*
D03*
Y166000D02*
D03*
Y136000D02*
D03*
X968500Y121000D02*
D03*
X961000Y76000D02*
D03*
X968500Y61000D02*
D03*
X961000Y46000D02*
D03*
X968500Y31000D02*
D03*
X961000Y16000D02*
D03*
X953500Y691000D02*
D03*
X946000Y676000D02*
D03*
X953500Y661000D02*
D03*
X946000Y646000D02*
D03*
X953500Y631000D02*
D03*
X946000Y616000D02*
D03*
X953500Y601000D02*
D03*
X946000Y586000D02*
D03*
X953500Y571000D02*
D03*
X946000Y556000D02*
D03*
X953500Y511000D02*
D03*
X946000Y496000D02*
D03*
Y436000D02*
D03*
X953500Y421000D02*
D03*
X946000Y406000D02*
D03*
X953500Y391000D02*
D03*
X946000Y376000D02*
D03*
X953500Y361000D02*
D03*
X946000Y346000D02*
D03*
X953500Y331000D02*
D03*
X946000Y76000D02*
D03*
X953500Y61000D02*
D03*
X946000Y46000D02*
D03*
X953500Y31000D02*
D03*
X946000Y16000D02*
D03*
X938500Y691000D02*
D03*
X931000Y676000D02*
D03*
X938500Y661000D02*
D03*
X931000Y646000D02*
D03*
X938500Y631000D02*
D03*
X931000Y616000D02*
D03*
X938500Y601000D02*
D03*
X931000Y586000D02*
D03*
X938500Y571000D02*
D03*
X931000Y556000D02*
D03*
X938500Y511000D02*
D03*
Y421000D02*
D03*
Y391000D02*
D03*
Y361000D02*
D03*
X931000Y76000D02*
D03*
X938500Y61000D02*
D03*
X931000Y46000D02*
D03*
X938500Y31000D02*
D03*
X931000Y16000D02*
D03*
X923500Y691000D02*
D03*
X916000Y676000D02*
D03*
X923500Y661000D02*
D03*
X916000Y646000D02*
D03*
X923500Y631000D02*
D03*
X916000Y616000D02*
D03*
X923500Y601000D02*
D03*
X916000Y586000D02*
D03*
X923500Y571000D02*
D03*
X916000Y556000D02*
D03*
Y76000D02*
D03*
X923500Y61000D02*
D03*
X916000Y46000D02*
D03*
X923500Y31000D02*
D03*
X916000Y16000D02*
D03*
X908500Y691000D02*
D03*
X901000Y676000D02*
D03*
X908500Y661000D02*
D03*
X901000Y646000D02*
D03*
X908500Y631000D02*
D03*
X901000Y616000D02*
D03*
X908500Y601000D02*
D03*
X901000Y436000D02*
D03*
X908500Y421000D02*
D03*
X901000Y406000D02*
D03*
X908500Y271000D02*
D03*
Y241000D02*
D03*
X901000Y226000D02*
D03*
Y106000D02*
D03*
X908500Y31000D02*
D03*
X901000Y16000D02*
D03*
X893500Y691000D02*
D03*
X886000Y676000D02*
D03*
X893500Y661000D02*
D03*
X886000Y646000D02*
D03*
X893500Y631000D02*
D03*
X886000Y616000D02*
D03*
X893500Y601000D02*
D03*
Y571000D02*
D03*
X886000Y496000D02*
D03*
Y436000D02*
D03*
X893500Y421000D02*
D03*
X886000Y406000D02*
D03*
Y346000D02*
D03*
X893500Y241000D02*
D03*
X886000Y226000D02*
D03*
X893500Y211000D02*
D03*
X886000Y196000D02*
D03*
Y76000D02*
D03*
X893500Y31000D02*
D03*
X886000Y16000D02*
D03*
X878500Y691000D02*
D03*
X871000Y676000D02*
D03*
X878500Y661000D02*
D03*
X871000Y646000D02*
D03*
X878500Y631000D02*
D03*
X871000Y616000D02*
D03*
X878500Y601000D02*
D03*
X871000Y436000D02*
D03*
X878500Y421000D02*
D03*
X871000Y406000D02*
D03*
X878500Y241000D02*
D03*
X871000Y226000D02*
D03*
X878500Y211000D02*
D03*
X871000Y196000D02*
D03*
Y166000D02*
D03*
Y106000D02*
D03*
X878500Y91000D02*
D03*
X871000Y76000D02*
D03*
Y46000D02*
D03*
X878500Y31000D02*
D03*
X871000Y16000D02*
D03*
X863500Y691000D02*
D03*
X856000Y676000D02*
D03*
X863500Y661000D02*
D03*
X856000Y646000D02*
D03*
X863500Y631000D02*
D03*
X856000Y616000D02*
D03*
X863500Y601000D02*
D03*
Y571000D02*
D03*
X856000Y496000D02*
D03*
Y436000D02*
D03*
X863500Y421000D02*
D03*
X856000Y406000D02*
D03*
Y346000D02*
D03*
X863500Y271000D02*
D03*
Y241000D02*
D03*
X856000Y226000D02*
D03*
X863500Y211000D02*
D03*
X856000Y196000D02*
D03*
X863500Y181000D02*
D03*
X856000Y166000D02*
D03*
X863500Y151000D02*
D03*
X856000Y106000D02*
D03*
X863500Y91000D02*
D03*
X856000Y76000D02*
D03*
X863500Y61000D02*
D03*
X856000Y46000D02*
D03*
X863500Y31000D02*
D03*
X856000Y16000D02*
D03*
X848500Y691000D02*
D03*
X841000Y676000D02*
D03*
X848500Y661000D02*
D03*
X841000Y646000D02*
D03*
X848500Y631000D02*
D03*
X841000Y616000D02*
D03*
X848500Y601000D02*
D03*
X841000Y436000D02*
D03*
X848500Y421000D02*
D03*
X841000Y406000D02*
D03*
X848500Y241000D02*
D03*
X841000Y226000D02*
D03*
X848500Y211000D02*
D03*
X841000Y196000D02*
D03*
X848500Y181000D02*
D03*
X841000Y136000D02*
D03*
X848500Y121000D02*
D03*
X841000Y106000D02*
D03*
X848500Y91000D02*
D03*
X841000Y76000D02*
D03*
X848500Y61000D02*
D03*
X841000Y46000D02*
D03*
X848500Y31000D02*
D03*
X841000Y16000D02*
D03*
X833500Y691000D02*
D03*
X826000Y676000D02*
D03*
X833500Y661000D02*
D03*
X826000Y646000D02*
D03*
X833500Y631000D02*
D03*
X826000Y616000D02*
D03*
X833500Y601000D02*
D03*
Y571000D02*
D03*
X826000Y436000D02*
D03*
X833500Y421000D02*
D03*
X826000Y406000D02*
D03*
Y346000D02*
D03*
X833500Y271000D02*
D03*
Y241000D02*
D03*
X826000Y226000D02*
D03*
X833500Y211000D02*
D03*
X826000Y196000D02*
D03*
X833500Y181000D02*
D03*
X826000Y136000D02*
D03*
X833500Y121000D02*
D03*
X826000Y106000D02*
D03*
X833500Y91000D02*
D03*
X826000Y76000D02*
D03*
X833500Y61000D02*
D03*
X826000Y46000D02*
D03*
X833500Y31000D02*
D03*
X826000Y16000D02*
D03*
X818500Y691000D02*
D03*
X811000Y676000D02*
D03*
X818500Y661000D02*
D03*
X811000Y646000D02*
D03*
X818500Y631000D02*
D03*
X811000Y616000D02*
D03*
X818500Y601000D02*
D03*
X811000Y496000D02*
D03*
Y436000D02*
D03*
X818500Y421000D02*
D03*
X811000Y406000D02*
D03*
X818500Y241000D02*
D03*
X811000Y226000D02*
D03*
X818500Y211000D02*
D03*
X811000Y166000D02*
D03*
X818500Y151000D02*
D03*
X811000Y136000D02*
D03*
X818500Y121000D02*
D03*
X811000Y106000D02*
D03*
X818500Y91000D02*
D03*
X811000Y76000D02*
D03*
X818500Y61000D02*
D03*
X811000Y46000D02*
D03*
X818500Y31000D02*
D03*
X811000Y16000D02*
D03*
X803500Y691000D02*
D03*
X796000Y676000D02*
D03*
X803500Y661000D02*
D03*
X796000Y646000D02*
D03*
X803500Y631000D02*
D03*
X796000Y616000D02*
D03*
X803500Y601000D02*
D03*
X796000Y166000D02*
D03*
X803500Y151000D02*
D03*
X796000Y136000D02*
D03*
X803500Y121000D02*
D03*
X796000Y106000D02*
D03*
X803500Y91000D02*
D03*
X796000Y76000D02*
D03*
X803500Y61000D02*
D03*
X796000Y46000D02*
D03*
X803500Y31000D02*
D03*
X796000Y16000D02*
D03*
X788500Y691000D02*
D03*
X781000Y676000D02*
D03*
X788500Y661000D02*
D03*
X781000Y646000D02*
D03*
X788500Y631000D02*
D03*
X781000Y616000D02*
D03*
X788500Y601000D02*
D03*
X781000Y586000D02*
D03*
X788500Y511000D02*
D03*
Y481000D02*
D03*
Y451000D02*
D03*
Y421000D02*
D03*
X781000Y166000D02*
D03*
X788500Y151000D02*
D03*
X781000Y136000D02*
D03*
X788500Y121000D02*
D03*
X781000Y106000D02*
D03*
X788500Y91000D02*
D03*
X781000Y76000D02*
D03*
X788500Y61000D02*
D03*
X781000Y46000D02*
D03*
X788500Y31000D02*
D03*
X781000Y16000D02*
D03*
X773500Y691000D02*
D03*
X766000Y676000D02*
D03*
X773500Y661000D02*
D03*
X766000Y646000D02*
D03*
X773500Y631000D02*
D03*
X766000Y616000D02*
D03*
X773500Y601000D02*
D03*
X766000Y586000D02*
D03*
X773500Y571000D02*
D03*
X766000Y556000D02*
D03*
Y526000D02*
D03*
Y496000D02*
D03*
Y466000D02*
D03*
Y436000D02*
D03*
Y406000D02*
D03*
Y376000D02*
D03*
Y196000D02*
D03*
X773500Y151000D02*
D03*
X766000Y136000D02*
D03*
X773500Y121000D02*
D03*
X766000Y106000D02*
D03*
X773500Y91000D02*
D03*
X766000Y76000D02*
D03*
X773500Y61000D02*
D03*
X766000Y46000D02*
D03*
X773500Y31000D02*
D03*
X766000Y16000D02*
D03*
X758500Y691000D02*
D03*
X751000Y676000D02*
D03*
X758500Y661000D02*
D03*
X751000Y646000D02*
D03*
X758500Y631000D02*
D03*
X751000Y616000D02*
D03*
X758500Y601000D02*
D03*
X751000Y436000D02*
D03*
X758500Y421000D02*
D03*
X751000Y406000D02*
D03*
Y226000D02*
D03*
X758500Y181000D02*
D03*
X751000Y166000D02*
D03*
Y136000D02*
D03*
X758500Y121000D02*
D03*
X751000Y106000D02*
D03*
X758500Y91000D02*
D03*
Y31000D02*
D03*
X751000Y16000D02*
D03*
X743500Y691000D02*
D03*
X736000Y676000D02*
D03*
X743500Y661000D02*
D03*
X736000Y646000D02*
D03*
X743500Y631000D02*
D03*
X736000Y616000D02*
D03*
X743500Y601000D02*
D03*
Y571000D02*
D03*
X736000Y496000D02*
D03*
Y436000D02*
D03*
X743500Y421000D02*
D03*
X736000Y406000D02*
D03*
Y346000D02*
D03*
X743500Y211000D02*
D03*
X736000Y166000D02*
D03*
X743500Y121000D02*
D03*
X736000Y106000D02*
D03*
X743500Y91000D02*
D03*
X736000Y76000D02*
D03*
X743500Y31000D02*
D03*
X736000Y16000D02*
D03*
X728500Y691000D02*
D03*
X721000Y676000D02*
D03*
X728500Y661000D02*
D03*
X721000Y646000D02*
D03*
X728500Y631000D02*
D03*
X721000Y616000D02*
D03*
X728500Y601000D02*
D03*
X721000Y436000D02*
D03*
X728500Y421000D02*
D03*
X721000Y406000D02*
D03*
X728500Y241000D02*
D03*
X721000Y226000D02*
D03*
Y196000D02*
D03*
Y106000D02*
D03*
X728500Y91000D02*
D03*
X721000Y76000D02*
D03*
Y46000D02*
D03*
X728500Y31000D02*
D03*
X721000Y16000D02*
D03*
X713500Y691000D02*
D03*
X706000Y676000D02*
D03*
X713500Y661000D02*
D03*
X706000Y646000D02*
D03*
X713500Y631000D02*
D03*
X706000Y616000D02*
D03*
X713500Y601000D02*
D03*
Y571000D02*
D03*
X706000Y496000D02*
D03*
Y436000D02*
D03*
X713500Y421000D02*
D03*
X706000Y406000D02*
D03*
Y346000D02*
D03*
X713500Y271000D02*
D03*
Y241000D02*
D03*
X706000Y226000D02*
D03*
X713500Y181000D02*
D03*
X706000Y106000D02*
D03*
X713500Y91000D02*
D03*
X706000Y76000D02*
D03*
X713500Y61000D02*
D03*
X706000Y46000D02*
D03*
X713500Y31000D02*
D03*
X706000Y16000D02*
D03*
X698500Y691000D02*
D03*
X691000Y676000D02*
D03*
X698500Y661000D02*
D03*
X691000Y646000D02*
D03*
X698500Y631000D02*
D03*
X691000Y616000D02*
D03*
X698500Y601000D02*
D03*
X691000Y436000D02*
D03*
X698500Y421000D02*
D03*
X691000Y406000D02*
D03*
X698500Y241000D02*
D03*
X691000Y226000D02*
D03*
X698500Y211000D02*
D03*
X691000Y196000D02*
D03*
Y166000D02*
D03*
Y106000D02*
D03*
X698500Y91000D02*
D03*
X691000Y76000D02*
D03*
X698500Y61000D02*
D03*
X691000Y46000D02*
D03*
X698500Y31000D02*
D03*
X691000Y16000D02*
D03*
X683500Y691000D02*
D03*
X676000Y676000D02*
D03*
X683500Y661000D02*
D03*
X676000Y646000D02*
D03*
X683500Y631000D02*
D03*
X676000Y616000D02*
D03*
X683500Y601000D02*
D03*
Y571000D02*
D03*
X676000Y436000D02*
D03*
X683500Y421000D02*
D03*
X676000Y406000D02*
D03*
Y346000D02*
D03*
X683500Y271000D02*
D03*
Y241000D02*
D03*
X676000Y226000D02*
D03*
X683500Y211000D02*
D03*
X676000Y196000D02*
D03*
Y106000D02*
D03*
X683500Y91000D02*
D03*
X676000Y76000D02*
D03*
X683500Y61000D02*
D03*
X676000Y46000D02*
D03*
X683500Y31000D02*
D03*
X676000Y16000D02*
D03*
X668500Y691000D02*
D03*
X661000Y676000D02*
D03*
X668500Y661000D02*
D03*
X661000Y646000D02*
D03*
X668500Y631000D02*
D03*
X661000Y616000D02*
D03*
X668500Y601000D02*
D03*
X661000Y496000D02*
D03*
Y436000D02*
D03*
X668500Y421000D02*
D03*
X661000Y406000D02*
D03*
X668500Y241000D02*
D03*
X661000Y226000D02*
D03*
X668500Y211000D02*
D03*
X661000Y196000D02*
D03*
X668500Y181000D02*
D03*
X661000Y166000D02*
D03*
Y136000D02*
D03*
X668500Y121000D02*
D03*
X661000Y106000D02*
D03*
X668500Y91000D02*
D03*
X661000Y76000D02*
D03*
X668500Y61000D02*
D03*
Y31000D02*
D03*
X661000Y16000D02*
D03*
X653500Y691000D02*
D03*
X646000Y676000D02*
D03*
X653500Y661000D02*
D03*
X646000Y646000D02*
D03*
X653500Y631000D02*
D03*
X646000Y616000D02*
D03*
X653500Y601000D02*
D03*
Y571000D02*
D03*
Y421000D02*
D03*
Y241000D02*
D03*
X646000Y226000D02*
D03*
X653500Y211000D02*
D03*
X646000Y196000D02*
D03*
X653500Y181000D02*
D03*
X646000Y166000D02*
D03*
X653500Y151000D02*
D03*
X646000Y136000D02*
D03*
X653500Y121000D02*
D03*
X646000Y106000D02*
D03*
X653500Y91000D02*
D03*
Y31000D02*
D03*
X646000Y16000D02*
D03*
X638500Y691000D02*
D03*
X631000Y676000D02*
D03*
X638500Y661000D02*
D03*
X631000Y646000D02*
D03*
X638500Y631000D02*
D03*
X631000Y616000D02*
D03*
X638500Y601000D02*
D03*
X631000Y346000D02*
D03*
X638500Y271000D02*
D03*
Y241000D02*
D03*
X631000Y226000D02*
D03*
X638500Y211000D02*
D03*
X631000Y196000D02*
D03*
X638500Y181000D02*
D03*
X631000Y166000D02*
D03*
X638500Y151000D02*
D03*
X631000Y136000D02*
D03*
X638500Y121000D02*
D03*
X631000Y106000D02*
D03*
X638500Y91000D02*
D03*
X631000Y76000D02*
D03*
X638500Y31000D02*
D03*
X631000Y16000D02*
D03*
X623500Y691000D02*
D03*
X616000Y676000D02*
D03*
X623500Y661000D02*
D03*
X616000Y646000D02*
D03*
X623500Y631000D02*
D03*
X616000Y616000D02*
D03*
X623500Y601000D02*
D03*
Y571000D02*
D03*
Y271000D02*
D03*
Y241000D02*
D03*
X616000Y226000D02*
D03*
X623500Y211000D02*
D03*
X616000Y196000D02*
D03*
X623500Y181000D02*
D03*
X616000Y166000D02*
D03*
X623500Y151000D02*
D03*
X616000Y136000D02*
D03*
X623500Y121000D02*
D03*
X616000Y106000D02*
D03*
X623500Y91000D02*
D03*
X616000Y76000D02*
D03*
X623500Y61000D02*
D03*
X616000Y46000D02*
D03*
X623500Y31000D02*
D03*
X616000Y16000D02*
D03*
X608500Y691000D02*
D03*
X601000Y676000D02*
D03*
X608500Y661000D02*
D03*
X601000Y646000D02*
D03*
X608500Y631000D02*
D03*
X601000Y616000D02*
D03*
X608500Y601000D02*
D03*
Y571000D02*
D03*
X601000Y436000D02*
D03*
Y406000D02*
D03*
Y376000D02*
D03*
Y286000D02*
D03*
X608500Y241000D02*
D03*
X601000Y226000D02*
D03*
X608500Y211000D02*
D03*
X601000Y196000D02*
D03*
X608500Y181000D02*
D03*
X601000Y166000D02*
D03*
X608500Y151000D02*
D03*
X601000Y136000D02*
D03*
X608500Y121000D02*
D03*
X601000Y106000D02*
D03*
X608500Y91000D02*
D03*
X601000Y76000D02*
D03*
X608500Y61000D02*
D03*
X601000Y46000D02*
D03*
X608500Y31000D02*
D03*
X601000Y16000D02*
D03*
X593500Y691000D02*
D03*
X586000Y676000D02*
D03*
X593500Y661000D02*
D03*
X586000Y646000D02*
D03*
X593500Y631000D02*
D03*
X586000Y616000D02*
D03*
X593500Y601000D02*
D03*
Y571000D02*
D03*
X586000Y496000D02*
D03*
Y256000D02*
D03*
X593500Y241000D02*
D03*
X586000Y226000D02*
D03*
X593500Y211000D02*
D03*
X586000Y196000D02*
D03*
X593500Y181000D02*
D03*
X586000Y166000D02*
D03*
X593500Y151000D02*
D03*
X586000Y136000D02*
D03*
X593500Y121000D02*
D03*
X586000Y106000D02*
D03*
X593500Y91000D02*
D03*
X586000Y76000D02*
D03*
X593500Y61000D02*
D03*
X586000Y46000D02*
D03*
X593500Y31000D02*
D03*
X586000Y16000D02*
D03*
X578500Y691000D02*
D03*
X571000Y676000D02*
D03*
X578500Y661000D02*
D03*
X571000Y646000D02*
D03*
X578500Y631000D02*
D03*
X571000Y616000D02*
D03*
X578500Y601000D02*
D03*
Y571000D02*
D03*
X571000Y496000D02*
D03*
Y436000D02*
D03*
Y406000D02*
D03*
Y376000D02*
D03*
Y346000D02*
D03*
Y316000D02*
D03*
Y286000D02*
D03*
X578500Y271000D02*
D03*
X571000Y256000D02*
D03*
X578500Y241000D02*
D03*
X571000Y226000D02*
D03*
X578500Y211000D02*
D03*
X571000Y196000D02*
D03*
X578500Y181000D02*
D03*
X571000Y166000D02*
D03*
X578500Y151000D02*
D03*
X571000Y136000D02*
D03*
X578500Y121000D02*
D03*
X571000Y106000D02*
D03*
X578500Y91000D02*
D03*
X571000Y76000D02*
D03*
X578500Y61000D02*
D03*
X571000Y46000D02*
D03*
X578500Y31000D02*
D03*
X571000Y16000D02*
D03*
X563500Y691000D02*
D03*
X556000Y676000D02*
D03*
X563500Y661000D02*
D03*
X556000Y646000D02*
D03*
X563500Y631000D02*
D03*
X556000Y496000D02*
D03*
X563500Y151000D02*
D03*
X556000Y136000D02*
D03*
X563500Y121000D02*
D03*
X556000Y106000D02*
D03*
X563500Y91000D02*
D03*
X556000Y76000D02*
D03*
X563500Y61000D02*
D03*
X556000Y46000D02*
D03*
X563500Y31000D02*
D03*
X556000Y16000D02*
D03*
X548500Y691000D02*
D03*
X541000Y676000D02*
D03*
X548500Y661000D02*
D03*
X541000Y646000D02*
D03*
X548500Y631000D02*
D03*
X541000Y136000D02*
D03*
X548500Y121000D02*
D03*
X541000Y106000D02*
D03*
X548500Y91000D02*
D03*
X541000Y76000D02*
D03*
X548500Y61000D02*
D03*
X541000Y46000D02*
D03*
X548500Y31000D02*
D03*
X541000Y16000D02*
D03*
X533500Y691000D02*
D03*
X526000Y676000D02*
D03*
X533500Y661000D02*
D03*
X526000Y646000D02*
D03*
X533500Y631000D02*
D03*
Y571000D02*
D03*
X526000Y556000D02*
D03*
Y226000D02*
D03*
Y196000D02*
D03*
X533500Y121000D02*
D03*
X526000Y106000D02*
D03*
X533500Y91000D02*
D03*
X526000Y76000D02*
D03*
X533500Y61000D02*
D03*
Y31000D02*
D03*
X526000Y16000D02*
D03*
X518500Y691000D02*
D03*
X511000Y676000D02*
D03*
X518500Y661000D02*
D03*
X511000Y646000D02*
D03*
X518500Y631000D02*
D03*
Y571000D02*
D03*
Y511000D02*
D03*
X511000Y496000D02*
D03*
Y466000D02*
D03*
Y436000D02*
D03*
Y406000D02*
D03*
Y376000D02*
D03*
Y346000D02*
D03*
Y316000D02*
D03*
Y286000D02*
D03*
Y256000D02*
D03*
X518500Y211000D02*
D03*
X511000Y196000D02*
D03*
X518500Y181000D02*
D03*
X511000Y166000D02*
D03*
Y106000D02*
D03*
X518500Y91000D02*
D03*
X511000Y76000D02*
D03*
Y16000D02*
D03*
X503500Y691000D02*
D03*
X496000Y676000D02*
D03*
X503500Y661000D02*
D03*
X496000Y646000D02*
D03*
X503500Y631000D02*
D03*
Y481000D02*
D03*
Y451000D02*
D03*
Y421000D02*
D03*
Y391000D02*
D03*
Y361000D02*
D03*
Y331000D02*
D03*
Y301000D02*
D03*
Y271000D02*
D03*
Y211000D02*
D03*
X496000Y196000D02*
D03*
X503500Y181000D02*
D03*
X496000Y166000D02*
D03*
X503500Y91000D02*
D03*
X496000Y76000D02*
D03*
X503500Y61000D02*
D03*
X496000Y46000D02*
D03*
X503500Y31000D02*
D03*
X496000Y16000D02*
D03*
X488500Y691000D02*
D03*
X481000Y676000D02*
D03*
X488500Y661000D02*
D03*
X481000Y646000D02*
D03*
X488500Y631000D02*
D03*
Y451000D02*
D03*
Y391000D02*
D03*
Y181000D02*
D03*
X481000Y166000D02*
D03*
X488500Y151000D02*
D03*
Y121000D02*
D03*
X481000Y76000D02*
D03*
X488500Y61000D02*
D03*
X481000Y46000D02*
D03*
X488500Y31000D02*
D03*
X481000Y16000D02*
D03*
X473500Y691000D02*
D03*
X466000Y676000D02*
D03*
X473500Y661000D02*
D03*
X466000Y646000D02*
D03*
X473500Y631000D02*
D03*
Y451000D02*
D03*
Y271000D02*
D03*
Y241000D02*
D03*
X466000Y76000D02*
D03*
X473500Y61000D02*
D03*
X466000Y46000D02*
D03*
X473500Y31000D02*
D03*
X466000Y16000D02*
D03*
X458500Y691000D02*
D03*
X451000Y676000D02*
D03*
X458500Y661000D02*
D03*
X451000Y646000D02*
D03*
X458500Y631000D02*
D03*
Y451000D02*
D03*
Y211000D02*
D03*
X451000Y196000D02*
D03*
Y76000D02*
D03*
X458500Y61000D02*
D03*
X451000Y16000D02*
D03*
X443500Y691000D02*
D03*
X436000Y676000D02*
D03*
X443500Y661000D02*
D03*
X436000Y646000D02*
D03*
X443500Y631000D02*
D03*
Y451000D02*
D03*
X436000Y76000D02*
D03*
X443500Y61000D02*
D03*
X436000Y16000D02*
D03*
X428500Y691000D02*
D03*
X421000Y676000D02*
D03*
X428500Y661000D02*
D03*
X421000Y646000D02*
D03*
X428500Y631000D02*
D03*
Y451000D02*
D03*
X421000Y256000D02*
D03*
X428500Y91000D02*
D03*
X421000Y76000D02*
D03*
X428500Y61000D02*
D03*
X421000Y46000D02*
D03*
X428500Y31000D02*
D03*
X421000Y16000D02*
D03*
X413500Y691000D02*
D03*
X406000Y676000D02*
D03*
X413500Y661000D02*
D03*
X406000Y646000D02*
D03*
X413500Y631000D02*
D03*
Y451000D02*
D03*
Y391000D02*
D03*
Y211000D02*
D03*
X406000Y196000D02*
D03*
Y106000D02*
D03*
X413500Y91000D02*
D03*
X406000Y76000D02*
D03*
X413500Y61000D02*
D03*
X406000Y46000D02*
D03*
X413500Y31000D02*
D03*
X406000Y16000D02*
D03*
X398500Y691000D02*
D03*
X391000Y676000D02*
D03*
X398500Y661000D02*
D03*
X391000Y646000D02*
D03*
X398500Y631000D02*
D03*
Y511000D02*
D03*
Y451000D02*
D03*
Y271000D02*
D03*
Y241000D02*
D03*
X391000Y166000D02*
D03*
Y136000D02*
D03*
X398500Y121000D02*
D03*
X391000Y106000D02*
D03*
X398500Y91000D02*
D03*
X391000Y76000D02*
D03*
X398500Y61000D02*
D03*
X391000Y46000D02*
D03*
X398500Y31000D02*
D03*
X391000Y16000D02*
D03*
X383500Y691000D02*
D03*
X376000Y676000D02*
D03*
X383500Y661000D02*
D03*
X376000Y646000D02*
D03*
X383500Y631000D02*
D03*
Y451000D02*
D03*
Y391000D02*
D03*
Y151000D02*
D03*
X376000Y136000D02*
D03*
X383500Y121000D02*
D03*
X376000Y106000D02*
D03*
X383500Y91000D02*
D03*
X376000Y76000D02*
D03*
X383500Y61000D02*
D03*
Y31000D02*
D03*
X376000Y16000D02*
D03*
X368500Y691000D02*
D03*
X361000Y676000D02*
D03*
X368500Y661000D02*
D03*
X361000Y646000D02*
D03*
X368500Y631000D02*
D03*
Y451000D02*
D03*
Y241000D02*
D03*
X361000Y226000D02*
D03*
X368500Y211000D02*
D03*
X361000Y196000D02*
D03*
Y136000D02*
D03*
X368500Y121000D02*
D03*
X361000Y106000D02*
D03*
X368500Y91000D02*
D03*
X361000Y76000D02*
D03*
Y16000D02*
D03*
X353500Y691000D02*
D03*
X346000Y676000D02*
D03*
X353500Y661000D02*
D03*
X346000Y646000D02*
D03*
X353500Y631000D02*
D03*
Y451000D02*
D03*
X346000Y286000D02*
D03*
Y226000D02*
D03*
X353500Y211000D02*
D03*
X346000Y196000D02*
D03*
X353500Y121000D02*
D03*
X346000Y106000D02*
D03*
X353500Y91000D02*
D03*
X346000Y76000D02*
D03*
X353500Y61000D02*
D03*
X346000Y46000D02*
D03*
X353500Y31000D02*
D03*
X346000Y16000D02*
D03*
X338500Y691000D02*
D03*
X331000Y676000D02*
D03*
X338500Y661000D02*
D03*
X331000Y646000D02*
D03*
X338500Y631000D02*
D03*
Y511000D02*
D03*
X331000Y496000D02*
D03*
X338500Y481000D02*
D03*
X331000Y466000D02*
D03*
X338500Y451000D02*
D03*
X331000Y436000D02*
D03*
X338500Y421000D02*
D03*
X331000Y406000D02*
D03*
Y376000D02*
D03*
Y346000D02*
D03*
Y316000D02*
D03*
X338500Y301000D02*
D03*
X331000Y286000D02*
D03*
X338500Y271000D02*
D03*
X331000Y256000D02*
D03*
X338500Y211000D02*
D03*
X331000Y196000D02*
D03*
X338500Y181000D02*
D03*
X331000Y166000D02*
D03*
Y106000D02*
D03*
X338500Y91000D02*
D03*
X331000Y76000D02*
D03*
X338500Y61000D02*
D03*
X331000Y46000D02*
D03*
X338500Y31000D02*
D03*
X331000Y16000D02*
D03*
X323500Y691000D02*
D03*
X316000Y676000D02*
D03*
X323500Y661000D02*
D03*
X316000Y646000D02*
D03*
X323500Y631000D02*
D03*
Y571000D02*
D03*
X316000Y556000D02*
D03*
X323500Y511000D02*
D03*
X316000Y496000D02*
D03*
X323500Y481000D02*
D03*
X316000Y466000D02*
D03*
X323500Y451000D02*
D03*
X316000Y436000D02*
D03*
X323500Y421000D02*
D03*
X316000Y406000D02*
D03*
X323500Y391000D02*
D03*
X316000Y376000D02*
D03*
X323500Y361000D02*
D03*
X316000Y346000D02*
D03*
X323500Y331000D02*
D03*
X316000Y316000D02*
D03*
X323500Y301000D02*
D03*
X316000Y286000D02*
D03*
X323500Y271000D02*
D03*
X316000Y256000D02*
D03*
X323500Y241000D02*
D03*
X316000Y196000D02*
D03*
X323500Y181000D02*
D03*
X316000Y166000D02*
D03*
X323500Y91000D02*
D03*
X316000Y76000D02*
D03*
X323500Y61000D02*
D03*
X316000Y46000D02*
D03*
X323500Y31000D02*
D03*
X316000Y16000D02*
D03*
X308500Y691000D02*
D03*
X301000Y676000D02*
D03*
X308500Y661000D02*
D03*
X301000Y646000D02*
D03*
X308500Y631000D02*
D03*
Y571000D02*
D03*
X301000Y556000D02*
D03*
X308500Y511000D02*
D03*
X301000Y496000D02*
D03*
X308500Y481000D02*
D03*
X301000Y466000D02*
D03*
X308500Y451000D02*
D03*
X301000Y436000D02*
D03*
X308500Y421000D02*
D03*
X301000Y406000D02*
D03*
X308500Y391000D02*
D03*
X301000Y376000D02*
D03*
X308500Y361000D02*
D03*
X301000Y346000D02*
D03*
X308500Y331000D02*
D03*
X301000Y316000D02*
D03*
X308500Y301000D02*
D03*
X301000Y286000D02*
D03*
X308500Y271000D02*
D03*
X301000Y256000D02*
D03*
X308500Y241000D02*
D03*
X301000Y196000D02*
D03*
X308500Y181000D02*
D03*
X301000Y166000D02*
D03*
X308500Y151000D02*
D03*
Y121000D02*
D03*
X301000Y106000D02*
D03*
Y76000D02*
D03*
X308500Y61000D02*
D03*
X301000Y46000D02*
D03*
X308500Y31000D02*
D03*
X301000Y16000D02*
D03*
X293500Y691000D02*
D03*
X286000Y676000D02*
D03*
X293500Y661000D02*
D03*
X286000Y646000D02*
D03*
X293500Y631000D02*
D03*
Y571000D02*
D03*
X286000Y556000D02*
D03*
X293500Y511000D02*
D03*
X286000Y496000D02*
D03*
X293500Y481000D02*
D03*
X286000Y466000D02*
D03*
X293500Y451000D02*
D03*
X286000Y436000D02*
D03*
X293500Y421000D02*
D03*
X286000Y406000D02*
D03*
X293500Y391000D02*
D03*
X286000Y376000D02*
D03*
X293500Y361000D02*
D03*
X286000Y346000D02*
D03*
X293500Y331000D02*
D03*
X286000Y316000D02*
D03*
X293500Y301000D02*
D03*
X286000Y286000D02*
D03*
X293500Y271000D02*
D03*
X286000Y256000D02*
D03*
X293500Y241000D02*
D03*
X286000Y196000D02*
D03*
X293500Y181000D02*
D03*
X286000Y166000D02*
D03*
X293500Y151000D02*
D03*
Y121000D02*
D03*
X286000Y106000D02*
D03*
Y76000D02*
D03*
X293500Y61000D02*
D03*
X286000Y46000D02*
D03*
X293500Y31000D02*
D03*
X286000Y16000D02*
D03*
X278500Y691000D02*
D03*
X271000Y676000D02*
D03*
X278500Y661000D02*
D03*
X271000Y646000D02*
D03*
X278500Y631000D02*
D03*
Y571000D02*
D03*
X271000Y556000D02*
D03*
X278500Y511000D02*
D03*
X271000Y496000D02*
D03*
X278500Y481000D02*
D03*
X271000Y466000D02*
D03*
X278500Y451000D02*
D03*
X271000Y436000D02*
D03*
X278500Y421000D02*
D03*
X271000Y406000D02*
D03*
X278500Y391000D02*
D03*
X271000Y376000D02*
D03*
X278500Y361000D02*
D03*
X271000Y346000D02*
D03*
X278500Y331000D02*
D03*
X271000Y316000D02*
D03*
X278500Y301000D02*
D03*
X271000Y286000D02*
D03*
X278500Y271000D02*
D03*
X271000Y256000D02*
D03*
X278500Y241000D02*
D03*
X271000Y196000D02*
D03*
X278500Y181000D02*
D03*
X271000Y166000D02*
D03*
X278500Y151000D02*
D03*
Y121000D02*
D03*
X271000Y106000D02*
D03*
Y76000D02*
D03*
X278500Y61000D02*
D03*
X271000Y46000D02*
D03*
X278500Y31000D02*
D03*
X271000Y16000D02*
D03*
X263500Y691000D02*
D03*
X256000Y676000D02*
D03*
X263500Y661000D02*
D03*
X256000Y646000D02*
D03*
X263500Y631000D02*
D03*
X256000Y556000D02*
D03*
X263500Y511000D02*
D03*
X256000Y496000D02*
D03*
X263500Y481000D02*
D03*
X256000Y466000D02*
D03*
X263500Y451000D02*
D03*
X256000Y436000D02*
D03*
X263500Y421000D02*
D03*
X256000Y406000D02*
D03*
X263500Y391000D02*
D03*
X256000Y376000D02*
D03*
X263500Y361000D02*
D03*
X256000Y346000D02*
D03*
X263500Y331000D02*
D03*
X256000Y316000D02*
D03*
X263500Y301000D02*
D03*
X256000Y286000D02*
D03*
X263500Y271000D02*
D03*
X256000Y256000D02*
D03*
X263500Y241000D02*
D03*
X256000Y196000D02*
D03*
X263500Y181000D02*
D03*
X256000Y166000D02*
D03*
X263500Y151000D02*
D03*
Y121000D02*
D03*
X256000Y106000D02*
D03*
Y76000D02*
D03*
X263500Y61000D02*
D03*
X256000Y46000D02*
D03*
X263500Y31000D02*
D03*
X256000Y16000D02*
D03*
X248500Y691000D02*
D03*
X241000Y676000D02*
D03*
X248500Y661000D02*
D03*
X241000Y646000D02*
D03*
X248500Y631000D02*
D03*
X241000Y616000D02*
D03*
X248500Y541000D02*
D03*
X241000Y526000D02*
D03*
Y496000D02*
D03*
X248500Y481000D02*
D03*
X241000Y466000D02*
D03*
X248500Y451000D02*
D03*
X241000Y436000D02*
D03*
X248500Y421000D02*
D03*
X241000Y406000D02*
D03*
X248500Y391000D02*
D03*
X241000Y376000D02*
D03*
X248500Y361000D02*
D03*
X241000Y346000D02*
D03*
X248500Y331000D02*
D03*
X241000Y316000D02*
D03*
X248500Y301000D02*
D03*
X241000Y286000D02*
D03*
X248500Y271000D02*
D03*
X241000Y256000D02*
D03*
X248500Y241000D02*
D03*
X241000Y196000D02*
D03*
X248500Y181000D02*
D03*
X241000Y166000D02*
D03*
X248500Y151000D02*
D03*
Y121000D02*
D03*
X241000Y106000D02*
D03*
Y76000D02*
D03*
X248500Y61000D02*
D03*
X241000Y46000D02*
D03*
X248500Y31000D02*
D03*
X241000Y16000D02*
D03*
X233500Y691000D02*
D03*
X226000Y676000D02*
D03*
X233500Y661000D02*
D03*
X226000Y646000D02*
D03*
X233500Y631000D02*
D03*
X226000Y616000D02*
D03*
X233500Y571000D02*
D03*
X226000Y526000D02*
D03*
X233500Y481000D02*
D03*
X226000Y466000D02*
D03*
X233500Y451000D02*
D03*
X226000Y436000D02*
D03*
X233500Y421000D02*
D03*
X226000Y406000D02*
D03*
X233500Y391000D02*
D03*
X226000Y376000D02*
D03*
X233500Y361000D02*
D03*
X226000Y346000D02*
D03*
X233500Y331000D02*
D03*
X226000Y316000D02*
D03*
X233500Y301000D02*
D03*
X226000Y286000D02*
D03*
X233500Y271000D02*
D03*
X226000Y256000D02*
D03*
X233500Y241000D02*
D03*
X226000Y196000D02*
D03*
X233500Y181000D02*
D03*
X226000Y166000D02*
D03*
X233500Y151000D02*
D03*
Y121000D02*
D03*
X226000Y106000D02*
D03*
Y76000D02*
D03*
X233500Y61000D02*
D03*
Y31000D02*
D03*
X226000Y16000D02*
D03*
X218500Y691000D02*
D03*
X211000Y676000D02*
D03*
X218500Y661000D02*
D03*
X211000Y646000D02*
D03*
X218500Y631000D02*
D03*
X211000Y616000D02*
D03*
X218500Y601000D02*
D03*
X211000Y586000D02*
D03*
X218500Y511000D02*
D03*
X211000Y496000D02*
D03*
Y466000D02*
D03*
X218500Y451000D02*
D03*
X211000Y436000D02*
D03*
X218500Y421000D02*
D03*
X211000Y406000D02*
D03*
X218500Y391000D02*
D03*
X211000Y376000D02*
D03*
X218500Y361000D02*
D03*
X211000Y346000D02*
D03*
X218500Y331000D02*
D03*
X211000Y316000D02*
D03*
X218500Y301000D02*
D03*
X211000Y286000D02*
D03*
X218500Y271000D02*
D03*
X211000Y256000D02*
D03*
X218500Y241000D02*
D03*
X211000Y196000D02*
D03*
X218500Y181000D02*
D03*
X211000Y166000D02*
D03*
X218500Y151000D02*
D03*
Y121000D02*
D03*
X211000Y106000D02*
D03*
Y76000D02*
D03*
Y16000D02*
D03*
X203500Y691000D02*
D03*
X196000Y676000D02*
D03*
X203500Y661000D02*
D03*
X196000Y646000D02*
D03*
X203500Y631000D02*
D03*
X196000Y616000D02*
D03*
X203500Y601000D02*
D03*
X196000Y586000D02*
D03*
X203500Y541000D02*
D03*
X196000Y496000D02*
D03*
X203500Y451000D02*
D03*
X196000Y436000D02*
D03*
X203500Y421000D02*
D03*
X196000Y406000D02*
D03*
X203500Y391000D02*
D03*
X196000Y376000D02*
D03*
X203500Y361000D02*
D03*
X196000Y346000D02*
D03*
X203500Y331000D02*
D03*
X196000Y316000D02*
D03*
X203500Y301000D02*
D03*
X196000Y286000D02*
D03*
X203500Y271000D02*
D03*
X196000Y256000D02*
D03*
X203500Y241000D02*
D03*
X196000Y196000D02*
D03*
X203500Y181000D02*
D03*
X196000Y166000D02*
D03*
X203500Y151000D02*
D03*
Y121000D02*
D03*
X196000Y106000D02*
D03*
Y76000D02*
D03*
X203500Y61000D02*
D03*
X196000Y46000D02*
D03*
X203500Y31000D02*
D03*
X196000Y16000D02*
D03*
X188500Y691000D02*
D03*
X181000Y676000D02*
D03*
X188500Y661000D02*
D03*
X181000Y646000D02*
D03*
X188500Y631000D02*
D03*
X181000Y616000D02*
D03*
X188500Y601000D02*
D03*
X181000Y586000D02*
D03*
X188500Y571000D02*
D03*
X181000Y556000D02*
D03*
X188500Y481000D02*
D03*
X181000Y466000D02*
D03*
Y436000D02*
D03*
X188500Y421000D02*
D03*
X181000Y406000D02*
D03*
X188500Y391000D02*
D03*
X181000Y376000D02*
D03*
X188500Y361000D02*
D03*
X181000Y346000D02*
D03*
X188500Y331000D02*
D03*
X181000Y316000D02*
D03*
X188500Y301000D02*
D03*
X181000Y286000D02*
D03*
X188500Y271000D02*
D03*
X181000Y256000D02*
D03*
X188500Y241000D02*
D03*
X181000Y196000D02*
D03*
X188500Y181000D02*
D03*
X181000Y166000D02*
D03*
X188500Y151000D02*
D03*
Y121000D02*
D03*
X181000Y106000D02*
D03*
Y76000D02*
D03*
X188500Y61000D02*
D03*
X181000Y46000D02*
D03*
X188500Y31000D02*
D03*
X181000Y16000D02*
D03*
X173500Y691000D02*
D03*
X166000Y676000D02*
D03*
X173500Y661000D02*
D03*
X166000Y646000D02*
D03*
X173500Y631000D02*
D03*
X166000Y616000D02*
D03*
X173500Y601000D02*
D03*
X166000Y586000D02*
D03*
X173500Y571000D02*
D03*
X166000Y556000D02*
D03*
X173500Y511000D02*
D03*
X166000Y466000D02*
D03*
X173500Y421000D02*
D03*
X166000Y406000D02*
D03*
X173500Y391000D02*
D03*
X166000Y376000D02*
D03*
X173500Y361000D02*
D03*
X166000Y346000D02*
D03*
X173500Y331000D02*
D03*
X166000Y316000D02*
D03*
X173500Y301000D02*
D03*
X166000Y286000D02*
D03*
X173500Y271000D02*
D03*
X166000Y256000D02*
D03*
X173500Y241000D02*
D03*
X166000Y196000D02*
D03*
X173500Y181000D02*
D03*
X166000Y76000D02*
D03*
X173500Y61000D02*
D03*
X166000Y46000D02*
D03*
X173500Y31000D02*
D03*
X166000Y16000D02*
D03*
X158500Y691000D02*
D03*
X151000Y676000D02*
D03*
X158500Y661000D02*
D03*
X151000Y646000D02*
D03*
X158500Y631000D02*
D03*
X151000Y616000D02*
D03*
X158500Y601000D02*
D03*
X151000Y586000D02*
D03*
X158500Y571000D02*
D03*
X151000Y556000D02*
D03*
X158500Y541000D02*
D03*
X151000Y526000D02*
D03*
X158500Y451000D02*
D03*
X151000Y436000D02*
D03*
X158500Y391000D02*
D03*
Y361000D02*
D03*
Y331000D02*
D03*
Y301000D02*
D03*
Y271000D02*
D03*
Y241000D02*
D03*
Y181000D02*
D03*
X151000Y76000D02*
D03*
X158500Y61000D02*
D03*
X151000Y16000D02*
D03*
X143500Y691000D02*
D03*
X136000Y676000D02*
D03*
X143500Y661000D02*
D03*
X136000Y646000D02*
D03*
X143500Y631000D02*
D03*
X136000Y616000D02*
D03*
X143500Y601000D02*
D03*
X136000Y586000D02*
D03*
X143500Y571000D02*
D03*
X136000Y556000D02*
D03*
X143500Y541000D02*
D03*
X136000Y526000D02*
D03*
X143500Y481000D02*
D03*
X136000Y76000D02*
D03*
X143500Y61000D02*
D03*
X136000Y16000D02*
D03*
X128500Y691000D02*
D03*
X121000Y676000D02*
D03*
X128500Y661000D02*
D03*
X121000Y646000D02*
D03*
X128500Y631000D02*
D03*
X121000Y616000D02*
D03*
X128500Y601000D02*
D03*
X121000Y586000D02*
D03*
X128500Y571000D02*
D03*
X121000Y556000D02*
D03*
X128500Y541000D02*
D03*
X121000Y526000D02*
D03*
X128500Y511000D02*
D03*
X121000Y496000D02*
D03*
X128500Y91000D02*
D03*
X121000Y76000D02*
D03*
X128500Y61000D02*
D03*
X121000Y46000D02*
D03*
X128500Y31000D02*
D03*
X121000Y16000D02*
D03*
X113500Y691000D02*
D03*
X106000Y676000D02*
D03*
X113500Y661000D02*
D03*
X106000Y646000D02*
D03*
X113500Y631000D02*
D03*
X106000Y616000D02*
D03*
X113500Y601000D02*
D03*
X106000Y586000D02*
D03*
X113500Y571000D02*
D03*
X106000Y556000D02*
D03*
X113500Y541000D02*
D03*
X106000Y526000D02*
D03*
X113500Y511000D02*
D03*
X106000Y496000D02*
D03*
Y106000D02*
D03*
X113500Y91000D02*
D03*
X106000Y76000D02*
D03*
X113500Y61000D02*
D03*
X106000Y46000D02*
D03*
X113500Y31000D02*
D03*
X106000Y16000D02*
D03*
X98500Y691000D02*
D03*
X91000Y676000D02*
D03*
X98500Y661000D02*
D03*
X91000Y646000D02*
D03*
X98500Y631000D02*
D03*
X91000Y616000D02*
D03*
X98500Y601000D02*
D03*
X91000Y586000D02*
D03*
X98500Y571000D02*
D03*
X91000Y556000D02*
D03*
X98500Y541000D02*
D03*
X91000Y526000D02*
D03*
X98500Y511000D02*
D03*
X91000Y496000D02*
D03*
X98500Y481000D02*
D03*
X91000Y466000D02*
D03*
Y436000D02*
D03*
Y406000D02*
D03*
Y376000D02*
D03*
Y346000D02*
D03*
Y316000D02*
D03*
Y286000D02*
D03*
Y256000D02*
D03*
Y226000D02*
D03*
Y196000D02*
D03*
Y166000D02*
D03*
Y136000D02*
D03*
X98500Y121000D02*
D03*
X91000Y106000D02*
D03*
X98500Y91000D02*
D03*
X91000Y76000D02*
D03*
X98500Y61000D02*
D03*
X91000Y46000D02*
D03*
X98500Y31000D02*
D03*
X91000Y16000D02*
D03*
X83500Y691000D02*
D03*
X76000Y676000D02*
D03*
X83500Y661000D02*
D03*
X76000Y646000D02*
D03*
X83500Y631000D02*
D03*
X76000Y616000D02*
D03*
X83500Y601000D02*
D03*
X76000Y586000D02*
D03*
X83500Y571000D02*
D03*
X76000Y556000D02*
D03*
X83500Y541000D02*
D03*
X76000Y526000D02*
D03*
X83500Y511000D02*
D03*
X76000Y496000D02*
D03*
X83500Y481000D02*
D03*
X76000Y466000D02*
D03*
X83500Y451000D02*
D03*
X76000Y436000D02*
D03*
X83500Y421000D02*
D03*
X76000Y406000D02*
D03*
X83500Y391000D02*
D03*
X76000Y376000D02*
D03*
X83500Y361000D02*
D03*
X76000Y346000D02*
D03*
X83500Y331000D02*
D03*
X76000Y316000D02*
D03*
X83500Y301000D02*
D03*
X76000Y286000D02*
D03*
X83500Y271000D02*
D03*
X76000Y256000D02*
D03*
X83500Y241000D02*
D03*
X76000Y226000D02*
D03*
X83500Y211000D02*
D03*
X76000Y196000D02*
D03*
X83500Y181000D02*
D03*
X76000Y166000D02*
D03*
X83500Y151000D02*
D03*
X76000Y136000D02*
D03*
X83500Y121000D02*
D03*
X76000Y106000D02*
D03*
X83500Y91000D02*
D03*
X76000Y76000D02*
D03*
X83500Y61000D02*
D03*
Y31000D02*
D03*
X76000Y16000D02*
D03*
X68500Y691000D02*
D03*
X61000Y676000D02*
D03*
X68500Y661000D02*
D03*
X61000Y646000D02*
D03*
X68500Y631000D02*
D03*
X61000Y616000D02*
D03*
X68500Y601000D02*
D03*
X61000Y586000D02*
D03*
X68500Y571000D02*
D03*
X61000Y556000D02*
D03*
X68500Y541000D02*
D03*
X61000Y526000D02*
D03*
X68500Y511000D02*
D03*
X61000Y496000D02*
D03*
X68500Y481000D02*
D03*
X61000Y466000D02*
D03*
X68500Y451000D02*
D03*
X61000Y436000D02*
D03*
X68500Y421000D02*
D03*
X61000Y406000D02*
D03*
X68500Y391000D02*
D03*
X61000Y376000D02*
D03*
X68500Y361000D02*
D03*
X61000Y346000D02*
D03*
X68500Y331000D02*
D03*
X61000Y316000D02*
D03*
X68500Y301000D02*
D03*
X61000Y286000D02*
D03*
X68500Y271000D02*
D03*
X61000Y256000D02*
D03*
X68500Y241000D02*
D03*
X61000Y226000D02*
D03*
X68500Y211000D02*
D03*
X61000Y196000D02*
D03*
X68500Y181000D02*
D03*
X61000Y166000D02*
D03*
X68500Y151000D02*
D03*
X61000Y136000D02*
D03*
X68500Y121000D02*
D03*
X61000Y106000D02*
D03*
X68500Y91000D02*
D03*
X61000Y76000D02*
D03*
Y16000D02*
D03*
X53500Y691000D02*
D03*
Y631000D02*
D03*
X46000Y616000D02*
D03*
X53500Y601000D02*
D03*
X46000Y586000D02*
D03*
X53500Y571000D02*
D03*
X46000Y556000D02*
D03*
X53500Y541000D02*
D03*
X46000Y526000D02*
D03*
X53500Y511000D02*
D03*
X46000Y496000D02*
D03*
X53500Y481000D02*
D03*
X46000Y466000D02*
D03*
X53500Y451000D02*
D03*
X46000Y436000D02*
D03*
X53500Y421000D02*
D03*
X46000Y406000D02*
D03*
X53500Y391000D02*
D03*
X46000Y376000D02*
D03*
X53500Y361000D02*
D03*
X46000Y346000D02*
D03*
X53500Y331000D02*
D03*
X46000Y316000D02*
D03*
X53500Y301000D02*
D03*
X46000Y286000D02*
D03*
X53500Y271000D02*
D03*
X46000Y256000D02*
D03*
X53500Y241000D02*
D03*
X46000Y226000D02*
D03*
X53500Y211000D02*
D03*
X46000Y196000D02*
D03*
X53500Y181000D02*
D03*
X46000Y166000D02*
D03*
X53500Y151000D02*
D03*
X46000Y136000D02*
D03*
X53500Y121000D02*
D03*
X46000Y106000D02*
D03*
X53500Y91000D02*
D03*
X46000Y76000D02*
D03*
X53500Y61000D02*
D03*
X46000Y46000D02*
D03*
X53500Y31000D02*
D03*
X46000Y16000D02*
D03*
X38500Y691000D02*
D03*
Y631000D02*
D03*
X31000Y616000D02*
D03*
X38500Y601000D02*
D03*
X31000Y586000D02*
D03*
X38500Y571000D02*
D03*
X31000Y556000D02*
D03*
X38500Y541000D02*
D03*
X31000Y526000D02*
D03*
X38500Y511000D02*
D03*
X31000Y496000D02*
D03*
X38500Y481000D02*
D03*
X31000Y466000D02*
D03*
X38500Y451000D02*
D03*
X31000Y436000D02*
D03*
X38500Y421000D02*
D03*
X31000Y406000D02*
D03*
X38500Y391000D02*
D03*
X31000Y376000D02*
D03*
X38500Y361000D02*
D03*
X31000Y346000D02*
D03*
X38500Y331000D02*
D03*
X31000Y316000D02*
D03*
X38500Y301000D02*
D03*
X31000Y286000D02*
D03*
X38500Y271000D02*
D03*
X31000Y256000D02*
D03*
X38500Y241000D02*
D03*
X31000Y226000D02*
D03*
X38500Y211000D02*
D03*
X31000Y196000D02*
D03*
X38500Y181000D02*
D03*
X31000Y166000D02*
D03*
X38500Y151000D02*
D03*
X31000Y136000D02*
D03*
X38500Y121000D02*
D03*
X31000Y106000D02*
D03*
X38500Y91000D02*
D03*
X31000Y76000D02*
D03*
X38500Y61000D02*
D03*
X31000Y46000D02*
D03*
X38500Y31000D02*
D03*
X31000Y16000D02*
D03*
X23500Y691000D02*
D03*
X16000Y676000D02*
D03*
Y646000D02*
D03*
X23500Y631000D02*
D03*
X16000Y616000D02*
D03*
X23500Y601000D02*
D03*
X16000Y586000D02*
D03*
X23500Y571000D02*
D03*
X16000Y556000D02*
D03*
X23500Y541000D02*
D03*
X16000Y526000D02*
D03*
X23500Y511000D02*
D03*
X16000Y496000D02*
D03*
X23500Y481000D02*
D03*
X16000Y466000D02*
D03*
X23500Y451000D02*
D03*
X16000Y436000D02*
D03*
X23500Y421000D02*
D03*
X16000Y406000D02*
D03*
X23500Y391000D02*
D03*
X16000Y376000D02*
D03*
X23500Y361000D02*
D03*
X16000Y346000D02*
D03*
X23500Y331000D02*
D03*
X16000Y316000D02*
D03*
X23500Y301000D02*
D03*
X16000Y286000D02*
D03*
X23500Y271000D02*
D03*
X16000Y256000D02*
D03*
X23500Y241000D02*
D03*
X16000Y226000D02*
D03*
X23500Y211000D02*
D03*
X16000Y196000D02*
D03*
X23500Y181000D02*
D03*
X16000Y166000D02*
D03*
X23500Y151000D02*
D03*
X16000Y136000D02*
D03*
X23500Y121000D02*
D03*
X16000Y106000D02*
D03*
X23500Y91000D02*
D03*
X16000Y76000D02*
D03*
X23500Y61000D02*
D03*
X16000Y46000D02*
D03*
X23500Y31000D02*
D03*
X16000Y16000D02*
D03*
X1270000Y670000D02*
D03*
X1250000D02*
D03*
X1270000Y650000D02*
D03*
X1250000D02*
D03*
X1245000Y660000D02*
D03*
X1275000D02*
D03*
X1260000Y675000D02*
D03*
Y645000D02*
D03*
X30000Y670000D02*
D03*
X25000Y660000D02*
D03*
X30000Y650000D02*
D03*
X50000D02*
D03*
X55000Y660000D02*
D03*
X50000Y670000D02*
D03*
X40000Y675000D02*
D03*
Y645000D02*
D03*
D35*
X643000Y582000D02*
D03*
X631000Y556000D02*
D03*
X619000Y532000D02*
D03*
X595000Y481000D02*
D03*
X649000Y383000D02*
D03*
Y256000D02*
D03*
Y358000D02*
D03*
Y282000D02*
D03*
Y307000D02*
D03*
Y332000D02*
D03*
X583000Y456000D02*
D03*
X607000Y508000D02*
D03*
X921000Y532000D02*
D03*
Y509000D02*
D03*
X782000Y558000D02*
D03*
X797000Y583000D02*
D03*
X989000Y456000D02*
D03*
X990000Y482000D02*
D03*
X542000Y456000D02*
D03*
Y481000D02*
D03*
X543000Y508000D02*
D03*
X542000Y582000D02*
D03*
Y556000D02*
D03*
Y532000D02*
D03*
X461000Y249000D02*
D03*
X410000Y226000D02*
D03*
M02*
