G04*
G04 #@! TF.GenerationSoftware,Altium Limited,Altium Designer,25.8.1 (18)*
G04*
G04 Layer_Physical_Order=3*
G04 Layer_Color=16440176*
%FSLAX44Y44*%
%MOMM*%
G71*
G04*
G04 #@! TF.SameCoordinates,260C65C0-4761-4F60-B23D-77B3643B8380*
G04*
G04*
G04 #@! TF.FilePolarity,Positive*
G04*
G01*
G75*
%ADD28C,3.5000*%
%ADD29C,1.6000*%
%ADD30C,1.2000*%
%ADD31C,1.5000*%
%ADD32C,2.0000*%
%ADD33C,2.3000*%
%ADD34C,0.3000*%
%ADD35C,0.8000*%
G36*
X1300000Y0D02*
X0D01*
Y700000D01*
X1300000D01*
Y0D01*
D02*
G37*
%LPC*%
G36*
X797861Y589540D02*
X796139D01*
X794476Y589094D01*
X792984Y588233D01*
X791767Y587016D01*
X790906Y585524D01*
X790460Y583861D01*
Y582139D01*
X790906Y580476D01*
X791767Y578984D01*
X792984Y577767D01*
X794476Y576906D01*
X796139Y576460D01*
X797861D01*
X799524Y576906D01*
X801016Y577767D01*
X802233Y578984D01*
X803094Y580476D01*
X803540Y582139D01*
Y583861D01*
X803094Y585524D01*
X802233Y587016D01*
X801016Y588233D01*
X799524Y589094D01*
X797861Y589540D01*
D02*
G37*
G36*
X643861Y588540D02*
X642139D01*
X640476Y588094D01*
X638984Y587233D01*
X637767Y586016D01*
X636906Y584524D01*
X636460Y582861D01*
Y581139D01*
X636906Y579476D01*
X637767Y577984D01*
X638984Y576767D01*
X640476Y575906D01*
X642139Y575460D01*
X643861D01*
X645524Y575906D01*
X647016Y576767D01*
X648233Y577984D01*
X649094Y579476D01*
X649540Y581139D01*
Y582861D01*
X649094Y584524D01*
X648233Y586016D01*
X647016Y587233D01*
X645524Y588094D01*
X643861Y588540D01*
D02*
G37*
G36*
X542861D02*
X541139D01*
X539476Y588094D01*
X537984Y587233D01*
X536767Y586016D01*
X535906Y584524D01*
X535460Y582861D01*
Y581139D01*
X535906Y579476D01*
X536767Y577984D01*
X537984Y576767D01*
X539476Y575906D01*
X541139Y575460D01*
X542861D01*
X544524Y575906D01*
X546016Y576767D01*
X547233Y577984D01*
X548094Y579476D01*
X548540Y581139D01*
Y582861D01*
X548094Y584524D01*
X547233Y586016D01*
X546016Y587233D01*
X544524Y588094D01*
X542861Y588540D01*
D02*
G37*
G36*
X782861Y564540D02*
X781139D01*
X779476Y564094D01*
X777984Y563233D01*
X776767Y562016D01*
X775906Y560524D01*
X775460Y558861D01*
Y557139D01*
X775906Y555476D01*
X776767Y553984D01*
X777984Y552767D01*
X779476Y551906D01*
X781139Y551460D01*
X782861D01*
X784524Y551906D01*
X786016Y552767D01*
X787233Y553984D01*
X788094Y555476D01*
X788540Y557139D01*
Y558861D01*
X788094Y560524D01*
X787233Y562016D01*
X786016Y563233D01*
X784524Y564094D01*
X782861Y564540D01*
D02*
G37*
G36*
X631861Y562540D02*
X630139D01*
X628476Y562094D01*
X626984Y561233D01*
X625767Y560016D01*
X624906Y558524D01*
X624460Y556861D01*
Y555139D01*
X624906Y553476D01*
X625767Y551984D01*
X626984Y550767D01*
X628476Y549906D01*
X630139Y549460D01*
X631861D01*
X633524Y549906D01*
X635016Y550767D01*
X636233Y551984D01*
X637094Y553476D01*
X637540Y555139D01*
Y556861D01*
X637094Y558524D01*
X636233Y560016D01*
X635016Y561233D01*
X633524Y562094D01*
X631861Y562540D01*
D02*
G37*
G36*
X542861D02*
X541139D01*
X539476Y562094D01*
X537984Y561233D01*
X536767Y560016D01*
X535906Y558524D01*
X535460Y556861D01*
Y555139D01*
X535906Y553476D01*
X536767Y551984D01*
X537984Y550767D01*
X539476Y549906D01*
X541139Y549460D01*
X542861D01*
X544524Y549906D01*
X546016Y550767D01*
X547233Y551984D01*
X548094Y553476D01*
X548540Y555139D01*
Y556861D01*
X548094Y558524D01*
X547233Y560016D01*
X546016Y561233D01*
X544524Y562094D01*
X542861Y562540D01*
D02*
G37*
G36*
X921861Y538540D02*
X920139D01*
X918476Y538094D01*
X916984Y537233D01*
X915767Y536016D01*
X914906Y534524D01*
X914460Y532861D01*
Y531139D01*
X914906Y529476D01*
X915767Y527984D01*
X916984Y526767D01*
X918476Y525906D01*
X920139Y525460D01*
X921861D01*
X923524Y525906D01*
X925016Y526767D01*
X926233Y527984D01*
X927094Y529476D01*
X927540Y531139D01*
Y532861D01*
X927094Y534524D01*
X926233Y536016D01*
X925016Y537233D01*
X923524Y538094D01*
X921861Y538540D01*
D02*
G37*
G36*
X619861D02*
X618139D01*
X616476Y538094D01*
X614984Y537233D01*
X613767Y536016D01*
X612906Y534524D01*
X612460Y532861D01*
Y531139D01*
X612906Y529476D01*
X613767Y527984D01*
X614984Y526767D01*
X616476Y525906D01*
X618139Y525460D01*
X619861D01*
X621524Y525906D01*
X623016Y526767D01*
X624233Y527984D01*
X625094Y529476D01*
X625540Y531139D01*
Y532861D01*
X625094Y534524D01*
X624233Y536016D01*
X623016Y537233D01*
X621524Y538094D01*
X619861Y538540D01*
D02*
G37*
G36*
X542861D02*
X541139D01*
X539476Y538094D01*
X537984Y537233D01*
X536767Y536016D01*
X535906Y534524D01*
X535460Y532861D01*
Y531139D01*
X535906Y529476D01*
X536767Y527984D01*
X537984Y526767D01*
X539476Y525906D01*
X541139Y525460D01*
X542861D01*
X544524Y525906D01*
X546016Y526767D01*
X547233Y527984D01*
X548094Y529476D01*
X548540Y531139D01*
Y532861D01*
X548094Y534524D01*
X547233Y536016D01*
X546016Y537233D01*
X544524Y538094D01*
X542861Y538540D01*
D02*
G37*
G36*
X921861Y515540D02*
X920139D01*
X918476Y515094D01*
X916984Y514233D01*
X915767Y513016D01*
X914906Y511524D01*
X914460Y509861D01*
Y508139D01*
X914906Y506476D01*
X915767Y504984D01*
X916984Y503767D01*
X918476Y502906D01*
X920139Y502460D01*
X921861D01*
X923524Y502906D01*
X925016Y503767D01*
X926233Y504984D01*
X927094Y506476D01*
X927540Y508139D01*
Y509861D01*
X927094Y511524D01*
X926233Y513016D01*
X925016Y514233D01*
X923524Y515094D01*
X921861Y515540D01*
D02*
G37*
G36*
X607861Y514540D02*
X606139D01*
X604476Y514094D01*
X602984Y513233D01*
X601767Y512016D01*
X600906Y510524D01*
X600460Y508861D01*
Y507139D01*
X600906Y505476D01*
X601767Y503984D01*
X602984Y502767D01*
X604476Y501906D01*
X606139Y501460D01*
X607861D01*
X609524Y501906D01*
X611016Y502767D01*
X612233Y503984D01*
X613094Y505476D01*
X613540Y507139D01*
Y508861D01*
X613094Y510524D01*
X612233Y512016D01*
X611016Y513233D01*
X609524Y514094D01*
X607861Y514540D01*
D02*
G37*
G36*
X543861D02*
X542139D01*
X540476Y514094D01*
X538984Y513233D01*
X537767Y512016D01*
X536906Y510524D01*
X536460Y508861D01*
Y507139D01*
X536906Y505476D01*
X537767Y503984D01*
X538984Y502767D01*
X540476Y501906D01*
X542139Y501460D01*
X543861D01*
X545524Y501906D01*
X547016Y502767D01*
X548233Y503984D01*
X549094Y505476D01*
X549540Y507139D01*
Y508861D01*
X549094Y510524D01*
X548233Y512016D01*
X547016Y513233D01*
X545524Y514094D01*
X543861Y514540D01*
D02*
G37*
G36*
X990861Y488540D02*
X989139D01*
X987476Y488094D01*
X985984Y487233D01*
X984767Y486016D01*
X983906Y484524D01*
X983460Y482861D01*
Y481139D01*
X983906Y479476D01*
X984767Y477984D01*
X985984Y476767D01*
X987476Y475906D01*
X989139Y475460D01*
X990861D01*
X992524Y475906D01*
X994016Y476767D01*
X995233Y477984D01*
X996094Y479476D01*
X996540Y481139D01*
Y482861D01*
X996094Y484524D01*
X995233Y486016D01*
X994016Y487233D01*
X992524Y488094D01*
X990861Y488540D01*
D02*
G37*
G36*
X595861Y487540D02*
X594139D01*
X592476Y487094D01*
X590984Y486233D01*
X589767Y485016D01*
X588906Y483524D01*
X588460Y481861D01*
Y480139D01*
X588906Y478476D01*
X589767Y476984D01*
X590984Y475767D01*
X592476Y474906D01*
X594139Y474460D01*
X595861D01*
X597524Y474906D01*
X599016Y475767D01*
X600233Y476984D01*
X601094Y478476D01*
X601540Y480139D01*
Y481861D01*
X601094Y483524D01*
X600233Y485016D01*
X599016Y486233D01*
X597524Y487094D01*
X595861Y487540D01*
D02*
G37*
G36*
X542861D02*
X541139D01*
X539476Y487094D01*
X537984Y486233D01*
X536767Y485016D01*
X535906Y483524D01*
X535460Y481861D01*
Y480139D01*
X535906Y478476D01*
X536767Y476984D01*
X537984Y475767D01*
X539476Y474906D01*
X541139Y474460D01*
X542861D01*
X544524Y474906D01*
X546016Y475767D01*
X547233Y476984D01*
X548094Y478476D01*
X548540Y480139D01*
Y481861D01*
X548094Y483524D01*
X547233Y485016D01*
X546016Y486233D01*
X544524Y487094D01*
X542861Y487540D01*
D02*
G37*
G36*
X989861Y462540D02*
X988139D01*
X986476Y462094D01*
X984984Y461233D01*
X983767Y460016D01*
X982906Y458524D01*
X982460Y456861D01*
Y455139D01*
X982906Y453476D01*
X983767Y451984D01*
X984984Y450767D01*
X986476Y449906D01*
X988139Y449460D01*
X989861D01*
X991524Y449906D01*
X993016Y450767D01*
X994233Y451984D01*
X995094Y453476D01*
X995540Y455139D01*
Y456861D01*
X995094Y458524D01*
X994233Y460016D01*
X993016Y461233D01*
X991524Y462094D01*
X989861Y462540D01*
D02*
G37*
G36*
X583861D02*
X582139D01*
X580476Y462094D01*
X578984Y461233D01*
X577767Y460016D01*
X576906Y458524D01*
X576460Y456861D01*
Y455139D01*
X576906Y453476D01*
X577767Y451984D01*
X578984Y450767D01*
X580476Y449906D01*
X582139Y449460D01*
X583861D01*
X585524Y449906D01*
X587016Y450767D01*
X588233Y451984D01*
X589094Y453476D01*
X589540Y455139D01*
Y456861D01*
X589094Y458524D01*
X588233Y460016D01*
X587016Y461233D01*
X585524Y462094D01*
X583861Y462540D01*
D02*
G37*
G36*
X542861D02*
X541139D01*
X539476Y462094D01*
X537984Y461233D01*
X536767Y460016D01*
X535906Y458524D01*
X535460Y456861D01*
Y455139D01*
X535906Y453476D01*
X536767Y451984D01*
X537984Y450767D01*
X539476Y449906D01*
X541139Y449460D01*
X542861D01*
X544524Y449906D01*
X546016Y450767D01*
X547233Y451984D01*
X548094Y453476D01*
X548540Y455139D01*
Y456861D01*
X548094Y458524D01*
X547233Y460016D01*
X546016Y461233D01*
X544524Y462094D01*
X542861Y462540D01*
D02*
G37*
G36*
X649861Y389540D02*
X648139D01*
X646476Y389094D01*
X644984Y388233D01*
X643767Y387016D01*
X642906Y385524D01*
X642460Y383861D01*
Y382139D01*
X642906Y380476D01*
X643767Y378984D01*
X644984Y377767D01*
X646476Y376906D01*
X648139Y376460D01*
X649861D01*
X651524Y376906D01*
X653016Y377767D01*
X654233Y378984D01*
X655094Y380476D01*
X655540Y382139D01*
Y383861D01*
X655094Y385524D01*
X654233Y387016D01*
X653016Y388233D01*
X651524Y389094D01*
X649861Y389540D01*
D02*
G37*
G36*
Y364540D02*
X648139D01*
X646476Y364094D01*
X644984Y363233D01*
X643767Y362016D01*
X642906Y360524D01*
X642460Y358861D01*
Y357139D01*
X642906Y355476D01*
X643767Y353984D01*
X644984Y352767D01*
X646476Y351906D01*
X648139Y351460D01*
X649861D01*
X651524Y351906D01*
X653016Y352767D01*
X654233Y353984D01*
X655094Y355476D01*
X655540Y357139D01*
Y358861D01*
X655094Y360524D01*
X654233Y362016D01*
X653016Y363233D01*
X651524Y364094D01*
X649861Y364540D01*
D02*
G37*
G36*
Y338540D02*
X648139D01*
X646476Y338094D01*
X644984Y337233D01*
X643767Y336016D01*
X642906Y334524D01*
X642460Y332861D01*
Y331139D01*
X642906Y329476D01*
X643767Y327984D01*
X644984Y326767D01*
X646476Y325906D01*
X648139Y325460D01*
X649861D01*
X651524Y325906D01*
X653016Y326767D01*
X654233Y327984D01*
X655094Y329476D01*
X655540Y331139D01*
Y332861D01*
X655094Y334524D01*
X654233Y336016D01*
X653016Y337233D01*
X651524Y338094D01*
X649861Y338540D01*
D02*
G37*
G36*
Y313540D02*
X648139D01*
X646476Y313094D01*
X644984Y312233D01*
X643767Y311016D01*
X642906Y309524D01*
X642460Y307861D01*
Y306139D01*
X642906Y304476D01*
X643767Y302984D01*
X644984Y301767D01*
X646476Y300906D01*
X648139Y300460D01*
X649861D01*
X651524Y300906D01*
X653016Y301767D01*
X654233Y302984D01*
X655094Y304476D01*
X655540Y306139D01*
Y307861D01*
X655094Y309524D01*
X654233Y311016D01*
X653016Y312233D01*
X651524Y313094D01*
X649861Y313540D01*
D02*
G37*
G36*
Y288540D02*
X648139D01*
X646476Y288094D01*
X644984Y287233D01*
X643767Y286016D01*
X642906Y284524D01*
X642460Y282861D01*
Y281139D01*
X642906Y279476D01*
X643767Y277984D01*
X644984Y276767D01*
X646476Y275906D01*
X648139Y275460D01*
X649861D01*
X651524Y275906D01*
X653016Y276767D01*
X654233Y277984D01*
X655094Y279476D01*
X655540Y281139D01*
Y282861D01*
X655094Y284524D01*
X654233Y286016D01*
X653016Y287233D01*
X651524Y288094D01*
X649861Y288540D01*
D02*
G37*
G36*
Y262540D02*
X648139D01*
X646476Y262094D01*
X644984Y261233D01*
X643767Y260016D01*
X642906Y258524D01*
X642460Y256861D01*
Y255139D01*
X642906Y253476D01*
X643767Y251984D01*
X644984Y250767D01*
X646476Y249906D01*
X648139Y249460D01*
X649861D01*
X651524Y249906D01*
X653016Y250767D01*
X654233Y251984D01*
X655094Y253476D01*
X655540Y255139D01*
Y256861D01*
X655094Y258524D01*
X654233Y260016D01*
X653016Y261233D01*
X651524Y262094D01*
X649861Y262540D01*
D02*
G37*
G36*
X461861Y255540D02*
X460139D01*
X458476Y255094D01*
X456984Y254233D01*
X455767Y253016D01*
X454906Y251524D01*
X454460Y249861D01*
Y248139D01*
X454906Y246476D01*
X455767Y244984D01*
X456984Y243767D01*
X458476Y242906D01*
X460139Y242460D01*
X461861D01*
X463524Y242906D01*
X465016Y243767D01*
X466233Y244984D01*
X467094Y246476D01*
X467540Y248139D01*
Y249861D01*
X467094Y251524D01*
X466233Y253016D01*
X465016Y254233D01*
X463524Y255094D01*
X461861Y255540D01*
D02*
G37*
G36*
X410861Y232540D02*
X409139D01*
X407476Y232094D01*
X405984Y231233D01*
X404767Y230016D01*
X403906Y228524D01*
X403460Y226861D01*
Y225139D01*
X403906Y223476D01*
X404767Y221984D01*
X405984Y220767D01*
X407476Y219906D01*
X409139Y219460D01*
X410861D01*
X412524Y219906D01*
X414016Y220767D01*
X415233Y221984D01*
X416094Y223476D01*
X416540Y225139D01*
Y226861D01*
X416094Y228524D01*
X415233Y230016D01*
X414016Y231233D01*
X412524Y232094D01*
X410861Y232540D01*
D02*
G37*
G36*
X465322Y164040D02*
X462678D01*
X460125Y163356D01*
X457836Y162034D01*
X455966Y160165D01*
X454644Y157875D01*
X453960Y155322D01*
Y152678D01*
X454644Y150125D01*
X455966Y147836D01*
X457836Y145966D01*
X460125Y144644D01*
X462678Y143960D01*
X465322D01*
X467876Y144644D01*
X470165Y145966D01*
X472034Y147836D01*
X473356Y150125D01*
X474040Y152678D01*
Y155322D01*
X473356Y157875D01*
X472034Y160165D01*
X470165Y162034D01*
X467876Y163356D01*
X465322Y164040D01*
D02*
G37*
G36*
X429322D02*
X426679D01*
X424125Y163356D01*
X421836Y162034D01*
X419966Y160165D01*
X418644Y157875D01*
X417960Y155322D01*
Y152678D01*
X418644Y150125D01*
X419966Y147836D01*
X421836Y145966D01*
X424125Y144644D01*
X426679Y143960D01*
X429322D01*
X431876Y144644D01*
X434165Y145966D01*
X436034Y147836D01*
X437356Y150125D01*
X438040Y152678D01*
Y155322D01*
X437356Y157875D01*
X436034Y160165D01*
X434165Y162034D01*
X431876Y163356D01*
X429322Y164040D01*
D02*
G37*
G36*
X165322D02*
X162678D01*
X160125Y163356D01*
X157835Y162034D01*
X155966Y160165D01*
X154644Y157875D01*
X153960Y155322D01*
Y152678D01*
X154644Y150125D01*
X155966Y147836D01*
X157835Y145966D01*
X160125Y144644D01*
X162678Y143960D01*
X165322D01*
X167875Y144644D01*
X170165Y145966D01*
X172034Y147836D01*
X173356Y150125D01*
X174040Y152678D01*
Y155322D01*
X173356Y157875D01*
X172034Y160165D01*
X170165Y162034D01*
X167875Y163356D01*
X165322Y164040D01*
D02*
G37*
G36*
X129322D02*
X126678D01*
X124125Y163356D01*
X121835Y162034D01*
X119966Y160165D01*
X118644Y157875D01*
X117960Y155322D01*
Y152678D01*
X118644Y150125D01*
X119966Y147836D01*
X121835Y145966D01*
X124125Y144644D01*
X126678Y143960D01*
X129322D01*
X131875Y144644D01*
X134165Y145966D01*
X136034Y147836D01*
X137356Y150125D01*
X138040Y152678D01*
Y155322D01*
X137356Y157875D01*
X136034Y160165D01*
X134165Y162034D01*
X131875Y163356D01*
X129322Y164040D01*
D02*
G37*
G36*
X1221724Y154540D02*
X1219476D01*
X1217304Y153958D01*
X1215356Y152834D01*
X1213766Y151244D01*
X1212642Y149297D01*
X1212060Y147125D01*
Y144876D01*
X1212642Y142704D01*
X1213766Y140757D01*
X1215356Y139166D01*
X1217304Y138042D01*
X1219476Y137460D01*
X1221724D01*
X1223896Y138042D01*
X1225844Y139166D01*
X1227434Y140757D01*
X1228558Y142704D01*
X1229140Y144876D01*
Y147125D01*
X1228558Y149297D01*
X1227434Y151244D01*
X1225844Y152834D01*
X1223896Y153958D01*
X1221724Y154540D01*
D02*
G37*
G36*
X1196324D02*
X1194076D01*
X1191904Y153958D01*
X1189956Y152834D01*
X1188366Y151244D01*
X1187242Y149297D01*
X1186660Y147125D01*
Y144876D01*
X1187242Y142704D01*
X1188366Y140757D01*
X1189956Y139166D01*
X1191904Y138042D01*
X1194076Y137460D01*
X1196324D01*
X1198496Y138042D01*
X1200444Y139166D01*
X1202034Y140757D01*
X1203158Y142704D01*
X1203740Y144876D01*
Y147125D01*
X1203158Y149297D01*
X1202034Y151244D01*
X1200444Y152834D01*
X1198496Y153958D01*
X1196324Y154540D01*
D02*
G37*
G36*
X1170924D02*
X1168676D01*
X1166504Y153958D01*
X1164556Y152834D01*
X1162966Y151244D01*
X1161842Y149297D01*
X1161260Y147125D01*
Y144876D01*
X1161842Y142704D01*
X1162966Y140757D01*
X1164556Y139166D01*
X1166504Y138042D01*
X1168676Y137460D01*
X1170924D01*
X1173096Y138042D01*
X1175044Y139166D01*
X1176634Y140757D01*
X1177758Y142704D01*
X1178340Y144876D01*
Y147125D01*
X1177758Y149297D01*
X1176634Y151244D01*
X1175044Y152834D01*
X1173096Y153958D01*
X1170924Y154540D01*
D02*
G37*
G36*
X973325D02*
X971076D01*
X968904Y153958D01*
X966957Y152834D01*
X965367Y151244D01*
X964242Y149297D01*
X963660Y147125D01*
Y144876D01*
X964242Y142704D01*
X965367Y140757D01*
X966957Y139166D01*
X968904Y138042D01*
X971076Y137460D01*
X973325D01*
X975497Y138042D01*
X977444Y139166D01*
X979034Y140757D01*
X980158Y142704D01*
X980740Y144876D01*
Y147125D01*
X980158Y149297D01*
X979034Y151244D01*
X977444Y152834D01*
X975497Y153958D01*
X973325Y154540D01*
D02*
G37*
G36*
X947924D02*
X945676D01*
X943504Y153958D01*
X941557Y152834D01*
X939967Y151244D01*
X938842Y149297D01*
X938260Y147125D01*
Y144876D01*
X938842Y142704D01*
X939967Y140757D01*
X941557Y139166D01*
X943504Y138042D01*
X945676Y137460D01*
X947924D01*
X950097Y138042D01*
X952044Y139166D01*
X953634Y140757D01*
X954758Y142704D01*
X955340Y144876D01*
Y147125D01*
X954758Y149297D01*
X953634Y151244D01*
X952044Y152834D01*
X950097Y153958D01*
X947924Y154540D01*
D02*
G37*
G36*
X922524D02*
X920276D01*
X918104Y153958D01*
X916157Y152834D01*
X914566Y151244D01*
X913442Y149297D01*
X912860Y147125D01*
Y144876D01*
X913442Y142704D01*
X914566Y140757D01*
X916157Y139166D01*
X918104Y138042D01*
X920276Y137460D01*
X922524D01*
X924697Y138042D01*
X926644Y139166D01*
X928234Y140757D01*
X929358Y142704D01*
X929940Y144876D01*
Y147125D01*
X929358Y149297D01*
X928234Y151244D01*
X926644Y152834D01*
X924697Y153958D01*
X922524Y154540D01*
D02*
G37*
G36*
X723325D02*
X721076D01*
X718904Y153958D01*
X716957Y152834D01*
X715367Y151244D01*
X714242Y149297D01*
X713660Y147125D01*
Y144876D01*
X714242Y142704D01*
X715367Y140757D01*
X716957Y139166D01*
X718904Y138042D01*
X721076Y137460D01*
X723325D01*
X725497Y138042D01*
X727444Y139166D01*
X729034Y140757D01*
X730158Y142704D01*
X730740Y144876D01*
Y147125D01*
X730158Y149297D01*
X729034Y151244D01*
X727444Y152834D01*
X725497Y153958D01*
X723325Y154540D01*
D02*
G37*
G36*
X697924D02*
X695676D01*
X693504Y153958D01*
X691557Y152834D01*
X689967Y151244D01*
X688842Y149297D01*
X688260Y147125D01*
Y144876D01*
X688842Y142704D01*
X689967Y140757D01*
X691557Y139166D01*
X693504Y138042D01*
X695676Y137460D01*
X697924D01*
X700097Y138042D01*
X702044Y139166D01*
X703634Y140757D01*
X704758Y142704D01*
X705340Y144876D01*
Y147125D01*
X704758Y149297D01*
X703634Y151244D01*
X702044Y152834D01*
X700097Y153958D01*
X697924Y154540D01*
D02*
G37*
G36*
X672524D02*
X670276D01*
X668104Y153958D01*
X666157Y152834D01*
X664566Y151244D01*
X663442Y149297D01*
X662860Y147125D01*
Y144876D01*
X663442Y142704D01*
X664566Y140757D01*
X666157Y139166D01*
X668104Y138042D01*
X670276Y137460D01*
X672524D01*
X674697Y138042D01*
X676644Y139166D01*
X678234Y140757D01*
X679358Y142704D01*
X679940Y144876D01*
Y147125D01*
X679358Y149297D01*
X678234Y151244D01*
X676644Y152834D01*
X674697Y153958D01*
X672524Y154540D01*
D02*
G37*
G36*
X447322Y146040D02*
X444678D01*
X442125Y145356D01*
X439836Y144034D01*
X437966Y142165D01*
X436644Y139875D01*
X435960Y137322D01*
Y134678D01*
X436644Y132125D01*
X437966Y129836D01*
X439836Y127966D01*
X442125Y126644D01*
X444678Y125960D01*
X447322D01*
X449875Y126644D01*
X452165Y127966D01*
X454034Y129836D01*
X455356Y132125D01*
X456040Y134678D01*
Y137322D01*
X455356Y139875D01*
X454034Y142165D01*
X452165Y144034D01*
X449875Y145356D01*
X447322Y146040D01*
D02*
G37*
G36*
X147322D02*
X144678D01*
X142125Y145356D01*
X139835Y144034D01*
X137966Y142165D01*
X136644Y139875D01*
X135960Y137322D01*
Y134678D01*
X136644Y132125D01*
X137966Y129836D01*
X139835Y127966D01*
X142125Y126644D01*
X144678Y125960D01*
X147322D01*
X149875Y126644D01*
X152165Y127966D01*
X154034Y129836D01*
X155356Y132125D01*
X156040Y134678D01*
Y137322D01*
X155356Y139875D01*
X154034Y142165D01*
X152165Y144034D01*
X149875Y145356D01*
X147322Y146040D01*
D02*
G37*
G36*
X1196324Y129140D02*
X1194076D01*
X1191904Y128558D01*
X1189956Y127434D01*
X1188366Y125844D01*
X1187242Y123897D01*
X1186660Y121725D01*
Y119476D01*
X1187242Y117304D01*
X1188366Y115357D01*
X1189956Y113766D01*
X1191904Y112642D01*
X1194076Y112060D01*
X1196324D01*
X1198496Y112642D01*
X1200444Y113766D01*
X1202034Y115357D01*
X1203158Y117304D01*
X1203740Y119476D01*
Y121725D01*
X1203158Y123897D01*
X1202034Y125844D01*
X1200444Y127434D01*
X1198496Y128558D01*
X1196324Y129140D01*
D02*
G37*
G36*
X947924D02*
X945676D01*
X943504Y128558D01*
X941557Y127434D01*
X939967Y125844D01*
X938842Y123897D01*
X938260Y121725D01*
Y119476D01*
X938842Y117304D01*
X939967Y115357D01*
X941557Y113766D01*
X943504Y112642D01*
X945676Y112060D01*
X947924D01*
X950097Y112642D01*
X952044Y113766D01*
X953634Y115357D01*
X954758Y117304D01*
X955340Y119476D01*
Y121725D01*
X954758Y123897D01*
X953634Y125844D01*
X952044Y127434D01*
X950097Y128558D01*
X947924Y129140D01*
D02*
G37*
G36*
X697924D02*
X695676D01*
X693504Y128558D01*
X691557Y127434D01*
X689967Y125844D01*
X688842Y123897D01*
X688260Y121725D01*
Y119476D01*
X688842Y117304D01*
X689967Y115357D01*
X691557Y113766D01*
X693504Y112642D01*
X695676Y112060D01*
X697924D01*
X700097Y112642D01*
X702044Y113766D01*
X703634Y115357D01*
X704758Y117304D01*
X705340Y119476D01*
Y121725D01*
X704758Y123897D01*
X703634Y125844D01*
X702044Y127434D01*
X700097Y128558D01*
X697924Y129140D01*
D02*
G37*
G36*
X465322Y128040D02*
X462678D01*
X460125Y127356D01*
X457836Y126034D01*
X455966Y124165D01*
X454644Y121876D01*
X453960Y119322D01*
Y116678D01*
X454644Y114125D01*
X455966Y111836D01*
X457836Y109966D01*
X460125Y108645D01*
X462678Y107960D01*
X465322D01*
X467876Y108645D01*
X470165Y109966D01*
X472034Y111836D01*
X473356Y114125D01*
X474040Y116678D01*
Y119322D01*
X473356Y121876D01*
X472034Y124165D01*
X470165Y126034D01*
X467876Y127356D01*
X465322Y128040D01*
D02*
G37*
G36*
X429322D02*
X426679D01*
X424125Y127356D01*
X421836Y126034D01*
X419966Y124165D01*
X418644Y121876D01*
X417960Y119322D01*
Y116678D01*
X418644Y114125D01*
X419966Y111836D01*
X421836Y109966D01*
X424125Y108645D01*
X426679Y107960D01*
X429322D01*
X431876Y108645D01*
X434165Y109966D01*
X436034Y111836D01*
X437356Y114125D01*
X438040Y116678D01*
Y119322D01*
X437356Y121876D01*
X436034Y124165D01*
X434165Y126034D01*
X431876Y127356D01*
X429322Y128040D01*
D02*
G37*
G36*
X165322D02*
X162678D01*
X160125Y127356D01*
X157835Y126034D01*
X155966Y124165D01*
X154644Y121876D01*
X153960Y119322D01*
Y116678D01*
X154644Y114125D01*
X155966Y111836D01*
X157835Y109966D01*
X160125Y108645D01*
X162678Y107960D01*
X165322D01*
X167875Y108645D01*
X170165Y109966D01*
X172034Y111836D01*
X173356Y114125D01*
X174040Y116678D01*
Y119322D01*
X173356Y121876D01*
X172034Y124165D01*
X170165Y126034D01*
X167875Y127356D01*
X165322Y128040D01*
D02*
G37*
G36*
X129322D02*
X126678D01*
X124125Y127356D01*
X121835Y126034D01*
X119966Y124165D01*
X118644Y121876D01*
X117960Y119322D01*
Y116678D01*
X118644Y114125D01*
X119966Y111836D01*
X121835Y109966D01*
X124125Y108645D01*
X126678Y107960D01*
X129322D01*
X131875Y108645D01*
X134165Y109966D01*
X136034Y111836D01*
X137356Y114125D01*
X138040Y116678D01*
Y119322D01*
X137356Y121876D01*
X136034Y124165D01*
X134165Y126034D01*
X131875Y127356D01*
X129322Y128040D01*
D02*
G37*
G36*
X1247849Y71140D02*
X1244152D01*
X1240581Y70183D01*
X1237379Y68335D01*
X1234765Y65721D01*
X1232917Y62519D01*
X1231960Y58949D01*
Y55252D01*
X1232917Y51681D01*
X1234765Y48479D01*
X1237379Y45865D01*
X1240581Y44017D01*
X1244152Y43060D01*
X1247849D01*
X1251419Y44017D01*
X1254621Y45865D01*
X1257235Y48479D01*
X1259083Y51681D01*
X1260040Y55252D01*
Y58949D01*
X1259083Y62519D01*
X1257235Y65721D01*
X1254621Y68335D01*
X1251419Y70183D01*
X1247849Y71140D01*
D02*
G37*
G36*
X1146248D02*
X1142552D01*
X1138981Y70183D01*
X1135779Y68335D01*
X1133165Y65721D01*
X1131317Y62519D01*
X1130360Y58949D01*
Y55252D01*
X1131317Y51681D01*
X1133165Y48479D01*
X1135779Y45865D01*
X1138981Y44017D01*
X1142552Y43060D01*
X1146248D01*
X1149819Y44017D01*
X1153021Y45865D01*
X1155635Y48479D01*
X1157483Y51681D01*
X1158440Y55252D01*
Y58949D01*
X1157483Y62519D01*
X1155635Y65721D01*
X1153021Y68335D01*
X1149819Y70183D01*
X1146248Y71140D01*
D02*
G37*
G36*
X999449D02*
X995752D01*
X992181Y70183D01*
X988979Y68335D01*
X986365Y65721D01*
X984517Y62519D01*
X983560Y58949D01*
Y55252D01*
X984517Y51681D01*
X986365Y48479D01*
X988979Y45865D01*
X992181Y44017D01*
X995752Y43060D01*
X999449D01*
X1003019Y44017D01*
X1006221Y45865D01*
X1008835Y48479D01*
X1010683Y51681D01*
X1011640Y55252D01*
Y58949D01*
X1010683Y62519D01*
X1008835Y65721D01*
X1006221Y68335D01*
X1003019Y70183D01*
X999449Y71140D01*
D02*
G37*
G36*
X897849D02*
X894152D01*
X890581Y70183D01*
X887380Y68335D01*
X884765Y65721D01*
X882917Y62519D01*
X881960Y58949D01*
Y55252D01*
X882917Y51681D01*
X884765Y48479D01*
X887380Y45865D01*
X890581Y44017D01*
X894152Y43060D01*
X897849D01*
X901420Y44017D01*
X904621Y45865D01*
X907235Y48479D01*
X909083Y51681D01*
X910040Y55252D01*
Y58949D01*
X909083Y62519D01*
X907235Y65721D01*
X904621Y68335D01*
X901420Y70183D01*
X897849Y71140D01*
D02*
G37*
G36*
X749449D02*
X745752D01*
X742181Y70183D01*
X738979Y68335D01*
X736365Y65721D01*
X734517Y62519D01*
X733560Y58949D01*
Y55252D01*
X734517Y51681D01*
X736365Y48479D01*
X738979Y45865D01*
X742181Y44017D01*
X745752Y43060D01*
X749449D01*
X753019Y44017D01*
X756221Y45865D01*
X758835Y48479D01*
X760683Y51681D01*
X761640Y55252D01*
Y58949D01*
X760683Y62519D01*
X758835Y65721D01*
X756221Y68335D01*
X753019Y70183D01*
X749449Y71140D01*
D02*
G37*
G36*
X647849D02*
X644152D01*
X640581Y70183D01*
X637379Y68335D01*
X634765Y65721D01*
X632917Y62519D01*
X631960Y58949D01*
Y55252D01*
X632917Y51681D01*
X634765Y48479D01*
X637379Y45865D01*
X640581Y44017D01*
X644152Y43060D01*
X647849D01*
X651420Y44017D01*
X654621Y45865D01*
X657235Y48479D01*
X659083Y51681D01*
X660040Y55252D01*
Y58949D01*
X659083Y62519D01*
X657235Y65721D01*
X654621Y68335D01*
X651420Y70183D01*
X647849Y71140D01*
D02*
G37*
G36*
X447388Y46540D02*
X447270D01*
Y37270D01*
X456540D01*
Y37388D01*
X455822Y40068D01*
X454434Y42472D01*
X452472Y44434D01*
X450069Y45822D01*
X447388Y46540D01*
D02*
G37*
G36*
X444730D02*
X444613D01*
X441932Y45822D01*
X439529Y44434D01*
X437566Y42472D01*
X436179Y40068D01*
X435460Y37388D01*
Y37270D01*
X444730D01*
Y46540D01*
D02*
G37*
G36*
X147388D02*
X147270D01*
Y37270D01*
X156540D01*
Y37388D01*
X155822Y40068D01*
X154434Y42472D01*
X152472Y44434D01*
X150068Y45822D01*
X147388Y46540D01*
D02*
G37*
G36*
X144730D02*
X144613D01*
X141932Y45822D01*
X139528Y44434D01*
X137566Y42472D01*
X136178Y40068D01*
X135460Y37388D01*
Y37270D01*
X144730D01*
Y46540D01*
D02*
G37*
G36*
X522651Y58540D02*
X519349D01*
X516160Y57685D01*
X513300Y56034D01*
X510965Y53700D01*
X509314Y50840D01*
X508460Y47651D01*
Y44349D01*
X509314Y41160D01*
X510965Y38300D01*
X513300Y35965D01*
X516160Y34314D01*
X519349Y33460D01*
X522651D01*
X525840Y34314D01*
X528700Y35965D01*
X531034Y38300D01*
X532685Y41160D01*
X533540Y44349D01*
Y47651D01*
X532685Y50840D01*
X531034Y53700D01*
X528700Y56034D01*
X525840Y57685D01*
X522651Y58540D01*
D02*
G37*
G36*
X372651D02*
X369349D01*
X366160Y57685D01*
X363300Y56034D01*
X360966Y53700D01*
X359315Y50840D01*
X358460Y47651D01*
Y44349D01*
X359315Y41160D01*
X360966Y38300D01*
X363300Y35965D01*
X366160Y34314D01*
X369349Y33460D01*
X372651D01*
X375840Y34314D01*
X378700Y35965D01*
X381035Y38300D01*
X382686Y41160D01*
X383540Y44349D01*
Y47651D01*
X382686Y50840D01*
X381035Y53700D01*
X378700Y56034D01*
X375840Y57685D01*
X372651Y58540D01*
D02*
G37*
G36*
X222651D02*
X219349D01*
X216160Y57685D01*
X213300Y56034D01*
X210966Y53700D01*
X209315Y50840D01*
X208460Y47651D01*
Y44349D01*
X209315Y41160D01*
X210966Y38300D01*
X213300Y35965D01*
X216160Y34314D01*
X219349Y33460D01*
X222651D01*
X225840Y34314D01*
X228700Y35965D01*
X231035Y38300D01*
X232686Y41160D01*
X233540Y44349D01*
Y47651D01*
X232686Y50840D01*
X231035Y53700D01*
X228700Y56034D01*
X225840Y57685D01*
X222651Y58540D01*
D02*
G37*
G36*
X72651D02*
X69349D01*
X66160Y57685D01*
X63300Y56034D01*
X60965Y53700D01*
X59315Y50840D01*
X58460Y47651D01*
Y44349D01*
X59315Y41160D01*
X60965Y38300D01*
X63300Y35965D01*
X66160Y34314D01*
X69349Y33460D01*
X72651D01*
X75840Y34314D01*
X78700Y35965D01*
X81034Y38300D01*
X82685Y41160D01*
X83540Y44349D01*
Y47651D01*
X82685Y50840D01*
X81034Y53700D01*
X78700Y56034D01*
X75840Y57685D01*
X72651Y58540D01*
D02*
G37*
G36*
X456540Y34730D02*
X447270D01*
Y25460D01*
X447388D01*
X450069Y26178D01*
X452472Y27566D01*
X454434Y29528D01*
X455822Y31932D01*
X456540Y34612D01*
Y34730D01*
D02*
G37*
G36*
X444730D02*
X435460D01*
Y34612D01*
X436179Y31932D01*
X437566Y29528D01*
X439529Y27566D01*
X441932Y26178D01*
X444613Y25460D01*
X444730D01*
Y34730D01*
D02*
G37*
G36*
X156540D02*
X147270D01*
Y25460D01*
X147388D01*
X150068Y26178D01*
X152472Y27566D01*
X154434Y29528D01*
X155822Y31932D01*
X156540Y34612D01*
Y34730D01*
D02*
G37*
G36*
X144730D02*
X135460D01*
Y34612D01*
X136178Y31932D01*
X137566Y29528D01*
X139528Y27566D01*
X141932Y26178D01*
X144613Y25460D01*
X144730D01*
Y34730D01*
D02*
G37*
%LPD*%
D28*
X40000Y660000D02*
D03*
X1260000D02*
D03*
D29*
X446000Y36000D02*
D03*
X146000D02*
D03*
D30*
X722200Y146000D02*
D03*
X946800D02*
D03*
X1169800D02*
D03*
X1220600D02*
D03*
X696800Y120600D02*
D03*
Y146000D02*
D03*
X921400D02*
D03*
X1195200Y120600D02*
D03*
X972200Y146000D02*
D03*
X1195200D02*
D03*
X671400D02*
D03*
X946800Y120600D02*
D03*
D31*
X146000Y136000D02*
D03*
X428000Y118000D02*
D03*
X128000D02*
D03*
X428000Y154000D02*
D03*
X446000Y136000D02*
D03*
X128000Y154000D02*
D03*
X464000D02*
D03*
Y118000D02*
D03*
X164000Y154000D02*
D03*
Y118000D02*
D03*
D32*
X371000Y46000D02*
D03*
X521000D02*
D03*
X71000D02*
D03*
X221000D02*
D03*
D33*
X1144400Y57100D02*
D03*
X1246000D02*
D03*
X896000D02*
D03*
X997600D02*
D03*
X646000D02*
D03*
X747600D02*
D03*
D34*
X1290999Y676000D02*
D03*
Y646000D02*
D03*
Y616000D02*
D03*
Y586000D02*
D03*
Y556000D02*
D03*
Y526000D02*
D03*
Y496000D02*
D03*
Y466000D02*
D03*
Y436000D02*
D03*
Y406000D02*
D03*
Y376000D02*
D03*
Y346000D02*
D03*
Y316000D02*
D03*
Y286000D02*
D03*
Y256000D02*
D03*
Y226000D02*
D03*
Y196000D02*
D03*
Y166000D02*
D03*
Y136000D02*
D03*
Y106000D02*
D03*
Y76000D02*
D03*
Y46000D02*
D03*
Y16000D02*
D03*
X1283499Y691000D02*
D03*
X1276000Y676000D02*
D03*
X1283499Y661000D02*
D03*
X1276000Y646000D02*
D03*
X1283499Y631000D02*
D03*
X1276000Y616000D02*
D03*
X1283499Y601000D02*
D03*
X1276000Y586000D02*
D03*
X1283499Y571000D02*
D03*
X1276000Y556000D02*
D03*
X1283499Y541000D02*
D03*
X1276000Y526000D02*
D03*
X1283499Y511000D02*
D03*
X1276000Y496000D02*
D03*
X1283499Y481000D02*
D03*
X1276000Y466000D02*
D03*
X1283499Y451000D02*
D03*
X1276000Y436000D02*
D03*
X1283499Y421000D02*
D03*
X1276000Y406000D02*
D03*
X1283499Y391000D02*
D03*
X1276000Y376000D02*
D03*
X1283499Y361000D02*
D03*
X1276000Y346000D02*
D03*
X1283499Y331000D02*
D03*
X1276000Y316000D02*
D03*
X1283499Y301000D02*
D03*
X1276000Y286000D02*
D03*
X1283499Y271000D02*
D03*
X1276000Y256000D02*
D03*
X1283499Y241000D02*
D03*
X1276000Y226000D02*
D03*
X1283499Y211000D02*
D03*
X1276000Y196000D02*
D03*
X1283499Y181000D02*
D03*
X1276000Y166000D02*
D03*
X1283499Y151000D02*
D03*
X1276000Y136000D02*
D03*
X1283499Y121000D02*
D03*
X1276000Y106000D02*
D03*
X1283499Y91000D02*
D03*
X1276000Y76000D02*
D03*
X1283499Y61000D02*
D03*
X1276000Y46000D02*
D03*
X1283499Y31000D02*
D03*
X1276000Y16000D02*
D03*
X1268500Y691000D02*
D03*
Y631000D02*
D03*
X1261000Y616000D02*
D03*
X1268500Y601000D02*
D03*
X1261000Y586000D02*
D03*
X1268500Y571000D02*
D03*
X1261000Y556000D02*
D03*
X1268500Y541000D02*
D03*
X1261000Y526000D02*
D03*
X1268500Y511000D02*
D03*
X1261000Y496000D02*
D03*
X1268500Y481000D02*
D03*
X1261000Y466000D02*
D03*
X1268500Y451000D02*
D03*
X1261000Y436000D02*
D03*
X1268500Y421000D02*
D03*
X1261000Y406000D02*
D03*
X1268500Y391000D02*
D03*
X1261000Y376000D02*
D03*
X1268500Y361000D02*
D03*
X1261000Y346000D02*
D03*
X1268500Y331000D02*
D03*
X1261000Y316000D02*
D03*
X1268500Y301000D02*
D03*
X1261000Y286000D02*
D03*
X1268500Y271000D02*
D03*
X1261000Y256000D02*
D03*
X1268500Y241000D02*
D03*
X1261000Y226000D02*
D03*
X1268500Y211000D02*
D03*
X1261000Y196000D02*
D03*
X1268500Y181000D02*
D03*
Y151000D02*
D03*
Y121000D02*
D03*
X1261000Y106000D02*
D03*
X1268500Y91000D02*
D03*
X1261000Y76000D02*
D03*
X1268500Y61000D02*
D03*
Y31000D02*
D03*
X1261000Y16000D02*
D03*
X1253500Y691000D02*
D03*
X1246000Y676000D02*
D03*
X1253500Y631000D02*
D03*
X1246000Y616000D02*
D03*
X1253500Y601000D02*
D03*
X1246000Y586000D02*
D03*
X1253500Y571000D02*
D03*
X1246000Y556000D02*
D03*
X1253500Y541000D02*
D03*
X1246000Y526000D02*
D03*
X1253500Y511000D02*
D03*
X1246000Y496000D02*
D03*
X1253500Y481000D02*
D03*
X1246000Y466000D02*
D03*
X1253500Y451000D02*
D03*
X1246000Y436000D02*
D03*
X1253500Y421000D02*
D03*
X1246000Y406000D02*
D03*
X1253500Y391000D02*
D03*
X1246000Y376000D02*
D03*
X1253500Y361000D02*
D03*
X1246000Y346000D02*
D03*
X1253500Y331000D02*
D03*
X1246000Y316000D02*
D03*
X1253500Y301000D02*
D03*
X1246000Y286000D02*
D03*
X1253500Y271000D02*
D03*
X1246000Y256000D02*
D03*
X1253500Y241000D02*
D03*
X1246000Y226000D02*
D03*
X1253500Y211000D02*
D03*
X1246000Y196000D02*
D03*
X1253500Y181000D02*
D03*
X1246000Y106000D02*
D03*
X1253500Y91000D02*
D03*
Y31000D02*
D03*
X1246000Y16000D02*
D03*
X1238500Y691000D02*
D03*
X1231000Y676000D02*
D03*
X1238500Y661000D02*
D03*
X1231000Y646000D02*
D03*
X1238500Y631000D02*
D03*
X1231000Y616000D02*
D03*
X1238500Y601000D02*
D03*
X1231000Y586000D02*
D03*
X1238500Y571000D02*
D03*
X1231000Y556000D02*
D03*
X1238500Y541000D02*
D03*
X1231000Y526000D02*
D03*
X1238500Y511000D02*
D03*
X1231000Y496000D02*
D03*
X1238500Y481000D02*
D03*
X1231000Y466000D02*
D03*
X1238500Y451000D02*
D03*
X1231000Y436000D02*
D03*
X1238500Y421000D02*
D03*
Y391000D02*
D03*
Y361000D02*
D03*
Y331000D02*
D03*
Y301000D02*
D03*
Y271000D02*
D03*
Y241000D02*
D03*
Y211000D02*
D03*
Y151000D02*
D03*
X1231000Y136000D02*
D03*
X1238500Y91000D02*
D03*
X1231000Y76000D02*
D03*
X1238500Y31000D02*
D03*
X1231000Y16000D02*
D03*
X1223500Y691000D02*
D03*
X1216000Y676000D02*
D03*
X1223500Y661000D02*
D03*
X1216000Y646000D02*
D03*
X1223500Y631000D02*
D03*
X1216000Y616000D02*
D03*
X1223500Y601000D02*
D03*
X1216000Y586000D02*
D03*
X1223500Y571000D02*
D03*
X1216000Y556000D02*
D03*
X1223500Y541000D02*
D03*
X1216000Y526000D02*
D03*
X1223500Y511000D02*
D03*
X1216000Y496000D02*
D03*
X1223500Y481000D02*
D03*
X1216000Y466000D02*
D03*
X1223500Y451000D02*
D03*
X1216000Y436000D02*
D03*
X1223500Y121000D02*
D03*
X1216000Y76000D02*
D03*
X1223500Y61000D02*
D03*
X1216000Y46000D02*
D03*
X1223500Y31000D02*
D03*
X1216000Y16000D02*
D03*
X1208500Y691000D02*
D03*
X1201000Y676000D02*
D03*
X1208500Y661000D02*
D03*
X1201000Y646000D02*
D03*
X1208500Y631000D02*
D03*
X1201000Y616000D02*
D03*
X1208500Y601000D02*
D03*
X1201000Y586000D02*
D03*
X1208500Y571000D02*
D03*
X1201000Y556000D02*
D03*
X1208500Y541000D02*
D03*
X1201000Y526000D02*
D03*
X1208500Y511000D02*
D03*
X1201000Y496000D02*
D03*
X1208500Y481000D02*
D03*
X1201000Y466000D02*
D03*
X1208500Y451000D02*
D03*
X1201000Y406000D02*
D03*
X1208500Y391000D02*
D03*
X1201000Y376000D02*
D03*
X1208500Y361000D02*
D03*
X1201000Y346000D02*
D03*
X1208500Y331000D02*
D03*
X1201000Y316000D02*
D03*
X1208500Y301000D02*
D03*
X1201000Y286000D02*
D03*
X1208500Y271000D02*
D03*
X1201000Y256000D02*
D03*
X1208500Y241000D02*
D03*
X1201000Y226000D02*
D03*
X1208500Y211000D02*
D03*
X1201000Y196000D02*
D03*
Y106000D02*
D03*
Y76000D02*
D03*
X1208500Y61000D02*
D03*
X1201000Y46000D02*
D03*
X1208500Y31000D02*
D03*
X1201000Y16000D02*
D03*
X1193500Y691000D02*
D03*
X1186000Y676000D02*
D03*
X1193500Y661000D02*
D03*
X1186000Y646000D02*
D03*
X1193500Y631000D02*
D03*
X1186000Y616000D02*
D03*
X1193500Y601000D02*
D03*
X1186000Y586000D02*
D03*
X1193500Y571000D02*
D03*
X1186000Y556000D02*
D03*
X1193500Y541000D02*
D03*
X1186000Y526000D02*
D03*
X1193500Y511000D02*
D03*
X1186000Y496000D02*
D03*
X1193500Y481000D02*
D03*
X1186000Y466000D02*
D03*
X1193500Y421000D02*
D03*
X1186000Y406000D02*
D03*
X1193500Y391000D02*
D03*
X1186000Y376000D02*
D03*
X1193500Y361000D02*
D03*
X1186000Y346000D02*
D03*
X1193500Y331000D02*
D03*
X1186000Y316000D02*
D03*
X1193500Y301000D02*
D03*
X1186000Y286000D02*
D03*
X1193500Y271000D02*
D03*
X1186000Y256000D02*
D03*
X1193500Y241000D02*
D03*
X1186000Y226000D02*
D03*
X1193500Y211000D02*
D03*
X1186000Y196000D02*
D03*
X1193500Y181000D02*
D03*
X1186000Y166000D02*
D03*
Y76000D02*
D03*
X1193500Y61000D02*
D03*
X1186000Y46000D02*
D03*
X1193500Y31000D02*
D03*
X1186000Y16000D02*
D03*
X1178500Y691000D02*
D03*
X1171000Y676000D02*
D03*
X1178500Y661000D02*
D03*
X1171000Y646000D02*
D03*
X1178500Y631000D02*
D03*
X1171000Y616000D02*
D03*
X1178500Y601000D02*
D03*
X1171000Y586000D02*
D03*
X1178500Y571000D02*
D03*
X1171000Y556000D02*
D03*
X1178500Y541000D02*
D03*
X1171000Y526000D02*
D03*
X1178500Y511000D02*
D03*
X1171000Y496000D02*
D03*
X1178500Y481000D02*
D03*
X1171000Y436000D02*
D03*
X1178500Y421000D02*
D03*
Y121000D02*
D03*
X1171000Y76000D02*
D03*
X1178500Y61000D02*
D03*
X1171000Y46000D02*
D03*
X1178500Y31000D02*
D03*
X1171000Y16000D02*
D03*
X1163500Y691000D02*
D03*
X1156000Y676000D02*
D03*
X1163500Y661000D02*
D03*
X1156000Y646000D02*
D03*
X1163500Y631000D02*
D03*
X1156000Y616000D02*
D03*
X1163500Y601000D02*
D03*
X1156000Y586000D02*
D03*
X1163500Y571000D02*
D03*
X1156000Y556000D02*
D03*
X1163500Y541000D02*
D03*
X1156000Y526000D02*
D03*
X1163500Y511000D02*
D03*
X1156000Y496000D02*
D03*
X1163500Y451000D02*
D03*
X1156000Y436000D02*
D03*
Y376000D02*
D03*
Y346000D02*
D03*
Y316000D02*
D03*
Y286000D02*
D03*
Y256000D02*
D03*
Y226000D02*
D03*
Y196000D02*
D03*
Y166000D02*
D03*
Y136000D02*
D03*
X1163500Y121000D02*
D03*
X1156000Y76000D02*
D03*
X1163500Y31000D02*
D03*
X1156000Y16000D02*
D03*
X1148500Y691000D02*
D03*
X1141000Y676000D02*
D03*
X1148500Y661000D02*
D03*
X1141000Y646000D02*
D03*
X1148500Y631000D02*
D03*
X1141000Y616000D02*
D03*
X1148500Y601000D02*
D03*
X1141000Y586000D02*
D03*
X1148500Y571000D02*
D03*
X1141000Y556000D02*
D03*
X1148500Y541000D02*
D03*
X1141000Y526000D02*
D03*
X1148500Y511000D02*
D03*
X1141000Y496000D02*
D03*
Y466000D02*
D03*
X1148500Y451000D02*
D03*
X1141000Y406000D02*
D03*
X1148500Y391000D02*
D03*
X1141000Y376000D02*
D03*
X1148500Y361000D02*
D03*
X1141000Y346000D02*
D03*
X1148500Y331000D02*
D03*
X1141000Y316000D02*
D03*
X1148500Y301000D02*
D03*
X1141000Y286000D02*
D03*
X1148500Y271000D02*
D03*
X1141000Y256000D02*
D03*
X1148500Y241000D02*
D03*
X1141000Y226000D02*
D03*
X1148500Y211000D02*
D03*
X1141000Y196000D02*
D03*
X1148500Y181000D02*
D03*
X1141000Y166000D02*
D03*
X1148500Y151000D02*
D03*
X1141000Y136000D02*
D03*
X1148500Y121000D02*
D03*
Y31000D02*
D03*
X1141000Y16000D02*
D03*
X1133500Y691000D02*
D03*
X1126000Y676000D02*
D03*
X1133500Y661000D02*
D03*
X1126000Y646000D02*
D03*
X1133500Y631000D02*
D03*
X1126000Y616000D02*
D03*
X1133500Y601000D02*
D03*
X1126000Y586000D02*
D03*
X1133500Y571000D02*
D03*
X1126000Y556000D02*
D03*
X1133500Y541000D02*
D03*
X1126000Y526000D02*
D03*
X1133500Y511000D02*
D03*
X1126000Y496000D02*
D03*
Y466000D02*
D03*
X1133500Y421000D02*
D03*
X1126000Y406000D02*
D03*
X1133500Y391000D02*
D03*
X1126000Y376000D02*
D03*
X1133500Y361000D02*
D03*
X1126000Y346000D02*
D03*
X1133500Y331000D02*
D03*
X1126000Y316000D02*
D03*
X1133500Y301000D02*
D03*
X1126000Y286000D02*
D03*
X1133500Y271000D02*
D03*
X1126000Y256000D02*
D03*
X1133500Y241000D02*
D03*
X1126000Y226000D02*
D03*
X1133500Y211000D02*
D03*
X1126000Y196000D02*
D03*
X1133500Y181000D02*
D03*
X1126000Y166000D02*
D03*
X1133500Y151000D02*
D03*
X1126000Y136000D02*
D03*
X1133500Y121000D02*
D03*
X1126000Y76000D02*
D03*
Y46000D02*
D03*
X1133500Y31000D02*
D03*
X1126000Y16000D02*
D03*
X1118500Y691000D02*
D03*
X1111000Y676000D02*
D03*
X1118500Y661000D02*
D03*
X1111000Y646000D02*
D03*
X1118500Y631000D02*
D03*
X1111000Y616000D02*
D03*
X1118500Y601000D02*
D03*
X1111000Y586000D02*
D03*
X1118500Y571000D02*
D03*
X1111000Y556000D02*
D03*
X1118500Y541000D02*
D03*
X1111000Y526000D02*
D03*
X1118500Y511000D02*
D03*
X1111000Y496000D02*
D03*
Y436000D02*
D03*
X1118500Y421000D02*
D03*
X1111000Y406000D02*
D03*
X1118500Y391000D02*
D03*
X1111000Y376000D02*
D03*
X1118500Y361000D02*
D03*
X1111000Y346000D02*
D03*
X1118500Y331000D02*
D03*
X1111000Y316000D02*
D03*
X1118500Y301000D02*
D03*
X1111000Y286000D02*
D03*
X1118500Y271000D02*
D03*
X1111000Y256000D02*
D03*
X1118500Y241000D02*
D03*
X1111000Y226000D02*
D03*
X1118500Y211000D02*
D03*
X1111000Y196000D02*
D03*
X1118500Y181000D02*
D03*
X1111000Y166000D02*
D03*
X1118500Y151000D02*
D03*
X1111000Y136000D02*
D03*
X1118500Y121000D02*
D03*
X1111000Y76000D02*
D03*
X1118500Y61000D02*
D03*
X1111000Y46000D02*
D03*
X1118500Y31000D02*
D03*
X1111000Y16000D02*
D03*
X1103500Y691000D02*
D03*
X1096000Y676000D02*
D03*
X1103500Y661000D02*
D03*
X1096000Y646000D02*
D03*
X1103500Y631000D02*
D03*
X1096000Y616000D02*
D03*
X1103500Y601000D02*
D03*
X1096000Y586000D02*
D03*
X1103500Y571000D02*
D03*
X1096000Y556000D02*
D03*
X1103500Y541000D02*
D03*
X1096000Y526000D02*
D03*
X1103500Y511000D02*
D03*
X1096000Y496000D02*
D03*
Y436000D02*
D03*
X1103500Y421000D02*
D03*
X1096000Y406000D02*
D03*
X1103500Y391000D02*
D03*
X1096000Y376000D02*
D03*
X1103500Y361000D02*
D03*
X1096000Y346000D02*
D03*
X1103500Y331000D02*
D03*
X1096000Y316000D02*
D03*
X1103500Y301000D02*
D03*
X1096000Y286000D02*
D03*
X1103500Y271000D02*
D03*
X1096000Y256000D02*
D03*
X1103500Y241000D02*
D03*
X1096000Y226000D02*
D03*
X1103500Y211000D02*
D03*
X1096000Y196000D02*
D03*
X1103500Y181000D02*
D03*
X1096000Y166000D02*
D03*
X1103500Y151000D02*
D03*
X1096000Y136000D02*
D03*
X1103500Y121000D02*
D03*
X1096000Y76000D02*
D03*
X1103500Y61000D02*
D03*
X1096000Y46000D02*
D03*
X1103500Y31000D02*
D03*
X1096000Y16000D02*
D03*
X1088500Y691000D02*
D03*
X1081000Y676000D02*
D03*
X1088500Y661000D02*
D03*
X1081000Y646000D02*
D03*
X1088500Y631000D02*
D03*
X1081000Y616000D02*
D03*
X1088500Y601000D02*
D03*
X1081000Y586000D02*
D03*
X1088500Y571000D02*
D03*
X1081000Y556000D02*
D03*
X1088500Y541000D02*
D03*
X1081000Y526000D02*
D03*
X1088500Y511000D02*
D03*
X1081000Y496000D02*
D03*
Y436000D02*
D03*
X1088500Y421000D02*
D03*
X1081000Y406000D02*
D03*
X1088500Y391000D02*
D03*
X1081000Y376000D02*
D03*
X1088500Y361000D02*
D03*
X1081000Y346000D02*
D03*
X1088500Y331000D02*
D03*
X1081000Y316000D02*
D03*
X1088500Y301000D02*
D03*
X1081000Y286000D02*
D03*
X1088500Y271000D02*
D03*
X1081000Y256000D02*
D03*
X1088500Y241000D02*
D03*
X1081000Y226000D02*
D03*
X1088500Y211000D02*
D03*
X1081000Y196000D02*
D03*
X1088500Y181000D02*
D03*
X1081000Y166000D02*
D03*
X1088500Y151000D02*
D03*
X1081000Y136000D02*
D03*
X1088500Y121000D02*
D03*
X1081000Y76000D02*
D03*
X1088500Y61000D02*
D03*
X1081000Y46000D02*
D03*
X1088500Y31000D02*
D03*
X1081000Y16000D02*
D03*
X1073500Y691000D02*
D03*
X1066000Y676000D02*
D03*
X1073500Y661000D02*
D03*
X1066000Y646000D02*
D03*
X1073500Y631000D02*
D03*
X1066000Y616000D02*
D03*
X1073500Y601000D02*
D03*
X1066000Y586000D02*
D03*
X1073500Y571000D02*
D03*
X1066000Y556000D02*
D03*
X1073500Y541000D02*
D03*
X1066000Y526000D02*
D03*
X1073500Y511000D02*
D03*
X1066000Y496000D02*
D03*
Y436000D02*
D03*
X1073500Y421000D02*
D03*
X1066000Y406000D02*
D03*
X1073500Y391000D02*
D03*
X1066000Y376000D02*
D03*
X1073500Y361000D02*
D03*
X1066000Y346000D02*
D03*
X1073500Y331000D02*
D03*
X1066000Y316000D02*
D03*
X1073500Y301000D02*
D03*
X1066000Y286000D02*
D03*
X1073500Y271000D02*
D03*
X1066000Y256000D02*
D03*
X1073500Y241000D02*
D03*
X1066000Y226000D02*
D03*
X1073500Y211000D02*
D03*
X1066000Y196000D02*
D03*
X1073500Y181000D02*
D03*
X1066000Y166000D02*
D03*
X1073500Y151000D02*
D03*
X1066000Y136000D02*
D03*
X1073500Y121000D02*
D03*
X1066000Y76000D02*
D03*
X1073500Y61000D02*
D03*
X1066000Y46000D02*
D03*
X1073500Y31000D02*
D03*
X1066000Y16000D02*
D03*
X1058500Y691000D02*
D03*
X1051000Y676000D02*
D03*
X1058500Y661000D02*
D03*
X1051000Y646000D02*
D03*
X1058500Y631000D02*
D03*
X1051000Y616000D02*
D03*
X1058500Y601000D02*
D03*
X1051000Y586000D02*
D03*
X1058500Y571000D02*
D03*
X1051000Y556000D02*
D03*
X1058500Y541000D02*
D03*
X1051000Y526000D02*
D03*
X1058500Y511000D02*
D03*
X1051000Y496000D02*
D03*
Y436000D02*
D03*
X1058500Y421000D02*
D03*
X1051000Y406000D02*
D03*
X1058500Y391000D02*
D03*
X1051000Y376000D02*
D03*
X1058500Y361000D02*
D03*
X1051000Y346000D02*
D03*
X1058500Y331000D02*
D03*
X1051000Y316000D02*
D03*
X1058500Y301000D02*
D03*
X1051000Y286000D02*
D03*
X1058500Y271000D02*
D03*
X1051000Y256000D02*
D03*
X1058500Y241000D02*
D03*
X1051000Y226000D02*
D03*
X1058500Y211000D02*
D03*
X1051000Y196000D02*
D03*
X1058500Y181000D02*
D03*
X1051000Y166000D02*
D03*
X1058500Y151000D02*
D03*
X1051000Y136000D02*
D03*
X1058500Y121000D02*
D03*
X1051000Y76000D02*
D03*
X1058500Y61000D02*
D03*
X1051000Y46000D02*
D03*
X1058500Y31000D02*
D03*
X1051000Y16000D02*
D03*
X1043500Y691000D02*
D03*
X1036000Y676000D02*
D03*
X1043500Y661000D02*
D03*
X1036000Y646000D02*
D03*
X1043500Y631000D02*
D03*
X1036000Y616000D02*
D03*
X1043500Y601000D02*
D03*
X1036000Y586000D02*
D03*
X1043500Y571000D02*
D03*
X1036000Y556000D02*
D03*
X1043500Y541000D02*
D03*
X1036000Y526000D02*
D03*
X1043500Y511000D02*
D03*
X1036000Y496000D02*
D03*
Y436000D02*
D03*
X1043500Y421000D02*
D03*
X1036000Y406000D02*
D03*
X1043500Y391000D02*
D03*
X1036000Y376000D02*
D03*
X1043500Y361000D02*
D03*
X1036000Y346000D02*
D03*
X1043500Y331000D02*
D03*
X1036000Y316000D02*
D03*
X1043500Y301000D02*
D03*
X1036000Y286000D02*
D03*
X1043500Y271000D02*
D03*
X1036000Y256000D02*
D03*
X1043500Y241000D02*
D03*
X1036000Y226000D02*
D03*
X1043500Y211000D02*
D03*
X1036000Y196000D02*
D03*
X1043500Y181000D02*
D03*
X1036000Y166000D02*
D03*
X1043500Y151000D02*
D03*
X1036000Y136000D02*
D03*
X1043500Y121000D02*
D03*
X1036000Y76000D02*
D03*
X1043500Y61000D02*
D03*
X1036000Y46000D02*
D03*
X1043500Y31000D02*
D03*
X1036000Y16000D02*
D03*
X1028500Y691000D02*
D03*
X1021000Y676000D02*
D03*
X1028500Y661000D02*
D03*
X1021000Y646000D02*
D03*
X1028500Y631000D02*
D03*
X1021000Y616000D02*
D03*
X1028500Y601000D02*
D03*
X1021000Y586000D02*
D03*
X1028500Y571000D02*
D03*
X1021000Y556000D02*
D03*
X1028500Y541000D02*
D03*
X1021000Y526000D02*
D03*
X1028500Y511000D02*
D03*
X1021000Y496000D02*
D03*
Y436000D02*
D03*
X1028500Y421000D02*
D03*
X1021000Y406000D02*
D03*
X1028500Y391000D02*
D03*
X1021000Y376000D02*
D03*
X1028500Y361000D02*
D03*
X1021000Y346000D02*
D03*
X1028500Y331000D02*
D03*
X1021000Y316000D02*
D03*
X1028500Y301000D02*
D03*
X1021000Y286000D02*
D03*
X1028500Y271000D02*
D03*
X1021000Y256000D02*
D03*
X1028500Y241000D02*
D03*
X1021000Y226000D02*
D03*
X1028500Y211000D02*
D03*
X1021000Y196000D02*
D03*
X1028500Y181000D02*
D03*
X1021000Y166000D02*
D03*
X1028500Y151000D02*
D03*
X1021000Y136000D02*
D03*
X1028500Y121000D02*
D03*
X1021000Y76000D02*
D03*
X1028500Y61000D02*
D03*
X1021000Y46000D02*
D03*
X1028500Y31000D02*
D03*
X1021000Y16000D02*
D03*
X1013500Y691000D02*
D03*
X1006000Y676000D02*
D03*
X1013500Y661000D02*
D03*
X1006000Y646000D02*
D03*
X1013500Y631000D02*
D03*
X1006000Y616000D02*
D03*
X1013500Y601000D02*
D03*
X1006000Y586000D02*
D03*
X1013500Y571000D02*
D03*
X1006000Y556000D02*
D03*
X1013500Y541000D02*
D03*
X1006000Y526000D02*
D03*
X1013500Y511000D02*
D03*
X1006000Y496000D02*
D03*
Y436000D02*
D03*
X1013500Y421000D02*
D03*
X1006000Y406000D02*
D03*
X1013500Y391000D02*
D03*
X1006000Y376000D02*
D03*
X1013500Y361000D02*
D03*
X1006000Y346000D02*
D03*
X1013500Y331000D02*
D03*
X1006000Y316000D02*
D03*
X1013500Y301000D02*
D03*
X1006000Y286000D02*
D03*
X1013500Y271000D02*
D03*
X1006000Y256000D02*
D03*
X1013500Y241000D02*
D03*
X1006000Y226000D02*
D03*
X1013500Y211000D02*
D03*
X1006000Y196000D02*
D03*
X1013500Y181000D02*
D03*
X1006000Y166000D02*
D03*
X1013500Y151000D02*
D03*
X1006000Y136000D02*
D03*
X1013500Y121000D02*
D03*
Y31000D02*
D03*
X1006000Y16000D02*
D03*
X998500Y691000D02*
D03*
X991000Y676000D02*
D03*
X998500Y661000D02*
D03*
X991000Y646000D02*
D03*
X998500Y631000D02*
D03*
X991000Y616000D02*
D03*
X998500Y601000D02*
D03*
X991000Y586000D02*
D03*
X998500Y571000D02*
D03*
X991000Y556000D02*
D03*
X998500Y541000D02*
D03*
X991000Y526000D02*
D03*
X998500Y511000D02*
D03*
X991000Y496000D02*
D03*
Y436000D02*
D03*
X998500Y421000D02*
D03*
X991000Y406000D02*
D03*
X998500Y391000D02*
D03*
X991000Y376000D02*
D03*
X998500Y361000D02*
D03*
X991000Y346000D02*
D03*
X998500Y331000D02*
D03*
X991000Y316000D02*
D03*
X998500Y301000D02*
D03*
X991000Y286000D02*
D03*
X998500Y271000D02*
D03*
X991000Y256000D02*
D03*
X998500Y241000D02*
D03*
X991000Y226000D02*
D03*
X998500Y211000D02*
D03*
X991000Y196000D02*
D03*
X998500Y181000D02*
D03*
X991000Y166000D02*
D03*
X998500Y151000D02*
D03*
X991000Y136000D02*
D03*
X998500Y121000D02*
D03*
Y31000D02*
D03*
X991000Y16000D02*
D03*
X983500Y691000D02*
D03*
X976000Y676000D02*
D03*
X983500Y661000D02*
D03*
X976000Y646000D02*
D03*
X983500Y631000D02*
D03*
X976000Y616000D02*
D03*
X983500Y601000D02*
D03*
X976000Y586000D02*
D03*
X983500Y571000D02*
D03*
X976000Y556000D02*
D03*
X983500Y541000D02*
D03*
X976000Y526000D02*
D03*
X983500Y511000D02*
D03*
Y421000D02*
D03*
Y391000D02*
D03*
Y361000D02*
D03*
Y331000D02*
D03*
Y301000D02*
D03*
Y271000D02*
D03*
Y241000D02*
D03*
Y211000D02*
D03*
Y181000D02*
D03*
Y121000D02*
D03*
X976000Y76000D02*
D03*
Y46000D02*
D03*
X983500Y31000D02*
D03*
X976000Y16000D02*
D03*
X968500Y691000D02*
D03*
X961000Y676000D02*
D03*
X968500Y661000D02*
D03*
X961000Y646000D02*
D03*
X968500Y631000D02*
D03*
X961000Y616000D02*
D03*
X968500Y601000D02*
D03*
X961000Y586000D02*
D03*
X968500Y571000D02*
D03*
X961000Y556000D02*
D03*
X968500Y541000D02*
D03*
X961000Y496000D02*
D03*
Y436000D02*
D03*
Y406000D02*
D03*
Y376000D02*
D03*
Y346000D02*
D03*
Y316000D02*
D03*
Y286000D02*
D03*
Y256000D02*
D03*
Y226000D02*
D03*
Y196000D02*
D03*
Y166000D02*
D03*
Y136000D02*
D03*
X968500Y121000D02*
D03*
X961000Y76000D02*
D03*
X968500Y61000D02*
D03*
X961000Y46000D02*
D03*
X968500Y31000D02*
D03*
X961000Y16000D02*
D03*
X953500Y691000D02*
D03*
X946000Y676000D02*
D03*
X953500Y661000D02*
D03*
X946000Y646000D02*
D03*
X953500Y631000D02*
D03*
X946000Y616000D02*
D03*
X953500Y601000D02*
D03*
X946000Y586000D02*
D03*
X953500Y571000D02*
D03*
X946000Y556000D02*
D03*
X953500Y511000D02*
D03*
X946000Y496000D02*
D03*
Y436000D02*
D03*
X953500Y421000D02*
D03*
X946000Y406000D02*
D03*
X953500Y391000D02*
D03*
X946000Y376000D02*
D03*
X953500Y361000D02*
D03*
X946000Y346000D02*
D03*
X953500Y331000D02*
D03*
X946000Y76000D02*
D03*
X953500Y61000D02*
D03*
X946000Y46000D02*
D03*
X953500Y31000D02*
D03*
X946000Y16000D02*
D03*
X938500Y691000D02*
D03*
X931000Y676000D02*
D03*
X938500Y661000D02*
D03*
X931000Y646000D02*
D03*
X938500Y631000D02*
D03*
X931000Y616000D02*
D03*
X938500Y601000D02*
D03*
X931000Y586000D02*
D03*
X938500Y571000D02*
D03*
X931000Y556000D02*
D03*
X938500Y511000D02*
D03*
Y421000D02*
D03*
Y391000D02*
D03*
Y361000D02*
D03*
X931000Y76000D02*
D03*
X938500Y61000D02*
D03*
X931000Y46000D02*
D03*
X938500Y31000D02*
D03*
X931000Y16000D02*
D03*
X923500Y691000D02*
D03*
X916000Y676000D02*
D03*
X923500Y661000D02*
D03*
X916000Y646000D02*
D03*
X923500Y631000D02*
D03*
X916000Y616000D02*
D03*
X923500Y601000D02*
D03*
X916000Y586000D02*
D03*
X923500Y571000D02*
D03*
X916000Y556000D02*
D03*
Y76000D02*
D03*
X923500Y61000D02*
D03*
X916000Y46000D02*
D03*
X923500Y31000D02*
D03*
X916000Y16000D02*
D03*
X908500Y691000D02*
D03*
X901000Y676000D02*
D03*
X908500Y661000D02*
D03*
X901000Y646000D02*
D03*
X908500Y631000D02*
D03*
X901000Y616000D02*
D03*
X908500Y601000D02*
D03*
X901000Y436000D02*
D03*
X908500Y421000D02*
D03*
X901000Y406000D02*
D03*
X908500Y271000D02*
D03*
Y241000D02*
D03*
X901000Y226000D02*
D03*
Y106000D02*
D03*
X908500Y31000D02*
D03*
X901000Y16000D02*
D03*
X893500Y691000D02*
D03*
X886000Y676000D02*
D03*
X893500Y661000D02*
D03*
X886000Y646000D02*
D03*
X893500Y631000D02*
D03*
X886000Y616000D02*
D03*
X893500Y601000D02*
D03*
Y571000D02*
D03*
X886000Y496000D02*
D03*
Y436000D02*
D03*
X893500Y421000D02*
D03*
X886000Y406000D02*
D03*
Y346000D02*
D03*
X893500Y241000D02*
D03*
X886000Y226000D02*
D03*
X893500Y211000D02*
D03*
X886000Y196000D02*
D03*
Y76000D02*
D03*
X893500Y31000D02*
D03*
X886000Y16000D02*
D03*
X878500Y691000D02*
D03*
X871000Y676000D02*
D03*
X878500Y661000D02*
D03*
X871000Y646000D02*
D03*
X878500Y631000D02*
D03*
X871000Y616000D02*
D03*
X878500Y601000D02*
D03*
X871000Y436000D02*
D03*
X878500Y421000D02*
D03*
X871000Y406000D02*
D03*
X878500Y241000D02*
D03*
X871000Y226000D02*
D03*
X878500Y211000D02*
D03*
X871000Y196000D02*
D03*
Y166000D02*
D03*
Y106000D02*
D03*
X878500Y91000D02*
D03*
X871000Y76000D02*
D03*
Y46000D02*
D03*
X878500Y31000D02*
D03*
X871000Y16000D02*
D03*
X863500Y691000D02*
D03*
X856000Y676000D02*
D03*
X863500Y661000D02*
D03*
X856000Y646000D02*
D03*
X863500Y631000D02*
D03*
X856000Y616000D02*
D03*
X863500Y601000D02*
D03*
Y571000D02*
D03*
X856000Y496000D02*
D03*
Y436000D02*
D03*
X863500Y421000D02*
D03*
X856000Y406000D02*
D03*
Y346000D02*
D03*
X863500Y271000D02*
D03*
Y241000D02*
D03*
X856000Y226000D02*
D03*
X863500Y211000D02*
D03*
X856000Y196000D02*
D03*
X863500Y181000D02*
D03*
X856000Y166000D02*
D03*
X863500Y151000D02*
D03*
X856000Y106000D02*
D03*
X863500Y91000D02*
D03*
X856000Y76000D02*
D03*
X863500Y61000D02*
D03*
X856000Y46000D02*
D03*
X863500Y31000D02*
D03*
X856000Y16000D02*
D03*
X848500Y691000D02*
D03*
X841000Y676000D02*
D03*
X848500Y661000D02*
D03*
X841000Y646000D02*
D03*
X848500Y631000D02*
D03*
X841000Y616000D02*
D03*
X848500Y601000D02*
D03*
X841000Y436000D02*
D03*
X848500Y421000D02*
D03*
X841000Y406000D02*
D03*
X848500Y241000D02*
D03*
X841000Y226000D02*
D03*
X848500Y211000D02*
D03*
X841000Y196000D02*
D03*
X848500Y181000D02*
D03*
X841000Y136000D02*
D03*
X848500Y121000D02*
D03*
X841000Y106000D02*
D03*
X848500Y91000D02*
D03*
X841000Y76000D02*
D03*
X848500Y61000D02*
D03*
X841000Y46000D02*
D03*
X848500Y31000D02*
D03*
X841000Y16000D02*
D03*
X833500Y691000D02*
D03*
X826000Y676000D02*
D03*
X833500Y661000D02*
D03*
X826000Y646000D02*
D03*
X833500Y631000D02*
D03*
X826000Y616000D02*
D03*
X833500Y601000D02*
D03*
Y571000D02*
D03*
X826000Y436000D02*
D03*
X833500Y421000D02*
D03*
X826000Y406000D02*
D03*
Y346000D02*
D03*
X833500Y271000D02*
D03*
Y241000D02*
D03*
X826000Y226000D02*
D03*
X833500Y211000D02*
D03*
X826000Y196000D02*
D03*
X833500Y181000D02*
D03*
X826000Y136000D02*
D03*
X833500Y121000D02*
D03*
X826000Y106000D02*
D03*
X833500Y91000D02*
D03*
X826000Y76000D02*
D03*
X833500Y61000D02*
D03*
X826000Y46000D02*
D03*
X833500Y31000D02*
D03*
X826000Y16000D02*
D03*
X818500Y691000D02*
D03*
X811000Y676000D02*
D03*
X818500Y661000D02*
D03*
X811000Y646000D02*
D03*
X818500Y631000D02*
D03*
X811000Y616000D02*
D03*
X818500Y601000D02*
D03*
X811000Y496000D02*
D03*
Y436000D02*
D03*
X818500Y421000D02*
D03*
X811000Y406000D02*
D03*
X818500Y241000D02*
D03*
X811000Y226000D02*
D03*
X818500Y211000D02*
D03*
X811000Y166000D02*
D03*
X818500Y151000D02*
D03*
X811000Y136000D02*
D03*
X818500Y121000D02*
D03*
X811000Y106000D02*
D03*
X818500Y91000D02*
D03*
X811000Y76000D02*
D03*
X818500Y61000D02*
D03*
X811000Y46000D02*
D03*
X818500Y31000D02*
D03*
X811000Y16000D02*
D03*
X803500Y691000D02*
D03*
X796000Y676000D02*
D03*
X803500Y661000D02*
D03*
X796000Y646000D02*
D03*
X803500Y631000D02*
D03*
X796000Y616000D02*
D03*
X803500Y601000D02*
D03*
X796000Y166000D02*
D03*
X803500Y151000D02*
D03*
X796000Y136000D02*
D03*
X803500Y121000D02*
D03*
X796000Y106000D02*
D03*
X803500Y91000D02*
D03*
X796000Y76000D02*
D03*
X803500Y61000D02*
D03*
X796000Y46000D02*
D03*
X803500Y31000D02*
D03*
X796000Y16000D02*
D03*
X788500Y691000D02*
D03*
X781000Y676000D02*
D03*
X788500Y661000D02*
D03*
X781000Y646000D02*
D03*
X788500Y631000D02*
D03*
X781000Y616000D02*
D03*
X788500Y601000D02*
D03*
X781000Y586000D02*
D03*
X788500Y511000D02*
D03*
Y481000D02*
D03*
Y451000D02*
D03*
Y421000D02*
D03*
X781000Y166000D02*
D03*
X788500Y151000D02*
D03*
X781000Y136000D02*
D03*
X788500Y121000D02*
D03*
X781000Y106000D02*
D03*
X788500Y91000D02*
D03*
X781000Y76000D02*
D03*
X788500Y61000D02*
D03*
X781000Y46000D02*
D03*
X788500Y31000D02*
D03*
X781000Y16000D02*
D03*
X773500Y691000D02*
D03*
X766000Y676000D02*
D03*
X773500Y661000D02*
D03*
X766000Y646000D02*
D03*
X773500Y631000D02*
D03*
X766000Y616000D02*
D03*
X773500Y601000D02*
D03*
X766000Y586000D02*
D03*
X773500Y571000D02*
D03*
X766000Y556000D02*
D03*
Y526000D02*
D03*
Y496000D02*
D03*
Y466000D02*
D03*
Y436000D02*
D03*
Y406000D02*
D03*
Y376000D02*
D03*
Y196000D02*
D03*
X773500Y151000D02*
D03*
X766000Y136000D02*
D03*
X773500Y121000D02*
D03*
X766000Y106000D02*
D03*
X773500Y91000D02*
D03*
X766000Y76000D02*
D03*
X773500Y61000D02*
D03*
X766000Y46000D02*
D03*
X773500Y31000D02*
D03*
X766000Y16000D02*
D03*
X758500Y691000D02*
D03*
X751000Y676000D02*
D03*
X758500Y661000D02*
D03*
X751000Y646000D02*
D03*
X758500Y631000D02*
D03*
X751000Y616000D02*
D03*
X758500Y601000D02*
D03*
X751000Y436000D02*
D03*
X758500Y421000D02*
D03*
X751000Y406000D02*
D03*
Y226000D02*
D03*
X758500Y181000D02*
D03*
X751000Y166000D02*
D03*
Y136000D02*
D03*
X758500Y121000D02*
D03*
X751000Y106000D02*
D03*
X758500Y91000D02*
D03*
Y31000D02*
D03*
X751000Y16000D02*
D03*
X743500Y691000D02*
D03*
X736000Y676000D02*
D03*
X743500Y661000D02*
D03*
X736000Y646000D02*
D03*
X743500Y631000D02*
D03*
X736000Y616000D02*
D03*
X743500Y601000D02*
D03*
Y571000D02*
D03*
X736000Y496000D02*
D03*
Y436000D02*
D03*
X743500Y421000D02*
D03*
X736000Y406000D02*
D03*
Y346000D02*
D03*
X743500Y211000D02*
D03*
X736000Y166000D02*
D03*
X743500Y121000D02*
D03*
X736000Y106000D02*
D03*
X743500Y91000D02*
D03*
X736000Y76000D02*
D03*
X743500Y31000D02*
D03*
X736000Y16000D02*
D03*
X728500Y691000D02*
D03*
X721000Y676000D02*
D03*
X728500Y661000D02*
D03*
X721000Y646000D02*
D03*
X728500Y631000D02*
D03*
X721000Y616000D02*
D03*
X728500Y601000D02*
D03*
X721000Y436000D02*
D03*
X728500Y421000D02*
D03*
X721000Y406000D02*
D03*
X728500Y241000D02*
D03*
X721000Y226000D02*
D03*
Y196000D02*
D03*
Y106000D02*
D03*
X728500Y91000D02*
D03*
X721000Y76000D02*
D03*
Y46000D02*
D03*
X728500Y31000D02*
D03*
X721000Y16000D02*
D03*
X713500Y691000D02*
D03*
X706000Y676000D02*
D03*
X713500Y661000D02*
D03*
X706000Y646000D02*
D03*
X713500Y631000D02*
D03*
X706000Y616000D02*
D03*
X713500Y601000D02*
D03*
Y571000D02*
D03*
X706000Y496000D02*
D03*
Y436000D02*
D03*
X713500Y421000D02*
D03*
X706000Y406000D02*
D03*
Y346000D02*
D03*
X713500Y271000D02*
D03*
Y241000D02*
D03*
X706000Y226000D02*
D03*
X713500Y181000D02*
D03*
X706000Y106000D02*
D03*
X713500Y91000D02*
D03*
X706000Y76000D02*
D03*
X713500Y61000D02*
D03*
X706000Y46000D02*
D03*
X713500Y31000D02*
D03*
X706000Y16000D02*
D03*
X698500Y691000D02*
D03*
X691000Y676000D02*
D03*
X698500Y661000D02*
D03*
X691000Y646000D02*
D03*
X698500Y631000D02*
D03*
X691000Y616000D02*
D03*
X698500Y601000D02*
D03*
X691000Y436000D02*
D03*
X698500Y421000D02*
D03*
X691000Y406000D02*
D03*
X698500Y241000D02*
D03*
X691000Y226000D02*
D03*
X698500Y211000D02*
D03*
X691000Y196000D02*
D03*
Y166000D02*
D03*
Y106000D02*
D03*
X698500Y91000D02*
D03*
X691000Y76000D02*
D03*
X698500Y61000D02*
D03*
X691000Y46000D02*
D03*
X698500Y31000D02*
D03*
X691000Y16000D02*
D03*
X683500Y691000D02*
D03*
X676000Y676000D02*
D03*
X683500Y661000D02*
D03*
X676000Y646000D02*
D03*
X683500Y631000D02*
D03*
X676000Y616000D02*
D03*
X683500Y601000D02*
D03*
Y571000D02*
D03*
X676000Y436000D02*
D03*
X683500Y421000D02*
D03*
X676000Y406000D02*
D03*
Y346000D02*
D03*
X683500Y271000D02*
D03*
Y241000D02*
D03*
X676000Y226000D02*
D03*
X683500Y211000D02*
D03*
X676000Y196000D02*
D03*
Y106000D02*
D03*
X683500Y91000D02*
D03*
X676000Y76000D02*
D03*
X683500Y61000D02*
D03*
X676000Y46000D02*
D03*
X683500Y31000D02*
D03*
X676000Y16000D02*
D03*
X668500Y691000D02*
D03*
X661000Y676000D02*
D03*
X668500Y661000D02*
D03*
X661000Y646000D02*
D03*
X668500Y631000D02*
D03*
X661000Y616000D02*
D03*
X668500Y601000D02*
D03*
X661000Y496000D02*
D03*
Y436000D02*
D03*
X668500Y421000D02*
D03*
X661000Y406000D02*
D03*
X668500Y241000D02*
D03*
X661000Y226000D02*
D03*
X668500Y211000D02*
D03*
X661000Y196000D02*
D03*
X668500Y181000D02*
D03*
X661000Y166000D02*
D03*
Y136000D02*
D03*
X668500Y121000D02*
D03*
X661000Y106000D02*
D03*
X668500Y91000D02*
D03*
X661000Y76000D02*
D03*
X668500Y61000D02*
D03*
Y31000D02*
D03*
X661000Y16000D02*
D03*
X653500Y691000D02*
D03*
X646000Y676000D02*
D03*
X653500Y661000D02*
D03*
X646000Y646000D02*
D03*
X653500Y631000D02*
D03*
X646000Y616000D02*
D03*
X653500Y601000D02*
D03*
Y571000D02*
D03*
Y421000D02*
D03*
Y241000D02*
D03*
X646000Y226000D02*
D03*
X653500Y211000D02*
D03*
X646000Y196000D02*
D03*
X653500Y181000D02*
D03*
X646000Y166000D02*
D03*
X653500Y151000D02*
D03*
X646000Y136000D02*
D03*
X653500Y121000D02*
D03*
X646000Y106000D02*
D03*
X653500Y91000D02*
D03*
Y31000D02*
D03*
X646000Y16000D02*
D03*
X638500Y691000D02*
D03*
X631000Y676000D02*
D03*
X638500Y661000D02*
D03*
X631000Y646000D02*
D03*
X638500Y631000D02*
D03*
X631000Y616000D02*
D03*
X638500Y601000D02*
D03*
X631000Y346000D02*
D03*
X638500Y271000D02*
D03*
Y241000D02*
D03*
X631000Y226000D02*
D03*
X638500Y211000D02*
D03*
X631000Y196000D02*
D03*
X638500Y181000D02*
D03*
X631000Y166000D02*
D03*
X638500Y151000D02*
D03*
X631000Y136000D02*
D03*
X638500Y121000D02*
D03*
X631000Y106000D02*
D03*
X638500Y91000D02*
D03*
X631000Y76000D02*
D03*
X638500Y31000D02*
D03*
X631000Y16000D02*
D03*
X623500Y691000D02*
D03*
X616000Y676000D02*
D03*
X623500Y661000D02*
D03*
X616000Y646000D02*
D03*
X623500Y631000D02*
D03*
X616000Y616000D02*
D03*
X623500Y601000D02*
D03*
Y571000D02*
D03*
Y271000D02*
D03*
Y241000D02*
D03*
X616000Y226000D02*
D03*
X623500Y211000D02*
D03*
X616000Y196000D02*
D03*
X623500Y181000D02*
D03*
X616000Y166000D02*
D03*
X623500Y151000D02*
D03*
X616000Y136000D02*
D03*
X623500Y121000D02*
D03*
X616000Y106000D02*
D03*
X623500Y91000D02*
D03*
X616000Y76000D02*
D03*
X623500Y61000D02*
D03*
X616000Y46000D02*
D03*
X623500Y31000D02*
D03*
X616000Y16000D02*
D03*
X608500Y691000D02*
D03*
X601000Y676000D02*
D03*
X608500Y661000D02*
D03*
X601000Y646000D02*
D03*
X608500Y631000D02*
D03*
X601000Y616000D02*
D03*
X608500Y601000D02*
D03*
Y571000D02*
D03*
X601000Y436000D02*
D03*
Y406000D02*
D03*
Y376000D02*
D03*
Y286000D02*
D03*
X608500Y241000D02*
D03*
X601000Y226000D02*
D03*
X608500Y211000D02*
D03*
X601000Y196000D02*
D03*
X608500Y181000D02*
D03*
X601000Y166000D02*
D03*
X608500Y151000D02*
D03*
X601000Y136000D02*
D03*
X608500Y121000D02*
D03*
X601000Y106000D02*
D03*
X608500Y91000D02*
D03*
X601000Y76000D02*
D03*
X608500Y61000D02*
D03*
X601000Y46000D02*
D03*
X608500Y31000D02*
D03*
X601000Y16000D02*
D03*
X593500Y691000D02*
D03*
X586000Y676000D02*
D03*
X593500Y661000D02*
D03*
X586000Y646000D02*
D03*
X593500Y631000D02*
D03*
X586000Y616000D02*
D03*
X593500Y601000D02*
D03*
Y571000D02*
D03*
X586000Y496000D02*
D03*
Y256000D02*
D03*
X593500Y241000D02*
D03*
X586000Y226000D02*
D03*
X593500Y211000D02*
D03*
X586000Y196000D02*
D03*
X593500Y181000D02*
D03*
X586000Y166000D02*
D03*
X593500Y151000D02*
D03*
X586000Y136000D02*
D03*
X593500Y121000D02*
D03*
X586000Y106000D02*
D03*
X593500Y91000D02*
D03*
X586000Y76000D02*
D03*
X593500Y61000D02*
D03*
X586000Y46000D02*
D03*
X593500Y31000D02*
D03*
X586000Y16000D02*
D03*
X578500Y691000D02*
D03*
X571000Y676000D02*
D03*
X578500Y661000D02*
D03*
X571000Y646000D02*
D03*
X578500Y631000D02*
D03*
X571000Y616000D02*
D03*
X578500Y601000D02*
D03*
Y571000D02*
D03*
X571000Y496000D02*
D03*
Y436000D02*
D03*
Y406000D02*
D03*
Y376000D02*
D03*
Y346000D02*
D03*
Y316000D02*
D03*
Y286000D02*
D03*
X578500Y271000D02*
D03*
X571000Y256000D02*
D03*
X578500Y241000D02*
D03*
X571000Y226000D02*
D03*
X578500Y211000D02*
D03*
X571000Y196000D02*
D03*
X578500Y181000D02*
D03*
X571000Y166000D02*
D03*
X578500Y151000D02*
D03*
X571000Y136000D02*
D03*
X578500Y121000D02*
D03*
X571000Y106000D02*
D03*
X578500Y91000D02*
D03*
X571000Y76000D02*
D03*
X578500Y61000D02*
D03*
X571000Y46000D02*
D03*
X578500Y31000D02*
D03*
X571000Y16000D02*
D03*
X563500Y691000D02*
D03*
X556000Y676000D02*
D03*
X563500Y661000D02*
D03*
X556000Y646000D02*
D03*
X563500Y631000D02*
D03*
X556000Y496000D02*
D03*
X563500Y151000D02*
D03*
X556000Y136000D02*
D03*
X563500Y121000D02*
D03*
X556000Y106000D02*
D03*
X563500Y91000D02*
D03*
X556000Y76000D02*
D03*
X563500Y61000D02*
D03*
X556000Y46000D02*
D03*
X563500Y31000D02*
D03*
X556000Y16000D02*
D03*
X548500Y691000D02*
D03*
X541000Y676000D02*
D03*
X548500Y661000D02*
D03*
X541000Y646000D02*
D03*
X548500Y631000D02*
D03*
X541000Y136000D02*
D03*
X548500Y121000D02*
D03*
X541000Y106000D02*
D03*
X548500Y91000D02*
D03*
X541000Y76000D02*
D03*
X548500Y61000D02*
D03*
X541000Y46000D02*
D03*
X548500Y31000D02*
D03*
X541000Y16000D02*
D03*
X533500Y691000D02*
D03*
X526000Y676000D02*
D03*
X533500Y661000D02*
D03*
X526000Y646000D02*
D03*
X533500Y631000D02*
D03*
Y571000D02*
D03*
X526000Y556000D02*
D03*
Y226000D02*
D03*
Y196000D02*
D03*
X533500Y121000D02*
D03*
X526000Y106000D02*
D03*
X533500Y91000D02*
D03*
X526000Y76000D02*
D03*
X533500Y61000D02*
D03*
Y31000D02*
D03*
X526000Y16000D02*
D03*
X518500Y691000D02*
D03*
X511000Y676000D02*
D03*
X518500Y661000D02*
D03*
X511000Y646000D02*
D03*
X518500Y631000D02*
D03*
Y571000D02*
D03*
Y511000D02*
D03*
X511000Y496000D02*
D03*
Y466000D02*
D03*
Y436000D02*
D03*
Y406000D02*
D03*
Y376000D02*
D03*
Y346000D02*
D03*
Y316000D02*
D03*
Y286000D02*
D03*
Y256000D02*
D03*
X518500Y211000D02*
D03*
X511000Y196000D02*
D03*
X518500Y181000D02*
D03*
X511000Y166000D02*
D03*
Y106000D02*
D03*
X518500Y91000D02*
D03*
X511000Y76000D02*
D03*
Y16000D02*
D03*
X503500Y691000D02*
D03*
X496000Y676000D02*
D03*
X503500Y661000D02*
D03*
X496000Y646000D02*
D03*
X503500Y631000D02*
D03*
Y481000D02*
D03*
Y451000D02*
D03*
Y421000D02*
D03*
Y391000D02*
D03*
Y361000D02*
D03*
Y331000D02*
D03*
Y301000D02*
D03*
Y271000D02*
D03*
Y211000D02*
D03*
X496000Y196000D02*
D03*
X503500Y181000D02*
D03*
X496000Y166000D02*
D03*
X503500Y91000D02*
D03*
X496000Y76000D02*
D03*
X503500Y61000D02*
D03*
X496000Y46000D02*
D03*
X503500Y31000D02*
D03*
X496000Y16000D02*
D03*
X488500Y691000D02*
D03*
X481000Y676000D02*
D03*
X488500Y661000D02*
D03*
X481000Y646000D02*
D03*
X488500Y631000D02*
D03*
Y451000D02*
D03*
Y391000D02*
D03*
Y181000D02*
D03*
X481000Y166000D02*
D03*
X488500Y151000D02*
D03*
Y121000D02*
D03*
X481000Y76000D02*
D03*
X488500Y61000D02*
D03*
X481000Y46000D02*
D03*
X488500Y31000D02*
D03*
X481000Y16000D02*
D03*
X473500Y691000D02*
D03*
X466000Y676000D02*
D03*
X473500Y661000D02*
D03*
X466000Y646000D02*
D03*
X473500Y631000D02*
D03*
Y451000D02*
D03*
Y271000D02*
D03*
Y241000D02*
D03*
X466000Y76000D02*
D03*
X473500Y61000D02*
D03*
X466000Y46000D02*
D03*
X473500Y31000D02*
D03*
X466000Y16000D02*
D03*
X458500Y691000D02*
D03*
X451000Y676000D02*
D03*
X458500Y661000D02*
D03*
X451000Y646000D02*
D03*
X458500Y631000D02*
D03*
Y451000D02*
D03*
Y211000D02*
D03*
X451000Y196000D02*
D03*
Y76000D02*
D03*
X458500Y61000D02*
D03*
X451000Y16000D02*
D03*
X443500Y691000D02*
D03*
X436000Y676000D02*
D03*
X443500Y661000D02*
D03*
X436000Y646000D02*
D03*
X443500Y631000D02*
D03*
Y451000D02*
D03*
X436000Y76000D02*
D03*
X443500Y61000D02*
D03*
X436000Y16000D02*
D03*
X428500Y691000D02*
D03*
X421000Y676000D02*
D03*
X428500Y661000D02*
D03*
X421000Y646000D02*
D03*
X428500Y631000D02*
D03*
Y451000D02*
D03*
X421000Y256000D02*
D03*
X428500Y91000D02*
D03*
X421000Y76000D02*
D03*
X428500Y61000D02*
D03*
X421000Y46000D02*
D03*
X428500Y31000D02*
D03*
X421000Y16000D02*
D03*
X413500Y691000D02*
D03*
X406000Y676000D02*
D03*
X413500Y661000D02*
D03*
X406000Y646000D02*
D03*
X413500Y631000D02*
D03*
Y451000D02*
D03*
Y391000D02*
D03*
Y211000D02*
D03*
X406000Y196000D02*
D03*
Y106000D02*
D03*
X413500Y91000D02*
D03*
X406000Y76000D02*
D03*
X413500Y61000D02*
D03*
X406000Y46000D02*
D03*
X413500Y31000D02*
D03*
X406000Y16000D02*
D03*
X398500Y691000D02*
D03*
X391000Y676000D02*
D03*
X398500Y661000D02*
D03*
X391000Y646000D02*
D03*
X398500Y631000D02*
D03*
Y511000D02*
D03*
Y451000D02*
D03*
Y271000D02*
D03*
Y241000D02*
D03*
X391000Y166000D02*
D03*
Y136000D02*
D03*
X398500Y121000D02*
D03*
X391000Y106000D02*
D03*
X398500Y91000D02*
D03*
X391000Y76000D02*
D03*
X398500Y61000D02*
D03*
X391000Y46000D02*
D03*
X398500Y31000D02*
D03*
X391000Y16000D02*
D03*
X383500Y691000D02*
D03*
X376000Y676000D02*
D03*
X383500Y661000D02*
D03*
X376000Y646000D02*
D03*
X383500Y631000D02*
D03*
Y451000D02*
D03*
Y391000D02*
D03*
Y151000D02*
D03*
X376000Y136000D02*
D03*
X383500Y121000D02*
D03*
X376000Y106000D02*
D03*
X383500Y91000D02*
D03*
X376000Y76000D02*
D03*
X383500Y61000D02*
D03*
Y31000D02*
D03*
X376000Y16000D02*
D03*
X368500Y691000D02*
D03*
X361000Y676000D02*
D03*
X368500Y661000D02*
D03*
X361000Y646000D02*
D03*
X368500Y631000D02*
D03*
Y451000D02*
D03*
Y241000D02*
D03*
X361000Y226000D02*
D03*
X368500Y211000D02*
D03*
X361000Y196000D02*
D03*
Y136000D02*
D03*
X368500Y121000D02*
D03*
X361000Y106000D02*
D03*
X368500Y91000D02*
D03*
X361000Y76000D02*
D03*
Y16000D02*
D03*
X353500Y691000D02*
D03*
X346000Y676000D02*
D03*
X353500Y661000D02*
D03*
X346000Y646000D02*
D03*
X353500Y631000D02*
D03*
Y451000D02*
D03*
X346000Y286000D02*
D03*
Y226000D02*
D03*
X353500Y211000D02*
D03*
X346000Y196000D02*
D03*
X353500Y121000D02*
D03*
X346000Y106000D02*
D03*
X353500Y91000D02*
D03*
X346000Y76000D02*
D03*
X353500Y61000D02*
D03*
X346000Y46000D02*
D03*
X353500Y31000D02*
D03*
X346000Y16000D02*
D03*
X338500Y691000D02*
D03*
X331000Y676000D02*
D03*
X338500Y661000D02*
D03*
X331000Y646000D02*
D03*
X338500Y631000D02*
D03*
Y511000D02*
D03*
X331000Y496000D02*
D03*
X338500Y481000D02*
D03*
X331000Y466000D02*
D03*
X338500Y451000D02*
D03*
X331000Y436000D02*
D03*
X338500Y421000D02*
D03*
X331000Y406000D02*
D03*
Y376000D02*
D03*
Y346000D02*
D03*
Y316000D02*
D03*
X338500Y301000D02*
D03*
X331000Y286000D02*
D03*
X338500Y271000D02*
D03*
X331000Y256000D02*
D03*
X338500Y211000D02*
D03*
X331000Y196000D02*
D03*
X338500Y181000D02*
D03*
X331000Y166000D02*
D03*
Y106000D02*
D03*
X338500Y91000D02*
D03*
X331000Y76000D02*
D03*
X338500Y61000D02*
D03*
X331000Y46000D02*
D03*
X338500Y31000D02*
D03*
X331000Y16000D02*
D03*
X323500Y691000D02*
D03*
X316000Y676000D02*
D03*
X323500Y661000D02*
D03*
X316000Y646000D02*
D03*
X323500Y631000D02*
D03*
Y571000D02*
D03*
X316000Y556000D02*
D03*
X323500Y511000D02*
D03*
X316000Y496000D02*
D03*
X323500Y481000D02*
D03*
X316000Y466000D02*
D03*
X323500Y451000D02*
D03*
X316000Y436000D02*
D03*
X323500Y421000D02*
D03*
X316000Y406000D02*
D03*
X323500Y391000D02*
D03*
X316000Y376000D02*
D03*
X323500Y361000D02*
D03*
X316000Y346000D02*
D03*
X323500Y331000D02*
D03*
X316000Y316000D02*
D03*
X323500Y301000D02*
D03*
X316000Y286000D02*
D03*
X323500Y271000D02*
D03*
X316000Y256000D02*
D03*
X323500Y241000D02*
D03*
X316000Y196000D02*
D03*
X323500Y181000D02*
D03*
X316000Y166000D02*
D03*
X323500Y91000D02*
D03*
X316000Y76000D02*
D03*
X323500Y61000D02*
D03*
X316000Y46000D02*
D03*
X323500Y31000D02*
D03*
X316000Y16000D02*
D03*
X308500Y691000D02*
D03*
X301000Y676000D02*
D03*
X308500Y661000D02*
D03*
X301000Y646000D02*
D03*
X308500Y631000D02*
D03*
Y571000D02*
D03*
X301000Y556000D02*
D03*
X308500Y511000D02*
D03*
X301000Y496000D02*
D03*
X308500Y481000D02*
D03*
X301000Y466000D02*
D03*
X308500Y451000D02*
D03*
X301000Y436000D02*
D03*
X308500Y421000D02*
D03*
X301000Y406000D02*
D03*
X308500Y391000D02*
D03*
X301000Y376000D02*
D03*
X308500Y361000D02*
D03*
X301000Y346000D02*
D03*
X308500Y331000D02*
D03*
X301000Y316000D02*
D03*
X308500Y301000D02*
D03*
X301000Y286000D02*
D03*
X308500Y271000D02*
D03*
X301000Y256000D02*
D03*
X308500Y241000D02*
D03*
X301000Y196000D02*
D03*
X308500Y181000D02*
D03*
X301000Y166000D02*
D03*
X308500Y151000D02*
D03*
Y121000D02*
D03*
X301000Y106000D02*
D03*
Y76000D02*
D03*
X308500Y61000D02*
D03*
X301000Y46000D02*
D03*
X308500Y31000D02*
D03*
X301000Y16000D02*
D03*
X293500Y691000D02*
D03*
X286000Y676000D02*
D03*
X293500Y661000D02*
D03*
X286000Y646000D02*
D03*
X293500Y631000D02*
D03*
Y571000D02*
D03*
X286000Y556000D02*
D03*
X293500Y511000D02*
D03*
X286000Y496000D02*
D03*
X293500Y481000D02*
D03*
X286000Y466000D02*
D03*
X293500Y451000D02*
D03*
X286000Y436000D02*
D03*
X293500Y421000D02*
D03*
X286000Y406000D02*
D03*
X293500Y391000D02*
D03*
X286000Y376000D02*
D03*
X293500Y361000D02*
D03*
X286000Y346000D02*
D03*
X293500Y331000D02*
D03*
X286000Y316000D02*
D03*
X293500Y301000D02*
D03*
X286000Y286000D02*
D03*
X293500Y271000D02*
D03*
X286000Y256000D02*
D03*
X293500Y241000D02*
D03*
X286000Y196000D02*
D03*
X293500Y181000D02*
D03*
X286000Y166000D02*
D03*
X293500Y151000D02*
D03*
Y121000D02*
D03*
X286000Y106000D02*
D03*
Y76000D02*
D03*
X293500Y61000D02*
D03*
X286000Y46000D02*
D03*
X293500Y31000D02*
D03*
X286000Y16000D02*
D03*
X278500Y691000D02*
D03*
X271000Y676000D02*
D03*
X278500Y661000D02*
D03*
X271000Y646000D02*
D03*
X278500Y631000D02*
D03*
Y571000D02*
D03*
X271000Y556000D02*
D03*
X278500Y511000D02*
D03*
X271000Y496000D02*
D03*
X278500Y481000D02*
D03*
X271000Y466000D02*
D03*
X278500Y451000D02*
D03*
X271000Y436000D02*
D03*
X278500Y421000D02*
D03*
X271000Y406000D02*
D03*
X278500Y391000D02*
D03*
X271000Y376000D02*
D03*
X278500Y361000D02*
D03*
X271000Y346000D02*
D03*
X278500Y331000D02*
D03*
X271000Y316000D02*
D03*
X278500Y301000D02*
D03*
X271000Y286000D02*
D03*
X278500Y271000D02*
D03*
X271000Y256000D02*
D03*
X278500Y241000D02*
D03*
X271000Y196000D02*
D03*
X278500Y181000D02*
D03*
X271000Y166000D02*
D03*
X278500Y151000D02*
D03*
Y121000D02*
D03*
X271000Y106000D02*
D03*
Y76000D02*
D03*
X278500Y61000D02*
D03*
X271000Y46000D02*
D03*
X278500Y31000D02*
D03*
X271000Y16000D02*
D03*
X263500Y691000D02*
D03*
X256000Y676000D02*
D03*
X263500Y661000D02*
D03*
X256000Y646000D02*
D03*
X263500Y631000D02*
D03*
X256000Y556000D02*
D03*
X263500Y511000D02*
D03*
X256000Y496000D02*
D03*
X263500Y481000D02*
D03*
X256000Y466000D02*
D03*
X263500Y451000D02*
D03*
X256000Y436000D02*
D03*
X263500Y421000D02*
D03*
X256000Y406000D02*
D03*
X263500Y391000D02*
D03*
X256000Y376000D02*
D03*
X263500Y361000D02*
D03*
X256000Y346000D02*
D03*
X263500Y331000D02*
D03*
X256000Y316000D02*
D03*
X263500Y301000D02*
D03*
X256000Y286000D02*
D03*
X263500Y271000D02*
D03*
X256000Y256000D02*
D03*
X263500Y241000D02*
D03*
X256000Y196000D02*
D03*
X263500Y181000D02*
D03*
X256000Y166000D02*
D03*
X263500Y151000D02*
D03*
Y121000D02*
D03*
X256000Y106000D02*
D03*
Y76000D02*
D03*
X263500Y61000D02*
D03*
X256000Y46000D02*
D03*
X263500Y31000D02*
D03*
X256000Y16000D02*
D03*
X248500Y691000D02*
D03*
X241000Y676000D02*
D03*
X248500Y661000D02*
D03*
X241000Y646000D02*
D03*
X248500Y631000D02*
D03*
X241000Y616000D02*
D03*
X248500Y541000D02*
D03*
X241000Y526000D02*
D03*
Y496000D02*
D03*
X248500Y481000D02*
D03*
X241000Y466000D02*
D03*
X248500Y451000D02*
D03*
X241000Y436000D02*
D03*
X248500Y421000D02*
D03*
X241000Y406000D02*
D03*
X248500Y391000D02*
D03*
X241000Y376000D02*
D03*
X248500Y361000D02*
D03*
X241000Y346000D02*
D03*
X248500Y331000D02*
D03*
X241000Y316000D02*
D03*
X248500Y301000D02*
D03*
X241000Y286000D02*
D03*
X248500Y271000D02*
D03*
X241000Y256000D02*
D03*
X248500Y241000D02*
D03*
X241000Y196000D02*
D03*
X248500Y181000D02*
D03*
X241000Y166000D02*
D03*
X248500Y151000D02*
D03*
Y121000D02*
D03*
X241000Y106000D02*
D03*
Y76000D02*
D03*
X248500Y61000D02*
D03*
X241000Y46000D02*
D03*
X248500Y31000D02*
D03*
X241000Y16000D02*
D03*
X233500Y691000D02*
D03*
X226000Y676000D02*
D03*
X233500Y661000D02*
D03*
X226000Y646000D02*
D03*
X233500Y631000D02*
D03*
X226000Y616000D02*
D03*
X233500Y571000D02*
D03*
X226000Y526000D02*
D03*
X233500Y481000D02*
D03*
X226000Y466000D02*
D03*
X233500Y451000D02*
D03*
X226000Y436000D02*
D03*
X233500Y421000D02*
D03*
X226000Y406000D02*
D03*
X233500Y391000D02*
D03*
X226000Y376000D02*
D03*
X233500Y361000D02*
D03*
X226000Y346000D02*
D03*
X233500Y331000D02*
D03*
X226000Y316000D02*
D03*
X233500Y301000D02*
D03*
X226000Y286000D02*
D03*
X233500Y271000D02*
D03*
X226000Y256000D02*
D03*
X233500Y241000D02*
D03*
X226000Y196000D02*
D03*
X233500Y181000D02*
D03*
X226000Y166000D02*
D03*
X233500Y151000D02*
D03*
Y121000D02*
D03*
X226000Y106000D02*
D03*
Y76000D02*
D03*
X233500Y61000D02*
D03*
Y31000D02*
D03*
X226000Y16000D02*
D03*
X218500Y691000D02*
D03*
X211000Y676000D02*
D03*
X218500Y661000D02*
D03*
X211000Y646000D02*
D03*
X218500Y631000D02*
D03*
X211000Y616000D02*
D03*
X218500Y601000D02*
D03*
X211000Y586000D02*
D03*
X218500Y511000D02*
D03*
X211000Y496000D02*
D03*
Y466000D02*
D03*
X218500Y451000D02*
D03*
X211000Y436000D02*
D03*
X218500Y421000D02*
D03*
X211000Y406000D02*
D03*
X218500Y391000D02*
D03*
X211000Y376000D02*
D03*
X218500Y361000D02*
D03*
X211000Y346000D02*
D03*
X218500Y331000D02*
D03*
X211000Y316000D02*
D03*
X218500Y301000D02*
D03*
X211000Y286000D02*
D03*
X218500Y271000D02*
D03*
X211000Y256000D02*
D03*
X218500Y241000D02*
D03*
X211000Y196000D02*
D03*
X218500Y181000D02*
D03*
X211000Y166000D02*
D03*
X218500Y151000D02*
D03*
Y121000D02*
D03*
X211000Y106000D02*
D03*
Y76000D02*
D03*
Y16000D02*
D03*
X203500Y691000D02*
D03*
X196000Y676000D02*
D03*
X203500Y661000D02*
D03*
X196000Y646000D02*
D03*
X203500Y631000D02*
D03*
X196000Y616000D02*
D03*
X203500Y601000D02*
D03*
X196000Y586000D02*
D03*
X203500Y541000D02*
D03*
X196000Y496000D02*
D03*
X203500Y451000D02*
D03*
X196000Y436000D02*
D03*
X203500Y421000D02*
D03*
X196000Y406000D02*
D03*
X203500Y391000D02*
D03*
X196000Y376000D02*
D03*
X203500Y361000D02*
D03*
X196000Y346000D02*
D03*
X203500Y331000D02*
D03*
X196000Y316000D02*
D03*
X203500Y301000D02*
D03*
X196000Y286000D02*
D03*
X203500Y271000D02*
D03*
X196000Y256000D02*
D03*
X203500Y241000D02*
D03*
X196000Y196000D02*
D03*
X203500Y181000D02*
D03*
X196000Y166000D02*
D03*
X203500Y151000D02*
D03*
Y121000D02*
D03*
X196000Y106000D02*
D03*
Y76000D02*
D03*
X203500Y61000D02*
D03*
X196000Y46000D02*
D03*
X203500Y31000D02*
D03*
X196000Y16000D02*
D03*
X188500Y691000D02*
D03*
X181000Y676000D02*
D03*
X188500Y661000D02*
D03*
X181000Y646000D02*
D03*
X188500Y631000D02*
D03*
X181000Y616000D02*
D03*
X188500Y601000D02*
D03*
X181000Y586000D02*
D03*
X188500Y571000D02*
D03*
X181000Y556000D02*
D03*
X188500Y481000D02*
D03*
X181000Y466000D02*
D03*
Y436000D02*
D03*
X188500Y421000D02*
D03*
X181000Y406000D02*
D03*
X188500Y391000D02*
D03*
X181000Y376000D02*
D03*
X188500Y361000D02*
D03*
X181000Y346000D02*
D03*
X188500Y331000D02*
D03*
X181000Y316000D02*
D03*
X188500Y301000D02*
D03*
X181000Y286000D02*
D03*
X188500Y271000D02*
D03*
X181000Y256000D02*
D03*
X188500Y241000D02*
D03*
X181000Y196000D02*
D03*
X188500Y181000D02*
D03*
X181000Y166000D02*
D03*
X188500Y151000D02*
D03*
Y121000D02*
D03*
X181000Y106000D02*
D03*
Y76000D02*
D03*
X188500Y61000D02*
D03*
X181000Y46000D02*
D03*
X188500Y31000D02*
D03*
X181000Y16000D02*
D03*
X173500Y691000D02*
D03*
X166000Y676000D02*
D03*
X173500Y661000D02*
D03*
X166000Y646000D02*
D03*
X173500Y631000D02*
D03*
X166000Y616000D02*
D03*
X173500Y601000D02*
D03*
X166000Y586000D02*
D03*
X173500Y571000D02*
D03*
X166000Y556000D02*
D03*
X173500Y511000D02*
D03*
X166000Y466000D02*
D03*
X173500Y421000D02*
D03*
X166000Y406000D02*
D03*
X173500Y391000D02*
D03*
X166000Y376000D02*
D03*
X173500Y361000D02*
D03*
X166000Y346000D02*
D03*
X173500Y331000D02*
D03*
X166000Y316000D02*
D03*
X173500Y301000D02*
D03*
X166000Y286000D02*
D03*
X173500Y271000D02*
D03*
X166000Y256000D02*
D03*
X173500Y241000D02*
D03*
X166000Y196000D02*
D03*
X173500Y181000D02*
D03*
X166000Y76000D02*
D03*
X173500Y61000D02*
D03*
X166000Y46000D02*
D03*
X173500Y31000D02*
D03*
X166000Y16000D02*
D03*
X158500Y691000D02*
D03*
X151000Y676000D02*
D03*
X158500Y661000D02*
D03*
X151000Y646000D02*
D03*
X158500Y631000D02*
D03*
X151000Y616000D02*
D03*
X158500Y601000D02*
D03*
X151000Y586000D02*
D03*
X158500Y571000D02*
D03*
X151000Y556000D02*
D03*
X158500Y541000D02*
D03*
X151000Y526000D02*
D03*
X158500Y451000D02*
D03*
X151000Y436000D02*
D03*
X158500Y391000D02*
D03*
Y361000D02*
D03*
Y331000D02*
D03*
Y301000D02*
D03*
Y271000D02*
D03*
Y241000D02*
D03*
Y181000D02*
D03*
X151000Y76000D02*
D03*
X158500Y61000D02*
D03*
X151000Y16000D02*
D03*
X143500Y691000D02*
D03*
X136000Y676000D02*
D03*
X143500Y661000D02*
D03*
X136000Y646000D02*
D03*
X143500Y631000D02*
D03*
X136000Y616000D02*
D03*
X143500Y601000D02*
D03*
X136000Y586000D02*
D03*
X143500Y571000D02*
D03*
X136000Y556000D02*
D03*
X143500Y541000D02*
D03*
X136000Y526000D02*
D03*
X143500Y481000D02*
D03*
X136000Y76000D02*
D03*
X143500Y61000D02*
D03*
X136000Y16000D02*
D03*
X128500Y691000D02*
D03*
X121000Y676000D02*
D03*
X128500Y661000D02*
D03*
X121000Y646000D02*
D03*
X128500Y631000D02*
D03*
X121000Y616000D02*
D03*
X128500Y601000D02*
D03*
X121000Y586000D02*
D03*
X128500Y571000D02*
D03*
X121000Y556000D02*
D03*
X128500Y541000D02*
D03*
X121000Y526000D02*
D03*
X128500Y511000D02*
D03*
X121000Y496000D02*
D03*
X128500Y91000D02*
D03*
X121000Y76000D02*
D03*
X128500Y61000D02*
D03*
X121000Y46000D02*
D03*
X128500Y31000D02*
D03*
X121000Y16000D02*
D03*
X113500Y691000D02*
D03*
X106000Y676000D02*
D03*
X113500Y661000D02*
D03*
X106000Y646000D02*
D03*
X113500Y631000D02*
D03*
X106000Y616000D02*
D03*
X113500Y601000D02*
D03*
X106000Y586000D02*
D03*
X113500Y571000D02*
D03*
X106000Y556000D02*
D03*
X113500Y541000D02*
D03*
X106000Y526000D02*
D03*
X113500Y511000D02*
D03*
X106000Y496000D02*
D03*
Y106000D02*
D03*
X113500Y91000D02*
D03*
X106000Y76000D02*
D03*
X113500Y61000D02*
D03*
X106000Y46000D02*
D03*
X113500Y31000D02*
D03*
X106000Y16000D02*
D03*
X98500Y691000D02*
D03*
X91000Y676000D02*
D03*
X98500Y661000D02*
D03*
X91000Y646000D02*
D03*
X98500Y631000D02*
D03*
X91000Y616000D02*
D03*
X98500Y601000D02*
D03*
X91000Y586000D02*
D03*
X98500Y571000D02*
D03*
X91000Y556000D02*
D03*
X98500Y541000D02*
D03*
X91000Y526000D02*
D03*
X98500Y511000D02*
D03*
X91000Y496000D02*
D03*
X98500Y481000D02*
D03*
X91000Y466000D02*
D03*
Y436000D02*
D03*
Y406000D02*
D03*
Y376000D02*
D03*
Y346000D02*
D03*
Y316000D02*
D03*
Y286000D02*
D03*
Y256000D02*
D03*
Y226000D02*
D03*
Y196000D02*
D03*
Y166000D02*
D03*
Y136000D02*
D03*
X98500Y121000D02*
D03*
X91000Y106000D02*
D03*
X98500Y91000D02*
D03*
X91000Y76000D02*
D03*
X98500Y61000D02*
D03*
X91000Y46000D02*
D03*
X98500Y31000D02*
D03*
X91000Y16000D02*
D03*
X83500Y691000D02*
D03*
X76000Y676000D02*
D03*
X83500Y661000D02*
D03*
X76000Y646000D02*
D03*
X83500Y631000D02*
D03*
X76000Y616000D02*
D03*
X83500Y601000D02*
D03*
X76000Y586000D02*
D03*
X83500Y571000D02*
D03*
X76000Y556000D02*
D03*
X83500Y541000D02*
D03*
X76000Y526000D02*
D03*
X83500Y511000D02*
D03*
X76000Y496000D02*
D03*
X83500Y481000D02*
D03*
X76000Y466000D02*
D03*
X83500Y451000D02*
D03*
X76000Y436000D02*
D03*
X83500Y421000D02*
D03*
X76000Y406000D02*
D03*
X83500Y391000D02*
D03*
X76000Y376000D02*
D03*
X83500Y361000D02*
D03*
X76000Y346000D02*
D03*
X83500Y331000D02*
D03*
X76000Y316000D02*
D03*
X83500Y301000D02*
D03*
X76000Y286000D02*
D03*
X83500Y271000D02*
D03*
X76000Y256000D02*
D03*
X83500Y241000D02*
D03*
X76000Y226000D02*
D03*
X83500Y211000D02*
D03*
X76000Y196000D02*
D03*
X83500Y181000D02*
D03*
X76000Y166000D02*
D03*
X83500Y151000D02*
D03*
X76000Y136000D02*
D03*
X83500Y121000D02*
D03*
X76000Y106000D02*
D03*
X83500Y91000D02*
D03*
X76000Y76000D02*
D03*
X83500Y61000D02*
D03*
Y31000D02*
D03*
X76000Y16000D02*
D03*
X68500Y691000D02*
D03*
X61000Y676000D02*
D03*
X68500Y661000D02*
D03*
X61000Y646000D02*
D03*
X68500Y631000D02*
D03*
X61000Y616000D02*
D03*
X68500Y601000D02*
D03*
X61000Y586000D02*
D03*
X68500Y571000D02*
D03*
X61000Y556000D02*
D03*
X68500Y541000D02*
D03*
X61000Y526000D02*
D03*
X68500Y511000D02*
D03*
X61000Y496000D02*
D03*
X68500Y481000D02*
D03*
X61000Y466000D02*
D03*
X68500Y451000D02*
D03*
X61000Y436000D02*
D03*
X68500Y421000D02*
D03*
X61000Y406000D02*
D03*
X68500Y391000D02*
D03*
X61000Y376000D02*
D03*
X68500Y361000D02*
D03*
X61000Y346000D02*
D03*
X68500Y331000D02*
D03*
X61000Y316000D02*
D03*
X68500Y301000D02*
D03*
X61000Y286000D02*
D03*
X68500Y271000D02*
D03*
X61000Y256000D02*
D03*
X68500Y241000D02*
D03*
X61000Y226000D02*
D03*
X68500Y211000D02*
D03*
X61000Y196000D02*
D03*
X68500Y181000D02*
D03*
X61000Y166000D02*
D03*
X68500Y151000D02*
D03*
X61000Y136000D02*
D03*
X68500Y121000D02*
D03*
X61000Y106000D02*
D03*
X68500Y91000D02*
D03*
X61000Y76000D02*
D03*
Y16000D02*
D03*
X53500Y691000D02*
D03*
Y631000D02*
D03*
X46000Y616000D02*
D03*
X53500Y601000D02*
D03*
X46000Y586000D02*
D03*
X53500Y571000D02*
D03*
X46000Y556000D02*
D03*
X53500Y541000D02*
D03*
X46000Y526000D02*
D03*
X53500Y511000D02*
D03*
X46000Y496000D02*
D03*
X53500Y481000D02*
D03*
X46000Y466000D02*
D03*
X53500Y451000D02*
D03*
X46000Y436000D02*
D03*
X53500Y421000D02*
D03*
X46000Y406000D02*
D03*
X53500Y391000D02*
D03*
X46000Y376000D02*
D03*
X53500Y361000D02*
D03*
X46000Y346000D02*
D03*
X53500Y331000D02*
D03*
X46000Y316000D02*
D03*
X53500Y301000D02*
D03*
X46000Y286000D02*
D03*
X53500Y271000D02*
D03*
X46000Y256000D02*
D03*
X53500Y241000D02*
D03*
X46000Y226000D02*
D03*
X53500Y211000D02*
D03*
X46000Y196000D02*
D03*
X53500Y181000D02*
D03*
X46000Y166000D02*
D03*
X53500Y151000D02*
D03*
X46000Y136000D02*
D03*
X53500Y121000D02*
D03*
X46000Y106000D02*
D03*
X53500Y91000D02*
D03*
X46000Y76000D02*
D03*
X53500Y61000D02*
D03*
X46000Y46000D02*
D03*
X53500Y31000D02*
D03*
X46000Y16000D02*
D03*
X38500Y691000D02*
D03*
Y631000D02*
D03*
X31000Y616000D02*
D03*
X38500Y601000D02*
D03*
X31000Y586000D02*
D03*
X38500Y571000D02*
D03*
X31000Y556000D02*
D03*
X38500Y541000D02*
D03*
X31000Y526000D02*
D03*
X38500Y511000D02*
D03*
X31000Y496000D02*
D03*
X38500Y481000D02*
D03*
X31000Y466000D02*
D03*
X38500Y451000D02*
D03*
X31000Y436000D02*
D03*
X38500Y421000D02*
D03*
X31000Y406000D02*
D03*
X38500Y391000D02*
D03*
X31000Y376000D02*
D03*
X38500Y361000D02*
D03*
X31000Y346000D02*
D03*
X38500Y331000D02*
D03*
X31000Y316000D02*
D03*
X38500Y301000D02*
D03*
X31000Y286000D02*
D03*
X38500Y271000D02*
D03*
X31000Y256000D02*
D03*
X38500Y241000D02*
D03*
X31000Y226000D02*
D03*
X38500Y211000D02*
D03*
X31000Y196000D02*
D03*
X38500Y181000D02*
D03*
X31000Y166000D02*
D03*
X38500Y151000D02*
D03*
X31000Y136000D02*
D03*
X38500Y121000D02*
D03*
X31000Y106000D02*
D03*
X38500Y91000D02*
D03*
X31000Y76000D02*
D03*
X38500Y61000D02*
D03*
X31000Y46000D02*
D03*
X38500Y31000D02*
D03*
X31000Y16000D02*
D03*
X23500Y691000D02*
D03*
X16000Y676000D02*
D03*
Y646000D02*
D03*
X23500Y631000D02*
D03*
X16000Y616000D02*
D03*
X23500Y601000D02*
D03*
X16000Y586000D02*
D03*
X23500Y571000D02*
D03*
X16000Y556000D02*
D03*
X23500Y541000D02*
D03*
X16000Y526000D02*
D03*
X23500Y511000D02*
D03*
X16000Y496000D02*
D03*
X23500Y481000D02*
D03*
X16000Y466000D02*
D03*
X23500Y451000D02*
D03*
X16000Y436000D02*
D03*
X23500Y421000D02*
D03*
X16000Y406000D02*
D03*
X23500Y391000D02*
D03*
X16000Y376000D02*
D03*
X23500Y361000D02*
D03*
X16000Y346000D02*
D03*
X23500Y331000D02*
D03*
X16000Y316000D02*
D03*
X23500Y301000D02*
D03*
X16000Y286000D02*
D03*
X23500Y271000D02*
D03*
X16000Y256000D02*
D03*
X23500Y241000D02*
D03*
X16000Y226000D02*
D03*
X23500Y211000D02*
D03*
X16000Y196000D02*
D03*
X23500Y181000D02*
D03*
X16000Y166000D02*
D03*
X23500Y151000D02*
D03*
X16000Y136000D02*
D03*
X23500Y121000D02*
D03*
X16000Y106000D02*
D03*
X23500Y91000D02*
D03*
X16000Y76000D02*
D03*
X23500Y61000D02*
D03*
X16000Y46000D02*
D03*
X23500Y31000D02*
D03*
X16000Y16000D02*
D03*
X1270000Y670000D02*
D03*
X1250000D02*
D03*
X1270000Y650000D02*
D03*
X1250000D02*
D03*
X1245000Y660000D02*
D03*
X1275000D02*
D03*
X1260000Y675000D02*
D03*
Y645000D02*
D03*
X30000Y670000D02*
D03*
X25000Y660000D02*
D03*
X30000Y650000D02*
D03*
X50000D02*
D03*
X55000Y660000D02*
D03*
X50000Y670000D02*
D03*
X40000Y675000D02*
D03*
Y645000D02*
D03*
D35*
X643000Y582000D02*
D03*
X631000Y556000D02*
D03*
X619000Y532000D02*
D03*
X595000Y481000D02*
D03*
X649000Y383000D02*
D03*
Y256000D02*
D03*
Y358000D02*
D03*
Y282000D02*
D03*
Y307000D02*
D03*
Y332000D02*
D03*
X583000Y456000D02*
D03*
X607000Y508000D02*
D03*
X921000Y532000D02*
D03*
Y509000D02*
D03*
X782000Y558000D02*
D03*
X797000Y583000D02*
D03*
X989000Y456000D02*
D03*
X990000Y482000D02*
D03*
X542000Y456000D02*
D03*
Y481000D02*
D03*
X543000Y508000D02*
D03*
X542000Y582000D02*
D03*
Y556000D02*
D03*
Y532000D02*
D03*
X461000Y249000D02*
D03*
X410000Y226000D02*
D03*
M02*
