G04*
G04 #@! TF.GenerationSoftware,Altium Limited,Altium Designer,25.8.1 (18)*
G04*
G04 Layer_Physical_Order=1*
G04 Layer_Color=255*
%FSLAX44Y44*%
%MOMM*%
G71*
G04*
G04 #@! TF.SameCoordinates,FC58CDD3-E7A9-4F1C-8029-0497A79DBB12*
G04*
G04*
G04 #@! TF.FilePolarity,Positive*
G04*
G01*
G75*
%ADD14R,1.2700X2.8000*%
%ADD15R,2.8000X1.2700*%
%ADD16R,1.3500X1.0000*%
%ADD17R,1.3000X0.7000*%
%ADD27C,0.3493*%
%ADD28C,3.5000*%
%ADD29C,1.6000*%
%ADD30C,1.2000*%
%ADD31C,1.5000*%
%ADD32C,2.0000*%
%ADD33C,2.3000*%
%ADD34C,0.3000*%
%ADD35C,0.8000*%
G36*
X1300000Y0D02*
X0D01*
Y700000D01*
X1300000D01*
Y0D01*
D02*
G37*
%LPC*%
G36*
X445040Y601540D02*
X437270D01*
Y596770D01*
X445040D01*
Y601540D01*
D02*
G37*
G36*
X434730D02*
X426960D01*
Y596770D01*
X434730D01*
Y601540D01*
D02*
G37*
G36*
X505040D02*
X497270D01*
Y596770D01*
X505040D01*
Y601540D01*
D02*
G37*
G36*
X415040D02*
X407270D01*
Y596770D01*
X415040D01*
Y601540D01*
D02*
G37*
G36*
X385040D02*
X377270D01*
Y596770D01*
X385040D01*
Y601540D01*
D02*
G37*
G36*
X494730D02*
X486960D01*
Y596770D01*
X494730D01*
Y601540D01*
D02*
G37*
G36*
X404730D02*
X396960D01*
Y596770D01*
X404730D01*
Y601540D01*
D02*
G37*
G36*
X374730D02*
X366960D01*
Y596770D01*
X374730D01*
Y601540D01*
D02*
G37*
G36*
X355040D02*
X347270D01*
Y596770D01*
X355040D01*
Y601540D01*
D02*
G37*
G36*
X344730D02*
X336960D01*
Y596770D01*
X344730D01*
Y601540D01*
D02*
G37*
G36*
X475040Y601040D02*
X467270D01*
Y596270D01*
X475040D01*
Y601040D01*
D02*
G37*
G36*
X464730D02*
X456960D01*
Y596270D01*
X464730D01*
Y601040D01*
D02*
G37*
G36*
X505040Y594230D02*
X497270D01*
Y589460D01*
X505040D01*
Y594230D01*
D02*
G37*
G36*
X494730D02*
X486960D01*
Y589460D01*
X494730D01*
Y594230D01*
D02*
G37*
G36*
X445040Y594230D02*
X437270D01*
Y589460D01*
X445040D01*
Y594230D01*
D02*
G37*
G36*
X434730D02*
X426960D01*
Y589460D01*
X434730D01*
Y594230D01*
D02*
G37*
G36*
X415040Y594230D02*
X407270D01*
Y589460D01*
X415040D01*
Y594230D01*
D02*
G37*
G36*
X404730D02*
X396960D01*
Y589460D01*
X404730D01*
Y594230D01*
D02*
G37*
G36*
X385040D02*
X377270D01*
Y589460D01*
X385040D01*
Y594230D01*
D02*
G37*
G36*
X374730D02*
X366960D01*
Y589460D01*
X374730D01*
Y594230D01*
D02*
G37*
G36*
X355040Y594230D02*
X347270D01*
Y589460D01*
X355040D01*
Y594230D01*
D02*
G37*
G36*
X344730D02*
X336960D01*
Y589460D01*
X344730D01*
Y594230D01*
D02*
G37*
G36*
X475040Y593730D02*
X467270D01*
Y588960D01*
X475040D01*
Y593730D01*
D02*
G37*
G36*
X464730D02*
X456960D01*
Y588960D01*
X464730D01*
Y593730D01*
D02*
G37*
G36*
X754540Y592390D02*
X721460D01*
Y587887D01*
X721277Y587871D01*
X698723D01*
X698540Y587887D01*
Y592390D01*
X665460D01*
Y586387D01*
X665277Y586371D01*
X648438D01*
X648283Y586393D01*
X648117Y586428D01*
X647984Y586467D01*
X647885Y586505D01*
X647813Y586539D01*
X647765Y586569D01*
X647732Y586593D01*
X647611Y586705D01*
X647439Y586810D01*
X647016Y587233D01*
X645524Y588094D01*
X643861Y588540D01*
X642139D01*
X640476Y588094D01*
X638984Y587233D01*
X638561Y586810D01*
X638389Y586705D01*
X638268Y586593D01*
X638235Y586569D01*
X638187Y586539D01*
X638115Y586505D01*
X638016Y586467D01*
X637883Y586428D01*
X637716Y586393D01*
X637562Y586371D01*
X547438D01*
X547284Y586393D01*
X547117Y586428D01*
X546984Y586467D01*
X546885Y586505D01*
X546814Y586539D01*
X546765Y586569D01*
X546732Y586593D01*
X546611Y586705D01*
X546439Y586810D01*
X546016Y587233D01*
X544524Y588094D01*
X542861Y588540D01*
X541139D01*
X539476Y588094D01*
X537984Y587233D01*
X536767Y586016D01*
X535906Y584524D01*
X535460Y582861D01*
Y581139D01*
X535906Y579476D01*
X536767Y577984D01*
X537984Y576767D01*
X539476Y575906D01*
X541139Y575460D01*
X542861D01*
X544524Y575906D01*
X546016Y576767D01*
X546439Y577190D01*
X546611Y577295D01*
X546732Y577407D01*
X546765Y577431D01*
X546814Y577461D01*
X546885Y577495D01*
X546984Y577533D01*
X547117Y577572D01*
X547284Y577607D01*
X547438Y577630D01*
X637562D01*
X637717Y577607D01*
X637883Y577572D01*
X638016Y577533D01*
X638115Y577495D01*
X638186Y577461D01*
X638235Y577431D01*
X638268Y577407D01*
X638389Y577295D01*
X638561Y577190D01*
X638984Y576767D01*
X640476Y575906D01*
X642139Y575460D01*
X643861D01*
X645524Y575906D01*
X647016Y576767D01*
X647439Y577190D01*
X647611Y577295D01*
X647732Y577407D01*
X647765Y577431D01*
X647813Y577461D01*
X647885Y577495D01*
X647984Y577533D01*
X648117Y577572D01*
X648283Y577607D01*
X648438Y577630D01*
X665277D01*
X665460Y577613D01*
Y574610D01*
X698540D01*
Y579114D01*
X698723Y579130D01*
X721277D01*
X721460Y579114D01*
Y574610D01*
X754540D01*
Y592390D01*
D02*
G37*
G36*
X904540D02*
X871460D01*
Y587887D01*
X871277Y587871D01*
X848723D01*
X848540Y587887D01*
Y592390D01*
X815460D01*
Y587387D01*
X815277Y587370D01*
X802438D01*
X802283Y587393D01*
X802116Y587428D01*
X801984Y587467D01*
X801885Y587505D01*
X801814Y587539D01*
X801765Y587569D01*
X801732Y587593D01*
X801611Y587705D01*
X801439Y587810D01*
X801016Y588233D01*
X799524Y589094D01*
X797861Y589540D01*
X796139D01*
X794476Y589094D01*
X792984Y588233D01*
X791767Y587016D01*
X790906Y585524D01*
X790460Y583861D01*
Y582139D01*
X790906Y580476D01*
X791767Y578984D01*
X792984Y577767D01*
X794476Y576906D01*
X796139Y576460D01*
X797861D01*
X799524Y576906D01*
X801016Y577767D01*
X801439Y578190D01*
X801611Y578295D01*
X801732Y578407D01*
X801765Y578431D01*
X801814Y578461D01*
X801885Y578495D01*
X801984Y578533D01*
X802117Y578572D01*
X802283Y578607D01*
X802438Y578629D01*
X815277D01*
X815460Y578613D01*
Y574610D01*
X848540D01*
Y579114D01*
X848723Y579130D01*
X871277D01*
X871460Y579114D01*
Y574610D01*
X904540D01*
Y592390D01*
D02*
G37*
G36*
X754540Y566990D02*
X721460D01*
Y562487D01*
X721277Y562471D01*
X698723D01*
X698540Y562487D01*
Y566990D01*
X665460D01*
Y560387D01*
X665277Y560370D01*
X636438D01*
X636283Y560393D01*
X636116Y560428D01*
X635984Y560467D01*
X635885Y560505D01*
X635813Y560539D01*
X635765Y560569D01*
X635732Y560593D01*
X635611Y560705D01*
X635439Y560810D01*
X635016Y561233D01*
X633524Y562094D01*
X631861Y562540D01*
X630139D01*
X628476Y562094D01*
X626984Y561233D01*
X626561Y560810D01*
X626389Y560705D01*
X626268Y560593D01*
X626235Y560569D01*
X626187Y560539D01*
X626115Y560505D01*
X626016Y560467D01*
X625883Y560428D01*
X625717Y560392D01*
X625562Y560370D01*
X547438D01*
X547284Y560393D01*
X547117Y560428D01*
X546984Y560467D01*
X546885Y560505D01*
X546814Y560539D01*
X546765Y560569D01*
X546732Y560593D01*
X546611Y560705D01*
X546439Y560810D01*
X546016Y561233D01*
X544524Y562094D01*
X542861Y562540D01*
X541139D01*
X539476Y562094D01*
X537984Y561233D01*
X536767Y560016D01*
X535906Y558524D01*
X535460Y556861D01*
Y555139D01*
X535906Y553476D01*
X536767Y551984D01*
X537984Y550767D01*
X539476Y549906D01*
X541139Y549460D01*
X542861D01*
X544524Y549906D01*
X546016Y550767D01*
X546439Y551190D01*
X546611Y551295D01*
X546732Y551407D01*
X546765Y551431D01*
X546814Y551461D01*
X546885Y551495D01*
X546984Y551533D01*
X547117Y551572D01*
X547284Y551608D01*
X547438Y551629D01*
X625562D01*
X625717Y551608D01*
X625883Y551572D01*
X626016Y551533D01*
X626115Y551495D01*
X626186Y551461D01*
X626235Y551431D01*
X626268Y551407D01*
X626389Y551295D01*
X626561Y551190D01*
X626984Y550767D01*
X628476Y549906D01*
X630139Y549460D01*
X631861D01*
X633524Y549906D01*
X635016Y550767D01*
X635439Y551190D01*
X635611Y551295D01*
X635732Y551407D01*
X635765Y551431D01*
X635813Y551461D01*
X635885Y551495D01*
X635984Y551533D01*
X636117Y551572D01*
X636283Y551608D01*
X636438Y551629D01*
X665277D01*
X665460Y551613D01*
Y549210D01*
X698540D01*
Y553714D01*
X698723Y553730D01*
X721277D01*
X721460Y553714D01*
Y549210D01*
X754540D01*
Y566990D01*
D02*
G37*
G36*
X904540D02*
X871460D01*
Y562487D01*
X871277Y562471D01*
X848723D01*
X848540Y562487D01*
Y566990D01*
X815460D01*
Y562387D01*
X815277Y562370D01*
X787438D01*
X787283Y562393D01*
X787116Y562428D01*
X786984Y562467D01*
X786885Y562505D01*
X786814Y562539D01*
X786765Y562569D01*
X786732Y562593D01*
X786611Y562705D01*
X786439Y562810D01*
X786016Y563233D01*
X784524Y564094D01*
X782861Y564540D01*
X781139D01*
X779476Y564094D01*
X777984Y563233D01*
X776767Y562016D01*
X775906Y560524D01*
X775460Y558861D01*
Y557139D01*
X775906Y555476D01*
X776767Y553984D01*
X777984Y552767D01*
X779476Y551906D01*
X781139Y551460D01*
X782861D01*
X784524Y551906D01*
X786016Y552767D01*
X786439Y553190D01*
X786611Y553295D01*
X786732Y553407D01*
X786765Y553431D01*
X786814Y553461D01*
X786885Y553495D01*
X786984Y553533D01*
X787117Y553572D01*
X787283Y553607D01*
X787438Y553629D01*
X815277D01*
X815460Y553613D01*
Y549210D01*
X848540D01*
Y553713D01*
X848723Y553730D01*
X871277D01*
X871460Y553713D01*
Y549210D01*
X904540D01*
Y566990D01*
D02*
G37*
G36*
X505040Y582540D02*
X486960D01*
Y570460D01*
X491613D01*
X491629Y570277D01*
Y563723D01*
X491613Y563540D01*
X486710D01*
Y555771D01*
X484170Y555521D01*
X484038Y556185D01*
X483090Y557603D01*
X481603Y559091D01*
X480185Y560038D01*
X478512Y560371D01*
X475473D01*
X475290Y560387D01*
Y563540D01*
X470386D01*
X470370Y563723D01*
Y569777D01*
X470386Y569960D01*
X475040D01*
Y582040D01*
X456960D01*
Y569960D01*
X461613D01*
X461629Y569777D01*
Y563723D01*
X461613Y563540D01*
X456710D01*
Y555771D01*
X454170Y555521D01*
X454038Y556185D01*
X453090Y557603D01*
X451603Y559091D01*
X450185Y560038D01*
X448512Y560371D01*
X445473D01*
X445290Y560387D01*
Y563540D01*
X440386D01*
X440370Y563723D01*
Y570277D01*
X440386Y570460D01*
X445040D01*
Y582540D01*
X426960D01*
Y570460D01*
X431613D01*
X431629Y570277D01*
Y563723D01*
X431613Y563540D01*
X426710D01*
Y555771D01*
X424170Y555521D01*
X424038Y556185D01*
X423090Y557603D01*
X421603Y559091D01*
X420185Y560038D01*
X418512Y560371D01*
X415473D01*
X415290Y560387D01*
Y563540D01*
X410387D01*
X410371Y563723D01*
Y570277D01*
X410387Y570460D01*
X415040D01*
Y582540D01*
X396960D01*
Y570460D01*
X401614D01*
X401630Y570277D01*
Y563723D01*
X401614Y563540D01*
X396710D01*
Y554697D01*
X394170Y554447D01*
X394038Y555112D01*
X393090Y556530D01*
X391603Y558018D01*
X390185Y558965D01*
X388512Y559298D01*
X385473D01*
X385290Y559314D01*
Y563540D01*
X380387D01*
X380371Y563723D01*
Y570277D01*
X380387Y570460D01*
X385040D01*
Y582540D01*
X366960D01*
Y570460D01*
X371614D01*
X371630Y570277D01*
Y563723D01*
X371614Y563540D01*
X366710D01*
Y548460D01*
Y542270D01*
X376000D01*
Y541000D01*
X377270D01*
Y533460D01*
X385290D01*
X385630Y531060D01*
Y527484D01*
X381310Y523164D01*
X380362Y521746D01*
X380030Y520074D01*
Y498723D01*
X380014Y498540D01*
X375510D01*
Y465460D01*
X393290D01*
Y498540D01*
X388787D01*
X388771Y498723D01*
Y518264D01*
X393090Y522584D01*
X394038Y524001D01*
X394370Y525674D01*
Y532976D01*
X396710Y533460D01*
X396911Y533460D01*
X404730D01*
Y541000D01*
X407270D01*
Y533460D01*
X415290D01*
X415630Y531060D01*
Y529684D01*
X406910Y520964D01*
X405962Y519546D01*
X405630Y517874D01*
Y498723D01*
X405613Y498540D01*
X400910D01*
Y465460D01*
X418690D01*
Y498540D01*
X414387D01*
X414370Y498723D01*
Y516064D01*
X423090Y524784D01*
X424038Y526201D01*
X424370Y527874D01*
Y532975D01*
X426710Y533460D01*
X426911Y533460D01*
X434730D01*
Y541000D01*
X437270D01*
Y533460D01*
X443413D01*
X444465Y530920D01*
X432110Y518564D01*
X431162Y517147D01*
X430830Y515474D01*
Y498723D01*
X430813Y498540D01*
X426310D01*
Y465460D01*
X444090D01*
Y498540D01*
X439587D01*
X439571Y498723D01*
Y513664D01*
X453090Y527184D01*
X454038Y528601D01*
X454370Y530274D01*
Y532976D01*
X456710Y533460D01*
X456911Y533460D01*
X464730D01*
Y541000D01*
X467270D01*
Y533460D01*
X473687D01*
X474739Y530920D01*
X457510Y513690D01*
X456562Y512273D01*
X456230Y510600D01*
Y498723D01*
X456213Y498540D01*
X451710D01*
Y465460D01*
X469490D01*
Y498540D01*
X464987D01*
X464971Y498723D01*
Y508790D01*
X483090Y526910D01*
X484038Y528327D01*
X484370Y530000D01*
Y532976D01*
X486710Y533460D01*
X486911Y533460D01*
X494730D01*
Y541000D01*
X497270D01*
Y533460D01*
X503687D01*
X504739Y530920D01*
X482910Y509090D01*
X481962Y507673D01*
X481630Y506000D01*
Y498723D01*
X481614Y498540D01*
X477110D01*
Y465460D01*
X494890D01*
Y498540D01*
X490387D01*
X490371Y498723D01*
Y504190D01*
X513090Y526910D01*
X514038Y528327D01*
X514370Y530000D01*
Y554652D01*
X514038Y556324D01*
X513090Y557742D01*
X511603Y559230D01*
X510185Y560177D01*
X508512Y560510D01*
X505473D01*
X505290Y560526D01*
Y563540D01*
X500387D01*
X500370Y563723D01*
Y570277D01*
X500387Y570460D01*
X505040D01*
Y582540D01*
D02*
G37*
G36*
X754540Y541590D02*
X721460D01*
Y537087D01*
X721277Y537071D01*
X698723D01*
X698540Y537087D01*
Y541590D01*
X665460D01*
Y536387D01*
X665277Y536371D01*
X624438D01*
X624283Y536393D01*
X624117Y536428D01*
X623984Y536467D01*
X623885Y536505D01*
X623814Y536539D01*
X623765Y536569D01*
X623732Y536593D01*
X623611Y536705D01*
X623439Y536810D01*
X623016Y537233D01*
X621524Y538094D01*
X619861Y538540D01*
X618139D01*
X616476Y538094D01*
X614984Y537233D01*
X614561Y536810D01*
X614389Y536705D01*
X614268Y536593D01*
X614235Y536569D01*
X614187Y536539D01*
X614115Y536505D01*
X614016Y536467D01*
X613884Y536428D01*
X613717Y536393D01*
X613562Y536371D01*
X547438D01*
X547284Y536393D01*
X547117Y536428D01*
X546984Y536467D01*
X546885Y536505D01*
X546814Y536539D01*
X546765Y536569D01*
X546732Y536593D01*
X546611Y536705D01*
X546439Y536810D01*
X546016Y537233D01*
X544524Y538094D01*
X542861Y538540D01*
X541139D01*
X539476Y538094D01*
X537984Y537233D01*
X536767Y536016D01*
X535906Y534524D01*
X535460Y532861D01*
Y531139D01*
X535906Y529476D01*
X536767Y527984D01*
X537984Y526767D01*
X539476Y525906D01*
X541139Y525460D01*
X542861D01*
X544524Y525906D01*
X546016Y526767D01*
X546439Y527190D01*
X546611Y527295D01*
X546732Y527407D01*
X546765Y527431D01*
X546814Y527461D01*
X546885Y527495D01*
X546984Y527533D01*
X547117Y527572D01*
X547284Y527607D01*
X547438Y527630D01*
X613562D01*
X613717Y527607D01*
X613884Y527572D01*
X614016Y527533D01*
X614115Y527495D01*
X614187Y527461D01*
X614235Y527431D01*
X614268Y527407D01*
X614389Y527295D01*
X614561Y527190D01*
X614984Y526767D01*
X616476Y525906D01*
X618139Y525460D01*
X619861D01*
X621524Y525906D01*
X623016Y526767D01*
X623439Y527190D01*
X623611Y527295D01*
X623732Y527407D01*
X623765Y527431D01*
X623814Y527461D01*
X623885Y527495D01*
X623984Y527533D01*
X624117Y527572D01*
X624283Y527607D01*
X624438Y527630D01*
X665277D01*
X665460Y527613D01*
Y523810D01*
X698540D01*
Y528314D01*
X698723Y528330D01*
X721277D01*
X721460Y528314D01*
Y523810D01*
X754540D01*
Y541590D01*
D02*
G37*
G36*
X904540D02*
X871460D01*
Y537087D01*
X871277Y537071D01*
X848723D01*
X848540Y537087D01*
Y541590D01*
X815460D01*
Y523810D01*
X848540D01*
Y528313D01*
X848723Y528330D01*
X871277D01*
X871460Y528313D01*
Y523810D01*
X904540D01*
Y527613D01*
X904723Y527630D01*
X915562D01*
X915717Y527607D01*
X915883Y527572D01*
X916016Y527533D01*
X916115Y527495D01*
X916187Y527461D01*
X916235Y527431D01*
X916268Y527407D01*
X916389Y527295D01*
X916561Y527190D01*
X916984Y526767D01*
X918476Y525906D01*
X920139Y525460D01*
X921861D01*
X923524Y525906D01*
X925016Y526767D01*
X926233Y527984D01*
X927094Y529476D01*
X927540Y531139D01*
Y532861D01*
X927094Y534524D01*
X926233Y536016D01*
X925016Y537233D01*
X923524Y538094D01*
X921861Y538540D01*
X920139D01*
X918476Y538094D01*
X916984Y537233D01*
X916561Y536810D01*
X916389Y536705D01*
X916268Y536593D01*
X916235Y536569D01*
X916187Y536539D01*
X916115Y536505D01*
X916016Y536467D01*
X915883Y536428D01*
X915716Y536393D01*
X915562Y536371D01*
X904723D01*
X904540Y536387D01*
Y541590D01*
D02*
G37*
G36*
X344730Y539730D02*
X336710D01*
Y533460D01*
X344730D01*
Y539730D01*
D02*
G37*
G36*
X374730D02*
X366710D01*
Y533460D01*
X374730D01*
Y539730D01*
D02*
G37*
G36*
X754540Y516190D02*
X721460D01*
Y511687D01*
X721277Y511671D01*
X698723D01*
X698540Y511687D01*
Y516190D01*
X665460D01*
Y512387D01*
X665277Y512370D01*
X612438D01*
X612284Y512393D01*
X612117Y512428D01*
X611984Y512467D01*
X611885Y512505D01*
X611814Y512539D01*
X611765Y512569D01*
X611732Y512593D01*
X611611Y512705D01*
X611439Y512810D01*
X611016Y513233D01*
X609524Y514094D01*
X607861Y514540D01*
X606139D01*
X604476Y514094D01*
X602984Y513233D01*
X602561Y512810D01*
X602389Y512705D01*
X602268Y512593D01*
X602235Y512569D01*
X602187Y512539D01*
X602115Y512505D01*
X602016Y512467D01*
X601884Y512428D01*
X601716Y512393D01*
X601562Y512370D01*
X548438D01*
X548284Y512393D01*
X548116Y512428D01*
X547984Y512467D01*
X547885Y512505D01*
X547813Y512539D01*
X547765Y512569D01*
X547732Y512593D01*
X547611Y512705D01*
X547439Y512810D01*
X547016Y513233D01*
X545524Y514094D01*
X543861Y514540D01*
X542139D01*
X540476Y514094D01*
X538984Y513233D01*
X537767Y512016D01*
X536906Y510524D01*
X536460Y508861D01*
Y507139D01*
X536906Y505476D01*
X537767Y503984D01*
X538984Y502767D01*
X540476Y501906D01*
X542139Y501460D01*
X543861D01*
X545524Y501906D01*
X547016Y502767D01*
X547439Y503190D01*
X547611Y503295D01*
X547732Y503407D01*
X547765Y503431D01*
X547813Y503461D01*
X547885Y503495D01*
X547984Y503533D01*
X548117Y503572D01*
X548284Y503607D01*
X548438Y503629D01*
X601562D01*
X601717Y503607D01*
X601884Y503572D01*
X602016Y503533D01*
X602115Y503495D01*
X602187Y503461D01*
X602235Y503431D01*
X602268Y503407D01*
X602389Y503295D01*
X602561Y503190D01*
X602984Y502767D01*
X604476Y501906D01*
X606139Y501460D01*
X607861D01*
X609524Y501906D01*
X611016Y502767D01*
X611439Y503190D01*
X611611Y503295D01*
X611732Y503407D01*
X611765Y503431D01*
X611814Y503461D01*
X611885Y503495D01*
X611984Y503533D01*
X612117Y503572D01*
X612284Y503607D01*
X612438Y503629D01*
X665277D01*
X665460Y503613D01*
Y498410D01*
X698540D01*
Y502914D01*
X698723Y502930D01*
X721277D01*
X721460Y502914D01*
Y498410D01*
X754540D01*
Y516190D01*
D02*
G37*
G36*
X904540D02*
X871460D01*
Y511687D01*
X871277Y511671D01*
X848723D01*
X848540Y511687D01*
Y516190D01*
X815460D01*
Y498410D01*
X848540D01*
Y502914D01*
X848723Y502930D01*
X871277D01*
X871460Y502914D01*
Y498410D01*
X904540D01*
Y504613D01*
X904723Y504630D01*
X915562D01*
X915717Y504607D01*
X915883Y504572D01*
X916016Y504533D01*
X916115Y504495D01*
X916187Y504461D01*
X916235Y504431D01*
X916268Y504407D01*
X916389Y504295D01*
X916561Y504190D01*
X916984Y503767D01*
X918476Y502906D01*
X920139Y502460D01*
X921861D01*
X923524Y502906D01*
X925016Y503767D01*
X926233Y504984D01*
X927094Y506476D01*
X927540Y508139D01*
Y509861D01*
X927094Y511524D01*
X926233Y513016D01*
X925016Y514233D01*
X923524Y515094D01*
X921861Y515540D01*
X920139D01*
X918476Y515094D01*
X916984Y514233D01*
X916561Y513810D01*
X916389Y513705D01*
X916268Y513593D01*
X916235Y513569D01*
X916187Y513539D01*
X916115Y513505D01*
X916016Y513467D01*
X915883Y513428D01*
X915716Y513392D01*
X915562Y513371D01*
X904723D01*
X904540Y513387D01*
Y516190D01*
D02*
G37*
G36*
X754540Y490790D02*
X721460D01*
Y486287D01*
X721277Y486271D01*
X698723D01*
X698540Y486287D01*
Y490790D01*
X665460D01*
Y485387D01*
X665277Y485370D01*
X600438D01*
X600284Y485393D01*
X600117Y485428D01*
X599984Y485467D01*
X599885Y485505D01*
X599813Y485539D01*
X599765Y485569D01*
X599732Y485593D01*
X599611Y485705D01*
X599439Y485810D01*
X599016Y486233D01*
X597524Y487094D01*
X595861Y487540D01*
X594139D01*
X592476Y487094D01*
X590984Y486233D01*
X590561Y485810D01*
X590389Y485705D01*
X590268Y485593D01*
X590235Y485569D01*
X590187Y485539D01*
X590115Y485505D01*
X590016Y485467D01*
X589883Y485428D01*
X589716Y485392D01*
X589562Y485370D01*
X547438D01*
X547284Y485393D01*
X547117Y485428D01*
X546984Y485467D01*
X546885Y485505D01*
X546814Y485539D01*
X546765Y485569D01*
X546732Y485593D01*
X546611Y485705D01*
X546439Y485810D01*
X546016Y486233D01*
X544524Y487094D01*
X542861Y487540D01*
X541139D01*
X539476Y487094D01*
X537984Y486233D01*
X536767Y485016D01*
X535906Y483524D01*
X535460Y481861D01*
Y480139D01*
X535906Y478476D01*
X536767Y476984D01*
X537984Y475767D01*
X539476Y474906D01*
X541139Y474460D01*
X542861D01*
X544524Y474906D01*
X546016Y475767D01*
X546439Y476190D01*
X546611Y476295D01*
X546732Y476407D01*
X546765Y476431D01*
X546814Y476461D01*
X546885Y476495D01*
X546984Y476533D01*
X547117Y476572D01*
X547284Y476608D01*
X547438Y476629D01*
X589562D01*
X589716Y476608D01*
X589883Y476572D01*
X590016Y476533D01*
X590115Y476495D01*
X590187Y476461D01*
X590235Y476431D01*
X590268Y476407D01*
X590389Y476295D01*
X590561Y476190D01*
X590984Y475767D01*
X592476Y474906D01*
X594139Y474460D01*
X595861D01*
X597524Y474906D01*
X599016Y475767D01*
X599439Y476190D01*
X599611Y476295D01*
X599732Y476407D01*
X599765Y476431D01*
X599813Y476461D01*
X599885Y476495D01*
X599984Y476533D01*
X600117Y476572D01*
X600284Y476608D01*
X600438Y476629D01*
X665277D01*
X665460Y476613D01*
Y473010D01*
X698540D01*
Y477514D01*
X698723Y477530D01*
X721277D01*
X721460Y477514D01*
Y473010D01*
X754540D01*
Y490790D01*
D02*
G37*
G36*
X904540D02*
X871460D01*
Y486287D01*
X871277Y486271D01*
X848723D01*
X848540Y486287D01*
Y490790D01*
X815460D01*
Y473010D01*
X848540D01*
Y477514D01*
X848723Y477530D01*
X871277D01*
X871460Y477514D01*
Y473010D01*
X904540D01*
Y477613D01*
X904723Y477630D01*
X984562D01*
X984716Y477607D01*
X984883Y477572D01*
X985016Y477533D01*
X985115Y477495D01*
X985186Y477461D01*
X985235Y477431D01*
X985268Y477407D01*
X985389Y477295D01*
X985561Y477190D01*
X985984Y476767D01*
X987476Y475906D01*
X989139Y475460D01*
X990861D01*
X992524Y475906D01*
X994016Y476767D01*
X995233Y477984D01*
X996094Y479476D01*
X996540Y481139D01*
Y482861D01*
X996094Y484524D01*
X995233Y486016D01*
X994016Y487233D01*
X992524Y488094D01*
X990861Y488540D01*
X989139D01*
X987476Y488094D01*
X985984Y487233D01*
X985561Y486810D01*
X985389Y486705D01*
X985268Y486593D01*
X985235Y486569D01*
X985186Y486539D01*
X985115Y486505D01*
X985016Y486467D01*
X984883Y486428D01*
X984716Y486393D01*
X984562Y486371D01*
X904723D01*
X904540Y486387D01*
Y490790D01*
D02*
G37*
G36*
X355040Y582540D02*
X336960D01*
Y570460D01*
X341614D01*
X341630Y570277D01*
Y563723D01*
X341614Y563540D01*
X336710D01*
Y548460D01*
Y542270D01*
X346000D01*
Y541000D01*
X347270D01*
Y533460D01*
X354630D01*
Y498723D01*
X354613Y498540D01*
X350110D01*
Y465460D01*
X367890D01*
Y498540D01*
X363387D01*
X363371Y498723D01*
Y554512D01*
X363038Y556185D01*
X362090Y557603D01*
X360603Y559091D01*
X359185Y560038D01*
X357512Y560371D01*
X355473D01*
X355290Y560387D01*
Y563540D01*
X350387D01*
X350371Y563723D01*
Y570277D01*
X350387Y570460D01*
X355040D01*
Y582540D01*
D02*
G37*
G36*
X754540Y465390D02*
X721460D01*
Y460887D01*
X721277Y460871D01*
X698723D01*
X698540Y460887D01*
Y465390D01*
X665460D01*
Y460387D01*
X665277Y460370D01*
X588438D01*
X588284Y460393D01*
X588116Y460428D01*
X587984Y460467D01*
X587885Y460505D01*
X587813Y460539D01*
X587765Y460569D01*
X587732Y460593D01*
X587611Y460705D01*
X587439Y460810D01*
X587016Y461233D01*
X585524Y462094D01*
X583861Y462540D01*
X582139D01*
X580476Y462094D01*
X578984Y461233D01*
X578561Y460810D01*
X578389Y460705D01*
X578268Y460593D01*
X578235Y460569D01*
X578186Y460539D01*
X578115Y460505D01*
X578016Y460467D01*
X577883Y460428D01*
X577716Y460392D01*
X577562Y460370D01*
X547438D01*
X547284Y460393D01*
X547117Y460428D01*
X546984Y460467D01*
X546885Y460505D01*
X546814Y460539D01*
X546765Y460569D01*
X546732Y460593D01*
X546611Y460705D01*
X546439Y460810D01*
X546016Y461233D01*
X544524Y462094D01*
X542861Y462540D01*
X541139D01*
X539476Y462094D01*
X537984Y461233D01*
X536767Y460016D01*
X535906Y458524D01*
X535460Y456861D01*
Y455139D01*
X535906Y453476D01*
X536767Y451984D01*
X537984Y450767D01*
X539476Y449906D01*
X541139Y449460D01*
X542861D01*
X544524Y449906D01*
X546016Y450767D01*
X546439Y451190D01*
X546611Y451295D01*
X546732Y451407D01*
X546765Y451431D01*
X546814Y451461D01*
X546885Y451495D01*
X546984Y451533D01*
X547117Y451572D01*
X547284Y451608D01*
X547438Y451629D01*
X577562D01*
X577716Y451608D01*
X577883Y451572D01*
X578016Y451533D01*
X578115Y451495D01*
X578186Y451461D01*
X578235Y451431D01*
X578268Y451407D01*
X578389Y451295D01*
X578561Y451190D01*
X578984Y450767D01*
X580476Y449906D01*
X582139Y449460D01*
X583861D01*
X585524Y449906D01*
X587016Y450767D01*
X587439Y451190D01*
X587611Y451295D01*
X587732Y451407D01*
X587765Y451431D01*
X587813Y451461D01*
X587885Y451495D01*
X587984Y451533D01*
X588117Y451572D01*
X588284Y451608D01*
X588438Y451629D01*
X665277D01*
X665460Y451613D01*
Y447610D01*
X698540D01*
Y452114D01*
X698723Y452130D01*
X721277D01*
X721460Y452114D01*
Y447610D01*
X754540D01*
Y465390D01*
D02*
G37*
G36*
X904540D02*
X871460D01*
Y460887D01*
X871277Y460871D01*
X848723D01*
X848540Y460887D01*
Y465390D01*
X815460D01*
Y447610D01*
X848540D01*
Y452113D01*
X848723Y452130D01*
X871277D01*
X871460Y452113D01*
Y447610D01*
X904540D01*
Y451613D01*
X904723Y451629D01*
X983562D01*
X983717Y451608D01*
X983884Y451572D01*
X984016Y451533D01*
X984115Y451495D01*
X984186Y451461D01*
X984235Y451431D01*
X984268Y451407D01*
X984389Y451295D01*
X984561Y451190D01*
X984984Y450767D01*
X986476Y449906D01*
X988139Y449460D01*
X989861D01*
X991524Y449906D01*
X993016Y450767D01*
X994233Y451984D01*
X995094Y453476D01*
X995540Y455139D01*
Y456861D01*
X995094Y458524D01*
X994233Y460016D01*
X993016Y461233D01*
X991524Y462094D01*
X989861Y462540D01*
X988139D01*
X986476Y462094D01*
X984984Y461233D01*
X984561Y460810D01*
X984389Y460705D01*
X984268Y460593D01*
X984235Y460569D01*
X984187Y460539D01*
X984115Y460505D01*
X984016Y460467D01*
X983884Y460428D01*
X983717Y460392D01*
X983562Y460370D01*
X904723D01*
X904540Y460387D01*
Y465390D01*
D02*
G37*
G36*
Y392390D02*
X871460D01*
Y387887D01*
X871277Y387870D01*
X848723D01*
X848540Y387887D01*
Y392390D01*
X815460D01*
Y387887D01*
X815277Y387870D01*
X807500D01*
X805827Y387538D01*
X804410Y386590D01*
X759910Y342090D01*
X758962Y340672D01*
X758630Y339000D01*
Y214010D01*
X700021Y155402D01*
X699896Y155307D01*
X699645Y155153D01*
X699367Y155014D01*
X699055Y154891D01*
X698706Y154786D01*
X698316Y154700D01*
X697884Y154638D01*
X697406Y154600D01*
X696813Y154589D01*
X696588Y154540D01*
X695676D01*
X693504Y153958D01*
X691557Y152834D01*
X689967Y151244D01*
X688842Y149297D01*
X688260Y147125D01*
Y144876D01*
X688842Y142704D01*
X689967Y140757D01*
X691557Y139166D01*
X693504Y138042D01*
X695676Y137460D01*
X697924D01*
X700097Y138042D01*
X702044Y139166D01*
X703634Y140757D01*
X704758Y142704D01*
X705340Y144876D01*
Y145788D01*
X705389Y146013D01*
X705400Y146606D01*
X705438Y147084D01*
X705500Y147516D01*
X705586Y147906D01*
X705691Y148255D01*
X705814Y148567D01*
X705953Y148845D01*
X706107Y149095D01*
X706202Y149221D01*
X766090Y209110D01*
X767038Y210527D01*
X767371Y212200D01*
Y337190D01*
X809310Y379129D01*
X815277D01*
X815460Y379113D01*
Y374610D01*
X848540D01*
Y379113D01*
X848723Y379129D01*
X871277D01*
X871460Y379113D01*
Y374610D01*
X904540D01*
Y392390D01*
D02*
G37*
G36*
X754540D02*
X721460D01*
Y387887D01*
X721277Y387870D01*
X698723D01*
X698540Y387887D01*
Y392390D01*
X665460D01*
Y387387D01*
X665277Y387370D01*
X654438D01*
X654284Y387393D01*
X654117Y387428D01*
X653984Y387467D01*
X653885Y387505D01*
X653813Y387539D01*
X653765Y387569D01*
X653732Y387593D01*
X653611Y387705D01*
X653439Y387810D01*
X653016Y388233D01*
X651524Y389094D01*
X649861Y389540D01*
X648139D01*
X646476Y389094D01*
X644984Y388233D01*
X643767Y387016D01*
X642906Y385524D01*
X642460Y383861D01*
Y382139D01*
X642906Y380476D01*
X643767Y378984D01*
X644984Y377767D01*
X646476Y376906D01*
X648139Y376460D01*
X649861D01*
X651524Y376906D01*
X653016Y377767D01*
X653439Y378190D01*
X653611Y378295D01*
X653732Y378407D01*
X653765Y378431D01*
X653813Y378461D01*
X653885Y378495D01*
X653984Y378533D01*
X654117Y378572D01*
X654284Y378607D01*
X654438Y378629D01*
X665277D01*
X665460Y378613D01*
Y374610D01*
X698540D01*
Y379113D01*
X698723Y379129D01*
X721277D01*
X721460Y379113D01*
Y374610D01*
X754540D01*
Y392390D01*
D02*
G37*
G36*
X393290Y442540D02*
X375510D01*
Y409460D01*
X376687D01*
X377739Y406920D01*
X368910Y398090D01*
X367962Y396673D01*
X367630Y395000D01*
Y378540D01*
X360270D01*
Y362000D01*
Y345460D01*
X367630D01*
Y335000D01*
X367962Y333327D01*
X368910Y331910D01*
X376321Y324498D01*
X375510Y322540D01*
X375510D01*
Y289460D01*
X380013D01*
X380030Y289277D01*
Y176210D01*
X298190Y94370D01*
X157811D01*
X139161Y113020D01*
X139004Y113242D01*
X138816Y113578D01*
X138639Y113980D01*
X138479Y114451D01*
X138340Y114996D01*
X138235Y115578D01*
X138100Y117103D01*
X138089Y117958D01*
X138040Y118190D01*
Y119322D01*
X137356Y121876D01*
X136034Y124165D01*
X134165Y126034D01*
X131875Y127356D01*
X129322Y128040D01*
X126678D01*
X124125Y127356D01*
X121835Y126034D01*
X119966Y124165D01*
X118644Y121876D01*
X117960Y119322D01*
Y116678D01*
X118644Y114125D01*
X119966Y111836D01*
X121835Y109966D01*
X124125Y108645D01*
X126678Y107960D01*
X127811D01*
X128043Y107911D01*
X128932Y107900D01*
X129695Y107853D01*
X130386Y107772D01*
X131004Y107660D01*
X131549Y107522D01*
X132021Y107361D01*
X132422Y107185D01*
X132759Y106996D01*
X132981Y106839D01*
X152910Y86910D01*
X154328Y85962D01*
X156000Y85630D01*
X300000D01*
X301672Y85962D01*
X303090Y86910D01*
X387490Y171310D01*
X388438Y172728D01*
X388770Y174400D01*
Y289277D01*
X388787Y289460D01*
X393290D01*
Y322540D01*
X388770D01*
Y322600D01*
X388438Y324272D01*
X387490Y325690D01*
X376371Y336810D01*
Y345460D01*
X383130D01*
Y362000D01*
Y378540D01*
X376371D01*
Y393190D01*
X387491Y404310D01*
X388438Y405728D01*
X388771Y407400D01*
Y409277D01*
X388787Y409460D01*
X393290D01*
Y442540D01*
D02*
G37*
G36*
X494890Y378540D02*
X487270D01*
Y363270D01*
X494890D01*
Y378540D01*
D02*
G37*
G36*
X904540Y366990D02*
X871460D01*
Y362487D01*
X871277Y362471D01*
X848723D01*
X848540Y362487D01*
Y366990D01*
X815460D01*
Y362487D01*
X815277Y362471D01*
X803100D01*
X801428Y362138D01*
X800010Y361190D01*
X778910Y340090D01*
X777962Y338672D01*
X777629Y337000D01*
Y183810D01*
X718790Y124971D01*
X705726D01*
X705570Y124993D01*
X705283Y125061D01*
X704988Y125159D01*
X704682Y125293D01*
X704361Y125465D01*
X704025Y125680D01*
X703674Y125942D01*
X703310Y126252D01*
X702883Y126664D01*
X702689Y126789D01*
X702044Y127434D01*
X700097Y128558D01*
X697924Y129140D01*
X695676D01*
X693504Y128558D01*
X691557Y127434D01*
X689967Y125844D01*
X688842Y123897D01*
X688260Y121725D01*
Y119476D01*
X688842Y117304D01*
X689967Y115357D01*
X691557Y113766D01*
X693504Y112642D01*
X695676Y112060D01*
X697924D01*
X700097Y112642D01*
X702044Y113766D01*
X702689Y114411D01*
X702883Y114536D01*
X703310Y114948D01*
X703674Y115259D01*
X704024Y115520D01*
X704361Y115736D01*
X704682Y115908D01*
X704988Y116041D01*
X705283Y116140D01*
X705570Y116208D01*
X705726Y116230D01*
X720600D01*
X722273Y116562D01*
X723691Y117510D01*
X785090Y178910D01*
X786038Y180327D01*
X786370Y182000D01*
Y335190D01*
X804910Y353730D01*
X815277D01*
X815460Y353713D01*
Y349210D01*
X848540D01*
Y353713D01*
X848723Y353730D01*
X871277D01*
X871460Y353713D01*
Y349210D01*
X904540D01*
Y366990D01*
D02*
G37*
G36*
X754540D02*
X721460D01*
Y362487D01*
X721277Y362471D01*
X698723D01*
X698540Y362487D01*
Y366990D01*
X665460D01*
Y362387D01*
X665277Y362370D01*
X654438D01*
X654284Y362393D01*
X654117Y362428D01*
X653984Y362467D01*
X653885Y362505D01*
X653813Y362539D01*
X653765Y362569D01*
X653732Y362593D01*
X653611Y362705D01*
X653439Y362810D01*
X653016Y363233D01*
X651524Y364094D01*
X649861Y364540D01*
X648139D01*
X646476Y364094D01*
X644984Y363233D01*
X643767Y362016D01*
X642906Y360524D01*
X642460Y358861D01*
Y357139D01*
X642906Y355476D01*
X643767Y353984D01*
X644984Y352767D01*
X646476Y351906D01*
X648139Y351460D01*
X649861D01*
X651524Y351906D01*
X653016Y352767D01*
X653439Y353190D01*
X653611Y353295D01*
X653732Y353407D01*
X653765Y353431D01*
X653813Y353461D01*
X653885Y353495D01*
X653984Y353533D01*
X654117Y353572D01*
X654284Y353607D01*
X654438Y353629D01*
X665277D01*
X665460Y353613D01*
Y349210D01*
X698540D01*
Y353713D01*
X698723Y353730D01*
X721277D01*
X721460Y353713D01*
Y349210D01*
X754540D01*
Y366990D01*
D02*
G37*
G36*
X494890Y360730D02*
X487270D01*
Y345460D01*
X494890D01*
Y360730D01*
D02*
G37*
G36*
X418690Y442540D02*
X400910D01*
Y409460D01*
X402687D01*
X403739Y406920D01*
X393910Y397090D01*
X392962Y395672D01*
X392630Y394000D01*
Y378540D01*
X385670D01*
Y362000D01*
Y345460D01*
X392630D01*
Y336000D01*
X392962Y334328D01*
X393910Y332910D01*
X401933Y324887D01*
X400961Y322540D01*
X400910D01*
Y289460D01*
X405613D01*
X405630Y289277D01*
Y231438D01*
X405607Y231283D01*
X405572Y231117D01*
X405533Y230984D01*
X405495Y230885D01*
X405461Y230814D01*
X405431Y230765D01*
X405407Y230732D01*
X405295Y230611D01*
X405190Y230439D01*
X404767Y230016D01*
X403906Y228524D01*
X403460Y226861D01*
Y225139D01*
X403906Y223476D01*
X404767Y221984D01*
X405984Y220767D01*
X407476Y219906D01*
X409139Y219460D01*
X410861D01*
X412524Y219906D01*
X414016Y220767D01*
X415233Y221984D01*
X416094Y223476D01*
X416540Y225139D01*
Y226861D01*
X416094Y228524D01*
X415233Y230016D01*
X414810Y230439D01*
X414705Y230611D01*
X414593Y230732D01*
X414569Y230765D01*
X414539Y230814D01*
X414505Y230885D01*
X414467Y230984D01*
X414428Y231117D01*
X414393Y231283D01*
X414370Y231438D01*
Y289277D01*
X414387Y289460D01*
X418690D01*
Y322540D01*
X414170D01*
Y323200D01*
X413838Y324873D01*
X412890Y326290D01*
X401371Y337810D01*
Y345460D01*
X408530D01*
Y362000D01*
Y378540D01*
X401371D01*
Y392190D01*
X412891Y403710D01*
X413838Y405128D01*
X414171Y406800D01*
Y409277D01*
X414187Y409460D01*
X418690D01*
Y442540D01*
D02*
G37*
G36*
X904540Y341590D02*
X871460D01*
Y337087D01*
X871277Y337071D01*
X848723D01*
X848540Y337087D01*
Y341590D01*
X815460D01*
Y323810D01*
X848540D01*
Y328313D01*
X848723Y328330D01*
X871277D01*
X871460Y328313D01*
Y323810D01*
X904540D01*
Y328313D01*
X904723Y328330D01*
X927490D01*
X942430Y313389D01*
Y154925D01*
X942408Y154770D01*
X942340Y154483D01*
X942241Y154188D01*
X942108Y153882D01*
X941936Y153561D01*
X941720Y153224D01*
X941459Y152874D01*
X941148Y152510D01*
X940736Y152083D01*
X940612Y151889D01*
X939967Y151244D01*
X938842Y149297D01*
X938260Y147125D01*
Y144876D01*
X938842Y142704D01*
X939967Y140757D01*
X941557Y139166D01*
X943504Y138042D01*
X945676Y137460D01*
X947924D01*
X950097Y138042D01*
X952044Y139166D01*
X953634Y140757D01*
X954758Y142704D01*
X955340Y144876D01*
Y147125D01*
X954758Y149297D01*
X953634Y151244D01*
X952989Y151889D01*
X952865Y152083D01*
X952452Y152510D01*
X952142Y152874D01*
X951880Y153224D01*
X951665Y153561D01*
X951493Y153882D01*
X951359Y154188D01*
X951261Y154483D01*
X951193Y154770D01*
X951171Y154925D01*
Y315200D01*
X950838Y316872D01*
X949891Y318290D01*
X932390Y335790D01*
X930973Y336738D01*
X929300Y337071D01*
X904723D01*
X904540Y337087D01*
Y341590D01*
D02*
G37*
G36*
X754540D02*
X721460D01*
Y337087D01*
X721277Y337071D01*
X698723D01*
X698540Y337087D01*
Y341590D01*
X665460D01*
Y336387D01*
X665277Y336371D01*
X654438D01*
X654284Y336393D01*
X654117Y336428D01*
X653984Y336467D01*
X653885Y336505D01*
X653813Y336539D01*
X653765Y336569D01*
X653732Y336593D01*
X653611Y336705D01*
X653439Y336810D01*
X653016Y337233D01*
X651524Y338094D01*
X649861Y338540D01*
X648139D01*
X646476Y338094D01*
X644984Y337233D01*
X643767Y336016D01*
X642906Y334524D01*
X642460Y332861D01*
Y331139D01*
X642906Y329476D01*
X643767Y327984D01*
X644984Y326767D01*
X646476Y325906D01*
X648139Y325460D01*
X649861D01*
X651524Y325906D01*
X653016Y326767D01*
X653439Y327190D01*
X653611Y327295D01*
X653732Y327407D01*
X653765Y327431D01*
X653813Y327461D01*
X653885Y327495D01*
X653984Y327533D01*
X654117Y327572D01*
X654284Y327607D01*
X654438Y327630D01*
X665277D01*
X665460Y327613D01*
Y323810D01*
X698540D01*
Y328313D01*
X698723Y328330D01*
X721277D01*
X721460Y328313D01*
Y323810D01*
X754540D01*
Y341590D01*
D02*
G37*
G36*
X904540Y316190D02*
X871460D01*
Y311687D01*
X871277Y311670D01*
X848723D01*
X848540Y311687D01*
Y316190D01*
X815460D01*
Y298410D01*
X848540D01*
Y302913D01*
X848723Y302929D01*
X871277D01*
X871460Y302913D01*
Y298410D01*
X904540D01*
Y302913D01*
X904723Y302929D01*
X908890D01*
X924630Y287190D01*
Y251862D01*
X922093Y251091D01*
X922089D01*
X913590Y259590D01*
X912172Y260538D01*
X910500Y260870D01*
X904723D01*
X904540Y260887D01*
Y265390D01*
X871460D01*
Y260887D01*
X871277Y260870D01*
X848723D01*
X848540Y260887D01*
Y265390D01*
X815460D01*
Y247610D01*
X848540D01*
Y252113D01*
X848723Y252129D01*
X871277D01*
X871460Y252113D01*
Y247610D01*
X904540D01*
Y252113D01*
X904723Y252129D01*
X908690D01*
X914630Y246190D01*
Y212810D01*
X882910Y181090D01*
X881962Y179673D01*
X881629Y178000D01*
Y130000D01*
X881962Y128328D01*
X882910Y126910D01*
X906910Y102910D01*
X908327Y101962D01*
X910000Y101629D01*
X1180600D01*
X1182272Y101962D01*
X1183690Y102910D01*
X1191979Y111199D01*
X1192105Y111293D01*
X1192355Y111448D01*
X1192634Y111587D01*
X1192945Y111709D01*
X1193294Y111814D01*
X1193684Y111900D01*
X1194116Y111963D01*
X1194594Y112000D01*
X1195187Y112011D01*
X1195412Y112060D01*
X1196324D01*
X1198496Y112642D01*
X1200444Y113766D01*
X1202034Y115357D01*
X1203158Y117304D01*
X1203740Y119476D01*
Y121725D01*
X1203158Y123897D01*
X1202034Y125844D01*
X1200444Y127434D01*
X1198496Y128558D01*
X1196324Y129140D01*
X1194076D01*
X1191904Y128558D01*
X1189956Y127434D01*
X1188366Y125844D01*
X1187242Y123897D01*
X1186660Y121725D01*
Y120812D01*
X1186611Y120587D01*
X1186600Y119994D01*
X1186563Y119517D01*
X1186500Y119084D01*
X1186414Y118694D01*
X1186309Y118345D01*
X1186186Y118034D01*
X1186048Y117755D01*
X1185893Y117505D01*
X1185799Y117380D01*
X1178790Y110371D01*
X950991D01*
X950760Y110958D01*
X950561Y112910D01*
X952044Y113766D01*
X953634Y115357D01*
X954758Y117304D01*
X955340Y119476D01*
Y121725D01*
X954758Y123897D01*
X953634Y125844D01*
X952044Y127434D01*
X950097Y128558D01*
X947924Y129140D01*
X945676D01*
X943504Y128558D01*
X941557Y127434D01*
X940912Y126789D01*
X940718Y126664D01*
X940291Y126252D01*
X939927Y125942D01*
X939576Y125680D01*
X939240Y125465D01*
X938919Y125293D01*
X938612Y125159D01*
X938317Y125061D01*
X938030Y124993D01*
X937875Y124971D01*
X916210D01*
X904370Y136810D01*
Y173190D01*
X932090Y200910D01*
X933038Y202327D01*
X933371Y204000D01*
Y289000D01*
X933038Y290672D01*
X932090Y292090D01*
X913790Y310390D01*
X912373Y311338D01*
X910700Y311670D01*
X904723D01*
X904540Y311687D01*
Y316190D01*
D02*
G37*
G36*
X754540D02*
X721460D01*
Y311687D01*
X721277Y311670D01*
X698723D01*
X698540Y311687D01*
Y316190D01*
X665460D01*
Y311387D01*
X665277Y311371D01*
X654438D01*
X654284Y311392D01*
X654117Y311428D01*
X653984Y311467D01*
X653885Y311505D01*
X653813Y311539D01*
X653765Y311569D01*
X653732Y311593D01*
X653611Y311705D01*
X653439Y311810D01*
X653016Y312233D01*
X651524Y313094D01*
X649861Y313540D01*
X648139D01*
X646476Y313094D01*
X644984Y312233D01*
X643767Y311016D01*
X642906Y309524D01*
X642460Y307861D01*
Y306139D01*
X642906Y304476D01*
X643767Y302984D01*
X644984Y301767D01*
X646476Y300906D01*
X648139Y300460D01*
X649861D01*
X651524Y300906D01*
X653016Y301767D01*
X653439Y302190D01*
X653611Y302295D01*
X653732Y302407D01*
X653765Y302431D01*
X653813Y302461D01*
X653885Y302495D01*
X653984Y302533D01*
X654117Y302572D01*
X654284Y302607D01*
X654438Y302630D01*
X665277D01*
X665460Y302613D01*
Y298410D01*
X698540D01*
Y302913D01*
X698723Y302929D01*
X721277D01*
X721460Y302913D01*
Y298410D01*
X754540D01*
Y316190D01*
D02*
G37*
G36*
X904540Y290790D02*
X871460D01*
Y286287D01*
X871277Y286271D01*
X848723D01*
X848540Y286287D01*
Y290790D01*
X815460D01*
Y286287D01*
X815277Y286271D01*
X812900D01*
X811227Y285938D01*
X809810Y284990D01*
X796910Y272090D01*
X795962Y270672D01*
X795630Y269000D01*
Y196000D01*
X795962Y194328D01*
X796910Y192910D01*
X900910Y88910D01*
X902327Y87962D01*
X904000Y87629D01*
X1215000D01*
X1216673Y87962D01*
X1218090Y88910D01*
X1259090Y129910D01*
X1260038Y131327D01*
X1260370Y133000D01*
Y160000D01*
X1260038Y161672D01*
X1259090Y163090D01*
X1244090Y178090D01*
X1242673Y179038D01*
X1241000Y179370D01*
X1211000D01*
X1209327Y179038D01*
X1207910Y178090D01*
X1192110Y162290D01*
X1191162Y160873D01*
X1190830Y159200D01*
Y154925D01*
X1190808Y154770D01*
X1190740Y154483D01*
X1190641Y154188D01*
X1190508Y153882D01*
X1190335Y153561D01*
X1190120Y153224D01*
X1189859Y152874D01*
X1189548Y152510D01*
X1189136Y152083D01*
X1189011Y151889D01*
X1188366Y151244D01*
X1187242Y149297D01*
X1186660Y147125D01*
Y144876D01*
X1187242Y142704D01*
X1188366Y140757D01*
X1189956Y139166D01*
X1191904Y138042D01*
X1194076Y137460D01*
X1196324D01*
X1198496Y138042D01*
X1200444Y139166D01*
X1202034Y140757D01*
X1203158Y142704D01*
X1203740Y144876D01*
Y147125D01*
X1203158Y149297D01*
X1202034Y151244D01*
X1201389Y151889D01*
X1201264Y152083D01*
X1200852Y152510D01*
X1200542Y152874D01*
X1200280Y153224D01*
X1200065Y153561D01*
X1199892Y153882D01*
X1199759Y154188D01*
X1199660Y154483D01*
X1199592Y154770D01*
X1199570Y154925D01*
Y157390D01*
X1212810Y170630D01*
X1239190D01*
X1251629Y158190D01*
Y134810D01*
X1213190Y96370D01*
X905810D01*
X804370Y197810D01*
Y267190D01*
X812920Y275739D01*
X815460Y274687D01*
Y273010D01*
X848540D01*
Y277513D01*
X848723Y277530D01*
X871277D01*
X871460Y277513D01*
Y273010D01*
X904540D01*
Y290790D01*
D02*
G37*
G36*
X754540D02*
X721460D01*
Y286287D01*
X721277Y286271D01*
X698723D01*
X698540Y286287D01*
Y290790D01*
X665460D01*
Y286387D01*
X665277Y286371D01*
X654438D01*
X654284Y286392D01*
X654117Y286428D01*
X653984Y286467D01*
X653885Y286505D01*
X653813Y286539D01*
X653765Y286569D01*
X653732Y286593D01*
X653611Y286705D01*
X653439Y286810D01*
X653016Y287233D01*
X651524Y288094D01*
X649861Y288540D01*
X648139D01*
X646476Y288094D01*
X644984Y287233D01*
X643767Y286016D01*
X642906Y284524D01*
X642460Y282861D01*
Y281139D01*
X642906Y279476D01*
X643767Y277984D01*
X644984Y276767D01*
X646476Y275906D01*
X648139Y275460D01*
X649861D01*
X651524Y275906D01*
X653016Y276767D01*
X653439Y277190D01*
X653611Y277295D01*
X653732Y277407D01*
X653765Y277431D01*
X653813Y277461D01*
X653885Y277495D01*
X653984Y277533D01*
X654117Y277572D01*
X654284Y277607D01*
X654438Y277630D01*
X665277D01*
X665460Y277613D01*
Y273010D01*
X698540D01*
Y277513D01*
X698723Y277530D01*
X721277D01*
X721460Y277513D01*
Y273010D01*
X754540D01*
Y290790D01*
D02*
G37*
G36*
Y265390D02*
X721460D01*
Y260887D01*
X721277Y260870D01*
X698723D01*
X698540Y260887D01*
Y265390D01*
X665460D01*
Y260387D01*
X665277Y260371D01*
X654438D01*
X654284Y260392D01*
X654117Y260428D01*
X653984Y260467D01*
X653885Y260505D01*
X653813Y260539D01*
X653765Y260569D01*
X653732Y260593D01*
X653611Y260705D01*
X653439Y260810D01*
X653016Y261233D01*
X651524Y262094D01*
X649861Y262540D01*
X648139D01*
X646476Y262094D01*
X644984Y261233D01*
X643767Y260016D01*
X642906Y258524D01*
X642460Y256861D01*
Y255139D01*
X642906Y253476D01*
X643767Y251984D01*
X644984Y250767D01*
X646476Y249906D01*
X648139Y249460D01*
X649861D01*
X651524Y249906D01*
X653016Y250767D01*
X653439Y251190D01*
X653611Y251295D01*
X653732Y251407D01*
X653765Y251431D01*
X653813Y251461D01*
X653885Y251495D01*
X653984Y251533D01*
X654117Y251572D01*
X654284Y251607D01*
X654438Y251630D01*
X665277D01*
X665460Y251613D01*
Y247610D01*
X698540D01*
Y252113D01*
X698723Y252129D01*
X721277D01*
X721460Y252113D01*
Y247610D01*
X754540D01*
Y265390D01*
D02*
G37*
G36*
X469490Y442540D02*
X451710D01*
Y409460D01*
X456213D01*
X456230Y409277D01*
Y405410D01*
X444910Y394090D01*
X443962Y392673D01*
X443629Y391000D01*
Y378540D01*
X436470D01*
Y362000D01*
Y345460D01*
X443629D01*
Y336000D01*
X443962Y334328D01*
X444910Y332910D01*
X452933Y324887D01*
X451960Y322540D01*
X451710D01*
Y289460D01*
X456613D01*
X456629Y289277D01*
Y254438D01*
X456607Y254284D01*
X456572Y254116D01*
X456533Y253984D01*
X456495Y253885D01*
X456461Y253813D01*
X456431Y253765D01*
X456407Y253732D01*
X456295Y253611D01*
X456190Y253439D01*
X455767Y253016D01*
X454906Y251524D01*
X454460Y249861D01*
Y248139D01*
X454906Y246476D01*
X455767Y244984D01*
X456984Y243767D01*
X458476Y242906D01*
X460139Y242460D01*
X461861D01*
X463524Y242906D01*
X465016Y243767D01*
X466233Y244984D01*
X467094Y246476D01*
X467540Y248139D01*
Y249861D01*
X467094Y251524D01*
X466233Y253016D01*
X465810Y253439D01*
X465705Y253611D01*
X465593Y253732D01*
X465569Y253765D01*
X465539Y253813D01*
X465505Y253885D01*
X465467Y253984D01*
X465428Y254117D01*
X465392Y254284D01*
X465370Y254438D01*
Y289277D01*
X465387Y289460D01*
X469490D01*
Y322540D01*
X464981D01*
X464971Y322660D01*
Y323400D01*
X464638Y325073D01*
X463690Y326490D01*
X452370Y337810D01*
Y345460D01*
X459330D01*
Y362000D01*
Y378540D01*
X452370D01*
Y389190D01*
X463690Y400510D01*
X464638Y401928D01*
X464971Y403600D01*
Y409277D01*
X464987Y409460D01*
X469490D01*
Y442540D01*
D02*
G37*
G36*
X465322Y164040D02*
X462678D01*
X460125Y163356D01*
X457836Y162034D01*
X455966Y160165D01*
X454644Y157875D01*
X453960Y155322D01*
Y152678D01*
X454644Y150125D01*
X455966Y147836D01*
X457836Y145966D01*
X460125Y144644D01*
X462678Y143960D01*
X465322D01*
X467876Y144644D01*
X470165Y145966D01*
X472034Y147836D01*
X473356Y150125D01*
X474040Y152678D01*
Y155322D01*
X473356Y157875D01*
X472034Y160165D01*
X470165Y162034D01*
X467876Y163356D01*
X465322Y164040D01*
D02*
G37*
G36*
X444090Y442540D02*
X426310D01*
Y409460D01*
X430813D01*
X430830Y409277D01*
Y405010D01*
X421910Y396090D01*
X420962Y394673D01*
X420630Y393000D01*
Y379990D01*
X419151Y378885D01*
X418310Y378540D01*
X411070Y378540D01*
Y362000D01*
Y345460D01*
X417755D01*
X418310Y345460D01*
X419151Y345115D01*
X420630Y344010D01*
Y333000D01*
X420962Y331328D01*
X421910Y329910D01*
X427180Y324640D01*
X426310Y322540D01*
X426310D01*
Y289460D01*
X430813D01*
X430830Y289277D01*
Y219010D01*
X424910Y213091D01*
X423963Y211673D01*
X423630Y210000D01*
Y165414D01*
X423584Y165146D01*
X423479Y164775D01*
X423320Y164366D01*
X423100Y163919D01*
X422813Y163436D01*
X422476Y162950D01*
X421493Y161777D01*
X420896Y161164D01*
X420767Y160966D01*
X419966Y160165D01*
X418644Y157875D01*
X417960Y155322D01*
Y152678D01*
X418644Y150125D01*
X419966Y147836D01*
X421836Y145966D01*
X424125Y144644D01*
X426679Y143960D01*
X429322D01*
X431876Y144644D01*
X434165Y145966D01*
X436034Y147836D01*
X437356Y150125D01*
X438040Y152678D01*
Y155322D01*
X437356Y157875D01*
X436034Y160165D01*
X435234Y160966D01*
X435104Y161164D01*
X434483Y161801D01*
X433977Y162374D01*
X433546Y162920D01*
X433188Y163436D01*
X432900Y163919D01*
X432680Y164366D01*
X432521Y164775D01*
X432417Y165146D01*
X432371Y165414D01*
Y208190D01*
X438290Y214110D01*
X439238Y215527D01*
X439571Y217200D01*
Y289277D01*
X439587Y289460D01*
X444090D01*
Y322540D01*
X439571D01*
Y322800D01*
X439238Y324473D01*
X438290Y325890D01*
X429370Y334810D01*
Y345460D01*
X433930D01*
Y362000D01*
Y378540D01*
X429370D01*
Y391190D01*
X438290Y400110D01*
X439238Y401528D01*
X439571Y403200D01*
Y409277D01*
X439587Y409460D01*
X444090D01*
Y442540D01*
D02*
G37*
G36*
X165322Y164040D02*
X162678D01*
X160125Y163356D01*
X157835Y162034D01*
X155966Y160165D01*
X154644Y157875D01*
X153960Y155322D01*
Y152678D01*
X154644Y150125D01*
X155966Y147836D01*
X157835Y145966D01*
X160125Y144644D01*
X162678Y143960D01*
X165322D01*
X167875Y144644D01*
X170165Y145966D01*
X172034Y147836D01*
X173356Y150125D01*
X174040Y152678D01*
Y155322D01*
X173356Y157875D01*
X172034Y160165D01*
X170165Y162034D01*
X167875Y163356D01*
X165322Y164040D01*
D02*
G37*
G36*
X367890Y442540D02*
X350110D01*
Y409460D01*
X350961D01*
X351933Y407113D01*
X341910Y397090D01*
X340962Y395672D01*
X340630Y394000D01*
Y337000D01*
X340962Y335327D01*
X341910Y333910D01*
X351038Y324781D01*
X350110Y322540D01*
X350110D01*
Y289460D01*
X354613D01*
X354630Y289277D01*
Y260810D01*
X318190Y224370D01*
X170000D01*
X168328Y224038D01*
X166910Y223090D01*
X124910Y181091D01*
X123962Y179673D01*
X123630Y178000D01*
Y165414D01*
X123584Y165146D01*
X123479Y164775D01*
X123320Y164366D01*
X123100Y163919D01*
X122813Y163436D01*
X122476Y162950D01*
X121493Y161777D01*
X120896Y161164D01*
X120767Y160966D01*
X119966Y160165D01*
X118644Y157875D01*
X117960Y155322D01*
Y152678D01*
X118644Y150125D01*
X119966Y147836D01*
X121835Y145966D01*
X124125Y144644D01*
X126678Y143960D01*
X129322D01*
X131875Y144644D01*
X134165Y145966D01*
X136034Y147836D01*
X137356Y150125D01*
X138040Y152678D01*
Y155322D01*
X137356Y157875D01*
X136034Y160165D01*
X135233Y160966D01*
X135104Y161164D01*
X134483Y161801D01*
X133977Y162374D01*
X133546Y162920D01*
X133188Y163436D01*
X132900Y163919D01*
X132680Y164366D01*
X132521Y164775D01*
X132416Y165146D01*
X132371Y165414D01*
Y176190D01*
X171810Y215630D01*
X320000D01*
X321673Y215962D01*
X323090Y216910D01*
X362090Y255910D01*
X363038Y257327D01*
X363371Y259000D01*
Y289277D01*
X363387Y289460D01*
X367890D01*
Y322540D01*
X363371D01*
Y323000D01*
X363038Y324673D01*
X362090Y326090D01*
X349370Y338810D01*
Y343226D01*
X350110Y345460D01*
X351911Y345460D01*
X357730D01*
Y362000D01*
Y378540D01*
X351911D01*
X350110Y378540D01*
X349370Y380774D01*
Y392190D01*
X362090Y404910D01*
X363038Y406328D01*
X363371Y408000D01*
Y409277D01*
X363387Y409460D01*
X367890D01*
Y442540D01*
D02*
G37*
G36*
X1221724Y154540D02*
X1219476D01*
X1217304Y153958D01*
X1215356Y152834D01*
X1213766Y151244D01*
X1212642Y149297D01*
X1212060Y147125D01*
Y144876D01*
X1212642Y142704D01*
X1213766Y140757D01*
X1215356Y139166D01*
X1217304Y138042D01*
X1219476Y137460D01*
X1221724D01*
X1223896Y138042D01*
X1225844Y139166D01*
X1227434Y140757D01*
X1228558Y142704D01*
X1229140Y144876D01*
Y147125D01*
X1228558Y149297D01*
X1227434Y151244D01*
X1225844Y152834D01*
X1223896Y153958D01*
X1221724Y154540D01*
D02*
G37*
G36*
X1170924D02*
X1168676D01*
X1166504Y153958D01*
X1164556Y152834D01*
X1162966Y151244D01*
X1161842Y149297D01*
X1161260Y147125D01*
Y144876D01*
X1161842Y142704D01*
X1162966Y140757D01*
X1164556Y139166D01*
X1166504Y138042D01*
X1168676Y137460D01*
X1170924D01*
X1173096Y138042D01*
X1175044Y139166D01*
X1176634Y140757D01*
X1177758Y142704D01*
X1178340Y144876D01*
Y147125D01*
X1177758Y149297D01*
X1176634Y151244D01*
X1175044Y152834D01*
X1173096Y153958D01*
X1170924Y154540D01*
D02*
G37*
G36*
X973325D02*
X971076D01*
X968904Y153958D01*
X966957Y152834D01*
X965367Y151244D01*
X964242Y149297D01*
X963660Y147125D01*
Y144876D01*
X964242Y142704D01*
X965367Y140757D01*
X966957Y139166D01*
X968904Y138042D01*
X971076Y137460D01*
X973325D01*
X975497Y138042D01*
X977444Y139166D01*
X979034Y140757D01*
X980158Y142704D01*
X980740Y144876D01*
Y147125D01*
X980158Y149297D01*
X979034Y151244D01*
X977444Y152834D01*
X975497Y153958D01*
X973325Y154540D01*
D02*
G37*
G36*
X922524D02*
X920276D01*
X918104Y153958D01*
X916157Y152834D01*
X914566Y151244D01*
X913442Y149297D01*
X912860Y147125D01*
Y144876D01*
X913442Y142704D01*
X914566Y140757D01*
X916157Y139166D01*
X918104Y138042D01*
X920276Y137460D01*
X922524D01*
X924697Y138042D01*
X926644Y139166D01*
X928234Y140757D01*
X929358Y142704D01*
X929940Y144876D01*
Y147125D01*
X929358Y149297D01*
X928234Y151244D01*
X926644Y152834D01*
X924697Y153958D01*
X922524Y154540D01*
D02*
G37*
G36*
X723325D02*
X721076D01*
X718904Y153958D01*
X716957Y152834D01*
X715367Y151244D01*
X714242Y149297D01*
X713660Y147125D01*
Y144876D01*
X714242Y142704D01*
X715367Y140757D01*
X716957Y139166D01*
X718904Y138042D01*
X721076Y137460D01*
X723325D01*
X725497Y138042D01*
X727444Y139166D01*
X729034Y140757D01*
X730158Y142704D01*
X730740Y144876D01*
Y147125D01*
X730158Y149297D01*
X729034Y151244D01*
X727444Y152834D01*
X725497Y153958D01*
X723325Y154540D01*
D02*
G37*
G36*
X672524D02*
X670276D01*
X668104Y153958D01*
X666157Y152834D01*
X664566Y151244D01*
X663442Y149297D01*
X662860Y147125D01*
Y144876D01*
X663442Y142704D01*
X664566Y140757D01*
X666157Y139166D01*
X668104Y138042D01*
X670276Y137460D01*
X672524D01*
X674697Y138042D01*
X676644Y139166D01*
X678234Y140757D01*
X679358Y142704D01*
X679940Y144876D01*
Y147125D01*
X679358Y149297D01*
X678234Y151244D01*
X676644Y152834D01*
X674697Y153958D01*
X672524Y154540D01*
D02*
G37*
G36*
X494890Y442540D02*
X477110D01*
Y409460D01*
X481614D01*
X481630Y409277D01*
Y405810D01*
X469910Y394090D01*
X468962Y392673D01*
X468629Y391000D01*
Y378540D01*
X461870D01*
Y362000D01*
Y345460D01*
X468629D01*
Y336000D01*
X468962Y334328D01*
X469910Y332910D01*
X478038Y324781D01*
X477110Y322540D01*
X477110D01*
Y289460D01*
X481613D01*
X481630Y289277D01*
Y205810D01*
X442910Y167091D01*
X441962Y165673D01*
X441630Y164000D01*
Y147414D01*
X441584Y147146D01*
X441479Y146775D01*
X441320Y146366D01*
X441100Y145919D01*
X440813Y145436D01*
X440476Y144950D01*
X439493Y143777D01*
X438896Y143165D01*
X438767Y142966D01*
X437966Y142165D01*
X436644Y139875D01*
X435960Y137322D01*
Y134678D01*
X436644Y132125D01*
X437966Y129836D01*
X439836Y127966D01*
X442125Y126644D01*
X444678Y125960D01*
X447322D01*
X449875Y126644D01*
X452165Y127966D01*
X454034Y129836D01*
X455356Y132125D01*
X456040Y134678D01*
Y137322D01*
X455356Y139875D01*
X454034Y142165D01*
X453233Y142966D01*
X453104Y143165D01*
X452483Y143801D01*
X451977Y144374D01*
X451546Y144920D01*
X451188Y145436D01*
X450900Y145919D01*
X450680Y146366D01*
X450521Y146775D01*
X450416Y147146D01*
X450371Y147414D01*
Y162190D01*
X489090Y200910D01*
X490038Y202327D01*
X490370Y204000D01*
Y289277D01*
X490387Y289460D01*
X494890D01*
Y322540D01*
X490370D01*
Y323000D01*
X490038Y324673D01*
X489090Y326090D01*
X477370Y337810D01*
Y345460D01*
X484730D01*
Y362000D01*
Y378540D01*
X477370D01*
Y389190D01*
X489090Y400910D01*
X490038Y402328D01*
X490371Y404000D01*
Y409277D01*
X490387Y409460D01*
X494890D01*
Y442540D01*
D02*
G37*
G36*
X147322Y146040D02*
X144678D01*
X142125Y145356D01*
X139835Y144034D01*
X137966Y142165D01*
X136644Y139875D01*
X135960Y137322D01*
Y134678D01*
X136644Y132125D01*
X137966Y129836D01*
X139835Y127966D01*
X142125Y126644D01*
X144678Y125960D01*
X147322D01*
X149875Y126644D01*
X152165Y127966D01*
X154034Y129836D01*
X155356Y132125D01*
X156040Y134678D01*
Y137322D01*
X155356Y139875D01*
X154034Y142165D01*
X152165Y144034D01*
X149875Y145356D01*
X147322Y146040D01*
D02*
G37*
G36*
X465322Y128040D02*
X462678D01*
X460125Y127356D01*
X457836Y126034D01*
X455966Y124165D01*
X454644Y121876D01*
X453960Y119322D01*
Y116678D01*
X454644Y114125D01*
X455966Y111836D01*
X457836Y109966D01*
X460125Y108645D01*
X462678Y107960D01*
X465322D01*
X467876Y108645D01*
X470165Y109966D01*
X472034Y111836D01*
X473356Y114125D01*
X474040Y116678D01*
Y119322D01*
X473356Y121876D01*
X472034Y124165D01*
X470165Y126034D01*
X467876Y127356D01*
X465322Y128040D01*
D02*
G37*
G36*
X429322D02*
X426679D01*
X424125Y127356D01*
X421836Y126034D01*
X419966Y124165D01*
X418644Y121876D01*
X417960Y119322D01*
Y116678D01*
X418644Y114125D01*
X419966Y111836D01*
X421836Y109966D01*
X424125Y108645D01*
X426679Y107960D01*
X429322D01*
X431876Y108645D01*
X434165Y109966D01*
X436034Y111836D01*
X437356Y114125D01*
X438040Y116678D01*
Y119322D01*
X437356Y121876D01*
X436034Y124165D01*
X434165Y126034D01*
X431876Y127356D01*
X429322Y128040D01*
D02*
G37*
G36*
X165322D02*
X162678D01*
X160125Y127356D01*
X157835Y126034D01*
X155966Y124165D01*
X154644Y121876D01*
X153960Y119322D01*
Y116678D01*
X154644Y114125D01*
X155966Y111836D01*
X157835Y109966D01*
X160125Y108645D01*
X162678Y107960D01*
X165322D01*
X167875Y108645D01*
X170165Y109966D01*
X172034Y111836D01*
X173356Y114125D01*
X174040Y116678D01*
Y119322D01*
X173356Y121876D01*
X172034Y124165D01*
X170165Y126034D01*
X167875Y127356D01*
X165322Y128040D01*
D02*
G37*
G36*
X1247849Y71140D02*
X1244152D01*
X1240581Y70183D01*
X1237379Y68335D01*
X1234765Y65721D01*
X1232917Y62519D01*
X1231960Y58949D01*
Y55252D01*
X1232917Y51681D01*
X1234765Y48479D01*
X1237379Y45865D01*
X1240581Y44017D01*
X1244152Y43060D01*
X1247849D01*
X1251419Y44017D01*
X1254621Y45865D01*
X1257235Y48479D01*
X1259083Y51681D01*
X1260040Y55252D01*
Y58949D01*
X1259083Y62519D01*
X1257235Y65721D01*
X1254621Y68335D01*
X1251419Y70183D01*
X1247849Y71140D01*
D02*
G37*
G36*
X1146248D02*
X1142552D01*
X1138981Y70183D01*
X1135779Y68335D01*
X1133165Y65721D01*
X1131317Y62519D01*
X1130360Y58949D01*
Y55252D01*
X1131317Y51681D01*
X1133165Y48479D01*
X1135779Y45865D01*
X1138981Y44017D01*
X1142552Y43060D01*
X1146248D01*
X1149819Y44017D01*
X1153021Y45865D01*
X1155635Y48479D01*
X1157483Y51681D01*
X1158440Y55252D01*
Y58949D01*
X1157483Y62519D01*
X1155635Y65721D01*
X1153021Y68335D01*
X1149819Y70183D01*
X1146248Y71140D01*
D02*
G37*
G36*
X999449D02*
X995752D01*
X992181Y70183D01*
X988979Y68335D01*
X986365Y65721D01*
X984517Y62519D01*
X983560Y58949D01*
Y55252D01*
X984517Y51681D01*
X986365Y48479D01*
X988979Y45865D01*
X992181Y44017D01*
X995752Y43060D01*
X999449D01*
X1003019Y44017D01*
X1006221Y45865D01*
X1008835Y48479D01*
X1010683Y51681D01*
X1011640Y55252D01*
Y58949D01*
X1010683Y62519D01*
X1008835Y65721D01*
X1006221Y68335D01*
X1003019Y70183D01*
X999449Y71140D01*
D02*
G37*
G36*
X897849D02*
X894152D01*
X890581Y70183D01*
X887380Y68335D01*
X884765Y65721D01*
X882917Y62519D01*
X881960Y58949D01*
Y55252D01*
X882917Y51681D01*
X884765Y48479D01*
X887380Y45865D01*
X890581Y44017D01*
X894152Y43060D01*
X897849D01*
X901420Y44017D01*
X904621Y45865D01*
X907235Y48479D01*
X909083Y51681D01*
X910040Y55252D01*
Y58949D01*
X909083Y62519D01*
X907235Y65721D01*
X904621Y68335D01*
X901420Y70183D01*
X897849Y71140D01*
D02*
G37*
G36*
X749449D02*
X745752D01*
X742181Y70183D01*
X738979Y68335D01*
X736365Y65721D01*
X734517Y62519D01*
X733560Y58949D01*
Y55252D01*
X734517Y51681D01*
X736365Y48479D01*
X738979Y45865D01*
X742181Y44017D01*
X745752Y43060D01*
X749449D01*
X753019Y44017D01*
X756221Y45865D01*
X758835Y48479D01*
X760683Y51681D01*
X761640Y55252D01*
Y58949D01*
X760683Y62519D01*
X758835Y65721D01*
X756221Y68335D01*
X753019Y70183D01*
X749449Y71140D01*
D02*
G37*
G36*
X647849D02*
X644152D01*
X640581Y70183D01*
X637379Y68335D01*
X634765Y65721D01*
X632917Y62519D01*
X631960Y58949D01*
Y55252D01*
X632917Y51681D01*
X634765Y48479D01*
X637379Y45865D01*
X640581Y44017D01*
X644152Y43060D01*
X647849D01*
X651420Y44017D01*
X654621Y45865D01*
X657235Y48479D01*
X659083Y51681D01*
X660040Y55252D01*
Y58949D01*
X659083Y62519D01*
X657235Y65721D01*
X654621Y68335D01*
X651420Y70183D01*
X647849Y71140D01*
D02*
G37*
G36*
X447388Y46540D02*
X447270D01*
Y37270D01*
X456540D01*
Y37388D01*
X455822Y40068D01*
X454434Y42472D01*
X452472Y44434D01*
X450069Y45822D01*
X447388Y46540D01*
D02*
G37*
G36*
X444730D02*
X444613D01*
X441932Y45822D01*
X439529Y44434D01*
X437566Y42472D01*
X436179Y40068D01*
X435460Y37388D01*
Y37270D01*
X444730D01*
Y46540D01*
D02*
G37*
G36*
X147388D02*
X147270D01*
Y37270D01*
X156540D01*
Y37388D01*
X155822Y40068D01*
X154434Y42472D01*
X152472Y44434D01*
X150068Y45822D01*
X147388Y46540D01*
D02*
G37*
G36*
X144730D02*
X144613D01*
X141932Y45822D01*
X139528Y44434D01*
X137566Y42472D01*
X136178Y40068D01*
X135460Y37388D01*
Y37270D01*
X144730D01*
Y46540D01*
D02*
G37*
G36*
X522651Y58540D02*
X519349D01*
X516160Y57685D01*
X513300Y56034D01*
X510965Y53700D01*
X509314Y50840D01*
X508460Y47651D01*
Y44349D01*
X509314Y41160D01*
X510965Y38300D01*
X513300Y35965D01*
X516160Y34314D01*
X519349Y33460D01*
X522651D01*
X525840Y34314D01*
X528700Y35965D01*
X531034Y38300D01*
X532685Y41160D01*
X533540Y44349D01*
Y47651D01*
X532685Y50840D01*
X531034Y53700D01*
X528700Y56034D01*
X525840Y57685D01*
X522651Y58540D01*
D02*
G37*
G36*
X372651D02*
X369349D01*
X366160Y57685D01*
X363300Y56034D01*
X360966Y53700D01*
X359315Y50840D01*
X358460Y47651D01*
Y44349D01*
X359315Y41160D01*
X360966Y38300D01*
X363300Y35965D01*
X366160Y34314D01*
X369349Y33460D01*
X372651D01*
X375840Y34314D01*
X378700Y35965D01*
X381035Y38300D01*
X382686Y41160D01*
X383540Y44349D01*
Y47651D01*
X382686Y50840D01*
X381035Y53700D01*
X378700Y56034D01*
X375840Y57685D01*
X372651Y58540D01*
D02*
G37*
G36*
X222651D02*
X219349D01*
X216160Y57685D01*
X213300Y56034D01*
X210966Y53700D01*
X209315Y50840D01*
X208460Y47651D01*
Y44349D01*
X209315Y41160D01*
X210966Y38300D01*
X213300Y35965D01*
X216160Y34314D01*
X219349Y33460D01*
X222651D01*
X225840Y34314D01*
X228700Y35965D01*
X231035Y38300D01*
X232686Y41160D01*
X233540Y44349D01*
Y47651D01*
X232686Y50840D01*
X231035Y53700D01*
X228700Y56034D01*
X225840Y57685D01*
X222651Y58540D01*
D02*
G37*
G36*
X72651D02*
X69349D01*
X66160Y57685D01*
X63300Y56034D01*
X60965Y53700D01*
X59315Y50840D01*
X58460Y47651D01*
Y44349D01*
X59315Y41160D01*
X60965Y38300D01*
X63300Y35965D01*
X66160Y34314D01*
X69349Y33460D01*
X72651D01*
X75840Y34314D01*
X78700Y35965D01*
X81034Y38300D01*
X82685Y41160D01*
X83540Y44349D01*
Y47651D01*
X82685Y50840D01*
X81034Y53700D01*
X78700Y56034D01*
X75840Y57685D01*
X72651Y58540D01*
D02*
G37*
G36*
X456540Y34730D02*
X447270D01*
Y25460D01*
X447388D01*
X450069Y26178D01*
X452472Y27566D01*
X454434Y29528D01*
X455822Y31932D01*
X456540Y34612D01*
Y34730D01*
D02*
G37*
G36*
X444730D02*
X435460D01*
Y34612D01*
X436179Y31932D01*
X437566Y29528D01*
X439529Y27566D01*
X441932Y26178D01*
X444613Y25460D01*
X444730D01*
Y34730D01*
D02*
G37*
G36*
X156540D02*
X147270D01*
Y25460D01*
X147388D01*
X150068Y26178D01*
X152472Y27566D01*
X154434Y29528D01*
X155822Y31932D01*
X156540Y34612D01*
Y34730D01*
D02*
G37*
G36*
X144730D02*
X135460D01*
Y34612D01*
X136178Y31932D01*
X137566Y29528D01*
X139528Y27566D01*
X141932Y26178D01*
X144613Y25460D01*
X144730D01*
Y34730D01*
D02*
G37*
%LPD*%
G36*
X724031Y580007D02*
X723996Y580339D01*
X723891Y580636D01*
X723716Y580898D01*
X723472Y581125D01*
X723157Y581317D01*
X722773Y581474D01*
X722319Y581597D01*
X721795Y581684D01*
X721201Y581736D01*
X720537Y581754D01*
Y585247D01*
X721201Y585264D01*
X721795Y585317D01*
X722319Y585404D01*
X722773Y585526D01*
X723157Y585683D01*
X723472Y585876D01*
X723716Y586102D01*
X723891Y586365D01*
X723996Y586661D01*
X724031Y586993D01*
Y580007D01*
D02*
G37*
G36*
X696004Y586661D02*
X696109Y586365D01*
X696284Y586102D01*
X696528Y585876D01*
X696843Y585683D01*
X697227Y585526D01*
X697681Y585404D01*
X698205Y585317D01*
X698799Y585264D01*
X699463Y585247D01*
Y581754D01*
X698799Y581736D01*
X698205Y581684D01*
X697681Y581597D01*
X697227Y581474D01*
X696843Y581317D01*
X696528Y581125D01*
X696284Y580898D01*
X696109Y580636D01*
X696004Y580339D01*
X695970Y580007D01*
Y586993D01*
X696004Y586661D01*
D02*
G37*
G36*
X646074Y584600D02*
X646313Y584421D01*
X646573Y584263D01*
X646855Y584126D01*
X647158Y584010D01*
X647483Y583915D01*
X647830Y583841D01*
X648198Y583789D01*
X648587Y583757D01*
X648999Y583746D01*
Y580253D01*
X648587Y580243D01*
X648198Y580211D01*
X647830Y580159D01*
X647483Y580085D01*
X647158Y579990D01*
X646855Y579874D01*
X646573Y579737D01*
X646313Y579579D01*
X646074Y579400D01*
X645857Y579200D01*
Y584800D01*
X646074Y584600D01*
D02*
G37*
G36*
X640143Y579200D02*
X639926Y579400D01*
X639687Y579579D01*
X639427Y579737D01*
X639145Y579874D01*
X638842Y579990D01*
X638517Y580085D01*
X638170Y580159D01*
X637802Y580211D01*
X637412Y580243D01*
X637001Y580253D01*
Y583746D01*
X637412Y583757D01*
X637802Y583789D01*
X638170Y583841D01*
X638517Y583915D01*
X638842Y584010D01*
X639145Y584126D01*
X639427Y584263D01*
X639687Y584421D01*
X639926Y584600D01*
X640143Y584800D01*
Y579200D01*
D02*
G37*
G36*
X545074Y584600D02*
X545313Y584421D01*
X545573Y584263D01*
X545855Y584126D01*
X546158Y584010D01*
X546483Y583915D01*
X546830Y583841D01*
X547198Y583789D01*
X547588Y583757D01*
X547999Y583746D01*
Y580253D01*
X547588Y580243D01*
X547198Y580211D01*
X546830Y580159D01*
X546483Y580085D01*
X546158Y579990D01*
X545855Y579874D01*
X545573Y579737D01*
X545313Y579579D01*
X545074Y579400D01*
X544857Y579200D01*
Y584800D01*
X545074Y584600D01*
D02*
G37*
G36*
X668030Y578507D02*
X667996Y578839D01*
X667891Y579136D01*
X667716Y579398D01*
X667472Y579625D01*
X667157Y579817D01*
X666773Y579974D01*
X666319Y580096D01*
X665795Y580184D01*
X665201Y580236D01*
X664538Y580253D01*
Y583746D01*
X665201Y583764D01*
X665795Y583816D01*
X666319Y583904D01*
X666773Y584026D01*
X667157Y584183D01*
X667472Y584375D01*
X667716Y584602D01*
X667891Y584864D01*
X667996Y585161D01*
X668030Y585493D01*
Y578507D01*
D02*
G37*
G36*
X800074Y585600D02*
X800313Y585421D01*
X800573Y585263D01*
X800855Y585126D01*
X801158Y585010D01*
X801483Y584915D01*
X801830Y584841D01*
X802198Y584789D01*
X802588Y584757D01*
X802999Y584747D01*
Y581254D01*
X802588Y581243D01*
X802198Y581211D01*
X801830Y581159D01*
X801483Y581085D01*
X801158Y580990D01*
X800855Y580874D01*
X800573Y580737D01*
X800313Y580579D01*
X800074Y580400D01*
X799857Y580200D01*
Y585800D01*
X800074Y585600D01*
D02*
G37*
G36*
X874031Y580007D02*
X873996Y580339D01*
X873891Y580636D01*
X873716Y580898D01*
X873472Y581125D01*
X873157Y581317D01*
X872773Y581474D01*
X872319Y581596D01*
X871795Y581684D01*
X871201Y581736D01*
X870537Y581754D01*
Y585247D01*
X871201Y585264D01*
X871795Y585317D01*
X872319Y585404D01*
X872773Y585526D01*
X873157Y585683D01*
X873472Y585875D01*
X873716Y586102D01*
X873891Y586364D01*
X873996Y586661D01*
X874031Y586993D01*
Y580007D01*
D02*
G37*
G36*
X846004Y586661D02*
X846109Y586364D01*
X846284Y586102D01*
X846528Y585875D01*
X846843Y585683D01*
X847227Y585526D01*
X847681Y585404D01*
X848205Y585317D01*
X848799Y585264D01*
X849463Y585247D01*
Y581754D01*
X848799Y581736D01*
X848205Y581684D01*
X847681Y581596D01*
X847227Y581474D01*
X846843Y581317D01*
X846528Y581125D01*
X846284Y580898D01*
X846109Y580636D01*
X846004Y580339D01*
X845969Y580007D01*
Y586993D01*
X846004Y586661D01*
D02*
G37*
G36*
X818030Y579507D02*
X817996Y579839D01*
X817891Y580136D01*
X817716Y580398D01*
X817472Y580625D01*
X817157Y580817D01*
X816773Y580974D01*
X816319Y581096D01*
X815795Y581184D01*
X815201Y581236D01*
X814538Y581254D01*
Y584747D01*
X815201Y584764D01*
X815795Y584816D01*
X816319Y584904D01*
X816773Y585026D01*
X817157Y585183D01*
X817472Y585375D01*
X817716Y585602D01*
X817891Y585864D01*
X817996Y586161D01*
X818030Y586493D01*
Y579507D01*
D02*
G37*
G36*
X724031Y554607D02*
X723996Y554939D01*
X723891Y555236D01*
X723716Y555498D01*
X723472Y555725D01*
X723157Y555917D01*
X722773Y556074D01*
X722319Y556197D01*
X721795Y556284D01*
X721201Y556336D01*
X720537Y556354D01*
Y559847D01*
X721201Y559864D01*
X721795Y559917D01*
X722319Y560004D01*
X722773Y560126D01*
X723157Y560283D01*
X723472Y560476D01*
X723716Y560703D01*
X723891Y560965D01*
X723996Y561261D01*
X724031Y561593D01*
Y554607D01*
D02*
G37*
G36*
X696004Y561261D02*
X696109Y560965D01*
X696284Y560703D01*
X696528Y560476D01*
X696843Y560283D01*
X697227Y560126D01*
X697681Y560004D01*
X698205Y559917D01*
X698799Y559864D01*
X699463Y559847D01*
Y556354D01*
X698799Y556336D01*
X698205Y556284D01*
X697681Y556197D01*
X697227Y556074D01*
X696843Y555917D01*
X696528Y555725D01*
X696284Y555498D01*
X696109Y555236D01*
X696004Y554939D01*
X695970Y554607D01*
Y561593D01*
X696004Y561261D01*
D02*
G37*
G36*
X634074Y558600D02*
X634313Y558421D01*
X634573Y558263D01*
X634855Y558126D01*
X635158Y558010D01*
X635483Y557915D01*
X635830Y557841D01*
X636198Y557789D01*
X636587Y557757D01*
X636999Y557747D01*
Y554254D01*
X636587Y554243D01*
X636198Y554211D01*
X635830Y554159D01*
X635483Y554085D01*
X635158Y553990D01*
X634855Y553874D01*
X634573Y553737D01*
X634313Y553579D01*
X634074Y553400D01*
X633857Y553200D01*
Y558800D01*
X634074Y558600D01*
D02*
G37*
G36*
X628143Y553200D02*
X627926Y553400D01*
X627687Y553579D01*
X627427Y553737D01*
X627145Y553874D01*
X626842Y553990D01*
X626517Y554085D01*
X626170Y554159D01*
X625802Y554211D01*
X625412Y554243D01*
X625001Y554254D01*
Y557747D01*
X625412Y557757D01*
X625802Y557789D01*
X626170Y557841D01*
X626517Y557915D01*
X626842Y558010D01*
X627145Y558126D01*
X627427Y558263D01*
X627687Y558421D01*
X627926Y558600D01*
X628143Y558800D01*
Y553200D01*
D02*
G37*
G36*
X545074Y558600D02*
X545313Y558421D01*
X545573Y558263D01*
X545855Y558126D01*
X546158Y558010D01*
X546483Y557915D01*
X546830Y557841D01*
X547198Y557789D01*
X547588Y557757D01*
X547999Y557747D01*
Y554254D01*
X547588Y554243D01*
X547198Y554211D01*
X546830Y554159D01*
X546483Y554085D01*
X546158Y553990D01*
X545855Y553874D01*
X545573Y553737D01*
X545313Y553579D01*
X545074Y553400D01*
X544857Y553200D01*
Y558800D01*
X545074Y558600D01*
D02*
G37*
G36*
X668030Y552507D02*
X667996Y552839D01*
X667891Y553136D01*
X667716Y553398D01*
X667472Y553625D01*
X667157Y553817D01*
X666773Y553974D01*
X666319Y554096D01*
X665795Y554184D01*
X665201Y554236D01*
X664538Y554254D01*
Y557747D01*
X665201Y557764D01*
X665795Y557816D01*
X666319Y557904D01*
X666773Y558026D01*
X667157Y558183D01*
X667472Y558375D01*
X667716Y558602D01*
X667891Y558864D01*
X667996Y559161D01*
X668030Y559493D01*
Y552507D01*
D02*
G37*
G36*
X785074Y560600D02*
X785313Y560421D01*
X785573Y560263D01*
X785855Y560126D01*
X786158Y560010D01*
X786483Y559915D01*
X786830Y559841D01*
X787198Y559789D01*
X787588Y559757D01*
X787999Y559747D01*
Y556254D01*
X787588Y556243D01*
X787198Y556211D01*
X786830Y556159D01*
X786483Y556085D01*
X786158Y555990D01*
X785855Y555874D01*
X785573Y555737D01*
X785313Y555579D01*
X785074Y555400D01*
X784857Y555200D01*
Y560800D01*
X785074Y560600D01*
D02*
G37*
G36*
X874031Y554607D02*
X873996Y554939D01*
X873891Y555236D01*
X873716Y555498D01*
X873472Y555725D01*
X873157Y555917D01*
X872773Y556074D01*
X872319Y556196D01*
X871795Y556284D01*
X871201Y556336D01*
X870537Y556354D01*
Y559847D01*
X871201Y559864D01*
X871795Y559916D01*
X872319Y560004D01*
X872773Y560126D01*
X873157Y560283D01*
X873472Y560475D01*
X873716Y560702D01*
X873891Y560964D01*
X873996Y561261D01*
X874031Y561593D01*
Y554607D01*
D02*
G37*
G36*
X846004Y561261D02*
X846109Y560964D01*
X846284Y560702D01*
X846528Y560475D01*
X846843Y560283D01*
X847227Y560126D01*
X847681Y560004D01*
X848205Y559916D01*
X848799Y559864D01*
X849463Y559847D01*
Y556354D01*
X848799Y556336D01*
X848205Y556284D01*
X847681Y556196D01*
X847227Y556074D01*
X846843Y555917D01*
X846528Y555725D01*
X846284Y555498D01*
X846109Y555236D01*
X846004Y554939D01*
X845969Y554607D01*
Y561593D01*
X846004Y561261D01*
D02*
G37*
G36*
X818030Y554507D02*
X817996Y554839D01*
X817891Y555136D01*
X817716Y555398D01*
X817472Y555625D01*
X817157Y555817D01*
X816773Y555974D01*
X816319Y556096D01*
X815795Y556184D01*
X815201Y556236D01*
X814538Y556254D01*
Y559747D01*
X815201Y559764D01*
X815795Y559816D01*
X816319Y559904D01*
X816773Y560026D01*
X817157Y560183D01*
X817472Y560375D01*
X817716Y560602D01*
X817891Y560864D01*
X817996Y561161D01*
X818030Y561493D01*
Y554507D01*
D02*
G37*
G36*
X499161Y572996D02*
X498864Y572891D01*
X498602Y572716D01*
X498375Y572472D01*
X498183Y572157D01*
X498026Y571773D01*
X497904Y571319D01*
X497816Y570795D01*
X497764Y570201D01*
X497746Y569538D01*
X494253D01*
X494236Y570201D01*
X494184Y570795D01*
X494096Y571319D01*
X493974Y571773D01*
X493817Y572157D01*
X493625Y572472D01*
X493398Y572716D01*
X493136Y572891D01*
X492839Y572996D01*
X492507Y573031D01*
X499493D01*
X499161Y572996D01*
D02*
G37*
G36*
X439161D02*
X438864Y572891D01*
X438602Y572716D01*
X438375Y572472D01*
X438183Y572157D01*
X438026Y571773D01*
X437903Y571319D01*
X437816Y570795D01*
X437764Y570201D01*
X437746Y569538D01*
X434253D01*
X434236Y570201D01*
X434183Y570795D01*
X434096Y571319D01*
X433974Y571773D01*
X433817Y572157D01*
X433624Y572472D01*
X433397Y572716D01*
X433135Y572891D01*
X432839Y572996D01*
X432507Y573031D01*
X439493D01*
X439161Y572996D01*
D02*
G37*
G36*
X409161D02*
X408865Y572891D01*
X408602Y572716D01*
X408376Y572472D01*
X408183Y572157D01*
X408026Y571773D01*
X407904Y571319D01*
X407817Y570795D01*
X407764Y570201D01*
X407747Y569538D01*
X404254D01*
X404236Y570201D01*
X404184Y570795D01*
X404096Y571319D01*
X403974Y571773D01*
X403817Y572157D01*
X403625Y572472D01*
X403398Y572716D01*
X403136Y572891D01*
X402839Y572996D01*
X402507Y573031D01*
X409493D01*
X409161Y572996D01*
D02*
G37*
G36*
X379161D02*
X378864Y572891D01*
X378602Y572716D01*
X378375Y572472D01*
X378183Y572157D01*
X378026Y571773D01*
X377904Y571319D01*
X377817Y570795D01*
X377764Y570201D01*
X377747Y569538D01*
X374254D01*
X374236Y570201D01*
X374184Y570795D01*
X374096Y571319D01*
X373974Y571773D01*
X373817Y572157D01*
X373625Y572472D01*
X373398Y572716D01*
X373136Y572891D01*
X372839Y572996D01*
X372507Y573031D01*
X379493D01*
X379161Y572996D01*
D02*
G37*
G36*
X469161Y572496D02*
X468864Y572391D01*
X468602Y572216D01*
X468375Y571972D01*
X468183Y571657D01*
X468026Y571273D01*
X467904Y570819D01*
X467816Y570295D01*
X467764Y569701D01*
X467746Y569038D01*
X464253D01*
X464236Y569701D01*
X464184Y570295D01*
X464096Y570819D01*
X463974Y571273D01*
X463817Y571657D01*
X463624Y571972D01*
X463397Y572216D01*
X463135Y572391D01*
X462839Y572496D01*
X462507Y572531D01*
X469493D01*
X469161Y572496D01*
D02*
G37*
G36*
X497764Y563799D02*
X497816Y563205D01*
X497904Y562681D01*
X498026Y562227D01*
X498183Y561843D01*
X498375Y561529D01*
X498602Y561284D01*
X498864Y561109D01*
X499161Y561005D01*
X499493Y560970D01*
X492507D01*
X492839Y561005D01*
X493136Y561109D01*
X493398Y561284D01*
X493625Y561529D01*
X493817Y561843D01*
X493974Y562227D01*
X494096Y562681D01*
X494184Y563205D01*
X494236Y563799D01*
X494253Y564463D01*
X497746D01*
X497764Y563799D01*
D02*
G37*
G36*
X467764D02*
X467816Y563205D01*
X467904Y562681D01*
X468026Y562227D01*
X468183Y561843D01*
X468375Y561529D01*
X468602Y561284D01*
X468864Y561109D01*
X469161Y561005D01*
X469493Y560970D01*
X462507D01*
X462839Y561005D01*
X463135Y561109D01*
X463397Y561284D01*
X463624Y561529D01*
X463817Y561843D01*
X463974Y562227D01*
X464096Y562681D01*
X464184Y563205D01*
X464236Y563799D01*
X464253Y564463D01*
X467746D01*
X467764Y563799D01*
D02*
G37*
G36*
X437764D02*
X437816Y563205D01*
X437903Y562681D01*
X438026Y562227D01*
X438183Y561843D01*
X438375Y561529D01*
X438602Y561284D01*
X438864Y561109D01*
X439161Y561005D01*
X439493Y560970D01*
X432507D01*
X432839Y561005D01*
X433135Y561109D01*
X433397Y561284D01*
X433624Y561529D01*
X433817Y561843D01*
X433974Y562227D01*
X434096Y562681D01*
X434183Y563205D01*
X434236Y563799D01*
X434253Y564463D01*
X437746D01*
X437764Y563799D01*
D02*
G37*
G36*
X407764D02*
X407817Y563205D01*
X407904Y562681D01*
X408026Y562227D01*
X408183Y561843D01*
X408376Y561529D01*
X408602Y561284D01*
X408865Y561109D01*
X409161Y561005D01*
X409493Y560970D01*
X402507D01*
X402839Y561005D01*
X403136Y561109D01*
X403398Y561284D01*
X403625Y561529D01*
X403817Y561843D01*
X403974Y562227D01*
X404096Y562681D01*
X404184Y563205D01*
X404236Y563799D01*
X404254Y564463D01*
X407747D01*
X407764Y563799D01*
D02*
G37*
G36*
X377764D02*
X377817Y563205D01*
X377904Y562681D01*
X378026Y562227D01*
X378183Y561843D01*
X378375Y561529D01*
X378602Y561284D01*
X378864Y561109D01*
X379161Y561005D01*
X379493Y560970D01*
X372507D01*
X372839Y561005D01*
X373136Y561109D01*
X373398Y561284D01*
X373625Y561529D01*
X373817Y561843D01*
X373974Y562227D01*
X374096Y562681D01*
X374184Y563205D01*
X374236Y563799D01*
X374254Y564463D01*
X377747D01*
X377764Y563799D01*
D02*
G37*
G36*
X502754Y559301D02*
X502859Y559004D01*
X503034Y558742D01*
X503278Y558515D01*
X503593Y558323D01*
X503977Y558166D01*
X504431Y558043D01*
X504955Y557956D01*
X505549Y557904D01*
X506212Y557886D01*
Y554393D01*
X505549Y554376D01*
X504955Y554323D01*
X504431Y554236D01*
X503977Y554114D01*
X503593Y553957D01*
X503278Y553764D01*
X503034Y553537D01*
X502859Y553275D01*
X502754Y552979D01*
X502719Y552647D01*
Y559633D01*
X502754Y559301D01*
D02*
G37*
G36*
X472754Y559161D02*
X472859Y558864D01*
X473034Y558602D01*
X473278Y558375D01*
X473593Y558183D01*
X473977Y558026D01*
X474431Y557904D01*
X474955Y557817D01*
X475549Y557764D01*
X476212Y557747D01*
Y554254D01*
X475549Y554236D01*
X474955Y554184D01*
X474431Y554096D01*
X473977Y553974D01*
X473593Y553817D01*
X473278Y553625D01*
X473034Y553398D01*
X472859Y553136D01*
X472754Y552839D01*
X472719Y552507D01*
Y559493D01*
X472754Y559161D01*
D02*
G37*
G36*
X442754D02*
X442859Y558864D01*
X443034Y558602D01*
X443278Y558375D01*
X443592Y558183D01*
X443977Y558026D01*
X444431Y557904D01*
X444955Y557817D01*
X445549Y557764D01*
X446212Y557747D01*
Y554254D01*
X445549Y554236D01*
X444955Y554184D01*
X444431Y554096D01*
X443977Y553974D01*
X443592Y553817D01*
X443278Y553625D01*
X443034Y553398D01*
X442859Y553136D01*
X442754Y552839D01*
X442719Y552507D01*
Y559493D01*
X442754Y559161D01*
D02*
G37*
G36*
X412755D02*
X412859Y558864D01*
X413034Y558602D01*
X413279Y558375D01*
X413593Y558183D01*
X413977Y558026D01*
X414431Y557904D01*
X414955Y557817D01*
X415549Y557764D01*
X416213Y557747D01*
Y554254D01*
X415549Y554236D01*
X414955Y554184D01*
X414431Y554096D01*
X413977Y553974D01*
X413593Y553817D01*
X413279Y553625D01*
X413034Y553398D01*
X412859Y553136D01*
X412755Y552839D01*
X412720Y552507D01*
Y559493D01*
X412755Y559161D01*
D02*
G37*
G36*
X382755Y558089D02*
X382859Y557792D01*
X383034Y557530D01*
X383279Y557303D01*
X383593Y557111D01*
X383977Y556954D01*
X384431Y556831D01*
X384955Y556744D01*
X385549Y556692D01*
X386213Y556674D01*
Y553181D01*
X385549Y553164D01*
X384955Y553111D01*
X384431Y553024D01*
X383977Y552902D01*
X383593Y552745D01*
X383279Y552552D01*
X383034Y552326D01*
X382859Y552063D01*
X382755Y551767D01*
X382720Y551435D01*
Y558421D01*
X382755Y558089D01*
D02*
G37*
G36*
X487764Y498799D02*
X487817Y498205D01*
X487904Y497681D01*
X488026Y497227D01*
X488183Y496843D01*
X488375Y496528D01*
X488602Y496284D01*
X488864Y496109D01*
X489161Y496004D01*
X489493Y495970D01*
X482507D01*
X482839Y496004D01*
X483136Y496109D01*
X483398Y496284D01*
X483625Y496528D01*
X483817Y496843D01*
X483974Y497227D01*
X484096Y497681D01*
X484184Y498205D01*
X484236Y498799D01*
X484254Y499463D01*
X487747D01*
X487764Y498799D01*
D02*
G37*
G36*
X462364D02*
X462416Y498205D01*
X462504Y497681D01*
X462626Y497227D01*
X462783Y496843D01*
X462975Y496528D01*
X463202Y496284D01*
X463464Y496109D01*
X463761Y496004D01*
X464093Y495970D01*
X457107D01*
X457439Y496004D01*
X457736Y496109D01*
X457998Y496284D01*
X458225Y496528D01*
X458417Y496843D01*
X458574Y497227D01*
X458696Y497681D01*
X458784Y498205D01*
X458836Y498799D01*
X458854Y499463D01*
X462347D01*
X462364Y498799D01*
D02*
G37*
G36*
X436964D02*
X437016Y498205D01*
X437104Y497681D01*
X437226Y497227D01*
X437383Y496843D01*
X437575Y496528D01*
X437802Y496284D01*
X438064Y496109D01*
X438361Y496004D01*
X438693Y495970D01*
X431707D01*
X432039Y496004D01*
X432336Y496109D01*
X432598Y496284D01*
X432825Y496528D01*
X433017Y496843D01*
X433174Y497227D01*
X433296Y497681D01*
X433384Y498205D01*
X433436Y498799D01*
X433454Y499463D01*
X436947D01*
X436964Y498799D01*
D02*
G37*
G36*
X411764D02*
X411816Y498205D01*
X411904Y497681D01*
X412026Y497227D01*
X412183Y496843D01*
X412375Y496528D01*
X412602Y496284D01*
X412864Y496109D01*
X413161Y496004D01*
X413493Y495970D01*
X406507D01*
X406839Y496004D01*
X407136Y496109D01*
X407398Y496284D01*
X407625Y496528D01*
X407817Y496843D01*
X407974Y497227D01*
X408096Y497681D01*
X408184Y498205D01*
X408236Y498799D01*
X408254Y499463D01*
X411746D01*
X411764Y498799D01*
D02*
G37*
G36*
X386164D02*
X386217Y498205D01*
X386304Y497681D01*
X386426Y497227D01*
X386583Y496843D01*
X386775Y496528D01*
X387002Y496284D01*
X387264Y496109D01*
X387561Y496004D01*
X387893Y495970D01*
X380907D01*
X381239Y496004D01*
X381536Y496109D01*
X381798Y496284D01*
X382025Y496528D01*
X382217Y496843D01*
X382374Y497227D01*
X382496Y497681D01*
X382584Y498205D01*
X382636Y498799D01*
X382654Y499463D01*
X386147D01*
X386164Y498799D01*
D02*
G37*
G36*
X724031Y529207D02*
X723996Y529539D01*
X723891Y529836D01*
X723716Y530098D01*
X723472Y530325D01*
X723157Y530517D01*
X722773Y530674D01*
X722319Y530797D01*
X721795Y530884D01*
X721201Y530936D01*
X720537Y530954D01*
Y534447D01*
X721201Y534464D01*
X721795Y534517D01*
X722319Y534604D01*
X722773Y534726D01*
X723157Y534883D01*
X723472Y535075D01*
X723716Y535303D01*
X723891Y535564D01*
X723996Y535861D01*
X724031Y536193D01*
Y529207D01*
D02*
G37*
G36*
X696004Y535861D02*
X696109Y535564D01*
X696284Y535303D01*
X696528Y535075D01*
X696843Y534883D01*
X697227Y534726D01*
X697681Y534604D01*
X698205Y534517D01*
X698799Y534464D01*
X699463Y534447D01*
Y530954D01*
X698799Y530936D01*
X698205Y530884D01*
X697681Y530797D01*
X697227Y530674D01*
X696843Y530517D01*
X696528Y530325D01*
X696284Y530098D01*
X696109Y529836D01*
X696004Y529539D01*
X695970Y529207D01*
Y536193D01*
X696004Y535861D01*
D02*
G37*
G36*
X622074Y534600D02*
X622313Y534421D01*
X622573Y534263D01*
X622855Y534126D01*
X623158Y534010D01*
X623483Y533915D01*
X623830Y533841D01*
X624198Y533789D01*
X624588Y533757D01*
X624999Y533746D01*
Y530253D01*
X624588Y530243D01*
X624198Y530211D01*
X623830Y530159D01*
X623483Y530085D01*
X623158Y529990D01*
X622855Y529874D01*
X622573Y529737D01*
X622313Y529579D01*
X622074Y529400D01*
X621857Y529200D01*
Y534800D01*
X622074Y534600D01*
D02*
G37*
G36*
X616143Y529200D02*
X615926Y529400D01*
X615687Y529579D01*
X615427Y529737D01*
X615145Y529874D01*
X614842Y529990D01*
X614517Y530085D01*
X614170Y530159D01*
X613802Y530211D01*
X613413Y530243D01*
X613001Y530253D01*
Y533746D01*
X613413Y533757D01*
X613802Y533789D01*
X614170Y533841D01*
X614517Y533915D01*
X614842Y534010D01*
X615145Y534126D01*
X615427Y534263D01*
X615687Y534421D01*
X615926Y534600D01*
X616143Y534800D01*
Y529200D01*
D02*
G37*
G36*
X545074Y534600D02*
X545313Y534421D01*
X545573Y534263D01*
X545855Y534126D01*
X546158Y534010D01*
X546483Y533915D01*
X546830Y533841D01*
X547198Y533789D01*
X547588Y533757D01*
X547999Y533746D01*
Y530253D01*
X547588Y530243D01*
X547198Y530211D01*
X546830Y530159D01*
X546483Y530085D01*
X546158Y529990D01*
X545855Y529874D01*
X545573Y529737D01*
X545313Y529579D01*
X545074Y529400D01*
X544857Y529200D01*
Y534800D01*
X545074Y534600D01*
D02*
G37*
G36*
X668030Y528507D02*
X667996Y528839D01*
X667891Y529136D01*
X667716Y529398D01*
X667472Y529625D01*
X667157Y529817D01*
X666773Y529974D01*
X666319Y530096D01*
X665795Y530184D01*
X665201Y530236D01*
X664538Y530253D01*
Y533746D01*
X665201Y533764D01*
X665795Y533816D01*
X666319Y533904D01*
X666773Y534026D01*
X667157Y534183D01*
X667472Y534375D01*
X667716Y534602D01*
X667891Y534864D01*
X667996Y535161D01*
X668030Y535493D01*
Y528507D01*
D02*
G37*
G36*
X874031Y529207D02*
X873996Y529539D01*
X873891Y529836D01*
X873716Y530098D01*
X873472Y530325D01*
X873157Y530517D01*
X872773Y530674D01*
X872319Y530796D01*
X871795Y530884D01*
X871201Y530936D01*
X870537Y530954D01*
Y534447D01*
X871201Y534464D01*
X871795Y534516D01*
X872319Y534604D01*
X872773Y534726D01*
X873157Y534883D01*
X873472Y535075D01*
X873716Y535302D01*
X873891Y535564D01*
X873996Y535861D01*
X874031Y536193D01*
Y529207D01*
D02*
G37*
G36*
X846004Y535861D02*
X846109Y535564D01*
X846284Y535302D01*
X846528Y535075D01*
X846843Y534883D01*
X847227Y534726D01*
X847681Y534604D01*
X848205Y534516D01*
X848799Y534464D01*
X849463Y534447D01*
Y530954D01*
X848799Y530936D01*
X848205Y530884D01*
X847681Y530796D01*
X847227Y530674D01*
X846843Y530517D01*
X846528Y530325D01*
X846284Y530098D01*
X846109Y529836D01*
X846004Y529539D01*
X845969Y529207D01*
Y536193D01*
X846004Y535861D01*
D02*
G37*
G36*
X918143Y529200D02*
X917926Y529400D01*
X917687Y529579D01*
X917427Y529737D01*
X917145Y529874D01*
X916842Y529990D01*
X916517Y530085D01*
X916170Y530159D01*
X915802Y530211D01*
X915413Y530243D01*
X915001Y530253D01*
Y533746D01*
X915413Y533757D01*
X915802Y533789D01*
X916170Y533841D01*
X916517Y533915D01*
X916842Y534010D01*
X917145Y534126D01*
X917427Y534263D01*
X917687Y534421D01*
X917926Y534600D01*
X918143Y534800D01*
Y529200D01*
D02*
G37*
G36*
X902004Y535161D02*
X902109Y534864D01*
X902284Y534602D01*
X902528Y534375D01*
X902843Y534183D01*
X903227Y534026D01*
X903681Y533904D01*
X904205Y533816D01*
X904799Y533764D01*
X905462Y533746D01*
Y530253D01*
X904799Y530236D01*
X904205Y530184D01*
X903681Y530096D01*
X903227Y529974D01*
X902843Y529817D01*
X902528Y529625D01*
X902284Y529398D01*
X902109Y529136D01*
X902004Y528839D01*
X901970Y528507D01*
Y535493D01*
X902004Y535161D01*
D02*
G37*
G36*
X610074Y510600D02*
X610313Y510421D01*
X610573Y510263D01*
X610855Y510126D01*
X611158Y510010D01*
X611483Y509915D01*
X611830Y509841D01*
X612198Y509789D01*
X612588Y509757D01*
X612999Y509747D01*
Y506254D01*
X612588Y506243D01*
X612198Y506211D01*
X611830Y506159D01*
X611483Y506085D01*
X611158Y505990D01*
X610855Y505874D01*
X610573Y505737D01*
X610313Y505579D01*
X610074Y505400D01*
X609857Y505200D01*
Y510800D01*
X610074Y510600D01*
D02*
G37*
G36*
X604143Y505200D02*
X603926Y505400D01*
X603687Y505579D01*
X603427Y505737D01*
X603145Y505874D01*
X602842Y505990D01*
X602517Y506085D01*
X602170Y506159D01*
X601802Y506211D01*
X601413Y506243D01*
X601001Y506254D01*
Y509747D01*
X601413Y509757D01*
X601802Y509789D01*
X602170Y509841D01*
X602517Y509915D01*
X602842Y510010D01*
X603145Y510126D01*
X603427Y510263D01*
X603687Y510421D01*
X603926Y510600D01*
X604143Y510800D01*
Y505200D01*
D02*
G37*
G36*
X546074Y510600D02*
X546313Y510421D01*
X546573Y510263D01*
X546855Y510126D01*
X547158Y510010D01*
X547483Y509915D01*
X547830Y509841D01*
X548198Y509789D01*
X548587Y509757D01*
X548999Y509747D01*
Y506254D01*
X548587Y506243D01*
X548198Y506211D01*
X547830Y506159D01*
X547483Y506085D01*
X547158Y505990D01*
X546855Y505874D01*
X546573Y505737D01*
X546313Y505579D01*
X546074Y505400D01*
X545857Y505200D01*
Y510800D01*
X546074Y510600D01*
D02*
G37*
G36*
X668030Y504507D02*
X667996Y504839D01*
X667891Y505136D01*
X667716Y505398D01*
X667472Y505625D01*
X667157Y505817D01*
X666773Y505974D01*
X666319Y506096D01*
X665795Y506184D01*
X665201Y506236D01*
X664538Y506254D01*
Y509747D01*
X665201Y509764D01*
X665795Y509816D01*
X666319Y509904D01*
X666773Y510026D01*
X667157Y510183D01*
X667472Y510375D01*
X667716Y510602D01*
X667891Y510864D01*
X667996Y511161D01*
X668030Y511493D01*
Y504507D01*
D02*
G37*
G36*
X724031Y503807D02*
X723996Y504139D01*
X723891Y504436D01*
X723716Y504698D01*
X723472Y504925D01*
X723157Y505117D01*
X722773Y505274D01*
X722319Y505397D01*
X721795Y505484D01*
X721201Y505536D01*
X720537Y505554D01*
Y509047D01*
X721201Y509064D01*
X721795Y509117D01*
X722319Y509204D01*
X722773Y509326D01*
X723157Y509483D01*
X723472Y509675D01*
X723716Y509902D01*
X723891Y510164D01*
X723996Y510461D01*
X724031Y510793D01*
Y503807D01*
D02*
G37*
G36*
X696004Y510461D02*
X696109Y510164D01*
X696284Y509902D01*
X696528Y509675D01*
X696843Y509483D01*
X697227Y509326D01*
X697681Y509204D01*
X698205Y509117D01*
X698799Y509064D01*
X699463Y509047D01*
Y505554D01*
X698799Y505536D01*
X698205Y505484D01*
X697681Y505397D01*
X697227Y505274D01*
X696843Y505117D01*
X696528Y504925D01*
X696284Y504698D01*
X696109Y504436D01*
X696004Y504139D01*
X695970Y503807D01*
Y510793D01*
X696004Y510461D01*
D02*
G37*
G36*
X918143Y506200D02*
X917926Y506400D01*
X917687Y506579D01*
X917427Y506737D01*
X917145Y506874D01*
X916842Y506990D01*
X916517Y507085D01*
X916170Y507159D01*
X915802Y507211D01*
X915413Y507243D01*
X915001Y507253D01*
Y510746D01*
X915413Y510757D01*
X915802Y510789D01*
X916170Y510841D01*
X916517Y510915D01*
X916842Y511010D01*
X917145Y511126D01*
X917427Y511263D01*
X917687Y511421D01*
X917926Y511600D01*
X918143Y511800D01*
Y506200D01*
D02*
G37*
G36*
X902004Y512161D02*
X902109Y511864D01*
X902284Y511602D01*
X902528Y511375D01*
X902843Y511183D01*
X903227Y511026D01*
X903681Y510904D01*
X904205Y510816D01*
X904799Y510764D01*
X905462Y510746D01*
Y507253D01*
X904799Y507236D01*
X904205Y507184D01*
X903681Y507096D01*
X903227Y506974D01*
X902843Y506817D01*
X902528Y506625D01*
X902284Y506398D01*
X902109Y506136D01*
X902004Y505839D01*
X901970Y505507D01*
Y512493D01*
X902004Y512161D01*
D02*
G37*
G36*
X874031Y503807D02*
X873996Y504139D01*
X873891Y504436D01*
X873716Y504698D01*
X873472Y504925D01*
X873157Y505117D01*
X872773Y505274D01*
X872319Y505396D01*
X871795Y505484D01*
X871201Y505536D01*
X870537Y505554D01*
Y509047D01*
X871201Y509064D01*
X871795Y509117D01*
X872319Y509204D01*
X872773Y509326D01*
X873157Y509483D01*
X873472Y509675D01*
X873716Y509902D01*
X873891Y510164D01*
X873996Y510461D01*
X874031Y510793D01*
Y503807D01*
D02*
G37*
G36*
X846004Y510461D02*
X846109Y510164D01*
X846284Y509902D01*
X846528Y509675D01*
X846843Y509483D01*
X847227Y509326D01*
X847681Y509204D01*
X848205Y509117D01*
X848799Y509064D01*
X849463Y509047D01*
Y505554D01*
X848799Y505536D01*
X848205Y505484D01*
X847681Y505396D01*
X847227Y505274D01*
X846843Y505117D01*
X846528Y504925D01*
X846284Y504698D01*
X846109Y504436D01*
X846004Y504139D01*
X845969Y503807D01*
Y510793D01*
X846004Y510461D01*
D02*
G37*
G36*
X724031Y478407D02*
X723996Y478739D01*
X723891Y479036D01*
X723716Y479298D01*
X723472Y479525D01*
X723157Y479717D01*
X722773Y479874D01*
X722319Y479997D01*
X721795Y480084D01*
X721201Y480136D01*
X720537Y480154D01*
Y483647D01*
X721201Y483664D01*
X721795Y483717D01*
X722319Y483804D01*
X722773Y483926D01*
X723157Y484083D01*
X723472Y484276D01*
X723716Y484502D01*
X723891Y484765D01*
X723996Y485061D01*
X724031Y485393D01*
Y478407D01*
D02*
G37*
G36*
X696004Y485061D02*
X696109Y484765D01*
X696284Y484502D01*
X696528Y484276D01*
X696843Y484083D01*
X697227Y483926D01*
X697681Y483804D01*
X698205Y483717D01*
X698799Y483664D01*
X699463Y483647D01*
Y480154D01*
X698799Y480136D01*
X698205Y480084D01*
X697681Y479997D01*
X697227Y479874D01*
X696843Y479717D01*
X696528Y479525D01*
X696284Y479298D01*
X696109Y479036D01*
X696004Y478739D01*
X695970Y478407D01*
Y485393D01*
X696004Y485061D01*
D02*
G37*
G36*
X598074Y483600D02*
X598313Y483421D01*
X598573Y483263D01*
X598855Y483126D01*
X599158Y483010D01*
X599483Y482915D01*
X599830Y482841D01*
X600198Y482789D01*
X600588Y482757D01*
X600999Y482747D01*
Y479254D01*
X600588Y479243D01*
X600198Y479211D01*
X599830Y479159D01*
X599483Y479085D01*
X599158Y478990D01*
X598855Y478874D01*
X598573Y478737D01*
X598313Y478579D01*
X598074Y478400D01*
X597857Y478200D01*
Y483800D01*
X598074Y483600D01*
D02*
G37*
G36*
X592143Y478200D02*
X591926Y478400D01*
X591687Y478579D01*
X591427Y478737D01*
X591145Y478874D01*
X590842Y478990D01*
X590517Y479085D01*
X590170Y479159D01*
X589802Y479211D01*
X589412Y479243D01*
X589001Y479254D01*
Y482747D01*
X589412Y482757D01*
X589802Y482789D01*
X590170Y482841D01*
X590517Y482915D01*
X590842Y483010D01*
X591145Y483126D01*
X591427Y483263D01*
X591687Y483421D01*
X591926Y483600D01*
X592143Y483800D01*
Y478200D01*
D02*
G37*
G36*
X545074Y483600D02*
X545313Y483421D01*
X545573Y483263D01*
X545855Y483126D01*
X546158Y483010D01*
X546483Y482915D01*
X546830Y482841D01*
X547198Y482789D01*
X547588Y482757D01*
X547999Y482747D01*
Y479254D01*
X547588Y479243D01*
X547198Y479211D01*
X546830Y479159D01*
X546483Y479085D01*
X546158Y478990D01*
X545855Y478874D01*
X545573Y478737D01*
X545313Y478579D01*
X545074Y478400D01*
X544857Y478200D01*
Y483800D01*
X545074Y483600D01*
D02*
G37*
G36*
X668030Y477507D02*
X667996Y477839D01*
X667891Y478136D01*
X667716Y478398D01*
X667472Y478625D01*
X667157Y478817D01*
X666773Y478974D01*
X666319Y479096D01*
X665795Y479184D01*
X665201Y479236D01*
X664538Y479254D01*
Y482747D01*
X665201Y482764D01*
X665795Y482816D01*
X666319Y482904D01*
X666773Y483026D01*
X667157Y483183D01*
X667472Y483375D01*
X667716Y483602D01*
X667891Y483864D01*
X667996Y484161D01*
X668030Y484493D01*
Y477507D01*
D02*
G37*
G36*
X987143Y479200D02*
X986926Y479400D01*
X986687Y479579D01*
X986427Y479737D01*
X986145Y479874D01*
X985842Y479990D01*
X985517Y480085D01*
X985170Y480159D01*
X984802Y480211D01*
X984413Y480243D01*
X984001Y480253D01*
Y483746D01*
X984413Y483757D01*
X984802Y483789D01*
X985170Y483841D01*
X985517Y483915D01*
X985842Y484010D01*
X986145Y484126D01*
X986427Y484263D01*
X986687Y484421D01*
X986926Y484600D01*
X987143Y484800D01*
Y479200D01*
D02*
G37*
G36*
X902004Y485161D02*
X902109Y484864D01*
X902284Y484602D01*
X902528Y484375D01*
X902843Y484183D01*
X903227Y484026D01*
X903681Y483904D01*
X904205Y483816D01*
X904799Y483764D01*
X905462Y483746D01*
Y480253D01*
X904799Y480236D01*
X904205Y480184D01*
X903681Y480096D01*
X903227Y479974D01*
X902843Y479817D01*
X902528Y479625D01*
X902284Y479398D01*
X902109Y479136D01*
X902004Y478839D01*
X901970Y478507D01*
Y485493D01*
X902004Y485161D01*
D02*
G37*
G36*
X874031Y478407D02*
X873996Y478739D01*
X873891Y479036D01*
X873716Y479298D01*
X873472Y479525D01*
X873157Y479717D01*
X872773Y479874D01*
X872319Y479996D01*
X871795Y480084D01*
X871201Y480136D01*
X870537Y480154D01*
Y483647D01*
X871201Y483664D01*
X871795Y483717D01*
X872319Y483804D01*
X872773Y483926D01*
X873157Y484083D01*
X873472Y484275D01*
X873716Y484502D01*
X873891Y484764D01*
X873996Y485061D01*
X874031Y485393D01*
Y478407D01*
D02*
G37*
G36*
X846004Y485061D02*
X846109Y484764D01*
X846284Y484502D01*
X846528Y484275D01*
X846843Y484083D01*
X847227Y483926D01*
X847681Y483804D01*
X848205Y483717D01*
X848799Y483664D01*
X849463Y483647D01*
Y480154D01*
X848799Y480136D01*
X848205Y480084D01*
X847681Y479996D01*
X847227Y479874D01*
X846843Y479717D01*
X846528Y479525D01*
X846284Y479298D01*
X846109Y479036D01*
X846004Y478739D01*
X845969Y478407D01*
Y485393D01*
X846004Y485061D01*
D02*
G37*
G36*
X349161Y572996D02*
X348864Y572891D01*
X348602Y572716D01*
X348375Y572472D01*
X348183Y572157D01*
X348026Y571773D01*
X347904Y571319D01*
X347816Y570795D01*
X347764Y570201D01*
X347747Y569538D01*
X344254D01*
X344236Y570201D01*
X344184Y570795D01*
X344096Y571319D01*
X343974Y571773D01*
X343817Y572157D01*
X343625Y572472D01*
X343398Y572716D01*
X343136Y572891D01*
X342839Y572996D01*
X342507Y573031D01*
X349493D01*
X349161Y572996D01*
D02*
G37*
G36*
X347764Y563799D02*
X347816Y563205D01*
X347904Y562681D01*
X348026Y562227D01*
X348183Y561843D01*
X348375Y561529D01*
X348602Y561284D01*
X348864Y561109D01*
X349161Y561005D01*
X349493Y560970D01*
X342507D01*
X342839Y561005D01*
X343136Y561109D01*
X343398Y561284D01*
X343625Y561529D01*
X343817Y561843D01*
X343974Y562227D01*
X344096Y562681D01*
X344184Y563205D01*
X344236Y563799D01*
X344254Y564463D01*
X347747D01*
X347764Y563799D01*
D02*
G37*
G36*
X352755Y559161D02*
X352859Y558864D01*
X353034Y558602D01*
X353279Y558375D01*
X353593Y558183D01*
X353977Y558026D01*
X354431Y557904D01*
X354955Y557817D01*
X355549Y557764D01*
X356213Y557747D01*
Y554254D01*
X355549Y554236D01*
X354955Y554184D01*
X354431Y554096D01*
X353977Y553974D01*
X353593Y553817D01*
X353279Y553625D01*
X353034Y553398D01*
X352859Y553136D01*
X352755Y552839D01*
X352720Y552507D01*
Y559493D01*
X352755Y559161D01*
D02*
G37*
G36*
X360764Y498799D02*
X360816Y498205D01*
X360904Y497681D01*
X361026Y497227D01*
X361183Y496843D01*
X361375Y496528D01*
X361602Y496284D01*
X361864Y496109D01*
X362161Y496004D01*
X362493Y495970D01*
X355507D01*
X355839Y496004D01*
X356136Y496109D01*
X356398Y496284D01*
X356625Y496528D01*
X356817Y496843D01*
X356974Y497227D01*
X357096Y497681D01*
X357184Y498205D01*
X357236Y498799D01*
X357254Y499463D01*
X360747D01*
X360764Y498799D01*
D02*
G37*
G36*
X586074Y458600D02*
X586313Y458421D01*
X586573Y458263D01*
X586855Y458126D01*
X587158Y458010D01*
X587483Y457915D01*
X587830Y457841D01*
X588198Y457789D01*
X588587Y457757D01*
X588999Y457747D01*
Y454254D01*
X588587Y454243D01*
X588198Y454211D01*
X587830Y454159D01*
X587483Y454085D01*
X587158Y453990D01*
X586855Y453874D01*
X586573Y453737D01*
X586313Y453579D01*
X586074Y453400D01*
X585857Y453200D01*
Y458800D01*
X586074Y458600D01*
D02*
G37*
G36*
X580143Y453200D02*
X579926Y453400D01*
X579687Y453579D01*
X579427Y453737D01*
X579145Y453874D01*
X578842Y453990D01*
X578517Y454085D01*
X578170Y454159D01*
X577802Y454211D01*
X577412Y454243D01*
X577001Y454254D01*
Y457747D01*
X577412Y457757D01*
X577802Y457789D01*
X578170Y457841D01*
X578517Y457915D01*
X578842Y458010D01*
X579145Y458126D01*
X579427Y458263D01*
X579687Y458421D01*
X579926Y458600D01*
X580143Y458800D01*
Y453200D01*
D02*
G37*
G36*
X545074Y458600D02*
X545313Y458421D01*
X545573Y458263D01*
X545855Y458126D01*
X546158Y458010D01*
X546483Y457915D01*
X546830Y457841D01*
X547198Y457789D01*
X547588Y457757D01*
X547999Y457747D01*
Y454254D01*
X547588Y454243D01*
X547198Y454211D01*
X546830Y454159D01*
X546483Y454085D01*
X546158Y453990D01*
X545855Y453874D01*
X545573Y453737D01*
X545313Y453579D01*
X545074Y453400D01*
X544857Y453200D01*
Y458800D01*
X545074Y458600D01*
D02*
G37*
G36*
X724031Y453007D02*
X723996Y453339D01*
X723891Y453636D01*
X723716Y453898D01*
X723472Y454125D01*
X723157Y454317D01*
X722773Y454474D01*
X722319Y454597D01*
X721795Y454684D01*
X721201Y454736D01*
X720537Y454754D01*
Y458247D01*
X721201Y458264D01*
X721795Y458317D01*
X722319Y458404D01*
X722773Y458526D01*
X723157Y458683D01*
X723472Y458876D01*
X723716Y459103D01*
X723891Y459365D01*
X723996Y459661D01*
X724031Y459993D01*
Y453007D01*
D02*
G37*
G36*
X696004Y459661D02*
X696109Y459365D01*
X696284Y459103D01*
X696528Y458876D01*
X696843Y458683D01*
X697227Y458526D01*
X697681Y458404D01*
X698205Y458317D01*
X698799Y458264D01*
X699463Y458247D01*
Y454754D01*
X698799Y454736D01*
X698205Y454684D01*
X697681Y454597D01*
X697227Y454474D01*
X696843Y454317D01*
X696528Y454125D01*
X696284Y453898D01*
X696109Y453636D01*
X696004Y453339D01*
X695970Y453007D01*
Y459993D01*
X696004Y459661D01*
D02*
G37*
G36*
X668030Y452507D02*
X667996Y452839D01*
X667891Y453136D01*
X667716Y453398D01*
X667472Y453625D01*
X667157Y453817D01*
X666773Y453974D01*
X666319Y454096D01*
X665795Y454184D01*
X665201Y454236D01*
X664538Y454254D01*
Y457747D01*
X665201Y457764D01*
X665795Y457816D01*
X666319Y457904D01*
X666773Y458026D01*
X667157Y458183D01*
X667472Y458375D01*
X667716Y458602D01*
X667891Y458864D01*
X667996Y459161D01*
X668030Y459493D01*
Y452507D01*
D02*
G37*
G36*
X986143Y453200D02*
X985926Y453400D01*
X985687Y453579D01*
X985427Y453737D01*
X985145Y453874D01*
X984842Y453990D01*
X984517Y454085D01*
X984170Y454159D01*
X983802Y454211D01*
X983412Y454243D01*
X983001Y454254D01*
Y457747D01*
X983412Y457757D01*
X983802Y457789D01*
X984170Y457841D01*
X984517Y457915D01*
X984842Y458010D01*
X985145Y458126D01*
X985427Y458263D01*
X985687Y458421D01*
X985926Y458600D01*
X986143Y458800D01*
Y453200D01*
D02*
G37*
G36*
X874031Y453007D02*
X873996Y453339D01*
X873891Y453636D01*
X873716Y453898D01*
X873472Y454125D01*
X873157Y454317D01*
X872773Y454474D01*
X872319Y454596D01*
X871795Y454684D01*
X871201Y454736D01*
X870537Y454754D01*
Y458247D01*
X871201Y458264D01*
X871795Y458316D01*
X872319Y458404D01*
X872773Y458526D01*
X873157Y458683D01*
X873472Y458875D01*
X873716Y459102D01*
X873891Y459364D01*
X873996Y459661D01*
X874031Y459993D01*
Y453007D01*
D02*
G37*
G36*
X846004Y459661D02*
X846109Y459364D01*
X846284Y459102D01*
X846528Y458875D01*
X846843Y458683D01*
X847227Y458526D01*
X847681Y458404D01*
X848205Y458316D01*
X848799Y458264D01*
X849463Y458247D01*
Y454754D01*
X848799Y454736D01*
X848205Y454684D01*
X847681Y454596D01*
X847227Y454474D01*
X846843Y454317D01*
X846528Y454125D01*
X846284Y453898D01*
X846109Y453636D01*
X846004Y453339D01*
X845969Y453007D01*
Y459993D01*
X846004Y459661D01*
D02*
G37*
G36*
X902004Y459161D02*
X902109Y458864D01*
X902284Y458602D01*
X902528Y458375D01*
X902843Y458183D01*
X903227Y458026D01*
X903681Y457904D01*
X904205Y457816D01*
X904799Y457764D01*
X905462Y457747D01*
Y454254D01*
X904799Y454236D01*
X904205Y454184D01*
X903681Y454096D01*
X903227Y453974D01*
X902843Y453817D01*
X902528Y453625D01*
X902284Y453398D01*
X902109Y453136D01*
X902004Y452839D01*
X901970Y452507D01*
Y459493D01*
X902004Y459161D01*
D02*
G37*
G36*
X874031Y380007D02*
X873996Y380339D01*
X873891Y380636D01*
X873716Y380898D01*
X873472Y381125D01*
X873157Y381317D01*
X872773Y381474D01*
X872319Y381596D01*
X871795Y381684D01*
X871201Y381736D01*
X870537Y381754D01*
Y385247D01*
X871201Y385264D01*
X871795Y385316D01*
X872319Y385404D01*
X872773Y385526D01*
X873157Y385683D01*
X873472Y385875D01*
X873716Y386102D01*
X873891Y386364D01*
X873996Y386661D01*
X874031Y386993D01*
Y380007D01*
D02*
G37*
G36*
X846004Y386661D02*
X846109Y386364D01*
X846284Y386102D01*
X846528Y385875D01*
X846843Y385683D01*
X847227Y385526D01*
X847681Y385404D01*
X848205Y385316D01*
X848799Y385264D01*
X849463Y385247D01*
Y381754D01*
X848799Y381736D01*
X848205Y381684D01*
X847681Y381596D01*
X847227Y381474D01*
X846843Y381317D01*
X846528Y381125D01*
X846284Y380898D01*
X846109Y380636D01*
X846004Y380339D01*
X845969Y380007D01*
Y386993D01*
X846004Y386661D01*
D02*
G37*
G36*
X818030Y380007D02*
X817996Y380339D01*
X817891Y380636D01*
X817716Y380898D01*
X817472Y381125D01*
X817157Y381317D01*
X816773Y381474D01*
X816319Y381596D01*
X815795Y381684D01*
X815201Y381736D01*
X814538Y381754D01*
Y385247D01*
X815201Y385264D01*
X815795Y385316D01*
X816319Y385404D01*
X816773Y385526D01*
X817157Y385683D01*
X817472Y385875D01*
X817716Y386102D01*
X817891Y386364D01*
X817996Y386661D01*
X818030Y386993D01*
Y380007D01*
D02*
G37*
G36*
X704640Y151370D02*
X704284Y150979D01*
X703966Y150558D01*
X703687Y150105D01*
X703446Y149621D01*
X703243Y149105D01*
X703078Y148559D01*
X702951Y147981D01*
X702862Y147372D01*
X702812Y146732D01*
X702800Y146060D01*
X696860Y152000D01*
X697532Y152012D01*
X698172Y152063D01*
X698781Y152151D01*
X699359Y152278D01*
X699905Y152443D01*
X700421Y152646D01*
X700905Y152887D01*
X701358Y153166D01*
X701779Y153484D01*
X702170Y153840D01*
X704640Y151370D01*
D02*
G37*
G36*
X652074Y385600D02*
X652313Y385421D01*
X652573Y385263D01*
X652855Y385126D01*
X653158Y385010D01*
X653483Y384915D01*
X653830Y384841D01*
X654198Y384789D01*
X654587Y384757D01*
X654999Y384747D01*
Y381254D01*
X654587Y381243D01*
X654198Y381211D01*
X653830Y381159D01*
X653483Y381085D01*
X653158Y380990D01*
X652855Y380874D01*
X652573Y380737D01*
X652313Y380579D01*
X652074Y380400D01*
X651857Y380200D01*
Y385800D01*
X652074Y385600D01*
D02*
G37*
G36*
X724031Y380007D02*
X723996Y380339D01*
X723891Y380636D01*
X723716Y380898D01*
X723472Y381125D01*
X723157Y381317D01*
X722773Y381474D01*
X722319Y381596D01*
X721795Y381684D01*
X721201Y381736D01*
X720537Y381754D01*
Y385247D01*
X721201Y385264D01*
X721795Y385316D01*
X722319Y385404D01*
X722773Y385526D01*
X723157Y385683D01*
X723472Y385875D01*
X723716Y386102D01*
X723891Y386364D01*
X723996Y386661D01*
X724031Y386993D01*
Y380007D01*
D02*
G37*
G36*
X696004Y386661D02*
X696109Y386364D01*
X696284Y386102D01*
X696528Y385875D01*
X696843Y385683D01*
X697227Y385526D01*
X697681Y385404D01*
X698205Y385316D01*
X698799Y385264D01*
X699463Y385247D01*
Y381754D01*
X698799Y381736D01*
X698205Y381684D01*
X697681Y381596D01*
X697227Y381474D01*
X696843Y381317D01*
X696528Y381125D01*
X696284Y380898D01*
X696109Y380636D01*
X696004Y380339D01*
X695970Y380007D01*
Y386993D01*
X696004Y386661D01*
D02*
G37*
G36*
X668030Y379507D02*
X667996Y379839D01*
X667891Y380136D01*
X667716Y380398D01*
X667472Y380625D01*
X667157Y380817D01*
X666773Y380974D01*
X666319Y381096D01*
X665795Y381184D01*
X665201Y381236D01*
X664538Y381254D01*
Y384747D01*
X665201Y384764D01*
X665795Y384816D01*
X666319Y384904D01*
X666773Y385026D01*
X667157Y385183D01*
X667472Y385375D01*
X667716Y385602D01*
X667891Y385864D01*
X667996Y386161D01*
X668030Y386493D01*
Y379507D01*
D02*
G37*
G36*
X387561Y411996D02*
X387264Y411891D01*
X387002Y411716D01*
X386775Y411472D01*
X386583Y411157D01*
X386426Y410773D01*
X386304Y410319D01*
X386217Y409795D01*
X386164Y409201D01*
X386147Y408537D01*
X382654D01*
X382636Y409201D01*
X382584Y409795D01*
X382496Y410319D01*
X382374Y410773D01*
X382217Y411157D01*
X382025Y411472D01*
X381798Y411716D01*
X381536Y411891D01*
X381239Y411996D01*
X380907Y412030D01*
X387893D01*
X387561Y411996D01*
D02*
G37*
G36*
X386155Y322100D02*
X386226Y321258D01*
X386288Y320916D01*
X386367Y320627D01*
X386465Y320390D01*
X386580Y320206D01*
X386712Y320075D01*
X386862Y319996D01*
X387030Y319970D01*
X381770D01*
X381938Y319996D01*
X382088Y320075D01*
X382220Y320206D01*
X382335Y320390D01*
X382433Y320627D01*
X382512Y320916D01*
X382574Y321258D01*
X382618Y321653D01*
X382654Y322600D01*
X386147D01*
X386155Y322100D01*
D02*
G37*
G36*
X387561Y291996D02*
X387264Y291891D01*
X387002Y291716D01*
X386775Y291472D01*
X386583Y291157D01*
X386426Y290773D01*
X386304Y290319D01*
X386216Y289795D01*
X386164Y289201D01*
X386147Y288538D01*
X382654D01*
X382636Y289201D01*
X382584Y289795D01*
X382496Y290319D01*
X382374Y290773D01*
X382217Y291157D01*
X382025Y291472D01*
X381798Y291716D01*
X381536Y291891D01*
X381239Y291996D01*
X380907Y292031D01*
X387893D01*
X387561Y291996D01*
D02*
G37*
G36*
X135512Y116972D02*
X135666Y115232D01*
X135808Y114446D01*
X135994Y113715D01*
X136223Y113040D01*
X136496Y112421D01*
X136812Y111857D01*
X137172Y111348D01*
X137575Y110896D01*
X135105Y108426D01*
X134652Y108829D01*
X134144Y109188D01*
X133580Y109505D01*
X132961Y109777D01*
X132285Y110007D01*
X131555Y110192D01*
X130768Y110335D01*
X129926Y110433D01*
X129029Y110489D01*
X128075Y110501D01*
X135500Y117925D01*
X135512Y116972D01*
D02*
G37*
G36*
X874031Y354607D02*
X873996Y354939D01*
X873891Y355236D01*
X873716Y355498D01*
X873472Y355725D01*
X873157Y355917D01*
X872773Y356074D01*
X872319Y356196D01*
X871795Y356284D01*
X871201Y356336D01*
X870537Y356353D01*
Y359846D01*
X871201Y359864D01*
X871795Y359916D01*
X872319Y360004D01*
X872773Y360126D01*
X873157Y360283D01*
X873472Y360475D01*
X873716Y360702D01*
X873891Y360964D01*
X873996Y361261D01*
X874031Y361593D01*
Y354607D01*
D02*
G37*
G36*
X846004Y361261D02*
X846109Y360964D01*
X846284Y360702D01*
X846528Y360475D01*
X846843Y360283D01*
X847227Y360126D01*
X847681Y360004D01*
X848205Y359916D01*
X848799Y359864D01*
X849463Y359846D01*
Y356353D01*
X848799Y356336D01*
X848205Y356284D01*
X847681Y356196D01*
X847227Y356074D01*
X846843Y355917D01*
X846528Y355725D01*
X846284Y355498D01*
X846109Y355236D01*
X846004Y354939D01*
X845969Y354607D01*
Y361593D01*
X846004Y361261D01*
D02*
G37*
G36*
X818030Y354607D02*
X817996Y354939D01*
X817891Y355236D01*
X817716Y355498D01*
X817472Y355725D01*
X817157Y355917D01*
X816773Y356074D01*
X816319Y356196D01*
X815795Y356284D01*
X815201Y356336D01*
X814538Y356353D01*
Y359846D01*
X815201Y359864D01*
X815795Y359916D01*
X816319Y360004D01*
X816773Y360126D01*
X817157Y360283D01*
X817472Y360475D01*
X817716Y360702D01*
X817891Y360964D01*
X817996Y361261D01*
X818030Y361593D01*
Y354607D01*
D02*
G37*
G36*
X701569Y124334D02*
X702057Y123917D01*
X702550Y123549D01*
X703048Y123230D01*
X703551Y122960D01*
X704059Y122739D01*
X704572Y122568D01*
X705090Y122445D01*
X705613Y122371D01*
X706140Y122347D01*
Y118854D01*
X705613Y118829D01*
X705090Y118756D01*
X704572Y118633D01*
X704059Y118461D01*
X703551Y118240D01*
X703048Y117971D01*
X702550Y117652D01*
X702057Y117283D01*
X701569Y116866D01*
X701085Y116400D01*
Y124800D01*
X701569Y124334D01*
D02*
G37*
G36*
X652074Y360600D02*
X652313Y360421D01*
X652573Y360263D01*
X652855Y360126D01*
X653158Y360010D01*
X653483Y359915D01*
X653830Y359841D01*
X654198Y359789D01*
X654587Y359757D01*
X654999Y359747D01*
Y356254D01*
X654587Y356243D01*
X654198Y356211D01*
X653830Y356159D01*
X653483Y356085D01*
X653158Y355990D01*
X652855Y355874D01*
X652573Y355737D01*
X652313Y355579D01*
X652074Y355400D01*
X651857Y355200D01*
Y360800D01*
X652074Y360600D01*
D02*
G37*
G36*
X724031Y354607D02*
X723996Y354939D01*
X723891Y355236D01*
X723716Y355498D01*
X723472Y355725D01*
X723157Y355917D01*
X722773Y356074D01*
X722319Y356196D01*
X721795Y356284D01*
X721201Y356336D01*
X720537Y356353D01*
Y359846D01*
X721201Y359864D01*
X721795Y359916D01*
X722319Y360004D01*
X722773Y360126D01*
X723157Y360283D01*
X723472Y360475D01*
X723716Y360702D01*
X723891Y360964D01*
X723996Y361261D01*
X724031Y361593D01*
Y354607D01*
D02*
G37*
G36*
X696004Y361261D02*
X696109Y360964D01*
X696284Y360702D01*
X696528Y360475D01*
X696843Y360283D01*
X697227Y360126D01*
X697681Y360004D01*
X698205Y359916D01*
X698799Y359864D01*
X699463Y359846D01*
Y356353D01*
X698799Y356336D01*
X698205Y356284D01*
X697681Y356196D01*
X697227Y356074D01*
X696843Y355917D01*
X696528Y355725D01*
X696284Y355498D01*
X696109Y355236D01*
X696004Y354939D01*
X695970Y354607D01*
Y361593D01*
X696004Y361261D01*
D02*
G37*
G36*
X668030Y354507D02*
X667996Y354839D01*
X667891Y355136D01*
X667716Y355398D01*
X667472Y355625D01*
X667157Y355817D01*
X666773Y355974D01*
X666319Y356096D01*
X665795Y356184D01*
X665201Y356236D01*
X664538Y356254D01*
Y359747D01*
X665201Y359764D01*
X665795Y359816D01*
X666319Y359904D01*
X666773Y360026D01*
X667157Y360183D01*
X667472Y360375D01*
X667716Y360602D01*
X667891Y360864D01*
X667996Y361161D01*
X668030Y361493D01*
Y354507D01*
D02*
G37*
G36*
X412961Y411996D02*
X412664Y411891D01*
X412402Y411716D01*
X412175Y411472D01*
X411983Y411157D01*
X411826Y410773D01*
X411704Y410319D01*
X411617Y409795D01*
X411564Y409201D01*
X411547Y408537D01*
X408054D01*
X408036Y409201D01*
X407984Y409795D01*
X407896Y410319D01*
X407774Y410773D01*
X407617Y411157D01*
X407425Y411472D01*
X407198Y411716D01*
X406936Y411891D01*
X406639Y411996D01*
X406307Y412030D01*
X413293D01*
X412961Y411996D01*
D02*
G37*
G36*
X411561Y322586D02*
X411606Y322037D01*
X411680Y321552D01*
X411784Y321133D01*
X411917Y320777D01*
X412081Y320486D01*
X412274Y320260D01*
X412496Y320099D01*
X412749Y320002D01*
X413031Y319970D01*
X406570D01*
X406852Y320002D01*
X407104Y320099D01*
X407326Y320260D01*
X407519Y320486D01*
X407682Y320777D01*
X407816Y321133D01*
X407920Y321552D01*
X407994Y322037D01*
X408039Y322586D01*
X408054Y323200D01*
X411547D01*
X411561Y322586D01*
D02*
G37*
G36*
X413161Y291996D02*
X412864Y291891D01*
X412602Y291716D01*
X412375Y291472D01*
X412183Y291157D01*
X412026Y290773D01*
X411904Y290319D01*
X411816Y289795D01*
X411764Y289201D01*
X411746Y288538D01*
X408254D01*
X408236Y289201D01*
X408184Y289795D01*
X408096Y290319D01*
X407974Y290773D01*
X407817Y291157D01*
X407625Y291472D01*
X407398Y291716D01*
X407136Y291891D01*
X406839Y291996D01*
X406507Y292031D01*
X413493D01*
X413161Y291996D01*
D02*
G37*
G36*
X411757Y231588D02*
X411789Y231198D01*
X411841Y230830D01*
X411915Y230483D01*
X412010Y230158D01*
X412126Y229855D01*
X412263Y229573D01*
X412421Y229313D01*
X412600Y229074D01*
X412800Y228857D01*
X407200D01*
X407400Y229074D01*
X407579Y229313D01*
X407737Y229573D01*
X407874Y229855D01*
X407990Y230158D01*
X408085Y230483D01*
X408159Y230830D01*
X408211Y231198D01*
X408243Y231588D01*
X408254Y231999D01*
X411746D01*
X411757Y231588D01*
D02*
G37*
G36*
X902004Y335861D02*
X902109Y335564D01*
X902284Y335302D01*
X902528Y335075D01*
X902843Y334883D01*
X903227Y334726D01*
X903681Y334604D01*
X904205Y334516D01*
X904799Y334464D01*
X905462Y334446D01*
Y330953D01*
X904799Y330936D01*
X904205Y330884D01*
X903681Y330796D01*
X903227Y330674D01*
X902843Y330517D01*
X902528Y330325D01*
X902284Y330098D01*
X902109Y329836D01*
X902004Y329539D01*
X901970Y329207D01*
Y336193D01*
X902004Y335861D01*
D02*
G37*
G36*
X874031Y329207D02*
X873996Y329539D01*
X873891Y329836D01*
X873716Y330098D01*
X873472Y330325D01*
X873157Y330517D01*
X872773Y330674D01*
X872319Y330796D01*
X871795Y330884D01*
X871201Y330936D01*
X870537Y330953D01*
Y334446D01*
X871201Y334464D01*
X871795Y334516D01*
X872319Y334604D01*
X872773Y334726D01*
X873157Y334883D01*
X873472Y335075D01*
X873716Y335302D01*
X873891Y335564D01*
X873996Y335861D01*
X874031Y336193D01*
Y329207D01*
D02*
G37*
G36*
X846004Y335861D02*
X846109Y335564D01*
X846284Y335302D01*
X846528Y335075D01*
X846843Y334883D01*
X847227Y334726D01*
X847681Y334604D01*
X848205Y334516D01*
X848799Y334464D01*
X849463Y334446D01*
Y330953D01*
X848799Y330936D01*
X848205Y330884D01*
X847681Y330796D01*
X847227Y330674D01*
X846843Y330517D01*
X846528Y330325D01*
X846284Y330098D01*
X846109Y329836D01*
X846004Y329539D01*
X845969Y329207D01*
Y336193D01*
X846004Y335861D01*
D02*
G37*
G36*
X948571Y154813D02*
X948645Y154290D01*
X948767Y153772D01*
X948939Y153259D01*
X949160Y152751D01*
X949430Y152248D01*
X949749Y151750D01*
X950117Y151257D01*
X950534Y150768D01*
X951000Y150285D01*
X942600D01*
X943066Y150768D01*
X943484Y151257D01*
X943851Y151750D01*
X944171Y152248D01*
X944440Y152751D01*
X944661Y153259D01*
X944833Y153772D01*
X944956Y154290D01*
X945029Y154813D01*
X945054Y155340D01*
X948547D01*
X948571Y154813D01*
D02*
G37*
G36*
X724031Y329207D02*
X723996Y329539D01*
X723891Y329836D01*
X723716Y330098D01*
X723472Y330325D01*
X723157Y330517D01*
X722773Y330674D01*
X722319Y330796D01*
X721795Y330884D01*
X721201Y330936D01*
X720537Y330953D01*
Y334446D01*
X721201Y334464D01*
X721795Y334516D01*
X722319Y334604D01*
X722773Y334726D01*
X723157Y334883D01*
X723472Y335075D01*
X723716Y335302D01*
X723891Y335564D01*
X723996Y335861D01*
X724031Y336193D01*
Y329207D01*
D02*
G37*
G36*
X696004Y335861D02*
X696109Y335564D01*
X696284Y335302D01*
X696528Y335075D01*
X696843Y334883D01*
X697227Y334726D01*
X697681Y334604D01*
X698205Y334516D01*
X698799Y334464D01*
X699463Y334446D01*
Y330953D01*
X698799Y330936D01*
X698205Y330884D01*
X697681Y330796D01*
X697227Y330674D01*
X696843Y330517D01*
X696528Y330325D01*
X696284Y330098D01*
X696109Y329836D01*
X696004Y329539D01*
X695970Y329207D01*
Y336193D01*
X696004Y335861D01*
D02*
G37*
G36*
X652074Y334600D02*
X652313Y334421D01*
X652573Y334263D01*
X652855Y334126D01*
X653158Y334010D01*
X653483Y333915D01*
X653830Y333841D01*
X654198Y333789D01*
X654587Y333757D01*
X654999Y333746D01*
Y330253D01*
X654587Y330243D01*
X654198Y330211D01*
X653830Y330159D01*
X653483Y330085D01*
X653158Y329990D01*
X652855Y329874D01*
X652573Y329737D01*
X652313Y329579D01*
X652074Y329400D01*
X651857Y329200D01*
Y334800D01*
X652074Y334600D01*
D02*
G37*
G36*
X668030Y328507D02*
X667996Y328839D01*
X667891Y329136D01*
X667716Y329398D01*
X667472Y329625D01*
X667157Y329817D01*
X666773Y329974D01*
X666319Y330096D01*
X665795Y330184D01*
X665201Y330236D01*
X664538Y330253D01*
Y333746D01*
X665201Y333764D01*
X665795Y333816D01*
X666319Y333904D01*
X666773Y334026D01*
X667157Y334183D01*
X667472Y334375D01*
X667716Y334602D01*
X667891Y334864D01*
X667996Y335161D01*
X668030Y335493D01*
Y328507D01*
D02*
G37*
G36*
X902004Y310461D02*
X902109Y310164D01*
X902284Y309902D01*
X902528Y309675D01*
X902843Y309483D01*
X903227Y309326D01*
X903681Y309204D01*
X904205Y309116D01*
X904799Y309064D01*
X905462Y309046D01*
Y305553D01*
X904799Y305536D01*
X904205Y305484D01*
X903681Y305396D01*
X903227Y305274D01*
X902843Y305117D01*
X902528Y304925D01*
X902284Y304698D01*
X902109Y304436D01*
X902004Y304139D01*
X901970Y303807D01*
Y310793D01*
X902004Y310461D01*
D02*
G37*
G36*
X874031Y303807D02*
X873996Y304139D01*
X873891Y304436D01*
X873716Y304698D01*
X873472Y304925D01*
X873157Y305117D01*
X872773Y305274D01*
X872319Y305396D01*
X871795Y305484D01*
X871201Y305536D01*
X870537Y305553D01*
Y309046D01*
X871201Y309064D01*
X871795Y309116D01*
X872319Y309204D01*
X872773Y309326D01*
X873157Y309483D01*
X873472Y309675D01*
X873716Y309902D01*
X873891Y310164D01*
X873996Y310461D01*
X874031Y310793D01*
Y303807D01*
D02*
G37*
G36*
X846004Y310461D02*
X846109Y310164D01*
X846284Y309902D01*
X846528Y309675D01*
X846843Y309483D01*
X847227Y309326D01*
X847681Y309204D01*
X848205Y309116D01*
X848799Y309064D01*
X849463Y309046D01*
Y305553D01*
X848799Y305536D01*
X848205Y305484D01*
X847681Y305396D01*
X847227Y305274D01*
X846843Y305117D01*
X846528Y304925D01*
X846284Y304698D01*
X846109Y304436D01*
X846004Y304139D01*
X845969Y303807D01*
Y310793D01*
X846004Y310461D01*
D02*
G37*
G36*
X902004Y259661D02*
X902109Y259364D01*
X902284Y259102D01*
X902528Y258875D01*
X902843Y258683D01*
X903227Y258526D01*
X903681Y258404D01*
X904205Y258316D01*
X904799Y258264D01*
X905462Y258246D01*
Y254753D01*
X904799Y254736D01*
X904205Y254684D01*
X903681Y254596D01*
X903227Y254474D01*
X902843Y254317D01*
X902528Y254125D01*
X902284Y253898D01*
X902109Y253636D01*
X902004Y253339D01*
X901970Y253007D01*
Y259993D01*
X902004Y259661D01*
D02*
G37*
G36*
X874031Y253007D02*
X873996Y253339D01*
X873891Y253636D01*
X873716Y253898D01*
X873472Y254125D01*
X873157Y254317D01*
X872773Y254474D01*
X872319Y254596D01*
X871795Y254684D01*
X871201Y254736D01*
X870537Y254753D01*
Y258246D01*
X871201Y258264D01*
X871795Y258316D01*
X872319Y258404D01*
X872773Y258526D01*
X873157Y258683D01*
X873472Y258875D01*
X873716Y259102D01*
X873891Y259364D01*
X873996Y259661D01*
X874031Y259993D01*
Y253007D01*
D02*
G37*
G36*
X846004Y259661D02*
X846109Y259364D01*
X846284Y259102D01*
X846528Y258875D01*
X846843Y258683D01*
X847227Y258526D01*
X847681Y258404D01*
X848205Y258316D01*
X848799Y258264D01*
X849463Y258246D01*
Y254753D01*
X848799Y254736D01*
X848205Y254684D01*
X847681Y254596D01*
X847227Y254474D01*
X846843Y254317D01*
X846528Y254125D01*
X846284Y253898D01*
X846109Y253636D01*
X846004Y253339D01*
X845969Y253007D01*
Y259993D01*
X846004Y259661D01*
D02*
G37*
G36*
X942515Y116400D02*
X942032Y116866D01*
X941544Y117283D01*
X941050Y117652D01*
X940552Y117971D01*
X940049Y118240D01*
X939541Y118461D01*
X939028Y118633D01*
X938510Y118756D01*
X937988Y118829D01*
X937460Y118854D01*
Y122347D01*
X937988Y122371D01*
X938510Y122445D01*
X939028Y122568D01*
X939541Y122739D01*
X940049Y122960D01*
X940552Y123230D01*
X941050Y123549D01*
X941544Y123917D01*
X942032Y124334D01*
X942515Y124800D01*
Y116400D01*
D02*
G37*
G36*
X1195140Y114600D02*
X1194469Y114588D01*
X1193828Y114538D01*
X1193219Y114449D01*
X1192642Y114323D01*
X1192095Y114158D01*
X1191580Y113955D01*
X1191096Y113714D01*
X1190643Y113434D01*
X1190221Y113117D01*
X1189830Y112761D01*
X1187361Y115231D01*
X1187716Y115621D01*
X1188034Y116043D01*
X1188313Y116496D01*
X1188555Y116980D01*
X1188758Y117495D01*
X1188923Y118042D01*
X1189049Y118619D01*
X1189138Y119228D01*
X1189188Y119869D01*
X1189200Y120540D01*
X1195140Y114600D01*
D02*
G37*
G36*
X923413Y205640D02*
X923612Y204792D01*
X896910Y178090D01*
X895962Y176672D01*
X895630Y175000D01*
Y135000D01*
X895962Y133328D01*
X896910Y131910D01*
X911309Y117510D01*
X912727Y116562D01*
X914400Y116230D01*
X937875D01*
X938030Y116208D01*
X938317Y116140D01*
X938612Y116041D01*
X938919Y115908D01*
X939240Y115736D01*
X939576Y115520D01*
X939927Y115259D01*
X940291Y114948D01*
X940718Y114536D01*
X940912Y114411D01*
X941557Y113766D01*
X943039Y112910D01*
X942841Y110958D01*
X942610Y110371D01*
X911810D01*
X890370Y131810D01*
Y176190D01*
X920617Y206436D01*
X923413Y205640D01*
D02*
G37*
G36*
X652074Y309600D02*
X652313Y309421D01*
X652573Y309263D01*
X652855Y309126D01*
X653158Y309010D01*
X653483Y308915D01*
X653830Y308841D01*
X654198Y308789D01*
X654587Y308757D01*
X654999Y308746D01*
Y305254D01*
X654587Y305243D01*
X654198Y305211D01*
X653830Y305159D01*
X653483Y305085D01*
X653158Y304990D01*
X652855Y304874D01*
X652573Y304737D01*
X652313Y304579D01*
X652074Y304400D01*
X651857Y304200D01*
Y309800D01*
X652074Y309600D01*
D02*
G37*
G36*
X724031Y303807D02*
X723996Y304139D01*
X723891Y304436D01*
X723716Y304698D01*
X723472Y304925D01*
X723157Y305117D01*
X722773Y305274D01*
X722319Y305396D01*
X721795Y305484D01*
X721201Y305536D01*
X720537Y305553D01*
Y309046D01*
X721201Y309064D01*
X721795Y309116D01*
X722319Y309204D01*
X722773Y309326D01*
X723157Y309483D01*
X723472Y309675D01*
X723716Y309902D01*
X723891Y310164D01*
X723996Y310461D01*
X724031Y310793D01*
Y303807D01*
D02*
G37*
G36*
X696004Y310461D02*
X696109Y310164D01*
X696284Y309902D01*
X696528Y309675D01*
X696843Y309483D01*
X697227Y309326D01*
X697681Y309204D01*
X698205Y309116D01*
X698799Y309064D01*
X699463Y309046D01*
Y305553D01*
X698799Y305536D01*
X698205Y305484D01*
X697681Y305396D01*
X697227Y305274D01*
X696843Y305117D01*
X696528Y304925D01*
X696284Y304698D01*
X696109Y304436D01*
X696004Y304139D01*
X695970Y303807D01*
Y310793D01*
X696004Y310461D01*
D02*
G37*
G36*
X668030Y303507D02*
X667996Y303839D01*
X667891Y304136D01*
X667716Y304398D01*
X667472Y304625D01*
X667157Y304817D01*
X666773Y304974D01*
X666319Y305096D01*
X665795Y305184D01*
X665201Y305236D01*
X664538Y305254D01*
Y308746D01*
X665201Y308764D01*
X665795Y308816D01*
X666319Y308904D01*
X666773Y309026D01*
X667157Y309183D01*
X667472Y309375D01*
X667716Y309602D01*
X667891Y309864D01*
X667996Y310161D01*
X668030Y310493D01*
Y303507D01*
D02*
G37*
G36*
X874031Y278407D02*
X873996Y278739D01*
X873891Y279036D01*
X873716Y279298D01*
X873472Y279525D01*
X873157Y279717D01*
X872773Y279874D01*
X872319Y279996D01*
X871795Y280084D01*
X871201Y280136D01*
X870537Y280154D01*
Y283647D01*
X871201Y283664D01*
X871795Y283716D01*
X872319Y283804D01*
X872773Y283926D01*
X873157Y284083D01*
X873472Y284275D01*
X873716Y284502D01*
X873891Y284764D01*
X873996Y285061D01*
X874031Y285393D01*
Y278407D01*
D02*
G37*
G36*
X846004Y285061D02*
X846109Y284764D01*
X846284Y284502D01*
X846528Y284275D01*
X846843Y284083D01*
X847227Y283926D01*
X847681Y283804D01*
X848205Y283716D01*
X848799Y283664D01*
X849463Y283647D01*
Y280154D01*
X848799Y280136D01*
X848205Y280084D01*
X847681Y279996D01*
X847227Y279874D01*
X846843Y279717D01*
X846528Y279525D01*
X846284Y279298D01*
X846109Y279036D01*
X846004Y278739D01*
X845969Y278407D01*
Y285393D01*
X846004Y285061D01*
D02*
G37*
G36*
X818030Y278407D02*
X817996Y278739D01*
X817891Y279036D01*
X817716Y279298D01*
X817472Y279525D01*
X817157Y279717D01*
X816773Y279874D01*
X816319Y279996D01*
X815795Y280084D01*
X815201Y280136D01*
X814538Y280154D01*
Y283647D01*
X815201Y283664D01*
X815795Y283716D01*
X816319Y283804D01*
X816773Y283926D01*
X817157Y284083D01*
X817472Y284275D01*
X817716Y284502D01*
X817891Y284764D01*
X817996Y285061D01*
X818030Y285393D01*
Y278407D01*
D02*
G37*
G36*
X1196971Y154813D02*
X1197045Y154290D01*
X1197167Y153772D01*
X1197339Y153259D01*
X1197560Y152751D01*
X1197830Y152248D01*
X1198149Y151750D01*
X1198517Y151257D01*
X1198934Y150768D01*
X1199400Y150285D01*
X1191000D01*
X1191466Y150768D01*
X1191883Y151257D01*
X1192251Y151750D01*
X1192570Y152248D01*
X1192840Y152751D01*
X1193061Y153259D01*
X1193233Y153772D01*
X1193355Y154290D01*
X1193429Y154813D01*
X1193454Y155340D01*
X1196947D01*
X1196971Y154813D01*
D02*
G37*
G36*
X652074Y284600D02*
X652313Y284421D01*
X652573Y284263D01*
X652855Y284126D01*
X653158Y284010D01*
X653483Y283915D01*
X653830Y283841D01*
X654198Y283789D01*
X654587Y283757D01*
X654999Y283746D01*
Y280254D01*
X654587Y280243D01*
X654198Y280211D01*
X653830Y280159D01*
X653483Y280085D01*
X653158Y279990D01*
X652855Y279874D01*
X652573Y279737D01*
X652313Y279579D01*
X652074Y279400D01*
X651857Y279200D01*
Y284800D01*
X652074Y284600D01*
D02*
G37*
G36*
X668030Y278507D02*
X667996Y278839D01*
X667891Y279136D01*
X667716Y279398D01*
X667472Y279625D01*
X667157Y279817D01*
X666773Y279974D01*
X666319Y280096D01*
X665795Y280184D01*
X665201Y280236D01*
X664538Y280254D01*
Y283746D01*
X665201Y283764D01*
X665795Y283816D01*
X666319Y283904D01*
X666773Y284026D01*
X667157Y284183D01*
X667472Y284375D01*
X667716Y284602D01*
X667891Y284864D01*
X667996Y285161D01*
X668030Y285493D01*
Y278507D01*
D02*
G37*
G36*
X724031Y278407D02*
X723996Y278739D01*
X723891Y279036D01*
X723716Y279298D01*
X723472Y279525D01*
X723157Y279717D01*
X722773Y279874D01*
X722319Y279996D01*
X721795Y280084D01*
X721201Y280136D01*
X720537Y280154D01*
Y283647D01*
X721201Y283664D01*
X721795Y283716D01*
X722319Y283804D01*
X722773Y283926D01*
X723157Y284083D01*
X723472Y284275D01*
X723716Y284502D01*
X723891Y284764D01*
X723996Y285061D01*
X724031Y285393D01*
Y278407D01*
D02*
G37*
G36*
X696004Y285061D02*
X696109Y284764D01*
X696284Y284502D01*
X696528Y284275D01*
X696843Y284083D01*
X697227Y283926D01*
X697681Y283804D01*
X698205Y283716D01*
X698799Y283664D01*
X699463Y283647D01*
Y280154D01*
X698799Y280136D01*
X698205Y280084D01*
X697681Y279996D01*
X697227Y279874D01*
X696843Y279717D01*
X696528Y279525D01*
X696284Y279298D01*
X696109Y279036D01*
X696004Y278739D01*
X695970Y278407D01*
Y285393D01*
X696004Y285061D01*
D02*
G37*
G36*
X652074Y258600D02*
X652313Y258421D01*
X652573Y258263D01*
X652855Y258126D01*
X653158Y258010D01*
X653483Y257915D01*
X653830Y257841D01*
X654198Y257789D01*
X654587Y257757D01*
X654999Y257747D01*
Y254254D01*
X654587Y254243D01*
X654198Y254211D01*
X653830Y254159D01*
X653483Y254085D01*
X653158Y253990D01*
X652855Y253874D01*
X652573Y253737D01*
X652313Y253579D01*
X652074Y253400D01*
X651857Y253200D01*
Y258800D01*
X652074Y258600D01*
D02*
G37*
G36*
X724031Y253007D02*
X723996Y253339D01*
X723891Y253636D01*
X723716Y253898D01*
X723472Y254125D01*
X723157Y254317D01*
X722773Y254474D01*
X722319Y254596D01*
X721795Y254684D01*
X721201Y254736D01*
X720537Y254753D01*
Y258246D01*
X721201Y258264D01*
X721795Y258316D01*
X722319Y258404D01*
X722773Y258526D01*
X723157Y258683D01*
X723472Y258875D01*
X723716Y259102D01*
X723891Y259364D01*
X723996Y259661D01*
X724031Y259993D01*
Y253007D01*
D02*
G37*
G36*
X696004Y259661D02*
X696109Y259364D01*
X696284Y259102D01*
X696528Y258875D01*
X696843Y258683D01*
X697227Y258526D01*
X697681Y258404D01*
X698205Y258316D01*
X698799Y258264D01*
X699463Y258246D01*
Y254753D01*
X698799Y254736D01*
X698205Y254684D01*
X697681Y254596D01*
X697227Y254474D01*
X696843Y254317D01*
X696528Y254125D01*
X696284Y253898D01*
X696109Y253636D01*
X696004Y253339D01*
X695970Y253007D01*
Y259993D01*
X696004Y259661D01*
D02*
G37*
G36*
X668030Y252507D02*
X667996Y252839D01*
X667891Y253136D01*
X667716Y253398D01*
X667472Y253625D01*
X667157Y253817D01*
X666773Y253974D01*
X666319Y254096D01*
X665795Y254184D01*
X665201Y254236D01*
X664538Y254254D01*
Y257747D01*
X665201Y257764D01*
X665795Y257816D01*
X666319Y257904D01*
X666773Y258026D01*
X667157Y258183D01*
X667472Y258375D01*
X667716Y258602D01*
X667891Y258864D01*
X667996Y259161D01*
X668030Y259493D01*
Y252507D01*
D02*
G37*
G36*
X463761Y411996D02*
X463464Y411891D01*
X463202Y411716D01*
X462975Y411472D01*
X462783Y411157D01*
X462626Y410773D01*
X462504Y410319D01*
X462416Y409795D01*
X462364Y409201D01*
X462347Y408537D01*
X458854D01*
X458836Y409201D01*
X458784Y409795D01*
X458696Y410319D01*
X458574Y410773D01*
X458417Y411157D01*
X458225Y411472D01*
X457998Y411716D01*
X457736Y411891D01*
X457439Y411996D01*
X457107Y412030D01*
X464093D01*
X463761Y411996D01*
D02*
G37*
G36*
X462363Y322748D02*
X462414Y322165D01*
X462498Y321650D01*
X462616Y321204D01*
X462767Y320827D01*
X462953Y320518D01*
X463172Y320278D01*
X463424Y320107D01*
X463711Y320004D01*
X464030Y319970D01*
X457170D01*
X457490Y320004D01*
X457776Y320107D01*
X458028Y320278D01*
X458247Y320518D01*
X458433Y320827D01*
X458584Y321204D01*
X458702Y321650D01*
X458786Y322165D01*
X458837Y322748D01*
X458853Y323400D01*
X462346D01*
X462363Y322748D01*
D02*
G37*
G36*
X464161Y291996D02*
X463864Y291891D01*
X463602Y291716D01*
X463375Y291472D01*
X463183Y291157D01*
X463026Y290773D01*
X462904Y290319D01*
X462816Y289795D01*
X462764Y289201D01*
X462747Y288538D01*
X459254D01*
X459236Y289201D01*
X459184Y289795D01*
X459096Y290319D01*
X458974Y290773D01*
X458817Y291157D01*
X458625Y291472D01*
X458398Y291716D01*
X458136Y291891D01*
X457839Y291996D01*
X457507Y292031D01*
X464493D01*
X464161Y291996D01*
D02*
G37*
G36*
X462757Y254587D02*
X462789Y254198D01*
X462841Y253830D01*
X462915Y253483D01*
X463010Y253158D01*
X463126Y252855D01*
X463263Y252573D01*
X463421Y252313D01*
X463600Y252074D01*
X463800Y251857D01*
X458200D01*
X458400Y252074D01*
X458579Y252313D01*
X458737Y252573D01*
X458874Y252855D01*
X458990Y253158D01*
X459085Y253483D01*
X459159Y253830D01*
X459211Y254198D01*
X459243Y254587D01*
X459254Y254999D01*
X462747D01*
X462757Y254587D01*
D02*
G37*
G36*
X438361Y411996D02*
X438064Y411891D01*
X437802Y411716D01*
X437575Y411472D01*
X437383Y411157D01*
X437226Y410773D01*
X437104Y410319D01*
X437016Y409795D01*
X436964Y409201D01*
X436947Y408537D01*
X433454D01*
X433436Y409201D01*
X433384Y409795D01*
X433296Y410319D01*
X433174Y410773D01*
X433017Y411157D01*
X432825Y411472D01*
X432598Y411716D01*
X432336Y411891D01*
X432039Y411996D01*
X431707Y412030D01*
X438693D01*
X438361Y411996D01*
D02*
G37*
G36*
X436957Y322262D02*
X437044Y321356D01*
X437120Y320989D01*
X437217Y320677D01*
X437337Y320422D01*
X437478Y320224D01*
X437640Y320083D01*
X437825Y319998D01*
X438031Y319970D01*
X432370D01*
X432575Y319998D01*
X432760Y320083D01*
X432922Y320224D01*
X433063Y320422D01*
X433182Y320677D01*
X433280Y320989D01*
X433356Y321356D01*
X433410Y321781D01*
X433443Y322262D01*
X433453Y322800D01*
X436946D01*
X436957Y322262D01*
D02*
G37*
G36*
X438361Y291996D02*
X438064Y291891D01*
X437802Y291716D01*
X437575Y291472D01*
X437383Y291157D01*
X437226Y290773D01*
X437104Y290319D01*
X437016Y289795D01*
X436964Y289201D01*
X436946Y288538D01*
X433453D01*
X433436Y289201D01*
X433384Y289795D01*
X433296Y290319D01*
X433174Y290773D01*
X433017Y291157D01*
X432825Y291472D01*
X432598Y291716D01*
X432336Y291891D01*
X432039Y291996D01*
X431707Y292031D01*
X438693D01*
X438361Y291996D01*
D02*
G37*
G36*
X429782Y165189D02*
X429887Y164575D01*
X430062Y163953D01*
X430307Y163322D01*
X430623Y162683D01*
X431008Y162035D01*
X431464Y161378D01*
X431989Y160713D01*
X432585Y160039D01*
X433250Y159356D01*
X422750D01*
X423416Y160039D01*
X424537Y161378D01*
X424992Y162035D01*
X425378Y162683D01*
X425693Y163322D01*
X425938Y163953D01*
X426114Y164575D01*
X426219Y165189D01*
X426254Y165794D01*
X429747D01*
X429782Y165189D01*
D02*
G37*
G36*
X362161Y411996D02*
X361864Y411891D01*
X361602Y411716D01*
X361375Y411472D01*
X361183Y411157D01*
X361026Y410773D01*
X360904Y410319D01*
X360816Y409795D01*
X360764Y409201D01*
X360747Y408537D01*
X357254D01*
X357236Y409201D01*
X357184Y409795D01*
X357096Y410319D01*
X356974Y410773D01*
X356817Y411157D01*
X356625Y411472D01*
X356398Y411716D01*
X356136Y411891D01*
X355839Y411996D01*
X355507Y412030D01*
X362493D01*
X362161Y411996D01*
D02*
G37*
G36*
X360759Y322424D02*
X360862Y321454D01*
X360952Y321060D01*
X361068Y320727D01*
X361209Y320454D01*
X361376Y320242D01*
X361568Y320091D01*
X361787Y320000D01*
X362030Y319970D01*
X355970D01*
X356213Y320000D01*
X356432Y320091D01*
X356624Y320242D01*
X356791Y320454D01*
X356933Y320727D01*
X357048Y321060D01*
X357138Y321454D01*
X357202Y321909D01*
X357241Y322424D01*
X357253Y323000D01*
X360746D01*
X360759Y322424D01*
D02*
G37*
G36*
X362161Y291996D02*
X361864Y291891D01*
X361602Y291716D01*
X361375Y291472D01*
X361183Y291157D01*
X361026Y290773D01*
X360904Y290319D01*
X360816Y289795D01*
X360764Y289201D01*
X360746Y288538D01*
X357253D01*
X357236Y289201D01*
X357184Y289795D01*
X357096Y290319D01*
X356974Y290773D01*
X356817Y291157D01*
X356625Y291472D01*
X356398Y291716D01*
X356136Y291891D01*
X355839Y291996D01*
X355507Y292031D01*
X362493D01*
X362161Y291996D01*
D02*
G37*
G36*
X129782Y165189D02*
X129887Y164575D01*
X130062Y163953D01*
X130307Y163322D01*
X130623Y162683D01*
X131008Y162035D01*
X131463Y161378D01*
X131989Y160713D01*
X132584Y160039D01*
X133250Y159356D01*
X122750D01*
X123416Y160039D01*
X124537Y161378D01*
X124992Y162035D01*
X125378Y162683D01*
X125693Y163322D01*
X125938Y163953D01*
X126114Y164575D01*
X126219Y165189D01*
X126254Y165794D01*
X129747D01*
X129782Y165189D01*
D02*
G37*
G36*
X489161Y411996D02*
X488864Y411891D01*
X488602Y411716D01*
X488375Y411472D01*
X488183Y411157D01*
X488026Y410773D01*
X487904Y410319D01*
X487817Y409795D01*
X487764Y409201D01*
X487747Y408537D01*
X484254D01*
X484236Y409201D01*
X484184Y409795D01*
X484096Y410319D01*
X483974Y410773D01*
X483817Y411157D01*
X483625Y411472D01*
X483398Y411716D01*
X483136Y411891D01*
X482839Y411996D01*
X482507Y412030D01*
X489493D01*
X489161Y411996D01*
D02*
G37*
G36*
X487759Y322424D02*
X487862Y321454D01*
X487952Y321060D01*
X488068Y320727D01*
X488209Y320454D01*
X488376Y320242D01*
X488568Y320091D01*
X488787Y320000D01*
X489030Y319970D01*
X482970D01*
X483214Y320000D01*
X483432Y320091D01*
X483624Y320242D01*
X483791Y320454D01*
X483933Y320727D01*
X484048Y321060D01*
X484138Y321454D01*
X484202Y321909D01*
X484241Y322424D01*
X484254Y323000D01*
X487747D01*
X487759Y322424D01*
D02*
G37*
G36*
X489161Y291996D02*
X488864Y291891D01*
X488602Y291716D01*
X488375Y291472D01*
X488183Y291157D01*
X488026Y290773D01*
X487904Y290319D01*
X487816Y289795D01*
X487764Y289201D01*
X487747Y288538D01*
X484254D01*
X484236Y289201D01*
X484184Y289795D01*
X484096Y290319D01*
X483974Y290773D01*
X483817Y291157D01*
X483625Y291472D01*
X483398Y291716D01*
X483136Y291891D01*
X482839Y291996D01*
X482507Y292031D01*
X489493D01*
X489161Y291996D01*
D02*
G37*
G36*
X447782Y147189D02*
X447887Y146575D01*
X448062Y145953D01*
X448307Y145322D01*
X448623Y144683D01*
X449008Y144035D01*
X449463Y143378D01*
X449989Y142713D01*
X450585Y142039D01*
X451250Y141356D01*
X440750D01*
X441416Y142039D01*
X442537Y143378D01*
X442993Y144035D01*
X443378Y144683D01*
X443693Y145322D01*
X443938Y145953D01*
X444114Y146575D01*
X444219Y147189D01*
X444254Y147794D01*
X447747D01*
X447782Y147189D01*
D02*
G37*
D14*
X486000Y426000D02*
D03*
X460600D02*
D03*
X435200D02*
D03*
X409800D02*
D03*
X384400D02*
D03*
X359000D02*
D03*
X486000Y482000D02*
D03*
X460600D02*
D03*
X435200D02*
D03*
X409800D02*
D03*
X384400D02*
D03*
X359000D02*
D03*
X486000Y306000D02*
D03*
X460600D02*
D03*
X435200D02*
D03*
X409800D02*
D03*
X384400D02*
D03*
X359000D02*
D03*
X486000Y362000D02*
D03*
X460600D02*
D03*
X435200D02*
D03*
X409800D02*
D03*
X384400D02*
D03*
X359000D02*
D03*
D15*
X832000Y456500D02*
D03*
Y481900D02*
D03*
Y507300D02*
D03*
Y532700D02*
D03*
Y558100D02*
D03*
Y583500D02*
D03*
X888000Y456500D02*
D03*
Y481900D02*
D03*
Y507300D02*
D03*
Y532700D02*
D03*
Y558100D02*
D03*
Y583500D02*
D03*
X832000Y256500D02*
D03*
Y281900D02*
D03*
Y307300D02*
D03*
Y332700D02*
D03*
Y358100D02*
D03*
Y383500D02*
D03*
X888000Y256500D02*
D03*
Y281900D02*
D03*
Y307300D02*
D03*
Y332700D02*
D03*
Y358100D02*
D03*
Y383500D02*
D03*
X682000Y256500D02*
D03*
Y281900D02*
D03*
Y307300D02*
D03*
Y332700D02*
D03*
Y358100D02*
D03*
Y383500D02*
D03*
X738000Y256500D02*
D03*
Y281900D02*
D03*
Y307300D02*
D03*
Y332700D02*
D03*
Y358100D02*
D03*
Y383500D02*
D03*
X682000Y456500D02*
D03*
Y481900D02*
D03*
Y507300D02*
D03*
Y532700D02*
D03*
Y558100D02*
D03*
Y583500D02*
D03*
X738000Y456500D02*
D03*
Y481900D02*
D03*
Y507300D02*
D03*
Y532700D02*
D03*
Y558100D02*
D03*
Y583500D02*
D03*
D16*
X346000Y541000D02*
D03*
Y556000D02*
D03*
X376000Y541000D02*
D03*
Y556000D02*
D03*
X406000Y541000D02*
D03*
Y556000D02*
D03*
X436000Y541000D02*
D03*
Y556000D02*
D03*
X466000Y541000D02*
D03*
Y556000D02*
D03*
X496000Y541000D02*
D03*
Y556000D02*
D03*
D17*
X436000Y576500D02*
D03*
Y595500D02*
D03*
X496000D02*
D03*
X466000Y595000D02*
D03*
X346000Y595500D02*
D03*
X376000D02*
D03*
X406000D02*
D03*
X466000Y576000D02*
D03*
X346000Y576500D02*
D03*
X406000D02*
D03*
X376000D02*
D03*
X496000D02*
D03*
D27*
X425000Y393000D02*
X435200Y403200D01*
X425000Y333000D02*
Y345788D01*
X424563Y346225D02*
X425000Y345788D01*
X424563Y346225D02*
Y377775D01*
X425000Y378212D01*
Y333000D02*
X435200Y322800D01*
X425000Y378212D02*
Y393000D01*
X542000Y582000D02*
X680500D01*
X682000Y583500D01*
X542000Y556000D02*
X679900D01*
X682000Y558100D01*
X542000Y532000D02*
X681300D01*
X682000Y532700D01*
X542000Y481000D02*
X681100D01*
X682000Y481900D01*
X649000Y383000D02*
X681500D01*
X682000Y383500D01*
X649000Y256000D02*
X681500D01*
X682000Y256500D01*
X681900Y358000D02*
X682000Y358100D01*
X649000Y358000D02*
X681900D01*
X583000Y456000D02*
X681500D01*
X681900Y282000D02*
X682000Y281900D01*
X649000Y282000D02*
X681900D01*
X681700Y307000D02*
X682000Y307300D01*
X649000Y307000D02*
X681700D01*
X607000Y508000D02*
X681300D01*
X681300Y332000D02*
X682000Y332700D01*
X649000Y332000D02*
X681300D01*
X888700Y532000D02*
X921000D01*
X888000Y532700D02*
X888700Y532000D01*
X889700Y509000D02*
X921000D01*
X888000Y507300D02*
X889700Y509000D01*
X782000Y558000D02*
X831900D01*
X832000Y558100D01*
X797000Y583000D02*
X831500D01*
X832000Y583500D01*
X900000Y135000D02*
Y175000D01*
X929000Y204000D01*
X900000Y135000D02*
X914400Y120600D01*
X886000Y130000D02*
Y178000D01*
Y130000D02*
X910000Y106000D01*
X886000Y178000D02*
X919000Y211000D01*
X914400Y120600D02*
X946800D01*
X910000Y106000D02*
X1180600D01*
X904000Y92000D02*
X1215000D01*
X800000Y196000D02*
X904000Y92000D01*
X1215000D02*
X1256000Y133000D01*
X1241000Y175000D02*
X1256000Y160000D01*
X1211000Y175000D02*
X1241000D01*
X1195200Y159200D02*
X1211000Y175000D01*
X888500Y456000D02*
X989000D01*
X888000Y481900D02*
X888100Y482000D01*
X990000D01*
X888000Y456500D02*
X888500Y456000D01*
X681500D02*
X682000Y456500D01*
X542000Y456000D02*
X583000D01*
X543000Y508000D02*
X607000D01*
X681300D02*
X682000Y507300D01*
X435200Y306000D02*
Y322800D01*
X486000Y306000D02*
Y323000D01*
X832000Y481900D02*
X888000D01*
X832000Y558100D02*
X888000D01*
X1256000Y133000D02*
Y160000D01*
X1195200Y146000D02*
Y159200D01*
X782000Y337000D02*
X803100Y358100D01*
X782000Y182000D02*
Y337000D01*
X720600Y120600D02*
X782000Y182000D01*
X832000Y256500D02*
X910500D01*
X919000Y248000D01*
X800000Y196000D02*
Y269000D01*
X832000Y281900D02*
X888000D01*
X800000Y269000D02*
X812900Y281900D01*
X832000D01*
X919000Y211000D02*
Y248000D01*
X1180600Y106000D02*
X1195200Y120600D01*
X763000Y339000D02*
X807500Y383500D01*
X763000Y212200D02*
Y339000D01*
X696800Y146000D02*
X763000Y212200D01*
X888000Y307300D02*
X910700D01*
X929000Y289000D01*
Y204000D02*
Y289000D01*
X888000Y332700D02*
X929300D01*
X946800Y315200D01*
Y146000D02*
Y315200D01*
X803100Y358100D02*
X832000D01*
X696800Y120600D02*
X720600D01*
X807500Y383500D02*
X832000D01*
Y307300D02*
X888000D01*
X832000Y332700D02*
X888000D01*
X832000Y358100D02*
X888000D01*
X832000Y383500D02*
X888000D01*
X832000Y456500D02*
X888000D01*
X832000Y507300D02*
X888000D01*
X832000Y532700D02*
X888000D01*
X832000Y583500D02*
X888000D01*
X682000Y583500D02*
X738000D01*
X682000Y558100D02*
X738000D01*
X682000Y532700D02*
X738000D01*
X682000Y507300D02*
X738000D01*
X682000Y481900D02*
X738000D01*
X682000Y456500D02*
X738000D01*
X682000Y383500D02*
X738000D01*
X682000Y358100D02*
X738000D01*
X682000Y332700D02*
X738000D01*
X682000Y307300D02*
X738000D01*
X682000Y281900D02*
X738000D01*
X682000Y256500D02*
X738000D01*
X359000Y306000D02*
Y323000D01*
X345000Y337000D02*
X359000Y323000D01*
X345000Y394000D02*
X359000Y408000D01*
X359000Y259000D02*
Y306000D01*
X345000Y337000D02*
Y394000D01*
X473000Y336000D02*
X486000Y323000D01*
X473000Y336000D02*
Y391000D01*
X486000Y204000D02*
Y306000D01*
X460600D02*
Y323400D01*
X448000Y336000D02*
X460600Y323400D01*
X448000Y336000D02*
Y391000D01*
X435200Y217200D02*
Y306000D01*
X473000Y391000D02*
X486000Y404000D01*
Y426000D01*
X460600Y403600D02*
Y426000D01*
X448000Y391000D02*
X460600Y403600D01*
X435200Y403200D02*
Y426000D01*
X397000Y336000D02*
Y394000D01*
X409800Y406800D02*
Y426000D01*
X397000Y394000D02*
X409800Y406800D01*
X372000Y335000D02*
Y395000D01*
X384400Y407400D01*
Y426000D01*
X359000Y408000D02*
Y426000D01*
X409800Y306000D02*
Y323200D01*
X397000Y336000D02*
X409800Y323200D01*
X384400Y306000D02*
Y322600D01*
Y174400D02*
Y306000D01*
X372000Y335000D02*
X384400Y322600D01*
X300000Y90000D02*
X384400Y174400D01*
X460600Y306000D02*
X461000Y305600D01*
Y249000D02*
Y305600D01*
X446000Y164000D02*
X486000Y204000D01*
X346000Y556000D02*
X357512D01*
X359000Y482000D02*
Y554512D01*
X357512Y556000D02*
X359000Y554512D01*
X390000Y525674D02*
Y553440D01*
X377073Y554928D02*
X388512D01*
X390000Y553440D01*
X486000Y482000D02*
Y506000D01*
X510000Y530000D02*
Y554652D01*
X486000Y506000D02*
X510000Y530000D01*
X460600Y482000D02*
Y510600D01*
X480000Y530000D02*
Y554512D01*
X460600Y510600D02*
X480000Y530000D01*
X496139Y556140D02*
X508512D01*
X510000Y554652D01*
X496000Y556000D02*
Y576500D01*
X478512Y556000D02*
X480000Y554512D01*
X466000Y556000D02*
X478512D01*
X466000Y557243D02*
Y576000D01*
Y556000D02*
Y557243D01*
X448512Y556000D02*
X450000Y554512D01*
X436000Y556000D02*
X448512D01*
X450000Y530274D02*
Y554512D01*
X435200Y515474D02*
X450000Y530274D01*
X410000Y517874D02*
X420000Y527874D01*
X406000Y556000D02*
X418512D01*
X420000Y527874D02*
Y554512D01*
X418512Y556000D02*
X420000Y554512D01*
X406000Y557243D02*
Y576500D01*
Y556000D02*
Y557243D01*
X376000Y556000D02*
X377073Y554928D01*
X384400Y520074D02*
X390000Y525674D01*
X436000Y556000D02*
Y576500D01*
X376000Y556000D02*
Y576500D01*
X346000Y556000D02*
Y576500D01*
X435200Y482000D02*
Y515474D01*
X410000Y482200D02*
Y517874D01*
X409800Y482000D02*
X410000Y482200D01*
X384400Y482000D02*
Y520074D01*
X409800Y306000D02*
X410000Y305800D01*
Y226000D02*
Y305800D01*
X446000Y136000D02*
Y164000D01*
X428000Y210000D02*
X435200Y217200D01*
X428000Y154000D02*
Y210000D01*
X156000Y90000D02*
X300000D01*
X128000Y118000D02*
X156000Y90000D01*
X320000Y220000D02*
X359000Y259000D01*
X170000Y220000D02*
X320000D01*
X128000Y178000D02*
X170000Y220000D01*
X128000Y154000D02*
Y178000D01*
D28*
X40000Y660000D02*
D03*
X1260000D02*
D03*
D29*
X446000Y36000D02*
D03*
X146000D02*
D03*
D30*
X722200Y146000D02*
D03*
X946800D02*
D03*
X1169800D02*
D03*
X1220600D02*
D03*
X696800Y120600D02*
D03*
Y146000D02*
D03*
X921400D02*
D03*
X1195200Y120600D02*
D03*
X972200Y146000D02*
D03*
X1195200D02*
D03*
X671400D02*
D03*
X946800Y120600D02*
D03*
D31*
X146000Y136000D02*
D03*
X428000Y118000D02*
D03*
X128000D02*
D03*
X428000Y154000D02*
D03*
X446000Y136000D02*
D03*
X128000Y154000D02*
D03*
X464000D02*
D03*
Y118000D02*
D03*
X164000Y154000D02*
D03*
Y118000D02*
D03*
D32*
X371000Y46000D02*
D03*
X521000D02*
D03*
X71000D02*
D03*
X221000D02*
D03*
D33*
X1144400Y57100D02*
D03*
X1246000D02*
D03*
X896000D02*
D03*
X997600D02*
D03*
X646000D02*
D03*
X747600D02*
D03*
D34*
X1290999Y676000D02*
D03*
Y646000D02*
D03*
Y616000D02*
D03*
Y586000D02*
D03*
Y556000D02*
D03*
Y526000D02*
D03*
Y496000D02*
D03*
Y466000D02*
D03*
Y436000D02*
D03*
Y406000D02*
D03*
Y376000D02*
D03*
Y346000D02*
D03*
Y316000D02*
D03*
Y286000D02*
D03*
Y256000D02*
D03*
Y226000D02*
D03*
Y196000D02*
D03*
Y166000D02*
D03*
Y136000D02*
D03*
Y106000D02*
D03*
Y76000D02*
D03*
Y46000D02*
D03*
Y16000D02*
D03*
X1283499Y691000D02*
D03*
X1276000Y676000D02*
D03*
X1283499Y661000D02*
D03*
X1276000Y646000D02*
D03*
X1283499Y631000D02*
D03*
X1276000Y616000D02*
D03*
X1283499Y601000D02*
D03*
X1276000Y586000D02*
D03*
X1283499Y571000D02*
D03*
X1276000Y556000D02*
D03*
X1283499Y541000D02*
D03*
X1276000Y526000D02*
D03*
X1283499Y511000D02*
D03*
X1276000Y496000D02*
D03*
X1283499Y481000D02*
D03*
X1276000Y466000D02*
D03*
X1283499Y451000D02*
D03*
X1276000Y436000D02*
D03*
X1283499Y421000D02*
D03*
X1276000Y406000D02*
D03*
X1283499Y391000D02*
D03*
X1276000Y376000D02*
D03*
X1283499Y361000D02*
D03*
X1276000Y346000D02*
D03*
X1283499Y331000D02*
D03*
X1276000Y316000D02*
D03*
X1283499Y301000D02*
D03*
X1276000Y286000D02*
D03*
X1283499Y271000D02*
D03*
X1276000Y256000D02*
D03*
X1283499Y241000D02*
D03*
X1276000Y226000D02*
D03*
X1283499Y211000D02*
D03*
X1276000Y196000D02*
D03*
X1283499Y181000D02*
D03*
X1276000Y166000D02*
D03*
X1283499Y151000D02*
D03*
X1276000Y136000D02*
D03*
X1283499Y121000D02*
D03*
X1276000Y106000D02*
D03*
X1283499Y91000D02*
D03*
X1276000Y76000D02*
D03*
X1283499Y61000D02*
D03*
X1276000Y46000D02*
D03*
X1283499Y31000D02*
D03*
X1276000Y16000D02*
D03*
X1268500Y691000D02*
D03*
Y631000D02*
D03*
X1261000Y616000D02*
D03*
X1268500Y601000D02*
D03*
X1261000Y586000D02*
D03*
X1268500Y571000D02*
D03*
X1261000Y556000D02*
D03*
X1268500Y541000D02*
D03*
X1261000Y526000D02*
D03*
X1268500Y511000D02*
D03*
X1261000Y496000D02*
D03*
X1268500Y481000D02*
D03*
X1261000Y466000D02*
D03*
X1268500Y451000D02*
D03*
X1261000Y436000D02*
D03*
X1268500Y421000D02*
D03*
X1261000Y406000D02*
D03*
X1268500Y391000D02*
D03*
X1261000Y376000D02*
D03*
X1268500Y361000D02*
D03*
X1261000Y346000D02*
D03*
X1268500Y331000D02*
D03*
X1261000Y316000D02*
D03*
X1268500Y301000D02*
D03*
X1261000Y286000D02*
D03*
X1268500Y271000D02*
D03*
X1261000Y256000D02*
D03*
X1268500Y241000D02*
D03*
X1261000Y226000D02*
D03*
X1268500Y211000D02*
D03*
X1261000Y196000D02*
D03*
X1268500Y181000D02*
D03*
Y151000D02*
D03*
Y121000D02*
D03*
X1261000Y106000D02*
D03*
X1268500Y91000D02*
D03*
X1261000Y76000D02*
D03*
X1268500Y61000D02*
D03*
Y31000D02*
D03*
X1261000Y16000D02*
D03*
X1253500Y691000D02*
D03*
X1246000Y676000D02*
D03*
X1253500Y631000D02*
D03*
X1246000Y616000D02*
D03*
X1253500Y601000D02*
D03*
X1246000Y586000D02*
D03*
X1253500Y571000D02*
D03*
X1246000Y556000D02*
D03*
X1253500Y541000D02*
D03*
X1246000Y526000D02*
D03*
X1253500Y511000D02*
D03*
X1246000Y496000D02*
D03*
X1253500Y481000D02*
D03*
X1246000Y466000D02*
D03*
X1253500Y451000D02*
D03*
X1246000Y436000D02*
D03*
X1253500Y421000D02*
D03*
X1246000Y406000D02*
D03*
X1253500Y391000D02*
D03*
X1246000Y376000D02*
D03*
X1253500Y361000D02*
D03*
X1246000Y346000D02*
D03*
X1253500Y331000D02*
D03*
X1246000Y316000D02*
D03*
X1253500Y301000D02*
D03*
X1246000Y286000D02*
D03*
X1253500Y271000D02*
D03*
X1246000Y256000D02*
D03*
X1253500Y241000D02*
D03*
X1246000Y226000D02*
D03*
X1253500Y211000D02*
D03*
X1246000Y196000D02*
D03*
X1253500Y181000D02*
D03*
X1246000Y106000D02*
D03*
X1253500Y91000D02*
D03*
Y31000D02*
D03*
X1246000Y16000D02*
D03*
X1238500Y691000D02*
D03*
X1231000Y676000D02*
D03*
X1238500Y661000D02*
D03*
X1231000Y646000D02*
D03*
X1238500Y631000D02*
D03*
X1231000Y616000D02*
D03*
X1238500Y601000D02*
D03*
X1231000Y586000D02*
D03*
X1238500Y571000D02*
D03*
X1231000Y556000D02*
D03*
X1238500Y541000D02*
D03*
X1231000Y526000D02*
D03*
X1238500Y511000D02*
D03*
X1231000Y496000D02*
D03*
X1238500Y481000D02*
D03*
X1231000Y466000D02*
D03*
X1238500Y451000D02*
D03*
X1231000Y436000D02*
D03*
X1238500Y421000D02*
D03*
Y391000D02*
D03*
Y361000D02*
D03*
Y331000D02*
D03*
Y301000D02*
D03*
Y271000D02*
D03*
Y241000D02*
D03*
Y211000D02*
D03*
Y151000D02*
D03*
X1231000Y136000D02*
D03*
X1238500Y91000D02*
D03*
X1231000Y76000D02*
D03*
X1238500Y31000D02*
D03*
X1231000Y16000D02*
D03*
X1223500Y691000D02*
D03*
X1216000Y676000D02*
D03*
X1223500Y661000D02*
D03*
X1216000Y646000D02*
D03*
X1223500Y631000D02*
D03*
X1216000Y616000D02*
D03*
X1223500Y601000D02*
D03*
X1216000Y586000D02*
D03*
X1223500Y571000D02*
D03*
X1216000Y556000D02*
D03*
X1223500Y541000D02*
D03*
X1216000Y526000D02*
D03*
X1223500Y511000D02*
D03*
X1216000Y496000D02*
D03*
X1223500Y481000D02*
D03*
X1216000Y466000D02*
D03*
X1223500Y451000D02*
D03*
X1216000Y436000D02*
D03*
X1223500Y121000D02*
D03*
X1216000Y76000D02*
D03*
X1223500Y61000D02*
D03*
X1216000Y46000D02*
D03*
X1223500Y31000D02*
D03*
X1216000Y16000D02*
D03*
X1208500Y691000D02*
D03*
X1201000Y676000D02*
D03*
X1208500Y661000D02*
D03*
X1201000Y646000D02*
D03*
X1208500Y631000D02*
D03*
X1201000Y616000D02*
D03*
X1208500Y601000D02*
D03*
X1201000Y586000D02*
D03*
X1208500Y571000D02*
D03*
X1201000Y556000D02*
D03*
X1208500Y541000D02*
D03*
X1201000Y526000D02*
D03*
X1208500Y511000D02*
D03*
X1201000Y496000D02*
D03*
X1208500Y481000D02*
D03*
X1201000Y466000D02*
D03*
X1208500Y451000D02*
D03*
X1201000Y406000D02*
D03*
X1208500Y391000D02*
D03*
X1201000Y376000D02*
D03*
X1208500Y361000D02*
D03*
X1201000Y346000D02*
D03*
X1208500Y331000D02*
D03*
X1201000Y316000D02*
D03*
X1208500Y301000D02*
D03*
X1201000Y286000D02*
D03*
X1208500Y271000D02*
D03*
X1201000Y256000D02*
D03*
X1208500Y241000D02*
D03*
X1201000Y226000D02*
D03*
X1208500Y211000D02*
D03*
X1201000Y196000D02*
D03*
Y106000D02*
D03*
Y76000D02*
D03*
X1208500Y61000D02*
D03*
X1201000Y46000D02*
D03*
X1208500Y31000D02*
D03*
X1201000Y16000D02*
D03*
X1193500Y691000D02*
D03*
X1186000Y676000D02*
D03*
X1193500Y661000D02*
D03*
X1186000Y646000D02*
D03*
X1193500Y631000D02*
D03*
X1186000Y616000D02*
D03*
X1193500Y601000D02*
D03*
X1186000Y586000D02*
D03*
X1193500Y571000D02*
D03*
X1186000Y556000D02*
D03*
X1193500Y541000D02*
D03*
X1186000Y526000D02*
D03*
X1193500Y511000D02*
D03*
X1186000Y496000D02*
D03*
X1193500Y481000D02*
D03*
X1186000Y466000D02*
D03*
X1193500Y421000D02*
D03*
X1186000Y406000D02*
D03*
X1193500Y391000D02*
D03*
X1186000Y376000D02*
D03*
X1193500Y361000D02*
D03*
X1186000Y346000D02*
D03*
X1193500Y331000D02*
D03*
X1186000Y316000D02*
D03*
X1193500Y301000D02*
D03*
X1186000Y286000D02*
D03*
X1193500Y271000D02*
D03*
X1186000Y256000D02*
D03*
X1193500Y241000D02*
D03*
X1186000Y226000D02*
D03*
X1193500Y211000D02*
D03*
X1186000Y196000D02*
D03*
X1193500Y181000D02*
D03*
X1186000Y166000D02*
D03*
Y76000D02*
D03*
X1193500Y61000D02*
D03*
X1186000Y46000D02*
D03*
X1193500Y31000D02*
D03*
X1186000Y16000D02*
D03*
X1178500Y691000D02*
D03*
X1171000Y676000D02*
D03*
X1178500Y661000D02*
D03*
X1171000Y646000D02*
D03*
X1178500Y631000D02*
D03*
X1171000Y616000D02*
D03*
X1178500Y601000D02*
D03*
X1171000Y586000D02*
D03*
X1178500Y571000D02*
D03*
X1171000Y556000D02*
D03*
X1178500Y541000D02*
D03*
X1171000Y526000D02*
D03*
X1178500Y511000D02*
D03*
X1171000Y496000D02*
D03*
X1178500Y481000D02*
D03*
X1171000Y436000D02*
D03*
X1178500Y421000D02*
D03*
Y121000D02*
D03*
X1171000Y76000D02*
D03*
X1178500Y61000D02*
D03*
X1171000Y46000D02*
D03*
X1178500Y31000D02*
D03*
X1171000Y16000D02*
D03*
X1163500Y691000D02*
D03*
X1156000Y676000D02*
D03*
X1163500Y661000D02*
D03*
X1156000Y646000D02*
D03*
X1163500Y631000D02*
D03*
X1156000Y616000D02*
D03*
X1163500Y601000D02*
D03*
X1156000Y586000D02*
D03*
X1163500Y571000D02*
D03*
X1156000Y556000D02*
D03*
X1163500Y541000D02*
D03*
X1156000Y526000D02*
D03*
X1163500Y511000D02*
D03*
X1156000Y496000D02*
D03*
X1163500Y451000D02*
D03*
X1156000Y436000D02*
D03*
Y376000D02*
D03*
Y346000D02*
D03*
Y316000D02*
D03*
Y286000D02*
D03*
Y256000D02*
D03*
Y226000D02*
D03*
Y196000D02*
D03*
Y166000D02*
D03*
Y136000D02*
D03*
X1163500Y121000D02*
D03*
X1156000Y76000D02*
D03*
X1163500Y31000D02*
D03*
X1156000Y16000D02*
D03*
X1148500Y691000D02*
D03*
X1141000Y676000D02*
D03*
X1148500Y661000D02*
D03*
X1141000Y646000D02*
D03*
X1148500Y631000D02*
D03*
X1141000Y616000D02*
D03*
X1148500Y601000D02*
D03*
X1141000Y586000D02*
D03*
X1148500Y571000D02*
D03*
X1141000Y556000D02*
D03*
X1148500Y541000D02*
D03*
X1141000Y526000D02*
D03*
X1148500Y511000D02*
D03*
X1141000Y496000D02*
D03*
Y466000D02*
D03*
X1148500Y451000D02*
D03*
X1141000Y406000D02*
D03*
X1148500Y391000D02*
D03*
X1141000Y376000D02*
D03*
X1148500Y361000D02*
D03*
X1141000Y346000D02*
D03*
X1148500Y331000D02*
D03*
X1141000Y316000D02*
D03*
X1148500Y301000D02*
D03*
X1141000Y286000D02*
D03*
X1148500Y271000D02*
D03*
X1141000Y256000D02*
D03*
X1148500Y241000D02*
D03*
X1141000Y226000D02*
D03*
X1148500Y211000D02*
D03*
X1141000Y196000D02*
D03*
X1148500Y181000D02*
D03*
X1141000Y166000D02*
D03*
X1148500Y151000D02*
D03*
X1141000Y136000D02*
D03*
X1148500Y121000D02*
D03*
Y31000D02*
D03*
X1141000Y16000D02*
D03*
X1133500Y691000D02*
D03*
X1126000Y676000D02*
D03*
X1133500Y661000D02*
D03*
X1126000Y646000D02*
D03*
X1133500Y631000D02*
D03*
X1126000Y616000D02*
D03*
X1133500Y601000D02*
D03*
X1126000Y586000D02*
D03*
X1133500Y571000D02*
D03*
X1126000Y556000D02*
D03*
X1133500Y541000D02*
D03*
X1126000Y526000D02*
D03*
X1133500Y511000D02*
D03*
X1126000Y496000D02*
D03*
Y466000D02*
D03*
X1133500Y421000D02*
D03*
X1126000Y406000D02*
D03*
X1133500Y391000D02*
D03*
X1126000Y376000D02*
D03*
X1133500Y361000D02*
D03*
X1126000Y346000D02*
D03*
X1133500Y331000D02*
D03*
X1126000Y316000D02*
D03*
X1133500Y301000D02*
D03*
X1126000Y286000D02*
D03*
X1133500Y271000D02*
D03*
X1126000Y256000D02*
D03*
X1133500Y241000D02*
D03*
X1126000Y226000D02*
D03*
X1133500Y211000D02*
D03*
X1126000Y196000D02*
D03*
X1133500Y181000D02*
D03*
X1126000Y166000D02*
D03*
X1133500Y151000D02*
D03*
X1126000Y136000D02*
D03*
X1133500Y121000D02*
D03*
X1126000Y76000D02*
D03*
Y46000D02*
D03*
X1133500Y31000D02*
D03*
X1126000Y16000D02*
D03*
X1118500Y691000D02*
D03*
X1111000Y676000D02*
D03*
X1118500Y661000D02*
D03*
X1111000Y646000D02*
D03*
X1118500Y631000D02*
D03*
X1111000Y616000D02*
D03*
X1118500Y601000D02*
D03*
X1111000Y586000D02*
D03*
X1118500Y571000D02*
D03*
X1111000Y556000D02*
D03*
X1118500Y541000D02*
D03*
X1111000Y526000D02*
D03*
X1118500Y511000D02*
D03*
X1111000Y496000D02*
D03*
Y436000D02*
D03*
X1118500Y421000D02*
D03*
X1111000Y406000D02*
D03*
X1118500Y391000D02*
D03*
X1111000Y376000D02*
D03*
X1118500Y361000D02*
D03*
X1111000Y346000D02*
D03*
X1118500Y331000D02*
D03*
X1111000Y316000D02*
D03*
X1118500Y301000D02*
D03*
X1111000Y286000D02*
D03*
X1118500Y271000D02*
D03*
X1111000Y256000D02*
D03*
X1118500Y241000D02*
D03*
X1111000Y226000D02*
D03*
X1118500Y211000D02*
D03*
X1111000Y196000D02*
D03*
X1118500Y181000D02*
D03*
X1111000Y166000D02*
D03*
X1118500Y151000D02*
D03*
X1111000Y136000D02*
D03*
X1118500Y121000D02*
D03*
X1111000Y76000D02*
D03*
X1118500Y61000D02*
D03*
X1111000Y46000D02*
D03*
X1118500Y31000D02*
D03*
X1111000Y16000D02*
D03*
X1103500Y691000D02*
D03*
X1096000Y676000D02*
D03*
X1103500Y661000D02*
D03*
X1096000Y646000D02*
D03*
X1103500Y631000D02*
D03*
X1096000Y616000D02*
D03*
X1103500Y601000D02*
D03*
X1096000Y586000D02*
D03*
X1103500Y571000D02*
D03*
X1096000Y556000D02*
D03*
X1103500Y541000D02*
D03*
X1096000Y526000D02*
D03*
X1103500Y511000D02*
D03*
X1096000Y496000D02*
D03*
Y436000D02*
D03*
X1103500Y421000D02*
D03*
X1096000Y406000D02*
D03*
X1103500Y391000D02*
D03*
X1096000Y376000D02*
D03*
X1103500Y361000D02*
D03*
X1096000Y346000D02*
D03*
X1103500Y331000D02*
D03*
X1096000Y316000D02*
D03*
X1103500Y301000D02*
D03*
X1096000Y286000D02*
D03*
X1103500Y271000D02*
D03*
X1096000Y256000D02*
D03*
X1103500Y241000D02*
D03*
X1096000Y226000D02*
D03*
X1103500Y211000D02*
D03*
X1096000Y196000D02*
D03*
X1103500Y181000D02*
D03*
X1096000Y166000D02*
D03*
X1103500Y151000D02*
D03*
X1096000Y136000D02*
D03*
X1103500Y121000D02*
D03*
X1096000Y76000D02*
D03*
X1103500Y61000D02*
D03*
X1096000Y46000D02*
D03*
X1103500Y31000D02*
D03*
X1096000Y16000D02*
D03*
X1088500Y691000D02*
D03*
X1081000Y676000D02*
D03*
X1088500Y661000D02*
D03*
X1081000Y646000D02*
D03*
X1088500Y631000D02*
D03*
X1081000Y616000D02*
D03*
X1088500Y601000D02*
D03*
X1081000Y586000D02*
D03*
X1088500Y571000D02*
D03*
X1081000Y556000D02*
D03*
X1088500Y541000D02*
D03*
X1081000Y526000D02*
D03*
X1088500Y511000D02*
D03*
X1081000Y496000D02*
D03*
Y436000D02*
D03*
X1088500Y421000D02*
D03*
X1081000Y406000D02*
D03*
X1088500Y391000D02*
D03*
X1081000Y376000D02*
D03*
X1088500Y361000D02*
D03*
X1081000Y346000D02*
D03*
X1088500Y331000D02*
D03*
X1081000Y316000D02*
D03*
X1088500Y301000D02*
D03*
X1081000Y286000D02*
D03*
X1088500Y271000D02*
D03*
X1081000Y256000D02*
D03*
X1088500Y241000D02*
D03*
X1081000Y226000D02*
D03*
X1088500Y211000D02*
D03*
X1081000Y196000D02*
D03*
X1088500Y181000D02*
D03*
X1081000Y166000D02*
D03*
X1088500Y151000D02*
D03*
X1081000Y136000D02*
D03*
X1088500Y121000D02*
D03*
X1081000Y76000D02*
D03*
X1088500Y61000D02*
D03*
X1081000Y46000D02*
D03*
X1088500Y31000D02*
D03*
X1081000Y16000D02*
D03*
X1073500Y691000D02*
D03*
X1066000Y676000D02*
D03*
X1073500Y661000D02*
D03*
X1066000Y646000D02*
D03*
X1073500Y631000D02*
D03*
X1066000Y616000D02*
D03*
X1073500Y601000D02*
D03*
X1066000Y586000D02*
D03*
X1073500Y571000D02*
D03*
X1066000Y556000D02*
D03*
X1073500Y541000D02*
D03*
X1066000Y526000D02*
D03*
X1073500Y511000D02*
D03*
X1066000Y496000D02*
D03*
Y436000D02*
D03*
X1073500Y421000D02*
D03*
X1066000Y406000D02*
D03*
X1073500Y391000D02*
D03*
X1066000Y376000D02*
D03*
X1073500Y361000D02*
D03*
X1066000Y346000D02*
D03*
X1073500Y331000D02*
D03*
X1066000Y316000D02*
D03*
X1073500Y301000D02*
D03*
X1066000Y286000D02*
D03*
X1073500Y271000D02*
D03*
X1066000Y256000D02*
D03*
X1073500Y241000D02*
D03*
X1066000Y226000D02*
D03*
X1073500Y211000D02*
D03*
X1066000Y196000D02*
D03*
X1073500Y181000D02*
D03*
X1066000Y166000D02*
D03*
X1073500Y151000D02*
D03*
X1066000Y136000D02*
D03*
X1073500Y121000D02*
D03*
X1066000Y76000D02*
D03*
X1073500Y61000D02*
D03*
X1066000Y46000D02*
D03*
X1073500Y31000D02*
D03*
X1066000Y16000D02*
D03*
X1058500Y691000D02*
D03*
X1051000Y676000D02*
D03*
X1058500Y661000D02*
D03*
X1051000Y646000D02*
D03*
X1058500Y631000D02*
D03*
X1051000Y616000D02*
D03*
X1058500Y601000D02*
D03*
X1051000Y586000D02*
D03*
X1058500Y571000D02*
D03*
X1051000Y556000D02*
D03*
X1058500Y541000D02*
D03*
X1051000Y526000D02*
D03*
X1058500Y511000D02*
D03*
X1051000Y496000D02*
D03*
Y436000D02*
D03*
X1058500Y421000D02*
D03*
X1051000Y406000D02*
D03*
X1058500Y391000D02*
D03*
X1051000Y376000D02*
D03*
X1058500Y361000D02*
D03*
X1051000Y346000D02*
D03*
X1058500Y331000D02*
D03*
X1051000Y316000D02*
D03*
X1058500Y301000D02*
D03*
X1051000Y286000D02*
D03*
X1058500Y271000D02*
D03*
X1051000Y256000D02*
D03*
X1058500Y241000D02*
D03*
X1051000Y226000D02*
D03*
X1058500Y211000D02*
D03*
X1051000Y196000D02*
D03*
X1058500Y181000D02*
D03*
X1051000Y166000D02*
D03*
X1058500Y151000D02*
D03*
X1051000Y136000D02*
D03*
X1058500Y121000D02*
D03*
X1051000Y76000D02*
D03*
X1058500Y61000D02*
D03*
X1051000Y46000D02*
D03*
X1058500Y31000D02*
D03*
X1051000Y16000D02*
D03*
X1043500Y691000D02*
D03*
X1036000Y676000D02*
D03*
X1043500Y661000D02*
D03*
X1036000Y646000D02*
D03*
X1043500Y631000D02*
D03*
X1036000Y616000D02*
D03*
X1043500Y601000D02*
D03*
X1036000Y586000D02*
D03*
X1043500Y571000D02*
D03*
X1036000Y556000D02*
D03*
X1043500Y541000D02*
D03*
X1036000Y526000D02*
D03*
X1043500Y511000D02*
D03*
X1036000Y496000D02*
D03*
Y436000D02*
D03*
X1043500Y421000D02*
D03*
X1036000Y406000D02*
D03*
X1043500Y391000D02*
D03*
X1036000Y376000D02*
D03*
X1043500Y361000D02*
D03*
X1036000Y346000D02*
D03*
X1043500Y331000D02*
D03*
X1036000Y316000D02*
D03*
X1043500Y301000D02*
D03*
X1036000Y286000D02*
D03*
X1043500Y271000D02*
D03*
X1036000Y256000D02*
D03*
X1043500Y241000D02*
D03*
X1036000Y226000D02*
D03*
X1043500Y211000D02*
D03*
X1036000Y196000D02*
D03*
X1043500Y181000D02*
D03*
X1036000Y166000D02*
D03*
X1043500Y151000D02*
D03*
X1036000Y136000D02*
D03*
X1043500Y121000D02*
D03*
X1036000Y76000D02*
D03*
X1043500Y61000D02*
D03*
X1036000Y46000D02*
D03*
X1043500Y31000D02*
D03*
X1036000Y16000D02*
D03*
X1028500Y691000D02*
D03*
X1021000Y676000D02*
D03*
X1028500Y661000D02*
D03*
X1021000Y646000D02*
D03*
X1028500Y631000D02*
D03*
X1021000Y616000D02*
D03*
X1028500Y601000D02*
D03*
X1021000Y586000D02*
D03*
X1028500Y571000D02*
D03*
X1021000Y556000D02*
D03*
X1028500Y541000D02*
D03*
X1021000Y526000D02*
D03*
X1028500Y511000D02*
D03*
X1021000Y496000D02*
D03*
Y436000D02*
D03*
X1028500Y421000D02*
D03*
X1021000Y406000D02*
D03*
X1028500Y391000D02*
D03*
X1021000Y376000D02*
D03*
X1028500Y361000D02*
D03*
X1021000Y346000D02*
D03*
X1028500Y331000D02*
D03*
X1021000Y316000D02*
D03*
X1028500Y301000D02*
D03*
X1021000Y286000D02*
D03*
X1028500Y271000D02*
D03*
X1021000Y256000D02*
D03*
X1028500Y241000D02*
D03*
X1021000Y226000D02*
D03*
X1028500Y211000D02*
D03*
X1021000Y196000D02*
D03*
X1028500Y181000D02*
D03*
X1021000Y166000D02*
D03*
X1028500Y151000D02*
D03*
X1021000Y136000D02*
D03*
X1028500Y121000D02*
D03*
X1021000Y76000D02*
D03*
X1028500Y61000D02*
D03*
X1021000Y46000D02*
D03*
X1028500Y31000D02*
D03*
X1021000Y16000D02*
D03*
X1013500Y691000D02*
D03*
X1006000Y676000D02*
D03*
X1013500Y661000D02*
D03*
X1006000Y646000D02*
D03*
X1013500Y631000D02*
D03*
X1006000Y616000D02*
D03*
X1013500Y601000D02*
D03*
X1006000Y586000D02*
D03*
X1013500Y571000D02*
D03*
X1006000Y556000D02*
D03*
X1013500Y541000D02*
D03*
X1006000Y526000D02*
D03*
X1013500Y511000D02*
D03*
X1006000Y496000D02*
D03*
Y436000D02*
D03*
X1013500Y421000D02*
D03*
X1006000Y406000D02*
D03*
X1013500Y391000D02*
D03*
X1006000Y376000D02*
D03*
X1013500Y361000D02*
D03*
X1006000Y346000D02*
D03*
X1013500Y331000D02*
D03*
X1006000Y316000D02*
D03*
X1013500Y301000D02*
D03*
X1006000Y286000D02*
D03*
X1013500Y271000D02*
D03*
X1006000Y256000D02*
D03*
X1013500Y241000D02*
D03*
X1006000Y226000D02*
D03*
X1013500Y211000D02*
D03*
X1006000Y196000D02*
D03*
X1013500Y181000D02*
D03*
X1006000Y166000D02*
D03*
X1013500Y151000D02*
D03*
X1006000Y136000D02*
D03*
X1013500Y121000D02*
D03*
Y31000D02*
D03*
X1006000Y16000D02*
D03*
X998500Y691000D02*
D03*
X991000Y676000D02*
D03*
X998500Y661000D02*
D03*
X991000Y646000D02*
D03*
X998500Y631000D02*
D03*
X991000Y616000D02*
D03*
X998500Y601000D02*
D03*
X991000Y586000D02*
D03*
X998500Y571000D02*
D03*
X991000Y556000D02*
D03*
X998500Y541000D02*
D03*
X991000Y526000D02*
D03*
X998500Y511000D02*
D03*
X991000Y496000D02*
D03*
Y436000D02*
D03*
X998500Y421000D02*
D03*
X991000Y406000D02*
D03*
X998500Y391000D02*
D03*
X991000Y376000D02*
D03*
X998500Y361000D02*
D03*
X991000Y346000D02*
D03*
X998500Y331000D02*
D03*
X991000Y316000D02*
D03*
X998500Y301000D02*
D03*
X991000Y286000D02*
D03*
X998500Y271000D02*
D03*
X991000Y256000D02*
D03*
X998500Y241000D02*
D03*
X991000Y226000D02*
D03*
X998500Y211000D02*
D03*
X991000Y196000D02*
D03*
X998500Y181000D02*
D03*
X991000Y166000D02*
D03*
X998500Y151000D02*
D03*
X991000Y136000D02*
D03*
X998500Y121000D02*
D03*
Y31000D02*
D03*
X991000Y16000D02*
D03*
X983500Y691000D02*
D03*
X976000Y676000D02*
D03*
X983500Y661000D02*
D03*
X976000Y646000D02*
D03*
X983500Y631000D02*
D03*
X976000Y616000D02*
D03*
X983500Y601000D02*
D03*
X976000Y586000D02*
D03*
X983500Y571000D02*
D03*
X976000Y556000D02*
D03*
X983500Y541000D02*
D03*
X976000Y526000D02*
D03*
X983500Y511000D02*
D03*
Y421000D02*
D03*
Y391000D02*
D03*
Y361000D02*
D03*
Y331000D02*
D03*
Y301000D02*
D03*
Y271000D02*
D03*
Y241000D02*
D03*
Y211000D02*
D03*
Y181000D02*
D03*
Y121000D02*
D03*
X976000Y76000D02*
D03*
Y46000D02*
D03*
X983500Y31000D02*
D03*
X976000Y16000D02*
D03*
X968500Y691000D02*
D03*
X961000Y676000D02*
D03*
X968500Y661000D02*
D03*
X961000Y646000D02*
D03*
X968500Y631000D02*
D03*
X961000Y616000D02*
D03*
X968500Y601000D02*
D03*
X961000Y586000D02*
D03*
X968500Y571000D02*
D03*
X961000Y556000D02*
D03*
X968500Y541000D02*
D03*
X961000Y496000D02*
D03*
Y436000D02*
D03*
Y406000D02*
D03*
Y376000D02*
D03*
Y346000D02*
D03*
Y316000D02*
D03*
Y286000D02*
D03*
Y256000D02*
D03*
Y226000D02*
D03*
Y196000D02*
D03*
Y166000D02*
D03*
Y136000D02*
D03*
X968500Y121000D02*
D03*
X961000Y76000D02*
D03*
X968500Y61000D02*
D03*
X961000Y46000D02*
D03*
X968500Y31000D02*
D03*
X961000Y16000D02*
D03*
X953500Y691000D02*
D03*
X946000Y676000D02*
D03*
X953500Y661000D02*
D03*
X946000Y646000D02*
D03*
X953500Y631000D02*
D03*
X946000Y616000D02*
D03*
X953500Y601000D02*
D03*
X946000Y586000D02*
D03*
X953500Y571000D02*
D03*
X946000Y556000D02*
D03*
X953500Y511000D02*
D03*
X946000Y496000D02*
D03*
Y436000D02*
D03*
X953500Y421000D02*
D03*
X946000Y406000D02*
D03*
X953500Y391000D02*
D03*
X946000Y376000D02*
D03*
X953500Y361000D02*
D03*
X946000Y346000D02*
D03*
X953500Y331000D02*
D03*
X946000Y76000D02*
D03*
X953500Y61000D02*
D03*
X946000Y46000D02*
D03*
X953500Y31000D02*
D03*
X946000Y16000D02*
D03*
X938500Y691000D02*
D03*
X931000Y676000D02*
D03*
X938500Y661000D02*
D03*
X931000Y646000D02*
D03*
X938500Y631000D02*
D03*
X931000Y616000D02*
D03*
X938500Y601000D02*
D03*
X931000Y586000D02*
D03*
X938500Y571000D02*
D03*
X931000Y556000D02*
D03*
X938500Y511000D02*
D03*
Y421000D02*
D03*
Y391000D02*
D03*
Y361000D02*
D03*
X931000Y76000D02*
D03*
X938500Y61000D02*
D03*
X931000Y46000D02*
D03*
X938500Y31000D02*
D03*
X931000Y16000D02*
D03*
X923500Y691000D02*
D03*
X916000Y676000D02*
D03*
X923500Y661000D02*
D03*
X916000Y646000D02*
D03*
X923500Y631000D02*
D03*
X916000Y616000D02*
D03*
X923500Y601000D02*
D03*
X916000Y586000D02*
D03*
X923500Y571000D02*
D03*
X916000Y556000D02*
D03*
Y76000D02*
D03*
X923500Y61000D02*
D03*
X916000Y46000D02*
D03*
X923500Y31000D02*
D03*
X916000Y16000D02*
D03*
X908500Y691000D02*
D03*
X901000Y676000D02*
D03*
X908500Y661000D02*
D03*
X901000Y646000D02*
D03*
X908500Y631000D02*
D03*
X901000Y616000D02*
D03*
X908500Y601000D02*
D03*
X901000Y436000D02*
D03*
X908500Y421000D02*
D03*
X901000Y406000D02*
D03*
X908500Y271000D02*
D03*
Y241000D02*
D03*
X901000Y226000D02*
D03*
Y106000D02*
D03*
X908500Y31000D02*
D03*
X901000Y16000D02*
D03*
X893500Y691000D02*
D03*
X886000Y676000D02*
D03*
X893500Y661000D02*
D03*
X886000Y646000D02*
D03*
X893500Y631000D02*
D03*
X886000Y616000D02*
D03*
X893500Y601000D02*
D03*
Y571000D02*
D03*
X886000Y496000D02*
D03*
Y436000D02*
D03*
X893500Y421000D02*
D03*
X886000Y406000D02*
D03*
Y346000D02*
D03*
X893500Y241000D02*
D03*
X886000Y226000D02*
D03*
X893500Y211000D02*
D03*
X886000Y196000D02*
D03*
Y76000D02*
D03*
X893500Y31000D02*
D03*
X886000Y16000D02*
D03*
X878500Y691000D02*
D03*
X871000Y676000D02*
D03*
X878500Y661000D02*
D03*
X871000Y646000D02*
D03*
X878500Y631000D02*
D03*
X871000Y616000D02*
D03*
X878500Y601000D02*
D03*
X871000Y436000D02*
D03*
X878500Y421000D02*
D03*
X871000Y406000D02*
D03*
X878500Y241000D02*
D03*
X871000Y226000D02*
D03*
X878500Y211000D02*
D03*
X871000Y196000D02*
D03*
Y166000D02*
D03*
Y106000D02*
D03*
X878500Y91000D02*
D03*
X871000Y76000D02*
D03*
Y46000D02*
D03*
X878500Y31000D02*
D03*
X871000Y16000D02*
D03*
X863500Y691000D02*
D03*
X856000Y676000D02*
D03*
X863500Y661000D02*
D03*
X856000Y646000D02*
D03*
X863500Y631000D02*
D03*
X856000Y616000D02*
D03*
X863500Y601000D02*
D03*
Y571000D02*
D03*
X856000Y496000D02*
D03*
Y436000D02*
D03*
X863500Y421000D02*
D03*
X856000Y406000D02*
D03*
Y346000D02*
D03*
X863500Y271000D02*
D03*
Y241000D02*
D03*
X856000Y226000D02*
D03*
X863500Y211000D02*
D03*
X856000Y196000D02*
D03*
X863500Y181000D02*
D03*
X856000Y166000D02*
D03*
X863500Y151000D02*
D03*
X856000Y106000D02*
D03*
X863500Y91000D02*
D03*
X856000Y76000D02*
D03*
X863500Y61000D02*
D03*
X856000Y46000D02*
D03*
X863500Y31000D02*
D03*
X856000Y16000D02*
D03*
X848500Y691000D02*
D03*
X841000Y676000D02*
D03*
X848500Y661000D02*
D03*
X841000Y646000D02*
D03*
X848500Y631000D02*
D03*
X841000Y616000D02*
D03*
X848500Y601000D02*
D03*
X841000Y436000D02*
D03*
X848500Y421000D02*
D03*
X841000Y406000D02*
D03*
X848500Y241000D02*
D03*
X841000Y226000D02*
D03*
X848500Y211000D02*
D03*
X841000Y196000D02*
D03*
X848500Y181000D02*
D03*
X841000Y136000D02*
D03*
X848500Y121000D02*
D03*
X841000Y106000D02*
D03*
X848500Y91000D02*
D03*
X841000Y76000D02*
D03*
X848500Y61000D02*
D03*
X841000Y46000D02*
D03*
X848500Y31000D02*
D03*
X841000Y16000D02*
D03*
X833500Y691000D02*
D03*
X826000Y676000D02*
D03*
X833500Y661000D02*
D03*
X826000Y646000D02*
D03*
X833500Y631000D02*
D03*
X826000Y616000D02*
D03*
X833500Y601000D02*
D03*
Y571000D02*
D03*
X826000Y436000D02*
D03*
X833500Y421000D02*
D03*
X826000Y406000D02*
D03*
Y346000D02*
D03*
X833500Y271000D02*
D03*
Y241000D02*
D03*
X826000Y226000D02*
D03*
X833500Y211000D02*
D03*
X826000Y196000D02*
D03*
X833500Y181000D02*
D03*
X826000Y136000D02*
D03*
X833500Y121000D02*
D03*
X826000Y106000D02*
D03*
X833500Y91000D02*
D03*
X826000Y76000D02*
D03*
X833500Y61000D02*
D03*
X826000Y46000D02*
D03*
X833500Y31000D02*
D03*
X826000Y16000D02*
D03*
X818500Y691000D02*
D03*
X811000Y676000D02*
D03*
X818500Y661000D02*
D03*
X811000Y646000D02*
D03*
X818500Y631000D02*
D03*
X811000Y616000D02*
D03*
X818500Y601000D02*
D03*
X811000Y496000D02*
D03*
Y436000D02*
D03*
X818500Y421000D02*
D03*
X811000Y406000D02*
D03*
X818500Y241000D02*
D03*
X811000Y226000D02*
D03*
X818500Y211000D02*
D03*
X811000Y166000D02*
D03*
X818500Y151000D02*
D03*
X811000Y136000D02*
D03*
X818500Y121000D02*
D03*
X811000Y106000D02*
D03*
X818500Y91000D02*
D03*
X811000Y76000D02*
D03*
X818500Y61000D02*
D03*
X811000Y46000D02*
D03*
X818500Y31000D02*
D03*
X811000Y16000D02*
D03*
X803500Y691000D02*
D03*
X796000Y676000D02*
D03*
X803500Y661000D02*
D03*
X796000Y646000D02*
D03*
X803500Y631000D02*
D03*
X796000Y616000D02*
D03*
X803500Y601000D02*
D03*
X796000Y166000D02*
D03*
X803500Y151000D02*
D03*
X796000Y136000D02*
D03*
X803500Y121000D02*
D03*
X796000Y106000D02*
D03*
X803500Y91000D02*
D03*
X796000Y76000D02*
D03*
X803500Y61000D02*
D03*
X796000Y46000D02*
D03*
X803500Y31000D02*
D03*
X796000Y16000D02*
D03*
X788500Y691000D02*
D03*
X781000Y676000D02*
D03*
X788500Y661000D02*
D03*
X781000Y646000D02*
D03*
X788500Y631000D02*
D03*
X781000Y616000D02*
D03*
X788500Y601000D02*
D03*
X781000Y586000D02*
D03*
X788500Y511000D02*
D03*
Y481000D02*
D03*
Y451000D02*
D03*
Y421000D02*
D03*
X781000Y166000D02*
D03*
X788500Y151000D02*
D03*
X781000Y136000D02*
D03*
X788500Y121000D02*
D03*
X781000Y106000D02*
D03*
X788500Y91000D02*
D03*
X781000Y76000D02*
D03*
X788500Y61000D02*
D03*
X781000Y46000D02*
D03*
X788500Y31000D02*
D03*
X781000Y16000D02*
D03*
X773500Y691000D02*
D03*
X766000Y676000D02*
D03*
X773500Y661000D02*
D03*
X766000Y646000D02*
D03*
X773500Y631000D02*
D03*
X766000Y616000D02*
D03*
X773500Y601000D02*
D03*
X766000Y586000D02*
D03*
X773500Y571000D02*
D03*
X766000Y556000D02*
D03*
Y526000D02*
D03*
Y496000D02*
D03*
Y466000D02*
D03*
Y436000D02*
D03*
Y406000D02*
D03*
Y376000D02*
D03*
Y196000D02*
D03*
X773500Y151000D02*
D03*
X766000Y136000D02*
D03*
X773500Y121000D02*
D03*
X766000Y106000D02*
D03*
X773500Y91000D02*
D03*
X766000Y76000D02*
D03*
X773500Y61000D02*
D03*
X766000Y46000D02*
D03*
X773500Y31000D02*
D03*
X766000Y16000D02*
D03*
X758500Y691000D02*
D03*
X751000Y676000D02*
D03*
X758500Y661000D02*
D03*
X751000Y646000D02*
D03*
X758500Y631000D02*
D03*
X751000Y616000D02*
D03*
X758500Y601000D02*
D03*
X751000Y436000D02*
D03*
X758500Y421000D02*
D03*
X751000Y406000D02*
D03*
Y226000D02*
D03*
X758500Y181000D02*
D03*
X751000Y166000D02*
D03*
Y136000D02*
D03*
X758500Y121000D02*
D03*
X751000Y106000D02*
D03*
X758500Y91000D02*
D03*
Y31000D02*
D03*
X751000Y16000D02*
D03*
X743500Y691000D02*
D03*
X736000Y676000D02*
D03*
X743500Y661000D02*
D03*
X736000Y646000D02*
D03*
X743500Y631000D02*
D03*
X736000Y616000D02*
D03*
X743500Y601000D02*
D03*
Y571000D02*
D03*
X736000Y496000D02*
D03*
Y436000D02*
D03*
X743500Y421000D02*
D03*
X736000Y406000D02*
D03*
Y346000D02*
D03*
X743500Y211000D02*
D03*
X736000Y166000D02*
D03*
X743500Y121000D02*
D03*
X736000Y106000D02*
D03*
X743500Y91000D02*
D03*
X736000Y76000D02*
D03*
X743500Y31000D02*
D03*
X736000Y16000D02*
D03*
X728500Y691000D02*
D03*
X721000Y676000D02*
D03*
X728500Y661000D02*
D03*
X721000Y646000D02*
D03*
X728500Y631000D02*
D03*
X721000Y616000D02*
D03*
X728500Y601000D02*
D03*
X721000Y436000D02*
D03*
X728500Y421000D02*
D03*
X721000Y406000D02*
D03*
X728500Y241000D02*
D03*
X721000Y226000D02*
D03*
Y196000D02*
D03*
Y106000D02*
D03*
X728500Y91000D02*
D03*
X721000Y76000D02*
D03*
Y46000D02*
D03*
X728500Y31000D02*
D03*
X721000Y16000D02*
D03*
X713500Y691000D02*
D03*
X706000Y676000D02*
D03*
X713500Y661000D02*
D03*
X706000Y646000D02*
D03*
X713500Y631000D02*
D03*
X706000Y616000D02*
D03*
X713500Y601000D02*
D03*
Y571000D02*
D03*
X706000Y496000D02*
D03*
Y436000D02*
D03*
X713500Y421000D02*
D03*
X706000Y406000D02*
D03*
Y346000D02*
D03*
X713500Y271000D02*
D03*
Y241000D02*
D03*
X706000Y226000D02*
D03*
X713500Y181000D02*
D03*
X706000Y106000D02*
D03*
X713500Y91000D02*
D03*
X706000Y76000D02*
D03*
X713500Y61000D02*
D03*
X706000Y46000D02*
D03*
X713500Y31000D02*
D03*
X706000Y16000D02*
D03*
X698500Y691000D02*
D03*
X691000Y676000D02*
D03*
X698500Y661000D02*
D03*
X691000Y646000D02*
D03*
X698500Y631000D02*
D03*
X691000Y616000D02*
D03*
X698500Y601000D02*
D03*
X691000Y436000D02*
D03*
X698500Y421000D02*
D03*
X691000Y406000D02*
D03*
X698500Y241000D02*
D03*
X691000Y226000D02*
D03*
X698500Y211000D02*
D03*
X691000Y196000D02*
D03*
Y166000D02*
D03*
Y106000D02*
D03*
X698500Y91000D02*
D03*
X691000Y76000D02*
D03*
X698500Y61000D02*
D03*
X691000Y46000D02*
D03*
X698500Y31000D02*
D03*
X691000Y16000D02*
D03*
X683500Y691000D02*
D03*
X676000Y676000D02*
D03*
X683500Y661000D02*
D03*
X676000Y646000D02*
D03*
X683500Y631000D02*
D03*
X676000Y616000D02*
D03*
X683500Y601000D02*
D03*
Y571000D02*
D03*
X676000Y436000D02*
D03*
X683500Y421000D02*
D03*
X676000Y406000D02*
D03*
Y346000D02*
D03*
X683500Y271000D02*
D03*
Y241000D02*
D03*
X676000Y226000D02*
D03*
X683500Y211000D02*
D03*
X676000Y196000D02*
D03*
Y106000D02*
D03*
X683500Y91000D02*
D03*
X676000Y76000D02*
D03*
X683500Y61000D02*
D03*
X676000Y46000D02*
D03*
X683500Y31000D02*
D03*
X676000Y16000D02*
D03*
X668500Y691000D02*
D03*
X661000Y676000D02*
D03*
X668500Y661000D02*
D03*
X661000Y646000D02*
D03*
X668500Y631000D02*
D03*
X661000Y616000D02*
D03*
X668500Y601000D02*
D03*
X661000Y496000D02*
D03*
Y436000D02*
D03*
X668500Y421000D02*
D03*
X661000Y406000D02*
D03*
X668500Y241000D02*
D03*
X661000Y226000D02*
D03*
X668500Y211000D02*
D03*
X661000Y196000D02*
D03*
X668500Y181000D02*
D03*
X661000Y166000D02*
D03*
Y136000D02*
D03*
X668500Y121000D02*
D03*
X661000Y106000D02*
D03*
X668500Y91000D02*
D03*
X661000Y76000D02*
D03*
X668500Y61000D02*
D03*
Y31000D02*
D03*
X661000Y16000D02*
D03*
X653500Y691000D02*
D03*
X646000Y676000D02*
D03*
X653500Y661000D02*
D03*
X646000Y646000D02*
D03*
X653500Y631000D02*
D03*
X646000Y616000D02*
D03*
X653500Y601000D02*
D03*
Y571000D02*
D03*
Y421000D02*
D03*
Y241000D02*
D03*
X646000Y226000D02*
D03*
X653500Y211000D02*
D03*
X646000Y196000D02*
D03*
X653500Y181000D02*
D03*
X646000Y166000D02*
D03*
X653500Y151000D02*
D03*
X646000Y136000D02*
D03*
X653500Y121000D02*
D03*
X646000Y106000D02*
D03*
X653500Y91000D02*
D03*
Y31000D02*
D03*
X646000Y16000D02*
D03*
X638500Y691000D02*
D03*
X631000Y676000D02*
D03*
X638500Y661000D02*
D03*
X631000Y646000D02*
D03*
X638500Y631000D02*
D03*
X631000Y616000D02*
D03*
X638500Y601000D02*
D03*
X631000Y346000D02*
D03*
X638500Y271000D02*
D03*
Y241000D02*
D03*
X631000Y226000D02*
D03*
X638500Y211000D02*
D03*
X631000Y196000D02*
D03*
X638500Y181000D02*
D03*
X631000Y166000D02*
D03*
X638500Y151000D02*
D03*
X631000Y136000D02*
D03*
X638500Y121000D02*
D03*
X631000Y106000D02*
D03*
X638500Y91000D02*
D03*
X631000Y76000D02*
D03*
X638500Y31000D02*
D03*
X631000Y16000D02*
D03*
X623500Y691000D02*
D03*
X616000Y676000D02*
D03*
X623500Y661000D02*
D03*
X616000Y646000D02*
D03*
X623500Y631000D02*
D03*
X616000Y616000D02*
D03*
X623500Y601000D02*
D03*
Y571000D02*
D03*
Y271000D02*
D03*
Y241000D02*
D03*
X616000Y226000D02*
D03*
X623500Y211000D02*
D03*
X616000Y196000D02*
D03*
X623500Y181000D02*
D03*
X616000Y166000D02*
D03*
X623500Y151000D02*
D03*
X616000Y136000D02*
D03*
X623500Y121000D02*
D03*
X616000Y106000D02*
D03*
X623500Y91000D02*
D03*
X616000Y76000D02*
D03*
X623500Y61000D02*
D03*
X616000Y46000D02*
D03*
X623500Y31000D02*
D03*
X616000Y16000D02*
D03*
X608500Y691000D02*
D03*
X601000Y676000D02*
D03*
X608500Y661000D02*
D03*
X601000Y646000D02*
D03*
X608500Y631000D02*
D03*
X601000Y616000D02*
D03*
X608500Y601000D02*
D03*
Y571000D02*
D03*
X601000Y436000D02*
D03*
Y406000D02*
D03*
Y376000D02*
D03*
Y286000D02*
D03*
X608500Y241000D02*
D03*
X601000Y226000D02*
D03*
X608500Y211000D02*
D03*
X601000Y196000D02*
D03*
X608500Y181000D02*
D03*
X601000Y166000D02*
D03*
X608500Y151000D02*
D03*
X601000Y136000D02*
D03*
X608500Y121000D02*
D03*
X601000Y106000D02*
D03*
X608500Y91000D02*
D03*
X601000Y76000D02*
D03*
X608500Y61000D02*
D03*
X601000Y46000D02*
D03*
X608500Y31000D02*
D03*
X601000Y16000D02*
D03*
X593500Y691000D02*
D03*
X586000Y676000D02*
D03*
X593500Y661000D02*
D03*
X586000Y646000D02*
D03*
X593500Y631000D02*
D03*
X586000Y616000D02*
D03*
X593500Y601000D02*
D03*
Y571000D02*
D03*
X586000Y496000D02*
D03*
Y256000D02*
D03*
X593500Y241000D02*
D03*
X586000Y226000D02*
D03*
X593500Y211000D02*
D03*
X586000Y196000D02*
D03*
X593500Y181000D02*
D03*
X586000Y166000D02*
D03*
X593500Y151000D02*
D03*
X586000Y136000D02*
D03*
X593500Y121000D02*
D03*
X586000Y106000D02*
D03*
X593500Y91000D02*
D03*
X586000Y76000D02*
D03*
X593500Y61000D02*
D03*
X586000Y46000D02*
D03*
X593500Y31000D02*
D03*
X586000Y16000D02*
D03*
X578500Y691000D02*
D03*
X571000Y676000D02*
D03*
X578500Y661000D02*
D03*
X571000Y646000D02*
D03*
X578500Y631000D02*
D03*
X571000Y616000D02*
D03*
X578500Y601000D02*
D03*
Y571000D02*
D03*
X571000Y496000D02*
D03*
Y436000D02*
D03*
Y406000D02*
D03*
Y376000D02*
D03*
Y346000D02*
D03*
Y316000D02*
D03*
Y286000D02*
D03*
X578500Y271000D02*
D03*
X571000Y256000D02*
D03*
X578500Y241000D02*
D03*
X571000Y226000D02*
D03*
X578500Y211000D02*
D03*
X571000Y196000D02*
D03*
X578500Y181000D02*
D03*
X571000Y166000D02*
D03*
X578500Y151000D02*
D03*
X571000Y136000D02*
D03*
X578500Y121000D02*
D03*
X571000Y106000D02*
D03*
X578500Y91000D02*
D03*
X571000Y76000D02*
D03*
X578500Y61000D02*
D03*
X571000Y46000D02*
D03*
X578500Y31000D02*
D03*
X571000Y16000D02*
D03*
X563500Y691000D02*
D03*
X556000Y676000D02*
D03*
X563500Y661000D02*
D03*
X556000Y646000D02*
D03*
X563500Y631000D02*
D03*
X556000Y496000D02*
D03*
X563500Y151000D02*
D03*
X556000Y136000D02*
D03*
X563500Y121000D02*
D03*
X556000Y106000D02*
D03*
X563500Y91000D02*
D03*
X556000Y76000D02*
D03*
X563500Y61000D02*
D03*
X556000Y46000D02*
D03*
X563500Y31000D02*
D03*
X556000Y16000D02*
D03*
X548500Y691000D02*
D03*
X541000Y676000D02*
D03*
X548500Y661000D02*
D03*
X541000Y646000D02*
D03*
X548500Y631000D02*
D03*
X541000Y136000D02*
D03*
X548500Y121000D02*
D03*
X541000Y106000D02*
D03*
X548500Y91000D02*
D03*
X541000Y76000D02*
D03*
X548500Y61000D02*
D03*
X541000Y46000D02*
D03*
X548500Y31000D02*
D03*
X541000Y16000D02*
D03*
X533500Y691000D02*
D03*
X526000Y676000D02*
D03*
X533500Y661000D02*
D03*
X526000Y646000D02*
D03*
X533500Y631000D02*
D03*
Y571000D02*
D03*
X526000Y556000D02*
D03*
Y226000D02*
D03*
Y196000D02*
D03*
X533500Y121000D02*
D03*
X526000Y106000D02*
D03*
X533500Y91000D02*
D03*
X526000Y76000D02*
D03*
X533500Y61000D02*
D03*
Y31000D02*
D03*
X526000Y16000D02*
D03*
X518500Y691000D02*
D03*
X511000Y676000D02*
D03*
X518500Y661000D02*
D03*
X511000Y646000D02*
D03*
X518500Y631000D02*
D03*
Y571000D02*
D03*
Y511000D02*
D03*
X511000Y496000D02*
D03*
Y466000D02*
D03*
Y436000D02*
D03*
Y406000D02*
D03*
Y376000D02*
D03*
Y346000D02*
D03*
Y316000D02*
D03*
Y286000D02*
D03*
Y256000D02*
D03*
X518500Y211000D02*
D03*
X511000Y196000D02*
D03*
X518500Y181000D02*
D03*
X511000Y166000D02*
D03*
Y106000D02*
D03*
X518500Y91000D02*
D03*
X511000Y76000D02*
D03*
Y16000D02*
D03*
X503500Y691000D02*
D03*
X496000Y676000D02*
D03*
X503500Y661000D02*
D03*
X496000Y646000D02*
D03*
X503500Y631000D02*
D03*
Y481000D02*
D03*
Y451000D02*
D03*
Y421000D02*
D03*
Y391000D02*
D03*
Y361000D02*
D03*
Y331000D02*
D03*
Y301000D02*
D03*
Y271000D02*
D03*
Y211000D02*
D03*
X496000Y196000D02*
D03*
X503500Y181000D02*
D03*
X496000Y166000D02*
D03*
X503500Y91000D02*
D03*
X496000Y76000D02*
D03*
X503500Y61000D02*
D03*
X496000Y46000D02*
D03*
X503500Y31000D02*
D03*
X496000Y16000D02*
D03*
X488500Y691000D02*
D03*
X481000Y676000D02*
D03*
X488500Y661000D02*
D03*
X481000Y646000D02*
D03*
X488500Y631000D02*
D03*
Y451000D02*
D03*
Y391000D02*
D03*
Y181000D02*
D03*
X481000Y166000D02*
D03*
X488500Y151000D02*
D03*
Y121000D02*
D03*
X481000Y76000D02*
D03*
X488500Y61000D02*
D03*
X481000Y46000D02*
D03*
X488500Y31000D02*
D03*
X481000Y16000D02*
D03*
X473500Y691000D02*
D03*
X466000Y676000D02*
D03*
X473500Y661000D02*
D03*
X466000Y646000D02*
D03*
X473500Y631000D02*
D03*
Y451000D02*
D03*
Y271000D02*
D03*
Y241000D02*
D03*
X466000Y76000D02*
D03*
X473500Y61000D02*
D03*
X466000Y46000D02*
D03*
X473500Y31000D02*
D03*
X466000Y16000D02*
D03*
X458500Y691000D02*
D03*
X451000Y676000D02*
D03*
X458500Y661000D02*
D03*
X451000Y646000D02*
D03*
X458500Y631000D02*
D03*
Y451000D02*
D03*
Y211000D02*
D03*
X451000Y196000D02*
D03*
Y76000D02*
D03*
X458500Y61000D02*
D03*
X451000Y16000D02*
D03*
X443500Y691000D02*
D03*
X436000Y676000D02*
D03*
X443500Y661000D02*
D03*
X436000Y646000D02*
D03*
X443500Y631000D02*
D03*
Y451000D02*
D03*
X436000Y76000D02*
D03*
X443500Y61000D02*
D03*
X436000Y16000D02*
D03*
X428500Y691000D02*
D03*
X421000Y676000D02*
D03*
X428500Y661000D02*
D03*
X421000Y646000D02*
D03*
X428500Y631000D02*
D03*
Y451000D02*
D03*
X421000Y256000D02*
D03*
X428500Y91000D02*
D03*
X421000Y76000D02*
D03*
X428500Y61000D02*
D03*
X421000Y46000D02*
D03*
X428500Y31000D02*
D03*
X421000Y16000D02*
D03*
X413500Y691000D02*
D03*
X406000Y676000D02*
D03*
X413500Y661000D02*
D03*
X406000Y646000D02*
D03*
X413500Y631000D02*
D03*
Y451000D02*
D03*
Y391000D02*
D03*
Y211000D02*
D03*
X406000Y196000D02*
D03*
Y106000D02*
D03*
X413500Y91000D02*
D03*
X406000Y76000D02*
D03*
X413500Y61000D02*
D03*
X406000Y46000D02*
D03*
X413500Y31000D02*
D03*
X406000Y16000D02*
D03*
X398500Y691000D02*
D03*
X391000Y676000D02*
D03*
X398500Y661000D02*
D03*
X391000Y646000D02*
D03*
X398500Y631000D02*
D03*
Y511000D02*
D03*
Y451000D02*
D03*
Y271000D02*
D03*
Y241000D02*
D03*
X391000Y166000D02*
D03*
Y136000D02*
D03*
X398500Y121000D02*
D03*
X391000Y106000D02*
D03*
X398500Y91000D02*
D03*
X391000Y76000D02*
D03*
X398500Y61000D02*
D03*
X391000Y46000D02*
D03*
X398500Y31000D02*
D03*
X391000Y16000D02*
D03*
X383500Y691000D02*
D03*
X376000Y676000D02*
D03*
X383500Y661000D02*
D03*
X376000Y646000D02*
D03*
X383500Y631000D02*
D03*
Y451000D02*
D03*
Y391000D02*
D03*
Y151000D02*
D03*
X376000Y136000D02*
D03*
X383500Y121000D02*
D03*
X376000Y106000D02*
D03*
X383500Y91000D02*
D03*
X376000Y76000D02*
D03*
X383500Y61000D02*
D03*
Y31000D02*
D03*
X376000Y16000D02*
D03*
X368500Y691000D02*
D03*
X361000Y676000D02*
D03*
X368500Y661000D02*
D03*
X361000Y646000D02*
D03*
X368500Y631000D02*
D03*
Y451000D02*
D03*
Y241000D02*
D03*
X361000Y226000D02*
D03*
X368500Y211000D02*
D03*
X361000Y196000D02*
D03*
Y136000D02*
D03*
X368500Y121000D02*
D03*
X361000Y106000D02*
D03*
X368500Y91000D02*
D03*
X361000Y76000D02*
D03*
Y16000D02*
D03*
X353500Y691000D02*
D03*
X346000Y676000D02*
D03*
X353500Y661000D02*
D03*
X346000Y646000D02*
D03*
X353500Y631000D02*
D03*
Y451000D02*
D03*
X346000Y286000D02*
D03*
Y226000D02*
D03*
X353500Y211000D02*
D03*
X346000Y196000D02*
D03*
X353500Y121000D02*
D03*
X346000Y106000D02*
D03*
X353500Y91000D02*
D03*
X346000Y76000D02*
D03*
X353500Y61000D02*
D03*
X346000Y46000D02*
D03*
X353500Y31000D02*
D03*
X346000Y16000D02*
D03*
X338500Y691000D02*
D03*
X331000Y676000D02*
D03*
X338500Y661000D02*
D03*
X331000Y646000D02*
D03*
X338500Y631000D02*
D03*
Y511000D02*
D03*
X331000Y496000D02*
D03*
X338500Y481000D02*
D03*
X331000Y466000D02*
D03*
X338500Y451000D02*
D03*
X331000Y436000D02*
D03*
X338500Y421000D02*
D03*
X331000Y406000D02*
D03*
Y376000D02*
D03*
Y346000D02*
D03*
Y316000D02*
D03*
X338500Y301000D02*
D03*
X331000Y286000D02*
D03*
X338500Y271000D02*
D03*
X331000Y256000D02*
D03*
X338500Y211000D02*
D03*
X331000Y196000D02*
D03*
X338500Y181000D02*
D03*
X331000Y166000D02*
D03*
Y106000D02*
D03*
X338500Y91000D02*
D03*
X331000Y76000D02*
D03*
X338500Y61000D02*
D03*
X331000Y46000D02*
D03*
X338500Y31000D02*
D03*
X331000Y16000D02*
D03*
X323500Y691000D02*
D03*
X316000Y676000D02*
D03*
X323500Y661000D02*
D03*
X316000Y646000D02*
D03*
X323500Y631000D02*
D03*
Y571000D02*
D03*
X316000Y556000D02*
D03*
X323500Y511000D02*
D03*
X316000Y496000D02*
D03*
X323500Y481000D02*
D03*
X316000Y466000D02*
D03*
X323500Y451000D02*
D03*
X316000Y436000D02*
D03*
X323500Y421000D02*
D03*
X316000Y406000D02*
D03*
X323500Y391000D02*
D03*
X316000Y376000D02*
D03*
X323500Y361000D02*
D03*
X316000Y346000D02*
D03*
X323500Y331000D02*
D03*
X316000Y316000D02*
D03*
X323500Y301000D02*
D03*
X316000Y286000D02*
D03*
X323500Y271000D02*
D03*
X316000Y256000D02*
D03*
X323500Y241000D02*
D03*
X316000Y196000D02*
D03*
X323500Y181000D02*
D03*
X316000Y166000D02*
D03*
X323500Y91000D02*
D03*
X316000Y76000D02*
D03*
X323500Y61000D02*
D03*
X316000Y46000D02*
D03*
X323500Y31000D02*
D03*
X316000Y16000D02*
D03*
X308500Y691000D02*
D03*
X301000Y676000D02*
D03*
X308500Y661000D02*
D03*
X301000Y646000D02*
D03*
X308500Y631000D02*
D03*
Y571000D02*
D03*
X301000Y556000D02*
D03*
X308500Y511000D02*
D03*
X301000Y496000D02*
D03*
X308500Y481000D02*
D03*
X301000Y466000D02*
D03*
X308500Y451000D02*
D03*
X301000Y436000D02*
D03*
X308500Y421000D02*
D03*
X301000Y406000D02*
D03*
X308500Y391000D02*
D03*
X301000Y376000D02*
D03*
X308500Y361000D02*
D03*
X301000Y346000D02*
D03*
X308500Y331000D02*
D03*
X301000Y316000D02*
D03*
X308500Y301000D02*
D03*
X301000Y286000D02*
D03*
X308500Y271000D02*
D03*
X301000Y256000D02*
D03*
X308500Y241000D02*
D03*
X301000Y196000D02*
D03*
X308500Y181000D02*
D03*
X301000Y166000D02*
D03*
X308500Y151000D02*
D03*
Y121000D02*
D03*
X301000Y106000D02*
D03*
Y76000D02*
D03*
X308500Y61000D02*
D03*
X301000Y46000D02*
D03*
X308500Y31000D02*
D03*
X301000Y16000D02*
D03*
X293500Y691000D02*
D03*
X286000Y676000D02*
D03*
X293500Y661000D02*
D03*
X286000Y646000D02*
D03*
X293500Y631000D02*
D03*
Y571000D02*
D03*
X286000Y556000D02*
D03*
X293500Y511000D02*
D03*
X286000Y496000D02*
D03*
X293500Y481000D02*
D03*
X286000Y466000D02*
D03*
X293500Y451000D02*
D03*
X286000Y436000D02*
D03*
X293500Y421000D02*
D03*
X286000Y406000D02*
D03*
X293500Y391000D02*
D03*
X286000Y376000D02*
D03*
X293500Y361000D02*
D03*
X286000Y346000D02*
D03*
X293500Y331000D02*
D03*
X286000Y316000D02*
D03*
X293500Y301000D02*
D03*
X286000Y286000D02*
D03*
X293500Y271000D02*
D03*
X286000Y256000D02*
D03*
X293500Y241000D02*
D03*
X286000Y196000D02*
D03*
X293500Y181000D02*
D03*
X286000Y166000D02*
D03*
X293500Y151000D02*
D03*
Y121000D02*
D03*
X286000Y106000D02*
D03*
Y76000D02*
D03*
X293500Y61000D02*
D03*
X286000Y46000D02*
D03*
X293500Y31000D02*
D03*
X286000Y16000D02*
D03*
X278500Y691000D02*
D03*
X271000Y676000D02*
D03*
X278500Y661000D02*
D03*
X271000Y646000D02*
D03*
X278500Y631000D02*
D03*
Y571000D02*
D03*
X271000Y556000D02*
D03*
X278500Y511000D02*
D03*
X271000Y496000D02*
D03*
X278500Y481000D02*
D03*
X271000Y466000D02*
D03*
X278500Y451000D02*
D03*
X271000Y436000D02*
D03*
X278500Y421000D02*
D03*
X271000Y406000D02*
D03*
X278500Y391000D02*
D03*
X271000Y376000D02*
D03*
X278500Y361000D02*
D03*
X271000Y346000D02*
D03*
X278500Y331000D02*
D03*
X271000Y316000D02*
D03*
X278500Y301000D02*
D03*
X271000Y286000D02*
D03*
X278500Y271000D02*
D03*
X271000Y256000D02*
D03*
X278500Y241000D02*
D03*
X271000Y196000D02*
D03*
X278500Y181000D02*
D03*
X271000Y166000D02*
D03*
X278500Y151000D02*
D03*
Y121000D02*
D03*
X271000Y106000D02*
D03*
Y76000D02*
D03*
X278500Y61000D02*
D03*
X271000Y46000D02*
D03*
X278500Y31000D02*
D03*
X271000Y16000D02*
D03*
X263500Y691000D02*
D03*
X256000Y676000D02*
D03*
X263500Y661000D02*
D03*
X256000Y646000D02*
D03*
X263500Y631000D02*
D03*
X256000Y556000D02*
D03*
X263500Y511000D02*
D03*
X256000Y496000D02*
D03*
X263500Y481000D02*
D03*
X256000Y466000D02*
D03*
X263500Y451000D02*
D03*
X256000Y436000D02*
D03*
X263500Y421000D02*
D03*
X256000Y406000D02*
D03*
X263500Y391000D02*
D03*
X256000Y376000D02*
D03*
X263500Y361000D02*
D03*
X256000Y346000D02*
D03*
X263500Y331000D02*
D03*
X256000Y316000D02*
D03*
X263500Y301000D02*
D03*
X256000Y286000D02*
D03*
X263500Y271000D02*
D03*
X256000Y256000D02*
D03*
X263500Y241000D02*
D03*
X256000Y196000D02*
D03*
X263500Y181000D02*
D03*
X256000Y166000D02*
D03*
X263500Y151000D02*
D03*
Y121000D02*
D03*
X256000Y106000D02*
D03*
Y76000D02*
D03*
X263500Y61000D02*
D03*
X256000Y46000D02*
D03*
X263500Y31000D02*
D03*
X256000Y16000D02*
D03*
X248500Y691000D02*
D03*
X241000Y676000D02*
D03*
X248500Y661000D02*
D03*
X241000Y646000D02*
D03*
X248500Y631000D02*
D03*
X241000Y616000D02*
D03*
X248500Y541000D02*
D03*
X241000Y526000D02*
D03*
Y496000D02*
D03*
X248500Y481000D02*
D03*
X241000Y466000D02*
D03*
X248500Y451000D02*
D03*
X241000Y436000D02*
D03*
X248500Y421000D02*
D03*
X241000Y406000D02*
D03*
X248500Y391000D02*
D03*
X241000Y376000D02*
D03*
X248500Y361000D02*
D03*
X241000Y346000D02*
D03*
X248500Y331000D02*
D03*
X241000Y316000D02*
D03*
X248500Y301000D02*
D03*
X241000Y286000D02*
D03*
X248500Y271000D02*
D03*
X241000Y256000D02*
D03*
X248500Y241000D02*
D03*
X241000Y196000D02*
D03*
X248500Y181000D02*
D03*
X241000Y166000D02*
D03*
X248500Y151000D02*
D03*
Y121000D02*
D03*
X241000Y106000D02*
D03*
Y76000D02*
D03*
X248500Y61000D02*
D03*
X241000Y46000D02*
D03*
X248500Y31000D02*
D03*
X241000Y16000D02*
D03*
X233500Y691000D02*
D03*
X226000Y676000D02*
D03*
X233500Y661000D02*
D03*
X226000Y646000D02*
D03*
X233500Y631000D02*
D03*
X226000Y616000D02*
D03*
X233500Y571000D02*
D03*
X226000Y526000D02*
D03*
X233500Y481000D02*
D03*
X226000Y466000D02*
D03*
X233500Y451000D02*
D03*
X226000Y436000D02*
D03*
X233500Y421000D02*
D03*
X226000Y406000D02*
D03*
X233500Y391000D02*
D03*
X226000Y376000D02*
D03*
X233500Y361000D02*
D03*
X226000Y346000D02*
D03*
X233500Y331000D02*
D03*
X226000Y316000D02*
D03*
X233500Y301000D02*
D03*
X226000Y286000D02*
D03*
X233500Y271000D02*
D03*
X226000Y256000D02*
D03*
X233500Y241000D02*
D03*
X226000Y196000D02*
D03*
X233500Y181000D02*
D03*
X226000Y166000D02*
D03*
X233500Y151000D02*
D03*
Y121000D02*
D03*
X226000Y106000D02*
D03*
Y76000D02*
D03*
X233500Y61000D02*
D03*
Y31000D02*
D03*
X226000Y16000D02*
D03*
X218500Y691000D02*
D03*
X211000Y676000D02*
D03*
X218500Y661000D02*
D03*
X211000Y646000D02*
D03*
X218500Y631000D02*
D03*
X211000Y616000D02*
D03*
X218500Y601000D02*
D03*
X211000Y586000D02*
D03*
X218500Y511000D02*
D03*
X211000Y496000D02*
D03*
Y466000D02*
D03*
X218500Y451000D02*
D03*
X211000Y436000D02*
D03*
X218500Y421000D02*
D03*
X211000Y406000D02*
D03*
X218500Y391000D02*
D03*
X211000Y376000D02*
D03*
X218500Y361000D02*
D03*
X211000Y346000D02*
D03*
X218500Y331000D02*
D03*
X211000Y316000D02*
D03*
X218500Y301000D02*
D03*
X211000Y286000D02*
D03*
X218500Y271000D02*
D03*
X211000Y256000D02*
D03*
X218500Y241000D02*
D03*
X211000Y196000D02*
D03*
X218500Y181000D02*
D03*
X211000Y166000D02*
D03*
X218500Y151000D02*
D03*
Y121000D02*
D03*
X211000Y106000D02*
D03*
Y76000D02*
D03*
Y16000D02*
D03*
X203500Y691000D02*
D03*
X196000Y676000D02*
D03*
X203500Y661000D02*
D03*
X196000Y646000D02*
D03*
X203500Y631000D02*
D03*
X196000Y616000D02*
D03*
X203500Y601000D02*
D03*
X196000Y586000D02*
D03*
X203500Y541000D02*
D03*
X196000Y496000D02*
D03*
X203500Y451000D02*
D03*
X196000Y436000D02*
D03*
X203500Y421000D02*
D03*
X196000Y406000D02*
D03*
X203500Y391000D02*
D03*
X196000Y376000D02*
D03*
X203500Y361000D02*
D03*
X196000Y346000D02*
D03*
X203500Y331000D02*
D03*
X196000Y316000D02*
D03*
X203500Y301000D02*
D03*
X196000Y286000D02*
D03*
X203500Y271000D02*
D03*
X196000Y256000D02*
D03*
X203500Y241000D02*
D03*
X196000Y196000D02*
D03*
X203500Y181000D02*
D03*
X196000Y166000D02*
D03*
X203500Y151000D02*
D03*
Y121000D02*
D03*
X196000Y106000D02*
D03*
Y76000D02*
D03*
X203500Y61000D02*
D03*
X196000Y46000D02*
D03*
X203500Y31000D02*
D03*
X196000Y16000D02*
D03*
X188500Y691000D02*
D03*
X181000Y676000D02*
D03*
X188500Y661000D02*
D03*
X181000Y646000D02*
D03*
X188500Y631000D02*
D03*
X181000Y616000D02*
D03*
X188500Y601000D02*
D03*
X181000Y586000D02*
D03*
X188500Y571000D02*
D03*
X181000Y556000D02*
D03*
X188500Y481000D02*
D03*
X181000Y466000D02*
D03*
Y436000D02*
D03*
X188500Y421000D02*
D03*
X181000Y406000D02*
D03*
X188500Y391000D02*
D03*
X181000Y376000D02*
D03*
X188500Y361000D02*
D03*
X181000Y346000D02*
D03*
X188500Y331000D02*
D03*
X181000Y316000D02*
D03*
X188500Y301000D02*
D03*
X181000Y286000D02*
D03*
X188500Y271000D02*
D03*
X181000Y256000D02*
D03*
X188500Y241000D02*
D03*
X181000Y196000D02*
D03*
X188500Y181000D02*
D03*
X181000Y166000D02*
D03*
X188500Y151000D02*
D03*
Y121000D02*
D03*
X181000Y106000D02*
D03*
Y76000D02*
D03*
X188500Y61000D02*
D03*
X181000Y46000D02*
D03*
X188500Y31000D02*
D03*
X181000Y16000D02*
D03*
X173500Y691000D02*
D03*
X166000Y676000D02*
D03*
X173500Y661000D02*
D03*
X166000Y646000D02*
D03*
X173500Y631000D02*
D03*
X166000Y616000D02*
D03*
X173500Y601000D02*
D03*
X166000Y586000D02*
D03*
X173500Y571000D02*
D03*
X166000Y556000D02*
D03*
X173500Y511000D02*
D03*
X166000Y466000D02*
D03*
X173500Y421000D02*
D03*
X166000Y406000D02*
D03*
X173500Y391000D02*
D03*
X166000Y376000D02*
D03*
X173500Y361000D02*
D03*
X166000Y346000D02*
D03*
X173500Y331000D02*
D03*
X166000Y316000D02*
D03*
X173500Y301000D02*
D03*
X166000Y286000D02*
D03*
X173500Y271000D02*
D03*
X166000Y256000D02*
D03*
X173500Y241000D02*
D03*
X166000Y196000D02*
D03*
X173500Y181000D02*
D03*
X166000Y76000D02*
D03*
X173500Y61000D02*
D03*
X166000Y46000D02*
D03*
X173500Y31000D02*
D03*
X166000Y16000D02*
D03*
X158500Y691000D02*
D03*
X151000Y676000D02*
D03*
X158500Y661000D02*
D03*
X151000Y646000D02*
D03*
X158500Y631000D02*
D03*
X151000Y616000D02*
D03*
X158500Y601000D02*
D03*
X151000Y586000D02*
D03*
X158500Y571000D02*
D03*
X151000Y556000D02*
D03*
X158500Y541000D02*
D03*
X151000Y526000D02*
D03*
X158500Y451000D02*
D03*
X151000Y436000D02*
D03*
X158500Y391000D02*
D03*
Y361000D02*
D03*
Y331000D02*
D03*
Y301000D02*
D03*
Y271000D02*
D03*
Y241000D02*
D03*
Y181000D02*
D03*
X151000Y76000D02*
D03*
X158500Y61000D02*
D03*
X151000Y16000D02*
D03*
X143500Y691000D02*
D03*
X136000Y676000D02*
D03*
X143500Y661000D02*
D03*
X136000Y646000D02*
D03*
X143500Y631000D02*
D03*
X136000Y616000D02*
D03*
X143500Y601000D02*
D03*
X136000Y586000D02*
D03*
X143500Y571000D02*
D03*
X136000Y556000D02*
D03*
X143500Y541000D02*
D03*
X136000Y526000D02*
D03*
X143500Y481000D02*
D03*
X136000Y76000D02*
D03*
X143500Y61000D02*
D03*
X136000Y16000D02*
D03*
X128500Y691000D02*
D03*
X121000Y676000D02*
D03*
X128500Y661000D02*
D03*
X121000Y646000D02*
D03*
X128500Y631000D02*
D03*
X121000Y616000D02*
D03*
X128500Y601000D02*
D03*
X121000Y586000D02*
D03*
X128500Y571000D02*
D03*
X121000Y556000D02*
D03*
X128500Y541000D02*
D03*
X121000Y526000D02*
D03*
X128500Y511000D02*
D03*
X121000Y496000D02*
D03*
X128500Y91000D02*
D03*
X121000Y76000D02*
D03*
X128500Y61000D02*
D03*
X121000Y46000D02*
D03*
X128500Y31000D02*
D03*
X121000Y16000D02*
D03*
X113500Y691000D02*
D03*
X106000Y676000D02*
D03*
X113500Y661000D02*
D03*
X106000Y646000D02*
D03*
X113500Y631000D02*
D03*
X106000Y616000D02*
D03*
X113500Y601000D02*
D03*
X106000Y586000D02*
D03*
X113500Y571000D02*
D03*
X106000Y556000D02*
D03*
X113500Y541000D02*
D03*
X106000Y526000D02*
D03*
X113500Y511000D02*
D03*
X106000Y496000D02*
D03*
Y106000D02*
D03*
X113500Y91000D02*
D03*
X106000Y76000D02*
D03*
X113500Y61000D02*
D03*
X106000Y46000D02*
D03*
X113500Y31000D02*
D03*
X106000Y16000D02*
D03*
X98500Y691000D02*
D03*
X91000Y676000D02*
D03*
X98500Y661000D02*
D03*
X91000Y646000D02*
D03*
X98500Y631000D02*
D03*
X91000Y616000D02*
D03*
X98500Y601000D02*
D03*
X91000Y586000D02*
D03*
X98500Y571000D02*
D03*
X91000Y556000D02*
D03*
X98500Y541000D02*
D03*
X91000Y526000D02*
D03*
X98500Y511000D02*
D03*
X91000Y496000D02*
D03*
X98500Y481000D02*
D03*
X91000Y466000D02*
D03*
Y436000D02*
D03*
Y406000D02*
D03*
Y376000D02*
D03*
Y346000D02*
D03*
Y316000D02*
D03*
Y286000D02*
D03*
Y256000D02*
D03*
Y226000D02*
D03*
Y196000D02*
D03*
Y166000D02*
D03*
Y136000D02*
D03*
X98500Y121000D02*
D03*
X91000Y106000D02*
D03*
X98500Y91000D02*
D03*
X91000Y76000D02*
D03*
X98500Y61000D02*
D03*
X91000Y46000D02*
D03*
X98500Y31000D02*
D03*
X91000Y16000D02*
D03*
X83500Y691000D02*
D03*
X76000Y676000D02*
D03*
X83500Y661000D02*
D03*
X76000Y646000D02*
D03*
X83500Y631000D02*
D03*
X76000Y616000D02*
D03*
X83500Y601000D02*
D03*
X76000Y586000D02*
D03*
X83500Y571000D02*
D03*
X76000Y556000D02*
D03*
X83500Y541000D02*
D03*
X76000Y526000D02*
D03*
X83500Y511000D02*
D03*
X76000Y496000D02*
D03*
X83500Y481000D02*
D03*
X76000Y466000D02*
D03*
X83500Y451000D02*
D03*
X76000Y436000D02*
D03*
X83500Y421000D02*
D03*
X76000Y406000D02*
D03*
X83500Y391000D02*
D03*
X76000Y376000D02*
D03*
X83500Y361000D02*
D03*
X76000Y346000D02*
D03*
X83500Y331000D02*
D03*
X76000Y316000D02*
D03*
X83500Y301000D02*
D03*
X76000Y286000D02*
D03*
X83500Y271000D02*
D03*
X76000Y256000D02*
D03*
X83500Y241000D02*
D03*
X76000Y226000D02*
D03*
X83500Y211000D02*
D03*
X76000Y196000D02*
D03*
X83500Y181000D02*
D03*
X76000Y166000D02*
D03*
X83500Y151000D02*
D03*
X76000Y136000D02*
D03*
X83500Y121000D02*
D03*
X76000Y106000D02*
D03*
X83500Y91000D02*
D03*
X76000Y76000D02*
D03*
X83500Y61000D02*
D03*
Y31000D02*
D03*
X76000Y16000D02*
D03*
X68500Y691000D02*
D03*
X61000Y676000D02*
D03*
X68500Y661000D02*
D03*
X61000Y646000D02*
D03*
X68500Y631000D02*
D03*
X61000Y616000D02*
D03*
X68500Y601000D02*
D03*
X61000Y586000D02*
D03*
X68500Y571000D02*
D03*
X61000Y556000D02*
D03*
X68500Y541000D02*
D03*
X61000Y526000D02*
D03*
X68500Y511000D02*
D03*
X61000Y496000D02*
D03*
X68500Y481000D02*
D03*
X61000Y466000D02*
D03*
X68500Y451000D02*
D03*
X61000Y436000D02*
D03*
X68500Y421000D02*
D03*
X61000Y406000D02*
D03*
X68500Y391000D02*
D03*
X61000Y376000D02*
D03*
X68500Y361000D02*
D03*
X61000Y346000D02*
D03*
X68500Y331000D02*
D03*
X61000Y316000D02*
D03*
X68500Y301000D02*
D03*
X61000Y286000D02*
D03*
X68500Y271000D02*
D03*
X61000Y256000D02*
D03*
X68500Y241000D02*
D03*
X61000Y226000D02*
D03*
X68500Y211000D02*
D03*
X61000Y196000D02*
D03*
X68500Y181000D02*
D03*
X61000Y166000D02*
D03*
X68500Y151000D02*
D03*
X61000Y136000D02*
D03*
X68500Y121000D02*
D03*
X61000Y106000D02*
D03*
X68500Y91000D02*
D03*
X61000Y76000D02*
D03*
Y16000D02*
D03*
X53500Y691000D02*
D03*
Y631000D02*
D03*
X46000Y616000D02*
D03*
X53500Y601000D02*
D03*
X46000Y586000D02*
D03*
X53500Y571000D02*
D03*
X46000Y556000D02*
D03*
X53500Y541000D02*
D03*
X46000Y526000D02*
D03*
X53500Y511000D02*
D03*
X46000Y496000D02*
D03*
X53500Y481000D02*
D03*
X46000Y466000D02*
D03*
X53500Y451000D02*
D03*
X46000Y436000D02*
D03*
X53500Y421000D02*
D03*
X46000Y406000D02*
D03*
X53500Y391000D02*
D03*
X46000Y376000D02*
D03*
X53500Y361000D02*
D03*
X46000Y346000D02*
D03*
X53500Y331000D02*
D03*
X46000Y316000D02*
D03*
X53500Y301000D02*
D03*
X46000Y286000D02*
D03*
X53500Y271000D02*
D03*
X46000Y256000D02*
D03*
X53500Y241000D02*
D03*
X46000Y226000D02*
D03*
X53500Y211000D02*
D03*
X46000Y196000D02*
D03*
X53500Y181000D02*
D03*
X46000Y166000D02*
D03*
X53500Y151000D02*
D03*
X46000Y136000D02*
D03*
X53500Y121000D02*
D03*
X46000Y106000D02*
D03*
X53500Y91000D02*
D03*
X46000Y76000D02*
D03*
X53500Y61000D02*
D03*
X46000Y46000D02*
D03*
X53500Y31000D02*
D03*
X46000Y16000D02*
D03*
X38500Y691000D02*
D03*
Y631000D02*
D03*
X31000Y616000D02*
D03*
X38500Y601000D02*
D03*
X31000Y586000D02*
D03*
X38500Y571000D02*
D03*
X31000Y556000D02*
D03*
X38500Y541000D02*
D03*
X31000Y526000D02*
D03*
X38500Y511000D02*
D03*
X31000Y496000D02*
D03*
X38500Y481000D02*
D03*
X31000Y466000D02*
D03*
X38500Y451000D02*
D03*
X31000Y436000D02*
D03*
X38500Y421000D02*
D03*
X31000Y406000D02*
D03*
X38500Y391000D02*
D03*
X31000Y376000D02*
D03*
X38500Y361000D02*
D03*
X31000Y346000D02*
D03*
X38500Y331000D02*
D03*
X31000Y316000D02*
D03*
X38500Y301000D02*
D03*
X31000Y286000D02*
D03*
X38500Y271000D02*
D03*
X31000Y256000D02*
D03*
X38500Y241000D02*
D03*
X31000Y226000D02*
D03*
X38500Y211000D02*
D03*
X31000Y196000D02*
D03*
X38500Y181000D02*
D03*
X31000Y166000D02*
D03*
X38500Y151000D02*
D03*
X31000Y136000D02*
D03*
X38500Y121000D02*
D03*
X31000Y106000D02*
D03*
X38500Y91000D02*
D03*
X31000Y76000D02*
D03*
X38500Y61000D02*
D03*
X31000Y46000D02*
D03*
X38500Y31000D02*
D03*
X31000Y16000D02*
D03*
X23500Y691000D02*
D03*
X16000Y676000D02*
D03*
Y646000D02*
D03*
X23500Y631000D02*
D03*
X16000Y616000D02*
D03*
X23500Y601000D02*
D03*
X16000Y586000D02*
D03*
X23500Y571000D02*
D03*
X16000Y556000D02*
D03*
X23500Y541000D02*
D03*
X16000Y526000D02*
D03*
X23500Y511000D02*
D03*
X16000Y496000D02*
D03*
X23500Y481000D02*
D03*
X16000Y466000D02*
D03*
X23500Y451000D02*
D03*
X16000Y436000D02*
D03*
X23500Y421000D02*
D03*
X16000Y406000D02*
D03*
X23500Y391000D02*
D03*
X16000Y376000D02*
D03*
X23500Y361000D02*
D03*
X16000Y346000D02*
D03*
X23500Y331000D02*
D03*
X16000Y316000D02*
D03*
X23500Y301000D02*
D03*
X16000Y286000D02*
D03*
X23500Y271000D02*
D03*
X16000Y256000D02*
D03*
X23500Y241000D02*
D03*
X16000Y226000D02*
D03*
X23500Y211000D02*
D03*
X16000Y196000D02*
D03*
X23500Y181000D02*
D03*
X16000Y166000D02*
D03*
X23500Y151000D02*
D03*
X16000Y136000D02*
D03*
X23500Y121000D02*
D03*
X16000Y106000D02*
D03*
X23500Y91000D02*
D03*
X16000Y76000D02*
D03*
X23500Y61000D02*
D03*
X16000Y46000D02*
D03*
X23500Y31000D02*
D03*
X16000Y16000D02*
D03*
X1270000Y670000D02*
D03*
X1250000D02*
D03*
X1270000Y650000D02*
D03*
X1250000D02*
D03*
X1245000Y660000D02*
D03*
X1275000D02*
D03*
X1260000Y675000D02*
D03*
Y645000D02*
D03*
X30000Y670000D02*
D03*
X25000Y660000D02*
D03*
X30000Y650000D02*
D03*
X50000D02*
D03*
X55000Y660000D02*
D03*
X50000Y670000D02*
D03*
X40000Y675000D02*
D03*
Y645000D02*
D03*
D35*
X643000Y582000D02*
D03*
X631000Y556000D02*
D03*
X619000Y532000D02*
D03*
X595000Y481000D02*
D03*
X649000Y383000D02*
D03*
Y256000D02*
D03*
Y358000D02*
D03*
Y282000D02*
D03*
Y307000D02*
D03*
Y332000D02*
D03*
X583000Y456000D02*
D03*
X607000Y508000D02*
D03*
X921000Y532000D02*
D03*
Y509000D02*
D03*
X782000Y558000D02*
D03*
X797000Y583000D02*
D03*
X989000Y456000D02*
D03*
X990000Y482000D02*
D03*
X542000Y456000D02*
D03*
Y481000D02*
D03*
X543000Y508000D02*
D03*
X542000Y582000D02*
D03*
Y556000D02*
D03*
Y532000D02*
D03*
X461000Y249000D02*
D03*
X410000Y226000D02*
D03*
M02*
