M48
;Layer_Color=9474304
;FILE_FORMAT=4:4
METRIC,LZ
;TYPE=PLATED
T01F00S00C0.3000
T02F00S00C0.8900
T03F00S00C1.1000
T04F00S00C1.2000
T05F00S00C1.8000
T06F00S00C2.0100
T07F00S00C2.5000
%
T01
X00016Y00016
X00031
X00046
X00061
X00076
X00091
X00106
X00121
X00136
X001285Y00031
X001135
X000985
X000835
X00091Y00046
X00106
X00121
X001285Y00061
X001135
X000985
X000835
X00076Y00076
X00091
X00106
X00121
X00136
X001285Y00091
X001135
X000985
X000835
X000685
X000535
X000385
X000235
X00016Y00106
X00031
X00046
X00061
X00076
X00091
X00106
X000985Y00121
X000835
X000685
X000535
X000385
X000235
X00016Y00136
X00031
X00046
X00061
X00076
X00091
X00061Y00076
X00046
X00031
X00016
X000235Y00061
X000385
X000535
X00046Y00046
X00031
X00016
X000235Y00031
X000385
X000535
X00151Y00016
X00166
X00181
X00196
X00211
X00226
X00241
X00256
X00271
X00286
X00301
X00316
X00331
X00346
X00361
X00376
X00391
X00406
X00421
X00436
X00451
X00466
X00481
X00496
X00511
X00526
X005335Y00031
Y00061
X00526Y00076
X00511
X00496
X00481
X00466
X00451
X00436
X00421
X00406
X00391
X00376
X00361
X00346
X00331
X00316
X00301
X00286
X00271
X00256
X00241
X00226
X00211
X00196
X00181
X00166
X00151
X001585Y00061
X001735
X001885
X002035
X00196Y00046
X00181
X00166
X001735Y00031
X001885
X002035
X002335
X002485
X002635
X002785
X002935
X003085
X003235
X003385
X003535
X00346Y00046
X00331
X00316
X00301
X00286
X00271
X00256
X00241
X002485Y00061
X002635
X002785
X002935
X003085
X003235
X003385
X003535
X003835
X003985
X004135
X004285
X004435
X004585
X004735
X004885
X005035
X00496Y00046
X00481
X00466
X004735Y00031
X004885
X005035
Y00091
X005185
X005335
X00526Y00106
X00511
X005335Y00121
X004885
X004285Y00091
X004135
X003985
X003835
X003685
X003535
X003385
X003235
X00331Y00106
X00346
X00361
X00376
X00391
X00406
X003985Y00121
X003835
X003685
X003535
X00361Y00136
X00376
X00391
Y00046
X00406
X00421
X004285Y00031
X004135
X003985
X003835
X00301Y00106
X00286
X00271
X00256
X00241
X00226
X00211
X00196
X00181
X001885Y00121
X002035
X002185
X002335
X002485
X002635
X002785
X002935
X003085
X002335Y00061
X001435
X005485
X005635
X005785
X005935
X006085
X006235
X00616Y00076
X00631
X006385Y00091
X006535
X006685
X006835
X006985
X007135
X007285
X007435
X007585
X007735
X007885
X008035
X008185
X008335
X008485
X008635
X008785
X00871Y00106
X00856
X00841
X00826
X00811
X00796
X00781
X00766
X00751
X00736
X00721
X00706
X00691
X00676
X00661
X00646
X00631
X00616
X00601
X00586
X00571
X00556
X00541
X005485Y00121
X005635
X005785
X005935
X006085
X006235
X006385
X006535
X006685
X00661Y00136
X00646
X00631
X00616
X00601
X00586
X00571
X00556
X00541
X005485Y00091
X005635
X005785
X005935
X006085
X006235
X00601Y00076
X00586
X00571
X00556
X00541
Y00046
X00556
X00571
X00586
X00601
X00616
X006235Y00031
X006385
X006535
X006685
X006835
X006985
X007135
X007285
X007435
X007585
X007735
X007885
X008035
X008185
X008335
X008485
X008635
X008785
X008935
X009085
X009235
X00916Y00046
X00931
X009235Y00061
X00916Y00076
X00931
X00886
X00871
X00856
X00841
X00826
X00811
X00796
X00781
X00766
X007735Y00061
X007885
X008035
X008185
X008335
X008485
X008635
X00856Y00046
X00871
Y00016
X00886
X00901
X00916
X00931
X00856
X00841
X00826
X00811
X00796
X00781
X00766
X00751
X00736
X00721
X00706
X00691
X00676
X00661
X00646
X00631
X00616
X00601
X00586
X00571
X00556
X00541
X005485Y00031
X005635
X005785
X005935
X006085
X00676Y00046
X00691
X00706
X00721
X007135Y00061
X006985
X006835
X006685
X00661Y00076
X00676
X00691
X00706
X00721
X00736
X007435Y00121
X007585
X007735
X007885
X008035
X008185
X008335
X008485
X00841Y00136
X00826
X00811
X00796
X00781
X00766
X00751
X00766Y00046
X00781
X00796
X00811
X00826
X00841
X00901Y00106
X00946Y00076
X00961
X00976
X009685Y00061
X009535
X009385
X00946Y00046
X00961
X00976
X009835Y00031
X009985
X010135
X010285
X010435
X010585
X010735
X010885
X011035
X011185
X011335
X011485
X011635
X011785
X011935
X012085
X012235
X012385
X012535
X012685
X01283499
X01276Y00046
X01290999
X01283499Y00061
X012685
X01261Y00076
X01276
X01290999
X01283499Y00091
X012685
X012535
X012385
X01231Y00076
X01216
X01201
X01186
X01171
X01156
X01126
X01111
X01096
X01081
X01066
X01051
X01036
X01021
X010285Y00061
X010435
X010585
X010735
X010885
X011035
X011185
X01111Y00046
X01126
Y00016
X01141
X01156
X01171
X01186
X01201
X01216
X01231
X01246
X01261
X01276
X01290999
Y00106
X01276
X01261
X01246
X012685Y00121
X01283499
X01276Y00136
X01290999
X01231
X012235Y00121
X01201Y00106
X011785Y00121
X011635
X011485
X011335
X011185
X011035
X010885
X010735
X010585
X010435
X010285
X010135
X009985
X009835
X009685
X00961Y00136
X00991
X01006
X01021
X01036
X01051
X01066
X01081
X01096
X01111
X01126
X01141
X01156
X011785Y00061
X011935
X012085
X012235
X01216Y00046
X01201
X01186
X01171
X01096
X01081
X01066
X01051
X01036
X01021
Y00016
X01036
X01051
X01066
X01081
X01096
X01111
X01006
X00991
X00976
X00961
X00946
X009535Y00031
X009685
X009385
X00961Y00166
X00991
X01006
X01021
X01036
X01051
X01066
X01081
X01096
X01111
X01126
X01141
X01156
X011485Y00181
X011335
X011185
X011035
X010885
X010735
X010585
X010435
X010285
X010135
X009985
X009835
X00991Y00196
X01006
X01021
X01036
X01051
X01066
X01081
X01096
X01111
X01126
X01141
X01156
X011485Y00211
X011335
X011185
X011035
X010885
X010735
X010585
X010435
X010285
X010135
X009985
X009835
X00991Y00226
X01006
X01021
X01036
X01051
X01066
X01081
X01096
X01111
X01126
X01141
X01156
X011485Y00241
X011335
X011185
X011035
X010885
X010735
X010585
X010435
X010285
X010135
X009985
X009835
X00991Y00256
X01006
X01021
X01036
X01051
X01066
X01081
X01096
X01111
X01126
X01141
X01156
X011485Y00271
X011335
X011185
X011035
X010885
X010735
X010585
X010435
X010285
X010135
X009985
X009835
X00991Y00286
X01006
X01021
X01036
X01051
X01066
X01081
X01096
X01111
X01126
X01141
X01156
X011485Y00301
X011335
X011185
X011035
X010885
X010735
X010585
X010435
X010285
X010135
X009985
X009835
X00991Y00316
X01006
X01021
X01036
X01051
X01066
X01081
X01096
X01111
X01126
X01141
X01156
X011485Y00331
X011335
X011185
X011035
X010885
X010735
X010585
X010435
X010285
X010135
X009985
X009835
X00991Y00346
X01006
X01021
X01036
X01051
X01066
X01081
X01096
X01111
X01126
X01141
X01156
X011485Y00361
X011335
X011185
X011035
X010885
X010735
X010585
X010435
X010285
X010135
X009985
X009835
X00991Y00376
X01006
X01021
X01036
X01051
X01066
X01081
X01096
X01111
X01126
X01141
X01156
X011485Y00391
X011335
X011185
X011035
X010885
X010735
X010585
X010435
X010285
X010135
X009985
X009835
X00991Y00406
X01006
X01021
X01036
X01051
X01066
X01081
X01096
X01111
X01126
X01141
X011335Y00421
X011185
X011035
X010885
X010735
X010585
X010435
X010285
X010135
X009985
X009835
X00991Y00436
X01006
X01021
X01036
X01051
X01066
X01081
X01096
X01111
X01156
X01171
X011785Y00421
X011935
X01186Y00406
X01201
X012085Y00391
X011935
X01186Y00376
X01201
X012085Y00361
X011935
X01186Y00346
X01201
X012085Y00331
X011935
X01186Y00316
X01201
X012085Y00301
X011935
X01186Y00286
X01201
X012085Y00271
X011935
X01186Y00256
X01201
X012085Y00241
X011935
X01186Y00226
X01201
X012085Y00211
X011935
X01186Y00196
X01201
X011935Y00181
X01186Y00166
X011485Y00151
X011335
X011185
X011035
X010885
X010735
X010585
X010435
X010285
X010135
X009985
X00961Y00196
Y00226
Y00256
Y00286
Y00316
X009535Y00331
X00946Y00346
X00961
X009535Y00361
X009385
X00946Y00376
X00961
X009535Y00391
X009385
X00946Y00406
X00961
X009535Y00421
X009385
X00946Y00436
X00961
X00989Y00456
X0099Y00482
X00991Y00496
X01006
X01021
X01036
X01051
X01066
X01081
X01096
X01111
X01126
X01141
X01156
X01171
X01186
X01201
X01216
X01231
X01246
X01261
X01276
X01290999
X01283499Y00511
X012685
X012535
X012385
X012235
X012085
X011935
X011785
X011635
X011485
X011335
X011185
X011035
X010885
X010735
X010585
X010435
X010285
X010135
X009985
X009835
X00976Y00526
X00991
X01006
X01021
X01036
X01051
X01066
X01081
X01096
X01111
X01126
X01141
X01156
X01171
X01186
X01201
X01216
X01231
X01246
X01261
X01276
X01290999
X01283499Y00481
X012685
X012535
X012385
X012235
X012085
X011935
X011785
X01186Y00466
X01201
X01216
X01231
X01246
X01261
X01276
X01290999
X01283499Y00451
X012685
X012535
X012385
X012235
X012085
X01216Y00436
X01231
X01246
X01261
X01276
X01290999
X01283499Y00421
X012685
X012535
X012385
X01246Y00406
X01261
X01276
X01290999
X01283499Y00391
X012685
X012535
X012385
X01246Y00376
X01261
X01276
X01290999
X01283499Y00361
X012685
X012535
X012385
X01246Y00346
X01261
X01276
X01290999
X01283499Y00331
X012685
X012535
X012385
X01246Y00316
X01261
X01276
X01290999
X01283499Y00301
X012685
X012535
X012385
X01246Y00286
X01261
X01276
X01290999
X01283499Y00271
X012685
X012535
X012385
X01246Y00256
X01261
X01276
X01290999
X01283499Y00241
X012685
X012535
X012385
X01246Y00226
X01261
X01276
X01290999
X01283499Y00211
X012685
X012535
X012385
X01246Y00196
X01261
X01276
X01290999
X01283499Y00181
X012685
X012535
X01276Y00166
X01290999
X01283499Y00151
X012685
X012385
X011635Y00451
X011485
X01141Y00466
X01126
X00961Y00496
X00946
X009535Y00511
X009385
X00921Y00509
Y00532
X00886Y00496
X00856
X00811
X007885Y00511
Y00481
Y00451
Y00421
X008185
X008335
X008485
X008635
X008785
X008935
X009085
X00901Y00436
X00886
X00871
X00856
X00841
X00826
X00811
Y00406
X00826
X00841
X00856
X00871
X00886
X00901
X00886Y00346
X00856
X00826
X008335Y00271
X008635
Y00241
X008785
X008935
X009085
X00901Y00226
X00886
X00871
X00856
X00841
X00826
X00811
X008185Y00241
X008335
X008485
Y00211
X008635
X008785
X008935
X00886Y00196
X00871
X00856
X00841
X00826
X008335Y00211
X008185
X008335Y00181
X008485
X008635
X00856Y00166
X00871
X008635Y00151
X008185
X008035
X007885
X007735
X00781Y00166
X00796
X00811
X00751
X00736
X007585Y00181
X00766Y00196
X007435Y00211
X00751Y00226
X00721
X00706
X00691
X00676
X00661
X00646
X00631
X00616
X00601
X00586
X00571
X005785Y00241
X005935
X006085
X006235
X006385
X006535
X006685
X006835
X006985
X007135
X007285
X007135Y00271
X006835
X006385
X006235
X00649Y00282
Y00307
Y00332
Y00358
Y00383
X00661Y00406
X00676
X00691
X00706
X00721
X00736
X00751
X00766
X007585Y00421
X007435
X007285
X007135
X006985
X006835
X006685
X006535
X00661Y00436
X00676
X00691
X00706
X00721
X00736
X00751
X00766
Y00466
Y00496
Y00526
X00736Y00496
X00706
X00661
X00607Y00508
X00586Y00496
X00571
X00556
X00543Y00508
X00542Y00532
Y00481
Y00456
X00583
X00571Y00436
X00601
Y00406
Y00376
X00571
Y00406
Y00346
Y00316
Y00286
X005785Y00271
X00571Y00256
X00586
X00601Y00286
X00649Y00256
X006535Y00211
X006685
X006835
X006985
X00691Y00196
X00676
X00661
X00646
X00631
X00616
X00601
X00586
X00571
X005785Y00211
X005935
X006085
X006235
X006385
Y00181
X006535
X006685
X00661Y00166
X00646
X00631
X00616
X00601
X00586
X00571
X005785Y00181
X005935
X006085
X006235
Y00151
X006385
X006535
X006085
X005935
X005785
X005635
X00691Y00166
X007135Y00181
X00721Y00196
X00736Y00346
X00706
X00676
X00631
X00766Y00376
X009085Y00271
X00595Y00481
X00619Y00532
X005185Y00511
X00511Y00496
X005035Y00481
X00511Y00466
X005035Y00451
X004885
X004735
X004585
X004435
X004285
X004135
X003985
X003835
X003685
X003535
X003385
X003235
X003085
X002935
X002785
X002635
X002485
X002335
X002185
X002035
X00196Y00436
X00211
X00226
X00241
X00256
X00271
X00286
X00301
X00316
X00331
X003385Y00421
X003235
X003085
X002935
X002785
X002635
X002485
X002335
X002185
X002035
X001885
X001735
X00166Y00406
X00181
X00196
X00211
X00226
X00241
X00256
X00271
X00286
X00301
X00316
X00331
X003235Y00391
X003085
X002935
X002785
X002635
X002485
X002335
X002185
X002035
X001885
X001735
X001585
X00166Y00376
X00181
X00196
X00211
X00226
X00241
X00256
X00271
X00286
X00301
X00316
X00331
X003235Y00361
X003085
X002935
X002785
X002635
X002485
X002335
X002185
X002035
X001885
X001735
X001585
X00166Y00346
X00181
X00196
X00211
X00226
X00241
X00256
X00271
X00286
X00301
X00316
X00331
X003235Y00331
X003085
X002935
X002785
X002635
X002485
X002335
X002185
X002035
X001885
X001735
X001585
X00166Y00316
X00181
X00196
X00211
X00226
X00241
X00256
X00271
X00286
X00301
X00316
X00331
X003385Y00301
X003235
X003085
X002935
X002785
X002635
X002485
X002335
X002185
X002035
X001885
X001735
X001585
X00166Y00286
X00181
X00196
X00211
X00226
X00241
X00256
X00271
X00286
X00301
X00316
X00331
X00346
X003385Y00271
X003235
X003085
X002935
X002785
X002635
X002485
X002335
X002185
X002035
X001885
X001735
X001585
X00166Y00256
X00181
X00196
X00211
X00226
X00241
X00256
X00271
X00286
X00301
X00316
X00331
X003235Y00241
X003085
X002935
X002785
X002635
X002485
X002335
X002185
X002035
X001885
X001735
X001585
X00166Y00196
X00181
X00196
X00211
X00226
X00241
X00256
X00271
X00286
X00301
X00316
X00331
X00346
X00361
X003685Y00211
X003535
X003385
X00346Y00226
X00361
X003685Y00241
X003985
X0041Y00226
X004135Y00211
X00406Y00196
X00451
X004585Y00211
X00461Y00249
X004735Y00241
Y00271
X005035
X00511Y00286
X005035Y00301
X00511Y00316
X005035Y00331
X00511Y00346
X005035Y00361
X00511Y00376
X005035Y00391
X004885
X00511Y00406
X005035Y00421
X00511Y00436
X004135Y00391
X003835
X00331Y00466
X00316
X00301
X00286
X00271
X00256
X00241
X00226
X00211
Y00496
X00196
X001885Y00481
X00181Y00466
X00166
X001585Y00451
X00151Y00436
X00181
X001735Y00511
X00151Y00526
X001435Y00481
X002335
X002485
X002635
X002785
X002935
X003085
X003235
X003385
X00331Y00496
X00316
X00301
X00286
X00271
X00256
X00241
Y00526
X00226
X002185Y00511
X002635
X002785
X002935
X003085
X003235
X003385
X003985
Y00271
X00421Y00256
X00511
X00526Y00226
X005185Y00211
X005035
X00496Y00196
X00511
X00526
X005185Y00181
X005035
X004885
X00481Y00166
X00496
X00511
X004885Y00151
X003835
X00391Y00166
X00331
X00316
X00301
X00286
X00271
X00256
X00241
X00226
X00211
X00196
X00181
X001885Y00181
X002035
X002185
X002335
X002485
X002635
X002785
X002935
X003085
X003235
X003385
X003085Y00151
X002935
X002785
X002635
X002485
X002335
X002185
X002035
X001885
X001735Y00181
X001585
X000835
X000685
X000535
X000385
X000235
X00016Y00196
X00031
X00046
X00061
X00076
X00091
X000835Y00211
X000685
X000535
X000385
X000235
X00016Y00226
X00031
X00046
X00061
X00076
X00091
X000835Y00241
X000685
X000535
X000385
X000235
X00016Y00256
X00031
X00046
X00061
X00076
X00091
X000835Y00271
X000685
X000535
X000385
X000235
X00016Y00286
X00031
X00046
X00061
X00076
X00091
X000835Y00301
X000685
X000535
X000385
X000235
X00016Y00316
X00031
X00046
X00061
X00076
X00091
X000835Y00331
X000685
X000535
X000385
X000235
X00016Y00346
X00031
X00046
X00061
X00076
X00091
X000835Y00361
X000685
X000535
X000385
X000235
X00016Y00376
X00031
X00046
X00061
X00076
X00091
X000835Y00391
X000685
X000535
X000385
X000235
X00016Y00406
X00031
X00046
X00061
X00076
X00091
X000835Y00421
X000685
X000535
X000385
X000235
X00016Y00436
X00031
X00046
X00061
X00076
X00091
X000835Y00451
X000685
X000535
X000385
X000235
X00016Y00466
X00031
X00046
X00061
X00076
X00091
X000985Y00481
X000835
X000685
X000535
X000385
X000235
X00016Y00496
X00031
X00046
X00061
X00076
X00091
X00106
X00121
X001285Y00511
X001135
X000985
X000835
X000685
X000535
X000385
X000235
X00016Y00526
X00031
X00046
X00061
X00076
X00091
X00106
X00121
X00136
X00091Y00166
X00076
X00061
X00046
X00031
X00016
X000235Y00151
X000385
X000535
X000685
X000835
Y00541
X000985
X001135
X001285
X00121Y00556
X00136
X001285Y00571
X001135
X000985
X000835
X000685
X000535
X000385
X000235
X00016Y00586
X00031
X00046
X00061
X00076
X00091
X00106
X00121
X00136
X001285Y00601
X001135
X000985
X000835
X000685
X000535
X000385
X000235
X00016Y00616
X00031
X00046
X00061
X00076
X00091
X00106
X00121
X00136
X001285Y00631
X001135
X000985
X000835
X000685
X000535
X000385
X000235
X00016Y00646
X0003Y0065
X00025Y0066
X0003Y0067
X0004Y00675
X0005Y0067
X00055Y0066
X000685Y00661
X000835
X000985
X001135
X001285
X00121Y00676
X00136
X001285Y00691
X001135
X000985
X000835
X000685
X000535
X000385
X000235
X00016Y00676
X00061
X00076
X00091
X00106
Y00646
X00121
X00136
X00091
X00076
X00061
X0005Y0065
X0004Y00645
X00046Y00556
X00061
X00076
X00091
X00106
X000685Y00541
X000535
X000385
X000235
X00016Y00556
X00031
X00151
X00166
X00181
X001885Y00571
X001735
X001585
X001435
X00151Y00586
X00166
X00181
X00196
X00211
X002185Y00601
X002035
X001885
X001735
X001585
X001435
X00151Y00616
X00166
X00181
X00196
X00211
X00226
X00241
X002485Y00631
X002635
X002785
X002935
X003085
X003235
X003385
X003535
X003685
X003835
X003985
X004135
X004285
X004435
X004585
X004735
X004885
X005035
X005185
X005335
X00526Y00646
X00511
X00496
X00481
X00466
X00451
X00436
X00421
X00406
X00391
X00376
X00361
X00346
X00331
X00316
X00301
X00286
X00271
X00256
X00241
X00226
X00211
X00196
X00181
X00166
X00151
X001585Y00661
X001735
X001885
X002035
X002185
X002335
X002485
X002635
X002785
X002935
X003085
X003235
X003385
X003535
X003685
X003835
X003985
X004135
X004285
X004435
X004585
X004735
X004885
X005035
X005185
X005335
X00526Y00676
X00511
X00496
X00481
X00466
X00451
X00436
X00421
X00406
X00391
X00376
X00361
X00346
X00331
X00316
X00301
X00286
X00271
X00256
X00241
X00226
X00211
X00196
X00181
X00166
X00151
X001585Y00691
X001735
X001885
X002035
X002185
X002335
X002485
X002635
X002785
X002935
X003085
X003235
X003385
X003535
X003685
X003835
X003985
X004135
X004285
X004435
X004585
X004735
X004885
X005035
X005185
X005335
Y00571
X005185
X00526Y00556
X00316
X00301
X00286
X00271
X00256
X002485Y00541
X002335Y00571
X002785
X002935
X003085
X003235
X002335Y00631
X002185
X002035
X001885
X001735
X001585
X001435
Y00661
Y00691
Y00541
X001585
X002035
X00542Y00556
Y00582
X005785Y00571
X005935
X006085
X006235
X00631Y00556
X006535Y00571
X00643Y00582
X006385Y00601
X006535
X006685
X006835
X006985
X007135
X007285
X007435
X007585
X007735
X007885
X008035
X008185
X008335
X008485
X008635
X008785
X008935
X009085
X009235
X00916Y00616
X00931
X009235Y00631
X009085
X008935
X008785
X008635
X008485
X008335
X008185
X008035
X007885
X007735
X007585
X007435
X007285
X007135
X006985
X006835
X006685
X006535
X006385
X006235
X006085
X005935
X005785
X005635
X005485
X00541Y00646
X00556
X00571
X00586
X00601
X00616
X00631
X00646
X00661
X00676
X00691
X00706
X00721
X00736
X00751
X00766
X00781
X00796
X00811
X00826
X00841
X00856
X00871
X00886
X00901
X00916
X00931
X009235Y00661
X009085
X008935
X008785
X008635
X008485
X008335
X008185
X008035
X007885
X007735
X007585
X007435
X007285
X007135
X006985
X006835
X006685
X006535
X006385
X006235
X006085
X005935
X005785
X005635
X005485
X00541Y00676
X00556
X00571
X00586
X00601
X00616
X00631
X00646
X00661
X00676
X00691
X00706
X00721
X00736
X00751
X00766
X00781
X00796
X00811
X00826
X00841
X00856
X00871
X00886
X00901
X00916
X00931
X009235Y00691
X009085
X008935
X008785
X008635
X008485
X008335
X008185
X008035
X007885
X007735
X007585
X007435
X007285
X007135
X006985
X006835
X006685
X006535
X006385
X006235
X006085
X005935
X005785
X005635
X005485
X00571Y00616
X00586
X00601
X00616
X00631
X00646
X00661
X00676
X00691
X00706
X00721
X00736
X00751
X00766
X00781
X00796
X00811
X00826
X00841
X00856
X00871
X00886
X00901
X00916Y00586
X00931
X009235Y00571
X00916Y00556
X00931
X008935Y00571
X008635
X008335
X00797Y00583
X00781Y00586
X00766
X007735Y00571
X00782Y00558
X00766Y00556
X007435Y00571
X007135
X006835
X006235Y00601
X006085
X005935
X005785
X009385
X009535
X009685
X009835
X009985
X010135
X010285
X010435
X010585
X010735
X010885
X011035
X011185
X011335
X011485
X011635
X011785
X011935
X012085
X012235
X012385
X012535
X012685
X01283499
X01276Y00616
X01290999
X01283499Y00631
X012685
X012535
X012385
X012235
X012085
X011935
X011785
X011635
X011485
X011335
X011185
X011035
X010885
X010735
X010585
X010435
X010285
X010135
X009985
X009835
X009685
X009535
X009385
X00946Y00646
X00961
X00976
X00991
X01006
X01021
X01036
X01051
X01066
X01081
X01096
X01111
X01126
X01141
X01156
X01171
X01186
X01201
X01216
X01231
X012385Y00661
X01245Y0066
X0125Y0067
X01246Y00676
X01231
X01216
X01201
X01186
X01171
X01156
X01141
X01126
X01111
X01096
X01081
X01066
X01051
X01036
X01021
X01006
X00991
X00976
X00961
X00946
X009535Y00691
X009685
X009835
X009985
X010135
X010285
X010435
X010585
X010735
X010885
X011035
X011185
X011335
X011485
X011635
X011785
X011935
X012085
X012235
X012385
X012535
X012685
X01283499
X01276Y00676
X0127Y0067
X01275Y0066
X01283499Y00661
X01276Y00646
X0127Y0065
X0126Y00645
X0125Y0065
X0126Y00675
X01290999Y00676
Y00646
Y00586
X01276
X01261
X01246
X01231
X01216
X01201
X01186
X01171
X01156
X01141
X01126
X01111
X01096
X01081
X01066
X01051
X01036
X01021
X01006
X00991
X00976
X00961
X00946
X009535Y00571
X009685
X009835
X009985
X010135
X010285
X010435
X010585
X010735
X010885
X011035
X011185
X011335
X011485
X011635
X011785
X011935
X012085
X012235
X012385
X012535
X012685
X01283499
X01276Y00556
X01290999
X01283499Y00541
X012685
X012535
X012385
X012235
X012085
X011935
X011785
X011635
X011485
X011335
X011185
X011035
X010885
X010735
X010585
X010435
X010285
X010135
X009985
X009835
X009685
X00961Y00556
X00976
X00991
X01006
X01021
X01036
X01051
X01066
X01081
X01096
X01111
X01126
X01141
X01156
X01171
X01186
X01201
X01216
X01231
X01246
X01261
Y00616
X01246
X01231
X01216
X01201
X01186
X01171
X01156
X01141
X01126
X01111
X01096
X01081
X01066
X01051
X01036
X01021
X01006
X00991
X00976
X00961
X00946
X009535Y00661
X009685
X009835
X009985
X010135
X010285
X010435
X010585
X010735
X010885
X011035
X011185
X011335
X011485
X011635
X011785
X011935
X012085
X012235
X009385
Y00691
Y00571
X00946Y00556
T02
X006968Y001206
X009468
X011952
Y00146
X011698
X012206
X009722
X009468
X009214
X007222
X006968
X006714
T03
X00128Y00118
X00146Y00136
X00164Y00118
X00428
X00446Y00136
X00464Y00118
Y00154
X00428
X00164
X00128
T04
X00146Y00036
X00446
T05
X00071Y00046
X00221
X00371
X00521
T06
X00646Y000571
X007476
X00896
X009976
X011444
X01246
T07
X0004Y0066
X0126
M30
